<svg xmlns="http://www.w3.org/2000/svg" width="24" height="24" fill="none"><path fill="#04071E" d="M10 5.039v.778l3.027 1.202h2.118l-1.249-2.808C13.002 2.202 10 2.841 10 5.039m2.72 2.935L8.5 6.297v-1.54c0-1.738-2.26-2.414-3.213-.961l-1.91 2.908a2.304 2.304 0 0 0 1.039 3.39l3.503 1.464-2.045 1.898c-1.628 1.511-.004 4.165 2.082 3.405l6.761-2.464 3.462 1.446A2.036 2.036 0 0 0 21 13.965v-1.23a4.715 4.715 0 0 0-4.715-4.716h-3.327a.6.6 0 0 1-.237-.045M3 20.25a.75.75 0 0 1 .75-.75h16.5a.75.75 0 0 1 0 1.5H3.75a.75.75 0 0 1-.75-.75"/></svg>