<svg xmlns="http://www.w3.org/2000/svg" width="24" height="24" fill="none"><path fill="#04071E" d="M4.8 12a2.4 2.4 0 0 1 2.4-2.4h9.6a2.4 2.4 0 0 1 2.4 2.4v2.4a2.4 2.4 0 0 1-2.4 2.4H7.2a2.4 2.4 0 0 1-2.4-2.4zM2.4 19.8a.6.6 0 0 1 .6-.6h18a.6.6 0 0 1 0 1.2H3a.6.6 0 0 1-.6-.6"/><path fill="#04071E" fill-rule="evenodd" d="M4.5 12a2.7 2.7 0 0 1 2.7-2.7h9.6a2.7 2.7 0 0 1 2.7 2.7v2.4a2.7 2.7 0 0 1-2.7 2.7H7.2a2.7 2.7 0 0 1-2.7-2.7zm2.7-2.1A2.1 2.1 0 0 0 5.1 12v2.4c0 1.16.94 2.1 2.1 2.1h9.6a2.1 2.1 0 0 0 2.1-2.1V12a2.1 2.1 0 0 0-2.1-2.1zm-5.1 9.9a.9.9 0 0 1 .9-.9h18a.9.9 0 0 1 0 1.8H3a.9.9 0 0 1-.9-.9m.9-.3a.3.3 0 1 0 0 .6h18a.3.3 0 1 0 0-.6z" clip-rule="evenodd"/></svg>