<svg xmlns="http://www.w3.org/2000/svg" width="24" height="24" fill="none"><path fill="#04071E" d="M3 3.6a.6.6 0 1 0 0 1.2h18a.6.6 0 0 0 0-1.2zM7.2 7.2a2.4 2.4 0 0 0-2.4 2.4V12a2.4 2.4 0 0 0 2.4 2.4h9.6a2.4 2.4 0 0 0 2.4-2.4V9.6a2.4 2.4 0 0 0-2.4-2.4z"/><path fill="#04071E" fill-rule="evenodd" d="M3 3.9a.3.3 0 0 0 0 .6h18a.3.3 0 1 0 0-.6zm-.9.3a.9.9 0 0 1 .9-.9h18a.9.9 0 0 1 0 1.8H3a.9.9 0 0 1-.9-.9m5.1 3.3a2.1 2.1 0 0 0-2.1 2.1V12c0 1.16.94 2.1 2.1 2.1h9.6a2.1 2.1 0 0 0 2.1-2.1V9.6a2.1 2.1 0 0 0-2.1-2.1zM4.5 9.6a2.7 2.7 0 0 1 2.7-2.7h9.6a2.7 2.7 0 0 1 2.7 2.7V12a2.7 2.7 0 0 1-2.7 2.7H7.2A2.7 2.7 0 0 1 4.5 12z" clip-rule="evenodd"/></svg>