<svg xmlns="http://www.w3.org/2000/svg" width="24" height="24" fill="none"><path fill="#04071E" d="M3.6 21a.6.6 0 1 0 1.2 0V3a.6.6 0 0 0-1.2 0zM9.6 4.8a2.4 2.4 0 0 0-2.4 2.4v9.6a2.4 2.4 0 0 0 2.4 2.4H12a2.4 2.4 0 0 0 2.4-2.4V7.2A2.4 2.4 0 0 0 12 4.8z"/><path fill="#04071E" fill-rule="evenodd" d="M4.2 2.7a.3.3 0 0 0-.3.3v18a.3.3 0 1 0 .6 0V3a.3.3 0 0 0-.3-.3m-.9.3a.9.9 0 1 1 1.8 0v18a.9.9 0 1 1-1.8 0zm6.3 2.1a2.1 2.1 0 0 0-2.1 2.1v9.6c0 1.16.94 2.1 2.1 2.1H12a2.1 2.1 0 0 0 2.1-2.1V7.2A2.1 2.1 0 0 0 12 5.1zM6.9 7.2a2.7 2.7 0 0 1 2.7-2.7H12a2.7 2.7 0 0 1 2.7 2.7v9.6a2.7 2.7 0 0 1-2.7 2.7H9.6a2.7 2.7 0 0 1-2.7-2.7z" clip-rule="evenodd"/></svg>