<svg xmlns="http://www.w3.org/2000/svg" width="24" height="24" fill="none"><path fill="#04071E" d="M19.2 21a.6.6 0 0 0 1.2 0V3a.6.6 0 1 0-1.2 0zM12 4.8a2.4 2.4 0 0 0-2.4 2.4v9.6a2.4 2.4 0 0 0 2.4 2.4h2.4a2.4 2.4 0 0 0 2.4-2.4V7.2a2.4 2.4 0 0 0-2.4-2.4z"/><path fill="#04071E" fill-rule="evenodd" d="M19.8 2.7a.3.3 0 0 0-.3.3v18a.3.3 0 0 0 .6 0V3a.3.3 0 0 0-.3-.3m-.9.3a.9.9 0 0 1 1.8 0v18a.9.9 0 1 1-1.8 0zM12 5.1a2.1 2.1 0 0 0-2.1 2.1v9.6c0 1.16.94 2.1 2.1 2.1h2.4a2.1 2.1 0 0 0 2.1-2.1V7.2a2.1 2.1 0 0 0-2.1-2.1zM9.3 7.2A2.7 2.7 0 0 1 12 4.5h2.4a2.7 2.7 0 0 1 2.7 2.7v9.6a2.7 2.7 0 0 1-2.7 2.7H12a2.7 2.7 0 0 1-2.7-2.7z" clip-rule="evenodd"/></svg>