<svg xmlns="http://www.w3.org/2000/svg" width="24" height="24" fill="none"><path fill="#04071E" d="M10.997 5.998a6.14 6.14 0 0 1 5.8 4.125l.075.234.044.144h2.33a2.75 2.75 0 0 1 2.744 2.581l.005.168v1a1.75 1.75 0 0 1-1.606 1.742l-.143.006H18.62l.241.584a1.75 1.75 0 0 1-.813 2.22l-.137.064a1.8 1.8 0 0 1-.496.123l-.171.009h-1.787a1.75 1.75 0 0 1-1.51-.867l-.072-.138-.539-1.142.054-.007c-1.4.186-2.817.208-4.221.066l-.497-.057-.535 1.136a1.75 1.75 0 0 1-1.583 1.005H4.75a1.75 1.75 0 0 1-1.618-2.415l.433-1.05a3.24 3.24 0 0 1-1.57-2.78.75.75 0 0 1 .648-.743L2.745 12l1.88-.001.497-1.642a6.14 6.14 0 0 1 5.875-4.36m6.777 9.693q-1.158.465-2.356.765l-.549.129.362.77a.25.25 0 0 0 .117.118l.053.019.056.006h1.787a.25.25 0 0 0 .248-.28l-.017-.065-.478-1.155h-.043l.411-.148zm-13.552 0 .39.152.388.141-.482 1.165a.25.25 0 0 0 .232.345h1.804l.057-.006a.25.25 0 0 0 .17-.137l.359-.763.044.01a18 18 0 0 1-2.962-.907m-.202-1.695.151-.499-.507.001.025.053q.13.25.33.445M17.37 12l.756 2.498 2.12.001a.25.25 0 0 0 .243-.193l.007-.057v-1a1.25 1.25 0 0 0-1.122-1.242l-.128-.006z"/></svg>