<svg xmlns="http://www.w3.org/2000/svg" width="24" height="24" fill="none"><path fill="#04071E" d="m17.682 18.743 3.538 3.537a.75.75 0 1 0 1.06-1.06L2.78 1.72a.75.75 0 0 0-1.06 1.06l5.033 5.034A3.75 3.75 0 1 0 4.5 14.926V16.5a3.75 3.75 0 0 0 3.75 3.75H12v-1.875c0-1.035-.84-1.875-1.875-1.875H9A.75.75 0 0 1 9 15h1.125a3.375 3.375 0 0 1 3.375 3.375v1.875h1.579a3 3 0 0 0 2.603-1.507M22.5 12.75a4.5 4.5 0 0 1-2.892 4.204L11.653 9H13.2q.152-.298.35-.567l-1.428-1.762a2.252 2.252 0 0 1 3.373-2.979l5.38 5.595A4.5 4.5 0 0 1 22.5 12.75"/></svg>