<svg xmlns="http://www.w3.org/2000/svg" width="24" height="24" fill="none"><path fill="#04071E" d="M20.137 12.864a.9.9 0 0 1 0 1.272l-4.8 4.8a.9.9 0 0 1-1.273 0l-4.8-4.8a.9.9 0 0 1 1.273-1.272l3.263 3.263V8.4A1.8 1.8 0 0 0 12 6.6H4.5a.9.9 0 1 1 0-1.8H12a3.6 3.6 0 0 1 3.6 3.6v7.727l3.264-3.263a.9.9 0 0 1 1.273 0"/><path fill="#04071E" fill-rule="evenodd" d="M4.5 4.95a.75.75 0 1 0 0 1.5H12a1.95 1.95 0 0 1 1.95 1.95v7.727a.15.15 0 0 1-.256.106L10.43 12.97a.75.75 0 1 0-1.06 1.06l4.8 4.8a.75.75 0 0 0 1.06 0l4.8-4.8a.75.75 0 1 0-1.06-1.06l-3.264 3.263a.15.15 0 0 1-.256-.106V8.4A3.45 3.45 0 0 0 12 4.95zm-1.05.75c0-.58.47-1.05 1.05-1.05H12a3.75 3.75 0 0 1 3.75 3.75v7.365l3.008-3.008a1.05 1.05 0 0 1 1.485 1.486l-4.8 4.8a1.05 1.05 0 0 1-1.485 0l-4.8-4.8a1.05 1.05 0 0 1 1.485-1.485l3.007 3.007V8.4A1.65 1.65 0 0 0 12 6.75H4.5c-.58 0-1.05-.47-1.05-1.05" clip-rule="evenodd"/></svg>