<svg xmlns="http://www.w3.org/2000/svg" width="24" height="24" fill="none"><path fill="#04071E" d="M5.128 6.188A8.96 8.96 0 0 0 3 12a8.98 8.98 0 0 0 3.238 6.914 1.125 1.125 0 1 0 1.442-1.728A6.73 6.73 0 0 1 5.25 12c0-1.594.552-3.059 1.476-4.213l9.487 9.487A6.7 6.7 0 0 1 12.9 18.69l.646-.645a1.125 1.125 0 0 0-1.591-1.59L9.33 19.08a1.125 1.125 0 0 0 0 1.59l2.624 2.625a1.125 1.125 0 0 0 1.592-1.59l-.74-.74a8.96 8.96 0 0 0 5.006-2.093l3.408 3.408a.75.75 0 1 0 1.06-1.06L2.78 1.72a.75.75 0 0 0-1.06 1.06zm5.326-.233a1.12 1.12 0 0 0-.309 1.008l.892.892c.354.068.734-.035 1.008-.31l2.626-2.625c.439-.439.439-1.151 0-1.59L12.046.704a1.125 1.125 0 0 0-1.591 1.59l.74.74a8.94 8.94 0 0 0-3.767 1.211L9.09 5.908a6.7 6.7 0 0 1 2.01-.598zm7.638 8.955 1.662 1.662A8.96 8.96 0 0 0 21 12a8.98 8.98 0 0 0-3.238-6.914 1.125 1.125 0 1 0-1.442 1.728A6.73 6.73 0 0 1 18.75 12a6.7 6.7 0 0 1-.658 2.91"/></svg>