<svg xmlns="http://www.w3.org/2000/svg" width="24" height="24" fill="none"><path fill="#04071E" d="M20.137 11.136a.9.9 0 0 0 0-1.272l-4.8-4.8a.9.9 0 0 0-1.273 0l-4.8 4.8a.9.9 0 1 0 1.273 1.272L13.8 7.873V15.6a1.8 1.8 0 0 1-1.8 1.8H4.5a.9.9 0 1 0 0 1.8H12a3.6 3.6 0 0 0 3.6-3.6V7.873l3.264 3.263a.9.9 0 0 0 1.273 0"/><path fill="#04071E" fill-rule="evenodd" d="M13.958 4.958a1.05 1.05 0 0 1 1.485 0l4.8 4.8a1.05 1.05 0 0 1-1.485 1.485L15.75 8.235V15.6A3.75 3.75 0 0 1 12 19.35H4.5a1.05 1.05 0 1 1 0-2.1H12a1.65 1.65 0 0 0 1.65-1.65V8.235l-3.007 3.008a1.05 1.05 0 0 1-1.485-1.485zm1.272.212a.75.75 0 0 0-1.06 0l-4.8 4.8a.75.75 0 1 0 1.06 1.06l3.264-3.263a.15.15 0 0 1 .256.106V15.6A1.95 1.95 0 0 1 12 17.55H4.5a.75.75 0 0 0 0 1.5H12a3.45 3.45 0 0 0 3.45-3.45V7.873a.15.15 0 0 1 .256-.106l3.264 3.263a.75.75 0 1 0 1.06-1.06z" clip-rule="evenodd"/></svg>