<svg xmlns="http://www.w3.org/2000/svg" width="24" height="24" fill="none"><path fill="#04071E" d="M12 2c5.523 0 10 4.478 10 10 0 5.524-4.477 10-10 10S2 17.525 2 12C2 6.479 6.478 2 12 2m.78 5.47-.083-.073a.75.75 0 0 0-.883-.007l-.094.08-.072.084a.75.75 0 0 0-.008.882l.08.094 2.72 2.72H7.75l-.102.007a.75.75 0 0 0-.641.641L7 12l.007.102a.75.75 0 0 0 .641.641l.102.007h6.69l-2.72 2.72-.073.085a.75.75 0 0 0 1.049 1.049l.084-.073 4.002-4 .072-.084a.75.75 0 0 0 .007-.882l-.08-.095zl-.084-.073z"/></svg>