<svg xmlns="http://www.w3.org/2000/svg" width="24" height="24" fill="none"><path fill="#04071E" d="m12.497 3.001 7.555.002.121.014.088.02.104.034.09.04.063.036.063.041.064.05.063.059.094.11.072.11.053.113.035.106.016.065.01.052.01.148v7.504a1 1 0 0 1-1.993.117l-.007-.117v-5.09L6.413 19h5.088a1 1 0 0 1 .993.883L12.5 20a1 1 0 0 1-.884.993l-.116.007-7.561-.002-.096-.01-.077-.015-.077-.022-.07-.025-.09-.042-.089-.054-.091-.07.032.027a1 1 0 0 1-.166-.165l-.051-.07-.04-.064-.032-.065-.034-.081-.025-.08-.024-.112-.007-.06-.004-.09v-7.504a1 1 0 0 1 1.993-.117l.007.117v5.088L17.583 5.001h-5.086a1 1 0 0 1-.993-.883l-.007-.117a1 1 0 0 1 1-1"/></svg>