<svg xmlns="http://www.w3.org/2000/svg" width="24" height="24" fill="none"><path fill="#04071E" d="M19.736 19.834a.9.9 0 0 1-1.238.471l-6.001-3a.9.9 0 1 1 .805-1.61l3.892 1.946-5.183-11.782-5.484 12.795a.9.9 0 1 1-1.655-.709l5.756-13.43c.517-1.205 2.223-1.214 2.752-.013l5.526 12.56 1.558-3.896a.9.9 0 1 1 1.671.668z"/><path fill="#04071E" fill-rule="evenodd" d="M13.243 4.563c-.476-1.081-2.012-1.074-2.477.011L5.01 18.004a.75.75 0 1 0 1.379.591L11.873 5.8a.15.15 0 0 1 .275-.001l5.184 11.782a.15.15 0 0 1-.205.194l-3.892-1.946a.75.75 0 1 0-.67 1.342l6 3a.75.75 0 0 0 1.032-.393l2.399-6a.75.75 0 1 0-1.393-.556l-1.558 3.895a.15.15 0 0 1-.276.005zm-2.753-.107c.569-1.326 2.446-1.335 3.027-.014L18.9 16.674l1.425-3.564a1.05 1.05 0 0 1 1.95.78l-2.4 6a1.05 1.05 0 0 1-1.444.55l-6.001-3a1.05 1.05 0 0 1 .939-1.88l3.52 1.76-4.877-11.084-5.347 12.478a1.05 1.05 0 0 1-1.93-.828z" clip-rule="evenodd"/></svg>