<svg xmlns="http://www.w3.org/2000/svg" width="24" height="24" fill="none"><path fill="#04071E" d="M13.438 5.52a1.8 1.8 0 0 0-2.88.001l-5.395 7.202c-.89 1.186-.043 2.879 1.44 2.879h10.793c1.483 0 2.33-1.693 1.44-2.88zM4.8 18a.6.6 0 1 0 0 1.2h14.4a.6.6 0 0 0 0-1.2z"/><path fill="#04071E" fill-rule="evenodd" d="M10.317 5.341a2.1 2.1 0 0 1 3.361 0l5.398 7.201c1.038 1.385.05 3.36-1.68 3.36H6.603c-1.73 0-2.718-1.975-1.68-3.36zm2.881.36c-.6-.801-1.8-.8-2.4 0l-5.395 7.201c-.741.99-.036 2.4 1.2 2.4h10.793c1.236 0 1.941-1.411 1.2-2.4zM3.9 18.6a.9.9 0 0 1 .9-.9h14.4a.9.9 0 1 1 0 1.8H4.8a.9.9 0 0 1-.9-.9m.9-.3a.3.3 0 1 0 0 .6h14.4a.3.3 0 0 0 0-.6z" clip-rule="evenodd"/></svg>