<svg xmlns="http://www.w3.org/2000/svg" width="24" height="24" fill="none"><path fill="#04071E" d="M10.498 12.505a1 1 0 0 1 .993.883l.007.117v7.504a1 1 0 0 1-1.993.116l-.007-.116v-5.094l-5.79 5.792a1 1 0 0 1-1.32.083l-.095-.083a1 1 0 0 1-.083-1.32l.083-.094 5.788-5.789H2.997a1 1 0 0 1-.117-1.993l.117-.006zM13.5 1.999a1 1 0 0 1 .993.884l.007.116v5.087l5.794-5.793a1 1 0 0 1 1.32-.083l.094.083a1 1 0 0 1 .083 1.32l-.083.094-5.796 5.795 5.09.001a1 1 0 0 1 .116 1.994l-.116.006h-7.502a1 1 0 0 1-.993-.883l-.007-.117V3a1 1 0 0 1 1-1"/></svg>