<svg xmlns="http://www.w3.org/2000/svg" width="24" height="24" fill="none"><path fill="#04071E" d="M19.736 4.166a.9.9 0 0 0-1.238-.47l-6.001 3a.9.9 0 0 0 .805 1.61l3.892-1.947-5.183 11.782L6.527 5.346a.9.9 0 1 0-1.655.709l5.756 13.43c.517 1.206 2.223 1.214 2.752.013l5.526-12.56 1.558 3.896a.9.9 0 1 0 1.671-.668z"/><path fill="#04071E" fill-rule="evenodd" d="M18.431 3.561a1.05 1.05 0 0 1 1.444.55l2.4 6a1.05 1.05 0 0 1-1.95.779L18.9 7.326l-5.383 12.232c-.581 1.321-2.458 1.312-3.027-.014L4.735 6.114a1.05 1.05 0 0 1 1.93-.827l5.347 12.477L16.89 6.68l-3.521 1.76a1.05 1.05 0 0 1-.94-1.878zm.736.238a.75.75 0 0 0-.602.03l-6 3a.75.75 0 0 0 .67 1.342l3.892-1.946a.15.15 0 0 1 .205.195L12.148 18.2a.15.15 0 0 1-.275-.001L6.389 5.405a.75.75 0 1 0-1.379.59l5.756 13.43c.465 1.086 2.001 1.093 2.477.013l5.526-12.56a.15.15 0 0 1 .276.005l1.558 3.896a.75.75 0 0 0 1.393-.557l-2.4-6a.75.75 0 0 0-.429-.423" clip-rule="evenodd"/></svg>