<svg xmlns="http://www.w3.org/2000/svg" width="24" height="24" fill="none"><path fill="#04071E" d="M15.3 21a.9.9 0 1 0 0-1.8H7.8a2.4 2.4 0 0 1-2.4-2.4V7.2a2.4 2.4 0 0 1 2.4-2.4h7.5a.9.9 0 1 0 0-1.8H7.8a4.2 4.2 0 0 0-4.2 4.2v9.6A4.2 4.2 0 0 0 7.8 21zm1.19-13.561a.9.9 0 0 1 1.271.05l3.6 3.9a.9.9 0 0 1 0 1.222l-3.6 3.9a.9.9 0 0 1-1.322-1.221l2.205-2.39H9.3a.9.9 0 1 1 0-1.8h9.344L16.44 8.71a.9.9 0 0 1 .05-1.271"/><path fill="#04071E" fill-rule="evenodd" d="M16.4 20.1a1.1 1.1 0 0 1-1.1 1.1H7.8a4.4 4.4 0 0 1-4.4-4.4V7.2a4.4 4.4 0 0 1 4.4-4.4h7.5a1.1 1.1 0 0 1 0 2.2H7.8a2.2 2.2 0 0 0-2.2 2.2v9.6A2.2 2.2 0 0 0 7.8 19h7.5a1.1 1.1 0 0 1 1.1 1.1m-.046-12.808a1.1 1.1 0 0 1 1.554.062l3.6 3.9a1.1 1.1 0 0 1 0 1.492l-3.6 3.9a1.1 1.1 0 1 1-1.616-1.492l1.895-2.054H9.3a1.1 1.1 0 0 1 0-2.2h8.888l-1.896-2.054a1.1 1.1 0 0 1 .062-1.554m2.29 3.808H9.3a.9.9 0 0 0 0 1.8h9.344l-2.205 2.39a.9.9 0 1 0 1.322 1.22l3.6-3.9a.9.9 0 0 0 0-1.22l-3.6-3.9a.9.9 0 1 0-1.322 1.22zm-2.444 9a.9.9 0 0 1-.9.9H7.8a4.2 4.2 0 0 1-4.2-4.2V7.2A4.2 4.2 0 0 1 7.8 3h7.5a.9.9 0 1 1 0 1.8H7.8a2.4 2.4 0 0 0-2.4 2.4v9.6a2.4 2.4 0 0 0 2.4 2.4h7.5a.9.9 0 0 1 .9.9" clip-rule="evenodd"/></svg>