<svg xmlns="http://www.w3.org/2000/svg" width="24" height="24" fill="none"><path fill="#04071E" d="M5.366 18.537a.9.9 0 0 1-.47-1.238l3-6.001a.9.9 0 1 1 1.61.804l-1.947 3.893 11.782-5.184L6.546 5.327a.9.9 0 0 1 .709-1.654l13.43 5.756c1.206.517 1.214 2.223.013 2.751l-12.56 5.527 3.896 1.557a.9.9 0 0 1-.668 1.672z"/><path fill="#04071E" fill-rule="evenodd" d="M7.196 3.81a.75.75 0 0 0-.591 1.38L19.4 10.673a.15.15 0 0 1 .001.275L7.62 16.132a.15.15 0 0 1-.195-.204l1.946-3.893a.75.75 0 0 0-1.341-.67l-3 6a.75.75 0 0 0 .392 1.033l6 2.398a.75.75 0 1 0 .557-1.392l-3.896-1.558a.15.15 0 0 1-.005-.277l12.56-5.526c1.08-.475 1.073-2.011-.012-2.476zm-1.26.277a1.05 1.05 0 0 1 1.378-.552l13.43 5.756c1.326.568 1.335 2.446.015 3.027L8.526 17.7l3.564 1.425a1.05 1.05 0 0 1-.78 1.95l-6-2.399a1.05 1.05 0 0 1-.549-1.444l3-6.001a1.05 1.05 0 1 1 1.879.938L7.88 15.69l11.084-4.877L6.487 5.465a1.05 1.05 0 0 1-.552-1.378" clip-rule="evenodd"/></svg>