<svg xmlns="http://www.w3.org/2000/svg" width="24" height="24" fill="none"><path fill="#04071E" d="M12.864 20.136a.9.9 0 0 0 1.273 0l4.8-4.8a.9.9 0 0 0 0-1.272l-4.8-4.8a.9.9 0 0 0-1.273 1.272l3.264 3.264H8.4A1.8 1.8 0 0 1 6.6 12V4.5a.9.9 0 1 0-1.8 0V12a3.6 3.6 0 0 0 3.6 3.6h7.728l-3.264 3.264a.9.9 0 0 0 0 1.272"/><path fill="#04071E" fill-rule="evenodd" d="M14.03 20.03a.75.75 0 1 1-1.06-1.06l3.264-3.264a.15.15 0 0 0-.106-.256H8.4A3.45 3.45 0 0 1 4.95 12V4.5a.75.75 0 1 1 1.5 0V12a1.95 1.95 0 0 0 1.95 1.95h7.728a.15.15 0 0 0 .106-.256L12.97 10.43a.75.75 0 1 1 1.06-1.06l4.8 4.8a.75.75 0 0 1 0 1.06zm-1.272.212c.41.41 1.075.41 1.485 0l4.8-4.8a1.05 1.05 0 0 0 0-1.485l-4.8-4.8a1.05 1.05 0 0 0-1.485 1.486l3.008 3.007H8.4A1.65 1.65 0 0 1 6.75 12V4.5a1.05 1.05 0 1 0-2.1 0V12a3.75 3.75 0 0 0 3.75 3.75h7.365l-3.007 3.008a1.05 1.05 0 0 0 0 1.485" clip-rule="evenodd"/></svg>