<svg xmlns="http://www.w3.org/2000/svg" width="24" height="24" fill="none"><path fill="#04071E" d="m15.207 2.292 4 3.995a1 1 0 0 1 .084 1.32l-.083.094-4 4.006a1 1 0 0 1-1.498-1.32l.083-.094L16.083 8H5.5a1 1 0 0 1-.993-.883L4.5 7a1 1 0 0 1 .883-.993L5.5 6h10.59l-2.296-2.294a1 1 0 0 1-.084-1.32l.083-.094a1 1 0 0 1 1.32-.084zl4 3.995zm4.284 14.591.006.117a1 1 0 0 1-.883.993l-.117.007H7.914l2.294 2.293a1 1 0 0 1 .083 1.32l-.083.094a1 1 0 0 1-1.32.084l-.094-.084-4-3.996a1 1 0 0 1-.084-1.32l.083-.094 4-4.004a1 1 0 0 1 1.498 1.32l-.083.094L7.918 16h10.58a1 1 0 0 1 .993.883l.006.117z"/></svg>