<svg xmlns="http://www.w3.org/2000/svg" width="24" height="24" fill="none"><path fill="#04071E" d="m17.978 13.076.098.085 2.357 2.354c.273.179.443.504.443.86 0 .323-.14.619-.368.805l-.007.006-.064.045-2.361 2.358-.098.085-.008.006a1 1 0 0 1-1.177.01l-.008-.007-.117-.099-.091-.106-.006-.007a1 1 0 0 1-.01-1.177l.007-.009.093-.11.801-.8H3.772l-.108-.01h-.01c-.463-.073-.778-.512-.778-.99 0-.48.315-.92.779-.991l.01-.002.108-.008h13.689l-.8-.8-.085-.097-.006-.008a1 1 0 0 1 1.4-1.399zm-.594-8.952a2.5 2.5 0 0 1 2.5 2.5v4a1 1 0 1 1-2 0v-4a.5.5 0 0 0-.5-.5h-11a.5.5 0 0 0-.5.5v6a1 1 0 1 1-2 0v-6a2.5 2.5 0 0 1 2.5-2.5z"/></svg>