<svg xmlns="http://www.w3.org/2000/svg" width="24" height="24" fill="none"><path fill="#04071E" d="M12.864 3.864a.9.9 0 0 1 1.273 0l4.8 4.8a.9.9 0 0 1 0 1.272l-4.8 4.8a.9.9 0 1 1-1.273-1.272l3.264-3.264H8.4A1.8 1.8 0 0 0 6.6 12v7.5a.9.9 0 1 1-1.8 0V12a3.6 3.6 0 0 1 3.6-3.6h7.728l-3.264-3.264a.9.9 0 0 1 0-1.272"/><path fill="#04071E" fill-rule="evenodd" d="M14.03 3.97a.75.75 0 1 0-1.06 1.06l3.264 3.264a.15.15 0 0 1-.106.256H8.4A3.45 3.45 0 0 0 4.95 12v7.5a.75.75 0 0 0 1.5 0V12a1.95 1.95 0 0 1 1.95-1.95h7.728a.15.15 0 0 1 .106.256L12.97 13.57a.75.75 0 1 0 1.06 1.06l4.8-4.8a.75.75 0 0 0 0-1.06zm-1.272-.212a1.05 1.05 0 0 1 1.485 0l4.8 4.8c.41.41.41 1.074 0 1.485l-4.8 4.8a1.05 1.05 0 0 1-1.485-1.485l3.008-3.008H8.4A1.65 1.65 0 0 0 6.75 12v7.5a1.05 1.05 0 1 1-2.1 0V12A3.75 3.75 0 0 1 8.4 8.25h7.365l-3.007-3.008a1.05 1.05 0 0 1 0-1.484" clip-rule="evenodd"/></svg>