<svg xmlns="http://www.w3.org/2000/svg" width="24" height="24" fill="none"><path fill="#04071E" d="m14.712 2.29-.087-.079a1 1 0 0 0-1.327.078l-.078.087a1 1 0 0 0 .078 1.326L14.597 5H8.999l-.24.005A6.997 6.997 0 0 0 2 11.994c0 1.444.438 2.787 1.189 3.898A.999.999 0 0 0 5 15.308a1 1 0 0 0-.185-.579l-.135-.218A4.997 4.997 0 0 1 9 6.998h5.595l-1.297 1.297-.078.087a.999.999 0 0 0 1.492 1.326l3.006-3.003.077-.087a1 1 0 0 0-.078-1.326zm6.075 5.77A.999.999 0 0 0 19 8.678c0 .208.064.401.172.56a4.997 4.997 0 0 1-4.17 7.75H9.414l1.294-1.29.083-.095a1 1 0 0 0-.006-1.232l-.077-.087-.095-.083a1 1 0 0 0-1.232.006l-.088.077-3.005 3.003-.083.095a1 1 0 0 0 .006 1.231l.077.088 3.005 3.003.095.083a1 1 0 0 0 1.397-1.41l-.077-.086-1.304-1.304 5.596.001.24-.004a6.997 6.997 0 0 0 5.546-10.927z"/></svg>