<svg xmlns="http://www.w3.org/2000/svg" width="24" height="24" fill="none"><path fill="#04071E" d="M18.634 18.537a.9.9 0 0 0 .47-1.238l-3-6.001a.9.9 0 1 0-1.61.804l1.947 3.893-11.782-5.184 12.795-5.484a.9.9 0 1 0-.709-1.654L3.315 9.429c-1.206.517-1.214 2.223-.013 2.751l12.56 5.527-3.896 1.557a.9.9 0 1 0 .668 1.672z"/><path fill="#04071E" fill-rule="evenodd" d="M16.686 3.535a1.05 1.05 0 1 1 .827 1.93L5.036 10.813 16.12 15.69l-1.76-3.52a1.05 1.05 0 0 1 1.878-.94l3 6.002a1.05 1.05 0 0 1-.55 1.444l-6 2.399a1.05 1.05 0 0 1-.78-1.95l3.565-1.425L3.24 12.318c-1.32-.581-1.312-2.459.015-3.027zm1.103.67a.75.75 0 0 0-.985-.394L3.374 9.567c-1.085.465-1.093 2-.012 2.476l12.56 5.526a.15.15 0 0 1-.005.277l-3.896 1.558a.75.75 0 1 0 .557 1.392l6-2.398a.75.75 0 0 0 .392-1.032l-3-6.001a.75.75 0 1 0-1.341.67l1.946 3.893a.15.15 0 0 1-.195.204L4.6 10.948a.15.15 0 0 1 0-.275L17.396 5.19a.75.75 0 0 0 .394-.985" clip-rule="evenodd"/></svg>