<svg xmlns="http://www.w3.org/2000/svg" width="24" height="24" fill="none"><path fill="#04071E" d="M3.864 11.136a.9.9 0 0 1 0-1.272l4.8-4.8a.9.9 0 0 1 1.273 0l4.8 4.8a.9.9 0 1 1-1.273 1.272L10.2 7.873V15.6a1.8 1.8 0 0 0 1.8 1.8h7.5a.9.9 0 0 1 0 1.8H12a3.6 3.6 0 0 1-3.6-3.6V7.873l-3.263 3.263a.9.9 0 0 1-1.273 0"/><path fill="#04071E" fill-rule="evenodd" d="M9.83 5.17a.75.75 0 0 0-1.06 0l-4.8 4.8a.75.75 0 1 0 1.06 1.06l3.264-3.263a.15.15 0 0 1 .256.106V15.6A3.45 3.45 0 0 0 12 19.05h7.5a.75.75 0 0 0 0-1.5H12a1.95 1.95 0 0 1-1.95-1.95V7.873a.15.15 0 0 1 .256-.106l3.264 3.263a.75.75 0 1 0 1.06-1.06zm-1.272-.212a1.05 1.05 0 0 1 1.485 0l4.8 4.8a1.05 1.05 0 0 1-1.485 1.485L10.35 8.235V15.6c0 .911.739 1.65 1.65 1.65h7.5a1.05 1.05 0 1 1 0 2.1H12a3.75 3.75 0 0 1-3.75-3.75V8.235l-3.007 3.008a1.05 1.05 0 0 1-1.485-1.485z" clip-rule="evenodd"/></svg>