<svg xmlns="http://www.w3.org/2000/svg" width="24" height="24" fill="none"><path fill="#04071E" d="M6.5 21.75a1 1 0 1 1-2 0v-.25A2.5 2.5 0 0 1 7 19h10a2.5 2.5 0 0 1 2.5 2.5v.25a1 1 0 1 1-2 0v-.25a.5.5 0 0 0-.5-.5H7a.5.5 0 0 0-.5.5zm5.5-4a1 1 0 0 0 1-1V9.664l2.793 2.793a1 1 0 0 0 1.414-1.414l-4.5-4.5a1 1 0 0 0-1.414 0l-4.5 4.5a1 1 0 1 0 1.414 1.414L11 9.664v7.086a1 1 0 0 0 1 1M4.5 2.5A2.5 2.5 0 0 0 7 5h10a2.5 2.5 0 0 0 2.5-2.5v-.25a1 1 0 1 0-2 0v.25a.5.5 0 0 1-.5.5H7a.5.5 0 0 1-.5-.5v-.25a1 1 0 0 0-2 0z"/></svg>