<svg xmlns="http://www.w3.org/2000/svg" width="24" height="24" fill="none"><path fill="#04071E" d="m5.774 13.076-.098.085-2.357 2.354a1.02 1.02 0 0 0-.444.86c0 .323.14.619.368.805l.007.006.065.045 2.36 2.358.099.085.007.006a1 1 0 0 0 1.177.01l.009-.007.116-.099.092-.106.005-.007a1 1 0 0 0 .01-1.177l-.006-.009-.093-.11-.802-.8h13.69l.108-.01h.01c.464-.073.778-.512.778-.99 0-.48-.314-.92-.779-.991l-.01-.002-.107-.008H6.289l.8-.8.086-.097.005-.008a1 1 0 0 0-1.399-1.399zm.594-8.952a2.5 2.5 0 0 0-2.5 2.5v4a1 1 0 1 0 2 0v-4a.5.5 0 0 1 .5-.5h11a.5.5 0 0 1 .5.5v6a1 1 0 1 0 2 0v-6a2.5 2.5 0 0 0-2.5-2.5z"/></svg>