<svg xmlns="http://www.w3.org/2000/svg" width="24" height="24" fill="none"><path fill="#04071E" d="M5.4 2.4A.6.6 0 0 1 6 3c0 4.349 3.452 7.8 7.8 7.8h.952l-1.376-1.376a.6.6 0 0 1 .849-.848l2.4 2.4a.6.6 0 0 1 0 .848l-2.4 2.4a.6.6 0 0 1-.85-.848L14.753 12H13.8A7.75 7.75 0 0 0 6 19.8a.6.6 0 1 1-1.2 0c0-3.856 2.361-7.106 5.733-8.4C7.16 10.106 4.8 6.856 4.8 3a.6.6 0 0 1 .6-.6m6.638 11.031a6.52 6.52 0 0 0-3.638 2.54v.829a2.4 2.4 0 0 0 2.4 2.4H18a2.4 2.4 0 0 0 2.4-2.4V6A2.4 2.4 0 0 0 18 3.6h-7.2A2.4 2.4 0 0 0 8.4 6v.83a6.52 6.52 0 0 0 3.638 2.539 1.8 1.8 0 0 1 3.035-1.642l2.4 2.4a1.8 1.8 0 0 1 0 2.546l-2.4 2.4a1.8 1.8 0 0 1-3.035-1.642"/><path fill="#04071E" fill-rule="evenodd" d="M12.107 13.358a.1.1 0 0 1 .03.093 1.7 1.7 0 0 0 2.866 1.55l2.4-2.399a1.7 1.7 0 0 0 0-2.404l-2.4-2.4a1.7 1.7 0 0 0-2.867 1.55.1.1 0 0 1-.124.117 6.62 6.62 0 0 1-3.694-2.578.1.1 0 0 1-.018-.057V6a2.5 2.5 0 0 1 2.5-2.5H18A2.5 2.5 0 0 1 20.5 6v10.8a2.5 2.5 0 0 1-2.5 2.5h-7.2a2.5 2.5 0 0 1-2.5-2.5v-.83a.1.1 0 0 1 .018-.057 6.62 6.62 0 0 1 3.694-2.578.1.1 0 0 1 .095.023M5.4 2.3a.7.7 0 0 1 .7.7c0 4.293 3.407 7.7 7.7 7.7h.71l-1.205-1.205a.7.7 0 0 1 .99-.99l2.4 2.4a.7.7 0 0 1 0 .99l-2.4 2.4a.7.7 0 0 1-.99-.99L14.51 12.1h-.71a7.65 7.65 0 0 0-7.7 7.7.7.7 0 0 1-1.4 0c0-3.808 2.28-7.033 5.563-8.4C6.98 10.033 4.7 6.808 4.7 3a.7.7 0 0 1 .7-.7m4.996 9.046.137.054-.137.054C7.098 12.783 4.8 15.997 4.8 19.8a.6.6 0 1 0 1.2 0c0-4.349 3.452-7.8 7.8-7.8h.952l-1.376 1.376a.6.6 0 0 0 .849.848l2.4-2.4a.6.6 0 0 0 0-.848l-2.4-2.4a.6.6 0 0 0-.85.848l1.377 1.376H13.8A7.75 7.75 0 0 1 6 3a.6.6 0 0 0-1.2 0c0 3.803 2.298 7.018 5.596 8.346M8.4 6.83V6a2.4 2.4 0 0 1 2.4-2.4H18A2.4 2.4 0 0 1 20.4 6v10.8a2.4 2.4 0 0 1-2.4 2.4h-7.2a2.4 2.4 0 0 1-2.4-2.4v-.83a6.52 6.52 0 0 1 3.638-2.539l-.019.109a1.8 1.8 0 0 0 3.054 1.533l2.4-2.4a1.8 1.8 0 0 0 0-2.546l-2.4-2.4a1.8 1.8 0 0 0-3.035 1.642l-.107-.03a6.52 6.52 0 0 1-3.53-2.51" clip-rule="evenodd"/></svg>