<svg xmlns="http://www.w3.org/2000/svg" width="24" height="24" fill="none"><path fill="#04071E" d="M3.864 12.864a.9.9 0 0 0 0 1.272l4.8 4.8a.9.9 0 0 0 1.273 0l4.8-4.8a.9.9 0 1 0-1.273-1.272L10.2 16.127V8.4A1.8 1.8 0 0 1 12 6.6h7.5a.9.9 0 0 0 0-1.8H12a3.6 3.6 0 0 0-3.6 3.6v7.727l-3.263-3.263a.9.9 0 0 0-1.273 0"/><path fill="#04071E" fill-rule="evenodd" d="M12 4.65h7.5a1.05 1.05 0 1 1 0 2.1H12a1.65 1.65 0 0 0-1.65 1.65v7.365l3.008-3.008a1.05 1.05 0 0 1 1.485 1.486l-4.8 4.8a1.05 1.05 0 0 1-1.485 0l-4.8-4.8a1.05 1.05 0 0 1 1.485-1.485l3.007 3.007V8.4A3.75 3.75 0 0 1 12 4.65m7.5.3H12A3.45 3.45 0 0 0 8.55 8.4v7.727a.15.15 0 0 1-.256.106L5.031 12.97a.75.75 0 0 0-1.061 1.06l4.8 4.8a.75.75 0 0 0 1.06 0l4.8-4.8a.75.75 0 1 0-1.06-1.06l-3.264 3.263a.15.15 0 0 1-.256-.106V8.4A1.95 1.95 0 0 1 12 6.45h7.5a.75.75 0 0 0 0-1.5" clip-rule="evenodd"/></svg>