<svg xmlns="http://www.w3.org/2000/svg" width="24" height="24" fill="none"><path fill="#04071E" d="M15.637 4.464a.9.9 0 0 1 0 1.272l-3 3a.9.9 0 0 1-1.273 0l-3-3a.9.9 0 1 1 1.272-1.272L11.1 5.927V2.1a.9.9 0 1 1 1.8 0v3.827l1.464-1.463a.9.9 0 0 1 1.272 0m-11.173 3.9a.9.9 0 0 1 1.272 0l3 3a.9.9 0 0 1 0 1.272l-3 3a.9.9 0 1 1-1.272-1.272L5.927 12.9H2.1a.9.9 0 1 1 0-1.8h3.827L4.464 9.636a.9.9 0 0 1 0-1.272m13.8 0a.9.9 0 0 1 1.273 1.272L18.073 11.1H21.9a.9.9 0 1 1 0 1.8h-3.827l1.463 1.464a.9.9 0 1 1-1.272 1.272l-3-3a.9.9 0 0 1 0-1.272zm-2.627 11.172a.9.9 0 0 0 0-1.272l-3-3a.9.9 0 0 0-1.273 0l-3 3a.9.9 0 0 0 1.272 1.272l1.464-1.463V21.9a.9.9 0 1 0 1.8 0v-3.827l1.464 1.463a.9.9 0 0 0 1.272 0"/><path fill="#04071E" fill-rule="evenodd" d="M12 1.3a.8.8 0 0 0-.8.8v3.827a.1.1 0 0 1-.17.07L9.565 4.535a.8.8 0 1 0-1.132 1.132l3 3a.8.8 0 0 0 1.132 0l3-3a.8.8 0 0 0-1.132-1.132l-1.463 1.464a.1.1 0 0 1-.17-.07V2.1a.8.8 0 0 0-.8-.8m-1 .8a1 1 0 1 1 2 0v3.586l1.293-1.293a1 1 0 1 1 1.414 1.414l-3 3a1 1 0 0 1-1.414 0l-3-3a1 1 0 0 1 1.414-1.414L11 5.686zM5.666 8.434a.8.8 0 1 0-1.132 1.132l1.464 1.463a.1.1 0 0 1-.07.171H2.1a.8.8 0 0 0 0 1.6h3.827a.1.1 0 0 1 .071.17l-1.464 1.464a.8.8 0 0 0 0 1.132l-.07.07m-.071-7.343a1 1 0 0 1 1.414 0l3 3a1 1 0 0 1 0 1.414l-3 3a1 1 0 0 1-1.414-1.414L5.686 13H2.1a1 1 0 1 1 0-2h3.586L4.393 9.707a1 1 0 0 1 0-1.414m15.073.141a.8.8 0 0 0-1.132 0l-3 3a.8.8 0 0 0 0 1.132l3 3a.8.8 0 0 0 1.132-1.132l-1.464-1.463a.1.1 0 0 1 .07-.171H21.9a.8.8 0 0 0 0-1.6h-3.827a.1.1 0 0 1-.07-.17l1.463-1.464a.8.8 0 0 0 0-1.132m-1.273-.141a1 1 0 1 1 1.414 1.414L18.314 11H21.9a1 1 0 1 1 0 2h-3.586l1.293 1.293a1 1 0 0 1-1.414 1.414l-3-3a1 1 0 0 1 0-1.414zm-12.527.141 3 3zm3 3a.8.8 0 0 1 0 1.132zm0 1.132-3 3zm2.627 2.627a1 1 0 0 1 1.414 0l3 3a1 1 0 0 1-1.414 1.414L13 18.314V21.9a1 1 0 1 1-2 0v-3.586l-1.293 1.293a1 1 0 0 1-1.414-1.414zm1.273.141a.8.8 0 0 0-1.132 0l-3 3a.8.8 0 0 0 1.132 1.132l1.463-1.464a.1.1 0 0 1 .171.07V21.9a.8.8 0 0 0 1.6 0v-3.827a.1.1 0 0 1 .17-.07l1.464 1.463a.8.8 0 0 0 1.132-1.132zm-6.9.232a.8.8 0 0 1-1.132 0z" clip-rule="evenodd"/></svg>