<svg xmlns="http://www.w3.org/2000/svg" width="24" height="24" fill="none"><path fill="#04071E" d="M11.137 3.864a.9.9 0 0 0-1.273 0l-4.8 4.8a.9.9 0 0 0 0 1.272l4.8 4.8a.9.9 0 1 0 1.273-1.272L7.873 10.2H15.6a1.8 1.8 0 0 1 1.8 1.8v7.5a.9.9 0 1 0 1.8 0V12a3.6 3.6 0 0 0-3.6-3.6H7.873l3.264-3.264a.9.9 0 0 0 0-1.272"/><path fill="#04071E" fill-rule="evenodd" d="M9.758 3.758a1.05 1.05 0 0 1 1.485 1.484L8.235 8.25H15.6A3.75 3.75 0 0 1 19.35 12v7.5a1.05 1.05 0 1 1-2.1 0V12a1.65 1.65 0 0 0-1.65-1.65H8.235l3.008 3.008a1.05 1.05 0 0 1-1.485 1.484l-4.8-4.8a1.05 1.05 0 0 1 0-1.484zm1.273.212a.75.75 0 0 0-1.06 0l-4.8 4.8a.75.75 0 0 0 0 1.06l4.8 4.8a.75.75 0 1 0 1.06-1.06l-3.264-3.264a.15.15 0 0 1 .106-.256H15.6A1.95 1.95 0 0 1 17.55 12v7.5a.75.75 0 0 0 1.5 0V12a3.45 3.45 0 0 0-3.45-3.45H7.873a.15.15 0 0 1-.106-.256l3.264-3.264a.75.75 0 0 0 0-1.06" clip-rule="evenodd"/></svg>