<svg xmlns="http://www.w3.org/2000/svg" width="24" height="24" fill="none"><path fill="#04071E" d="m6.907 6.68 2.734-2.729a6.66 6.66 0 1 1 9.42 9.42l-8.338 8.337a1 1 0 0 1-1.415-1.414l8.339-8.337a4.66 4.66 0 0 0-6.418-6.756l-.174.165L7.414 9 12 9a1 1 0 0 1 .993.883L13 10a1 1 0 0 1-.883.993L12 11l-7.06-.002-.095-.01-.112-.024-.131-.046-.082-.04-.102-.065a1 1 0 0 1-.125-.106L4.2 10.6l-.074-.114-.046-.092-.038-.106-.016-.057-.016-.082-.007-.061L4 10V3.003a1 1 0 0 1 1.993-.117L6 3.003v4.583l3.641-3.635z"/></svg>