<svg xmlns="http://www.w3.org/2000/svg" width="24" height="24" fill="none"><path fill="#04071E" d="m3.613 2.21.094.083 18 18a1 1 0 0 1-1.32 1.497l-.094-.083-3.068-3.068c-.599.2-1.234.323-1.893.353l-.331.008H9.405l1.304 1.303.077.087A1 1 0 0 1 9.39 21.8l-.095-.082-3.005-3.006-.077-.087a1 1 0 0 1-.006-1.232l.083-.095 3.005-3.005.088-.078a1 1 0 0 1 1.232-.006l.095.084.077.087a1 1 0 0 1 .006 1.232l-.083.095L9.415 17l5.586.001q.281 0 .553-.03L6.348 7.762A5 5 0 0 0 4 12c0 .918.248 1.78.68 2.519l.135.218a1 1 0 0 1-1.627 1.164A6.95 6.95 0 0 1 2 12a6.99 6.99 0 0 1 2.908-5.68L2.293 3.707a1 1 0 0 1 1.32-1.497M20 7.682c.32 0 .603.15.787.383l.053.075.017.027A6.96 6.96 0 0 1 22 12c0 1.977-.82 3.763-2.138 5.035l-1.415-1.414A4.99 4.99 0 0 0 20 12.001c0-.926-.252-1.793-.69-2.537l-.138-.22A1 1 0 0 1 20 7.683m-5.375-5.47.087.077 3.006 3.005a1 1 0 0 1 .077 1.327l-.078.088-3.005 3.005a1 1 0 0 1-1.492-1.327l.078-.087L14.595 7H9.826L7.911 5.086q.416-.066.848-.08l.24-.004h5.598l-1.299-1.299a1 1 0 0 1-.078-1.327l.078-.087a1 1 0 0 1 1.327-.077"/></svg>