<svg xmlns="http://www.w3.org/2000/svg" width="24" height="24" fill="none"><path fill="#04071E" d="M8.645 4.361c1.564 2.852 2.359 5.144 2.359 6.72s-.744 2.895-1.466 3.52q-.087.075-.196.136l-.114.058a.454.454 0 0 1-.634-.495l.025-.089q.92-2.272.885-4.464a.75.75 0 0 0-1.499-.022l.004.023q.009.555-.056 1.12l-.066.477-.042.237-.068.33-.102.413-.043.155q-.256.904-.684 1.834c-.763 1.657-2.079 2.874-3.912 3.633a.75.75 0 1 1-.574-1.386q1.446-.598 2.324-1.622c-1.663-.525-2.63-1.67-2.763-3.27-.15-1.81.532-3.035 2.26-4.412l.49-.377.356-.27.37-.288q1.248-1.012 1.876-1.98c.3-.464 1.001-.47 1.27.019M17 6a3 3 0 0 1 2.995 2.824L20 9v1l1 .018a1 1 0 0 1 .993.879l.008.12v2a1 1 0 0 1-.866.992l-.134.009L20 14v1a3 3 0 0 1-2.824 2.995L17 18H8.243a1 1 0 0 1-.117-1.993L8.243 16h.63l.075-.006.105-.018C9.796 15.813 12 14.773 12 11.018q0-1.825-.905-4.055a.7.7 0 0 1 .553-.957L11.743 6z"/></svg>