<svg xmlns="http://www.w3.org/2000/svg" width="24" height="24" fill="none"><path fill="#04071E" d="M9 4.5v6.238c0 .375-.094.744-.273 1.074L7.54 14h4.483a6.52 6.52 0 0 1 3.094-2.549 2.3 2.3 0 0 1-.116-.713V4.5h1A.75.75 0 0 0 16 3H8a.75.75 0 0 0 0 1.5zm-2.275 11h4.589a6.5 6.5 0 0 0-.314 2 6.47 6.47 0 0 0 1.022 3.5H6.68a1.75 1.75 0 0 1-1.538-2.585zM23 17.5a5.5 5.5 0 1 0-11 0 5.5 5.5 0 0 0 11 0m-7.976-2.476.069-.058.076-.043a.5.5 0 0 1 .493.043l.069.058 1.77 1.77 1.771-1.77.07-.058a.5.5 0 0 1 .568 0l.07.058.057.07a.5.5 0 0 1 0 .568l-.058.07-1.772 1.769 1.77 1.769.057.069a.5.5 0 0 1 0 .569l-.057.069-.07.058a.5.5 0 0 1-.568 0l-.07-.058-1.769-1.77-1.767 1.768-.069.057a.5.5 0 0 1-.568 0l-.07-.057-.057-.07a.5.5 0 0 1 0-.568l.057-.07 1.767-1.766-1.77-1.77-.057-.069a.5.5 0 0 1 0-.569z"/></svg>