<svg xmlns="http://www.w3.org/2000/svg" width="24" height="24" fill="none"><path fill="#04071E" d="M9 4.5v6.238c0 .375-.094.744-.273 1.074L7.54 14h4.483a6.52 6.52 0 0 1 3.094-2.549 2.3 2.3 0 0 1-.116-.713V4.5h1A.75.75 0 0 0 16 3H8a.75.75 0 0 0 0 1.5zm-2.275 11h4.589a6.5 6.5 0 0 0-.314 2 6.47 6.47 0 0 0 1.022 3.5H6.68a1.75 1.75 0 0 1-1.538-2.585zM17.5 12a5.5 5.5 0 1 1 0 11 5.5 5.5 0 0 1 0-11m.501 8.503V18h2.502a.5.5 0 1 0 0-1H18v-2.5a.5.5 0 1 0-1 0V17h-2.504a.5.5 0 0 0 0 1h2.505v2.503a.5.5 0 1 0 1 0"/></svg>