<svg xmlns="http://www.w3.org/2000/svg" width="24" height="24" fill="none"><path fill="#04071E" d="M6.6 4.2a.6.6 0 0 1 .6-.6h9.6a.6.6 0 1 1 0 1.2h-1.195v5.62q0 .31.045.614a6.62 6.62 0 0 0-4.13 3.366H6.822l1.069-1.984a4.2 4.2 0 0 0 .502-1.992V4.8H7.2a.6.6 0 0 1-.6-.6m4.2 13.2c0-.624.087-1.228.248-1.8H6.176l-1.157 2.148c-.646 1.199.221 2.654 1.584 2.654h4.919c-.461-.9-.721-1.921-.721-3.002m3.678-3.67a2.4 2.4 0 0 1-1.716 2.974l-.554.141a5.7 5.7 0 0 0 .012 1.22l.42.1a2.4 2.4 0 0 1 1.747 3.022l-.151.507q.464.367 1.001.622l.39-.413a2.4 2.4 0 0 1 3.492.002l.404.43q.528-.246.987-.598l-.188-.668a2.4 2.4 0 0 1 1.717-2.973l.553-.142a5.6 5.6 0 0 0-.012-1.22l-.42-.099a2.4 2.4 0 0 1-1.747-3.023l.152-.506a5.2 5.2 0 0 0-1.002-.622l-.39.413a2.4 2.4 0 0 1-3.49-.002l-.406-.43q-.527.245-.986.597zM17.4 18.6a1.2 1.2 0 1 1 0-2.4 1.2 1.2 0 0 1 0 2.4"/></svg>