<svg xmlns="http://www.w3.org/2000/svg" width="24" height="24" fill="none"><path fill="#04071E" d="M6 3.6A2.4 2.4 0 0 0 3.6 6v9.6c1.671 0 2.718-.482 3.434-1.151.737-.687 1.185-1.626 1.55-2.65.126-.352.237-.696.347-1.04l.158-.489c.162-.495.338-.99.556-1.426.217-.435.496-.85.886-1.155.402-.316.89-.489 1.469-.489s1.067.173 1.47.489c.39.305.668.72.885 1.155.218.436.393.93.556 1.427q.08.244.158.487c.11.345.22.69.346 1.04.366 1.025.814 1.964 1.55 2.65.717.67 1.764 1.152 3.435 1.152V6A2.4 2.4 0 0 0 18 3.6zm14.4 13.2c-1.929 0-3.282-.568-4.253-1.474-.951-.888-1.478-2.05-1.862-3.124-.132-.37-.253-.747-.366-1.1q-.076-.238-.148-.457c-.16-.489-.313-.912-.489-1.264s-.357-.594-.553-.748C12.546 8.49 12.321 8.4 12 8.4s-.546.09-.73.233c-.195.154-.376.396-.552.748s-.329.775-.49 1.264l-.147.456c-.113.354-.234.731-.366 1.1-.384 1.076-.91 2.237-1.862 3.125-.97.906-2.324 1.474-4.253 1.474V18A2.4 2.4 0 0 0 6 20.4h12a2.4 2.4 0 0 0 2.4-2.4z"/></svg>