<svg xmlns="http://www.w3.org/2000/svg" width="24" height="24" fill="none"><path fill="#04071E" d="M19.138 6.6h.06a3.001 3.001 0 1 1-1.625 5.522l.54 2.225a1.5 1.5 0 0 1-1.459 1.853h-.915a1.5 1.5 0 0 1-1.457-1.854l.54-2.223a3 3 0 0 1-1.7.476 2.4 2.4 0 0 0-.839-1.285c.204-.532.315-1.11.315-1.714 0-.981-.294-1.894-.8-2.654a3 3 0 0 1 1.46-.345 3 3 0 0 1 0-1.2 3.001 3.001 0 0 1 5.88 1.2M7.8 6a3.6 3.6 0 0 0-2.683 6H4.8a1.2 1.2 0 0 0 0 2.4h.623c-.445 2.158-1.622 3.403-2.278 3.952-.417.348-.745.883-.745 1.507 0 .961.78 1.741 1.741 1.741h7.318c.961 0 1.74-.78 1.74-1.741 0-.624-.328-1.159-.744-1.507-.656-.55-1.833-1.794-2.278-3.952h.623a1.2 1.2 0 0 0 0-2.4h-.317A3.6 3.6 0 0 0 7.8 6"/></svg>