<svg xmlns="http://www.w3.org/2000/svg" width="24" height="24" fill="none"><path fill="#04071E" d="M4.8 4.8a2.4 2.4 0 0 1 2.4-2.4h9.6a2.4 2.4 0 0 1 2.4 2.4v6.248a6.6 6.6 0 0 0-8.151 8.152H6a1.2 1.2 0 0 0 1.2 1.2h4.32q.33.647.789 1.2H7.2a2.4 2.4 0 0 1-2.4-2.4zm3.3 0a.9.9 0 0 0-.9.9v.6a.9.9 0 0 0 .9.9h7.8a.9.9 0 0 0 .9-.9v-.6a.9.9 0 0 0-.9-.9zm14.7 12.6a5.4 5.4 0 1 1-10.8 0 5.4 5.4 0 0 1 10.8 0m-3.176-1.376a.6.6 0 0 0-.848-.848L17.4 16.552l-1.376-1.376a.6.6 0 1 0-.848.848l1.376 1.376-1.376 1.376a.6.6 0 0 0 .848.848L17.4 18.25l1.376 1.375a.6.6 0 1 0 .848-.848L18.25 17.4z"/></svg>