<svg xmlns="http://www.w3.org/2000/svg" width="24" height="24" fill="none"><path fill="#04071E" d="M5.4 1.2a3 3 0 0 0-3 3V15a3 3 0 0 0 3 3h4.2v-7.2h-3a.6.6 0 1 1 0-1.2h3.205c.158-.447.402-.854.712-1.2H6.6a.6.6 0 0 1 0-1.2h12.6v-3a3 3 0 0 0-3-3zM6 5.4a.6.6 0 0 1 .6-.6H15A.6.6 0 1 1 15 6H6.6a.6.6 0 0 1-.6-.6m15.6 5.4a2.4 2.4 0 0 0-2.4-2.4h-6a2.4 2.4 0 0 0-2.4 2.4v9.6a2.4 2.4 0 0 0 2.4 2.4H21a.6.6 0 1 0 0-1.2h-7.8a1.2 1.2 0 0 1-1.2-1.2v-.004h9a.6.6 0 0 0 .6-.6zM12 19.196V10.8a1.2 1.2 0 0 1 1.2-1.2h6a1.2 1.2 0 0 1 1.2 1.2v8.396z"/></svg>