<svg xmlns="http://www.w3.org/2000/svg" width="24" height="24" fill="none"><path fill="#04071E" d="M18.364 10.283q.069.05.132.105.004-.066.004-.133V5.75a2.25 2.25 0 0 0-2.25-2.25h-3.5v-.75l-.007-.101A.75.75 0 0 0 12 2l-.102.007a.75.75 0 0 0-.648.743v.75h-3.5A2.25 2.25 0 0 0 5.5 5.75v4.505a2.25 2.25 0 0 0 2.25 2.25h7.784l.019-.053.009-.026.45-1.384.004-.012a1.544 1.544 0 0 1 2.348-.747M9.749 6.5a1.25 1.25 0 1 1 0 2.499 1.25 1.25 0 0 1 0-2.499m4.493 0a1.25 1.25 0 1 1 0 2.499 1.25 1.25 0 0 1 0-2.499m-1.2 7.537.113-.037H6.253a2.25 2.25 0 0 0-2.25 2.25v.907a3.75 3.75 0 0 0 1.306 2.844c1.563 1.343 3.801 2 6.69 2 2.077 0 3.818-.339 5.214-1.028a1.55 1.55 0 0 1-1.17-1.003l-.003-.012-.45-1.385-.001-.001a1.8 1.8 0 0 0-.443-.72l-.36-.262-.358-.183-1.386-.45-.011-.005a1.544 1.544 0 0 1 0-2.911zm2.812 3.109a2.8 2.8 0 0 1 .685 1.114l.448 1.377a.544.544 0 0 0 1.026 0l.448-1.377a2.84 2.84 0 0 1 1.798-1.796l1.378-.448a.545.545 0 0 0 0-1.025l-.028-.007-1.378-.448a2.84 2.84 0 0 1-1.798-1.796l-.448-1.377a.544.544 0 0 0-1.026 0l-.448 1.377-.011.034a2.84 2.84 0 0 1-1.76 1.762l-1.377.448a.545.545 0 0 0 0 1.025l1.378.448c.42.14.8.376 1.113.689m7.163 3.819.766.248.015.004a.302.302 0 0 1 0 .57l-.765.248a1.58 1.58 0 0 0-1 .999l-.248.764a.302.302 0 0 1-.57 0l-.249-.764a1.58 1.58 0 0 0-.999-1.002l-.765-.249a.303.303 0 0 1 0-.57l.765-.248a1.58 1.58 0 0 0 .984-.998l.248-.765a.303.303 0 0 1 .57 0l.25.764a1.58 1.58 0 0 0 .998.999"/></svg>