<svg xmlns="http://www.w3.org/2000/svg" width="24" height="24" fill="none"><path fill="#04071E" d="M17.5 12a5.5 5.5 0 1 1 0 11 5.5 5.5 0 0 1 0-11m-5.478 2A6.47 6.47 0 0 0 11 17.5c0 1.644.61 3.146 1.617 4.29q-1.203.211-2.617.211c-2.89 0-5.128-.657-6.691-2a3.75 3.75 0 0 1-1.306-2.844v-.907A2.25 2.25 0 0 1 4.253 14zm5.478 0-.09.007a.5.5 0 0 0-.402.402L17 14.5V17L14.498 17l-.09.008a.5.5 0 0 0-.402.402l-.008.09.008.09a.5.5 0 0 0 .402.402l.09.008H17l.001 2.503.008.09a.5.5 0 0 0 .402.402l.09.008.09-.008a.5.5 0 0 0 .402-.402l.008-.09V18l2.503.001.09-.008a.5.5 0 0 0 .402-.402l.008-.09-.008-.09a.5.5 0 0 0-.402-.402l-.09-.008H18v-2.5l-.008-.09a.5.5 0 0 0-.402-.403zM10 2a.75.75 0 0 1 .743.649l.007.101v.75h3.5a2.25 2.25 0 0 1 2.25 2.25v4.505c0 .3-.06.588-.167.85a6.46 6.46 0 0 0-2.992 1.4H5.75a2.25 2.25 0 0 1-2.25-2.25V5.75A2.25 2.25 0 0 1 5.75 3.5h3.5v-.75a.75.75 0 0 1 .55-.723l.098-.02zM7.75 6.5a1.25 1.25 0 1 0 0 2.499 1.25 1.25 0 0 0 0-2.499m4.492 0a1.25 1.25 0 1 0 0 2.499 1.25 1.25 0 0 0 0-2.499"/></svg>