<svg xmlns="http://www.w3.org/2000/svg" width="24" height="24" fill="none"><path fill="#04071E" d="M13.409 2.512a3.75 3.75 0 0 0-2.818 0l-2.19.888 9.592 3.73 3.374-1.303a1.8 1.8 0 0 0-.46-.275zM22 7.19l-9.25 3.574v2.3A6.48 6.48 0 0 1 17.5 11c1.747 0 3.332.689 4.5 1.81zm-10.75 8.52v-4.946L2 7.19v9.636a1.75 1.75 0 0 0 1.093 1.622l7.498 3.04q.323.13.659.2V19.29A6.5 6.5 0 0 1 11 17.5c0-.621.087-1.222.25-1.79M2.633 5.826 12 9.446l3.917-1.514-9.543-3.71-3.281 1.33q-.256.104-.46.275M17.5 12a5.5 5.5 0 1 0 0 11 5.5 5.5 0 0 0 0-11m-3.498 5.458.015-.086.02-.063.035-.068.032-.047 2.542-2.548.07-.057a.5.5 0 0 1 .695.695l-.057.07L15.706 17 21 17l.09.008a.5.5 0 0 1 .402.402l.008.09-.008.09a.5.5 0 0 1-.402.402L21 18l-5.292.001 1.646 1.645.057.07a.5.5 0 0 1 0 .568l-.057.07-.07.057a.5.5 0 0 1-.568 0l-.07-.057-2.512-2.513-.045-.056-.042-.074-.03-.083-.012-.06-.005-.056z"/></svg>