<svg xmlns="http://www.w3.org/2000/svg" width="24" height="24" fill="none"><path fill="#04071E" d="M13.409 2.513a3.75 3.75 0 0 0-2.818 0l-2.19.888 9.592 3.73 3.374-1.303a1.8 1.8 0 0 0-.46-.275zM22 7.191l-9.25 3.574v10.923q.336-.068.659-.199l7.498-3.04A1.75 1.75 0 0 0 22 16.827zm-10.75 3.574v10.01l-1.825-1.824A5.5 5.5 0 0 0 2 11.601V7.19zM2.633 5.828 12 9.447l3.917-1.514-9.543-3.71-3.281 1.33q-.256.104-.46.275M4.5 21a4.5 4.5 0 0 0 2.607-.832l2.613 2.612a.75.75 0 1 0 1.06-1.06l-2.612-2.613A4.5 4.5 0 1 0 4.5 21.001m0-1.5a3 3 0 1 1 0-6 3 3 0 0 1 0 6"/></svg>