<svg xmlns="http://www.w3.org/2000/svg" width="24" height="24" fill="none"><path fill="#04071E" d="M16.3 2.331a3.75 3.75 0 0 0-2.6 0L9.393 3.923A1.75 1.75 0 0 0 8.25 5.564v2.793a4.75 4.75 0 0 1 2.397.235l4.306 1.592c.514.19.946.523 1.258.944A6.5 6.5 0 0 1 17.5 11c1.625 0 3.11.596 4.25 1.582V5.564a1.75 1.75 0 0 0-1.143-1.641zM11.77 7.21a.75.75 0 1 1 .49-1.418l2.658.92a.25.25 0 0 0 .163 0l2.65-.92a.75.75 0 1 1 .492 1.418l-2.65.919a1.75 1.75 0 0 1-1.145 0zm2.837 3.913c.2.074.382.183.538.318a6.5 6.5 0 0 0-2.68 1.95.75.75 0 0 0-.733-.14L9 14.199l-2.74-.948a.75.75 0 0 0-.49 1.418l2.48.857v2.7a.75.75 0 1 0 1.5 0v-2.7l1.789-.62A6.5 6.5 0 0 0 11 17.5a6.47 6.47 0 0 0 1.037 3.524l-1.737.642c-.839.31-1.761.31-2.6 0l-4.307-1.591a1.75 1.75 0 0 1-1.143-1.642v-5.67a1.75 1.75 0 0 1 1.143-1.641L7.7 9.53a3.75 3.75 0 0 1 2.6 0zM23 17.5a5.5 5.5 0 1 1-11 0 5.5 5.5 0 0 1 11 0m-2.5.5a.5.5 0 0 0 0-1h-4.793l1.647-1.646a.5.5 0 0 0-.708-.708l-2.5 2.5a.5.5 0 0 0 0 .708l2.5 2.5a.5.5 0 0 0 .708-.708L15.707 18z"/></svg>