<svg xmlns="http://www.w3.org/2000/svg" width="24" height="24" fill="none"><path fill="#04071E" d="M6 3a3 3 0 0 0-3 3v4.5a.75.75 0 0 1-.75.75.75.75 0 0 0 0 1.5.75.75 0 0 1 .75.75V18a3 3 0 0 0 3 3 .75.75 0 0 0 0-1.5A1.5 1.5 0 0 1 4.5 18v-4.5c0-.576-.217-1.102-.573-1.5.356-.398.573-.924.573-1.5V6A1.5 1.5 0 0 1 6 4.5.75.75 0 0 0 6 3m12 0a3 3 0 0 1 3 3v4.5c0 .414.336.75.75.75a.75.75 0 0 1 0 1.5.75.75 0 0 0-.75.75V18a3 3 0 0 1-3 3 .75.75 0 0 1 0-1.5 1.5 1.5 0 0 0 1.5-1.5v-4.5c0-.576.217-1.102.573-1.5a2.24 2.24 0 0 1-.573-1.5V6A1.5 1.5 0 0 0 18 4.5.75.75 0 0 1 18 3m-6 15a6 6 0 1 0 0-12 6 6 0 0 0 0 12m-2.78-7.72a.75.75 0 1 1 1.06-1.06L12 10.94l1.72-1.72a.75.75 0 1 1 1.06 1.06L13.06 12l1.72 1.72a.75.75 0 1 1-1.06 1.06L12 13.06l-1.72 1.72a.75.75 0 1 1-1.06-1.06L10.94 12z"/></svg>