<svg xmlns="http://www.w3.org/2000/svg" width="24" height="24" fill="none"><path fill="#04071E" d="M19.5 15.075V8.25c0-2.07-1.68-3.75-3.75-3.75h-2.685l1.71-1.725c.3-.285.3-.765 0-1.05a.725.725 0 0 0-1.05 0l-3 3c-.3.285-.3.765 0 1.05l3 3c.285.3.765.3 1.05 0 .3-.285.3-.765 0-1.05L13.065 6h2.685A2.247 2.247 0 0 1 18 8.25v6.825a3.75 3.75 0 1 0 1.5 0M9 5.25C9 3.18 7.32 1.5 5.25 1.5a3.751 3.751 0 0 0-.75 7.425v6.151c-1.71.348-3 1.863-3 3.674a3.754 3.754 0 0 0 3.75 3.75A3.754 3.754 0 0 0 9 18.75a3.754 3.754 0 0 0-3-3.674V8.926A3.75 3.75 0 0 0 9 5.25"/></svg>