<svg xmlns="http://www.w3.org/2000/svg" width="24" height="24" fill="none"><path fill="#04071E" stroke="#04071E" stroke-width=".3" d="M20.4 4.2a.6.6 0 1 0-1.2 0v2.4a1.8 1.8 0 0 1-1.8 1.8h-.6a3.6 3.6 0 0 0-2.778-3.506c.247-.386.378-.835.378-1.294V3a.6.6 0 1 0-1.2 0v.6a1.2 1.2 0 1 1-2.4 0V3a.6.6 0 1 0-1.2 0v.6c0 .459.13.908.378 1.294A3.6 3.6 0 0 0 7.2 8.4h-.6a1.8 1.8 0 0 1-1.8-1.8V4.2a.6.6 0 1 0-1.2 0v2.4a3 3 0 0 0 3 3h.6v1.8H3a.6.6 0 1 0 0 1.2h4.2v1.8h-.6a3 3 0 0 0-3 3v2.4a.6.6 0 0 0 1.2 0v-2.4a1.8 1.8 0 0 1 1.8-1.8h.6a4.783 4.783 0 0 0 4.304 4.75 6.584 6.584 0 0 1 5.296-9.52V9.6h.6a3 3 0 0 0 3-3zm-3 7.8a5.4 5.4 0 1 0 0 10.8 5.4 5.4 0 0 0 0-10.8Zm0 8.7a3.3 3.3 0 0 1-2.46-1.1.6.6 0 1 1 .894-.8 2.1 2.1 0 1 0 .486-3.2h.48a.6.6 0 0 1 0 1.2H15a.6.6 0 0 1-.6-.754V14.4a.6.6 0 0 1 1.2 0v.233a3.301 3.301 0 1 1 1.8 6.067Z"/></svg>