<svg xmlns="http://www.w3.org/2000/svg" width="24" height="24" fill="none"><path fill="#04071E" d="M14.25 2.001a.75.75 0 0 1 .743.649L15 2.75v.752c0 .633-.196 1.22-.53 1.704a3.75 3.75 0 0 1 2.521 3.29l.256.001a2.25 2.25 0 0 0 2.24-2.26l-.006-1.485a.75.75 0 0 1 1.5-.006l.007 1.486a3.75 3.75 0 0 1-3.536 3.759l-.214.006H17v1.501l4.253.001a.75.75 0 0 1 .743.648l.007.102a.75.75 0 0 1-.648.743l-.102.007H17v2h.238l.214.006a3.75 3.75 0 0 1 3.531 3.56l.005.2-.007 1.485a.75.75 0 0 1-1.493.096l-.007-.102.007-1.486a2.25 2.25 0 0 0-2.087-2.253l-.154-.006h-.476a5.002 5.002 0 0 1-9.542 0H6.74a2.25 2.25 0 0 0-2.24 2.26l.005 1.485a.75.75 0 1 1-1.5.006L3 18.765a3.75 3.75 0 0 1 3.535-3.759L6.75 15H7v-2H2.75a.75.75 0 0 1-.743-.648L2 12.25a.75.75 0 0 1 .648-.743l.102-.007H7V9.996l-.25.001-.215-.006a3.75 3.75 0 0 1-3.53-3.56L3 6.232l.006-1.485A.75.75 0 0 1 4.5 4.65l.006.102L4.5 6.24a2.25 2.25 0 0 0 2.087 2.253l.154.006h.268A3.75 3.75 0 0 1 9.53 5.206a2.97 2.97 0 0 1-.524-1.493L9 3.503v-.752a.75.75 0 0 1 1.493-.101l.007.101v.752a1.5 1.5 0 0 0 2.993.145l.007-.145v-.752a.75.75 0 0 1 .75-.75"/></svg>