<svg xmlns="http://www.w3.org/2000/svg" width="24" height="24" fill="none"><path fill="#04071E" d="M11.098 2.479a.6.6 0 0 0-.596 0L6.685 4.66A1.36 1.36 0 0 0 7.2 7.19v2.633a2.4 2.4 0 0 0-1.374 1.912l-.948 8.532A1.2 1.2 0 0 0 6.07 21.6h9.46a1.2 1.2 0 0 0 1.192-1.333l-.948-8.532A2.4 2.4 0 0 0 14.4 9.823V7.19a1.36 1.36 0 0 0 .515-2.53zM13.2 9.6H8.4V7.2h4.8zm-6.58 5.856 8.12-2.166.254 2.29-8.644 2.306zM19.8 8.4h-2.4a.6.6 0 1 1 0-1.2h2.4a.6.6 0 1 1 0 1.2m-.776-3.776a.6.6 0 0 0-.848-.848l-1.2 1.2a.6.6 0 0 0 .848.848zm0 7.2a.6.6 0 0 0 0-.848l-1.2-1.2a.6.6 0 0 0-.848.848l1.2 1.2a.6.6 0 0 0 .848 0"/></svg>