<svg xmlns="http://www.w3.org/2000/svg" width="24" height="24" fill="none"><path fill="#04071E" d="M20.4 8.4v5.48a6.9 6.9 0 0 0-3-.68c-2.01 0-3.642.846-4.762 1.89a6.6 6.6 0 0 0-1.318 1.688c-.303.564-.52 1.202-.52 1.822 0 .581.187 1.201.504 1.8H6.6a3 3 0 0 1-3-3v-9zm-3-4.8a3 3 0 0 1 3 3v.6H3.6v-.6a3 3 0 0 1 3-3zm0 10.8c-3.317 0-5.4 2.782-5.4 4.2 0 1.44 2.087 4.2 5.4 4.2s5.4-2.782 5.4-4.2c0-1.44-2.087-4.2-5.4-4.2m0 7.2a3 3 0 1 1 0-6 3 3 0 0 1 0 6m1.8-3a1.8 1.8 0 1 1-3.6 0 1.8 1.8 0 0 1 3.6 0"/><path fill="#04071E" fill-rule="evenodd" d="M6.6 3.75A2.85 2.85 0 0 0 3.75 6.6v.45h16.5V6.6a2.85 2.85 0 0 0-2.85-2.85zM3.45 6.6A3.15 3.15 0 0 1 6.6 3.45h10.8a3.15 3.15 0 0 1 3.15 3.15v.75H3.45zm0 1.65h17.1v5.869l-.215-.104a6.7 6.7 0 0 0-2.935-.665c-1.966 0-3.563.827-4.66 1.85a6.5 6.5 0 0 0-1.288 1.649c-.296.55-.502 1.164-.502 1.751 0 .55.177 1.146.486 1.73l.117.22H6.6a3.15 3.15 0 0 1-3.15-3.15zm.3.3v8.85a2.85 2.85 0 0 0 2.85 2.85h4.46c-.258-.546-.41-1.11-.41-1.65 0-.653.228-1.316.538-1.893a6.8 6.8 0 0 1 1.347-1.726c1.143-1.067 2.811-1.931 4.865-1.931 1.058 0 2.014.228 2.85.596V8.55zm9.604 7.308a5.9 5.9 0 0 1 8.09-.008c.953.885 1.506 1.972 1.506 2.75 0 .388-.141.852-.396 1.326s-.63.969-1.11 1.416A5.9 5.9 0 0 1 17.4 22.95a5.9 5.9 0 0 1-4.045-1.6c-.952-.885-1.505-1.972-1.505-2.75 0-.388.141-.852.395-1.326.255-.475.63-.969 1.109-1.416m-.845 1.558c-.24.448-.359.863-.359 1.184 0 .662.49 1.675 1.41 2.53a5.6 5.6 0 0 0 3.84 1.52 5.6 5.6 0 0 0 3.84-1.528c.457-.425.81-.893 1.05-1.338.24-.448.36-.863.36-1.184 0-.662-.49-1.675-1.41-2.53a5.602 5.602 0 0 0-7.682.008c-.456.425-.81.893-1.049 1.338m5.982-1.449a2.85 2.85 0 1 0-2.182 5.264 2.85 2.85 0 0 0 2.182-5.264m-1.706-.457a3.15 3.15 0 1 1 1.23 6.18 3.15 3.15 0 0 1-1.23-6.18m.615 1.44a1.65 1.65 0 1 0 0 3.3 1.65 1.65 0 0 0 0-3.3m-1.083.029a1.95 1.95 0 1 1 2.167 3.244 1.95 1.95 0 0 1-2.167-3.244" clip-rule="evenodd"/></svg>