<svg xmlns="http://www.w3.org/2000/svg" width="24" height="24" fill="none"><path fill="#04071E" d="m9.367 3.313.86 2.027c.374.883.167 1.922-.514 2.568L7.819 9.706q.175 1.614 1.084 3.177a8.7 8.7 0 0 0 2.271 2.595l2.275-.759c.863-.287 1.802.043 2.33.82l1.233 1.81c.615.904.505 2.15-.258 2.917l-.818.82c-.814.818-1.977 1.114-3.052.779q-3.808-1.188-7.003-7.054-3.2-5.874-2.258-9.968C3.887 3.695 4.704 2.78 5.772 2.44l1.076-.344c1.01-.322 2.087.199 2.52 1.218m7.781-1.31.102-.006a.75.75 0 0 1 .744.648l.006.102v3.254h3.252a.75.75 0 0 1 .743.649l.007.102a.75.75 0 0 1-.648.743l-.102.007L18 7.5v3.249a.75.75 0 0 1-.648.743l-.102.007a.75.75 0 0 1-.743-.648l-.007-.102V7.501h-3.251a.75.75 0 0 1-.744-.648l-.006-.101a.75.75 0 0 1 .648-.743l.102-.007L16.499 6l.001-3.254a.75.75 0 0 1 .648-.743l.102-.007z"/></svg>