<svg xmlns="http://www.w3.org/2000/svg" width="24" height="24" fill="none"><path fill="#04071E" d="M20.934 5.66q-2.94-2.595-9.185-2.588-6.236.008-8.907 2.603c-.754.733-1.029 1.82-.721 2.851l.31 1.037c.288.967 1.261 1.613 2.276 1.51l2.035-.204c.873-.088 1.563-.71 1.711-1.547l.391-2.204a8.1 8.1 0 0 1 3.14-.708q1.689-.05 3.09.526l.632 2.355c.226.846.986 1.48 1.878 1.566l2.047.198c1.028.099 1.935-.553 2.12-1.525l.198-1.036c.195-1.028-.19-2.106-1.015-2.834M12 22a5.5 5.5 0 1 1 0-11 5.5 5.5 0 0 1 0 11m0-1.5a4 4 0 0 0 3.309-6.248l-5.557 5.557c.64.436 1.414.691 2.248.691m-3.309-1.752 5.557-5.557a4 4 0 0 0-5.557 5.557"/></svg>