<svg xmlns="http://www.w3.org/2000/svg" width="24" height="24" fill="none"><path fill="#04071E" d="m9.367 3.313.86 2.027c.374.883.167 1.922-.514 2.568L7.819 9.706q.175 1.614 1.084 3.177a8.7 8.7 0 0 0 2.271 2.595l2.275-.759c.863-.287 1.802.043 2.33.82l1.233 1.81c.615.904.505 2.15-.258 2.916l-.818.822c-.814.817-1.977 1.113-3.052.777q-3.808-1.187-7.003-7.053-3.2-5.874-2.258-9.968C3.887 3.695 4.704 2.78 5.772 2.44l1.076-.344c1.01-.322 2.087.199 2.52 1.218m5.13 5.126 6.221-6.223a.75.75 0 0 1 1.134.976l-.073.084-6.22 6.223h4.691a.75.75 0 0 1 .743.648l.007.102a.75.75 0 0 1-.648.743l-.102.007-6.555-.001-.098-.013-.095-.027-.068-.028a.7.7 0 0 1-.216-.15l-.04-.044-.025-.032-.048-.068-.046-.092-.032-.091-.017-.07-.01-.081-.001-.053V3.745a.75.75 0 0 1 1.493-.102l.007.102zl6.22-6.223z"/></svg>