<svg xmlns="http://www.w3.org/2000/svg" width="24" height="24" fill="none"><path fill="#04071E" d="m15.238 1.684-4.381 8.646c-.416.822.19 1.789 1.122 1.789h8.765c.933 0 1.539-.967 1.122-1.79l-4.385-8.646c-.462-.911-1.782-.91-2.243 0m1.748 2.399v3.709c0 .341-.28.618-.627.618a.623.623 0 0 1-.627-.618v-3.71c0-.34.28-.618.627-.618.346 0 .627.277.627.619m-.627 6.8a.623.623 0 0 1-.627-.618c0-.342.28-.619.627-.619.346 0 .627.277.627.618 0 .342-.28.619-.627.619M7.635 2.379c-1.305-.325-2.67-.187-3.74.403-1.088.601-1.853 1.665-1.89 3.09-.06 2.226.464 5.213 2.539 8.72 2.048 3.463 4.31 5.538 6.186 6.772 1.185.78 2.496.8 3.615.292 1.101-.5 1.996-1.5 2.461-2.739a2.24 2.24 0 0 0-.15-1.897l-1.195-2.104c-.76-1.338-2.4-1.923-3.853-1.375l-.834.314c-.404.153-.776.082-.987-.122-.708-.686-1.214-1.617-1.443-2.62-.073-.316.074-.689.428-.953l.753-.56a3.06 3.06 0 0 0 .831-4.002L9.138 3.504A2.41 2.41 0 0 0 7.635 2.38"/></svg>