<svg xmlns="http://www.w3.org/2000/svg" width="24" height="24" fill="none"><path fill="#04071E" d="M17.4 1.2a5.4 5.4 0 1 1 0 10.8 5.4 5.4 0 0 1 0-10.8m.75 8.406a.75.75 0 1 0-1.5 0 .75.75 0 0 0 1.5 0m1.474-4.262c0-1.325-.987-2.34-2.224-2.34-1.258 0-2.237.981-2.224 2.345a.6.6 0 0 0 1.2-.011c-.007-.695.431-1.134 1.024-1.134.567 0 1.024.47 1.024 1.14 0 .242-.085.377-.432.652l-.333.258c-.607.485-.86.861-.86 1.546a.6.6 0 0 0 1.191.108l.014-.187c.02-.177.12-.304.414-.538l.333-.257c.616-.493.873-.88.873-1.582M17.4 13.2q.203 0 .402-.012a3 3 0 0 1-.238.51l-4.155 7.088c-.188.32-.475.562-.809.696V13.04a1.2 1.2 0 0 0 .547-1.392A6.57 6.57 0 0 0 17.4 13.2"/><path fill="#04071E" d="M10.8 6.6c0 1.62.584 3.104 1.552 4.253a1.2 1.2 0 0 0-.952 2.187v8.452a1.65 1.65 0 0 1-.833-.706l-4.155-7.088a3 3 0 0 1-.123-2.801L8.039 7.2H7.8A1.8 1.8 0 0 1 6 5.4V3a.6.6 0 0 1 1.2 0v2.4a.6.6 0 0 0 .6.6h3.027a7 7 0 0 0-.027.6"/></svg>