<svg xmlns="http://www.w3.org/2000/svg" width="24" height="24" fill="none"><path fill="#04071E" d="m9.367 3.313.86 2.027c.374.883.167 1.922-.514 2.568L7.819 9.706q.175 1.614 1.084 3.177a8.7 8.7 0 0 0 2.271 2.595l2.275-.759c.863-.287 1.802.043 2.33.82l1.233 1.81c.615.904.505 2.15-.258 2.916l-.818.822c-.814.817-1.977 1.113-3.052.777q-3.808-1.187-7.003-7.053-3.2-5.874-2.258-9.968C3.887 3.695 4.704 2.78 5.772 2.44l1.076-.344c1.01-.322 2.087.199 2.52 1.218M14.748 2h6.554l.1.015.098.027.064.027a.7.7 0 0 1 .216.15l.04.044.044.056.052.086.04.092.028.1.013.091v.012l.002.02v6.534a.75.75 0 0 1-1.492.102l-.007-.102V4.56l-6.22 6.225a.75.75 0 0 1-.977.072l-.084-.072a.75.75 0 0 1-.073-.977l.073-.084 6.22-6.224-4.69.001a.75.75 0 0 1-.744-.648l-.007-.102a.75.75 0 0 1 .648-.743z"/></svg>