<svg xmlns="http://www.w3.org/2000/svg" width="24" height="24" fill="none"><path fill="#04071E" d="M22.8 6.6a5.4 5.4 0 1 1-10.8 0 5.4 5.4 0 0 1 10.8 0m-5.4-3a.6.6 0 0 0-.6.6v2.4a.6.6 0 1 0 1.2 0V4.2a.6.6 0 0 0-.6-.6m0 6.15a.75.75 0 1 0 0-1.5.75.75 0 0 0 0 1.5m0 3.45q.21 0 .414-.013a3 3 0 0 1-.238.511l-4.155 7.088c-.19.324-.482.568-.821.7V13.04a1.2 1.2 0 0 0 .547-1.392A6.57 6.57 0 0 0 17.4 13.2m-6.6-6.6c0 1.62.584 3.104 1.552 4.253a1.2 1.2 0 0 0-.952 2.187v8.447a1.65 1.65 0 0 1-.821-.701l-4.155-7.088a3 3 0 0 1-.123-2.801l1.478-3.121A2.1 2.1 0 0 1 6 5.7V3.3a.9.9 0 0 1 1.8 0v2.4a.3.3 0 0 0 .3.3h2.727a7 7 0 0 0-.027.6"/></svg>