<svg xmlns="http://www.w3.org/2000/svg" width="24" height="24" fill="none"><path fill="#04071E" d="M22.8 6.6a5.4 5.4 0 1 1-10.8 0 5.4 5.4 0 0 1 10.8 0m-2.576-2.224a.6.6 0 0 0-.848 0L16.2 7.55l-.776-.775a.6.6 0 0 0-.848.848l1.2 1.2a.6.6 0 0 0 .848 0l3.6-3.6a.6.6 0 0 0 0-.848M17.4 13.2q.203 0 .402-.012a3 3 0 0 1-.238.51l-4.155 7.088c-.188.32-.475.562-.809.696V13.04a1.2 1.2 0 0 0 .547-1.392A6.57 6.57 0 0 0 17.4 13.2M10.8 6.6c0 1.62.584 3.104 1.552 4.253a1.2 1.2 0 0 0-.952 2.187v8.452a1.65 1.65 0 0 1-.833-.706l-4.155-7.088a3 3 0 0 1-.123-2.801L8.039 7.2H7.8A1.8 1.8 0 0 1 6 5.4V3a.6.6 0 0 1 1.2 0v2.4a.6.6 0 0 0 .6.6h3.027a7 7 0 0 0-.027.6"/></svg>