<svg xmlns="http://www.w3.org/2000/svg" width="24" height="24" fill="none"><path fill="#04071E" d="M15.5 2.75a.75.75 0 0 0-1.5 0v7.5a.75.75 0 0 0 1.5 0zm4 0a.75.75 0 0 0-1.5 0v7.5a.75.75 0 0 0 1.5 0zm-9.273 2.59-.86-2.027c-.432-1.02-1.51-1.54-2.519-1.218l-1.076.344c-1.068.341-1.885 1.256-2.15 2.404q-.94 4.095 2.259 9.968 3.195 5.866 7.003 7.054c1.075.335 2.238.039 3.052-.778l.817-.822c.763-.765.874-2.012.26-2.915l-1.233-1.81c-.53-.778-1.468-1.108-2.33-.82l-2.276.758a8.7 8.7 0 0 1-2.271-2.595q-.91-1.563-1.085-3.177l1.895-1.798c.68-.646.888-1.685.514-2.568"/></svg>