<svg xmlns="http://www.w3.org/2000/svg" width="24" height="24" fill="none"><path fill="#04071E" d="M4.261 2.931c1.025-.573 2.332-.708 3.581-.391a2.32 2.32 0 0 1 1.44 1.092l1.077 1.88a3 3 0 0 1-.994 4.024l-.948.602c-.392.249-.536.629-.446.93.32 1.078 1.033 2.274 1.815 3.092.233.244.66.302 1.077.058l.525-.306a3 3 0 0 1 4.129 1.126l.964 1.722c.316.564.369 1.237.145 1.843-.446 1.204-1.303 2.174-2.358 2.66-1.071.494-2.326.474-3.461-.283-1.797-1.199-3.963-3.215-5.925-6.578-1.988-3.406-2.489-6.307-2.432-8.469.036-1.385.768-2.418 1.811-3.002m11.03-.456a.6.6 0 0 0-.582 1.05l.46.255a10.2 10.2 0 0 1 5.196 7.902l.038.378a.6.6 0 0 0 1.194-.12l-.038-.377a11.4 11.4 0 0 0-5.807-8.832zm-1.405 3.216a.6.6 0 0 1 .823-.206l.149.09a7.8 7.8 0 0 1 3.68 5.406l.054.32a.6.6 0 1 1-1.184.198l-.053-.32a6.6 6.6 0 0 0-3.115-4.575l-.149-.09a.6.6 0 0 1-.205-.823"/><path fill="#04071E" fill-rule="evenodd" d="M7.806 2.685c-1.218-.308-2.485-.175-3.472.377-1 .56-1.7 1.547-1.734 2.875-.056 2.133.438 5.007 2.411 8.39 1.95 3.343 4.101 5.342 5.879 6.528 1.09.726 2.288.745 3.316.272 1.014-.468 1.846-1.405 2.279-2.576a2.06 2.06 0 0 0-.134-1.717l-.965-1.723a2.85 2.85 0 0 0-3.923-1.069l-.524.306c-.464.27-.97.22-1.261-.084-.798-.835-1.523-2.051-1.85-3.152-.115-.382.074-.825.509-1.1l.947-.602a2.85 2.85 0 0 0 .945-3.824l-1.077-1.88a2.17 2.17 0 0 0-1.346-1.02M4.188 2.8c1.062-.594 2.41-.73 3.691-.406.648.164 1.201.584 1.533 1.164l1.078 1.879a3.15 3.15 0 0 1-1.045 4.226l-.948.602c-.35.222-.449.538-.382.761.313 1.053 1.013 2.228 1.78 3.03.174.183.52.25.893.033l.524-.306a3.15 3.15 0 0 1 4.336 1.182l.964 1.722c.337.602.394 1.321.154 1.968-.457 1.237-1.34 2.24-2.435 2.744-1.116.515-2.426.493-3.608-.294-1.815-1.212-3.998-3.244-5.97-6.627-2.002-3.43-2.51-6.36-2.453-8.549.037-1.442.803-2.521 1.888-3.129m10.156-.164a.75.75 0 0 1 1.02-.292l.46.256a11.55 11.55 0 0 1 5.884 8.948l.038.377a.75.75 0 1 1-1.492.15l-.038-.378a10.05 10.05 0 0 0-5.12-7.785l-.46-.256a.75.75 0 0 1-.292-1.02m.875-.03a.45.45 0 1 0-.438.787l.461.256a10.35 10.35 0 0 1 5.272 8.018l.038.378a.45.45 0 1 0 .896-.09l-.038-.378a11.25 11.25 0 0 0-5.73-8.714zm-.587 3.008a.45.45 0 1 0-.463.772l.148.09a6.75 6.75 0 0 1 3.186 4.678l.053.32a.45.45 0 0 0 .888-.148l-.053-.32a7.65 7.65 0 0 0-3.61-5.303zm-.875 0a.75.75 0 0 1 1.029-.257l.149.09a7.95 7.95 0 0 1 3.751 5.51l.054.32a.75.75 0 1 1-1.48.246l-.053-.32a6.45 6.45 0 0 0-3.044-4.47l-.149-.09a.75.75 0 0 1-.257-1.029" clip-rule="evenodd"/></svg>