<svg xmlns="http://www.w3.org/2000/svg" width="24" height="24" fill="none"><path fill="#04071E" d="m9.925 2.05 1.037.198c.972.185 1.625 1.093 1.525 2.122l-.198 2.048c-.086.892-.72 1.652-1.566 1.88l-2.357.63q-.575 1.403-.526 3.092a8.1 8.1 0 0 0 .708 3.143l2.206.39c.836.15 1.46.84 1.548 1.713l.205 2.036c.102 1.015-.544 1.99-1.512 2.278l-1.038.31c-1.032.308-2.119.033-2.852-.722Q4.508 18.496 4.5 12.256q-.008-6.25 2.59-9.19c.728-.825 1.807-1.211 2.835-1.016m6.771 5.097.084.073 3.997 3.997a.75.75 0 0 1 .073.976l-.073.085-3.996 4.003a.75.75 0 0 1-1.134-.976l.072-.084 2.712-2.717-6.43.001a.75.75 0 0 1-.744-.648l-.006-.102a.75.75 0 0 1 .648-.743l.102-.007 6.44-.001L15.72 8.28a.75.75 0 0 1-.073-.976l.073-.084a.75.75 0 0 1 .874-.137z"/></svg>