<svg xmlns="http://www.w3.org/2000/svg" width="24" height="24" fill="none"><path fill="#04071E" d="m21.362 9.323.19-.995c.187-.987-.175-2.037-.967-2.736C18.703 3.93 15.989 3 11.99 3.005c-3.992.005-7.07.941-8.78 2.602-.724.703-.988 1.746-.692 2.736l.297.995c.277.929 1.212 1.549 2.187 1.45l1.953-.196C7.796 10.508 8.163 9.805 8.4 9c.355-1.205.6-2.1.6-2.1.915-.342 1.784-.6 3-.6 1.217 0 2.103.232 3 .6 0 0 .235.894.6 2.1.269.888.904 1.513 1.76 1.596l1.965.19c.988.095 1.86-.53 2.037-1.463M17.4 16.2a5.4 5.4 0 1 1-10.8 0 5.4 5.4 0 0 1 10.8 0m-5.4-3a.6.6 0 0 0-.6.6v2.4a.6.6 0 1 0 1.2 0v-2.4a.6.6 0 0 0-.6-.6m0 6.15a.75.75 0 1 0 0-1.5.75.75 0 0 0 0 1.5"/><path fill="#04071E" fill-rule="evenodd" d="M11.99 2.855c4.022-.005 6.776.931 8.694 2.624.83.733 1.213 1.837 1.015 2.877l-.19.995c-.193 1.014-1.14 1.687-2.198 1.584l-1.965-.19c-.931-.09-1.607-.77-1.89-1.702a71 71 0 0 1-.558-1.945l-.024-.087A7.25 7.25 0 0 0 12 6.45c-1.16 0-1.996.238-2.876.564l-.023.085a111 111 0 0 1-.557 1.943c-.238.808-.631 1.605-1.573 1.7l-1.953.196c-1.046.105-2.048-.559-2.346-1.557l-.297-.995c-.31-1.042-.034-2.143.732-2.887 1.751-1.7 4.876-2.64 8.884-2.644M8.856 6.86l.02-.074.072-.026c.924-.346 1.811-.61 3.053-.61 1.24 0 2.145.237 3.057.611l.07.029.018.072.003.01.008.03.031.117.12.439c.105.373.254.897.436 1.499.256.844.85 1.414 1.631 1.49l1.966.19c.915.088 1.712-.491 1.874-1.342l.19-.995c.178-.933-.165-1.93-.919-2.596-1.845-1.629-4.519-2.554-8.494-2.55-3.976.006-7.006.94-8.675 2.56-.683.664-.933 1.648-.653 2.586l.297.995c.256.858 1.123 1.435 2.028 1.344l1.953-.196c.736-.074 1.079-.683 1.315-1.485a140 140 0 0 0 .556-1.94l.032-.117zM12 10.95a5.25 5.25 0 1 0 0 10.5 5.25 5.25 0 0 0 0-10.5M6.45 16.2a5.55 5.55 0 1 1 11.1 0 5.55 5.55 0 0 1-11.1 0m4.8-2.4a.75.75 0 0 1 1.5 0v2.4a.75.75 0 0 1-1.5 0zm.75-.45a.45.45 0 0 0-.45.45v2.4a.45.45 0 0 0 .9 0v-2.4a.45.45 0 0 0-.45-.45m-.9 5.25a.9.9 0 1 1 1.8 0 .9.9 0 0 1-1.8 0m.9-.6a.6.6 0 1 0 0 1.2.6.6 0 0 0 0-1.2" clip-rule="evenodd"/></svg>