<svg xmlns="http://www.w3.org/2000/svg" width="24" height="24" fill="none"><path fill="#04071E" d="M9.748 2.4a1.8 1.8 0 0 0-1.608.992l-.708 1.407H5.405a3 3 0 0 0-3 3V17.4a3 3 0 0 0 3 3h4.2q.012-.206.065-.416l.45-1.798c.139-.557.401-1.075.766-1.516A4.802 4.802 0 0 1 12 7.2a4.8 4.8 0 0 1 4.666 3.668l.259-.26a3.444 3.444 0 0 1 4.68-.175V7.799a3 3 0 0 0-3-3h-2.027l-.702-1.404a1.8 1.8 0 0 0-1.61-.995zm5.85 9.534a3.6 3.6 0 1 0-3.665 3.665zm2.173-.477-5.795 5.796a2.64 2.64 0 0 0-.694 1.224l-.45 1.798a1.067 1.067 0 0 0 1.295 1.294l1.798-.45a2.64 2.64 0 0 0 1.225-.693l5.795-5.795a2.244 2.244 0 0 0-3.174-3.174"/></svg>