<svg xmlns="http://www.w3.org/2000/svg" width="24" height="24" fill="none"><path fill="#04071E" d="M12.896 3.619a.75.75 0 0 1-1.277.787l-.015-.018a.6.6 0 0 0-.154-.116c-.147-.082-.468-.2-1.065-.091-.408.075-.62.334-.75.667A2.1 2.1 0 0 0 9.5 5.5V6.75a1 1 0 0 0 1 1h.25a1 1 0 0 0 .968-.75h-.468a.75.75 0 1 1 0-1.5h1.25a.75.75 0 0 1 .75.75v.5a2.5 2.5 0 0 1-2.5 2.5h-.25A2.5 2.5 0 0 1 8 6.75V5.459l.004-.08q.005-.1.026-.263c.029-.212.087-.504.209-.814.245-.627.783-1.396 1.875-1.597.913-.167 1.592-.008 2.068.258.23.129.399.275.513.397a2 2 0 0 1 .19.242l.006.01.003.004zM4.728 3.061c.596-.724 1.772-.302 1.772.636V6.5h.25a.75.75 0 0 1 0 1.5H6.5v.5a.75.75 0 1 1-1.5 0V8H3.203c-1.014 0-1.57-1.18-.926-1.963zM5 6.5V5.09L3.839 6.5zM20 6a1 1 0 0 1 1 1v13a1 1 0 0 1-2 0V7a1 1 0 0 1 1-1M16 9c.552 0 1 .446 1 .995v10.01c0 .55-.448.995-1 .995-.553 0-1-.446-1-.995V9.995c0-.55.447-.995 1-.995M12 12a1 1 0 0 1 1 1v7a1 1 0 1 1-2 0v-7a1 1 0 0 1 1-1M8 15c.552 0 1 .445 1 .994v4.012c0 .549-.448.994-1 .994-.553 0-1-.445-1-.994v-4.012c0-.549.447-.994 1-.994M4 18c.552 0 1 .44 1 .984v1.032A.99.99 0 0 1 4 21c-.553 0-1-.44-1-.984v-1.032A.99.99 0 0 1 4 18"/></svg>