<svg xmlns="http://www.w3.org/2000/svg" width="24" height="24" fill="none"><path fill="#04071E" d="M12 2.4a9.6 9.6 0 0 1 9.595 9.905 6.6 6.6 0 0 0-9.29 9.29 9.64 9.64 0 0 1-4.641-1.028l-.145-.077-4.374 1.092a.6.6 0 0 1-.744-.53v-.097l.017-.1 1.092-4.373-.076-.144a9.5 9.5 0 0 1-.995-3.464l-.03-.458-.01-.416A9.6 9.6 0 0 1 12 2.4m5.4 20.4a5.4 5.4 0 1 0 0-10.8 5.4 5.4 0 0 0 0 10.8m-1.076-7.676L15.248 16.2H17.1a3.3 3.3 0 0 1 3.3 3.3v.3a.6.6 0 1 1-1.2 0v-.3a2.1 2.1 0 0 0-2.1-2.1h-1.852l1.076 1.076a.6.6 0 0 1-.848.848l-2.103-2.102a.6.6 0 0 1 .003-.846l2.1-2.1a.6.6 0 0 1 .848.848"/></svg>