<svg xmlns="http://www.w3.org/2000/svg" width="24" height="24" fill="none"><path fill="#04071E" d="M12 2.4a9.6 9.6 0 0 1 9.595 9.905 6.6 6.6 0 0 0-9.29 9.29 9.64 9.64 0 0 1-4.641-1.028l-.145-.077-4.374 1.092a.6.6 0 0 1-.744-.53v-.097l.017-.1 1.092-4.373-.076-.144a9.5 9.5 0 0 1-.995-3.464l-.03-.458-.01-.416A9.6 9.6 0 0 1 12 2.4m10.8 15a5.4 5.4 0 1 1-10.8 0 5.4 5.4 0 0 1 10.8 0m-6.776-1.376a.6.6 0 1 0-.848-.848l-1.8 1.8a.6.6 0 0 0 0 .848l1.8 1.8a.6.6 0 0 0 .848-.848L14.648 17.4zm2.224.776.776-.776a.6.6 0 1 0-.848-.848l-1.8 1.8a.6.6 0 0 0 0 .848l1.8 1.8a.6.6 0 0 0 .848-.848L18.248 18H20.4v.6a.6.6 0 0 0 1.2 0V18a1.2 1.2 0 0 0-1.2-1.2z"/></svg>