<svg xmlns="http://www.w3.org/2000/svg" width="24" height="24" fill="none"><path fill="#04071E" d="M2.4 8.4a7.2 7.2 0 1 1 3.595 6.234l-2.805.935a.6.6 0 0 1-.767-.734l.854-2.989A7.2 7.2 0 0 1 2.4 8.4m5.4-1.8a.6.6 0 0 0 0 1.2h3.6a.6.6 0 1 0 0-1.2zM10.2 9H7.8a.6.6 0 0 0 0 1.2h2.4a.6.6 0 1 0 0-1.2"/><path fill="#04071E" d="m14.732 17.937-2.883-1.442a8.3 8.3 0 0 0 1.515-.584L15 16.73l5.4-2.7V13.2a1.2 1.2 0 0 0-1.2-1.2h-2.008q.274-.578.46-1.2H19.2a2.4 2.4 0 0 1 2.4 2.4v6a2.4 2.4 0 0 1-2.4 2.4h-8.4a2.4 2.4 0 0 1-2.4-2.4v-2.485q.589.085 1.2.085v2.4a1.2 1.2 0 0 0 1.2 1.2h8.4a1.2 1.2 0 0 0 1.2-1.2v-3.83l-5.132 2.567a.6.6 0 0 1-.536 0"/><path fill="#04071E" fill-rule="evenodd" d="M2.25 8.4a7.35 7.35 0 1 1 3.73 6.397l-2.743.914a.75.75 0 0 1-.958-.917l.837-2.93A7.3 7.3 0 0 1 2.25 8.4M9.6 1.35a7.05 7.05 0 0 0-6.191 10.425.15.15 0 0 1 .012.113l-.854 2.988a.45.45 0 0 0 .575.55l2.806-.934a.15.15 0 0 1 .123.012A7.05 7.05 0 1 0 9.6 1.35m-1.8 5.4a.45.45 0 0 0 0 .9h3.6a.45.45 0 0 0 0-.9zm-.75.45a.75.75 0 0 1 .75-.75h3.6a.75.75 0 0 1 0 1.5H7.8a.75.75 0 0 1-.75-.75m.75 1.95a.45.45 0 0 0 0 .9h2.4a.45.45 0 0 0 0-.9zm-.75.45a.75.75 0 0 1 .75-.75h2.4a.75.75 0 0 1 0 1.5H7.8a.75.75 0 0 1-.75-.75m10.458 1.157a.15.15 0 0 1 .144-.107H19.2a2.55 2.55 0 0 1 2.55 2.55v6a2.55 2.55 0 0 1-2.55 2.55h-8.4a2.55 2.55 0 0 1-2.55-2.55v-2.485a.15.15 0 0 1 .171-.149Q9 16.65 9.6 16.65a.15.15 0 0 1 .15.15v2.4c0 .58.47 1.05 1.05 1.05h8.4c.58 0 1.05-.47 1.05-1.05v-3.587l-4.915 2.458a.75.75 0 0 1-.67 0l-2.883-1.441a.15.15 0 0 1 .027-.28 8 8 0 0 0 1.488-.573.15.15 0 0 1 .134 0l1.569.784 5.25-2.625V13.2c0-.58-.47-1.05-1.05-1.05h-2.008a.15.15 0 0 1-.136-.214q.27-.568.452-1.179m.255.193a9 9 0 0 1-.338.9H19.2c.746 0 1.35.604 1.35 1.35v.83a.15.15 0 0 1-.083.133l-5.4 2.7a.15.15 0 0 1-.134 0l-1.569-.784a8.5 8.5 0 0 1-1.11.451l2.545 1.272a.45.45 0 0 0 .402 0l5.132-2.565a.15.15 0 0 1 .217.134V19.2a1.35 1.35 0 0 1-1.35 1.35h-8.4a1.35 1.35 0 0 1-1.35-1.35v-2.251a9 9 0 0 1-.9-.063V19.2a2.25 2.25 0 0 0 2.25 2.25h8.4a2.25 2.25 0 0 0 2.25-2.25v-6a2.25 2.25 0 0 0-2.25-2.25z" clip-rule="evenodd"/></svg>