<svg xmlns="http://www.w3.org/2000/svg" width="24" height="24" fill="none"><path fill="#04071E" d="M6 2.4A3.6 3.6 0 0 0 2.4 6v9.6A3.6 3.6 0 0 0 6 19.2h5.048a6.6 6.6 0 0 1 8.152-8.152V6a3.6 3.6 0 0 0-3.6-3.6zm9.424 5.824-6 6a.6.6 0 0 1-.848 0l-2.4-2.4a.6.6 0 0 1 .848-.848L9 12.95l5.576-5.575a.6.6 0 0 1 .848.848M12 17.4a5.4 5.4 0 1 0 10.8 0 5.4 5.4 0 0 0-10.8 0m7.8-3.6a.6.6 0 0 1 .6.6v1.8a.6.6 0 0 1-.6.6H18a.6.6 0 1 1 0-1.2h.562a2.401 2.401 0 0 0-2.859.403.6.6 0 1 1-.849-.849 3.6 3.6 0 0 1 4.346-.572V14.4a.6.6 0 0 1 .6-.6m-1.052 6.638a3.6 3.6 0 0 1-3.148-.22v.182a.6.6 0 1 1-1.2 0v-1.8a.6.6 0 0 1 .6-.6h1.8a.6.6 0 1 1 0 1.2h-.562a2.4 2.4 0 0 0 1.12.3 2.4 2.4 0 0 0 1.739-.703.6.6 0 1 1 .848.849 3.6 3.6 0 0 1-1.197.792"/></svg>