<svg xmlns="http://www.w3.org/2000/svg" width="24" height="24" fill="none"><path fill="#04071E" d="M12.6 2.4a.6.6 0 0 0-.6.6v3.12a3.6 3.6 0 0 0 2.629 3.467c-.264 3.29-1.215 5.743-1.994 7.257.22.258.428.452.59.587.622.52 1.175 1.37 1.175 2.428 0 .651-.212 1.253-.57 1.741h6.57a1.8 1.8 0 0 0 1.8-1.8v-.369a1.96 1.96 0 0 0-.362-1.118c-.65-.932-2.483-3.947-2.867-8.726A3.6 3.6 0 0 0 21.6 6.12V3a.6.6 0 0 0-.6-.6h-.9a.9.9 0 0 0-.9.9v.9a.6.6 0 0 1-1.2.003V4.2l-.005-.905a.9.9 0 0 0-.9-.895h-.59a.9.9 0 0 0-.9.895l-.005.908a.6.6 0 0 1-1.2-.003v-.9a.9.9 0 0 0-.9-.9zM7.8 6a3.6 3.6 0 0 0-2.683 6H4.8a1.2 1.2 0 0 0 0 2.4h.623c-.445 2.158-1.622 3.403-2.278 3.952-.417.348-.745.883-.745 1.507 0 .961.78 1.741 1.741 1.741h7.318c.961 0 1.74-.78 1.74-1.741 0-.624-.328-1.159-.744-1.507-.656-.55-1.833-1.794-2.278-3.952h.623a1.2 1.2 0 0 0 0-2.4h-.317A3.6 3.6 0 0 0 7.8 6"/></svg>