<svg xmlns="http://www.w3.org/2000/svg" width="24" height="24" fill="none"><path fill="#04071E" d="M5.048 18.32a.9.9 0 0 1 .031-1.272l6.3-6.001a.9.9 0 0 1 1.242 0l6.3 6.001a.9.9 0 0 1-1.242 1.304L12 12.942l-5.678 5.41a.9.9 0 0 1-1.273-.031m0-5.998a.9.9 0 0 1 .031-1.272l6.3-6.002a.9.9 0 0 1 1.242 0l6.3 6.002a.9.9 0 0 1-1.242 1.303L12 6.943l-5.678 5.41a.9.9 0 0 1-1.273-.03"/><path fill="#04071E" fill-rule="evenodd" d="M12.517 5.157a.75.75 0 0 0-1.034 0l-6.3 6.002a.75.75 0 0 0 1.034 1.086l5.68-5.41a.15.15 0 0 1 .206 0l5.68 5.41a.75.75 0 1 0 1.034-1.086zm-1.241-.217a1.05 1.05 0 0 1 1.448 0l6.3 6.001a1.05 1.05 0 0 1-1.448 1.521L12 7.15l-5.576 5.312a1.05 1.05 0 1 1-1.448-1.52zm.207 6.215-6.3 6.002a.75.75 0 0 0 1.034 1.086l5.68-5.41a.15.15 0 0 1 .206 0l5.68 5.41a.75.75 0 1 0 1.034-1.086l-6.3-6.002a.75.75 0 0 0-1.034 0m-.207-.217a1.05 1.05 0 0 1 1.448 0l6.3 6.002a1.05 1.05 0 0 1-1.448 1.52L12 13.148 6.424 18.46a1.05 1.05 0 1 1-1.448-1.52z" clip-rule="evenodd"/></svg>