<svg xmlns="http://www.w3.org/2000/svg" width="24" height="24" fill="none"><path fill="#04071E" d="M10.48 5.048a.9.9 0 0 1 1.272.031l6.001 6.3a.9.9 0 0 1 0 1.242l-6.001 6.3a.9.9 0 0 1-1.304-1.24l5.41-5.68-5.41-5.68a.9.9 0 0 1 .031-1.273m-4.8 0a.9.9 0 0 1 1.272.031l6.001 6.3a.9.9 0 0 1 0 1.242l-6.001 6.3a.9.9 0 0 1-1.304-1.24l5.41-5.68-5.41-5.68a.9.9 0 0 1 .031-1.273"/><path fill="#04071E" fill-rule="evenodd" d="M6.843 5.183a.75.75 0 1 0-1.086 1.034l5.41 5.68a.15.15 0 0 1 0 .207l-5.41 5.68a.75.75 0 0 0 1.086 1.034l6.002-6.3a.75.75 0 0 0 0-1.035zM5.576 4.94a1.05 1.05 0 0 1 1.484.036l6.002 6.3a1.05 1.05 0 0 1 0 1.449l-6.002 6.3a1.05 1.05 0 1 1-1.52-1.448L10.852 12 5.54 6.424a1.05 1.05 0 0 1 .036-1.484m6.067.243a.75.75 0 0 0-1.086 1.034l5.41 5.68a.15.15 0 0 1 0 .207l-5.41 5.68a.75.75 0 0 0 1.086 1.034l6.002-6.3a.75.75 0 0 0 0-1.035zm-1.267-.243a1.05 1.05 0 0 1 1.484.036l6.002 6.3a1.05 1.05 0 0 1 0 1.449l-6.002 6.3a1.05 1.05 0 1 1-1.52-1.448L15.652 12 10.34 6.424a1.05 1.05 0 0 1 .036-1.484" clip-rule="evenodd"/></svg>