<svg xmlns="http://www.w3.org/2000/svg" width="24" height="24" fill="none"><path fill="#04071E" d="M18.952 10.48a.9.9 0 0 1-.031 1.272l-6.3 6.001a.9.9 0 0 1-1.242 0l-6.3-6.001a.9.9 0 0 1 1.24-1.304l5.68 5.41 5.68-5.41a.9.9 0 0 1 1.273.031m0-4.8a.9.9 0 0 1-.031 1.272l-6.3 6.001a.9.9 0 0 1-1.242 0l-6.3-6.001a.9.9 0 0 1 1.24-1.304l5.68 5.41 5.68-5.41a.9.9 0 0 1 1.273.031"/><path fill="#04071E" fill-rule="evenodd" d="M6.216 5.757a.75.75 0 0 0-1.034 1.086l6.3 6.002a.75.75 0 0 0 1.035 0l6.3-6.002a.75.75 0 1 0-1.034-1.086l-5.68 5.41a.15.15 0 0 1-.207 0zM4.94 5.576a1.05 1.05 0 0 1 1.484-.036L12 10.852l5.577-5.312a1.05 1.05 0 0 1 1.448 1.52l-6.3 6.002a1.05 1.05 0 0 1-1.449 0l-6.3-6.002a1.05 1.05 0 0 1-.036-1.484m1.277 4.98a.75.75 0 0 0-1.034 1.087l6.3 6.002a.75.75 0 0 0 1.035 0l6.3-6.002a.75.75 0 1 0-1.034-1.086l-5.68 5.41a.15.15 0 0 1-.207 0zm-1.277-.18a1.05 1.05 0 0 1 1.484-.036L12 15.652l5.577-5.312a1.05 1.05 0 0 1 1.448 1.52l-6.3 6.002a1.05 1.05 0 0 1-1.449 0l-6.3-6.002a1.05 1.05 0 0 1-.036-1.484" clip-rule="evenodd"/></svg>