<svg xmlns="http://www.w3.org/2000/svg" width="24" height="24" fill="none"><path fill="#04071E" d="M13.521 18.952a.9.9 0 0 1-1.272-.031l-6.002-6.3a.9.9 0 0 1 0-1.242l6.002-6.3a.9.9 0 1 1 1.303 1.24L8.142 12l5.41 5.68a.9.9 0 0 1-.031 1.273m4.801 0a.9.9 0 0 1-1.272-.03l-6.002-6.3a.9.9 0 0 1 0-1.242l6.002-6.3a.9.9 0 0 1 1.303 1.24L12.943 12l5.41 5.68a.9.9 0 0 1-.03 1.273"/><path fill="#04071E" fill-rule="evenodd" d="M13.418 5.156a.75.75 0 0 0-1.06.026l-6.002 6.3a.75.75 0 0 0 0 1.035l6.001 6.3a.75.75 0 1 0 1.086-1.034l-5.41-5.68a.15.15 0 0 1 0-.207l5.41-5.68a.75.75 0 0 0-.025-1.06m-1.278-.181a1.05 1.05 0 1 1 1.52 1.448L8.35 11.999l5.312 5.577a1.05 1.05 0 0 1-1.521 1.448l-6.002-6.3a1.05 1.05 0 0 1 0-1.449zm6.079.182a.75.75 0 0 0-1.06.026l-6.002 6.3a.75.75 0 0 0 0 1.035l6.001 6.3a.75.75 0 0 0 1.086-1.034l-5.41-5.68a.15.15 0 0 1 0-.207l5.41-5.68a.75.75 0 0 0-.025-1.06m-1.278-.181a1.05 1.05 0 0 1 1.52 1.448l-5.311 5.577 5.312 5.576a1.05 1.05 0 1 1-1.52 1.448l-6.002-6.3a1.05 1.05 0 0 1 0-1.449z" clip-rule="evenodd"/></svg>