<svg xmlns="http://www.w3.org/2000/svg" width="24" height="24" fill="none"><path fill="#04071E" d="M10.437 2.527a9.8 9.8 0 0 1 3.127 0 .9.9 0 0 1-.291 1.776 8 8 0 0 0-2.545 0 .9.9 0 1 1-.291-1.776M7.664 4.403a.9.9 0 0 1-.207 1.256A7.9 7.9 0 0 0 5.66 7.457a.9.9 0 0 1-1.462-1.05 9.7 9.7 0 0 1 2.21-2.21.9.9 0 0 1 1.257.206m8.673 0a.9.9 0 0 1 1.256-.206 9.7 9.7 0 0 1 2.21 2.21.9.9 0 1 1-1.461 1.05 7.9 7.9 0 0 0-1.799-1.798.9.9 0 0 1-.206-1.256M3.561 9.694a.9.9 0 0 1 .742 1.034 8 8 0 0 0 0 2.544.9.9 0 1 1-1.776.291 9.8 9.8 0 0 1 0-3.126.9.9 0 0 1 1.034-.743m16.879 0a.9.9 0 0 1 1.034.743 9.8 9.8 0 0 1 0 3.126.9.9 0 0 1-1.777-.29 8 8 0 0 0 0-2.545.9.9 0 0 1 .743-1.034M4.403 16.337a.9.9 0 0 1 1.256.206 7.9 7.9 0 0 0 1.798 1.798.9.9 0 0 1-1.05 1.462 9.7 9.7 0 0 1-2.21-2.21.9.9 0 0 1 .206-1.256m15.195 0a.9.9 0 0 1 .206 1.256 9.7 9.7 0 0 1-2.21 2.21.9.9 0 0 1-1.05-1.462 7.9 7.9 0 0 0 1.798-1.798.9.9 0 0 1 1.256-.206m-9.904 4.102a.9.9 0 0 1 1.034-.742 8 8 0 0 0 2.545 0 .9.9 0 0 1 .29 1.776 9.8 9.8 0 0 1-3.126 0 .9.9 0 0 1-.743-1.033"/><path fill="#04071E" fill-rule="evenodd" d="M13.54 2.675a9.7 9.7 0 0 0-3.079 0 .75.75 0 0 0 .243 1.48 8.2 8.2 0 0 1 2.593 0 .75.75 0 0 0 .242-1.48m-3.127-.296a10 10 0 0 1 3.175 0 1.05 1.05 0 1 1-.34 2.072 7.9 7.9 0 0 0-2.496 0 1.05 1.05 0 1 1-.34-2.072M7.542 4.49a.75.75 0 0 0-1.047-.172A9.5 9.5 0 0 0 4.32 6.495a.75.75 0 0 0 1.218.874A8 8 0 0 1 7.37 5.537a.75.75 0 0 0 .172-1.047M6.32 4.075A1.05 1.05 0 0 1 7.545 5.78 7.7 7.7 0 0 0 5.78 7.544 1.05 1.05 0 0 1 4.075 6.32 9.8 9.8 0 0 1 6.32 4.075m11.186.243a.75.75 0 1 0-.875 1.219 8 8 0 0 1 1.832 1.832.75.75 0 0 0 1.219-.874 9.5 9.5 0 0 0-2.176-2.177m-1.29-.003a1.05 1.05 0 0 1 1.465-.24 9.8 9.8 0 0 1 2.245 2.245 1.05 1.05 0 1 1-1.706 1.224 7.7 7.7 0 0 0-1.764-1.763 1.05 1.05 0 0 1-.24-1.466M3.535 9.842a.75.75 0 0 0-.86.619 9.7 9.7 0 0 0 0 3.078.75.75 0 1 0 1.48-.242 8.2 8.2 0 0 1 0-2.594.75.75 0 0 0-.62-.86m-1.157.57a1.05 1.05 0 1 1 2.073.34 7.9 7.9 0 0 0 0 2.496 1.05 1.05 0 1 1-2.073.34 10 10 0 0 1 0-3.176m18.947.049a.75.75 0 1 0-1.48.242 8.2 8.2 0 0 1 0 2.594.75.75 0 1 0 1.48.242 9.7 9.7 0 0 0 0-3.078m-.91-.915a1.05 1.05 0 0 1 1.206.866c.17 1.035.17 2.14 0 3.176a1.05 1.05 0 0 1-2.073-.34 7.9 7.9 0 0 0 0-2.496 1.05 1.05 0 0 1 .867-1.206M5.537 16.631a.75.75 0 0 0-1.218.874 9.5 9.5 0 0 0 2.176 2.177.75.75 0 1 0 .875-1.219 8 8 0 0 1-1.833-1.832m-1.221-.416a1.05 1.05 0 0 1 1.465.24 7.7 7.7 0 0 0 1.764 1.764 1.05 1.05 0 1 1-1.225 1.706 9.8 9.8 0 0 1-2.245-2.245 1.05 1.05 0 0 1 .24-1.465m15.194.244a.75.75 0 0 0-1.047.172 8 8 0 0 1-1.832 1.832.75.75 0 1 0 .875 1.219 9.5 9.5 0 0 0 2.176-2.177.75.75 0 0 0-.172-1.046m-1.29-.003a1.05 1.05 0 1 1 1.706 1.224 9.8 9.8 0 0 1-2.245 2.245 1.05 1.05 0 1 1-1.225-1.706 7.7 7.7 0 0 0 1.764-1.763m-7.516 3.389a.75.75 0 0 0-.243 1.48 9.7 9.7 0 0 0 3.079 0 .75.75 0 0 0-.243-1.48 8.2 8.2 0 0 1-2.593 0m-1.158.57a1.05 1.05 0 0 1 1.206-.866c.811.133 1.685.133 2.496 0a1.05 1.05 0 0 1 .34 2.072c-1.035.17-2.14.17-3.175 0a1.05 1.05 0 0 1-.867-1.206" clip-rule="evenodd"/></svg>