<svg xmlns="http://www.w3.org/2000/svg" width="24" height="24" fill="none"><path fill="#04071E" d="M10.2 2.4a1.8 1.8 0 0 0-1.698 1.2H6.6a1.8 1.8 0 0 0-1.8 1.8v14.4a1.8 1.8 0 0 0 1.8 1.8h3.004q.013-.206.066-.416l.449-1.798a3.84 3.84 0 0 1 1.01-1.782l5.794-5.795a3.43 3.43 0 0 1 2.277-1.005V5.4a1.8 1.8 0 0 0-1.8-1.8h-1.903A1.8 1.8 0 0 0 13.8 2.4zm-.6 1.8a.6.6 0 0 1 .6-.6h3.6a.6.6 0 1 1 0 1.2h-3.6a.6.6 0 0 1-.6-.6m2.376 14.253 5.795-5.796a2.244 2.244 0 0 1 3.174 3.174l-5.796 5.795a2.64 2.64 0 0 1-1.224.694l-1.798.45a1.067 1.067 0 0 1-1.294-1.295l.449-1.798c.116-.463.356-.886.694-1.224"/></svg>