<svg xmlns="http://www.w3.org/2000/svg" width="24" height="24" fill="none"><path fill="#04071E" d="M8.502 3.6A1.8 1.8 0 0 1 10.2 2.4h3.6c.784 0 1.45.5 1.697 1.2H17.4a1.8 1.8 0 0 1 1.8 1.8V12h-4.8a3.6 3.6 0 0 0-3.6 3.6v4.8c0 .42.072.825.205 1.2H6.6a1.8 1.8 0 0 1-1.8-1.8V5.4a1.8 1.8 0 0 1 1.8-1.8zm1.698 0a.6.6 0 0 0 0 1.2h3.6a.6.6 0 1 0 0-1.2zm4.2 9.6a2.4 2.4 0 0 0-2.4 2.4v4.8a2.4 2.4 0 0 0 2.4 2.4h6a2.4 2.4 0 0 0 2.4-2.4v-4.8a2.4 2.4 0 0 0-2.4-2.4zm0 6.6a.6.6 0 0 1 .6-.6h4.8a.6.6 0 1 1 0 1.2H15a.6.6 0 0 1-.6-.6m0-3.6a.6.6 0 0 1 .6-.6h4.8a.6.6 0 1 1 0 1.2H15a.6.6 0 0 1-.6-.6"/></svg>