<svg xmlns="http://www.w3.org/2000/svg" width="24" height="24" fill="none"><path fill="#04071E" d="M8.502 3.6H6.6a1.8 1.8 0 0 0-1.8 1.8v14.4a1.8 1.8 0 0 0 1.8 1.8h10.8a1.8 1.8 0 0 0 1.8-1.8V5.4a1.8 1.8 0 0 0-1.8-1.8h-1.903A1.8 1.8 0 0 0 13.8 2.4h-3.6a1.8 1.8 0 0 0-1.698 1.2m1.698 0h3.6a.6.6 0 1 1 0 1.2h-3.6a.6.6 0 0 1 0-1.2m.6 6.6a.6.6 0 0 1 .6-.6h4.2a.6.6 0 1 1 0 1.2h-4.2a.6.6 0 0 1-.6-.6m0 3.6a.6.6 0 0 1 .6-.6h4.2a.6.6 0 1 1 0 1.2h-4.2a.6.6 0 0 1-.6-.6m0 3.6a.6.6 0 0 1 .6-.6h4.2a.6.6 0 1 1 0 1.2h-4.2a.6.6 0 0 1-.6-.6m-1.2-7.2a.9.9 0 1 1-1.8 0 .9.9 0 0 1 1.8 0m0 3.6a.9.9 0 1 1-1.8 0 .9.9 0 0 1 1.8 0m-.9 4.5a.9.9 0 1 1 0-1.8.9.9 0 0 1 0 1.8"/></svg>