<svg xmlns="http://www.w3.org/2000/svg" width="24" height="24" fill="none"><path fill="#04071E" d="M10.2 2.4h3.6c.784 0 1.45.5 1.697 1.2H17.4a1.8 1.8 0 0 1 1.8 1.8v14.4a1.8 1.8 0 0 1-1.8 1.8H6.6a1.8 1.8 0 0 1-1.8-1.8V5.4a1.8 1.8 0 0 1 1.8-1.8h1.902A1.8 1.8 0 0 1 10.2 2.4m-.6 1.8a.6.6 0 0 0 .6.6h3.6a.6.6 0 1 0 0-1.2h-3.6a.6.6 0 0 0-.6.6m5.7 6.9a.9.9 0 1 0 0-1.8.9.9 0 0 0 0 1.8m0 3.6a.9.9 0 1 0 0-1.8.9.9 0 0 0 0 1.8m-.9 2.7a.9.9 0 1 0 1.8 0 .9.9 0 0 0-1.8 0m-1.2-7.2a.6.6 0 0 0-.6-.6H8.4a.6.6 0 0 0 0 1.2h4.2a.6.6 0 0 0 .6-.6m0 3.6a.6.6 0 0 0-.6-.6H8.4a.6.6 0 1 0 0 1.2h4.2a.6.6 0 0 0 .6-.6m0 3.6a.6.6 0 0 0-.6-.6H8.4a.6.6 0 1 0 0 1.2h4.2a.6.6 0 0 0 .6-.6"/></svg>