<svg xmlns="http://www.w3.org/2000/svg" width="24" height="24" fill="none"><path fill="#04071E" d="M12 3.6c3.38 0 5.298 2.308 5.577 5.095h.085c1.841 0 3.387 1.3 3.819 3.057a5 5 0 0 0-.638-.328c-.942-.404-2.16-.624-3.443-.624s-2.5.22-3.442.624c-.47.201-.925.471-1.282.832-.361.367-.676.89-.676 1.544v3H6.34c-2.175 0-3.939-1.814-3.939-4.052S4.164 8.695 6.34 8.695h.085C6.704 5.89 8.62 3.6 12 3.6m8.966 13.539c-.973.556-2.236.861-3.566.861s-2.593-.305-3.565-.861a4.7 4.7 0 0 1-.635-.435V20.4c0 1.326 1.88 2.4 4.2 2.4s4.2-1.075 4.2-2.4v-3.696c-.202.166-.417.31-.634.435M17.4 12c-2.32 0-4.2 1.075-4.2 2.4 0 1.326 1.88 2.4 4.2 2.4s4.2-1.075 4.2-2.4-1.88-2.4-4.2-2.4"/></svg>