<svg xmlns="http://www.w3.org/2000/svg" width="24" height="24" fill="none"><path fill="#04071E" d="m8.086 18.61 5.996-14.004a1 1 0 0 1 1.878.678l-.04.11-5.996 14.004a1 1 0 0 1-1.878-.677zl5.996-14.005zm-5.793-7.317 4-4a1 1 0 0 1 1.497 1.32l-.083.094L4.414 12l3.293 3.293a1 1 0 0 1-1.32 1.497l-.094-.083-4-4a1 1 0 0 1-.083-1.32zl4-4zm14-4.001a1 1 0 0 1 1.32-.083l.093.083 4.001 4a1 1 0 0 1 .083 1.321l-.083.095-4.001 3.995a1 1 0 0 1-1.497-1.32l.084-.095 3.292-3.289-3.293-3.293a1 1 0 0 1 0-1.414"/></svg>