<svg xmlns="http://www.w3.org/2000/svg" width="24" height="24" fill="none"><path fill="#04071E" d="M8.25 10.5H7.5V12h.75a.746.746 0 0 0 .75-.75.749.749 0 0 0-.75-.75m6.375 3H13.5V15h1.125a.749.749 0 0 0 .531-1.281.75.75 0 0 0-.531-.219m.156-1.719a.75.75 0 0 0 0-1.062.75.75 0 0 0-.531-.219h-.75V12h.75c.2 0 .39-.08.531-.219M18.375 4.5H4.125A2.63 2.63 0 0 0 1.5 7.125v11.25A2.63 2.63 0 0 0 4.125 21h14.25A2.63 2.63 0 0 0 21 18.375V7.125A2.63 2.63 0 0 0 18.375 4.5m-7.551 11.528a.75.75 0 0 1-.696.472c-.714 0-.885-.688-1.05-1.35-.135-.533-.414-1.65-.828-1.65H7.5v2.25a.749.749 0 0 1-1.281.531A.75.75 0 0 1 6 15.75v-6A.749.749 0 0 1 6.75 9h1.5a2.25 2.25 0 0 1 2.076 1.424 2.255 2.255 0 0 1-.545 2.458c.356.59.61 1.234.75 1.908.041.162.072.306.11.416a.74.74 0 0 1 .18.82zm5.911-.996a2.25 2.25 0 0 1-2.11 1.469H12.75a.749.749 0 0 1-.75-.75V9.749a.749.749 0 0 1 .75-.75h1.5a2.25 2.25 0 0 1 1.84 3.541 2.24 2.24 0 0 1 .644 2.489z"/></svg>