<svg xmlns="http://www.w3.org/2000/svg" width="24" height="24" fill="none"><path fill="#04071E" d="M16.153 10.95h.002c1.57.589 3.72 1.395 3.72 3.675a3.7 3.7 0 0 1-.337 1.53 3.8 3.8 0 0 1-.92 1.263 3.8 3.8 0 0 1-1.352.783 3.8 3.8 0 0 1-1.552.172 3 3 0 0 1-.322.018c-.371 0-.776-.064-1.157-.19a3.786 3.786 0 0 1-2.273-2.046 3.75 3.75 0 0 1-.336-1.527c0-.303.117-.585.33-.798.426-.425 1.167-.425 1.592 0 .213.211.33.495.33.795 0 1.428 1.561 1.5 1.874 1.5s1.876-.072 1.876-1.5c0-.62-.671-.972-2.271-1.572l-.004-.002c-1.572-.589-3.726-1.396-3.726-3.676a3.7 3.7 0 0 1 .336-1.53 3.75 3.75 0 0 1 .922-1.263 3.7 3.7 0 0 1 1.351-.782c.912-.302 2.12-.298 3.033 0a3.786 3.786 0 0 1 2.271 2.045c.219.483.332.996.336 1.527 0 .303-.117.585-.33.798-.426.425-1.167.425-1.591 0a1.11 1.11 0 0 1-.33-.795c0-1.428-1.562-1.5-1.876-1.5s-1.875.072-1.875 1.5c0 .62.671.972 2.271 1.572zm-7.528-4.2c0-.3.117-.582.33-.795a1.15 1.15 0 0 1 1.59 0c.213.212.33.495.33.795v7.499a4.124 4.124 0 0 1-7.042 2.918 4.1 4.1 0 0 1-1.21-2.917v-.75c0-.3.117-.582.33-.795.426-.425 1.167-.425 1.592 0 .213.211.33.495.33.795v.75c0 .493.2.978.549 1.326.697.697 1.954.697 2.652 0 .348-.35.549-.833.549-1.326z"/></svg>