<svg xmlns="http://www.w3.org/2000/svg" width="24" height="24" fill="none"><path fill="#04071E" d="M12.089 15.677c.063.21.146.486.216.672l.001-.002q.182.137.299.336a1.123 1.123 0 0 1-.972 1.69c-1.095 0-1.409-1.051-1.71-2.068-.621-2.062-1.193-3.181-2.421-3.181H6.377v4.124c0 .3-.117.582-.33.796-.426.424-1.167.424-1.592 0a1.11 1.11 0 0 1-.33-.796v-10.5A1.123 1.123 0 0 1 5.25 5.625h3.375a3.73 3.73 0 0 1 2.652 1.098 3.73 3.73 0 0 1 .516 4.645c-.297.468-.69.862-1.155 1.156a9.1 9.1 0 0 1 1.449 3.148zm-2.405-5.243c.28-.279.441-.664.441-1.06a1.51 1.51 0 0 0-1.501-1.499H6.374v3h2.25a1.5 1.5 0 0 0 1.059-.441m10.793 1.377c.343.303.631.668.844 1.074h.002a3.76 3.76 0 0 1 .428 1.74 3.74 3.74 0 0 1-1.098 2.652 3.74 3.74 0 0 1-2.651 1.098h-3.75a1.123 1.123 0 0 1-1.126-1.125V6.75a1.123 1.123 0 0 1 1.126-1.125h3.374a3.73 3.73 0 0 1 2.653 1.098 3.74 3.74 0 0 1 1.098 2.652 3.73 3.73 0 0 1-.9 2.436m-5.102-3.936v3h2.25a1.51 1.51 0 0 0 1.5-1.5 1.504 1.504 0 0 0-1.501-1.5zm3.684 7.809c.28-.279.441-.664.441-1.06a1.51 1.51 0 0 0-1.501-1.499h-2.624v3h2.624a1.5 1.5 0 0 0 1.06-.441"/></svg>