<svg xmlns="http://www.w3.org/2000/svg" width="24" height="24" fill="none"><path fill="#04071E" d="M18.375 4.5H4.125A2.63 2.63 0 0 0 1.5 7.125v11.25A2.63 2.63 0 0 0 4.125 21h14.25A2.63 2.63 0 0 0 21 18.375V7.125A2.63 2.63 0 0 0 18.375 4.5M10.5 14.25a2.26 2.26 0 0 1-.659 1.592 2.25 2.25 0 0 1-1.591.658 2.26 2.26 0 0 1-1.591-.659A2.25 2.25 0 0 1 6 14.25v-.75a.76.76 0 0 1 .219-.531.758.758 0 0 1 1.062 0q.105.106.162.243a.8.8 0 0 1 .057.288v.75a.76.76 0 0 0 .219.531q.106.104.243.162A.753.753 0 0 0 9 14.25v-4.5a.76.76 0 0 1 .219-.531.758.758 0 0 1 1.062 0q.104.106.162.243a.8.8 0 0 1 .057.288zm4.313-3.56a.64.64 0 0 0-.45-.187h-.22c-.169 0-.33.067-.45.188a.65.65 0 0 0-.187.45.63.63 0 0 0 .352.571l1.464.733c.43.218.773.572.976 1.008a2.13 2.13 0 0 1-.6 2.585 2.14 2.14 0 0 1-1.328.462h-.219a2.14 2.14 0 0 1-1.514-.627A2.14 2.14 0 0 1 12 14.36a.803.803 0 0 1 .75-.806.7.7 0 0 1 .524.19.7.7 0 0 1 .226.506.673.673 0 0 0 .64.75h.22a.64.64 0 0 0 .285-1.209l-1.464-.738a2.14 2.14 0 0 1-.974-1.008 2.13 2.13 0 0 1-.143-1.393c.11-.468.374-.885.75-1.184.863-.687 2.275-.622 3.059.159.4.402.627.946.627 1.513a.797.797 0 0 1-.75.806.7.7 0 0 1-.524-.19.697.697 0 0 1-.226-.505v-.11a.64.64 0 0 0-.187-.45"/></svg>