<svg xmlns="http://www.w3.org/2000/svg" width="24" height="24" fill="none"><path fill="#04071E" d="M3.3 5.4a.9.9 0 1 0 0 1.8h6a.9.9 0 1 0 0-1.8zM6.9 9a.9.9 0 1 0 0 1.8h5.4a.9.9 0 1 0 0-1.8zm-2.1 4.5a.9.9 0 0 1 .9-.9h11.4a.9.9 0 1 1 0 1.8H5.7a.9.9 0 0 1-.9-.9m-1.5 2.7a.9.9 0 1 0 0 1.8h9.6a.9.9 0 1 0 0-1.8zM15 9.9a.9.9 0 0 1 .9-.9h3.6a.9.9 0 1 1 0 1.8h-3.6a.9.9 0 0 1-.9-.9m-2.1-4.5a.9.9 0 1 0 0 1.8h7.8a.9.9 0 1 0 0-1.8z"/><path fill="#04071E" fill-rule="evenodd" d="M2.25 6.3c0-.58.47-1.05 1.05-1.05h6a1.05 1.05 0 1 1 0 2.1h-6c-.58 0-1.05-.47-1.05-1.05m1.05-.75a.75.75 0 0 0 0 1.5h6a.75.75 0 0 0 0-1.5zm8.55.75c0-.58.47-1.05 1.05-1.05h7.8a1.05 1.05 0 1 1 0 2.1h-7.8c-.58 0-1.05-.47-1.05-1.05m1.05-.75a.75.75 0 0 0 0 1.5h7.8a.75.75 0 0 0 0-1.5zM5.85 9.9c0-.58.47-1.05 1.05-1.05h5.4a1.05 1.05 0 1 1 0 2.1H6.9c-.58 0-1.05-.47-1.05-1.05m1.05-.75a.75.75 0 0 0 0 1.5h5.4a.75.75 0 0 0 0-1.5zm9 0a.75.75 0 0 0 0 1.5h3.6a.75.75 0 0 0 0-1.5zm-1.05.75c0-.58.47-1.05 1.05-1.05h3.6a1.05 1.05 0 1 1 0 2.1h-3.6c-.58 0-1.05-.47-1.05-1.05M5.7 12.75a.75.75 0 0 0 0 1.5h11.4a.75.75 0 0 0 0-1.5zm-1.05.75c0-.58.47-1.05 1.05-1.05h11.4a1.05 1.05 0 1 1 0 2.1H5.7c-.58 0-1.05-.47-1.05-1.05m-2.4 3.6c0-.58.47-1.05 1.05-1.05h9.6a1.05 1.05 0 1 1 0 2.1H3.3c-.58 0-1.05-.47-1.05-1.05m1.05-.75a.75.75 0 0 0 0 1.5h9.6a.75.75 0 0 0 0-1.5z" clip-rule="evenodd"/></svg>