<svg xmlns="http://www.w3.org/2000/svg" width="24" height="24" fill="none"><path fill="#04071E" d="M5.25 7.875A1.875 1.875 0 0 0 3.375 9.75v4.5a1.875 1.875 0 1 0 3.75 0 1.125 1.125 0 0 1 2.25 0 4.125 4.125 0 0 1-8.25 0v-4.5a4.125 4.125 0 0 1 8.25 0 1.125 1.125 0 0 1-2.25 0A1.875 1.875 0 0 0 5.25 7.875m9-1.5c.621 0 1.125.504 1.125 1.125v1.125h2.25V7.5a1.125 1.125 0 0 1 2.25 0v1.125h1.5a1.125 1.125 0 0 1 0 2.25h-1.5v2.25h1.5a1.125 1.125 0 0 1 0 2.25h-1.5V16.5a1.125 1.125 0 0 1-2.25 0v-1.125h-2.25V16.5a1.125 1.125 0 0 1-2.25 0v-1.125H12a1.125 1.125 0 0 1 0-2.25h1.125v-2.25H12a1.125 1.125 0 0 1 0-2.25h1.125V7.5c0-.621.504-1.125 1.125-1.125m1.125 4.5v2.25h2.25v-2.25z"/></svg>