<svg xmlns="http://www.w3.org/2000/svg" width="24" height="24" fill="none"><path fill="#04071E" d="M3.75 5.625H9a1.123 1.123 0 0 1 1.125 1.125A1.123 1.123 0 0 1 9 7.875H4.875v3H8.25A1.123 1.123 0 0 1 9.375 12a1.123 1.123 0 0 1-1.125 1.125H4.875v4.125a1.123 1.123 0 0 1-1.125 1.125 1.123 1.123 0 0 1-1.125-1.125V6.75A1.123 1.123 0 0 1 3.75 5.625m16.125 7.5h1.499a1.123 1.123 0 0 1 1.125 1.125 1.123 1.123 0 0 1-1.125 1.125h-1.5V16.5a1.123 1.123 0 0 1-1.125 1.125 1.123 1.123 0 0 1-1.125-1.125v-1.125h-2.25V16.5c0 .3-.117.582-.33.795-.426.424-1.167.424-1.592 0a1.11 1.11 0 0 1-.33-.795v-1.125h-1.125a1.123 1.123 0 0 1-1.125-1.125 1.123 1.123 0 0 1 1.125-1.125h1.125v-2.25h-1.125a1.123 1.123 0 0 1-1.125-1.125 1.123 1.123 0 0 1 1.125-1.125h1.125V7.5c0-.3.117-.582.33-.795.426-.425 1.167-.425 1.592 0 .213.212.33.495.33.795v1.125h2.25V7.5c0-.3.117-.582.33-.795.426-.425 1.167-.425 1.591 0 .213.212.33.495.33.795v1.125h1.5A1.123 1.123 0 0 1 22.5 9.75a1.123 1.123 0 0 1-1.125 1.125h-1.5zm-2.25 0v-2.25h-2.25v2.25z"/></svg>