<svg xmlns="http://www.w3.org/2000/svg" width="24" height="24" fill="none"><path fill="#04071E" d="M8.25 10.5H7.5V12h.75a.746.746 0 0 0 .75-.75.749.749 0 0 0-.75-.75m10.125-6H4.125A2.63 2.63 0 0 0 1.5 7.125v11.25A2.63 2.63 0 0 0 4.125 21h14.25A2.63 2.63 0 0 0 21 18.375V7.125A2.63 2.63 0 0 0 18.375 4.5m-8.533 8.342a2.25 2.25 0 0 1-1.592.658H7.5v2.25a.749.749 0 0 1-1.281.531A.75.75 0 0 1 6 15.75v-6A.749.749 0 0 1 6.75 9h1.5a2.245 2.245 0 0 1 2.25 2.25c0 .597-.237 1.168-.659 1.592M17.1 10.2 15 12.999v2.751a.749.749 0 0 1-1.281.531.75.75 0 0 1-.219-.531v-2.751L11.4 10.2a.753.753 0 0 1 .15-1.05.75.75 0 0 1 1.05.15l1.65 2.2 1.65-2.2a.754.754 0 0 1 1.05-.15.754.754 0 0 1 .15 1.05"/></svg>