<svg xmlns="http://www.w3.org/2000/svg" width="24" height="24" fill="none"><path fill="#04071E" d="M3.3 5.4a.9.9 0 1 0 0 1.8h6a.9.9 0 1 0 0-1.8zM6.9 9a.9.9 0 1 0 0 1.8h5.4a.9.9 0 1 0 0-1.8zm-2.1 4.5a.9.9 0 0 1 .9-.9h11.4q.108 0 .208.024L15.532 14.4H5.7a.9.9 0 0 1-.9-.9m7.528 4.104 1.174-1.173a.9.9 0 0 0-.602-.231H3.3a.9.9 0 1 0 0 1.8h8.683q.158-.21.345-.396M15 9.9a.9.9 0 0 1 .9-.9h3.6a.9.9 0 1 1 0 1.8h-3.6a.9.9 0 0 1-.9-.9m-2.1-4.5a.9.9 0 1 0 0 1.8h7.8a.9.9 0 1 0 0-1.8zm.276 13.053 5.795-5.796a2.244 2.244 0 0 1 3.174 3.174l-5.796 5.795a2.64 2.64 0 0 1-1.224.694l-1.798.45a1.067 1.067 0 0 1-1.294-1.295l.45-1.798c.115-.463.355-.886.693-1.224"/><path fill="#04071E" fill-rule="evenodd" d="M2.25 6.3c0-.58.47-1.05 1.05-1.05h6a1.05 1.05 0 1 1 0 2.1h-6c-.58 0-1.05-.47-1.05-1.05m1.05-.75a.75.75 0 0 0 0 1.5h6a.75.75 0 0 0 0-1.5zm8.55.75c0-.58.47-1.05 1.05-1.05h7.8a1.05 1.05 0 1 1 0 2.1h-7.8c-.58 0-1.05-.47-1.05-1.05m1.05-.75a.75.75 0 0 0 0 1.5h7.8a.75.75 0 0 0 0-1.5zM5.85 9.9c0-.58.47-1.05 1.05-1.05h5.4a1.05 1.05 0 1 1 0 2.1H6.9c-.58 0-1.05-.47-1.05-1.05m1.05-.75a.75.75 0 0 0 0 1.5h5.4a.75.75 0 0 0 0-1.5zm9 0a.75.75 0 0 0 0 1.5h3.6a.75.75 0 0 0 0-1.5zm-1.05.75c0-.58.47-1.05 1.05-1.05h3.6a1.05 1.05 0 1 1 0 2.1h-3.6c-.58 0-1.05-.47-1.05-1.05m7.189 2.863a2.094 2.094 0 0 0-2.962 0l-5.795 5.796a2.5 2.5 0 0 0-.654 1.155l-.45 1.797a.917.917 0 0 0 1.113 1.113l1.797-.45c.438-.109.837-.335 1.155-.654l5.796-5.795a2.094 2.094 0 0 0 0-2.962m-3.174-.212a2.394 2.394 0 0 1 3.386 3.386l-5.795 5.796c-.358.357-.805.61-1.295.732l-1.797.45a1.217 1.217 0 0 1-1.477-1.476l.45-1.798c.122-.49.376-.937.733-1.294zM5.7 12.75a.75.75 0 0 0 0 1.5h9.77l1.5-1.5zm-1.05.75c0-.58.47-1.05 1.05-1.05h11.4q.125 0 .243.028l.261.062-2.01 2.01H5.7c-.58 0-1.05-.47-1.05-1.05m-2.4 3.6c0-.58.47-1.05 1.05-1.05h9.6c.27 0 .516.102.702.27l.118.105-1.286 1.285q-.18.18-.331.38l-.045.06H3.3c-.58 0-1.05-.47-1.05-1.05m1.05-.75a.75.75 0 0 0 0 1.5h8.61q.144-.184.312-.352l1.05-1.05a.75.75 0 0 0-.372-.098z" clip-rule="evenodd"/></svg>