<svg xmlns="http://www.w3.org/2000/svg" width="24" height="24" fill="none"><path fill="#04071E" d="M19.875 10.5h-4.5a1.125 1.125 0 0 1 0-2.25h4.5a1.125 1.125 0 0 1 0 2.25M14.625 6h6.75a1.125 1.125 0 0 0 0-2.25h-6.75a1.125 1.125 0 0 0 0 2.25m-1.5 11.25h-10.5a1.125 1.125 0 0 0 0 2.25h10.5a1.125 1.125 0 0 0 0-2.25m-3-11.25a1.125 1.125 0 0 0 0-2.25H6.933L9.183 6zm12.156 15.219L2.779 1.721a.75.75 0 0 0-1.06 1.06l.969.969h-.063a1.125 1.125 0 0 0 0 2.25h2.313l2.25 2.25h-.063a1.125 1.125 0 0 0 0 2.25h2.313l2.25 2.25H5.625a1.125 1.125 0 0 0 0 2.25h8.313l7.281 7.281a.753.753 0 0 0 1.062-.002.75.75 0 0 0 0-1.06"/><path fill="#04071E" fill-rule="evenodd" d="m2.886 1.614 19.501 19.499a.9.9 0 0 1-.636 1.537h-.001a.9.9 0 0 1-.637-.262l-7.237-7.238H5.625a1.275 1.275 0 0 1 0-2.55h5.7l-1.95-1.95h-2.25a1.275 1.275 0 0 1-.27-2.521L4.875 6.15h-2.25a1.275 1.275 0 0 1-.27-2.521l-.742-.742a.9.9 0 0 1 1.273-1.273m-.213.213a.6.6 0 0 0-.848.848L3.05 3.9h-.425a.975.975 0 0 0 0 1.95H5L7.55 8.4h-.425a.975.975 0 0 0 0 1.95H9.5l2.55 2.55H5.625a.975.975 0 0 0 0 1.95H14l7.325 7.324a.604.604 0 0 0 .85 0 .6.6 0 0 0 0-.849zM6.571 3.6h3.554a1.275 1.275 0 0 1 0 2.55H9.121zm.724.3 1.95 1.95h.88a.975.975 0 0 0 0-1.95zm6.055.975c0-.704.571-1.275 1.275-1.275h6.75a1.275 1.275 0 0 1 0 2.55h-6.75a1.275 1.275 0 0 1-1.275-1.275m1.275-.975a.975.975 0 0 0 0 1.95h6.75a.975.975 0 0 0 0-1.95zm.75 4.5a.975.975 0 0 0 0 1.95h4.5a.975.975 0 0 0 0-1.95zm-1.275.975c0-.704.571-1.275 1.275-1.275h4.5a1.275 1.275 0 0 1 0 2.55h-4.5A1.275 1.275 0 0 1 14.1 9.375m-12.75 9c0-.704.571-1.275 1.275-1.275h10.5a1.275 1.275 0 0 1 0 2.55h-10.5a1.275 1.275 0 0 1-1.275-1.275m1.275-.975a.975.975 0 0 0 0 1.95h10.5a.975.975 0 0 0 0-1.95z" clip-rule="evenodd"/></svg>