<svg xmlns="http://www.w3.org/2000/svg" width="24" height="24" fill="none"><path fill="#04071E" d="M13.5 13.5H15V12h-1.5zm4.875-9H4.125A2.626 2.626 0 0 0 1.5 7.125v11.25A2.626 2.626 0 0 0 4.125 21h14.25A2.626 2.626 0 0 0 21 18.375V7.125A2.626 2.626 0 0 0 18.375 4.5M6.219 14.781a.75.75 0 0 0 1.062 0 .75.75 0 0 0 .219-.531.749.749 0 0 1 1.281-.531.75.75 0 0 1 .219.531 2.251 2.251 0 0 1-4.5 0v-3A2.245 2.245 0 0 1 6.75 9 2.245 2.245 0 0 1 9 11.25a.746.746 0 0 1-.75.75.746.746 0 0 1-.75-.75.749.749 0 0 0-1.281-.531.75.75 0 0 0-.219.531v3c0 .2.08.39.219.531M17.25 13.5a.746.746 0 0 1 .75.75.749.749 0 0 1-.75.75h-.75v.75a.746.746 0 0 1-.75.75.746.746 0 0 1-.75-.75V15h-1.5v.75a.746.746 0 0 1-.75.75.746.746 0 0 1-.75-.75V15h-.75a.746.746 0 0 1-.75-.75.749.749 0 0 1 .75-.75H12V12h-.75a.746.746 0 0 1-.75-.75.749.749 0 0 1 .75-.75H12v-.75a.749.749 0 0 1 1.281-.531.75.75 0 0 1 .219.531v.75H15v-.75a.749.749 0 0 1 1.281-.531.75.75 0 0 1 .219.531v.75h.75a.746.746 0 0 1 .75.75.749.749 0 0 1-.75.75h-.75v1.5z"/></svg>