<svg xmlns="http://www.w3.org/2000/svg" width="24" height="24" fill="none"><path fill="#04071E" d="M18.375 4.5H4.125A2.63 2.63 0 0 0 1.5 7.125v11.25A2.63 2.63 0 0 0 4.125 21h14.25A2.63 2.63 0 0 0 21 18.375V7.125A2.63 2.63 0 0 0 18.375 4.5m-7.344 5.781a.75.75 0 0 1-.531.219H9v5.25a.749.749 0 0 1-1.281.531.75.75 0 0 1-.219-.531V10.5H6a.746.746 0 0 1-.75-.75A.749.749 0 0 1 6 9h4.5a.749.749 0 0 1 .531 1.281m3.781.41a.64.64 0 0 0-.45-.188h-.219a.64.64 0 0 0-.543.973.6.6 0 0 0 .258.236l1.464.733c.43.218.773.572.976 1.008a2.13 2.13 0 0 1-.6 2.585 2.14 2.14 0 0 1-1.328.462h-.219a2.15 2.15 0 0 1-1.514-.627A2.15 2.15 0 0 1 12 14.36a.803.803 0 0 1 .75-.806.7.7 0 0 1 .524.19.7.7 0 0 1 .226.506.673.673 0 0 0 .64.75h.22a.64.64 0 0 0 .543-.973.6.6 0 0 0-.258-.236l-1.464-.738a2.14 2.14 0 0 1-.974-1.008 2.13 2.13 0 0 1-.143-1.393c.11-.468.374-.885.75-1.184.377-.3.845-.465 1.326-.468h.22c.567 0 1.111.226 1.513.627.4.402.627.946.627 1.513a.797.797 0 0 1-.75.806.7.7 0 0 1-.524-.19.697.697 0 0 1-.226-.505v-.11a.64.64 0 0 0-.187-.45"/></svg>