<svg xmlns="http://www.w3.org/2000/svg" width="24" height="24" fill="none"><path fill="#04071E" d="M21.66 5.841q.178.127.298.321l-.003.001c.078.123.132.266.154.414.023.14.018.287-.013.432q-.056.225-.183.401l-3.54 4.956v4.89c0 .297-.12.587-.33.796-.21.212-.494.329-.795.329s-.584-.117-.795-.329a1.13 1.13 0 0 1-.33-.796v-4.89l-3.54-4.956a1.136 1.136 0 0 1-.198-.84 1.14 1.14 0 0 1 1.3-.93c.147.024.288.076.414.157q.191.122.32.3l2.83 3.971 2.835-3.969a1.127 1.127 0 0 1 1.576-.258M5.25 5.629h3.375a3.73 3.73 0 0 1 2.652 1.1 3.73 3.73 0 0 1 1.098 2.65 3.73 3.73 0 0 1-1.098 2.653 3.73 3.73 0 0 1-2.652 1.098h-2.25v4.124c0 .297-.12.587-.33.797-.21.212-.494.329-.795.329s-.584-.117-.795-.329a1.13 1.13 0 0 1-.33-.796v-10.5c0-.296.12-.586.33-.796.211-.213.495-.33.795-.33m1.125 5.25h2.25a1.499 1.499 0 0 0-.002-3H6.375z"/><path fill="#04071E" fill-rule="evenodd" d="M13.661 5.788a1 1 0 0 0-.378.013h-.003a.992.992 0 0 0-.748.794.99.99 0 0 0 .172.727l3.569 4.996v4.938c0 .258.104.51.285.69a.97.97 0 0 0 .69.285.96.96 0 0 0 .688-.284.98.98 0 0 0 .287-.691v-4.938l3.568-4.995V7.32a1 1 0 0 0 .159-.346q.04-.192.011-.374V6.6a.9.9 0 0 0-.133-.356l-.053-.083a1 1 0 0 0-.202-.198v-.001a.9.9 0 0 0-.345-.158h-.003a.97.97 0 0 0-1.017.38l-.002.002-2.957 4.14-2.952-4.14a1 1 0 0 0-.278-.262.9.9 0 0 0-.358-.136m8.5.44q.07.155.096.326c.026.159.02.325-.015.487v.005a1.3 1.3 0 0 1-.207.452l-3.512 4.916v4.842c0 .337-.136.664-.374.902-.238.24-.56.373-.901.373s-.662-.133-.901-.372a1.28 1.28 0 0 1-.374-.903v-4.842L12.46 7.498a1.286 1.286 0 0 1-.224-.953v-.002a1.291 1.291 0 0 1 1.472-1.051 1.297 1.297 0 0 1 .832.518l2.708 3.8 2.713-3.797a1.277 1.277 0 0 1 .831-.52h.002a1.27 1.27 0 0 1 .954.226c.133.096.247.22.337.364l.086.14zM5.25 5.78a.96.96 0 0 0-.689.286.98.98 0 0 0-.286.69v10.5c0 .257.104.51.285.69a.97.97 0 0 0 .69.285.96.96 0 0 0 .688-.285.98.98 0 0 0 .287-.69V12.98h2.4c.962 0 1.864-.375 2.546-1.055a3.58 3.58 0 0 0 1.054-2.546c0-.962-.376-1.866-1.054-2.544A3.58 3.58 0 0 0 8.624 5.78zm-.902.075c.24-.242.562-.375.902-.375h3.375a3.88 3.88 0 0 1 2.758 1.144 3.88 3.88 0 0 1 1.142 2.756 3.88 3.88 0 0 1-1.142 2.759 3.88 3.88 0 0 1-2.758 1.142h-2.1v3.975c0 .336-.136.664-.374.902-.239.24-.56.372-.901.372s-.662-.132-.901-.372a1.28 1.28 0 0 1-.374-.902v-10.5c0-.336.135-.663.373-.901m1.877 1.875h2.398a1.654 1.654 0 0 1 1.652 1.648c0 .442-.174.86-.486 1.17-.307.308-.729.482-1.164.482h-2.4zm.3.3v2.7h2.1c.356 0 .702-.143.952-.395a1.34 1.34 0 0 0 0-1.907 1.36 1.36 0 0 0-.954-.398z" clip-rule="evenodd"/></svg>