<svg xmlns="http://www.w3.org/2000/svg" width="24" height="24" fill="none"><path fill="#04071E" d="M13.5 13.5H15V12h-1.5zm4.875-9H4.125A2.63 2.63 0 0 0 1.5 7.125v11.25A2.63 2.63 0 0 0 4.125 21h14.25A2.63 2.63 0 0 0 21 18.375V7.125A2.63 2.63 0 0 0 18.375 4.5m-9.43 5.537a.75.75 0 0 1-.695.463H6V12h1.5a.749.749 0 0 1 .531 1.281.75.75 0 0 1-.531.219H6v2.25a.749.749 0 0 1-1.281.531.75.75 0 0 1-.219-.531v-6A.749.749 0 0 1 5.25 9h3a.76.76 0 0 1 .531.219.75.75 0 0 1 .163.818M17.25 13.5a.749.749 0 0 1 .531 1.281.75.75 0 0 1-.531.219h-.75v.75a.749.749 0 0 1-1.281.531.75.75 0 0 1-.219-.531V15h-1.5v.75a.749.749 0 0 1-1.281.531.75.75 0 0 1-.219-.531V15h-.75a.746.746 0 0 1-.75-.75.749.749 0 0 1 .75-.75H12V12h-.75a.746.746 0 0 1-.75-.75.749.749 0 0 1 .75-.75H12v-.75a.749.749 0 0 1 1.281-.531.75.75 0 0 1 .219.531v.75H15v-.75a.749.749 0 0 1 1.281-.531.75.75 0 0 1 .219.531v.75h.75a.749.749 0 0 1 .531 1.281.75.75 0 0 1-.531.219h-.75v1.5z"/></svg>