<svg xmlns="http://www.w3.org/2000/svg" width="24" height="24" fill="none"><path fill="#04071E" d="M10.77 5.732c.265-.127.579-.14.86-.041v-.003a1.123 1.123 0 0 1 .68 1.439L8.56 17.624a1.11 1.11 0 0 1-1.059.747 1.12 1.12 0 0 1-1.06-.748L2.692 7.124a1.1 1.1 0 0 1-.064-.438 1.14 1.14 0 0 1 .366-.772c.112-.101.243-.179.382-.227.137-.05.288-.06.435-.063a1.14 1.14 0 0 1 .773.366c.1.113.178.243.226.383l2.69 7.53 2.69-7.532a1.13 1.13 0 0 1 .58-.64m9.705 6.079a3.75 3.75 0 0 1 1.103 3.93 3.7 3.7 0 0 1-1.356 1.905 3.73 3.73 0 0 1-2.222.729h-3.75a1.123 1.123 0 0 1-1.125-1.125V6.75a1.123 1.123 0 0 1 1.125-1.125h3.384c.753 0 1.48.225 2.105.65a3.73 3.73 0 0 1 1.38 1.73 3.75 3.75 0 0 1-.643 3.806m-5.1-3.936v3h2.25a1.503 1.503 0 0 0 1.5-1.5 1.5 1.5 0 0 0-.44-1.059 1.52 1.52 0 0 0-1.061-.441zm0 8.25H18a1.505 1.505 0 0 0 1.5-1.5 1.505 1.505 0 0 0-1.5-1.5h-2.625z"/></svg>