<svg xmlns="http://www.w3.org/2000/svg" width="24" height="24" fill="none"><path fill="#04071E" d="M18.375 4.5H4.125A2.63 2.63 0 0 0 1.5 7.125v11.25A2.63 2.63 0 0 0 4.125 21h14.25A2.63 2.63 0 0 0 21 18.375V7.125A2.63 2.63 0 0 0 18.375 4.5m-7.173 5.514-2.25 6a.751.751 0 0 1-1.404 0l-2.25-6a.76.76 0 0 1 .018-.573.75.75 0 0 1 .993-.373.75.75 0 0 1 .393.418l1.548 4.128 1.548-4.128a.75.75 0 0 1 .393-.418.748.748 0 0 1 1.012.946zm5.532 5.018a2.25 2.25 0 0 1-2.11 1.469h-1.876a.749.749 0 0 1-.75-.75V9.749a.749.749 0 0 1 .75-.75h1.5a2.25 2.25 0 0 1 1.841 3.541 2.24 2.24 0 0 1 .644 2.489zM14.625 13.5H13.5V15h1.125a.749.749 0 0 0 .531-1.281.75.75 0 0 0-.531-.219m.156-1.719a.75.75 0 0 0 0-1.062.75.75 0 0 0-.531-.219h-.75V12h.75c.2 0 .39-.08.531-.219"/></svg>