<svg xmlns="http://www.w3.org/2000/svg" width="24" height="24" fill="none"><path fill="#04071E" d="M13.875 9.765c0 .62.67.972 2.271 1.572 1.578.591 3.729 1.397 3.729 3.678v.003a3.7 3.7 0 0 1-.336 1.527 3.8 3.8 0 0 1-.921 1.263 3.8 3.8 0 0 1-1.351.783 3.8 3.8 0 0 1-1.553.173 3 3 0 0 1-.321.018c-.372 0-.777-.065-1.158-.19a3.786 3.786 0 0 1-2.272-2.046 3.75 3.75 0 0 1-.337-1.528c0-.303.117-.585.33-.798.427-.424 1.168-.424 1.592 0 .213.212.33.495.33.795 0 1.428 1.562 1.5 1.875 1.5.314 0 1.875-.072 1.875-1.5 0-.62-.67-.972-2.271-1.572-1.578-.59-3.729-1.396-3.729-3.678a3.7 3.7 0 0 1 .336-1.53c.216-.481.527-.907.921-1.261a3.7 3.7 0 0 1 1.351-.783 3.8 3.8 0 0 1 1.553-.174 3.7 3.7 0 0 1 1.48.174 3.805 3.805 0 0 1 2.607 3.571c0 .303-.117.585-.33.798-.425.425-1.166.425-1.591 0a1.11 1.11 0 0 1-.33-.795c0-1.428-1.561-1.5-1.875-1.5-.313 0-1.875.072-1.875 1.5m-10.5-3.75h6.75A1.123 1.123 0 0 1 11.25 7.14a1.123 1.123 0 0 1-1.125 1.125h-2.25v9.375a1.123 1.123 0 0 1-1.125 1.125 1.123 1.123 0 0 1-1.125-1.125V8.265h-2.25A1.123 1.123 0 0 1 2.25 7.14a1.123 1.123 0 0 1 1.125-1.125"/></svg>