<svg xmlns="http://www.w3.org/2000/svg" width="24" height="24" fill="none"><path fill="#04071E" d="M6 5.625A2.625 2.625 0 0 1 8.625 3h5.25c.715 0 1.363.286 1.837.75h.038v.038c.464.473.75 1.122.75 1.837v12.75A2.625 2.625 0 0 1 13.875 21h-5.25A2.625 2.625 0 0 1 6 18.375zm1.5 12.75c0 .621.503 1.125 1.125 1.125h5.25c.62 0 1.125-.504 1.125-1.125V9H7.5z"/><path fill="#04071E" fill-rule="evenodd" d="M8.625 3.15A2.475 2.475 0 0 0 6.15 5.625v12.75a2.475 2.475 0 0 0 2.475 2.475h5.25a2.475 2.475 0 0 0 2.475-2.475V5.625a2.47 2.47 0 0 0-.743-1.768 2.47 2.47 0 0 0-1.732-.707zm7.15.452a2.77 2.77 0 0 0-1.9-.752h-5.25A2.775 2.775 0 0 0 5.85 5.625v12.75a2.775 2.775 0 0 0 2.775 2.775h5.25a2.775 2.775 0 0 0 2.775-2.775V5.625c0-.735-.286-1.403-.752-1.9a.15.15 0 0 0-.124-.123M7.35 9a.15.15 0 0 1 .15-.15H15a.15.15 0 0 1 .15.15v9.375c0 .704-.571 1.275-1.275 1.275h-5.25c-.705 0-1.275-.57-1.275-1.275zm.3.15v9.225c0 .538.436.975.975.975h5.25a.975.975 0 0 0 .975-.975V9.15z" clip-rule="evenodd"/></svg>