<svg xmlns="http://www.w3.org/2000/svg" width="24" height="24" fill="none"><path fill="#04071E" d="M2.4 4.8a2.4 2.4 0 0 1 2.4-2.4H6a2.4 2.4 0 0 1 2.4 2.4v4.5H6.9a2.1 2.1 0 0 0 0 4.2h1.5V18A2.4 2.4 0 0 1 6 20.4H4.8A2.4 2.4 0 0 1 2.4 18zM18 2.4a2.4 2.4 0 0 0-2.4 2.4V18a2.4 2.4 0 0 0 2.4 2.4h1.2a2.4 2.4 0 0 0 2.4-2.4V4.8a2.4 2.4 0 0 0-2.4-2.4zm-7.236 5.964a.9.9 0 0 1 1.273 0l2.4 2.4a.9.9 0 0 1 0 1.272l-2.4 2.4a.9.9 0 1 1-1.273-1.272l.864-.864H6.6a.9.9 0 0 1 0-1.8h5.028l-.864-.864a.9.9 0 0 1 0-1.272"/></svg>