<svg xmlns="http://www.w3.org/2000/svg" width="24" height="24" fill="none"><path fill="#04071E" d="M12.707 2.707a1 1 0 0 0-1.414 0l-2.97 2.97a1 1 0 0 0 0 1.414l2.97 2.97a1 1 0 0 0 1.414 0l2.97-2.97a1 1 0 0 0 0-1.414zM12.707 13.937a1 1 0 0 0-1.414 0l-2.97 2.97a1 1 0 0 0 0 1.414l2.97 2.97a1 1 0 0 0 1.414 0l2.97-2.97a1 1 0 0 0 0-1.414zM16.913 8.307a1 1 0 0 1 1.414 0l2.97 2.97a1 1 0 0 1 0 1.414l-2.97 2.97a1 1 0 0 1-1.414 0l-2.97-2.97a1 1 0 0 1 0-1.414zM7.091 8.307a1 1 0 0 0-1.414 0l-2.97 2.97a1 1 0 0 0 0 1.414l2.97 2.97a1 1 0 0 0 1.414 0l2.97-2.97a1 1 0 0 0 0-1.414z"/></svg>