<svg xmlns="http://www.w3.org/2000/svg" width="24" height="24" fill="none"><path fill="#04071E" d="M2.4 6.6a1.8 1.8 0 0 1 1.8-1.8h15.6a1.8 1.8 0 0 1 1.8 1.8v7.004a4.2 4.2 0 0 0-1.8-.404H15a4.2 4.2 0 0 0-3.795 6H4.2a1.8 1.8 0 0 1-1.8-1.8zM6 10.2a1.8 1.8 0 1 0 3.6 0 1.8 1.8 0 0 0-3.6 0m4.8 3.839c0-.63-.51-1.139-1.138-1.139H5.939c-.629 0-1.139.51-1.139 1.139 0 1.016.692 1.902 1.679 2.149l.07.018c.822.205 1.681.205 2.502 0l.071-.018a2.216 2.216 0 0 0 1.678-2.15m3-4.439a.6.6 0 1 0 0 1.2h3.6a.6.6 0 1 0 0-1.2zm1.2 4.8a3 3 0 1 0 0 6h.6a.6.6 0 1 0 0-1.2H15a1.8 1.8 0 0 1 0-3.6h.6a.6.6 0 1 0 0-1.2zm4.2 0a.6.6 0 1 0 0 1.2h.6a1.8 1.8 0 0 1 0 3.6h-.6a.6.6 0 1 0 0 1.2h.6a3 3 0 0 0 0-6zM15 16.8a.6.6 0 1 0 0 1.2h4.8a.6.6 0 1 0 0-1.2z"/></svg>