<svg xmlns="http://www.w3.org/2000/svg" width="24" height="24" fill="none"><path fill="#04071E" d="M1.203 6.594a5.397 5.397 0 0 1 5.4-5.394c2.982 0 5.4 2.415 5.4 5.394a5.397 5.397 0 0 1-5.4 5.394 5.397 5.397 0 0 1-5.4-5.394M8.88 7.67 7.803 8.743v-1.85a3.3 3.3 0 0 0-3.3-3.296h-.3a.6.6 0 1 0 0 1.2h.3c1.16 0 2.1.938 2.1 2.097v1.85L5.527 7.668a.6.6 0 0 0-.848.847l2.102 2.1a.597.597 0 0 0 .846-.002l2.1-2.098a.599.599 0 1 0-.848-.847m4.32-1.075c0 .944-.198 1.842-.556 2.654l4.513-2.004a.6.6 0 0 1 .487 1.096L12.6 10.579v5.604a.6.6 0 0 1-1.2 0v-5.064a6.59 6.59 0 0 1-4.8 2.068 6.58 6.58 0 0 1-4.2-1.507v4.89c0 .735.449 1.396 1.132 1.67L10.44 21c1.001.4 2.118.4 3.12 0l6.908-2.76a1.8 1.8 0 0 0 1.132-1.67V7.405c0-.735-.449-1.396-1.132-1.67l-6.908-2.76a4.2 4.2 0 0 0-1.652-.299A6.56 6.56 0 0 1 13.2 6.594"/></svg>