<svg xmlns="http://www.w3.org/2000/svg" width="24" height="24" fill="none"><path fill="#04071E" d="M10.44 2.978a4.2 4.2 0 0 1 3.12 0l6.909 2.764a1.8 1.8 0 0 1 1.131 1.67v4.897a6.57 6.57 0 0 0-4.2-1.509 6.58 6.58 0 0 0-4.8 2.07v-2.28l5.044-2.241a.6.6 0 0 0-.487-1.097L12 9.544 6.844 7.252a.6.6 0 1 0-.487 1.097L11.4 10.59v4.057c-.385.838-.6 1.77-.6 2.753a6.57 6.57 0 0 0 1.292 3.922 4.2 4.2 0 0 1-1.652-.3L3.532 18.26A1.8 1.8 0 0 1 2.4 16.588V7.413a1.8 1.8 0 0 1 1.132-1.671zM20.4 21.89a5.4 5.4 0 1 1-6-8.98 5.4 5.4 0 0 1 6 8.98m-2.575-7.314A.6.6 0 0 0 16.8 15v1.8H15a.6.6 0 1 0 0 1.2h1.8v1.8a.6.6 0 0 0 1.2 0V18h1.8a.6.6 0 0 0 0-1.2H18V15a.6.6 0 0 0-.175-.424"/></svg>