<svg xmlns="http://www.w3.org/2000/svg" width="24" height="24" fill="none"><g clip-path="url(#a)"><path fill="#04071E" d="M10.44 2.978a4.2 4.2 0 0 1 3.12 0L20.47 5.74A1.8 1.8 0 0 1 21.6 7.412v7.03a4 4 0 0 0-.6-.042h-4.8a4.2 4.2 0 0 0-3.281 6.821 4.2 4.2 0 0 1-2.478-.199L3.53 18.26a1.8 1.8 0 0 1-1.13-1.672V7.412a1.8 1.8 0 0 1 1.13-1.67zM6.845 7.252a.6.6 0 0 0-.487 1.096L11.4 10.59v5.61a.6.6 0 1 0 1.2 0v-5.61l5.044-2.242a.6.6 0 0 0-.487-1.096L12 9.543zM16.2 15.6a3 3 0 0 0 0 6h.6a.6.6 0 1 0 0-1.2h-.6a1.8 1.8 0 0 1 0-3.6h.6a.6.6 0 1 0 0-1.2zm4.2 0a.6.6 0 1 0 0 1.2h.6a1.8 1.8 0 0 1 0 3.6h-.6a.6.6 0 1 0 0 1.2h.6a3 3 0 0 0 0-6zm-4.8 3a.6.6 0 0 1 .6-.6H21a.6.6 0 1 1 0 1.2h-4.8a.6.6 0 0 1-.6-.6"/></g><defs><clipPath id="a"><path fill="#fff" d="M0 0h24v24H0z"/></clipPath></defs></svg>