<svg xmlns="http://www.w3.org/2000/svg" width="24" height="24" fill="none"><path fill="#04071E" d="M12 9.6c3.976 0 7.2-1.612 7.2-3.6S15.977 2.4 12 2.4C8.024 2.4 4.8 4.012 4.8 6S8.024 9.6 12 9.6m5.628.019A6.6 6.6 0 0 0 19.2 8.544V10.8h-2.298a1.8 1.8 0 0 0-1.662 1.108l-2.5 6a1.8 1.8 0 0 0 1.662 2.492h.563l-.233.932c-.842.173-1.765.268-2.732.268-3.976 0-7.2-1.612-7.2-3.6V8.544c.46.435 1.009.793 1.572 1.075C7.875 10.37 9.866 10.8 12 10.8s4.126-.43 5.628-1.181M15.735 19.2a.6.6 0 0 1 .582.745l-.522 2.086c-.145.58.555.992.992.584l5.847-5.457c.597-.557.203-1.558-.614-1.558h-.485a.6.6 0 0 1-.569-.79l.674-2.02a.6.6 0 0 0-.57-.79h-4.167a.6.6 0 0 0-.554.37l-2.5 6a.6.6 0 0 0 .554.83z"/></svg>