<svg xmlns="http://www.w3.org/2000/svg" width="24" height="24" fill="none"><path fill="#04071E" d="M12 9.6c3.976 0 7.2-1.612 7.2-3.6S15.977 2.4 12 2.4C8.024 2.4 4.8 4.012 4.8 6S8.024 9.6 12 9.6m5.628.019A6.6 6.6 0 0 0 19.2 8.544v3.587a3.56 3.56 0 0 0-2.248 1.039l-.72.72a2.38 2.38 0 0 0-.691 1.82 2.376 2.376 0 0 0-1.822.691l-.72.72a3.58 3.58 0 0 0-.927 3.472l-.912.917-.06.062C7.55 21.351 4.8 19.836 4.8 18V8.544c.46.435 1.009.793 1.572 1.075C7.875 10.37 9.866 10.8 12 10.8s4.126-.43 5.628-1.181m5.41 3.406a.6.6 0 0 0-.849-.85l-1.423 1.423a1 1 0 0 0-.042.064 2.4 2.4 0 0 0-2.923.36l-.72.72a1.177 1.177 0 0 0 0 1.663l1.73 1.727a1.177 1.177 0 0 0 1.665 0l.72-.72a2.4 2.4 0 0 0 .36-2.924 1 1 0 0 0 .063-.042zm-6.806 4.225a1.176 1.176 0 0 0-1.663 0l-.72.72a2.4 2.4 0 0 0-.36 2.924 1 1 0 0 0-.064.042l-1.418 1.422a.6.6 0 0 0 .848.849l1.422-1.423a1 1 0 0 0 .043-.064 2.4 2.4 0 0 0 2.924-.36l.72-.72a1.177 1.177 0 0 0 0-1.664z"/></svg>