<svg xmlns="http://www.w3.org/2000/svg" width="24" height="24" fill="none"><g clip-path="url(#a)"><path fill="#04071E" d="M19.2 6c0 1.988-3.223 3.6-7.2 3.6-3.976 0-7.2-1.612-7.2-3.6S8.024 2.4 12 2.4s7.2 1.612 7.2 3.6m-1.572 3.619q.188-.094.372-.199v.255a2.36 2.36 0 0 0-1.545 1.253l-4.194 8.397a2.38 2.38 0 0 0 .067 2.271q-.163.004-.328.004c-3.976 0-7.2-1.612-7.2-3.6V8.544c.46.435 1.009.793 1.572 1.075C7.875 10.37 9.866 10.8 12 10.8s4.126-.43 5.628-1.181m-.104 1.845-4.196 8.398a1.2 1.2 0 0 0 1.075 1.738h8.394a1.2 1.2 0 0 0 1.075-1.738l-4.2-8.398a1.201 1.201 0 0 0-2.148 0m1.674 2.33v3.603a.6.6 0 0 1-1.201 0v-3.603a.6.6 0 0 1 1.201 0m-.6 6.605a.6.6 0 1 1 0-1.2.6.6 0 0 1 0 1.2"/></g><defs><clipPath id="a"><path fill="#fff" d="M0 0h24v24H0z"/></clipPath></defs></svg>