<svg xmlns="http://www.w3.org/2000/svg" width="24" height="24" fill="none"><path fill="#04071E" d="M12 9.6c3.976 0 7.2-1.612 7.2-3.6S15.977 2.4 12 2.4C8.024 2.4 4.8 4.012 4.8 6S8.024 9.6 12 9.6m5.628.019A6.6 6.6 0 0 0 19.2 8.544V10.8h-5.4a3 3 0 0 0-3 3V21q0 .285.051.554C7.421 21.28 4.8 19.793 4.8 18V8.544c.46.435 1.009.793 1.572 1.075C7.875 10.37 9.866 10.8 12 10.8s4.126-.43 5.628-1.181M12 13.8a1.8 1.8 0 0 1 1.8-1.8H21a1.8 1.8 0 0 1 1.8 1.8v.6H12zm0 1.8h10.8V21a1.8 1.8 0 0 1-1.8 1.8h-7.2A1.8 1.8 0 0 1 12 21z"/></svg>