<svg xmlns="http://www.w3.org/2000/svg" width="24" height="24" fill="none"><path fill="#04071E" d="M2.4 7.2A3.6 3.6 0 0 1 6 3.6h9.6a3.6 3.6 0 0 1 3.6 3.6v3.85a6.6 6.6 0 0 0-3.6 0V7.8a.6.6 0 1 0-1.2 0v3.721a6.6 6.6 0 0 0-3 3.13V12.6a.6.6 0 1 0-1.2 0v3.6a.6.6 0 0 0 .627.6 6.6 6.6 0 0 0 .694 3.6H6a3.6 3.6 0 0 1-3.6-3.6zm4.2 2.4a.6.6 0 0 0-.6.6v6a.6.6 0 0 0 1.2 0v-6a.6.6 0 0 0-.6-.6m7.879 4.13a2.4 2.4 0 0 1-1.717 2.974l-.553.141a5.6 5.6 0 0 0 .012 1.22l.42.1a2.4 2.4 0 0 1 1.747 3.022l-.152.507q.464.367 1.002.622l.39-.413a2.4 2.4 0 0 1 3.491.002l.405.43q.527-.246.986-.598l-.187-.668a2.4 2.4 0 0 1 1.717-2.973l.552-.142a5.6 5.6 0 0 0-.012-1.22l-.419-.099a2.4 2.4 0 0 1-1.747-3.022l.151-.507a5.2 5.2 0 0 0-1.001-.622l-.39.413a2.4 2.4 0 0 1-3.491-.002l-.405-.43q-.528.245-.987.597zM17.4 18.6a1.2 1.2 0 1 1 0-2.4 1.2 1.2 0 0 1 0 2.4"/></svg>