<svg xmlns="http://www.w3.org/2000/svg" width="24" height="24" fill="none"><path fill="#04071E" d="M14.225 22.625a.6.6 0 0 1-.85 0l-2.4-2.4a.6.6 0 0 1 0-.85l2.4-2.4a.6.6 0 1 1 .85.85L12.848 19.2h6.704l-1.377-1.375a.6.6 0 1 1 .85-.85l2.4 2.4a.6.6 0 0 1 0 .85l-2.4 2.4a.6.6 0 1 1-.85-.85l1.377-1.375h-6.704l1.377 1.375a.6.6 0 0 1 0 .85M12 9.6c3.976 0 7.2-1.612 7.2-3.6S15.977 2.4 12 2.4C8.024 2.4 4.8 4.012 4.8 6S8.024 9.6 12 9.6m-1.873 11.473a1.8 1.8 0 0 1 0-2.546l2.4-2.4A1.8 1.8 0 0 1 13.8 15.6a1.79 1.79 0 0 1 1.756 1.402c.075.332.054.678-.06.998h1.407a1.8 1.8 0 0 1 1.697-2.4c.205.002.408.039.6.11V8.543q-.349.33-.748.6-.397.266-.824.48a10 10 0 0 1-1.213.502A14 14 0 0 1 12 10.8a14 14 0 0 1-4.415-.68 10 10 0 0 1-1.213-.5 8 8 0 0 1-.824-.48 6 6 0 0 1-.748-.596V18c0 1.744 2.484 3.19 5.776 3.52z"/></svg>