<svg xmlns="http://www.w3.org/2000/svg" width="24" height="24" fill="none"><path fill="#04071E" d="M21.6 4.8c0 1.988-3.224 3.6-7.2 3.6S7.2 6.788 7.2 4.8s3.224-3.6 7.2-3.6 7.2 1.612 7.2 3.6m0 2.544a6.6 6.6 0 0 1-1.572 1.075C18.526 9.17 16.534 9.6 14.4 9.6c-.747 0-1.476-.053-2.174-.153 1.123.633 2.07 1.61 2.166 2.93l.01-.01v2.697l-.002 4.735q0 .314-.061.6l.061.001c3.976 0 7.2-1.612 7.2-3.6zM8.772 8.42l.06.03A11 11 0 0 0 7.2 8.416V7.344c.46.435 1.009.793 1.572 1.075m2.028 1.686a8 8 0 0 0-1.345-.361A9.4 9.4 0 0 0 7.8 9.6c-2.982 0-5.4 1.343-5.4 3s2.418 3 5.4 3 5.4-1.343 5.4-3c0-1.04-.953-1.957-2.4-2.495M12.2 15.77c-1.187.66-2.745 1.03-4.401 1.03s-3.214-.37-4.401-1.03a5.5 5.5 0 0 1-.999-.705v4.734c0 1.657 2.418 3 5.4 3s5.4-1.343 5.4-3c0-1.085 0-3.321.002-4.736a5.5 5.5 0 0 1-1 .707"/></svg>