<svg xmlns="http://www.w3.org/2000/svg" width="24" height="24" fill="none"><path fill="#04071E" d="M12 9.6c3.976 0 7.2-1.612 7.2-3.6S15.977 2.4 12 2.4C8.024 2.4 4.8 4.012 4.8 6S8.024 9.6 12 9.6m5.628.019A6.6 6.6 0 0 0 19.2 8.544v2.505a6.6 6.6 0 0 0-6.894 10.548L12 21.6c-3.976 0-7.2-1.612-7.2-3.6V8.544c.46.435 1.009.793 1.572 1.075C7.875 10.37 9.866 10.8 12 10.8s4.126-.43 5.628-1.181M12 17.4a5.4 5.4 0 1 1 10.8 0 5.4 5.4 0 0 1-10.8 0m5.825-2.824-.003-.003a.6.6 0 0 0-.418-.173h-.007a.6.6 0 0 0-.421.176l-2.4 2.4a.6.6 0 0 0 .848.848L16.8 16.45V19.8a.6.6 0 0 0 1.2 0v-3.351l1.376 1.375a.6.6 0 0 0 .848-.848z"/></svg>