<svg xmlns="http://www.w3.org/2000/svg" width="24" height="24" fill="none"><path fill="#04071E" d="M13.8 4.8a1.8 1.8 0 0 0-3.6 0zM9 4.8a3 3 0 1 1 6 0h6A.6.6 0 1 1 21 6h-1.265l-.581 5.036A6.6 6.6 0 0 0 12.309 21.6H9.274a3.6 3.6 0 0 1-3.577-3.188L4.265 6H3a.6.6 0 0 1 0-1.2zm8.4 18a5.4 5.4 0 1 0 0-10.8 5.4 5.4 0 0 0 0 10.8m-1.076-7.676L15.248 16.2H17.1a3.3 3.3 0 0 1 3.3 3.3v.3a.6.6 0 1 1-1.2 0v-.3a2.1 2.1 0 0 0-2.1-2.1h-1.852l1.076 1.076a.6.6 0 0 1-.848.848l-2.103-2.102a.6.6 0 0 1 .003-.846l2.1-2.1a.6.6 0 0 1 .848.848"/></svg>