<svg xmlns="http://www.w3.org/2000/svg" width="24" height="24" fill="none"><path fill="#04071E" d="M9.6 3a.6.6 0 0 0-1.2 0v1.8h-.6a3 3 0 0 0-3 3v.6H3a.6.6 0 0 0 0 1.2h1.8v1.8H3a.6.6 0 0 0 0 1.2h1.8v1.8H3a.6.6 0 0 0 0 1.2h1.8v.6a3 3 0 0 0 3 3h.6V21a.6.6 0 1 0 1.2 0v-1.8h1.2v-3q0-.416.108-.8a.49.49 0 0 1-.08-.45l.519-1.75H9.479a.48.48 0 0 1-.368-.788l3.201-3.826c.35-.417 1.02-.062.871.462l-.5 1.752h1.836c.201 0 .357.116.432.271A3 3 0 0 1 16.2 10.8h2.4q.308 0 .6.06V9.6H21a.6.6 0 1 0 0-1.2h-1.8v-.6a3 3 0 0 0-3-3h-.6V3a.6.6 0 1 0-1.2 0v1.8h-1.8V3a.6.6 0 1 0-1.2 0v1.8H9.6zm4.8 11.4v-.6a1.8 1.8 0 0 1 1.8-1.8h2.4a1.8 1.8 0 0 1 1.8 1.8v.6h.6a1.8 1.8 0 0 1 1.8 1.8V18h-2.4v-.6a.6.6 0 0 0-1.2 0v.6h-3.6v-.6a.6.6 0 0 0-1.2 0v.6H12v-1.8a1.8 1.8 0 0 1 1.8-1.8zm1.2-.6v.6h3.6v-.6a.6.6 0 0 0-.6-.6h-2.4a.6.6 0 0 0-.6.6m4.8 6v-.6h2.4V21a1.8 1.8 0 0 1-1.8 1.8h-7.2A1.8 1.8 0 0 1 12 21v-1.8h2.4v.6a.6.6 0 1 0 1.2 0v-.6h3.6v.6a.6.6 0 1 0 1.2 0"/></svg>