<svg xmlns="http://www.w3.org/2000/svg" width="24" height="24" fill="none"><path fill="#04071E" d="M9.6 3a.6.6 0 0 0-1.2 0v1.8h-.6a3 3 0 0 0-3 3v.6H3a.6.6 0 0 0 0 1.2h1.8v1.8H3a.6.6 0 0 0 0 1.2h1.8v1.8H3a.6.6 0 0 0 0 1.2h1.8v.6a3 3 0 0 0 3 3h.6V21a.6.6 0 1 0 1.2 0v-1.8h1.8V21a.6.6 0 1 0 1.2 0v-1.8h1.8V21a.6.6 0 1 0 1.2 0v-1.8h.6a3 3 0 0 0 3-3v-.6H21a.6.6 0 1 0 0-1.2h-1.8v-1.8H21a.6.6 0 1 0 0-1.2h-1.8V9.6H21a.6.6 0 1 0 0-1.2h-1.8v-.6a3 3 0 0 0-3-3h-.6V3a.6.6 0 1 0-1.2 0v1.8h-1.8V3a.6.6 0 1 0-1.2 0v1.8H9.6zm3.583 6.048-.5 1.752h1.835a.48.48 0 0 1 .37.787l-3.191 3.828c-.35.421-1.026.06-.87-.466l.52-1.749H9.478a.48.48 0 0 1-.368-.788l3.202-3.826c.349-.417 1.02-.062.87.462"/></svg>