<svg xmlns="http://www.w3.org/2000/svg" width="24" height="24" fill="none"><path fill="#04071E" d="M14.25 7.5h4.875L13.5 1.875V6.75c0 .414.336.75.75.75m0 1.5A2.25 2.25 0 0 1 12 6.75V1.5H6.75A2.25 2.25 0 0 0 4.5 3.75v7.166l.012-.006.015-.007c.072-.468.29-.9.628-1.24a2.23 2.23 0 0 1 1.595-.662c.598 0 1.164.233 1.588.658.344.341.563.775.635 1.246a6.8 6.8 0 0 1 2.534 1.592 6.8 6.8 0 0 1 1.59 2.531c.468.072.9.29 1.242.63.425.425.661.99.661 1.594a2.24 2.24 0 0 1-.655 1.588 2.23 2.23 0 0 1-1.248.636 6.75 6.75 0 0 1-1.592 2.532c-.129.129-.275.236-.422.344q-.101.074-.199.15h6.365a2.25 2.25 0 0 0 2.25-2.25V9zm-6.44 7.19a1.49 1.49 0 0 0-1.634-.326 1.5 1.5 0 0 0-.926 1.386c0 .398.159.779.44 1.06a1.496 1.496 0 0 0 1.894.188 1.51 1.51 0 0 0 .638-1.54 1.5 1.5 0 0 0-.411-.768m4.94.31a.749.749 0 0 1 .531 1.281.75.75 0 0 1-.531.219h-.826A5.23 5.23 0 0 1 7.5 22.424v.826a.749.749 0 0 1-1.281.531A.75.75 0 0 1 6 23.25v-.826A5.23 5.23 0 0 1 1.577 18H.75a.749.749 0 0 1-.531-1.281.75.75 0 0 1 .531-.219h.827A5.23 5.23 0 0 1 6 12.076v-.826a.749.749 0 0 1 1.281-.531.75.75 0 0 1 .219.531v.826a5.23 5.23 0 0 1 4.424 4.424zm-3.348 3.402c.348-.348.624-.762.813-1.216a3.76 3.76 0 0 0-.569-3.815 3.745 3.745 0 0 0-4.666-.927 3.75 3.75 0 0 0-1.82 4.395 3.75 3.75 0 0 0 3.957 2.643 3.75 3.75 0 0 0 2.285-1.08"/></svg>