<svg xmlns="http://www.w3.org/2000/svg" width="24" height="24" fill="none"><path fill="#04071E" d="M12 2.4v5.4a1.8 1.8 0 0 0 1.8 1.8h5.4v3.625a1.8 1.8 0 0 0-1.35 1.056 1.8 1.8 0 0 0-3.349.125l-.4 1.145-.402-1.146a1.8 1.8 0 0 0-3.349-.124 1.8 1.8 0 0 0-3.349.124l-1 2.86V15a1.8 1.8 0 0 0-1.2-1.697V4.2a1.8 1.8 0 0 1 1.8-1.8zm1.2.3v5.1a.6.6 0 0 0 .6.6h5.1zm.9 18.9a.6.6 0 0 0 .566-.402l2.1-6a.6.6 0 1 0-1.132-.396L14.1 19.184l-1.533-4.382a.6.6 0 1 0-1.133.396l2.1 6a.6.6 0 0 0 .566.402m5.967-6.798a.6.6 0 0 0-1.133 0l-2.1 6a.6.6 0 1 0 1.133.396l.279-.798h2.509l.279.798a.6.6 0 1 0 1.133-.396zm.267 4.398h-1.668l.834-2.384zM4.2 14.4a.6.6 0 0 1 .6.6v4.8a1.8 1.8 0 1 1-3.6 0v-.6a.6.6 0 0 1 1.2 0v.6a.6.6 0 1 0 1.2 0V15a.6.6 0 0 1 .6-.6m4.5 0a.6.6 0 0 1 .567.402l2.1 6a.6.6 0 1 1-1.133.397l-.28-.799H7.446l-.28.799a.6.6 0 0 1-1.132-.397l2.1-6A.6.6 0 0 1 8.7 14.4m0 2.417L7.866 19.2h1.668z"/></svg>