<svg xmlns="http://www.w3.org/2000/svg" width="24" height="24" fill="none"><path fill="#04071E" d="M12 6.75V1.5H6.75A2.25 2.25 0 0 0 4.5 3.75v9.825a3.75 3.75 0 0 1 2.306 1.502 2.3 2.3 0 0 0 .653-.591c.883-1.168 2.21-1.006 2.675-.88.332.09.734.268 1.093.605.376.351.773.955.773 1.77v5.769q-.002.396-.128.75h5.378a2.25 2.25 0 0 0 2.25-2.25V9h-5.25A2.25 2.25 0 0 1 12 6.75m1.5 0V1.875L19.125 7.5H14.25a.75.75 0 0 1-.75-.75m-12 10.5a2.25 2.25 0 0 1 4.5 0v3a2.25 2.25 0 0 1-4.5 0zm2.25-.75a.75.75 0 0 0-.75.75v3a.75.75 0 0 0 1.5 0v-3a.75.75 0 0 0-.75-.75m6.75-.518a.92.92 0 0 0-.298-.676 1.1 1.1 0 0 0-.46-.252c-.228-.062-.753-.106-1.087.337a3.8 3.8 0 0 1-1.466 1.176.75.75 0 1 0 .622 1.366A5.3 5.3 0 0 0 9 17.187v4.563a.75.75 0 0 0 1.5 0z"/></svg>