<svg xmlns="http://www.w3.org/2000/svg" width="24" height="24" fill="none"><path fill="#04071E" d="M7.5 1.5a3 3 0 0 0-3 3v15a3 3 0 0 0 3 3h4.9a2.97 2.97 0 0 1-.065-2.88l.845-1.632H9.75a.75.75 0 0 1-.135-1.488l.135-.012h4.207l.872-1.683c.11-.213.168-.45.168-.69V12.07a.75.75 0 0 1-.612.667l-.135.012h-4.5a.75.75 0 0 1-.135-1.488l.135-.012h4.323A2.25 2.25 0 0 1 15.75 7.5h3.75v-3a3 3 0 0 0-3-3zm7.497 10.37v.059l-.009-.061zm-.612-4.382-.135.012h-4.5a.75.75 0 0 1-.135-1.488L9.75 6h4.5a.75.75 0 0 1 .135 1.488m6.608 6.619a3 3 0 0 0 .336 1.38l.525 1.013H15.64l.52-1.005a3 3 0 0 0 .337-1.38V10.5h-.747a.75.75 0 0 1 0-1.5h6a.75.75 0 0 1 0 1.5h-.757zM14.863 18l-1.196 2.31A1.5 1.5 0 0 0 15 22.5h7.496a1.5 1.5 0 0 0 1.332-2.19L22.631 18z"/></svg>