<svg xmlns="http://www.w3.org/2000/svg" width="24" height="24" fill="none"><path fill="#04071E" d="M12 7.8V2.4H6.6a1.8 1.8 0 0 0-1.8 1.8v10.254l.303-.453a1.8 1.8 0 0 1 2.698-.344 1.8 1.8 0 0 1 2.81.537l1.39 2.78 1.39-2.78a1.8 1.8 0 0 1 2.81-.537 1.8 1.8 0 0 1 3 1.304V9.6h-5.4A1.8 1.8 0 0 1 12 7.8m1.2 0V2.7l5.7 5.7h-5.1a.6.6 0 0 1-.6-.6m-9 13.8a.6.6 0 0 0 .6-.6v-2.218l2.3-3.45a.6.6 0 0 0-.999-.665l-1.9 2.851L2.3 14.667a.6.6 0 0 0-.999.665l2.3 3.45V21a.6.6 0 0 0 .6.6m5.337-6.869A.6.6 0 0 0 8.4 15v6a.6.6 0 0 0 1.2 0V17.54l1.864 3.727a.6.6 0 0 0 1.073 0L14.4 17.54V21a.6.6 0 0 0 1.2 0v-6a.6.6 0 0 0-1.136-.269L12 19.658zM18 15a.6.6 0 1 0-1.2 0v6a.6.6 0 0 0 .6.6H21a.6.6 0 0 0 0-1.2h-3z"/></svg>