<svg xmlns="http://www.w3.org/2000/svg" width="24" height="24" fill="none"><path fill="#04071E" d="M14.25 7.5h4.875L13.5 1.875V6.75c0 .414.336.75.75.75m0 1.5A2.25 2.25 0 0 1 12 6.75V1.5H6.75A2.25 2.25 0 0 0 4.5 3.75v16.5a2.25 2.25 0 0 0 2.25 2.25h10.5a2.25 2.25 0 0 0 2.25-2.25V9zm-2.475 7.725c.075.06.135.15.165.24.045.09.06.18.06.285a.6.6 0 0 1-.06.285c-.03.09-.09.18-.165.24a.53.53 0 0 1-.24.165.6.6 0 0 1-.285.06.6.6 0 0 1-.285-.06.53.53 0 0 1-.24-.165l-.975-.96-.975.96a.53.53 0 0 1-.24.165.6.6 0 0 1-.285.06.6.6 0 0 1-.285-.06.53.53 0 0 1-.24-.165.53.53 0 0 1-.165-.24.6.6 0 0 1-.06-.285c0-.105.015-.195.06-.285.03-.09.09-.18.165-.24l.96-.975-.96-.975a.7.7 0 0 1-.225-.525c0-.195.075-.39.225-.525a.7.7 0 0 1 .525-.225c.195 0 .39.075.525.225l.975.96.975-.96a.7.7 0 0 1 .525-.225c.195 0 .39.075.525.225.15.135.225.33.225.525s-.075.39-.225.525l-.96.975zM18 18h-3.75a.7.7 0 0 1-.525-.225.7.7 0 0 1-.225-.525c0-.195.075-.39.225-.525a.7.7 0 0 1 .525-.225H18z"/></svg>