<svg xmlns="http://www.w3.org/2000/svg" width="24" height="24" fill="none"><path fill="#04071E" d="M12 2.4v5.4a1.8 1.8 0 0 0 1.8 1.8h5.4v10.2a1.8 1.8 0 0 1-1.8 1.8h-7.004A6.6 6.6 0 0 0 4.8 9.848V4.2a1.8 1.8 0 0 1 1.8-1.8zm1.2.3v5.1a.6.6 0 0 0 .6.6h5.1zm-9.522 9.83a2.4 2.4 0 0 1-1.717 2.974l-.553.141a5.7 5.7 0 0 0 .012 1.22l.42.1a2.4 2.4 0 0 1 1.747 3.022l-.152.507q.465.367 1.002.622l.39-.413a2.4 2.4 0 0 1 3.491.002l.405.43q.527-.246.986-.598l-.187-.668a2.4 2.4 0 0 1 1.717-2.974l.552-.14a5.6 5.6 0 0 0-.012-1.22l-.418-.1a2.4 2.4 0 0 1-1.748-3.023l.152-.506a5.2 5.2 0 0 0-1.002-.622l-.39.413a2.4 2.4 0 0 1-3.491-.002l-.405-.43q-.527.245-.986.597zM6.6 17.4a1.2 1.2 0 1 1 0-2.4 1.2 1.2 0 0 1 0 2.4"/></svg>