<svg xmlns="http://www.w3.org/2000/svg" width="24" height="24" fill="none"><path fill="#04071E" d="M12 7.8V2.4H6.6a1.8 1.8 0 0 0-1.8 1.8v9.6A3 3 0 0 1 6 16.2q0 .134-.019.263l.72-2.058a1.8 1.8 0 0 1 3.398 0l.701 2.003V16.2a3 3 0 0 1 5.4-1.8 3 3 0 0 1 3-1.14V9.6h-5.4A1.8 1.8 0 0 1 12 7.8m1.2 0V2.7l5.7 5.7h-5.1a.6.6 0 0 1-.6-.6M3 15.6a.6.6 0 0 0-.6.6v.283c0 .335.19.64.488.79l.76.38A2.08 2.08 0 0 1 4.8 19.517v.283a1.8 1.8 0 0 1-3.6 0 .6.6 0 0 1 1.2 0 .6.6 0 1 0 1.2 0v-.283a.88.88 0 0 0-.488-.79l-.76-.38A2.08 2.08 0 0 1 1.2 16.483V16.2a1.8 1.8 0 0 1 3.6 0 .6.6 0 1 1-1.2 0 .6.6 0 0 0-.6-.6m5.967-.798a.6.6 0 0 0-1.133 0l-2.1 6a.6.6 0 1 0 1.133.396l.279-.798h2.509l.279.798a.6.6 0 1 0 1.133-.396zm.268 4.398h-1.67l.835-2.384zm3.965-3a.6.6 0 0 1 1.2 0 .6.6 0 1 0 1.2 0 1.8 1.8 0 0 0-3.6 0v.283c0 .79.446 1.51 1.152 1.864l.76.38c.3.15.488.455.488.79v.283a.6.6 0 1 1-1.2 0 .6.6 0 0 0-1.2 0 1.8 1.8 0 0 0 3.6 0v-.283c0-.79-.446-1.51-1.151-1.864l-.76-.38a.88.88 0 0 1-.489-.79zm5.4-.6a.6.6 0 0 0-.6.6v.283c0 .335.19.64.488.79l.76.38a2.08 2.08 0 0 1 1.152 1.864v.283a1.8 1.8 0 0 1-3.6 0 .6.6 0 0 1 1.2 0 .6.6 0 1 0 1.2 0v-.283a.88.88 0 0 0-.488-.79l-.76-.38a2.08 2.08 0 0 1-1.152-1.864V16.2a1.8 1.8 0 0 1 3.6 0 .6.6 0 1 1-1.2 0 .6.6 0 0 0-.6-.6"/></svg>