<svg xmlns="http://www.w3.org/2000/svg" width="24" height="24" fill="none"><path fill="#04071E" d="M15.75 7.5h4.875L15 1.875V6.75c0 .414.336.75.75.75m0 1.5a2.25 2.25 0 0 1-2.25-2.25V1.5H8.25A2.25 2.25 0 0 0 6 3.75v10.518l.057.043c.12.09.238.18.345.287.237.237.425.513.59.801.189-.129.388-.238.606-.303.106-.35.297-.67.562-.937.425-.425.99-.659 1.592-.659.559 0 1.087.203 1.5.573.412-.37.94-.573 1.5-.573a2.246 2.246 0 0 1 2.154 1.596c.349.105.67.296.937.563.424.424.659.99.659 1.591 0 .56-.203 1.087-.573 1.5.37.413.572.94.572 1.5 0 .6-.234 1.166-.658 1.592a2.2 2.2 0 0 1-.937.562.3.3 0 0 1-.024.053l-.02.043h3.89a2.25 2.25 0 0 0 2.25-2.25V9zm-12 13.5a2.251 2.251 0 0 1-2.25-2.25v-3a2.251 2.251 0 0 1 4.5 0 .749.749 0 0 1-1.281.531.75.75 0 0 1-.219-.531.749.749 0 0 0-1.281-.531.75.75 0 0 0-.219.531v3a.749.749 0 0 0 1.281.531.75.75 0 0 0 .219-.531.749.749 0 0 1 1.281-.531.75.75 0 0 1 .219.531 2.251 2.251 0 0 1-2.25 2.25m9.75-3h.75a.749.749 0 1 1 0 1.5h-.75v.75a.749.749 0 1 1-1.5 0V21h-1.469v.75a.749.749 0 1 1-1.5 0V21H8.25a.749.749 0 1 1 0-1.5h.773l-.01-1.5H8.25a.749.749 0 1 1 0-1.5H9v-.75a.749.749 0 1 1 1.5 0v.75H12v-.75a.749.749 0 1 1 1.5 0v.75h.75a.749.749 0 1 1 0 1.5h-.75zm-2.977 0H12V18h-1.486z"/></svg>