<svg xmlns="http://www.w3.org/2000/svg" width="24" height="24" fill="none"><path fill="#04071E" d="M15 6.75V1.875L20.625 7.5H15.75c-.42 0-.75-.33-.75-.75m-1.5 0A2.247 2.247 0 0 0 15.75 9H21v11.25a2.247 2.247 0 0 1-2.25 2.25h-5.625c.21-.285.39-.6.525-.945.255-.72.3-1.5.105-2.25a3.6 3.6 0 0 0-.42-.99c.09-.255.135-.54.15-.825a3.8 3.8 0 0 0-.405-1.98 3.8 3.8 0 0 0-1.38-1.47 3.7 3.7 0 0 0-1.95-.54h-1.5c-.405 0-.795.105-1.125.3a2.4 2.4 0 0 0-.345-.165A2.3 2.3 0 0 0 6 13.5V3.75A2.247 2.247 0 0 1 8.25 1.5h5.25zm-1.506 10.648a2.24 2.24 0 0 1-.403 1.143l.001.002c.35.298.597.697.713 1.143.114.445.09.915-.07 1.345s-.448.803-.824 1.065a2.25 2.25 0 0 1-1.286.404H8.25a.75.75 0 0 1-.75-.75v-6a.75.75 0 0 1 .75-.75h1.5a2.24 2.24 0 0 1 1.995 1.212c.19.364.276.775.25 1.186m-2.244-.901H9v1.5h.75a.749.749 0 1 0 0-1.5m-.75 4.5h1.125a.749.749 0 1 0 0-1.5H9zM4.452 22.01l2.25-6v.001a.751.751 0 0 0-1.405-.528l-1.548 4.128L2.2 15.484a.75.75 0 0 0-.966-.438.75.75 0 0 0-.437.966l2.25 5.999a.751.751 0 0 0 1.404 0"/></svg>