<svg xmlns="http://www.w3.org/2000/svg" width="24" height="24" fill="none"><path fill="#04071E" d="M12 2.4v5.4a1.8 1.8 0 0 0 1.8 1.8h5.4v1.2h-.031a5.1 5.1 0 0 0-1.799.37c-.576.233-1.09.57-1.533 1.005a4.9 4.9 0 0 0-1.038 1.483 4.5 4.5 0 0 0-.4 1.867q.001.253.026.509l-3.096 3.096c-.335.335-.53.778-.53 1.27v1.2H6.6a1.8 1.8 0 0 1-1.8-1.8V4.2a1.8 1.8 0 0 1 1.8-1.8zm1.2.3v5.1a.6.6 0 0 0 .6.6h5.1zm-1.022 19.922q.179.178.422.178H15a.7.7 0 0 0 .328-.084.44.44 0 0 0 .178-.207q.057-.13.075-.28.02-.15.019-.31V21.6q.43-.01.675-.028.243-.02.365-.14a.55.55 0 0 0 .141-.357q.02-.234.019-.675h.6a.55.55 0 0 0 .319-.084.6.6 0 0 0 .187-.207.8.8 0 0 0 .084-.28q.02-.16.02-.329a4 4 0 0 1-.01-.272v-.234q.309.112.628.16.318.046.647.046.75-.01 1.378-.29.628-.281 1.116-.788t.759-1.153.272-1.369q0-.75-.281-1.406a3.6 3.6 0 0 0-.77-1.144 3.6 3.6 0 0 0-1.143-.769A3.5 3.5 0 0 0 19.2 12a3.9 3.9 0 0 0-1.378.281 3.5 3.5 0 0 0-1.144.75q-.497.487-.788 1.125a3.3 3.3 0 0 0-.29 1.369q0 .44.103.928l-3.525 3.525A.58.58 0 0 0 12 20.4v1.8q0 .244.178.422m8.56-8.56A.87.87 0 0 1 21 14.7q0 .375-.263.638a.87.87 0 0 1-.637.262.87.87 0 0 1-.638-.262.87.87 0 0 1-.262-.638q0-.375.262-.637a.87.87 0 0 1 .638-.263q.375 0 .637.262"/></svg>