<svg xmlns="http://www.w3.org/2000/svg" width="24" height="24" fill="none"><path fill="#04071E" d="M15.75 7.5h4.875L15 1.875V6.75c0 .414.336.75.75.75m0 1.5a2.25 2.25 0 0 1-2.25-2.25V1.5H8.25A2.25 2.25 0 0 0 6 3.75v9.887c.312.11.6.281.841.521.285.286.476.636.577 1.018q.038-.016.074-.035.05-.027.104-.045c.106-.35.297-.67.563-.937.424-.425.99-.659 1.591-.659.56 0 1.088.203 1.5.573.412-.37.94-.573 1.5-.573a2.246 2.246 0 0 1 2.154 1.596c.35.105.67.296.938.563.424.424.658.99.658 1.591 0 .56-.203 1.087-.573 1.5.37.413.573.94.573 1.5 0 .6-.234 1.166-.659 1.592a2.2 2.2 0 0 1-.937.562.3.3 0 0 1-.023.053q-.012.02-.02.043h3.889A2.25 2.25 0 0 0 21 20.25V9zm-1.5 10.5h-.75V18h.75a.749.749 0 0 0 .531-1.281.75.75 0 0 0-.531-.219h-.75v-.75a.749.749 0 0 0-1.281-.531.75.75 0 0 0-.219.531v.75h-1.5v-.75a.749.749 0 0 0-1.281-.531.75.75 0 0 0-.219.531v.75h-.75a.749.749 0 0 0-.531 1.281.75.75 0 0 0 .531.219h.764l.009 1.5H8.25a.749.749 0 0 0-.531 1.281.75.75 0 0 0 .531.219h.781v.75a.749.749 0 0 0 1.281.531.75.75 0 0 0 .22-.531V21H12v.75a.749.749 0 0 0 1.281.531.75.75 0 0 0 .219-.531V21h.75a.749.749 0 0 0 .531-1.281.75.75 0 0 0-.531-.219m-2.25 0h-1.477l-.01-1.5H12zm-6.219-3.219a.755.755 0 0 0 0-1.062A.76.76 0 0 0 5.25 15h-3a.75.75 0 0 0-.75.75v6a.749.749 0 1 0 1.5 0V19.5h1.5a.749.749 0 1 0 0-1.5H3v-1.5h2.25c.2 0 .39-.078.531-.219"/></svg>