<svg xmlns="http://www.w3.org/2000/svg" width="24" height="24" fill="none"><path fill="#04071E" d="M15 1.875V6.75c0 .42.33.75.75.75h4.875zM15.75 9a2.247 2.247 0 0 1-2.25-2.25V1.5H8.25A2.247 2.247 0 0 0 6 3.75v9.75c.6 0 1.155.24 1.59.66.6-.42 1.305-.66 2.04-.66h.225c.96 0 1.905.39 2.58 1.065a3.68 3.68 0 0 1 1.065 2.58 2.3 2.3 0 0 1-.48 1.41l.068.128q.034.06.067.127c.345.75.435 1.59.24 2.385a3.6 3.6 0 0 1-.6 1.305h5.955A2.247 2.247 0 0 0 21 20.25V9zM9.86 22.5h-.22a2.138 2.138 0 0 1-2.14-2.14.8.8 0 0 1 .75-.806.709.709 0 0 1 .69.419q.06.131.06.277a.673.673 0 0 0 .642.75h.219a.642.642 0 0 0 .288-1.212l-1.464-.738a2.145 2.145 0 0 1-1.116-2.402A2.144 2.144 0 0 1 9.642 15h.219a2.138 2.138 0 0 1 2.14 2.14.8.8 0 0 1-.75.806.709.709 0 0 1-.69-.419.7.7 0 0 1-.06-.277v-.11a.64.64 0 0 0-.64-.64h-.219a.642.642 0 0 0-.288 1.212l1.464.733a2.14 2.14 0 0 1 .37 3.593 2.15 2.15 0 0 1-1.328.462M6.53 16.281a.755.755 0 0 0 0-1.062A.76.76 0 0 0 6 15H1.5a.749.749 0 1 0 0 1.5H3v5.25a.749.749 0 1 0 1.5 0V16.5H6c.2 0 .39-.078.531-.219"/></svg>