<svg xmlns="http://www.w3.org/2000/svg" width="24" height="24" fill="none"><path fill="#04071E" d="M20.625 7.5H15.75a.75.75 0 0 1-.75-.75V1.875zM13.5 6.75A2.25 2.25 0 0 0 15.75 9H21v11.247a2.25 2.25 0 0 1-2.25 2.25h-5.634c.216-.288.398-.603.528-.95a3.75 3.75 0 0 0-.302-3.229 3.72 3.72 0 0 0-.265-2.802 3.8 3.8 0 0 0-1.38-1.473 3.76 3.76 0 0 0-1.945-.543h-1.5c-.602 0-1.168.236-1.586.654a2.3 2.3 0 0 0-.323.4 3 3 0 0 0-.282-.232L6 14.276V3.75A2.25 2.25 0 0 1 8.25 1.5h5.25zM11.994 17.4a2.24 2.24 0 0 1-.403 1.143l.001.002c.35.298.597.697.713 1.142.114.446.09.915-.07 1.346a2.254 2.254 0 0 1-2.11 1.468H8.25a.75.75 0 0 1-.75-.75v-6a.75.75 0 0 1 .75-.75h1.5a2.24 2.24 0 0 1 1.995 1.213c.19.364.276.775.249 1.186m-2.244-.901H9v1.5h.75a.749.749 0 1 0 0-1.5m-.75 4.5h1.125a.749.749 0 1 0 0-1.5H9zM5.283 18.88c.355.589.609 1.234.75 1.907l.03.115q.04.175.081.301a.75.75 0 0 1 .18.82.75.75 0 0 1-.696.474c-.713 0-.885-.687-1.05-1.347v-.003l-.004-.016c-.137-.538-.414-1.634-.824-1.634H3v2.25a.749.749 0 1 1-1.5 0v-6a.75.75 0 0 1 .75-.75h1.502a2.25 2.25 0 0 1 1.531 3.883M3.75 16.498H3v1.5h.75a.749.749 0 1 0 0-1.5"/></svg>