<svg xmlns="http://www.w3.org/2000/svg" width="24" height="24" fill="none"><path fill="#04071E" d="M15 6.75V1.875L20.625 7.5H15.75c-.42 0-.75-.33-.75-.75m-1.5 0A2.247 2.247 0 0 0 15.75 9H21v11.25a2.247 2.247 0 0 1-2.25 2.25h-6.885c.09-.24.135-.48.135-.75V19.5l1.8-2.4c.36-.465.51-1.08.42-1.665a2.19 2.19 0 0 0-.87-1.485A2.28 2.28 0 0 0 12 13.5h-.225l-.105.03c-.585.075-1.11.39-1.47.87l-.45.6-.45-.6c-.36-.48-.87-.78-1.485-.885l-.21-.015H7.5c-.495 0-.975.165-1.35.45-.06.045-.105.09-.15.135V3.75A2.247 2.247 0 0 1 8.25 1.5h5.25zM2.25 15h1.5a2.251 2.251 0 0 1 1.592 3.842 2.25 2.25 0 0 1-1.592.658H3v2.25a.749.749 0 1 1-1.5 0v-6a.75.75 0 0 1 .75-.75M3 18h.75a.749.749 0 1 0 0-1.5H3zm7.5.999 2.1-2.799a.747.747 0 0 0-.15-1.05.747.747 0 0 0-1.05.15l-1.65 2.2-1.65-2.2a.75.75 0 1 0-1.2.9L9 18.999v2.751a.749.749 0 1 0 1.5 0z"/></svg>