<svg xmlns="http://www.w3.org/2000/svg" width="24" height="24" fill="none"><path fill="#04071E" d="M6.858 1.714a2.57 2.57 0 0 0-2.572 2.572v15.428a2.57 2.57 0 0 0 2.572 2.572H13.2a6.428 6.428 0 0 1 6.514-10.777V4.286a2.57 2.57 0 0 0-2.572-2.572zm1.285 11.143a1.286 1.286 0 1 1 0-2.571 1.286 1.286 0 0 1 0 2.571m15 4.714a5.571 5.571 0 1 1-11.143 0 5.571 5.571 0 0 1 11.143 0m-9-.428a.429.429 0 1 0 0 .857h5.823l-1.84 1.84a.429.429 0 0 0 .606.606l2.572-2.572a.43.43 0 0 0 .125-.3v-.005a.43.43 0 0 0-.125-.3l-2.572-2.572a.429.429 0 1 0-.606.606l1.84 1.84z"/></svg>