<svg xmlns="http://www.w3.org/2000/svg" width="24" height="24" fill="none"><path fill="#04071E" d="M12 16a1 1 0 0 1 .993.883L13 17v1.584l.293-.291a1 1 0 0 1 1.32-.083l.094.083a1 1 0 0 1 .083 1.32l-.083.094-2 2-.044.041-.068.056-.111.071-.113.054-.105.035-.118.025-.089.01h-.119l-.058-.006-.116-.02-.108-.033-.081-.034-.098-.052-.096-.067a1 1 0 0 1-.09-.08l-2-2a1 1 0 0 1 1.32-1.497l.094.083.293.292V17a1 1 0 0 1 .883-.993zm6.293-6.707a1 1 0 0 1 1.32-.083l.094.083 2 2 .041.044.055.068.072.11.054.114.035.105.025.117.01.09v.118l-.006.059-.02.115-.033.109-.034.081-.052.098-.074.104-.073.082-2 2a1 1 0 0 1-1.498-1.32l.084-.094.29-.293H17a1 1 0 0 1-.994-.883L16 12a1 1 0 0 1 .883-.993L17 11h1.585l-.292-.293a1 1 0 0 1-.084-1.32zm-14 0a1 1 0 0 1 1.497 1.32l-.083.094-.293.293H7a1 1 0 0 1 .993.883L8 12a1 1 0 0 1-.884.993L7 13H5.415l.292.293a1 1 0 0 1 .083 1.32l-.083.094a1 1 0 0 1-1.32.083l-.094-.083-2-2-.097-.112-.072-.11-.053-.114-.035-.105-.025-.117-.008-.064L2 11.981l.004-.07.016-.112.03-.111.043-.111.053-.098.067-.096q.036-.047.08-.09zM12 9.25a2.75 2.75 0 1 1 0 5.5 2.75 2.75 0 0 1 0-5.5m-.149-7.239.074-.008.13-.002.12.014.137.035.111.044.098.052.104.074.082.073 2 2a1 1 0 0 1-1.32 1.497l-.094-.083L13 5.415V7a1 1 0 0 1-.884.993L12 8a1 1 0 0 1-.993-.883L11 7V5.414l-.293.293a1 1 0 0 1-1.32.083l-.094-.083a1 1 0 0 1-.083-1.32l.083-.094 2-2 .112-.097.11-.071.114-.054.105-.035z"/></svg>