<svg xmlns="http://www.w3.org/2000/svg" width="24" height="24" fill="none"><path fill="#04071E" d="M8.4 4.2a1.8 1.8 0 0 0 1.149 1.679c-.14.608-.557 1.059-1.197 1.718l-.001.001-.001.001q-.19.195-.393.41C6.767 8.986 6 10.405 6 12q0 .17.011.336A3 3 0 0 0 6 12.6v6a3 3 0 0 0 4.5 2.598c.441.256.954.402 1.5.402s1.059-.146 1.5-.402A3 3 0 0 0 18 18.6v-6q0-.133-.012-.264a4.94 4.94 0 0 0-.778-3.018l-.03-.05c-.478-.717-1.024-1.255-1.484-1.708l-.013-.012c-.654-.644-1.081-1.087-1.227-1.671A1.8 1.8 0 0 0 13.8 2.4h-3.6a1.8 1.8 0 0 0-1.8 1.8M7.2 18.6V18h9.6v.6a1.8 1.8 0 0 1-2.925 1.406.6.6 0 0 0-.75 0A1.8 1.8 0 0 1 12 20.4a1.8 1.8 0 0 1-1.125-.394.6.6 0 0 0-.75 0A1.8 1.8 0 0 1 7.2 18.6M10.748 6h2.507c.198 1.037.893 1.721 1.533 2.35l.05.05H9.246l.015-.016c.63-.649 1.299-1.337 1.488-2.384M13.8 4.8h-3.6a.6.6 0 1 1 0-1.2h3.6a.6.6 0 1 1 0 1.2"/></svg>