<svg xmlns="http://www.w3.org/2000/svg" width="24" height="24" fill="none"><path fill="#04071E" d="m17.991 18.84 2.585 2.584a.6.6 0 0 0 .849-.848l-18-18a.6.6 0 0 0-.849.848L7.54 8.388C6.591 9.336 6 10.6 6 12q0 .17.012.336A3 3 0 0 0 6 12.6v6a3 3 0 0 0 4.5 2.598c.442.256.954.402 1.5.402s1.059-.146 1.5-.402a3 3 0 0 0 4.49-2.36M7.201 18h9.6v.6a1.8 1.8 0 0 1-2.925 1.406.6.6 0 0 0-.75 0A1.8 1.8 0 0 1 12 20.4a1.8 1.8 0 0 1-1.124-.394.6.6 0 0 0-.75 0A1.8 1.8 0 0 1 7.2 18.6zM18 12.6v2.855L10.945 8.4h3.893l-.05-.05c-.64-.629-1.335-1.313-1.533-2.35h-2.508c-.108.599-.373 1.08-.698 1.504l-.859-.858c.174-.246.295-.49.358-.767A1.8 1.8 0 0 1 10.2 2.4h3.6a1.8 1.8 0 0 1 .656 3.477c.146.584.574 1.027 1.228 1.67l.012.013c.46.453 1.006.99 1.484 1.707l.03.051a4.97 4.97 0 0 1 .779 3.018q.012.13.011.264m-7.8-7.8h3.6a.6.6 0 1 0 0-1.2h-3.6a.6.6 0 1 0 0 1.2"/></svg>