<svg xmlns="http://www.w3.org/2000/svg" width="24" height="24" fill="none"><path fill="#04071E" d="M22.002 5.754a1.75 1.75 0 0 0-1.75-1.75h-7.248q-.13 0-.255.018v7.228h4.83l-.89-1.002a.75.75 0 0 1 1.121-.996l2 2.25a.75.75 0 0 1 0 .996l-2 2.25a.75.75 0 1 1-1.12-.996l.89-1.002h-4.831v7.23q.125.018.255.019h7.248a1.75 1.75 0 0 0 1.75-1.75zM11.25 11.25H6.42l.89-1.002a.75.75 0 0 0-1.12-.996l-2 2.25a.75.75 0 0 0 0 .996l2 2.25a.75.75 0 1 0 1.12-.996l-.89-1.002h4.83v7.23q-.12.015-.246.016H3.757a1.75 1.75 0 0 1-1.75-1.75V5.751c0-.966.783-1.75 1.75-1.75h7.247q.126 0 .246.017z"/></svg>