<svg xmlns="http://www.w3.org/2000/svg" width="24" height="24" fill="none"><path fill="#04071E" d="M20.245 4.004c.967 0 1.75.783 1.75 1.75v12.495a1.75 1.75 0 0 1-1.75 1.75h-7.247q-.13 0-.256-.019V4.022q.125-.018.256-.018zM10.998 4q.125 0 .245.017V19.98a2 2 0 0 1-.245.017H3.75A1.75 1.75 0 0 1 2 18.246V5.751c0-.966.784-1.75 1.75-1.75zm4.704 9.4a.75.75 0 0 0-1.06 1.04l.073.084 2.253 2.296.084.074c.266.201.636.2.902 0l.085-.074 2.25-2.296.071-.085a.75.75 0 0 0-1.06-1.038l-.083.073-1.714 1.75-1.718-1.75zm2.337-6.176a.75.75 0 0 0-.987-.075l-.084.075-2.253 2.295a.75.75 0 0 0 .987 1.125l.083-.074 1.718-1.75 1.714 1.75a.75.75 0 0 0 1.143-.965l-.071-.085z"/></svg>