<svg xmlns="http://www.w3.org/2000/svg" width="24" height="24" fill="none"><path fill="#04071E" d="M20.245 4.003c.967 0 1.75.784 1.75 1.75V18.25a1.75 1.75 0 0 1-1.75 1.75h-7.247q-.13 0-.256-.019V4.022q.125-.018.256-.019zm-9.247-.002q.125 0 .245.017V19.98a2 2 0 0 1-.245.017H3.75A1.75 1.75 0 0 1 2 18.246V5.751c0-.967.784-1.75 1.75-1.75zM9.243 15.5H7.74l-.102.007a.75.75 0 0 0 0 1.486l.102.007h1.502l.102-.007a.75.75 0 0 0 0-1.486zm6.996 0h-1.5l-.102.007a.75.75 0 0 0 0 1.486l.102.007h1.5l.101-.007a.75.75 0 0 0 0-1.486z"/></svg>