<svg xmlns="http://www.w3.org/2000/svg" width="24" height="24" fill="none"><path fill="#04071E" d="M20.252 4.004c.966 0 1.75.783 1.75 1.75v12.495a1.75 1.75 0 0 1-1.75 1.75h-7.248q-.13 0-.255-.019V4.022q.125-.018.255-.018zm-2.081 5.41a.75.75 0 0 0-1.342 0l-2.25 4.5a.75.75 0 0 0 .67 1.086h4.5a.75.75 0 0 0 .672-1.085zm-7.167-5.413q.126 0 .246.017V19.98q-.12.018-.246.017H3.757a1.75 1.75 0 0 1-1.75-1.75V5.751c0-.966.783-1.75 1.75-1.75zM7.171 9.415a.75.75 0 0 0-1.342 0l-2.25 4.5A.75.75 0 0 0 4.249 15h4.5a.75.75 0 0 0 .672-1.085z"/></svg>