<svg xmlns="http://www.w3.org/2000/svg" width="24" height="24" fill="none"><path fill="#04071E" d="M17.34 3.523a2.448 2.448 0 0 0-3.702.278 2.971 2.971 0 0 0-2.622 5.026l1.248 1.248-1.13 1.129 1.685 1.684 1.13-1.129 1.247 1.248a2.971 2.971 0 0 0 5.026-2.623q.146-.107.277-.239a2.45 2.45 0 0 0 0-3.462l-.737-.737.646-.647a1.191 1.191 0 0 0-1.685-1.684l-.646.646zm.427 5.34a.75.75 0 0 1-1.06 0l-1.57-1.57a.75.75 0 1 1 1.06-1.06l1.57 1.57a.75.75 0 0 1 0 1.06M4.625 11.017a2.97 2.97 0 0 1 4.201 0l4.18 4.18a2.971 2.971 0 0 1-2.622 5.025q-.108.146-.24.278a2.45 2.45 0 0 1-3.461 0l-.738-.738-.668.668a1.191 1.191 0 0 1-1.685-1.685l.668-.667-.737-.738a2.448 2.448 0 0 1 .277-3.701 2.97 2.97 0 0 1 .825-2.622m3.724 7.265a.75.75 0 0 0 0-1.06l-1.57-1.57a.75.75 0 1 0-1.06 1.06l1.57 1.57a.75.75 0 0 0 1.06 0"/></svg>