<svg xmlns="http://www.w3.org/2000/svg" width="24" height="24" fill="none"><path fill="#04071E" d="M15.891 3.048a3.578 3.578 0 1 1 5.061 5.06L20.06 9 15 3.94zM13.94 5 3.94 15a3.1 3.1 0 0 0-.825 1.476L2.02 21.077a.75.75 0 0 0 .904.903l4.601-1.095a3.1 3.1 0 0 0 1.477-.826l1.151-1.15a6.5 6.5 0 0 1 7.754-7.756L19 10.06zM22 17.5a5.5 5.5 0 1 1-11 0 5.5 5.5 0 0 1 11 0m-9.5 0c0 .834.255 1.608.691 2.248l5.557-5.557A4 4 0 0 0 12.5 17.5m4 4a4 4 0 0 0 3.309-6.248l-5.557 5.557c.64.436 1.414.691 2.248.691m-7.498-1.44-.53-.53z"/></svg>