<svg xmlns="http://www.w3.org/2000/svg" width="24" height="24" fill="none"><path fill="#04071E" d="M12 2.005c5.523 0 10 4.477 10 10s-4.477 10-10 10-10-4.477-10-10 4.477-10 10-10m0 11.493a5.99 5.99 0 0 0-4.288 1.803.75.75 0 0 0 1.071 1.05A4.49 4.49 0 0 1 12 14.997c1.225 0 2.37.49 3.211 1.347a.75.75 0 0 0 1.07-1.051A5.98 5.98 0 0 0 12 13.498M8.219 6.664l-.092-.063a.75.75 0 0 0-.927 1.16l.081.075L8.538 8.84A1.25 1.25 0 1 0 10.25 10a.749.749 0 0 0 .55-1.26l-.082-.076zl-.091-.063zm8.617.117a.75.75 0 0 0-.963-.18l-.092.063-2.498 2-.082.076a.75.75 0 0 0 .44 1.251l.11.007a1.25 1.25 0 1 0 1.825-1.107l-.113-.051 1.256-1.004.081-.076a.75.75 0 0 0 .035-.979"/></svg>