<svg xmlns="http://www.w3.org/2000/svg" width="24" height="24" fill="none"><path fill="#04071E" d="M2.22 2.22a.75.75 0 0 1 1.06 0l18.5 18.5a.75.75 0 0 1-1.06 1.06L2.22 3.28a.75.75 0 0 1 0-1.06"/><path fill="#04071E" d="M5.414 4.475A9.98 9.98 0 0 0 2 12c0 5.523 4.477 10 10 10 3 0 5.692-1.321 7.525-3.414L15.94 15H7.753a.75.75 0 0 1 0-1.5h6.686l-3-3H7.753a.75.75 0 0 1 0-1.5h2.186zM13.56 10.5h2.692a.75.75 0 0 0 0-1.5h-4.191L6.626 3.565A9.95 9.95 0 0 1 12 2c5.523 0 10 4.477 10 10a9.95 9.95 0 0 1-1.565 5.374l-3.618-3.617a1 1 0 0 0-.072-.072z"/></svg>