<svg xmlns="http://www.w3.org/2000/svg" width="24" height="24" fill="none"><path fill="#04071E" d="M21.6 12a9.6 9.6 0 1 0-8.893 9.574A6.6 6.6 0 0 1 12 18.6c0-.638.09-1.255.26-1.838a.9.9 0 1 1 .53-1.295A6.6 6.6 0 0 1 18.6 12c1.07 0 2.08.255 2.974.707q.026-.351.026-.707M11.41 7.692a.6.6 0 0 1 1.18 0l.01.108v5.4l-.01.108a.6.6 0 0 1-1.18 0l-.01-.108V7.8zm2.552 10.212a2.4 2.4 0 0 0 1.717-2.973l-.187-.668q.458-.354.986-.597l.405.43a2.4 2.4 0 0 0 3.491 0l.39-.412a5.2 5.2 0 0 1 1.001.622l-.151.507a2.4 2.4 0 0 0 1.747 3.023l.42.099a5.6 5.6 0 0 1 .011 1.22l-.553.14a2.4 2.4 0 0 0-1.716 2.974l.187.668a5.2 5.2 0 0 1-.986.598l-.405-.43a2.4 2.4 0 0 0-3.491-.002l-.39.413a5.2 5.2 0 0 1-1.002-.621l.152-.508a2.4 2.4 0 0 0-1.748-3.023l-.42-.099a5.6 5.6 0 0 1-.011-1.22zm5.839.696a1.2 1.2 0 1 0-2.4 0 1.2 1.2 0 0 0 2.4 0"/></svg>