<svg xmlns="http://www.w3.org/2000/svg" width="24" height="24" fill="none"><path fill="#04071E" d="M6 5.4a1.8 1.8 0 0 1 1.8-1.8h8.4A1.8 1.8 0 0 1 18 5.4v3h-1.2v-3a.6.6 0 0 0-.6-.6H7.8a.6.6 0 0 0-.6.6v4.2h6.6a3 3 0 0 0-.6 1.8v7.2c0 .675.223 1.299.6 1.8H5.4a1.8 1.8 0 0 1-1.8-1.8V12A2.4 2.4 0 0 1 6 9.6zm1.5 7.35a.75.75 0 1 0-1.5 0 .75.75 0 0 0 1.5 0m0 2.7a.75.75 0 1 0-1.5 0 .75.75 0 0 0 1.5 0m1.95-.6a.75.75 0 1 0 0 1.5.75.75 0 0 0 0-1.5m.75-2.1a.75.75 0 1 0-1.5 0 .75.75 0 0 0 1.5 0m6-3.15a1.8 1.8 0 0 0-1.8 1.8v7.2a1.8 1.8 0 0 0 1.8 1.8h2.4a1.8 1.8 0 0 0 1.8-1.8v-7.2a1.8 1.8 0 0 0-1.8-1.8z"/></svg>