<svg xmlns="http://www.w3.org/2000/svg" width="24" height="24" fill="none"><path fill="#04071E" d="m19.108 19.992 1.825 1.825a.625.625 0 1 0 .884-.884L3.067 2.183a.625.625 0 1 0-.884.884l1.362 1.361A3.12 3.12 0 0 0 2 7.126v9.75C2 18.601 3.4 20 5.125 20h13.75q.117 0 .233-.009M22 16.874c0 .787-.291 1.506-.771 2.056l-2.321-2.32A.75.75 0 0 0 19 16.25v-.5a.75.75 0 0 0-1.372-.42L6.298 4h12.577C20.601 4 22 5.4 22 7.125zM5 7.75a.75.75 0 0 1 1.5 0v.5a.75.75 0 0 1-1.5 0zM18.25 7a.75.75 0 0 0-.75.75v.5a.75.75 0 0 0 1.5 0v-.5a.75.75 0 0 0-.75-.75M5 11.75a.75.75 0 0 1 1.5 0v.5a.75.75 0 0 1-1.5 0zM18.25 11a.75.75 0 0 0-.75.75v.5a.75.75 0 0 0 1.5 0v-.5a.75.75 0 0 0-.75-.75M5 15.75a.75.75 0 0 1 1.5 0v.5a.75.75 0 0 1-1.5 0z"/></svg>