<svg xmlns="http://www.w3.org/2000/svg" width="24" height="24" fill="none"><path fill="#04071E" d="M11.019 6H5l-.117.007A1 1 0 0 0 5 8h6.174a6.5 6.5 0 0 1-.155-2M16.415 12.91A6.5 6.5 0 0 1 12.81 11H8l-.117.007A1 1 0 0 0 8 13h8l.117-.007a1 1 0 0 0 .298-.083M14 16h-4l-.117.007A1 1 0 0 0 10 18h4l.117-.007A1 1 0 0 0 14 16"/><path fill="#04071E" fill-rule="evenodd" d="M17.5 1a5.5 5.5 0 1 1 0 11 5.5 5.5 0 0 1 0-11m.501 8.504V7h2.496a.5.5 0 0 0 0-1H18V3.5a.5.5 0 0 0-1 0V6h-2.504a.5.5 0 0 0 0 1H17v2.504a.5.5 0 0 0 1 0" clip-rule="evenodd"/></svg>