<svg xmlns="http://www.w3.org/2000/svg" width="24" height="24" fill="none"><path fill="#04071E" d="M14.976 11.975c.596.607.93 1.332 1.168 2.324l.115.53.096.509c.124.668.198.972.308 1.216q.426.955 1.535 1.969c.407.37.435.998.061 1.402a1.005 1.005 0 0 1-1.413.062c-.93-.847-1.604-1.72-2.01-2.624-.157-.35-.252-.676-.361-1.216l-.189-.989-.035-.168c-.171-.801-.378-1.293-.707-1.627-.599-.609-2.052-.44-2.406.117-.521.819-.658 2.242-.232 3.686q.51 1.725 1.355 3.4a.99.99 0 0 1-.445 1.333 1.003 1.003 0 0 1-1.342-.442 22.3 22.3 0 0 1-1.487-3.732c-.58-1.964-.387-3.975.46-5.306 1.04-1.63 4.02-1.978 5.529-.444m-2.503 2.126a1 1 0 0 1 1.032.967 7.68 7.68 0 0 0 1.4 4.168l.19.258.3.39a1 1 0 0 1-1.503 1.315l-.082-.095-.3-.39a9.68 9.68 0 0 1-2.003-5.58 1 1 0 0 1 .966-1.033m-3.9-4.911c2.201-1.63 5.076-1.542 7.017-.294.961.618 1.693 1.342 2.183 2.177a1 1 0 1 1-1.726 1.012c-.32-.547-.829-1.05-1.539-1.507-1.28-.822-3.256-.883-4.745.219-1.56 1.155-2.22 3.147-2.023 5.258q.168 1.791 1.088 3.635a1 1 0 0 1-1.788.894q-1.086-2.167-1.29-4.343c-.259-2.749.631-5.428 2.823-7.051m10.574 5.159c.028.56.164 1.01.4 1.368.222.336.399.496.488.523a1 1 0 1 1-.579 1.914c-.612-.185-1.124-.645-1.579-1.337-.441-.67-.681-1.464-.728-2.365a1 1 0 1 1 1.997-.103m-8.682-8.395a1 1 0 0 1-.501 1.323c-1.794.807-3.108 1.952-3.97 3.446-1.083 1.874-1.376 4.073-1.133 5.922a1 1 0 1 1-1.983.26c-.295-2.25.055-4.882 1.384-7.183 1.079-1.868 2.715-3.294 4.88-4.269a1 1 0 0 1 1.323.501m2.464-1.031c1.895.038 3.77.904 5.62 2.55 1.869 1.662 2.995 3.922 3.375 6.733a1 1 0 0 1-1.982.268c-.319-2.355-1.226-4.175-2.723-5.508-1.518-1.35-2.96-2.016-4.332-2.044a1 1 0 1 1 .041-2m-7.318.23a1 1 0 0 1-.082 1.412q-.39.348-.822.834A7.2 7.2 0 0 0 3.89 8.57a1 1 0 0 1-1.732-1A9 9 0 0 1 3.21 6.072q.506-.57.989-1.001a1 1 0 0 1 1.412.082m6.885-3.135c2.242.105 4.321.595 5.865 1.787a1 1 0 1 1-1.223 1.583c-1.203-.929-2.887-1.285-4.735-1.372-1.856-.087-3.366.243-4.552.971a1 1 0 0 1-1.046-1.704c1.552-.954 3.457-1.37 5.691-1.265"/></svg>