<svg xmlns="http://www.w3.org/2000/svg" width="24" height="24" fill="none"><path fill="#04071E" d="M2.998 5.245a2.25 2.25 0 0 1 2.25-2.25h2.507a2.25 2.25 0 0 1 2.25 2.25v2.507a2.25 2.25 0 0 1-2.25 2.25H7.25v3.707q.07.052.134.116l2.79 2.791q.065.064.117.134h3.714v-.5a2.25 2.25 0 0 1 2.25-2.25h2.494a2.25 2.25 0 0 1 2.25 2.25v2.504a2.25 2.25 0 0 1-2.25 2.25h-2.494a2.25 2.25 0 0 1-2.25-2.25v-.504H10.29a1 1 0 0 1-.115.134l-2.791 2.791a1.25 1.25 0 0 1-1.768 0l-2.792-2.791a1.25 1.25 0 0 1 0-1.768l2.792-2.791a1 1 0 0 1 .134-.117v-3.706h-.502a2.25 2.25 0 0 1-2.25-2.25z"/></svg>