<svg xmlns="http://www.w3.org/2000/svg" width="24" height="24" fill="none"><path fill="#04071E" d="M2.4 6.6a3 3 0 0 1 3-3h2.979a2.1 2.1 0 0 1 1.485.615L11.4 5.751 8.927 8.224a.6.6 0 0 1-.424.176H2.4zm0 3v7.8a3 3 0 0 0 3 3h7.902c.08-.224.201-.427.356-.6a1.8 1.8 0 0 1-.458-1.2c0-.461.173-.882.458-1.2a1.8 1.8 0 0 1 1.342-3h6.6V9a3 3 0 0 0-3-3h-5.752L9.776 9.073a1.8 1.8 0 0 1-1.273.527zm12.6 6a.6.6 0 1 0 0 1.2h7.2a.6.6 0 0 0 0-1.2zm0 2.4a.6.6 0 1 0 0 1.2h7.2a.6.6 0 0 0 0-1.2zm-.6 3a.6.6 0 0 1 .6-.6h7.2a.6.6 0 1 1 0 1.2H15a.6.6 0 0 1-.6-.6"/></svg>