<svg xmlns="http://www.w3.org/2000/svg" width="24" height="24" fill="none"><path fill="#04071E" d="M2.4 6.6a3 3 0 0 1 3-3h2.979a2.1 2.1 0 0 1 1.485.615L11.4 5.751 8.927 8.224a.6.6 0 0 1-.424.176H2.4zm0 3v7.8a3 3 0 0 0 3 3h5.4v-4.2a3 3 0 0 1 2.45-2.95 3 3 0 0 1 2.95-2.45h2.4a3 3 0 0 1 2.95 2.45l.05.01V9a3 3 0 0 0-3-3h-5.752L9.776 9.073a1.8 1.8 0 0 1-1.273.527zm12 4.2v.6h-.6a1.8 1.8 0 0 0-1.8 1.8V21a1.8 1.8 0 0 0 1.8 1.8H21a1.8 1.8 0 0 0 1.8-1.8v-4.8a1.8 1.8 0 0 0-1.8-1.8h-.6v-.6a1.8 1.8 0 0 0-1.8-1.8h-2.4a1.8 1.8 0 0 0-1.8 1.8m1.8-.6h2.4a.6.6 0 0 1 .6.6v.6h-3.6v-.6a.6.6 0 0 1 .6-.6"/></svg>