<svg xmlns="http://www.w3.org/2000/svg" width="24" height="24" fill="none"><path fill="#04071E" d="M2.4 6.6a3 3 0 0 1 3-3h2.979a2.1 2.1 0 0 1 1.485.615L11.4 5.751 8.927 8.224a.6.6 0 0 1-.424.176H2.4zm0 3v7.8a3 3 0 0 0 3 3h6.12a6.6 6.6 0 0 1 10.08-8.091V9a3 3 0 0 0-3-3h-5.752L9.776 9.073a1.8 1.8 0 0 1-1.273.527zm13.86 3.78c-.349.872-.592 2.066-.648 3.42h3.575c-.056-1.354-.299-2.548-.647-3.42-.2-.5-.424-.866-.642-1.096-.216-.23-.385-.284-.498-.284s-.282.055-.498.284c-.218.23-.442.595-.642 1.096m-.865-.996a6 6 0 0 0-.25.55c-.413 1.035-.677 2.386-.734 3.866h-2.378a5.4 5.4 0 0 1 3.362-4.416m4.01 0q.133.263.249.55c.414 1.035.678 2.386.734 3.866h2.379a5.4 5.4 0 0 0-3.363-4.416M22.766 18h-2.379c-.056 1.48-.32 2.83-.734 3.866a6 6 0 0 1-.25.55A5.4 5.4 0 0 0 22.767 18M17.4 22.8c.113 0 .282-.055.498-.284.218-.23.441-.595.642-1.096.349-.872.591-2.066.647-3.42h-3.575c.056 1.354.299 2.548.648 3.42.2.5.424.866.641 1.096s.386.284.499.284m-2.005-.384A5.4 5.4 0 0 1 12.033 18h2.378c.057 1.48.32 2.83.735 3.866a6 6 0 0 0 .25.55"/></svg>