<svg xmlns="http://www.w3.org/2000/svg" width="24" height="24" fill="none"><path fill="#04071E" d="M5.471 3.42A5.18 5.18 0 0 0 6.89 7.302a5.12 5.12 0 0 0-3.66 4.216A10.46 10.46 0 0 0 4.6 18.314l.35.59.043.063 1.416 1.907a3.462 3.462 0 0 0 5.275.335.437.437 0 0 1 .63 0 3.462 3.462 0 0 0 5.275-.335l1.416-1.907.042-.063.351-.59a10.46 10.46 0 0 0 1.373-6.796 5.12 5.12 0 0 0-6.11-4.306l-1.901.394-.003.001c.03-.78.152-1.62.391-2.339.29-.868.692-1.39 1.14-1.576a.75.75 0 1 0-.578-1.384c-1.052.438-1.65 1.479-1.985 2.486l-.046.142c-.24-.464-.554-.9-.943-1.29a5.18 5.18 0 0 0-3.98-1.511A1.367 1.367 0 0 0 5.47 3.42m2.926 7.815c-.347.07-.665.313-.864.779-.203.474-.275 1.176-.056 2.054a.75.75 0 0 1-1.455.363c-.28-1.122-.227-2.17.132-3.008.363-.847 1.045-1.478 1.949-1.659a.75.75 0 1 1 .294 1.471"/></svg>