<svg xmlns="http://www.w3.org/2000/svg" width="24" height="24" fill="none"><path fill="#04071E" d="M7.2 9.6v4.8H2.4V9.6zM2.576 20.224A.6.6 0 0 1 2.4 19.8v-4.2h4.8V18a2.4 2.4 0 0 1-2.4 2.4H3a.6.6 0 0 1-.424-.176M3 3.6h1.8A2.4 2.4 0 0 1 7.2 6v2.4H2.4V4.2a.6.6 0 0 1 .6-.6m18.6 4.2V12h-4.8V9.6a2.407 2.407 0 0 1 2.4-2.4H21a.6.6 0 0 1 .6.6m0 9.6v-4.2h-4.8v2.4a2.407 2.407 0 0 0 2.4 2.4H21a.6.6 0 0 0 .6-.6m-9.425-4.025a.6.6 0 1 0 .85.85l1.8-1.8a.6.6 0 0 0 0-.85l-1.8-1.8a.6.6 0 0 0-.85.85l.777.775H9.6a.6.6 0 1 0 0 1.2h3.352z"/></svg>