<svg xmlns="http://www.w3.org/2000/svg" width="24" height="24" fill="none"><path fill="#04071E" d="M12 21.6a9.6 9.6 0 0 0 9.6-9.6A9.6 9.6 0 0 0 12 2.4a9.6 9.6 0 0 0-9.595 9.905 6.6 6.6 0 0 1 2.46-1.275 7.201 7.201 0 0 1 9.753-5.74.6.6 0 1 1-.436 1.12 6.002 6.002 0 0 0-8.065 4.407q.24-.017.483-.017a6.57 6.57 0 0 1 3.805 1.207c.072-.205.181-.4.33-.575a5 5 0 0 1 .412-.393c.18-.16.412-.356.673-.574.522-.438 1.177-.973 1.816-1.49.64-.517 1.266-1.019 1.731-1.39l.33-.263.443-.353a.6.6 0 0 1 .895.765l-.133.235-.822 1.447-.277.483-.357.622-.505.872c-.241.413-.475.81-.682 1.155a36 36 0 0 1-.59.952l-.088.13a1.792 1.792 0 0 1-1.118.736c.47.908.737 1.94.737 3.034a6.57 6.57 0 0 1-1.505 4.195q.152.005.305.005m6.709-12.218a7.2 7.2 0 0 1-1.618 7.71.6.6 0 1 1-.848-.85 6 6 0 0 0 1.348-6.424.6.6 0 0 1 1.118-.436M9.6 21.89a5.4 5.4 0 1 1-6-8.98 5.4 5.4 0 0 1 6 8.98m-2.576-7.314A.6.6 0 0 0 6 15v1.8H4.2a.6.6 0 1 0 0 1.2H6v1.8a.6.6 0 1 0 1.2 0V18H9a.6.6 0 1 0 0-1.2H7.2V15a.6.6 0 0 0-.176-.424"/></svg>