<svg xmlns="http://www.w3.org/2000/svg" width="24" height="24" fill="none"><path fill="#04071E" d="M8 9.107a1.8 1.8 0 0 1-.272-2.768l3.41-3.41a1.8 1.8 0 0 1 2.732.221l.568.788-5.679 5.679zm1.775 1.19 5.373-5.372 1.587 2.203a.6.6 0 0 0 .136.136l2.204 1.588-1.953 1.953a6.58 6.58 0 0 0-4.407 1.946l-.522-.78a.6.6 0 0 0-.165-.164zm8.922.63a6.6 6.6 0 0 1 2.788 1.288 1.8 1.8 0 0 0-.637-2.086l-.787-.566zm-7.533 4.305a6.6 6.6 0 0 1 .756-1.511l-.658-.983-1.435-.961-6.93 6.93a1.694 1.694 0 1 0 2.396 2.396zM12 17.399a5.4 5.4 0 1 0 10.8 0 5.4 5.4 0 0 0-10.8 0m1.2 0a4.2 4.2 0 0 1 6.715-3.363l-5.879 5.879a4.18 4.18 0 0 1-.836-2.516m4.2 4.2a4.18 4.18 0 0 1-2.515-.836l5.879-5.879A4.2 4.2 0 0 1 17.4 21.6"/></svg>