<svg xmlns="http://www.w3.org/2000/svg" width="24" height="24" fill="none"><path fill="#04071E" d="M10.729 2.711a2.25 2.25 0 0 1 3.41.268l.32.44-6.473 6.473-.38-.253a2.25 2.25 0 0 1-.342-3.463zm-1.47 8.03 2.562 1.707q.131.088.216.222l1.234 1.938 6.011-6.012-2.15-1.563a.8.8 0 0 1-.165-.166l-1.614-2.22zm5.105 5.584-.268-.42 6.415-6.416.51.372a2.25 2.25 0 0 1 .268 3.41l-3.436 3.437a2.25 2.25 0 0 1-3.49-.383M9.34 12.298l-6.073 5.958a1.76 1.76 0 1 0 2.476 2.5l6.085-6.085-.79-1.241zM14.75 19a.75.75 0 0 0 0 1.5h-2a.75.75 0 0 0 0 1.5h8.5a.75.75 0 0 0 0-1.5h-2a.75.75 0 0 0 0-1.5z"/></svg>