<svg xmlns="http://www.w3.org/2000/svg" width="24" height="24" fill="none"><path fill="#04071E" d="M18.75 3.5A3.25 3.25 0 0 1 22 6.75v10.503a3.25 3.25 0 0 1-3.25 3.25H5.25A3.25 3.25 0 0 1 2 17.253V6.75A3.25 3.25 0 0 1 5.25 3.5zM8.015 8.872c-1.627 0-2.754 1.41-2.754 3.122 0 1.713 1.128 3.126 2.754 3.126.887 0 1.703-.427 2.111-1.214l.077-.162.023-.07.018-.074.008-.083v-1.52l-.007-.093a.625.625 0 0 0-.516-.524l-.102-.009H8.625l-.092.007a.63.63 0 0 0-.524.516L8 11.996l.007.092c.04.268.25.48.516.525l.102.008h.376v.734l-.006.014c-.189.321-.552.501-.98.501-.866 0-1.504-.799-1.504-1.876s.637-1.872 1.504-1.872c.421 0 .66.046.96.19a.625.625 0 0 0 .542-1.127c-.483-.232-.905-.313-1.502-.313m4.614.122a.625.625 0 0 0-.618.533l-.007.092v4.762l.007.092a.625.625 0 0 0 1.236 0l.007-.092V9.619l-.007-.092a.625.625 0 0 0-.618-.533M17.622 9l-1.997-.007a.625.625 0 0 0-.62.53l-.007.093v4.748l.006.092c.04.268.25.48.516.525l.103.008.092-.007c.268-.04.48-.25.524-.516l.009-.102-.001-1.115h1.123l.092-.006c.268-.04.48-.25.525-.516l.008-.103-.007-.092a.625.625 0 0 0-.516-.524L17.37 12h-1.123v-1.755l1.37.006.093-.007a.625.625 0 0 0 .005-1.236zl-1.997-.007z"/></svg>