<svg xmlns="http://www.w3.org/2000/svg" width="24" height="24" fill="none"><path fill="#04071E" d="M12 2c1.319 0 2.646 2.542 3.214 6.183l.047.315H8.739C9.28 4.69 10.644 2 12 2m2.944.575-.108-.17a10.03 10.03 0 0 1 6.536 6.093h-4.59c-.316-2.416-.957-4.492-1.838-5.923M7.07 10h-4.87a10.05 10.05 0 0 0 .257 5H7.16l-.057-.58a28.21 28.21 0 0 1-.033-4.42m14.902 2.783a6.48 6.48 0 0 0-4.986-1.762q-.006-.183-.015-.365l-.038-.656h4.87a10 10 0 0 1 .17 2.783M8.674 15h2.825a6.52 6.52 0 0 1 3.994-3.683 26 26 0 0 0-.068-1.318h-6.85l-.033.489a26 26 0 0 0 .132 4.512m.23 1.5h2.173Q11 16.989 11 17.5c0 1.652.617 3.16 1.632 4.307q-.314.189-.632.19c-1.197 0-2.4-2.094-3.038-5.204zm-5.838 0h4.306c.364 2.082.983 3.854 1.792 5.093a10.03 10.03 0 0 1-5.952-4.814zM9.164 2.405l-.122.037a10.03 10.03 0 0 0-6.414 6.056H7.22l.062-.44c.347-2.324 1.002-4.304 1.883-5.653M12 17.5a5.5 5.5 0 1 0 11 0 5.5 5.5 0 0 0-11 0m6.646-2.146a.5.5 0 0 1 .708-.708l1.5 1.5a.5.5 0 0 1 0 .708l-1.5 1.5a.5.5 0 0 1-.708-.708l.647-.646H17.25A2.25 2.25 0 0 0 15 19.25v.25a.5.5 0 0 1-1 0v-.25A3.25 3.25 0 0 1 17.25 16h2.043z"/></svg>