<svg xmlns="http://www.w3.org/2000/svg" width="24" height="24" fill="none"><path fill="#04071E" d="M8.904 16.5h6.192C14.476 19.773 13.234 22 12 22c-1.197 0-2.4-2.094-3.038-5.204zh6.192zm-5.838.001H7.37c.365 2.082.983 3.854 1.793 5.093a10.03 10.03 0 0 1-5.952-4.814zm13.563 0h4.305a10.03 10.03 0 0 1-6.097 5.093c.755-1.158 1.344-2.778 1.715-4.681zh4.306zm.302-6.5h4.87a10.06 10.06 0 0 1-.257 5H16.84a28.539 28.539 0 0 0 .13-4.344zh4.87zM2.198 10h4.87a28 28 0 0 0 .034 4.42l.057.58H2.456a10.047 10.047 0 0 1-.258-5m6.377 0h6.85a26 26 0 0 1-.037 4.425l-.062.575H8.674a25.979 25.979 0 0 1-.132-4.512zh6.85zm6.37-7.424-.109-.17A10.03 10.03 0 0 1 21.372 8.5H16.78c-.316-2.416-.956-4.492-1.837-5.923l-.108-.17zm-5.903-.133.122-.037C8.283 3.757 7.628 5.736 7.28 8.06l-.061.44H2.628a10.03 10.03 0 0 1 6.414-6.057l.122-.037zM12 2.002c1.319 0 2.646 2.542 3.214 6.183l.047.315H8.739C9.28 4.691 10.643 2.002 12 2.002"/></svg>