<svg xmlns="http://www.w3.org/2000/svg" width="24" height="24" fill="none"><path fill="#04071E" d="M3.441 9.956a4.926 4.926 0 0 0 6.233 7.57l4.256 4.257a.773.773 0 0 0 1.169-1.007l-.075-.086-4.218-4.219a4.927 4.927 0 0 0-7.365-6.515M16.654 16.5c-.225 1.288-.548 2.456-.952 3.454l.029.029.125.14c.22.295.344.624.378.952A10.04 10.04 0 0 0 20.96 16.5zm-4.404 0 2.284 2.286c.202-.6.381-1.268.53-1.991l.057-.295zm-2.936-5.45a3.38 3.38 0 1 1-4.78 4.778 3.38 3.38 0 0 1 4.78-4.779M15.45 10l-3.7-.001A5.94 5.94 0 0 1 12.642 15h2.71a26.014 26.014 0 0 0 .132-4.512zm1.507 0a28 28 0 0 1-.033 4.42l-.057.58h4.702a10.047 10.047 0 0 0 .258-5zm-2.095-7.594c.88 1.35 1.536 3.33 1.883 5.654l.062.44h4.59a10.03 10.03 0 0 0-6.109-5.957l-.304-.1zm-2.836-.405c-1.277 0-2.561 2.383-3.158 5.84.464.16.912.38 1.331.658h5.088c-.54-3.808-1.905-6.498-3.261-6.498m-2.837.405A10.03 10.03 0 0 0 2.654 8.5l.995-.001a5.92 5.92 0 0 1 3.743-.968c.322-1.857.846-3.469 1.527-4.679l.162-.275z"/></svg>