<svg xmlns="http://www.w3.org/2000/svg" width="24" height="24" fill="none"><path fill="#04071E" d="M3.6 2.4a1.2 1.2 0 0 0-1.2 1.2V6a1.2 1.2 0 0 0 1.2 1.2h6A1.2 1.2 0 0 0 10.8 6V3.6a1.2 1.2 0 0 0-1.2-1.2zm0 7.2a1.2 1.2 0 0 0-1.2 1.2v2.4a1.2 1.2 0 0 0 1.2 1.2h6a1.2 1.2 0 0 0 1.2-1.2v-2.4a1.2 1.2 0 0 0-1.2-1.2zm0 7.2A1.2 1.2 0 0 0 2.4 18v2.4a1.2 1.2 0 0 0 1.2 1.2h6a1.2 1.2 0 0 0 1.2-1.2V18a1.2 1.2 0 0 0-1.2-1.2zM14.4 2.4a1.2 1.2 0 0 0-1.2 1.2V6a1.2 1.2 0 0 0 1.2 1.2h6A1.2 1.2 0 0 0 21.6 6V3.6a1.2 1.2 0 0 0-1.2-1.2zm0 7.2a1.2 1.2 0 0 0-1.2 1.2v2.4a1.2 1.2 0 0 0 1.2 1.2h6a1.2 1.2 0 0 0 1.2-1.2v-2.4a1.2 1.2 0 0 0-1.2-1.2z"/></svg>