<svg xmlns="http://www.w3.org/2000/svg" width="24" height="24" fill="none"><path fill="#04071E" d="m13 9.94-2-2V3a1 1 0 0 1 2 0zM14 4.253a1 1 0 0 1 2 0v6.746a.5.5 0 0 0 1 0V6a1 1 0 0 1 2 0v8.755q-.002.546-.09 1.096l-5.027-5.027A.5.5 0 0 0 14 10.5zM17.908 18.969l3.062 3.061a.75.75 0 0 0 1.06-1.06L3.53 2.47a.75.75 0 1 0-1.06 1.06L8 9.06v2.96a4.7 4.7 0 0 0-1.357-.505c-.68-.132-1.453-.21-2.09-.134-.311.037-.665.119-.961.31A1.24 1.24 0 0 0 3 12.751c0 .231.107.45.29.592l2.191 1.704 2.212 2.552c.617.71 1.141 1.496 1.562 2.338l.133.266A3.25 3.25 0 0 0 12.295 22h2.168c1.043 0 2.067-.504 2.623-1.459.247-.423.54-.962.822-1.572M8 4.94l2 2V4.252a1 1 0 0 0-2 0z"/></svg>