<svg xmlns="http://www.w3.org/2000/svg" width="24" height="24" fill="none"><path fill="#04071E" d="M10 4.25a1 1 0 0 0-2 0v6.748a.5.5 0 0 1-1 0V5.997a1 1 0 1 0-2 0v8.757c0 2.179 1.168 4.509 1.914 5.789C7.47 21.497 8.494 22 9.537 22h2.168a3.25 3.25 0 0 0 2.907-1.797l.133-.267a11.3 11.3 0 0 1 1.562-2.338l2.212-2.552 2.192-1.705A.75.75 0 0 0 21 12.75c0-.485-.26-.845-.592-1.06-.296-.191-.65-.273-.962-.31-.636-.075-1.41.002-2.089.134-.513.1-.974.294-1.357.504V4.25a1 1 0 1 0-2 0v6.25a.5.5 0 0 1-1 0V2.997a1 1 0 1 0-2 0V10.5a.5.5 0 0 1-1 0z"/></svg>