<svg xmlns="http://www.w3.org/2000/svg" width="24" height="24" fill="none"><path fill="#04071E" d="M16.07 12.618 12.05 8.22a.728.728 0 0 1-1.042.013l-4.67-4.67a.9.9 0 0 0-1.273 1.273L9.7 9.473a.691.691 0 1 1-.978.978L3.936 5.664a.9.9 0 0 0-1.272 1.272L7.527 11.8a.585.585 0 1 1-.827.827L3.936 9.864a.9.9 0 1 0-1.272 1.272l4.586 4.587q-.286.051-.607.137c-.935.255-2.131.79-2.845 1.928a1.2 1.2 0 0 0 .065 1.398c.272.356.72.574 1.197.57 2.586-.018 5.724.459 8.224 1.484 1.437.59 3.225.51 4.457-.625l1.5-1.384a3.6 3.6 0 0 0 .913-3.956L19 12.32l-.272.298a1.8 1.8 0 0 1-2.657 0m-4.402 4.118a.6.6 0 0 1-.536-1.074c.724-.36 1.753-.523 2.767-.354 1.027.172 2.09.693 2.8 1.76a.6.6 0 1 1-.998.665c-.49-.734-1.227-1.112-2-1.241-.786-.131-1.557.006-2.033.244M11.206 3.5a4.08 4.08 0 0 0-.348 2.457l-2.194-2.32a.9.9 0 0 1 1.272-1.274 21 21 0 0 0 1.27 1.137m6.193.103-.754-.59a2.873 2.873 0 0 0-3.892 4.199l4.203 4.597a.6.6 0 0 0 .886 0l4.204-4.598a2.873 2.873 0 0 0-3.892-4.2z"/></svg>