<svg xmlns="http://www.w3.org/2000/svg" width="24" height="24" fill="none"><path fill="#04071E" d="M18.75 3.5A3.25 3.25 0 0 1 22 6.75v10.503a3.25 3.25 0 0 1-3.25 3.25H5.25A3.25 3.25 0 0 1 2 17.253V6.75A3.25 3.25 0 0 1 5.25 3.5zM8.378 8.993a.625.625 0 0 0-.618.533l-.007.092v1.768H6.272v-1.75l-.007-.093a.625.625 0 0 0-1.236 0l-.007.092v4.752l.007.093a.625.625 0 0 0 1.236 0l.007-.093v-1.75h1.48l.001 1.733.007.092a.625.625 0 0 0 1.237 0l.006-.092V9.618l-.006-.092a.625.625 0 0 0-.619-.533m8.823.023H15.63l-.093.006a.625.625 0 0 0-.524.517l-.008.102.005 4.735.008.108.023.103c.182.582 1.113.55 1.21-.098l.01-.114-.002-1.751h.743l.8 1.985.045.09a.625.625 0 0 0 1.145-.46l-.03-.097-.74-1.834a1.804 1.804 0 0 0-.872-3.287zm-5.826-.01h-.75l-.093.007a.625.625 0 0 0-.524.516L10 9.63v4.742l.006.092c.04.268.25.48.516.524l.103.009h.75l.166-.006a2.625 2.625 0 0 0 2.454-2.453l.005-.166v-.742l-.005-.166a2.625 2.625 0 0 0-2.454-2.454zm0 1.25c.715 0 1.303.545 1.37 1.242l.005.133v.742l-.006.132a1.375 1.375 0 0 1-1.236 1.236l-.133.007-.126-.001v-3.491zm4.88.009h.946l.09.008a.554.554 0 0 1 0 1.094l-.09.007h-.945z"/></svg>