<svg xmlns="http://www.w3.org/2000/svg" width="24" height="24" fill="none"><path fill="#04071E" d="M11.266 5.148c-2.035-2.056-5.327-2.066-7.353-.02-1.518 1.535-1.893 3.787-1.128 5.685A2 2 0 0 1 3 10.8h2.77l1.573-3.704a1.8 1.8 0 0 1 3.319.012l1.659 3.982 1.153-1.844a1.8 1.8 0 0 1 2.88-.231l1.563 1.785H21q.123 0 .243.016a5.3 5.3 0 0 0-1.174-5.641c-2.039-2.059-5.332-2.069-7.362-.019l-.715.724zm4.186 4.657 1.142 1.305a6.6 6.6 0 0 0-1.16.497l-.353-.404-.702 1.123a6.6 6.6 0 0 0-2.113 3.212.6.6 0 0 1-.82-.307L8.995 9.347l-1.483 3.488a.6.6 0 0 1-.552.365H3A.6.6 0 0 1 3 12h3.563l1.885-4.435a.6.6 0 0 1 1.106.004l2.553 6.128 2.384-3.815a.6.6 0 0 1 .96-.077m-3.6 6.989q.089.008.175.006a6.576 6.576 0 0 0 .575 3.357l-.006.006a.794.794 0 0 1-1.132 0L5.76 14.4H6.96a1.8 1.8 0 0 0 1.657-1.096l.367-.863 1.354 3.251a1.8 1.8 0 0 0 1.515 1.102M24 17.4a5.4 5.4 0 1 1-10.8 0 5.4 5.4 0 0 1 10.8 0m-5.4-3a.6.6 0 0 0-.6.6v2.4a.6.6 0 0 0 1.2 0V15a.6.6 0 0 0-.6-.6m0 6.15a.75.75 0 1 0 0-1.5.75.75 0 0 0 0 1.5"/></svg>