<svg xmlns="http://www.w3.org/2000/svg" width="24" height="24" fill="none"><path fill="#04071E" d="M3.913 5.129c2.026-2.047 5.318-2.037 7.353.019l.726.732.715-.724c2.03-2.05 5.323-2.04 7.362.019a5.3 5.3 0 0 1 1.174 5.641q-.12-.016-.243-.016h-1.517c-.551-.963-1.614-1.347-2.573-1.15l-.555-.635a1.8 1.8 0 0 0-2.881.231L12.32 11.09l-1.66-3.982a1.8 1.8 0 0 0-3.318-.012L5.77 10.8H3a2 2 0 0 0-.215.013c-.765-1.898-.39-4.15 1.128-5.684m7.15 14.196 1.276-2.557a1.8 1.8 0 0 1-2-1.076l-1.355-3.251-.367.863A1.8 1.8 0 0 1 6.96 14.4H5.759l5.176 5.228q.052-.152.127-.303m4.193-8.397c.143-.287.33-.528.546-.722l-.35-.401a.6.6 0 0 0-.96.077l-2.385 3.815-2.553-6.128a.6.6 0 0 0-1.106-.004L6.563 12H3a.6.6 0 1 0 0 1.2h3.96a.6.6 0 0 0 .552-.365l1.483-3.488 2.451 5.884a.6.6 0 0 0 1.063.087l2.572-4.115.024.028zm1.067.536-4.195 8.398a1.2 1.2 0 0 0 1.075 1.738h8.394a1.2 1.2 0 0 0 1.075-1.738l-4.2-8.398a1.201 1.201 0 0 0-2.149 0m1.675 2.33v3.603a.6.6 0 0 1-1.201 0v-3.603a.6.6 0 0 1 1.201 0m-.6 6.605a.6.6 0 1 1 0-1.2.6.6 0 0 1 0 1.2"/></svg>