<svg xmlns="http://www.w3.org/2000/svg" width="24" height="24" fill="none"><path fill="#04071E" d="M5.4 2.4a1.8 1.8 0 0 0-1.8 1.8v3.6a1.8 1.8 0 0 0 1.8 1.8h13.2a1.8 1.8 0 0 0 1.8-1.8V4.2a1.8 1.8 0 0 0-1.8-1.8zm1.8 10.8a2.4 2.4 0 0 1-2.4-2.4h14.4a2.4 2.4 0 0 1-2.4 2.4zm0 1.2H15a4.2 4.2 0 0 0-3.945 5.644l-2.987 1.494A.6.6 0 0 1 7.2 21zm7.8 1.2a3 3 0 0 0 0 6h.6a.6.6 0 1 0 0-1.2H15a1.8 1.8 0 0 1 0-3.6h.6a.6.6 0 1 0 0-1.2zm4.2 0a.6.6 0 0 0 0 1.2h.6a1.8 1.8 0 0 1 0 3.6h-.6a.6.6 0 0 0 0 1.2h.6a3 3 0 1 0 0-6zm-4.8 3a.6.6 0 0 1 .6-.6h4.8a.6.6 0 0 1 0 1.2H15a.6.6 0 0 1-.6-.6"/></svg>