<svg xmlns="http://www.w3.org/2000/svg" width="24" height="24" fill="none"><path fill="#04071E" d="M4.75 12a7.25 7.25 0 0 0 6.477 7.21c.201.74.53 1.428.962 2.038L12 21.25a9.25 9.25 0 0 1-9.182-10.38c.063-.512.516-.87 1.032-.87.59 0 1.017.569.949 1.156A7 7 0 0 0 4.75 12m8.06 1a6.5 6.5 0 0 1 2.863-1.74A1 1 0 0 0 15 11h-2V8a1 1 0 1 0-2 0v4a1 1 0 0 0 1 1zm8.438-.811a6.5 6.5 0 0 0-2.039-.962A7.251 7.251 0 0 0 7.584 6.25h.666a1 1 0 0 1 0 2h-3a1 1 0 0 1-1-1V7h-.034l.034-.052V4.25a1 1 0 0 1 2 0v.504A9.2 9.2 0 0 1 12 2.75a9.25 9.25 0 0 1 9.248 9.439M23 17.5a5.5 5.5 0 1 1-11 0 5.5 5.5 0 0 1 11 0m-7.146-2.354a.5.5 0 0 0-.708.708l1.647 1.646-1.647 1.646a.5.5 0 0 0 .708.708l1.646-1.647 1.646 1.647a.5.5 0 0 0 .708-.708L18.207 17.5l1.647-1.646a.5.5 0 0 0-.708-.708L17.5 16.793z"/></svg>