<svg xmlns="http://www.w3.org/2000/svg" width="24" height="24" fill="none"><path fill="#04071E" d="M7.2 3.6a3.6 3.6 0 0 0-3.6 3.6v3.6h3.951l2.964-2.964a2.1 2.1 0 0 1 2.97 0l2.964 2.964H20.4V7.2a3.6 3.6 0 0 0-3.6-3.6zM20.4 12v4.8a3.6 3.6 0 0 1-2.833 3.518l-4.082-4.082a2.1 2.1 0 0 0-2.97 0l-4.082 4.082A3.6 3.6 0 0 1 3.6 16.8V12zM8.049 20.4h7.902l-3.315-3.315a.9.9 0 0 0-1.272 0zm1.2-9.6h5.502l-2.115-2.115a.9.9 0 0 0-1.272 0zM18.6 6.6a1.2 1.2 0 1 1-2.4 0 1.2 1.2 0 0 1 2.4 0m-1.2 9.6a1.2 1.2 0 1 0 0-2.4 1.2 1.2 0 0 0 0 2.4"/></svg>