<svg xmlns="http://www.w3.org/2000/svg" width="24" height="24" fill="none"><path fill="#04071E" d="M3.424 2.576a.6.6 0 0 0-.848.848l1.69 1.69A3.6 3.6 0 0 0 3.6 7.2v7.2c0 .777.246 1.498.666 2.086l4.837-4.837a2.4 2.4 0 0 1 1.076-.622l7.336 7.337A4.2 4.2 0 0 1 15 19.2H6.917c.659.737 1.617 1.2 2.683 1.2H15a5.38 5.38 0 0 0 3.37-1.18l2.206 2.204a.6.6 0 0 0 .848-.848zM18.957 16.41l.917.917A5.4 5.4 0 0 0 20.4 15V9.6a3.6 3.6 0 0 0-1.2-2.683V15a4.3 4.3 0 0 1-.243 1.411M6.267 3.722l11.611 11.61Q18 14.886 18 14.4V7.2a3.6 3.6 0 0 0-3.6-3.6H7.2q-.485.001-.932.122M15 7.8a1.2 1.2 0 1 1-2.4 0 1.2 1.2 0 0 1 2.4 0m1.486 9.534-4.837-4.837a1.2 1.2 0 0 0-1.698 0l-4.837 4.837A3.6 3.6 0 0 0 7.2 18h7.2c.777 0 1.497-.246 2.086-.666"/></svg>