<svg xmlns="http://www.w3.org/2000/svg" width="24" height="24" fill="none"><path fill="#04071E" d="M20.4 10.8a9.6 9.6 0 1 0-7.534 9.377 7 7 0 0 1-.24-.513c-.383-.917-.584-1.924-.62-3.004v-.01L12 16.31V13.3c0-.892.706-1.7 1.68-1.7 1.087 0 2.108-.436 3.116-1.485a1.667 1.667 0 0 1 2.41.002q.36.374.718.643.236.179.472.316.004-.138.004-.276M10.21 9.492a.6.6 0 0 1 1.18 0l.01.108v5.403l-.01.107a.6.6 0 0 1-1.18 0l-.01-.107V9.6zM9.9 6.9a.9.9 0 1 1 1.8 0 .9.9 0 0 1-1.8 0m10.5 5.516a5.6 5.6 0 0 1-1.2-.699 7 7 0 0 1-.86-.77.467.467 0 0 0-.679 0c-1.193 1.242-2.513 1.853-3.981 1.853a.49.49 0 0 0-.48.5v3.001l.005.319q.048 1.435.529 2.58a5.8 5.8 0 0 0 1.865 2.4q.944.72 2.25 1.174a.46.46 0 0 0 .303 0c3.072-1.067 4.648-3.254 4.648-6.473V13.3l-.01-.1a.485.485 0 0 0-.47-.4 4.864 4.864 0 0 1-1.92-.384"/></svg>