<svg xmlns="http://www.w3.org/2000/svg" width="24" height="24" fill="none"><path fill="#04071E" d="M13.82 20.041a4.5 4.5 0 0 1-.563 1.274 1.5 1.5 0 0 1-2.467.08l-.082-.123-.124-.218a4.8 4.8 0 0 1-.393-1.014 5.6 5.6 0 0 1-.156-2.04h3.93q.111 1.083-.145 2.041M18.477 9l-3.465 7.086a1.75 1.75 0 0 1-1.096.915l-3.738-.002-.107-.03a1.74 1.74 0 0 1-.908-.72l-.085-.15-3.542-7.1zm1.773-7.001a.75.75 0 0 1 .743.648l.007.102v3.5a1.75 1.75 0 0 1-1.607 1.744l-.143.006H4.752a1.75 1.75 0 0 1-1.744-1.607l-.006-.143v-3.5a.75.75 0 0 1 .648-.744L3.752 2z"/></svg>