<svg xmlns="http://www.w3.org/2000/svg" width="24" height="24" fill="none"><path fill="#04071E" d="M4.8 4.8a2.4 2.4 0 0 1 2.4-2.4h9.6a2.4 2.4 0 0 1 2.4 2.4v2.4a2.4 2.4 0 0 1-2.4 2.4H7.2a2.4 2.4 0 0 1-2.4-2.4zm0 14.4a2.4 2.4 0 0 0 2.4 2.4h9.6a2.4 2.4 0 0 0 2.4-2.4v-2.4a2.4 2.4 0 0 0-2.4-2.4H7.2a2.4 2.4 0 0 0-2.4 2.4zM3 11.4a.6.6 0 1 0 0 1.2h18a.6.6 0 1 0 0-1.2z"/><path fill="#04071E" fill-rule="evenodd" d="M7.2 2.55A2.25 2.25 0 0 0 4.95 4.8v2.4A2.25 2.25 0 0 0 7.2 9.45h9.6a2.25 2.25 0 0 0 2.25-2.25V4.8a2.25 2.25 0 0 0-2.25-2.25zM4.65 4.8A2.55 2.55 0 0 1 7.2 2.25h9.6a2.55 2.55 0 0 1 2.55 2.55v2.4a2.55 2.55 0 0 1-2.55 2.55H7.2A2.55 2.55 0 0 1 4.65 7.2zM2.25 12a.75.75 0 0 1 .75-.75h18a.75.75 0 0 1 0 1.5H3a.75.75 0 0 1-.75-.75m.75-.45a.45.45 0 0 0 0 .9h18a.45.45 0 0 0 0-.9zm1.65 5.25a2.55 2.55 0 0 1 2.55-2.55h9.6a2.55 2.55 0 0 1 2.55 2.55v2.4a2.55 2.55 0 0 1-2.55 2.55H7.2a2.55 2.55 0 0 1-2.55-2.55zm2.55-2.25a2.25 2.25 0 0 0-2.25 2.25v2.4a2.25 2.25 0 0 0 2.25 2.25h9.6a2.25 2.25 0 0 0 2.25-2.25v-2.4a2.25 2.25 0 0 0-2.25-2.25z" clip-rule="evenodd"/></svg>