<svg xmlns="http://www.w3.org/2000/svg" width="24" height="24" fill="none"><path fill="#04071E" d="M12.6 9.55a3.601 3.601 0 1 0-1.2 0v3.65H9A1.8 1.8 0 0 0 7.2 15v.6h9.6V15a1.8 1.8 0 0 0-1.8-1.8h-2.4zm-9 9.65A2.4 2.4 0 0 1 6 16.8h12a2.4 2.4 0 0 1 2.4 2.4V21a.6.6 0 0 1-.6.6H4.2a.6.6 0 0 1-.6-.6z"/><path fill="#04071E" fill-rule="evenodd" d="M8.25 6a3.75 3.75 0 1 1 4.5 3.675v3.375H15A1.95 1.95 0 0 1 16.95 15v.75h-9.9V15A1.95 1.95 0 0 1 9 13.05h2.25V9.675A3.75 3.75 0 0 1 8.25 6M12 2.55a3.45 3.45 0 0 0-.575 6.852l.125.021v3.927H9A1.65 1.65 0 0 0 7.35 15v.45h9.3V15A1.65 1.65 0 0 0 15 13.35h-2.55V9.423l.125-.02A3.451 3.451 0 0 0 12 2.55m-6 14.4a2.25 2.25 0 0 0-2.25 2.25V21c0 .248.201.45.45.45h15.6a.45.45 0 0 0 .45-.45v-1.8A2.25 2.25 0 0 0 18 16.95zM3.45 19.2A2.55 2.55 0 0 1 6 16.65h12a2.55 2.55 0 0 1 2.55 2.55V21a.75.75 0 0 1-.75.75H4.2a.75.75 0 0 1-.75-.75z" clip-rule="evenodd"/></svg>