<svg xmlns="http://www.w3.org/2000/svg" width="24" height="24" fill="none"><path fill="#04071E" d="M20.25 1.5c.6 0 1.17.24 1.59.66s.66.99.66 1.59v4.5c0 .99-.39 1.95-1.095 2.655A3.76 3.76 0 0 1 18.75 12c-.99 0-1.95-.39-2.655-1.095A3.76 3.76 0 0 1 15 8.25v-4.5c0-.6.24-1.17.66-1.59s.99-.66 1.59-.66zm-.975 4.275a.7.7 0 0 0 .225-.525V3H18v2.25c0 .195.075.39.225.525.135.15.33.225.525.225s.39-.075.525-.225M18.75 13.5a5.2 5.2 0 0 0 3.712-1.537l.02-.024.018-.023v4.959a2.626 2.626 0 0 1-2.625 2.625H4.125A2.626 2.626 0 0 1 1.5 16.875v-9.75A2.626 2.626 0 0 1 4.125 4.5H13.5v3.75c0 1.401.546 2.72 1.537 3.711A5.2 5.2 0 0 0 18.75 13.5m-5.25-1.125a1.125 1.125 0 1 0-2.25 0 1.125 1.125 0 0 0 2.25 0m-3-3a1.125 1.125 0 1 0-2.25 0 1.125 1.125 0 0 0 2.25 0m-1.5 3a1.125 1.125 0 1 0-2.25 0 1.125 1.125 0 0 0 2.25 0M4.875 8.25a1.125 1.125 0 1 0 0 2.25 1.125 1.125 0 0 0 0-2.25m.375 8.25h13.5a.75.75 0 0 0 0-1.5H5.25a.75.75 0 0 0 0 1.5"/></svg>