<svg xmlns="http://www.w3.org/2000/svg" width="24" height="24" fill="none"><path fill="#04071E" d="M5.4 6a1.8 1.8 0 0 0-1.8 1.8V15a1.8 1.8 0 0 0 1.8 1.8h7.859a9 9 0 0 1-.051-.724v-.01l-.006-.305V13.05c0-.832.649-1.65 1.62-1.65.892 0 1.745-.364 2.607-1.287.307-.33.73-.511 1.167-.513h.01c.438.002.86.184 1.167.513q.314.335.627.576V7.8A1.8 1.8 0 0 0 18.6 6zM3 18h10.484q.17.628.446 1.2H3A.6.6 0 1 1 3 18m15.601 3.6a.4.4 0 0 1-.131-.023q-1.246-.446-2.114-1.176l-.002-.001a5.2 5.2 0 0 1-1.052-1.199V19.2q-.834-1.312-.895-3.162l-.005-.287V13.05c0-.248.188-.45.42-.45 1.285 0 2.44-.55 3.484-1.668a.4.4 0 0 1 .295-.132c.107 0 .214.044.295.132 1.044 1.118 2.2 1.668 3.484 1.668.232 0 .42.202.42.45v2.701l-.005.287q-.062 1.85-.894 3.162v.001a5.2 5.2 0 0 1-1.053 1.199l-.002.001q-.867.731-2.113 1.176a.4.4 0 0 1-.132.023"/></svg>