<svg xmlns="http://www.w3.org/2000/svg" width="24" height="24" fill="none"><path fill="#04071E" d="M13.2 6.6a6.6 6.6 0 0 1-9.6 5.88V15a1.8 1.8 0 0 0 1.8 1.8h13.2a1.8 1.8 0 0 0 1.8-1.8V7.8A1.8 1.8 0 0 0 18.6 6h-5.427q.027.297.027.6m-10.8 12A.6.6 0 0 1 3 18h18a.6.6 0 1 1 0 1.2H3a.6.6 0 0 1-.6-.6M6.6 12a5.4 5.4 0 1 0 0-10.8 5.4 5.4 0 0 0 0 10.8m2.224-7.624a.6.6 0 0 1 0 .848L7.45 6.6l1.375 1.376a.6.6 0 1 1-.848.848L6.6 7.448 5.224 8.824a.6.6 0 0 1-.848-.848L5.75 6.6 4.376 5.224a.6.6 0 0 1 .848-.848L6.6 5.75l1.376-1.375a.6.6 0 0 1 .848 0"/></svg>