<svg xmlns="http://www.w3.org/2000/svg" width="24" height="24" fill="none"><path fill="#04071E" d="M4.2 2.4a.6.6 0 0 0-.6.6v3A2.4 2.4 0 0 0 6 8.4h12A2.4 2.4 0 0 0 20.4 6V3a.6.6 0 0 0-.6-.6zM12.6 12h4.8a1.8 1.8 0 0 0 1.8-1.8v-.6H4.8v.6A1.8 1.8 0 0 0 6.6 12h4.8v3a.6.6 0 1 0 1.2 0zM6 17.4a.6.6 0 0 1 .6-.6h1.8a.6.6 0 1 1 0 1.2H6.6a.6.6 0 0 1-.6-.6M15.6 16.8a.6.6 0 1 0 0 1.2h1.8a.6.6 0 1 0 0-1.2zM12.6 17.4a.6.6 0 1 1-1.2 0 .6.6 0 0 1 1.2 0M12.6 19.8a.6.6 0 1 0-1.2 0v2.4a.6.6 0 1 0 1.2 0zM10.624 18.176a.6.6 0 0 1 0 .848l-1.8 1.8a.6.6 0 0 1-.848-.848l1.8-1.8a.6.6 0 0 1 .848 0M13.376 19.024a.6.6 0 0 1 .848-.848l1.8 1.8a.6.6 0 0 1-.848.848z"/><path fill="#04071E" fill-rule="evenodd" d="M4.2 2.55a.45.45 0 0 0-.45.45v3A2.25 2.25 0 0 0 4.9 7.963l.028.016A2.24 2.24 0 0 0 6 8.25h12A2.25 2.25 0 0 0 20.25 6V3a.45.45 0 0 0-.45-.45zM3.45 3a.75.75 0 0 1 .75-.75h15.6a.75.75 0 0 1 .75.75v3A2.55 2.55 0 0 1 18 8.55H6a2.54 2.54 0 0 1-1.216-.308l-.032-.018A2.55 2.55 0 0 1 3.45 6zm1.2 6.45h14.7v.75a1.95 1.95 0 0 1-1.95 1.95h-4.65V15a.75.75 0 0 1-1.5 0v-2.85H6.6a1.95 1.95 0 0 1-1.95-1.95zm.3.3v.45c0 .911.739 1.65 1.65 1.65h4.95V15a.45.45 0 0 0 .9 0v-3.15h4.95a1.65 1.65 0 0 0 1.65-1.65v-.45zm.9 7.65a.75.75 0 0 1 .75-.75h1.8a.75.75 0 0 1 0 1.5H6.6a.75.75 0 0 1-.75-.75m.75-.45a.45.45 0 0 0 0 .9h1.8a.45.45 0 0 0 0-.9zm4.65.45a.75.75 0 1 1 1.5 0 .75.75 0 0 1-1.5 0m.75-.45a.45.45 0 1 0 0 .9.45.45 0 0 0 0-.9m3.6 0a.45.45 0 0 0 0 .9h1.8a.45.45 0 0 0 0-.9zm-.75.45a.75.75 0 0 1 .75-.75h1.8a.75.75 0 0 1 0 1.5h-1.8a.75.75 0 0 1-.75-.75m-5.18.67a.75.75 0 1 1 1.06 1.06l-1.8 1.8a.75.75 0 0 1-1.06-1.06zm.848.212a.45.45 0 0 0-.636 0l-1.8 1.8a.45.45 0 1 0 .636.636l1.8-1.8a.45.45 0 0 0 0-.636m2.752-.212a.75.75 0 0 1 1.06 0l1.8 1.8a.75.75 0 1 1-1.06 1.06l-1.8-1.8a.75.75 0 0 1 0-1.06m.848.212a.45.45 0 0 0-.636.636l1.8 1.8a.45.45 0 0 0 .636-.636zM12 19.35a.45.45 0 0 0-.45.45v2.4a.45.45 0 0 0 .9 0v-2.4a.45.45 0 0 0-.45-.45m-.75.45a.75.75 0 0 1 1.5 0v2.4a.75.75 0 0 1-1.5 0z" clip-rule="evenodd"/></svg>