<svg xmlns="http://www.w3.org/2000/svg" width="24" height="24" fill="none"><path fill="#04071E" d="M13.796 4.09a1.8 1.8 0 0 0-2.46-1.562l-7.04 2.788A3 3 0 0 0 2.4 8.106v6.89a1.8 1.8 0 0 0 2.4 1.698V9.487a2.7 2.7 0 0 1 1.706-2.51zm3.603 2.512a1.8 1.8 0 0 0-2.463-1.674l-7.42 2.94A2.4 2.4 0 0 0 6 10.097v7.3a1.8 1.8 0 0 0 2.463 1.673L9.6 18.62v-7.176a2.4 2.4 0 0 1 1.516-2.23l6.283-2.49zm1.738.725A1.8 1.8 0 0 1 21.6 9.001v3.408a3.6 3.6 0 1 0-5.672 4.403A3 3 0 0 0 13.2 19.8c0 .532.106 1.066.329 1.568l-.266.106A1.8 1.8 0 0 1 10.8 19.8v-7.948a1.8 1.8 0 0 1 1.137-1.673zM21 14.4a2.4 2.4 0 1 1-4.8 0 2.4 2.4 0 0 1 4.8 0m1.8 5.4c0 1.494-1.2 3-4.2 3s-4.2-1.5-4.2-3a1.8 1.8 0 0 1 1.8-1.8H21a1.8 1.8 0 0 1 1.8 1.8"/></svg>