<svg xmlns="http://www.w3.org/2000/svg" width="24" height="24" fill="none"><path fill="#04071E" d="M11.337 2.528a1.8 1.8 0 0 1 2.459 1.561l-7.29 2.888A2.7 2.7 0 0 0 4.8 9.487v7.207a1.8 1.8 0 0 1-2.4-1.697V8.106a3 3 0 0 1 1.895-2.79zm3.6 2.4a1.8 1.8 0 0 1 2.462 1.674v.123l-6.283 2.488A2.4 2.4 0 0 0 9.6 11.445v7.175l-1.137.45A1.8 1.8 0 0 1 6 17.398V10.1a2.4 2.4 0 0 1 1.516-2.232zM21.6 9.001v7.947a1.8 1.8 0 0 1-1.137 1.674l-7.2 2.852A1.8 1.8 0 0 1 10.8 19.8v-7.948a1.8 1.8 0 0 1 1.137-1.673l7.2-2.852A1.8 1.8 0 0 1 21.6 9.001"/></svg>