<svg xmlns="http://www.w3.org/2000/svg" width="24" height="24" fill="none"><path fill="#04071E" d="M22.8 6.6a5.4 5.4 0 1 1-10.8 0 5.4 5.4 0 0 1 10.8 0m-2.576-2.224a.6.6 0 0 0-.848 0L16.2 7.55l-.776-.775a.6.6 0 1 0-.848.848l1.2 1.2a.6.6 0 0 0 .848 0l3.6-3.6a.6.6 0 0 0 0-.848M17.4 13.2q.308 0 .608-.028a9.8 9.8 0 0 1-1.453 1.701.7.7 0 0 0-.174.255l-.03.098-.378 1.574H8.027l-.375-1.574a.7.7 0 0 0-.206-.353c-1.668-1.575-2.559-3.325-2.64-5.226l-.002-.516C4.929 5.393 8.104 2.4 12 2.4q.153 0 .304.006A6.6 6.6 0 0 0 17.4 13.2M15.688 18l-.461 1.926c-.221.926-1.039 1.596-2.005 1.668l-2.271.006c-.983 0-1.843-.62-2.133-1.514l-.045-.16L8.313 18z"/></svg>