<svg xmlns="http://www.w3.org/2000/svg" width="24" height="24" fill="none"><path fill="#04071E" d="M2.4 4.5a.9.9 0 0 1 .9-.9h17.4a.9.9 0 1 1 0 1.8H3.3a.9.9 0 0 1-.9-.9m0 4.8a.9.9 0 0 1 .9-.9h17.4a.9.9 0 1 1 0 1.8H3.3a.9.9 0 0 1-.9-.9m.9 3.9a.9.9 0 1 0 0 1.8h17.4a.9.9 0 0 0 0-1.8zm-.9 5.7a.9.9 0 0 1 .9-.9h17.4a.9.9 0 1 1 0 1.8H3.3a.9.9 0 0 1-.9-.9"/><path fill="#04071E" fill-rule="evenodd" d="M3.3 3.75a.75.75 0 0 0 0 1.5h17.4a.75.75 0 0 0 0-1.5zm-1.05.75c0-.58.47-1.05 1.05-1.05h17.4a1.05 1.05 0 1 1 0 2.1H3.3c-.58 0-1.05-.47-1.05-1.05M3.3 8.55a.75.75 0 0 0 0 1.5h17.4a.75.75 0 0 0 0-1.5zm-1.05.75c0-.58.47-1.05 1.05-1.05h17.4a1.05 1.05 0 1 1 0 2.1H3.3c-.58 0-1.05-.47-1.05-1.05m0 4.8c0-.58.47-1.05 1.05-1.05h17.4a1.05 1.05 0 1 1 0 2.1H3.3c-.58 0-1.05-.47-1.05-1.05m1.05-.75a.75.75 0 1 0 0 1.5h17.4a.75.75 0 0 0 0-1.5zm0 4.8a.75.75 0 1 0 0 1.5h17.4a.75.75 0 0 0 0-1.5zm-1.05.75c0-.58.47-1.05 1.05-1.05h17.4a1.05 1.05 0 1 1 0 2.1H3.3c-.58 0-1.05-.47-1.05-1.05" clip-rule="evenodd"/></svg>