<svg xmlns="http://www.w3.org/2000/svg" width="24" height="24" fill="none"><path fill="#04071E" d="M3.3 3.6a.9.9 0 1 0 0 1.8h17.4a.9.9 0 1 0 0-1.8zm0 7.2a.9.9 0 1 0 0 1.8h8.567a6.6 6.6 0 0 1 1.737-1.8zm0 3.6h7.748a6.6 6.6 0 0 0-.248 1.8H3.3a.9.9 0 0 1 0-1.8m0 3.6h7.748a6.6 6.6 0 0 0 .82 1.8H3.3a.9.9 0 0 1 0-1.8m0-10.8a.9.9 0 1 0 0 1.8h17.4a.9.9 0 1 0 0-1.8zm19.5 9a5.4 5.4 0 1 1-10.8 0 5.4 5.4 0 0 1 10.8 0m-5.4-3a.6.6 0 0 0-.6.6v2.4a.6.6 0 0 0 1.2 0v-2.4a.6.6 0 0 0-.6-.6m0 6.15a.75.75 0 1 0 0-1.5.75.75 0 0 0 0 1.5"/><path fill="#04071E" fill-rule="evenodd" d="M2.25 4.5c0-.58.47-1.05 1.05-1.05h17.4a1.05 1.05 0 1 1 0 2.1H3.3c-.58 0-1.05-.47-1.05-1.05m1.05-.75a.75.75 0 0 0 0 1.5h17.4a.75.75 0 0 0 0-1.5zM2.25 8.1c0-.58.47-1.05 1.05-1.05h17.4a1.05 1.05 0 1 1 0 2.1H3.3c-.58 0-1.05-.47-1.05-1.05m1.05-.75a.75.75 0 0 0 0 1.5h17.4a.75.75 0 0 0 0-1.5zM2.25 11.7c0-.58.47-1.05 1.05-1.05h10.778l-.387.273a6.5 6.5 0 0 0-1.698 1.759l-.044.068H3.3c-.58 0-1.05-.47-1.05-1.05m1.05-.75a.75.75 0 1 0 0 1.5h8.487a6.8 6.8 0 0 1 1.37-1.5zm14.1 0a5.25 5.25 0 1 0 0 10.5 5.25 5.25 0 0 0 0-10.5m-5.55 5.25a5.55 5.55 0 1 1 11.1 0 5.55 5.55 0 0 1-11.1 0m4.8-2.4a.75.75 0 1 1 1.5 0v2.4a.75.75 0 0 1-1.5 0zm.75-.45a.45.45 0 0 0-.45.45v2.4a.45.45 0 0 0 .9 0v-2.4a.45.45 0 0 0-.45-.45m-14.1 1.2a.75.75 0 1 0 0 1.5h7.352c.01-.516.08-1.018.201-1.5zm-1.05.75c0-.58.47-1.05 1.05-1.05h7.947l-.054.19a6.5 6.5 0 0 0-.243 1.76v.15H3.3c-.58 0-1.05-.47-1.05-1.05m14.25 3.3a.9.9 0 1 1 1.8 0 .9.9 0 0 1-1.8 0m.9-.6a.6.6 0 1 0 0 1.2.6.6 0 0 0 0-1.2m-14.1.15a.75.75 0 1 0 0 1.5h8.297a6.7 6.7 0 0 1-.661-1.5zm-1.05.75c0-.58.47-1.05 1.05-1.05h7.862l.03.11c.18.63.451 1.222.801 1.758l.151.232H3.3c-.58 0-1.05-.47-1.05-1.05" clip-rule="evenodd"/></svg>