<svg xmlns="http://www.w3.org/2000/svg" width="24" height="24" fill="none"><path fill="#04071E" d="M10.5 5.7a.9.9 0 0 0-.9-.9H7.2l-.24.006A4.8 4.8 0 0 0 7.2 14.4h2.4l.122-.008A.9.9 0 0 0 9.6 12.6H7.2l-.197-.006A3 3 0 0 1 7.2 6.6h2.4l.122-.008A.9.9 0 0 0 10.5 5.7m11.1 3.9a4.8 4.8 0 0 0-4.8-4.8h-2.4l-.122.008A.9.9 0 0 0 14.4 6.6h2.4l.197.006a3 3 0 0 1 2.491 4.328 3 3 0 0 1 1.488 1.034A4.8 4.8 0 0 0 21.6 9.6M7.5 8.7h9a.9.9 0 0 1 .122 1.792l-.122.008h-9a.9.9 0 0 1-.122-1.792zm6.9 5.7v-.6a1.8 1.8 0 0 1 1.8-1.8h2.4a1.8 1.8 0 0 1 1.8 1.8v.6h.6a1.8 1.8 0 0 1 1.8 1.8V18h-2.4v-.6a.6.6 0 1 0-1.2 0v.6h-3.6v-.6a.6.6 0 1 0-1.2 0v.6H12v-1.8a1.8 1.8 0 0 1 1.8-1.8zm1.2-.6v.6h3.6v-.6a.6.6 0 0 0-.6-.6h-2.4a.6.6 0 0 0-.6.6m4.8 6v-.6h2.4V21a1.8 1.8 0 0 1-1.8 1.8h-7.2A1.8 1.8 0 0 1 12 21v-1.8h2.4v.6a.6.6 0 1 0 1.2 0v-.6h3.6v.6a.6.6 0 1 0 1.2 0"/><path fill="#04071E" fill-rule="evenodd" d="M14.4 4.75h2.4a4.85 4.85 0 0 1 4.22 7.243l-.037.065-.046-.06a2.96 2.96 0 0 0-1.464-1.017l-.056-.017.026-.053a2.95 2.95 0 0 0-2.448-4.255l-.196-.006H14.4a.95.95 0 0 1-.129-1.891h.004zm-7.2 0h2.4a.95.95 0 0 1 .129 1.891h-.003l-.126.01-2.4-.001a2.95 2.95 0 0 0-.195 5.894l.196.006h2.4a.95.95 0 0 1 .128 1.891h-.003l-.126.01-2.4-.001a4.85 4.85 0 0 1-.242-9.694h.001zm0 .1-.238.006A4.75 4.75 0 0 0 7.2 14.35h2.398l.12-.008A.85.85 0 0 0 9.6 12.65H7.198L7 12.643a3.05 3.05 0 0 1 .2-6.093h2.398l.12-.008A.85.85 0 0 0 9.6 4.85zm7.202 0-.119.008A.85.85 0 0 0 14.4 6.55h2.402l.199.006a3.05 3.05 0 0 1 2.557 4.348c.56.185 1.047.527 1.41.975A4.75 4.75 0 0 0 16.8 4.85zM7.5 8.65h9a.95.95 0 0 1 .129 1.891h-.003l-.126.01-9-.001a.95.95 0 0 1-.129-1.891h.004zm.002.1-.119.008A.85.85 0 0 0 7.5 10.45h8.998l.12-.008A.85.85 0 0 0 16.5 8.75zm8.698 3.3a1.75 1.75 0 0 0-1.75 1.75v.65h-.65a1.75 1.75 0 0 0-1.75 1.75v1.75h2.3v-.55a.65.65 0 1 1 1.3 0v.55h3.5v-.55a.65.65 0 1 1 1.3 0v.55h2.3V16.2A1.75 1.75 0 0 0 21 14.45h-.65v-.65a1.75 1.75 0 0 0-1.75-1.75zm-1.85 1.75a1.85 1.85 0 0 1 1.85-1.85h2.4a1.85 1.85 0 0 1 1.85 1.85v.55H21a1.85 1.85 0 0 1 1.85 1.85v1.85h-2.5v-.65a.55.55 0 1 0-1.1 0v.65h-3.7v-.65a.55.55 0 1 0-1.1 0v.65h-2.5V16.2a1.85 1.85 0 0 1 1.85-1.85h.55zm1.2 0a.65.65 0 0 1 .65-.65h2.4a.65.65 0 0 1 .65.65v.65h-3.7zm.65-.55a.55.55 0 0 0-.55.55v.55h3.5v-.55a.55.55 0 0 0-.55-.55zm-4.25 5.9h2.5v.65a.55.55 0 1 0 1.1 0v-.65h3.7v.65a.55.55 0 1 0 1.1 0v-.65h2.5V21A1.85 1.85 0 0 1 21 22.85h-7.2A1.85 1.85 0 0 1 11.95 21zm.1.1V21c0 .966.784 1.75 1.75 1.75H21A1.75 1.75 0 0 0 22.75 21v-1.75h-2.3v.55a.65.65 0 1 1-1.3 0v-.55h-3.5v.55a.65.65 0 1 1-1.3 0v-.55z" clip-rule="evenodd"/></svg>