<svg xmlns="http://www.w3.org/2000/svg" width="24" height="24" fill="none"><path fill="#04071E" d="M5.843 4.559a8.707 8.707 0 0 1 12.514 12.107l-.2.207q-1.372 1.372-4.593 4.486a2.25 2.25 0 0 1-3.128 0l-3.85-3.749q-.426-.42-.743-.737a8.707 8.707 0 0 1 0-12.314m9.187 3.127-.084-.073a.75.75 0 0 0-.882-.007l-.094.08L12 9.655l-1.97-1.97-.084-.072a.75.75 0 0 0-.882-.007l-.094.08-.073.084a.75.75 0 0 0-.007.882l.08.094 1.969 1.97-1.97 1.97-.072.084a.75.75 0 0 0-.007.882l.08.094.084.073a.75.75 0 0 0 .882.007l.094-.08 1.97-1.97 1.97 1.97.084.073a.75.75 0 0 0 .882.007l.094-.08.073-.084a.75.75 0 0 0 .007-.883l-.08-.094-1.969-1.97 1.97-1.969.072-.084a.75.75 0 0 0 .007-.883zl-.084-.073z"/></svg>