<svg xmlns="http://www.w3.org/2000/svg" width="24" height="24" fill="none"><path fill="#04071E" d="M21.6 3.15a4.9 4.9 0 0 1-1.2-.334q-1.09-.457-2.06-1.47a.467.467 0 0 0-.679 0C16.468 2.59 15.148 3.2 13.68 3.2a.49.49 0 0 0-.48.5V6.7l.005.319c.05 1.496.455 2.76 1.207 3.78q.495.67 1.187 1.2.944.72 2.25 1.174a.46.46 0 0 0 .303 0C21.224 12.107 22.8 9.92 22.8 6.701V3.7l-.01-.1a.486.486 0 0 0-.47-.4q-.366 0-.72-.05m-6.836 9.72.107.084c.744.568 1.612 1.016 2.584 1.354.353.123.737.123 1.09 0 1.189-.413 2.218-.99 3.055-1.745V17.4a3 3 0 0 1-3 3H5.4a3 3 0 0 1-3-3V8.848l9.296 5.47a.6.6 0 0 0 .608 0zM12 4.8V6.71l.006.338v.01c.056 1.696.52 3.205 1.44 4.453q.192.26.408.502L12 13.104 2.418 7.467A3 3 0 0 1 5.4 4.8z"/></svg>