<svg xmlns="http://www.w3.org/2000/svg" width="24" height="24" fill="none"><path fill="#04071E" d="M17.4 13.2a6.57 6.57 0 0 0 4.2-1.509V17.4a3 3 0 0 1-3 3H5.4a3 3 0 0 1-3-3V8.848l9.296 5.47a.6.6 0 0 0 .608 0l2.677-1.576c.749.296 1.565.458 2.419.458m-12-8.4h5.649a6.6 6.6 0 0 0-.249 1.8 6.6 6.6 0 0 0 2.93 5.486L12 13.104 2.418 7.467A3 3 0 0 1 5.4 4.8m12 7.2a5.4 5.4 0 1 0 0-10.8 5.4 5.4 0 0 0 0 10.8m-2.824-4.976a.6.6 0 1 1 .848-.848L16.8 7.55V4.2a.6.6 0 0 1 1.2 0v3.351l1.376-1.375a.6.6 0 1 1 .848.848l-2.4 2.4a.6.6 0 0 1-.42.176h-.008a.6.6 0 0 1-.418-.173l-.003-.003z"/></svg>