<svg xmlns="http://www.w3.org/2000/svg" width="24" height="24" fill="none"><path fill="#04071E" d="M17.4 13.2a6.57 6.57 0 0 0 4.2-1.509V17.4a3 3 0 0 1-3 3H5.4a3 3 0 0 1-3-3V8.848l9.296 5.47a.6.6 0 0 0 .608 0l2.677-1.575c.749.295 1.565.457 2.419.457m-12-8.4h5.649a6.6 6.6 0 0 0-.249 1.8 6.6 6.6 0 0 0 2.93 5.486L12 13.104 2.418 7.468A3 3 0 0 1 5.4 4.8m7.362 1.104A2.4 2.4 0 0 0 14.48 2.93l-.187-.668q.458-.353.986-.597l.405.43a2.4 2.4 0 0 0 3.491.002l.39-.413q.537.255 1.001.622l-.151.507a2.4 2.4 0 0 0 1.747 3.022l.42.1a5.6 5.6 0 0 1 .011 1.22l-.552.14a2.4 2.4 0 0 0-1.717 2.974l.187.668a5.2 5.2 0 0 1-.986.597l-.405-.43a2.4 2.4 0 0 0-3.491-.001l-.39.413a5.2 5.2 0 0 1-1.002-.622l.152-.507a2.4 2.4 0 0 0-1.748-3.023l-.42-.099a5.6 5.6 0 0 1-.011-1.22zm5.839.696a1.2 1.2 0 1 0-2.4 0 1.2 1.2 0 0 0 2.4 0"/></svg>