<svg xmlns="http://www.w3.org/2000/svg" width="24" height="24" fill="none"><path fill="#04071E" d="M17.4 13.2a6.57 6.57 0 0 0 4.2-1.509V17.4a3 3 0 0 1-3 3H5.4a3 3 0 0 1-3-3V8.848l9.296 5.47a.6.6 0 0 0 .608 0l2.677-1.576c.749.296 1.565.458 2.419.458m-12-8.4h5.649a6.6 6.6 0 0 0-.249 1.8 6.6 6.6 0 0 0 2.93 5.486L12 13.104 2.418 7.467A3 3 0 0 1 5.4 4.8M12 6.6a5.4 5.4 0 1 0 10.8 0 5.4 5.4 0 0 0-10.8 0m6.476-3.124a.6.6 0 0 1 .848 0l2.1 2.1a.6.6 0 0 1 .003.846l-2.103 2.102a.6.6 0 1 1-.848-.848L19.552 6.6H17.7a2.1 2.1 0 0 0-2.1 2.1V9a.6.6 0 1 1-1.2 0v-.3a3.3 3.3 0 0 1 3.3-3.3h1.852l-1.076-1.076a.6.6 0 0 1 0-.848"/></svg>