<svg xmlns="http://www.w3.org/2000/svg" width="24" height="24" fill="none"><path fill="#04071E" d="M19.2 12.48v.72H15a.6.6 0 0 0-.6.598v.016l-.004.072a3.09 3.09 0 0 1-.307 1.145c-.153.304-.371.59-.687.801-.313.208-.757.368-1.402.368s-1.089-.16-1.402-.368a2.03 2.03 0 0 1-.686-.8 3.1 3.1 0 0 1-.312-1.218v-.015A.6.6 0 0 0 9 13.2H4.8V8.4A2.4 2.4 0 0 1 7.2 6h2.427q.056-.619.221-1.2H7.2a3.6 3.6 0 0 0-3.6 3.6V18a3.6 3.6 0 0 0 3.6 3.6h9.6a3.6 3.6 0 0 0 3.6-3.6v-6.309q-.554.459-1.2.79m-3-.48a5.4 5.4 0 1 0 0-10.8 5.4 5.4 0 0 0 0 10.8m-2.824-4.976a.6.6 0 0 1 .848-.848L15.6 7.55V4.2a.6.6 0 1 1 1.2 0v3.351l1.376-1.375a.6.6 0 1 1 .848.848l-2.4 2.4a.6.6 0 0 1-.42.176h-.008a.6.6 0 0 1-.418-.173l-.003-.003z"/></svg>