<svg xmlns="http://www.w3.org/2000/svg" width="24" height="24" fill="none"><path fill="#04071E" d="M2.99 4.855a.9.9 0 0 1 .996.262L8.4 10.31l4.414-5.193A.9.9 0 0 1 14.4 5.7v11.4a.9.9 0 1 1-1.8 0V8.148l-3.514 4.135a.9.9 0 0 1-1.372 0L4.2 8.148V17.1a.9.9 0 1 1-1.8 0V5.7a.9.9 0 0 1 .59-.845m12.874 9.209a.9.9 0 0 1 1.272 0l.864.863V5.7a.9.9 0 0 1 1.8 0v9.227l.864-.863a.9.9 0 0 1 1.272 1.272l-2.4 2.4a.9.9 0 0 1-1.272 0l-2.4-2.4a.9.9 0 0 1 0-1.272"/><path fill="#04071E" fill-rule="evenodd" d="M3.91 5.182A.8.8 0 0 0 2.5 5.7v11.4a.8.8 0 0 0 1.6 0V8.148a.1.1 0 0 1 .176-.064l3.515 4.134a.8.8 0 0 0 1.219 0l3.514-4.134a.1.1 0 0 1 .176.064V17.1a.8.8 0 0 0 1.6 0V5.7a.8.8 0 0 0-1.41-.518l-4.414 5.193a.1.1 0 0 1-.152 0zm-.955-.42a1 1 0 0 1 1.107.29L8.4 10.156l4.338-5.104A1 1 0 0 1 14.5 5.7v11.4a1 1 0 1 1-2 0V8.42l-3.338 3.928a1 1 0 0 1-1.524 0L4.3 8.42V17.1a1 1 0 1 1-2 0V5.7a1 1 0 0 1 .655-.939M18.9 4.9a.8.8 0 0 0-.8.8v9.227a.1.1 0 0 1-.17.07l-.864-.863a.8.8 0 1 0-1.132 1.132l2.4 2.4a.8.8 0 0 0 1.132 0l2.4-2.4a.8.8 0 1 0-1.132-1.132l-.863.864a.1.1 0 0 1-.171-.07V5.7a.8.8 0 0 0-.8-.8m-1 .8a1 1 0 0 1 2 0v8.986l.693-.693a1 1 0 0 1 1.414 1.414l-2.4 2.4a1 1 0 0 1-1.414 0l-2.4-2.4a1 1 0 0 1 1.414-1.414l.693.693z" clip-rule="evenodd"/></svg>