<svg xmlns="http://www.w3.org/2000/svg" width="24" height="24" fill="none"><path fill="#04071E" d="M21.621 6.879A3 3 0 0 0 19.5 6V3.75a.746.746 0 0 0-.75-.75.746.746 0 0 0-.75.75V6h-3V3.75a.749.749 0 0 0-1.281-.531.75.75 0 0 0-.219.531V6h-3V3.75a.749.749 0 0 0-1.281-.531A.75.75 0 0 0 9 3.75V6H6V3.75a.749.749 0 0 0-1.281-.531.75.75 0 0 0-.219.531V6a3 3 0 0 0-3 3v6a3 3 0 0 0 3 3v2.25a.749.749 0 0 0 1.281.531A.75.75 0 0 0 6 20.25V18h3v2.25a.749.749 0 0 0 1.281.531.75.75 0 0 0 .219-.531V18h3v2.25a.749.749 0 0 0 1.281.531.75.75 0 0 0 .219-.531V18h3v2.25a.749.749 0 0 0 1.281.531.75.75 0 0 0 .219-.531V18a3 3 0 0 0 3-3V9c0-.795-.317-1.559-.879-2.121M19.5 14.25a.749.749 0 0 1-.75.75H5.25a.746.746 0 0 1-.75-.75v-4.5A.749.749 0 0 1 5.25 9h13.5a.746.746 0 0 1 .75.75zM6 13.5h12v-3H6z"/></svg>