<svg xmlns="http://www.w3.org/2000/svg" width="24" height="24" fill="none"><path fill="#04071E" d="M12 6.6a5.4 5.4 0 1 1-10.8 0 5.4 5.4 0 0 1 10.8 0M6.175 9.424l.003.003a.6.6 0 0 0 .418.173h.008a.6.6 0 0 0 .42-.176l2.4-2.4a.6.6 0 1 0-.848-.848L7.2 7.552V4.2a.6.6 0 0 0-1.2 0v3.352L4.624 6.176a.6.6 0 0 0-.848.848zm9.129-.455c-.62-.48-1.386-.78-2.279-.852a6.6 6.6 0 0 1-.715 1.796q.14-.013.29-.013c1.708 0 2.7 1.257 2.7 3.3 0 2.003-1.04 3.3-2.7 3.3s-2.7-1.297-2.7-3.3q0-.495.077-.928c-.574.343-1.205.6-1.875.756L8.1 13.2c0 2.921 1.749 5.1 4.5 5.1 1.442 0 2.609-.599 3.392-1.588.658 1.373 1.763 2.188 3.208 2.188 2.432 0 3.9-2.308 3.9-5.7 0-5.468-4.432-9.9-9.9-9.9q-.435 0-.862.037c.31.545.546 1.138.691 1.765L13.2 5.1a8.1 8.1 0 0 1 8.1 8.1c0 2.522-.877 3.9-2.1 3.9s-2.1-1.378-2.1-3.9V9l-.008-.122A.9.9 0 0 0 16.2 8.1a.896.896 0 0 0-.896.87M3.337 12.34c.545.31 1.138.545 1.765.69L5.1 13.2a8.1 8.1 0 0 0 10.858 7.619.9.9 0 0 1 .613 1.692 9.9 9.9 0 0 1-3.37.59c-5.469 0-9.9-4.433-9.9-9.9q0-.437.036-.863"/><path fill="#04071E" fill-rule="evenodd" d="M7.2 4.2a.6.6 0 0 0-1.2 0v3.352L4.624 6.176a.6.6 0 0 0-.848.848l2.4 2.4.002.003a.6.6 0 0 0 .418.173h.008a.6.6 0 0 0 .42-.176l2.4-2.4a.6.6 0 1 0-.848-.848L7.2 7.552zm-.597 5.3a.5.5 0 0 0 .35-.146l2.4-2.4a.5.5 0 0 0-.706-.707L7.1 7.793V4.2a.5.5 0 1 0-1 0v3.593L4.554 6.247a.5.5 0 0 0-.707.707l2.399 2.399.003.003a.5.5 0 0 0 .348.144h.006m5.767.308a6.6 6.6 0 0 0 .655-1.691c.847.068 1.58.342 2.183.78l.096.072a.896.896 0 0 1 .896-.87.9.9 0 0 1 .892.779L17.1 9v4.2c0 2.522.877 3.9 2.1 3.9s2.1-1.378 2.1-3.9a8.1 8.1 0 0 0-8.27-8.098 6.6 6.6 0 0 0-.692-1.765A10 10 0 0 1 13.2 3.3c5.468 0 9.9 4.432 9.9 9.9 0 3.392-1.468 5.7-3.9 5.7-1.41 0-2.496-.776-3.16-2.09l-.048-.098-.07.085C15.14 17.737 14 18.3 12.6 18.3c-2.751 0-4.5-2.179-4.5-5.1q0-.086.002-.171a6.6 6.6 0 0 0 1.875-.757l-.02.128q-.057.377-.057.8c0 2.003 1.04 3.3 2.7 3.3s2.7-1.297 2.7-3.3c0-2.043-.992-3.3-2.7-3.3a3 3 0 0 0-.29.013zm3.6 7.087c-.8.941-1.957 1.505-3.37 1.505-1.404 0-2.557-.557-3.357-1.49C8.443 15.98 8 14.68 8 13.2q0-.087.002-.174l.002-.077.075-.018a6.5 6.5 0 0 0 1.847-.745l.187-.112-.038.215Q10 12.712 10 13.2c0 .985.256 1.786.706 2.338.447.55 1.093.862 1.894.862s1.447-.312 1.895-.862c.45-.552.705-1.353.705-2.338 0-1.007-.244-1.807-.687-2.353-.44-.544-1.086-.847-1.913-.847q-.144 0-.281.012l-.193.017.097-.167a6.5 6.5 0 0 0 .705-1.768l.02-.084.085.007c.845.069 1.582.338 2.192.77a1 1 0 0 1 1.966.078v.006l.01.13v4.2c0 1.25.217 2.206.578 2.846.358.636.854.953 1.421.953s1.063-.317 1.422-.953c.36-.64.578-1.596.578-2.847a8 8 0 0 0-8.169-7.998l-.08.002-.02-.08a6.5 6.5 0 0 0-.68-1.737l-.077-.136.156-.014q.43-.037.87-.037c5.523 0 10 4.477 10 10 0 1.709-.37 3.155-1.055 4.178C21.457 18.404 20.452 19 19.2 19c-1.44 0-2.55-.788-3.23-2.105m-12.72-4.72.137.076c.536.306 1.12.538 1.737.68l.08.02-.002.08-.002.17a8 8 0 0 0 10.724 7.524 1 1 0 1 1 .68 1.88 10 10 0 0 1-3.404.595c-5.523 0-10-4.477-10-10q0-.44.037-.87zM12.1 6.6a5.5 5.5 0 1 1-11 0 5.5 5.5 0 0 1 11 0m-8.763 5.738a10 10 0 0 0-.037.862c0 5.468 4.432 9.9 9.9 9.9 1.163 0 2.299-.2 3.37-.589a.9.9 0 1 0-.612-1.692 8.1 8.1 0 0 1-10.856-7.79 6.6 6.6 0 0 1-1.765-.69M6.6 12a5.4 5.4 0 1 0 0-10.8 5.4 5.4 0 0 0 0 10.8" clip-rule="evenodd"/></svg>