<svg xmlns="http://www.w3.org/2000/svg" width="24" height="24" fill="none"><path fill="#04071E" d="M5.7 2.4a3.3 3.3 0 0 0-3.3 3.3v12.6a3.3 3.3 0 0 0 3.3 3.3h1.8a.9.9 0 1 0 0-1.8H5.7a1.5 1.5 0 0 1-1.5-1.5V5.7a1.5 1.5 0 0 1 1.5-1.5h1.8a.9.9 0 1 0 0-1.8zm8.4 6.3a.9.9 0 0 1 .9.9v3.3a.9.9 0 0 0 1.8 0V12a4.8 4.8 0 1 0-5.086 4.792l-.005.008.014-.008q.138.008.277.008c.453 0 .865-.05 1.26-.159.425-.115.9.06 1.063.469.206.515-.026 1.113-.561 1.261A6.5 6.5 0 0 1 12 18.6a6.6 6.6 0 1 1 6.6-6.6v.9c0 .548-.163 1.057-.443 1.483a7 7 0 0 1-.157.37v-.156a2.7 2.7 0 0 1-2.1 1.003 2.7 2.7 0 0 1-2.197-1.13 3 3 0 1 1-.443-5.193.9.9 0 0 1 .84-.577M12 10.8a1.2 1.2 0 1 0 0 2.4 1.2 1.2 0 0 0 0-2.4m9.6-5.1a3.3 3.3 0 0 0-3.3-3.3h-1.8a.9.9 0 0 0 0 1.8h1.8a1.5 1.5 0 0 1 1.5 1.5v12.6a1.5 1.5 0 0 1-1.5 1.5h-1.8a.9.9 0 0 0 0 1.8h1.8a3.3 3.3 0 0 0 3.3-3.3z"/><path fill="#04071E" fill-rule="evenodd" d="m11.604 16.784.1.007h.01l-.005.01.014-.009A5 5 0 0 0 12 16.8c.453 0 .865-.05 1.26-.159.425-.115.9.06 1.063.469.206.515-.026 1.113-.561 1.261A6.5 6.5 0 0 1 12 18.6a6.6 6.6 0 1 1 6.6-6.6v.9c0 .548-.163 1.057-.443 1.483a6 6 0 0 1-.088.214l-.018.042-.051.114v-.156l-.083.098-.017.019a2.7 2.7 0 0 1-2 .886 2.7 2.7 0 0 1-2.197-1.13 3 3 0 1 1-.443-5.193A.9.9 0 0 1 15 9.6v3.3a.9.9 0 0 0 1.8 0V12a4.8 4.8 0 1 0-5.196 4.784m1.606-7.64a1 1 0 0 1 1.89.456v3.3a.8.8 0 1 0 1.6 0V12a4.7 4.7 0 1 0-4.98 4.692h.009q.135.008.271.008c.445 0 .848-.05 1.234-.155.462-.126.995.062 1.181.528.224.56-.024 1.227-.626 1.395A6.6 6.6 0 0 1 12 18.7a6.7 6.7 0 1 1 6.7-6.7v.9c0 .564-.167 1.09-.454 1.529q-.072.186-.155.366l-.108-.024a2.8 2.8 0 0 1-2.083.929 2.8 2.8 0 0 1-2.22-1.094 3.1 3.1 0 1 1-.47-5.461M2.3 5.7a3.4 3.4 0 0 1 3.4-3.4h1.8a1 1 0 1 1 0 2H5.7a1.4 1.4 0 0 0-1.4 1.4v12.6a1.4 1.4 0 0 0 1.4 1.4h1.8a1 1 0 1 1 0 2H5.7a3.4 3.4 0 0 1-3.4-3.4zm9.7 5.2a1.1 1.1 0 1 0 0 2.2 1.1 1.1 0 0 0 0-2.2m6.3-8.6a3.4 3.4 0 0 1 3.4 3.4v12.6a3.4 3.4 0 0 1-3.4 3.4h-1.8a1 1 0 0 1 0-2h1.8a1.4 1.4 0 0 0 1.4-1.4V5.7a1.4 1.4 0 0 0-1.4-1.4h-1.8a1 1 0 0 1 0-2zM2.4 5.7a3.3 3.3 0 0 1 3.3-3.3h1.8a.9.9 0 1 1 0 1.8H5.7a1.5 1.5 0 0 0-1.5 1.5v12.6a1.5 1.5 0 0 0 1.5 1.5h1.8a.9.9 0 1 1 0 1.8H5.7a3.3 3.3 0 0 1-3.3-3.3zm8.4 6.3a1.2 1.2 0 1 1 2.4 0 1.2 1.2 0 0 1-2.4 0m7.5-9.6a3.3 3.3 0 0 1 3.3 3.3v12.6a3.3 3.3 0 0 1-3.3 3.3h-1.8a.9.9 0 1 1 0-1.8h1.8a1.5 1.5 0 0 0 1.5-1.5V5.7a1.5 1.5 0 0 0-1.5-1.5h-1.8a.9.9 0 0 1 0-1.8z" clip-rule="evenodd"/></svg>