<svg xmlns="http://www.w3.org/2000/svg" width="24" height="24" fill="none"><path fill="#04071E" d="M5.4 12a.6.6 0 1 0-1.2 0 6.6 6.6 0 0 0 6 6.573V21a.6.6 0 0 0 1.2 0v-.847a6.6 6.6 0 0 1-.6-2.753A5.4 5.4 0 0 1 5.4 12m9-6v5.52a6.62 6.62 0 0 0-3.35 4.071A3.6 3.6 0 0 1 7.2 12V6a3.6 3.6 0 0 1 7.2 0M12 17.4a5.4 5.4 0 1 0 10.8 0 5.4 5.4 0 0 0-10.8 0m7.8-3.6a.6.6 0 0 1 .6.6v1.8a.6.6 0 0 1-.6.6H18a.6.6 0 0 1 0-1.2h.562a2.4 2.4 0 0 0-2.859.403.6.6 0 1 1-.849-.849 3.6 3.6 0 0 1 4.346-.572V14.4a.6.6 0 0 1 .6-.6m-1.051 6.638a3.6 3.6 0 0 1-3.149-.22v.182a.6.6 0 1 1-1.2 0v-1.8a.6.6 0 0 1 .6-.6h1.8a.6.6 0 1 1 0 1.2h-.562q.09.05.186.092a2.4 2.4 0 0 0 2.673-.495.6.6 0 1 1 .849.849 3.6 3.6 0 0 1-1.197.792"/><path fill="#04071E" fill-rule="evenodd" d="M10.8 2.55A3.45 3.45 0 0 0 7.35 6v6a3.45 3.45 0 0 0 3.587 3.447 6.77 6.77 0 0 1 3.313-4.018V6a3.45 3.45 0 0 0-3.45-3.45M7.05 6a3.75 3.75 0 0 1 7.5 0v5.611l-.082.042a6.47 6.47 0 0 0-3.273 3.98l-.029.1-.105.008A3.75 3.75 0 0 1 7.05 12zm-3 6a.75.75 0 0 1 1.5 0c0 2.9 2.35 5.25 5.25 5.25h.15v.15c0 .96.21 1.872.586 2.69l.014.03V21a.75.75 0 1 1-1.5 0v-2.291a6.75 6.75 0 0 1-6-6.709m.75-.45a.45.45 0 0 0-.45.45 6.45 6.45 0 0 0 5.864 6.424l.136.012V21a.45.45 0 0 0 .9 0v-.814a6.7 6.7 0 0 1-.598-2.638A5.55 5.55 0 0 1 5.25 12a.45.45 0 0 0-.45-.45m7.05 5.85a5.55 5.55 0 1 1 11.1 0 5.55 5.55 0 0 1-11.1 0m5.55-5.25a5.25 5.25 0 1 0 0 10.5 5.25 5.25 0 0 0 0-10.5m2.4 1.8a.45.45 0 0 0-.45.45v.442l-.225-.13a3.44 3.44 0 0 0-1.665-.461 3.45 3.45 0 0 0-2.5 1.01.45.45 0 1 0 .637.636 2.55 2.55 0 0 1 3.037-.428l-.072.281H18a.45.45 0 0 0 0 .9h1.8a.45.45 0 0 0 .45-.45v-1.8a.45.45 0 0 0-.45-.45m-.747.384a.75.75 0 0 1 1.497.066v1.8a.75.75 0 0 1-.75.75H18a.75.75 0 0 1-.219-1.467 2.26 2.26 0 0 0-1.972.626.75.75 0 1 1-1.06-1.06 3.75 3.75 0 0 1 4.304-.715M15 18.15a.45.45 0 0 0-.45.45v1.8a.45.45 0 0 0 .9 0v-.442l.225.13a3.44 3.44 0 0 0 1.665.461 3.45 3.45 0 0 0 2.5-1.01.45.45 0 1 0-.637-.636 2.55 2.55 0 0 1-3.037.428l.072-.281h.562a.45.45 0 1 0 0-.9zm-.75.45a.75.75 0 0 1 .75-.75h1.8a.75.75 0 0 1 .22 1.467 2.26 2.26 0 0 0 1.971-.626.75.75 0 1 1 1.06 1.06 3.75 3.75 0 0 1-4.304.715.75.75 0 0 1-1.497-.066z" clip-rule="evenodd"/></svg>