<svg xmlns="http://www.w3.org/2000/svg" width="24" height="24" fill="none"><path fill="#04071E" d="M13.913 2.854a2.75 2.75 0 0 0-3.826 0L2.99 9.724A3.25 3.25 0 0 0 2 12.06v6.69A2.25 2.25 0 0 0 4.25 21h6.04a22 22 0 0 1-1.356-2.03 10 10 0 0 1-.636-1.281C8.136 17.276 8 16.805 8 16.343c0-1.088.435-2.152 1.122-2.946C9.81 12.6 10.819 12 12 12s2.19.6 2.878 1.397c.687.794 1.122 1.858 1.122 2.946 0 .462-.136.933-.298 1.345a10 10 0 0 1-.636 1.282A22 22 0 0 1 13.71 21h6.041A2.25 2.25 0 0 0 22 18.75v-6.69a3.25 3.25 0 0 0-.99-2.336zM11.13 3.932a1.25 1.25 0 0 1 1.738 0l3.454 3.342c-.712.086-1.384.257-2.021.465-.681.222-1.384.51-2.04.78-.388.16-.76.313-1.101.442-.983.37-1.878.613-2.782.582-.71-.024-1.466-.22-2.302-.72zm.133 16.699a.92.92 0 0 0 .79.369.92.92 0 0 0 .682-.369C13.624 19.46 15 17.465 15 16.343 15 14.686 13.657 13 12 13s-3 1.686-3 3.343c0 1.122 1.376 3.117 2.264 4.288M13.5 16a1.5 1.5 0 1 1-3 0 1.5 1.5 0 0 1 3 0"/></svg>