<svg xmlns="http://www.w3.org/2000/svg" width="24" height="24" fill="none"><path fill="#04071E" d="M21.707 3.293a1 1 0 0 0-1.414 0L19 4.586l-.293-.293a1 1 0 1 0-1.414 1.414l1 1a1 1 0 0 0 1.414 0l2-2a1 1 0 0 0 0-1.414M3 16.993h11.003a1 1 0 0 1 .117 1.994l-.117.006H3A1 1 0 0 1 2.883 17zM3 11h11.003a1 1 0 0 1 .117 1.993l-.117.007H3a1 1 0 0 1-.117-1.993zm0-6h11.003a1 1 0 0 1 .117 1.993L14.003 7H3a1 1 0 0 1-.117-1.993zm17.293 11.293a1 1 0 0 1 1.414 1.414l-2 2a1 1 0 0 1-1.414 0l-1-1a1 1 0 0 1 1.414-1.414l.293.293z"/></svg>