<svg xmlns="http://www.w3.org/2000/svg" width="24" height="24" fill="none"><path fill="#04071E" d="M19.184 3.619a1.2 1.2 0 0 0-1.542-.948l-8.4 2.625A1.2 1.2 0 0 0 8.4 6.44V16.2a3 3 0 1 0 1.2 2.4V10.04L18 7.416v3.41a6.6 6.6 0 0 1 1.2.222V3.816a1 1 0 0 0-.016-.197m3.616 13.78a5.4 5.4 0 1 1-10.8 0 5.4 5.4 0 0 1 10.8 0m-2.716-.522-3.593-1.98a.6.6 0 0 0-.89.525v3.96a.6.6 0 0 0 .89.526l3.593-1.98a.6.6 0 0 0 0-1.051"/><path fill="#04071E" fill-rule="evenodd" d="M17.598 2.528a1.35 1.35 0 0 1 1.752 1.288v7.43l-.19-.053a6.4 6.4 0 0 0-1.173-.217l-.137-.012V7.62l-8.1 2.531V18.6a3.15 3.15 0 1 1-1.5-2.684V6.441c0-.59.384-1.112.948-1.288zm1.438 1.115a1.05 1.05 0 0 0-1.349-.83l-8.4 2.626A1.05 1.05 0 0 0 8.55 6.44V16.5l-.24-.18a2.85 2.85 0 1 0 1.14 2.28V9.93l8.7-2.718v3.48q.46.05.9.161V3.816q0-.09-.014-.173M17.4 12.15a5.25 5.25 0 1 0 0 10.5 5.25 5.25 0 0 0 0-10.5m-5.55 5.25a5.55 5.55 0 1 1 11.1 0 5.55 5.55 0 0 1-11.1 0m3.602-1.978a.75.75 0 0 1 1.112-.657l3.593 1.98a.75.75 0 0 1 0 1.314l-3.593 1.98a.75.75 0 0 1-1.112-.657zm.967-.394a.45.45 0 0 0-.667.394v3.96c0 .343.367.56.667.395l3.593-1.98a.45.45 0 0 0 0-.789z" clip-rule="evenodd"/></svg>