<svg xmlns="http://www.w3.org/2000/svg" width="24" height="24" fill="none"><path fill="#04071E" d="M2.3 6a.9.9 0 1 0 0 1.8h17.4a.9.9 0 1 0 0-1.8zm-.9 6.9a.9.9 0 0 1 .9-.9h11.504a6.6 6.6 0 0 0-1.737 1.8H2.3a.9.9 0 0 1-.9-.9m.9 5.1h8.727c.057.63.202 1.234.423 1.8H2.3a.9.9 0 1 1 0-1.8m20.7-.6a5.4 5.4 0 1 1-10.8 0 5.4 5.4 0 0 1 10.8 0m-2.744-.524-3.565-1.98a.6.6 0 0 0-.891.524v3.96a.6.6 0 0 0 .891.525l3.565-1.98a.6.6 0 0 0 0-1.05"/><path fill="#04071E" fill-rule="evenodd" d="M1.25 6.9c0-.58.47-1.05 1.05-1.05h17.4a1.05 1.05 0 1 1 0 2.1H2.3c-.58 0-1.05-.47-1.05-1.05m1.05-.75a.75.75 0 1 0 0 1.5h17.4a.75.75 0 0 0 0-1.5zm0 6a.75.75 0 0 0 0 1.5h9.687a6.8 6.8 0 0 1 1.37-1.5zm-1.05.75c0-.58.47-1.05 1.05-1.05h11.978l-.387.273a6.5 6.5 0 0 0-1.698 1.759l-.044.068H2.3c-.58 0-1.05-.47-1.05-1.05m16.35-.75a5.25 5.25 0 1 0 0 10.5 5.25 5.25 0 0 0 0-10.5m-5.55 5.25a5.55 5.55 0 1 1 11.1 0 5.55 5.55 0 0 1-11.1 0m3.6-1.98a.75.75 0 0 1 1.114-.656l3.565 1.98a.75.75 0 0 1 0 1.312l-3.565 1.98a.75.75 0 0 1-1.114-.656zm.969-.394a.45.45 0 0 0-.669.394v3.96c0 .344.369.56.669.394l3.564-1.98a.45.45 0 0 0 0-.787zM2.3 18.15a.75.75 0 0 0 0 1.5h8.934a6.7 6.7 0 0 1-.343-1.5zm-1.05.75c0-.58.47-1.05 1.05-1.05h8.864l.012.137a6.4 6.4 0 0 0 .414 1.759l.08.204H2.3c-.58 0-1.05-.47-1.05-1.05" clip-rule="evenodd"/></svg>