<svg xmlns="http://www.w3.org/2000/svg" width="24" height="24" fill="none"><path fill="#04071E" d="M2.3 6a.9.9 0 1 0 0 1.8h17.4a.9.9 0 1 0 0-1.8zm-.9 6.9a.9.9 0 0 1 .9-.9h13.603a2 2 0 0 0-.081.322 5.37 5.37 0 0 0-2.223 1.478H2.3a.9.9 0 0 1-.9-.9m.9 5.1h8.803a1.8 1.8 0 0 0 1.419 1.178q.112.32.262.622H2.3a.9.9 0 1 1 0-1.8m15.967.398a1.2 1.2 0 1 1-1.334-1.997 1.2 1.2 0 0 1 1.334 1.997m3.472-1.598h.661a.6.6 0 0 1 0 1.2h-.661A4.185 4.185 0 0 1 18.2 21.54v.661a.6.6 0 0 1-1.2 0v-.661A4.185 4.185 0 0 1 13.461 18H12.8a.6.6 0 0 1 0-1.2h.661A4.185 4.185 0 0 1 17 13.261v-.66a.6.6 0 0 1 1.2 0v.66a4.185 4.185 0 0 1 3.539 3.54m-3.844 3.586a3 3 0 1 0-.59-5.972 3 3 0 0 0 .59 5.972"/><path fill="#04071E" fill-rule="evenodd" d="M1.25 6.9c0-.58.47-1.05 1.05-1.05h17.4a1.05 1.05 0 1 1 0 2.1H2.3c-.58 0-1.05-.47-1.05-1.05m1.05-.75a.75.75 0 1 0 0 1.5h17.4a.75.75 0 0 0 0-1.5zm0 6a.75.75 0 0 0 0 1.5h11.233a5.5 5.5 0 0 1 2.157-1.44l.013-.06zm-1.05.75c0-.58.47-1.05 1.05-1.05h13.815l-.07.2a1.7 1.7 0 0 0-.075.295l-.014.088-.085.03a5.2 5.2 0 0 0-2.16 1.437l-.045.05H2.3c-.58 0-1.05-.47-1.05-1.05m16.35-.75a.45.45 0 0 0-.45.45v.791l-.128.019a4.03 4.03 0 0 0-3.412 3.412l-.019.128H12.8a.45.45 0 0 0 0 .9h.791l.019.128a4.03 4.03 0 0 0 3.412 3.412l.128.02v.79a.45.45 0 0 0 .9 0v-.79l.128-.02a4.03 4.03 0 0 0 3.412-3.411l.019-.129h.791a.45.45 0 0 0 0-.9h-.791l-.019-.128a4.03 4.03 0 0 0-3.412-3.412l-.128-.019v-.79a.45.45 0 0 0-.45-.45m-.53-.08a.75.75 0 0 1 1.28.53v.534a4.33 4.33 0 0 1 3.517 3.516h.533a.75.75 0 1 1 0 1.5h-.533a4.33 4.33 0 0 1-3.517 3.517v.533a.75.75 0 1 1-1.5 0v-.533a4.33 4.33 0 0 1-3.517-3.517H12.8a.75.75 0 1 1 0-1.5h.533a4.33 4.33 0 0 1 3.517-3.516V12.6a.75.75 0 0 1 .22-.53m-.955 2.553a3.15 3.15 0 1 1 2.97 5.554 3.15 3.15 0 0 1-2.97-5.554m2.04-.018a2.85 2.85 0 1 0-1.11 5.591 2.85 2.85 0 0 0 1.11-5.59m-.35 1.765a1.05 1.05 0 1 0-.41 2.061 1.05 1.05 0 0 0 .41-2.06m-.722-.217a1.35 1.35 0 1 1 1.034 2.494 1.35 1.35 0 0 1-1.034-2.494M2.3 18.15a.75.75 0 0 0 0 1.5h10.247a6 6 0 0 1-.137-.34A1.95 1.95 0 0 1 11 18.15zm-1.05.75c0-.58.47-1.05 1.05-1.05h8.91l.034.1a1.65 1.65 0 0 0 1.301 1.08l.089.014.03.085q.108.311.254.604l.108.217H2.3c-.58 0-1.05-.47-1.05-1.05" clip-rule="evenodd"/></svg>