<svg xmlns="http://www.w3.org/2000/svg" width="24" height="24" fill="none"><path fill="#04071E" d="M21.842 6.659A2.25 2.25 0 0 0 20.25 6H3V4.5A1.505 1.505 0 0 0 1.5 3H.75a.749.749 0 0 0-.531 1.281c.14.141.332.219.531.219h.75v15.75a.749.749 0 0 0 1.281.531A.75.75 0 0 0 3 20.25V18h6v2.25a.749.749 0 0 0 .75.75h9a.749.749 0 0 0 .75-.75V18h.75a2.251 2.251 0 0 0 2.25-2.25v-7.5c0-.597-.237-1.168-.659-1.591M6 14.25a.746.746 0 0 1-.75.75.746.746 0 0 1-.75-.75v-4.5a.749.749 0 0 1 1.281-.531A.75.75 0 0 1 6 9.75zm3.75.75a.746.746 0 0 1-.75-.75v-4.5a.749.749 0 0 1 1.281-.531.75.75 0 0 1 .219.531v4.5a.746.746 0 0 1-.75.75m3.75 4.5h-3V18h3zm.75-4.5a.746.746 0 0 1-.75-.75v-4.5a.749.749 0 0 1 1.281-.531.75.75 0 0 1 .219.531v4.5a.746.746 0 0 1-.75.75M18 19.5h-3V18h3zm1.5-5.25a.749.749 0 0 1-1.281.531.75.75 0 0 1-.219-.531v-4.5a.746.746 0 0 1 .75-.75.746.746 0 0 1 .75.75z"/></svg>