<svg xmlns="http://www.w3.org/2000/svg" width="24" height="24" fill="none"><path fill="#04071E" d="m18.971 12.657-5.795 5.796a2.64 2.64 0 0 0-.694 1.224l-.45 1.798a1.067 1.067 0 0 0 1.295 1.294l1.798-.45a2.64 2.64 0 0 0 1.224-.693l5.796-5.795a2.244 2.244 0 0 0-3.174-3.174M8.401 3a.6.6 0 0 0-1.2 0v.6h-.6A1.8 1.8 0 0 0 4.8 5.4v14.4a1.8 1.8 0 0 0 1.8 1.8h4.204q.012-.206.065-.416l.449-1.798a3.84 3.84 0 0 1 1.01-1.782l5.794-5.795c.32-.32.687-.563 1.078-.731V5.4a1.8 1.8 0 0 0-1.8-1.8h-.6V3a.6.6 0 1 0-1.2 0v.6h-3V3a.6.6 0 1 0-1.2 0v.6h-3zM9 8.4H15a.6.6 0 1 1 0 1.2H9a.6.6 0 0 1 0-1.2m6.599 4.2a.6.6 0 0 1-.6.6H9A.6.6 0 1 1 9 12h6a.6.6 0 0 1 .6.6m-6.6 3h2.4a.6.6 0 1 1 0 1.2H9a.6.6 0 1 1 0-1.2"/></svg>