<svg xmlns="http://www.w3.org/2000/svg" width="24" height="24" fill="none"><path fill="#04071E" d="M3.6 10.822V16.8l.006.212A3.6 3.6 0 0 0 7.2 20.4H12v-4.8l.006-.211a3.6 3.6 0 0 1 3.383-3.383L15.6 12h4.8V7.2l-.006-.212A3.6 3.6 0 0 0 16.8 3.6h-5.445a2.727 2.727 0 0 1-.888 4.212l-2.27 1.106-.53 1.535c-.527 1.523-2.465 1.97-3.605.83zm16.25 3.161a2.4 2.4 0 0 0 .43-.782L15.6 13.2l-.188.007a2.4 2.4 0 0 0-2.205 2.214l-.007.179.001 4.68c.355-.115.681-.314.95-.583l5.546-5.545zm-9.604-9.918L7.933 1.752a1.8 1.8 0 0 0-2.89.485L4.08 4.213a1.2 1.2 0 0 1-.687.609l-1.322.456a1.2 1.2 0 0 0-.457 1.983L2.75 8.398 1.2 9.95v.848h.849l1.55-1.551 1.138 1.137a1.2 1.2 0 0 0 1.982-.457l.457-1.322a1.2 1.2 0 0 1 .609-.687l1.976-.962a1.8 1.8 0 0 0 .485-2.891"/></svg>