<svg xmlns="http://www.w3.org/2000/svg" width="24" height="24" fill="none"><path fill="#04071E" d="M6 2.4a2.4 2.4 0 0 0-2.4 2.4v9.083a6.9 6.9 0 0 1 3-.683 6.96 6.96 0 0 1 4.76 1.881c1.066.991 1.84 2.337 1.84 3.519 0 .62-.218 1.259-.52 1.823a6.4 6.4 0 0 1-.825 1.177H15.6a2.4 2.4 0 0 0 2.4-2.4V4.8a2.4 2.4 0 0 0-2.4-2.4zm0 4.2a.6.6 0 0 1 .6-.6H15a.6.6 0 0 1 .6.6v1.2a.6.6 0 0 1-.6.6H6.6a.6.6 0 0 1-.6-.6zm13.2.6h.6a.6.6 0 0 1 .6.6v1.8a.6.6 0 0 1-.6.6h-.6zm0 4.2h.6a.6.6 0 0 1 .6.6v1.8a.6.6 0 0 1-.6.6h-.6zm0 4.2h.6a.6.6 0 0 1 .6.6V18a.6.6 0 0 1-.6.6h-.6zm-18 3c0-1.419 2.083-4.2 5.4-4.2 3.313 0 5.4 2.76 5.4 4.2 0 1.418-2.087 4.2-5.4 4.2s-5.4-2.76-5.4-4.2m3.733 2.494a3 3 0 1 0 3.333-4.988 3 3 0 0 0-3.333 4.988M8.097 19.6a1.8 1.8 0 1 0-2.994-2 1.8 1.8 0 0 0 2.994 2"/></svg>