<svg xmlns="http://www.w3.org/2000/svg" width="24" height="24" fill="none"><path fill="#04071E" d="M10.985 3.164a1 1 0 0 0-1.973-.329l-.86 5.162L3.998 8a1 1 0 1 0 .002 2l3.817-.002-.667 4L3 14a1 1 0 0 0 0 2l3.817-.002-.807 4.837a1 1 0 0 0 1.973.33l.862-5.168h2.33c.17-.721.461-1.396.85-2.001l-2.847.001.667-4 4.976-.003-.287 1.72a6.5 6.5 0 0 1 2.138-.662l.176-1.06 4.153-.002a1 1 0 0 0-.002-2l-3.817.002.804-4.828a1 1 0 1 0-1.972-.328l-.86 5.157-4.975.003zM23 17.5a5.5 5.5 0 1 1-11 0 5.5 5.5 0 0 1 11 0m-7.146-2.354a.5.5 0 0 0-.708.708l1.647 1.646-1.647 1.646a.5.5 0 0 0 .708.708l1.646-1.647 1.646 1.647a.5.5 0 0 0 .708-.708L18.207 17.5l1.647-1.646a.5.5 0 0 0-.708-.708L17.5 16.793z"/></svg>