<svg xmlns="http://www.w3.org/2000/svg" width="24" height="24" fill="none"><path fill="#04071E" d="M13.667 3.667c0-.46.373-.834.833-.834h6.667a.833.833 0 0 1 0 1.667H14.5a.833.833 0 0 1-.833-.833m-5.872-.179a1.11 1.11 0 0 0-1.013-.655H2.833a.833.833 0 0 0 0 1.667h2.949c.437 0 .833.256 1.013.655l6.91 15.356c.18.4.576.656 1.013.656h6.449a.833.833 0 0 0 0-1.667h-5.449c-.437 0-.833-.256-1.013-.655z"/><path fill="#04071E" fill-rule="evenodd" d="M1.75 3.667c0-.599.485-1.084 1.083-1.084h3.949c.535 0 1.021.314 1.24.803l6.911 15.356a.86.86 0 0 0 .785.508h5.449a1.083 1.083 0 0 1 0 2.167h-6.449a1.36 1.36 0 0 1-1.24-.803L6.566 5.258a.86.86 0 0 0-.785-.508H2.833A1.083 1.083 0 0 1 1.75 3.667m1.083-.584a.583.583 0 0 0 0 1.167h2.949c.535 0 1.021.314 1.24.802l6.911 15.357a.86.86 0 0 0 .785.508h6.449a.583.583 0 0 0 0-1.167h-5.449a1.36 1.36 0 0 1-1.24-.803L7.566 3.591a.86.86 0 0 0-.785-.508zm10.584.584c0-.599.485-1.084 1.083-1.084h6.667a1.083 1.083 0 0 1 0 2.167H14.5a1.083 1.083 0 0 1-1.083-1.083m1.083-.584a.583.583 0 1 0 0 1.167h6.667a.583.583 0 0 0 0-1.167z" clip-rule="evenodd"/></svg>