<svg xmlns="http://www.w3.org/2000/svg" width="24" height="24" fill="none"><path fill="#04071E" d="M6 15.6a3.6 3.6 0 1 1 3.552-4.2H11.4V7.8A1.8 1.8 0 0 1 13.2 6h1.25a3.602 3.602 0 1 1 0 1.2H13.2a.6.6 0 0 0-.6.6v8.4a.6.6 0 0 0 .6.6h1.25a3.602 3.602 0 1 1 0 1.2H13.2a1.8 1.8 0 0 1-1.8-1.8v-3.6H9.552A3.6 3.6 0 0 1 6 15.6"/><path fill="#04071E" fill-rule="evenodd" d="M18 3.148a3.45 3.45 0 0 0-3.402 2.876l-.021.125H13.2a1.65 1.65 0 0 0-1.65 1.65v3.75H9.425l-.021-.125a3.452 3.452 0 1 0 0 1.15l.02-.125h2.126v3.75c0 .911.739 1.65 1.65 1.65h1.377l.02.125a3.452 3.452 0 1 0 0-1.15l-.02.125H13.2a.75.75 0 0 1-.75-.75V7.8a.75.75 0 0 1 .75-.75h1.377l.02.125a3.452 3.452 0 1 0 3.404-4.026m-3.675 2.701a3.752 3.752 0 1 1 0 1.5H13.2a.45.45 0 0 0-.45.45v8.4c0 .249.201.45.45.45h1.125a3.752 3.752 0 1 1 0 1.5H13.2a1.95 1.95 0 0 1-1.95-1.95v-3.45H9.677a3.752 3.752 0 1 1 0-1.5h1.573V7.8a1.95 1.95 0 0 1 1.95-1.95z" clip-rule="evenodd"/></svg>