<svg xmlns="http://www.w3.org/2000/svg" width="24" height="24" fill="none"><path fill="#04071E" d="m8.185 12.6 1.198 1.049a.6.6 0 1 1-.79.903l-2.4-2.1a.6.6 0 0 1 0-.903l2.4-2.1a.6.6 0 1 1 .79.903L8.185 11.4H12.6a.6.6 0 0 1 0 1.2zM21.6 16.8a2.4 2.4 0 0 1-2.4 2.4H4.8a2.4 2.4 0 0 1-2.4-2.4V7.2a2.4 2.4 0 0 1 2.4-2.4h14.4a2.4 2.4 0 0 1 2.4 2.4zM14.4 18V6H4.8a1.2 1.2 0 0 0-1.2 1.2v9.6A1.2 1.2 0 0 0 4.8 18z"/><path fill="#04071E" fill-rule="evenodd" d="M4.8 4.85A2.35 2.35 0 0 0 2.45 7.2v9.6a2.35 2.35 0 0 0 2.35 2.35h14.4a2.35 2.35 0 0 0 2.35-2.35V7.2a2.35 2.35 0 0 0-2.35-2.35zM2.35 7.2A2.45 2.45 0 0 1 4.8 4.75h14.4a2.45 2.45 0 0 1 2.45 2.45v9.6a2.45 2.45 0 0 1-2.45 2.45H4.8a2.45 2.45 0 0 1-2.45-2.45zm1.2 0c0-.69.56-1.25 1.25-1.25h9.6a.05.05 0 0 1 .05.05v12a.05.05 0 0 1-.05.05H4.8c-.69 0-1.25-.56-1.25-1.25zM4.8 6.05A1.15 1.15 0 0 0 3.65 7.2v9.6c0 .635.515 1.15 1.15 1.15h9.55V6.05zm4.602 3.488a.55.55 0 0 0-.776-.052l-2.4 2.1a.55.55 0 0 0 0 .828l2.4 2.1a.55.55 0 1 0 .724-.828l-1.198-1.048a.05.05 0 0 1 .033-.088H12.6a.55.55 0 0 0 0-1.1H8.185a.05.05 0 0 1-.033-.088l1.198-1.048a.55.55 0 0 0 .052-.776M8.56 9.41a.65.65 0 1 1 .856.978l-1.098.961H12.6a.65.65 0 1 1 0 1.3H8.318l1.098.96a.65.65 0 0 1-.856.98l-2.4-2.1a.65.65 0 0 1 0-.98z" clip-rule="evenodd"/></svg>