<svg xmlns="http://www.w3.org/2000/svg" width="24" height="24" fill="none"><path fill="#04071E" d="M2.4 7.2A3.6 3.6 0 0 1 6 3.6h12a3.6 3.6 0 0 1 3.6 3.6v8.4a3.6 3.6 0 0 1-3.6 3.6H6a3.6 3.6 0 0 1-3.6-3.6zM6 4.8a2.4 2.4 0 0 0-2.4 2.4v6h16.8v-6A2.4 2.4 0 0 0 18 4.8z"/><path fill="#04071E" fill-rule="evenodd" d="M6 3.75A3.45 3.45 0 0 0 2.55 7.2v8.4A3.45 3.45 0 0 0 6 19.05h12a3.45 3.45 0 0 0 3.45-3.45V7.2A3.45 3.45 0 0 0 18 3.75zM2.25 7.2A3.75 3.75 0 0 1 6 3.45h12a3.75 3.75 0 0 1 3.75 3.75v8.4A3.75 3.75 0 0 1 18 19.35H6a3.75 3.75 0 0 1-3.75-3.75zm1.2 0A2.55 2.55 0 0 1 6 4.65h12a2.55 2.55 0 0 1 2.55 2.55v6a.15.15 0 0 1-.15.15H3.6a.15.15 0 0 1-.15-.15zM6 4.95A2.25 2.25 0 0 0 3.75 7.2v5.85h16.5V7.2A2.25 2.25 0 0 0 18 4.95z" clip-rule="evenodd"/></svg>