<svg xmlns="http://www.w3.org/2000/svg" width="24" height="24" fill="none"><path fill="#04071E" d="M18 3.6a3.6 3.6 0 0 1 3.6 3.6v5.109a6.57 6.57 0 0 0-4.2-1.509 6.57 6.57 0 0 0-3.6 1.067V4.8H6a2.4 2.4 0 0 0-2.4 2.4v8.4A2.4 2.4 0 0 0 6 18h4.827q.056.619.221 1.2H6a3.6 3.6 0 0 1-3.6-3.6V7.2A3.6 3.6 0 0 1 6 3.6zm4.8 13.8a5.4 5.4 0 1 1-10.8 0 5.4 5.4 0 0 1 10.8 0M18 15a.6.6 0 0 0-1.2 0v1.8H15a.6.6 0 0 0 0 1.2h1.8v1.8a.6.6 0 1 0 1.2 0V18h1.8a.6.6 0 0 0 0-1.2H18z"/><path fill="#04071E" fill-rule="evenodd" d="M6 3.65A3.55 3.55 0 0 0 2.45 7.2v8.4A3.55 3.55 0 0 0 6 19.15h4.983a6.6 6.6 0 0 1-.202-1.1H6a2.45 2.45 0 0 1-2.45-2.45V7.2A2.45 2.45 0 0 1 6 4.75h7.85v7.026a6.6 6.6 0 0 1 3.55-1.026c1.57 0 3.013.544 4.15 1.454V7.2A3.55 3.55 0 0 0 18 3.65zM2.35 7.2A3.65 3.65 0 0 1 6 3.55h12a3.65 3.65 0 0 1 3.65 3.65v5.215l-.082-.068A6.52 6.52 0 0 0 17.4 10.85a6.5 6.5 0 0 0-3.573 1.06l-.077.05V4.85H6A2.35 2.35 0 0 0 3.65 7.2v8.4A2.35 2.35 0 0 0 6 17.95h4.873l.004.046q.056.614.22 1.19l.018.064H6a3.65 3.65 0 0 1-3.65-3.65zm15.05 4.85a5.35 5.35 0 1 0 0 10.7 5.35 5.35 0 0 0 0-10.7m-5.45 5.35a5.45 5.45 0 1 1 10.9 0 5.45 5.45 0 0 1-10.9 0m4.8-2.4a.65.65 0 0 1 1.3 0v1.75h1.75a.65.65 0 0 1 0 1.3h-1.75v1.75a.65.65 0 1 1-1.3 0v-1.75H15a.65.65 0 1 1 0-1.3h1.75zm.65-.55a.55.55 0 0 0-.55.55v1.85H15a.55.55 0 0 0 0 1.1h1.85v1.85a.55.55 0 1 0 1.1 0v-1.85h1.85a.55.55 0 0 0 0-1.1h-1.85V15a.55.55 0 0 0-.55-.55" clip-rule="evenodd"/></svg>