<svg xmlns="http://www.w3.org/2000/svg" width="24" height="24" fill="none"><path fill="#04071E" d="m12.6 13.409 1.049-1.198a.6.6 0 0 1 .903.79l-2.1 2.4a.6.6 0 0 1-.903 0l-2.1-2.4a.6.6 0 1 1 .903-.79l1.048 1.198V8.994a.6.6 0 1 1 1.2 0zM4.8 19.2a2.4 2.4 0 0 1-2.4-2.4V7.2a2.4 2.4 0 0 1 2.4-2.4h14.4a2.4 2.4 0 0 1 2.4 2.4v9.6a2.4 2.4 0 0 1-2.4 2.4zm-1.2-2.4A1.2 1.2 0 0 0 4.8 18h14.4a1.2 1.2 0 0 0 1.2-1.2v-6h-6.6V8.994a1.8 1.8 0 0 0-3.6 0V10.8H3.6z"/><path fill="#04071E" fill-rule="evenodd" d="M13.8 10.9a.1.1 0 0 1-.1-.1V8.994a1.7 1.7 0 1 0-3.4 0V10.8a.1.1 0 0 1-.1.1H3.7v5.9a1.1 1.1 0 0 0 1.1 1.1h14.4a1.1 1.1 0 0 0 1.1-1.1v-5.9zm6.6-.1v6a1.2 1.2 0 0 1-1.2 1.2H4.8a1.2 1.2 0 0 1-1.2-1.2v-6h6.6V8.994a1.8 1.8 0 0 1 3.6 0V10.8zm-7.7 2.343.873-.998a.7.7 0 1 1 1.054.922l-2.1 2.4a.7.7 0 0 1-1.054 0l-2.1-2.4a.7.7 0 0 1 1.054-.922l.873.998V8.994a.7.7 0 1 1 1.4 0zm.949-.932a.6.6 0 0 1 .903.79l-2.1 2.4a.6.6 0 0 1-.903 0l-2.1-2.4a.6.6 0 1 1 .903-.79l1.048 1.198V8.994a.6.6 0 1 1 1.2 0v4.415zM4.8 19.3a2.5 2.5 0 0 1-2.5-2.5V7.2a2.5 2.5 0 0 1 2.5-2.5h14.4a2.5 2.5 0 0 1 2.5 2.5v9.6a2.5 2.5 0 0 1-2.5 2.5zm-2.4-2.5a2.4 2.4 0 0 0 2.4 2.4h14.4a2.4 2.4 0 0 0 2.4-2.4V7.2a2.4 2.4 0 0 0-2.4-2.4H4.8a2.4 2.4 0 0 0-2.4 2.4z" clip-rule="evenodd"/></svg>