<svg xmlns="http://www.w3.org/2000/svg" width="24" height="24" fill="none"><path fill="#04071E" d="m12.6 10.591 1.049 1.198a.6.6 0 1 0 .903-.79l-2.1-2.4a.6.6 0 0 0-.903 0l-2.1 2.4a.6.6 0 1 0 .902.79l1.049-1.198v4.415a.6.6 0 1 0 1.2 0zM4.8 19.2a2.4 2.4 0 0 1-2.4-2.4V7.2a2.4 2.4 0 0 1 2.4-2.4h14.4a2.4 2.4 0 0 1 2.4 2.4v9.6a2.4 2.4 0 0 1-2.4 2.4zm-1.2-2.4A1.2 1.2 0 0 0 4.8 18h14.4a1.2 1.2 0 0 0 1.2-1.2v-6h-4.6a1.8 1.8 0 0 0-.345-.591l-2.1-2.4a1.8 1.8 0 0 0-2.71 0l-2.1 2.4c-.156.179-.27.38-.345.591H3.6z"/><path fill="#04071E" fill-rule="evenodd" d="M15.8 10.9a.1.1 0 0 1-.095-.067c-.07-.2-.178-.39-.326-.558l-2.1-2.4a1.7 1.7 0 0 0-2.558 0l-2.1 2.4a1.7 1.7 0 0 0-.326.558.1.1 0 0 1-.095.067H3.7v5.9a1.1 1.1 0 0 0 1.1 1.1h14.4a1.1 1.1 0 0 0 1.1-1.1v-5.9zm4.6-.1v6a1.2 1.2 0 0 1-1.2 1.2H4.8a1.2 1.2 0 0 1-1.2-1.2v-6h4.6c.074-.211.189-.412.345-.591l2.1-2.4a1.8 1.8 0 0 1 2.71 0l2.1 2.4c.156.179.27.38.345.591zm-7.8-.209v4.415a.6.6 0 1 1-1.2 0V10.59l-1.049 1.198a.6.6 0 1 1-.903-.79l2.1-2.4a.6.6 0 0 1 .903 0l2.1 2.4a.6.6 0 1 1-.902.79zm.1.266.873.998a.7.7 0 1 0 1.054-.922l-2.1-2.4a.7.7 0 0 0-1.054 0l-2.1 2.4a.7.7 0 0 0 1.054.922l.873-.998v4.149a.7.7 0 1 0 1.4 0zM4.8 19.3a2.5 2.5 0 0 1-2.5-2.5V7.2a2.5 2.5 0 0 1 2.5-2.5h14.4a2.5 2.5 0 0 1 2.5 2.5v9.6a2.5 2.5 0 0 1-2.5 2.5zm-2.4-2.5a2.4 2.4 0 0 0 2.4 2.4h14.4a2.4 2.4 0 0 0 2.4-2.4V7.2a2.4 2.4 0 0 0-2.4-2.4H4.8a2.4 2.4 0 0 0-2.4 2.4z" clip-rule="evenodd"/></svg>