<svg xmlns="http://www.w3.org/2000/svg" width="24" height="24" fill="none"><path fill="#04071E" d="m12.6 13.409 1.049-1.198a.6.6 0 1 1 .903.79l-2.1 2.4a.6.6 0 0 1-.903 0l-2.1-2.4a.6.6 0 1 1 .902-.79l1.049 1.198V8.994a.6.6 0 1 1 1.2 0zm-7.8-8.61A2.4 2.4 0 0 0 2.4 7.2v9.6a2.4 2.4 0 0 0 2.4 2.4h14.4a2.4 2.4 0 0 0 2.4-2.4V7.2a2.4 2.4 0 0 0-2.4-2.4zM3.6 7.2A1.2 1.2 0 0 1 4.8 6h14.4a1.2 1.2 0 0 1 1.2 1.2v6h-4.6a1.8 1.8 0 0 1-.345.591l-2.1 2.4a1.8 1.8 0 0 1-2.71 0l-2.1-2.4A1.8 1.8 0 0 1 8.2 13.2H3.6z"/><path fill="#04071E" fill-rule="evenodd" d="M8.2 13.2c.074.211.189.412.345.591l2.1 2.4a1.8 1.8 0 0 0 2.71 0l2.1-2.4c.156-.179.27-.38.345-.591h4.6v-6A1.2 1.2 0 0 0 19.2 6H4.8a1.2 1.2 0 0 0-1.2 1.2v6zm-4.5-.1h4.5a.1.1 0 0 1 .095.067c.07.2.178.39.326.558l2.1 2.4a1.7 1.7 0 0 0 2.558 0l2.1-2.4c.148-.169.257-.359.326-.558a.1.1 0 0 1 .095-.067h4.5V7.2a1.1 1.1 0 0 0-1.1-1.1H4.8a1.1 1.1 0 0 0-1.1 1.1zm9 .043.873-.998a.7.7 0 1 1 1.054.922l-2.1 2.4a.7.7 0 0 1-1.054 0l-2.1-2.4a.7.7 0 0 1 1.054-.922l.873.998V8.994a.7.7 0 1 1 1.4 0zm.949-.932a.6.6 0 1 1 .903.79l-2.1 2.4a.6.6 0 0 1-.903 0l-2.1-2.4a.6.6 0 1 1 .902-.79l1.049 1.198V8.994a.6.6 0 1 1 1.2 0v4.415zM2.3 7.2a2.5 2.5 0 0 1 2.5-2.5h14.4a2.5 2.5 0 0 1 2.5 2.5v9.6a2.5 2.5 0 0 1-2.5 2.5H4.8a2.5 2.5 0 0 1-2.5-2.5zm.1 0a2.4 2.4 0 0 1 2.4-2.4h14.4a2.4 2.4 0 0 1 2.4 2.4v9.6a2.4 2.4 0 0 1-2.4 2.4H4.8a2.4 2.4 0 0 1-2.4-2.4z" clip-rule="evenodd"/></svg>