<svg xmlns="http://www.w3.org/2000/svg" width="24" height="24" fill="none"><path fill="#04071E" d="m12.6 10.591 1.049 1.198a.6.6 0 0 0 .903-.79l-2.1-2.4a.6.6 0 0 0-.903 0l-2.1 2.4a.6.6 0 1 0 .903.79l1.048-1.198v4.415a.6.6 0 1 0 1.2 0zM4.8 4.8a2.4 2.4 0 0 0-2.4 2.4v9.6a2.4 2.4 0 0 0 2.4 2.4h14.4a2.4 2.4 0 0 0 2.4-2.4V7.2a2.4 2.4 0 0 0-2.4-2.4zM3.6 7.2A1.2 1.2 0 0 1 4.8 6h14.4a1.2 1.2 0 0 1 1.2 1.2v6h-6.6v1.806a1.8 1.8 0 0 1-3.6 0V13.2H3.6z"/><path fill="#04071E" fill-rule="evenodd" d="M10.2 13.2v1.806a1.8 1.8 0 0 0 3.6 0V13.2h6.6v-6A1.2 1.2 0 0 0 19.2 6H4.8a1.2 1.2 0 0 0-1.2 1.2v6zm-6.5-.1V7.2a1.1 1.1 0 0 1 1.1-1.1h14.4a1.1 1.1 0 0 1 1.1 1.1v5.9h-6.5a.1.1 0 0 0-.1.1v1.806a1.7 1.7 0 1 1-3.4 0V13.2a.1.1 0 0 0-.1-.1zm8.9-2.509v4.415a.6.6 0 0 1-1.2 0V10.59l-1.048 1.198a.6.6 0 0 1-.903-.79l2.1-2.4a.6.6 0 0 1 .903 0l2.1 2.4a.6.6 0 0 1-.903.79zm.1.266.873.998a.7.7 0 1 0 1.054-.922l-2.1-2.4a.7.7 0 0 0-1.054 0l-2.1 2.4a.7.7 0 0 0 1.054.922l.873-.998v4.149a.7.7 0 1 0 1.4 0zM2.3 7.2a2.5 2.5 0 0 1 2.5-2.5h14.4a2.5 2.5 0 0 1 2.5 2.5v9.6a2.5 2.5 0 0 1-2.5 2.5H4.8a2.5 2.5 0 0 1-2.5-2.5zm.1 0a2.4 2.4 0 0 1 2.4-2.4h14.4a2.4 2.4 0 0 1 2.4 2.4v9.6a2.4 2.4 0 0 1-2.4 2.4H4.8a2.4 2.4 0 0 1-2.4-2.4z" clip-rule="evenodd"/></svg>