<svg xmlns="http://www.w3.org/2000/svg" width="24" height="24" fill="none"><path fill="#04071E" d="M14.4 4.2a1.8 1.8 0 0 1 1.8-1.8h2.4a1.8 1.8 0 0 1 1.8 1.8v7.32c-.9-.46-1.92-.72-3-.72s-2.1.26-3 .72zm-10.8 0a1.8 1.8 0 0 1 1.8-1.8h2.4a1.8 1.8 0 0 1 1.8 1.8v15.6a1.8 1.8 0 0 1-1.8 1.8H5.4a1.8 1.8 0 0 1-1.8-1.8zm10.878 9.53a2.4 2.4 0 0 1-1.716 2.974l-.554.142a5.6 5.6 0 0 0 .012 1.22l.42.098a2.4 2.4 0 0 1 1.747 3.023l-.152.508q.466.366 1.002.62l.39-.412a2.4 2.4 0 0 1 3.491.002l.405.43q.528-.245.986-.598l-.187-.668a2.4 2.4 0 0 1 1.717-2.973l.553-.142a5.7 5.7 0 0 0-.012-1.22l-.42-.099a2.4 2.4 0 0 1-1.747-3.022l.152-.507a5.2 5.2 0 0 0-1.002-.622l-.39.413a2.4 2.4 0 0 1-3.491-.002l-.405-.43q-.527.244-.986.598zM17.4 18.6a1.2 1.2 0 1 1 0-2.4 1.2 1.2 0 0 1 0 2.4"/><path fill="#04071E" fill-rule="evenodd" d="M5.4 2.45A1.75 1.75 0 0 0 3.65 4.2v15.6c0 .967.784 1.75 1.75 1.75h2.4a1.75 1.75 0 0 0 1.75-1.75V4.2A1.75 1.75 0 0 0 7.8 2.45zM3.55 4.2A1.85 1.85 0 0 1 5.4 2.35h2.4A1.85 1.85 0 0 1 9.65 4.2v15.6a1.85 1.85 0 0 1-1.85 1.85H5.4a1.85 1.85 0 0 1-1.85-1.85zM16.2 2.45a1.75 1.75 0 0 0-1.75 1.75v7.239c.89-.441 1.89-.689 2.95-.689s2.061.248 2.95.689V4.2a1.75 1.75 0 0 0-1.75-1.75zM14.35 4.2a1.85 1.85 0 0 1 1.85-1.85h2.4a1.85 1.85 0 0 1 1.85 1.85v7.401l-.073-.037a6.5 6.5 0 0 0-2.977-.714 6.5 6.5 0 0 0-2.977.714l-.073.037zm.939 8.205.43.456a2.35 2.35 0 0 0 3.418.002l.415-.44.032.016q.543.256 1.012.628l.026.02-.16.54a2.35 2.35 0 0 0 1.71 2.96l.453.107.004.035a5.7 5.7 0 0 1 .012 1.23l-.003.035-.587.15a2.35 2.35 0 0 0-1.68 2.912l.196.7-.027.02q-.463.358-.996.604l-.032.015-.43-.456a2.35 2.35 0 0 0-3.419-.002l-.415.44-.032-.016q-.543-.256-1.011-.627l-.027-.021.161-.54a2.35 2.35 0 0 0-1.71-2.96l-.454-.107-.004-.035a5.7 5.7 0 0 1-.012-1.23l.003-.035.587-.15a2.35 2.35 0 0 0 1.681-2.912l-.196-.7.026-.021q.463-.357.996-.603zm-.94.677.178.635a2.45 2.45 0 0 1-1.753 3.036l-.52.132a5.6 5.6 0 0 0 .012 1.14l.385.09a2.45 2.45 0 0 1 1.784 3.086l-.142.475q.434.339.933.58l.365-.387a2.45 2.45 0 0 1 3.564.002l.38.403q.489-.23.917-.556l-.178-.635a2.45 2.45 0 0 1 1.752-3.036l.52-.132a5.6 5.6 0 0 0-.012-1.14l-.385-.09a2.45 2.45 0 0 1-1.783-3.087l.141-.474a5 5 0 0 0-.933-.579l-.364.386a2.45 2.45 0 0 1-3.564-.002l-.38-.403q-.49.23-.918.556m3.05 3.168a1.15 1.15 0 1 0 0 2.3 1.15 1.15 0 0 0 0-2.3m-1.25 1.15a1.25 1.25 0 1 1 2.5 0 1.25 1.25 0 0 1-2.5 0" clip-rule="evenodd"/></svg>