<svg xmlns="http://www.w3.org/2000/svg" width="24" height="24" fill="none"><path fill="#04071E" d="M3.6 4.449V19.8a1.8 1.8 0 0 0 1.8 1.8h2.4a1.8 1.8 0 0 0 1.8-1.8V10.45l4.8 4.8V19.8a1.8 1.8 0 0 0 1.8 1.8h2.4c.587 0 1.108-.28 1.436-.715l.54.54a.6.6 0 0 0 .848-.85l-18-18a.6.6 0 0 0-.848.85zm10.8 7.406 6 6V4.2a1.8 1.8 0 0 0-1.8-1.8h-2.4a1.8 1.8 0 0 0-1.8 1.8zM4.992 2.447 9.6 7.054V4.2a1.8 1.8 0 0 0-1.8-1.8H5.4q-.21 0-.408.047"/><path fill="#04071E" fill-rule="evenodd" d="M4.98 2.398q.204-.047.42-.048h2.4A1.85 1.85 0 0 1 9.65 4.2v2.975L4.893 2.418zm.113.079L9.55 6.934V4.2A1.75 1.75 0 0 0 7.8 2.45H5.4q-.157 0-.307.027M14.35 4.2a1.85 1.85 0 0 1 1.85-1.85h2.4a1.85 1.85 0 0 1 1.85 1.85v13.775l-6.1-6.1zm1.85-1.75a1.75 1.75 0 0 0-1.75 1.75v7.634l5.9 5.9V4.2a1.75 1.75 0 0 0-1.75-1.75zm-13.66.09a.65.65 0 0 1 .92 0l18 18a.65.65 0 1 1-.92.92l-.499-.5c-.339.42-.858.69-1.44.69h-2.4a1.85 1.85 0 0 1-1.85-1.85v-4.53l-4.7-4.7v9.23a1.85 1.85 0 0 1-1.85 1.85H5.4a1.85 1.85 0 0 1-1.85-1.85V4.47L2.54 3.46a.65.65 0 0 1 0-.92m.849.071a.55.55 0 1 0-.778.778l1.04 1.039V19.8c0 .967.783 1.75 1.75 1.75h2.4a1.75 1.75 0 0 0 1.75-1.75v-9.472l4.9 4.9V19.8c0 .967.783 1.75 1.75 1.75h2.4c.57 0 1.076-.273 1.396-.695l.034-.046.58.58a.55.55 0 1 0 .778-.778z" clip-rule="evenodd"/></svg>