<svg xmlns="http://www.w3.org/2000/svg" width="24" height="24" fill="none"><path fill="#04071E" d="M8.143 11.143a3.857 3.857 0 1 0 0-7.715 3.857 3.857 0 0 0 0 7.715m12-3a3 3 0 1 1-6 0 3 3 0 0 1 6 0M1.714 14.786c0-1.065.864-1.929 1.929-1.929h9q.255 0 .49.063a6.4 6.4 0 0 0-1.99 4.651c0 .57.074 1.122.213 1.648-.835.304-1.887.495-3.213.495-6.429 0-6.429-4.5-6.429-4.5zM12 17.57a5.571 5.571 0 1 0 11.143 0 5.571 5.571 0 0 0-11.143 0m4.585-3.498a3.43 3.43 0 0 1 3.986 1.624V15a.429.429 0 0 1 .858 0v1.714a.43.43 0 0 1-.429.429h-1.714a.429.429 0 0 1 0-.857h.623a2.57 2.57 0 0 0-4.156-.747.429.429 0 0 1-.606-.606c.401-.401.895-.696 1.438-.86m1.973 6.996a3.43 3.43 0 0 1-3.986-1.624v.698a.429.429 0 0 1-.858 0v-1.715c0-.236.192-.428.429-.428h1.714a.429.429 0 0 1 0 .857h-.623a2.57 2.57 0 0 0 4.156.747.429.429 0 1 1 .606.606c-.401.4-.895.696-1.438.86"/></svg>