<svg xmlns="http://www.w3.org/2000/svg" width="24" height="24" fill="none"><path fill="#04071E" d="M7.5 8a3 3 0 1 0 0-6 3 3 0 0 0 0 6M2 10.768C2 9.79 2.791 9 3.768 9h4.767A4 4 0 0 0 8 11a4 4 0 0 0 1.354 3H8.268c-1.187 0-2.2.747-2.593 1.796-1.498-.366-2.427-1.183-2.974-2.093C2 12.536 2 11.336 2 11.127zM16 11a4 4 0 0 0-.535-2h4.767C21.21 9 22 9.791 22 10.768v.36c0 .207 0 1.408-.7 2.575-.548.91-1.477 1.727-2.975 2.093A2.77 2.77 0 0 0 15.732 14h-1.086A4 4 0 0 0 16 11m3.5-6a3 3 0 1 1-6 0 3 3 0 0 1 6 0m-13 11.768C6.5 15.79 7.291 15 8.268 15h7.464c.977 0 1.768.791 1.768 1.768v.36c0 .207 0 1.408-.7 2.575C16.057 20.937 14.613 22 12 22s-4.058-1.063-4.8-2.297c-.7-1.167-.7-2.367-.7-2.576zM12 14a3 3 0 1 0 0-6 3 3 0 0 0 0 6"/></svg>