<svg xmlns="http://www.w3.org/2000/svg" width="24" height="24" fill="none"><path fill="#04071E" d="M13.489 3.046c-.509-1.123-2.104-1.123-2.612 0a1.433 1.433 0 0 1-2.142.574c-1.002-.719-2.384.079-2.262 1.306.09.9-.667 1.658-1.568 1.568C3.678 6.372 2.88 7.754 3.6 8.756c.528.735.25 1.769-.574 2.142-1.123.508-1.123 2.104 0 2.611a1.433 1.433 0 0 1 .574 2.142c-.719 1.002.079 2.384 1.306 2.262.9-.09 1.658.668 1.568 1.568-.122 1.227 1.26 2.025 2.262 1.306a1.433 1.433 0 0 1 2.142.574c.508 1.124 2.103 1.124 2.611 0a1.433 1.433 0 0 1 2.142-.574c1.002.72 2.384-.079 2.262-1.306-.09-.9.668-1.657 1.568-1.568 1.227.122 2.025-1.26 1.306-2.262a1.433 1.433 0 0 1 .574-2.142c1.124-.508 1.124-2.103 0-2.611a1.433 1.433 0 0 1-.574-2.142c.72-1.002-.079-2.384-1.306-2.262-.9.09-1.657-.667-1.568-1.568.122-1.227-1.26-2.025-2.262-1.306a1.433 1.433 0 0 1-2.142-.574m-3.72 5.537a2.414 2.414 0 1 1 4.828 0 2.414 2.414 0 0 1-4.828 0m-.604 3.62H15.2c1 0 1.81.811 1.81 1.811 0 1.347-.553 2.426-1.463 3.156-.894.718-2.093 1.069-3.364 1.069s-2.47-.35-3.365-1.069c-.91-.73-1.463-1.809-1.463-3.156 0-1 .81-1.81 1.81-1.81"/></svg>