<svg xmlns="http://www.w3.org/2000/svg" width="24" height="24" fill="none"><path fill="#04071E" d="M12 2.4a4.8 4.8 0 1 0 0 9.6 4.8 4.8 0 0 0 0-9.6M6.01 13.2a2.4 2.4 0 0 0-2.41 2.4c0 2.03 1 3.56 2.562 4.556C7.7 21.136 9.774 21.6 12 21.6c.721 0 1.426-.049 2.102-.148l.263-1.052h-.563a1.8 1.8 0 0 1-1.662-2.492l1.962-4.708zm9.125 6a.6.6 0 0 1 .582.745l-.522 2.086c-.145.58.555.992.992.584l5.847-5.457c.597-.558.203-1.558-.614-1.558h-.485a.6.6 0 0 1-.569-.79l.674-2.02a.6.6 0 0 0-.57-.79h-4.167a.6.6 0 0 0-.554.37l-2.5 6a.6.6 0 0 0 .554.83z"/></svg>