<svg xmlns="http://www.w3.org/2000/svg" width="24" height="24" fill="none"><path fill="#04071E" d="M12 2.4a4.8 4.8 0 1 0 0 9.6 4.8 4.8 0 0 0 0-9.6M6.01 13.2a2.4 2.4 0 0 0-2.41 2.4c0 2.03 1 3.56 2.562 4.556C7.7 21.136 9.774 21.6 12 21.6c1.274 0 2.498-.152 3.6-.465v-2.361a4.78 4.78 0 0 1-1.2-3.175c0-.874.234-1.693.642-2.4zm13.19 5.999a3.6 3.6 0 1 0 0-7.2 3.6 3.6 0 0 0 0 7.2m0 1.2c.874 0 1.694-.234 2.4-.642v2.742a.3.3 0 0 1-.453.258L19.2 21.599l-1.947 1.158a.3.3 0 0 1-.453-.258v-2.742a4.8 4.8 0 0 0 2.4.642"/></svg>