<svg xmlns="http://www.w3.org/2000/svg" width="24" height="24" fill="none"><path fill="#04071E" d="M17.5 12a5.5 5.5 0 1 1 0 11 5.5 5.5 0 0 1 0-11m-5.478 2A6.47 6.47 0 0 0 11 17.5c0 1.644.61 3.146 1.617 4.29q-1.203.211-2.617.211c-2.89 0-5.128-.657-6.691-2a3.75 3.75 0 0 1-1.306-2.844v-.907A2.25 2.25 0 0 1 4.253 14zm3.07.966-.068.058-.058.07a.5.5 0 0 0 0 .568l.058.07 1.77 1.769-1.768 1.766-.058.07a.5.5 0 0 0 0 .568l.058.07.07.057a.5.5 0 0 0 .568 0l.07-.057 1.766-1.767 1.77 1.769.069.058a.5.5 0 0 0 .568 0l.07-.058.057-.07a.5.5 0 0 0 0-.568l-.058-.07-1.769-1.768 1.772-1.77.058-.069a.5.5 0 0 0 0-.569l-.058-.069-.07-.058a.5.5 0 0 0-.568 0l-.069.058-1.772 1.77-1.77-1.77-.069-.058a.5.5 0 0 0-.492-.043zM10 2.005a5 5 0 1 1 0 10 5 5 0 0 1 0-10"/></svg>