<svg xmlns="http://www.w3.org/2000/svg" width="24" height="24" fill="none"><path fill="#04071E" d="M15.75 13.997A2.25 2.25 0 0 1 18 16.246v.918c0 .286-.045.568-.13.837h-2.035a1.75 1.75 0 0 0-2.822-1.98l-2.5 2.498a1.75 1.75 0 0 0 0 2.476l.935.933q-.697.07-1.452.07c-3.42 0-5.943-1.072-7.486-3.236A2.75 2.75 0 0 1 2 17.166v-.92a2.25 2.25 0 0 1 2.249-2.249zM9.997 2.002a5 5 0 1 1 0 10 5 5 0 0 1 0-10m4.784 15.781a.75.75 0 0 0-1.06-1.06l-2.5 2.501a.75.75 0 0 0 0 1.06l2.5 2.5a.75.75 0 1 0 1.06-1.061l-1.22-1.22h6.88l-1.22 1.22a.75.75 0 1 0 1.06 1.06l2.5-2.498a.75.75 0 0 0 0-1.06l-2.5-2.502a.75.75 0 0 0-1.06 1.06l1.218 1.22h-6.877z"/></svg>