<svg xmlns="http://www.w3.org/2000/svg" width="24" height="24" fill="none"><path fill="#04071E" d="M17.754 14a2.25 2.25 0 0 1 2.25 2.248v.918a2.75 2.75 0 0 1-.514 1.6C17.946 20.928 15.42 22 12 22q-.244 0-.482-.007h.008c.116-.006.368-.02.613-.135a1.5 1.5 0 0 0 .725-1.984 1.6 1.6 0 0 0-.381-.498c-.103-.096-.235-.208-.374-.325l-.61-.516V16c0-.711-.15-1.388-.417-2zM12 2.003a5 5 0 1 1 0 10 5 5 0 0 1 0-10M6.503 12a4 4 0 0 0-4 4v3l-.95.8c-.307.26-.46.39-.507.491a.5.5 0 0 0 .241.662c.101.047.303.047.706.047h9.02c.402 0 .603 0 .704-.047a.5.5 0 0 0 .242-.662c-.047-.101-.2-.231-.508-.49L10.502 19v-3a4 4 0 0 0-4-4m1.5 10c-.219.583-.808 1-1.5 1-.693 0-1.282-.417-1.5-1z"/></svg>