<svg xmlns="http://www.w3.org/2000/svg" width="24" height="24" fill="none"><path fill="#04071E" d="M12 2.4a4.8 4.8 0 1 0 0 9.6 4.8 4.8 0 0 0 0-9.6M6.01 13.2a2.4 2.4 0 0 0-2.41 2.4c0 2.03 1 3.56 2.562 4.556 1.258.802 2.874 1.258 4.638 1.397V20.4c0-.493.194-.935.53-1.27l3.095-3.096a5 5 0 0 1-.025-.51c0-.65.13-1.277.399-1.866q.108-.236.238-.458zm6.168 9.422q.179.178.422.178H15a.7.7 0 0 0 .328-.085.44.44 0 0 0 .178-.206q.057-.13.075-.281.02-.15.02-.31V21.6q.43-.01.674-.028.244-.02.366-.14a.55.55 0 0 0 .14-.357q.02-.234.02-.675h.6a.55.55 0 0 0 .318-.084.6.6 0 0 0 .187-.207.8.8 0 0 0 .085-.281q.018-.16.018-.328a4 4 0 0 1-.009-.272v-.234q.31.113.628.159.319.047.647.047.75-.01 1.378-.29.628-.281 1.116-.788.487-.507.76-1.153.27-.647.271-1.37 0-.75-.281-1.405a3.6 3.6 0 0 0-.769-1.144 3.6 3.6 0 0 0-1.144-.769A3.5 3.5 0 0 0 19.2 12a3.9 3.9 0 0 0-1.378.281 3.5 3.5 0 0 0-1.144.75q-.497.487-.787 1.125a3.3 3.3 0 0 0-.29 1.369q0 .44.102.928l-3.525 3.525A.58.58 0 0 0 12 20.4v1.8q0 .243.178.422m8.56-8.56A.87.87 0 0 1 21 14.7q0 .375-.262.637a.87.87 0 0 1-.638.263.87.87 0 0 1-.637-.263.87.87 0 0 1-.263-.637q0-.375.263-.638a.87.87 0 0 1 .637-.262q.375 0 .638.262"/></svg>