<svg xmlns="http://www.w3.org/2000/svg" width="24" height="24" fill="none"><path fill="#04071E" d="M12.022 14A6.47 6.47 0 0 0 11 17.5c0 1.63.6 3.12 1.592 4.262q-1.194.24-2.592.24c-3.421 0-5.944-1.073-7.486-3.237a2.75 2.75 0 0 1-.51-1.596v-.92a2.25 2.25 0 0 1 2.248-2.25zm5.478-2a5.5 5.5 0 1 1 0 11 5.5 5.5 0 0 1 0-11m0 7.751a.625.625 0 1 0 0 1.249.625.625 0 0 0 0-1.249m0-5.877c-1.048 0-1.864.817-1.854 1.954a.5.5 0 0 0 1-.01c-.005-.578.36-.944.854-.944.472 0 .853.392.853.95 0 .192-.055.342-.224.561l-.094.116-.099.113-.265.29-.136.157c-.384.457-.535.793-.535 1.31a.5.5 0 0 0 1 0c0-.203.058-.358.239-.59l.085-.104.1-.115.266-.29.135-.156c.378-.45.528-.783.528-1.292 0-1.104-.822-1.95-1.853-1.95M10 2.004a5 5 0 1 1 0 10 5 5 0 0 1 0-10"/></svg>