<svg xmlns="http://www.w3.org/2000/svg" width="24" height="24" fill="none"><path fill="#04071E" d="M10.8 2.4a4.8 4.8 0 1 0 0 9.6 4.8 4.8 0 0 0 0-9.6M4.81 13.2a2.4 2.4 0 0 0-2.41 2.4c0 2.03 1 3.56 2.562 4.556C6.5 21.136 8.574 21.6 10.8 21.6q.74 0 1.452-.069A6.57 6.57 0 0 1 10.8 17.4c0-1.596.566-3.059 1.508-4.2zm7.952 3.504a2.4 2.4 0 0 0 1.717-2.974l-.188-.668q.459-.353.987-.597l.404.43a2.4 2.4 0 0 0 3.492.002l.39-.413q.537.255 1.001.622l-.151.506a2.4 2.4 0 0 0 1.747 3.023l.419.1a5.6 5.6 0 0 1 .012 1.22l-.553.14a2.4 2.4 0 0 0-1.716 2.974l.187.668a5.2 5.2 0 0 1-.986.597l-.405-.43a2.4 2.4 0 0 0-3.492-.001l-.39.413a5.2 5.2 0 0 1-1.001-.622l.151-.507a2.4 2.4 0 0 0-1.747-3.023l-.42-.1a5.7 5.7 0 0 1-.011-1.219zm5.838.696a1.2 1.2 0 1 0-2.4 0 1.2 1.2 0 0 0 2.4 0"/></svg>