<svg xmlns="http://www.w3.org/2000/svg" width="24" height="24" fill="none"><path fill="#04071E" d="M11 17.5a6.47 6.47 0 0 1 1.022-3.5h-7.77a2.25 2.25 0 0 0-2.249 2.249v.92c0 .572.179 1.13.51 1.596C4.057 20.929 6.58 22 10 22q1.397 0 2.592-.239A6.48 6.48 0 0 1 11 17.5M10 2.005a5 5 0 1 1 0 10 5 5 0 0 1 0-10M23 17.5a5.5 5.5 0 1 1-11 0 5.5 5.5 0 0 1 11 0m-4.647-2.854a.5.5 0 1 0-.707.708L19.293 17H15a.5.5 0 1 0 0 1h4.293l-1.647 1.646a.5.5 0 0 0 .707.708l2.5-2.5a.5.5 0 0 0 .147-.345V17.5a.5.5 0 0 0-.15-.358z"/></svg>