<svg xmlns="http://www.w3.org/2000/svg" width="24" height="24" fill="none"><path fill="#04071E" d="M20 16.246a2.25 2.25 0 0 0-2.25-2.249H6.25A2.25 2.25 0 0 0 4 16.246v.92c0 .572.178 1.13.51 1.596 1.543 2.164 4.065 3.236 7.486 3.236s5.945-1.072 7.49-3.235A2.75 2.75 0 0 0 20 17.164zm-3.003-9.244a5 5 0 0 0-9.025-2.967A.8.8 0 0 0 7.748 4H5.25a.75.75 0 0 0-.75.75v5.5A2.75 2.75 0 0 0 7.25 13h.25v-.005h.01a.998.998 0 1 0-.786-1.611A1.25 1.25 0 0 1 6 10.249V10h.748c.38 0 .733-.122 1.02-.328A5 5 0 0 0 16.997 7m-10-.106a5 5 0 0 0 0 .212v1.14a.25.25 0 0 1-.25.25H6V5.5h.998z"/></svg>