<svg xmlns="http://www.w3.org/2000/svg" width="24" height="24" fill="none"><path fill="#04071E" d="M7.2 7.2a4.8 4.8 0 1 1 9.6 0 4.8 4.8 0 0 1-9.6 0m6.272 6H6.01a2.4 2.4 0 0 0-2.41 2.4c0 2.03.998 3.56 2.561 4.556.974.62 2.162 1.034 3.467 1.254a3 3 0 0 1 .852-2.547l2.781-2.78a5.45 5.45 0 0 1 .21-2.883m5.598-2.372c.44.052.566.578.253.89l-1.17 1.171a1.809 1.809 0 1 0 2.558 2.559l1.17-1.17c.313-.314.84-.188.89.252a4.222 4.222 0 0 1-5.611 4.468l-3.272 3.272a1.809 1.809 0 1 1-2.558-2.558l3.272-3.273a4.222 4.222 0 0 1 4.468-5.61"/></svg>