<svg xmlns="http://www.w3.org/2000/svg" width="24" height="24" fill="none"><path fill="#04071E" d="M22.8 6.6a5.4 5.4 0 1 1-10.8 0 5.4 5.4 0 0 1 10.8 0M18 4.2a.6.6 0 1 0-1.2 0V6H15a.6.6 0 1 0 0 1.2h1.8V9A.6.6 0 1 0 18 9V7.2h1.8a.6.6 0 1 0 0-1.2H18zm-.6 9a6.57 6.57 0 0 0 4.2-1.509V13.2a2.4 2.4 0 0 1-2.4 2.4h-3.6V18h1.8a.6.6 0 1 1 0 1.2h-6.6V18h3.6v-2.4h-3.6v-4.2a3 3 0 0 0-3-3h-3V4.8a2.4 2.4 0 0 1 2.4-2.4h5.109A6.6 6.6 0 0 0 17.4 13.2M4.2 9.6a1.8 1.8 0 0 0-1.8 1.8v8.4a1.8 1.8 0 0 0 1.8 1.8h3.6a1.8 1.8 0 0 0 1.8-1.8v-8.4a1.8 1.8 0 0 0-1.8-1.8zm.6 9a.6.6 0 0 1 .6-.6h1.2a.6.6 0 1 1 0 1.2H5.4a.6.6 0 0 1-.6-.6"/></svg>