<svg xmlns="http://www.w3.org/2000/svg" width="24" height="24" fill="none"><path fill="#04071E" d="M17.493 1.727a1.8 1.8 0 0 1 2.545 0l2.235 2.234a1.8 1.8 0 0 1 0 2.546l-6.166 6.166a1.8 1.8 0 0 1-2.546 0l-2.234-2.235a1.8 1.8 0 0 1 0-2.545zm-5.317 7.014a.6.6 0 0 0 0 .849l2.234 2.234a.6.6 0 0 0 .848 0l1.548-1.547-3.083-3.083zm2.944-6.337L15 2.4H6.6a1.8 1.8 0 0 0-1.8 1.8v15.6a1.8 1.8 0 0 0 1.8 1.8H15a1.8 1.8 0 0 0 1.8-1.8v-6.133a3 3 0 0 1-4.087-.146l-2.234-2.234a3 3 0 0 1 0-4.243zM12.6 17.4a.6.6 0 0 1-.6.6H9.6a.6.6 0 0 1 0-1.2H12a.6.6 0 0 1 .6.6"/></svg>