<svg xmlns="http://www.w3.org/2000/svg" width="24" height="24" fill="none"><path fill="#04071E" d="M1.2 6.6a5.4 5.4 0 0 1 5.402-5.4 5.4 5.4 0 1 1 0 10.8A5.4 5.4 0 0 1 1.2 6.6M8.88 7.676 7.802 8.75V6.9a3.3 3.3 0 0 0-3.3-3.3h-.3a.6.6 0 1 0 0 1.2h.3c1.16 0 2.1.94 2.1 2.1V8.75L5.526 7.676a.6.6 0 0 0-.849.848l2.103 2.103a.6.6 0 0 0 .847-.003l2.1-2.1a.6.6 0 1 0-.848-.848m-6.485 4.012a6.57 6.57 0 0 0 3.6 1.485V17.4a1.8 1.8 0 0 1-3.6-.001zM13.174 7.2a6.6 6.6 0 0 1-5.979 5.973V16.8H16.8V7.2zM19.8 4.8a1.8 1.8 0 0 0-1.801 1.8v10.8a1.8 1.8 0 0 0 3.601 0V6.6a1.8 1.8 0 0 0-1.8-1.8"/></svg>