<svg xmlns="http://www.w3.org/2000/svg" width="24" height="24" fill="none"><path fill="#04071E" d="M8.183 3.289c.087-.326.225-.624.402-.89h-.187a2.4 2.4 0 0 0-2.402 2.4l-.005 6.643zM4.8 4.2q0-.273.048-.534l-.067.018a2.4 2.4 0 0 0-1.7 2.94l1.712 6.406zm7.327-1.718A2.4 2.4 0 0 0 9.186 4.18L5.783 16.838a2.4 2.4 0 0 0 1.695 2.939l6.5 1.741a2.4 2.4 0 0 0 2.94-1.696l3.404-12.66a2.4 2.4 0 0 0-1.695-2.938zM14.398 8.4a1.2 1.2 0 1 1 0-2.4 1.2 1.2 0 0 1 0 2.4m-1.5 8.4a1.2 1.2 0 1 1-2.4 0 1.2 1.2 0 0 1 2.4 0"/></svg>