<svg xmlns="http://www.w3.org/2000/svg" width="24" height="24" fill="none"><path fill="#04071E" d="M20.666 10.422c1.244.683 1.244 2.47 0 3.154l-6.276 3.45A6.6 6.6 0 0 0 6 11.05V5.403a1.8 1.8 0 0 1 2.667-1.578zM4.878 13.73a2.4 2.4 0 0 1-1.717 2.974l-.553.141a5.7 5.7 0 0 0 .012 1.22l.42.1a2.4 2.4 0 0 1 1.747 3.022l-.152.507q.465.367 1.002.622l.39-.413a2.4 2.4 0 0 1 3.491.002l.405.43q.528-.246.986-.598l-.187-.668a2.4 2.4 0 0 1 1.717-2.973l.553-.142a5.6 5.6 0 0 0-.013-1.22l-.418-.099a2.4 2.4 0 0 1-1.748-3.022l.152-.507a5.2 5.2 0 0 0-1.002-.622l-.39.413a2.4 2.4 0 0 1-3.491-.002l-.405-.43q-.527.245-.986.597zM7.8 18.6a1.2 1.2 0 1 1 0-2.4 1.2 1.2 0 0 1 0 2.4"/></svg>