<svg xmlns="http://www.w3.org/2000/svg" width="24" height="24" fill="none"><path fill="#04071E" d="M6.659 18.84a2.25 2.25 0 0 0 1.591.66 2.3 2.3 0 0 0 1.102-.293l12-6.75a2.25 2.25 0 0 0 0-3.916L9.339 1.78A2.278 2.278 0 0 0 6 3.75v13.5c0 .597.237 1.169.659 1.59m10.981-2.58 1.83-1.02q.027.187.03.375a2.27 2.27 0 0 1-1.14 1.965l-7.62 4.29a5.4 5.4 0 0 1-2.49.63 4.6 4.6 0 0 1-1.365-.195A5 5 0 0 1 4.5 20.91 5.2 5.2 0 0 1 3 17.25V8.865A2.22 2.22 0 0 1 4.5 6.78v10.47a3.77 3.77 0 0 0 5.55 3.285l7.575-4.26a.015.015 0 0 0 .015-.015"/></svg>