<svg xmlns="http://www.w3.org/2000/svg" width="24" height="24" fill="none"><path fill="#04071E" d="M21.337 3.936a.9.9 0 1 0-1.273-1.272l-2.935 2.934a4.844 4.844 0 0 0-6.153.578l-.36.36a1.79 1.79 0 0 0 0 2.528l2.957 2.958A6.57 6.57 0 0 1 17.4 10.8q.85.001 1.636.204a4.85 4.85 0 0 0-.634-4.133zm-12.272 6.68 2.958 2.957A6.57 6.57 0 0 0 10.8 17.4q.002.85.205 1.636a4.85 4.85 0 0 1-4.133-.635l-2.935 2.935a.9.9 0 1 1-1.273-1.272l2.935-2.936a4.844 4.844 0 0 1 .578-6.152l.36-.36a1.79 1.79 0 0 1 2.528 0M20.401 21.89a5.4 5.4 0 1 1-6-8.98 5.4 5.4 0 0 1 6 8.98m-2.576-7.314A.6.6 0 0 0 16.8 15v1.8H15a.6.6 0 1 0 0 1.2h1.8v1.8a.6.6 0 0 0 1.2 0V18h1.8a.6.6 0 0 0 0-1.2H18V15a.6.6 0 0 0-.175-.424"/></svg>