<svg xmlns="http://www.w3.org/2000/svg" width="24" height="24" fill="none"><path fill="#04071E" d="M21.337 3.936a.9.9 0 1 0-1.273-1.272l-2.935 2.934a4.844 4.844 0 0 0-6.153.578l-.36.36a1.79 1.79 0 0 0 0 2.528l2.957 2.958A6.57 6.57 0 0 1 17.4 10.8q.85.001 1.636.204a4.85 4.85 0 0 0-.634-4.133zm-12.272 6.68 2.958 2.957A6.57 6.57 0 0 0 10.8 17.4q.002.85.205 1.636a4.85 4.85 0 0 1-4.133-.635l-2.935 2.935a.9.9 0 1 1-1.273-1.272l2.935-2.936a4.844 4.844 0 0 1 .578-6.152l.36-.36a1.79 1.79 0 0 1 2.528 0M22.8 17.4a5.4 5.4 0 1 1-10.8 0 5.4 5.4 0 0 1 10.8 0m-2.575-2.224a.6.6 0 0 0-.849 0L16.2 18.35l-.775-.775a.6.6 0 0 0-.849.848l1.2 1.2a.6.6 0 0 0 .849 0l3.6-3.6a.6.6 0 0 0 0-.848"/></svg>