<svg xmlns="http://www.w3.org/2000/svg" width="24" height="24" fill="none"><path fill="#04071E" d="M2 7.25A3.25 3.25 0 0 1 5.25 4h13.5A3.25 3.25 0 0 1 22 7.25v9.5A3.25 3.25 0 0 1 18.75 20H5.25A3.25 3.25 0 0 1 2 16.75zm3 1v2c0 .69.56 1.25 1.25 1.25h11.5c.69 0 1.25-.56 1.25-1.25v-2C19 7.56 18.44 7 17.75 7H6.25C5.56 7 5 7.56 5 8.25m1.5.25V10h11V8.5zm7.75 4.5c-.69 0-1.25.56-1.25 1.25v1.5c0 .69.56 1.25 1.25 1.25h3.5c.69 0 1.25-.56 1.25-1.25v-1.5c0-.69-.56-1.25-1.25-1.25zm.25 2.5v-1h3v1zM5 13.75c0 .414.336.75.75.75h5a.75.75 0 0 0 0-1.5h-5a.75.75 0 0 0-.75.75m.75 1.75a.75.75 0 0 0 0 1.5h5a.75.75 0 0 0 0-1.5z"/></svg>