<svg xmlns="http://www.w3.org/2000/svg" width="24" height="24" fill="none"><path fill="#04071E" d="M21.598 12.204 21.6 12a9.6 9.6 0 0 0-19.2 0c0 4.96 3.761 9.04 8.587 9.547A3.6 3.6 0 0 1 10.8 20.4v-.692a7.76 7.76 0 0 1-3.642-1.593l1.877-1.877.001-.002 9.08-9.078A7.77 7.77 0 0 1 19.8 12h.6c.42 0 .823.072 1.198.204m-4.756-6.32L5.885 16.843A7.8 7.8 0 0 1 16.843 5.884M12 15.6a2.4 2.4 0 0 1 2.4-2.4h6a2.4 2.4 0 0 1 2.4 2.4v4.8a2.4 2.4 0 0 1-2.4 2.4h-6a2.4 2.4 0 0 1-2.4-2.4zm7.8 3.6H15a.6.6 0 0 0 0 1.2h4.8a.6.6 0 0 0 0-1.2M15 15.6a.6.6 0 0 0 0 1.2h4.8a.6.6 0 0 0 0-1.2z"/><path fill="#04071E" fill-rule="evenodd" d="M2.25 12c0-5.385 4.365-9.75 9.75-9.75s9.75 4.365 9.75 9.75q0 .104-.002.207a.15.15 0 0 1-.2.138 3.5 3.5 0 0 0-1.148-.195h-.6a.15.15 0 0 1-.15-.15 7.6 7.6 0 0 0-1.55-4.616l-8.958 8.959-1.758 1.758a7.6 7.6 0 0 0 3.439 1.459.15.15 0 0 1 .127.148v.692c0 .385.063.754.179 1.1a.15.15 0 0 1-.158.196C6.07 21.182 2.25 17.037 2.25 12M12 2.55A9.45 9.45 0 0 0 2.55 12c0 4.805 3.586 8.772 8.227 9.372a3.8 3.8 0 0 1-.127-.972v-.564a7.9 7.9 0 0 1-3.586-1.603.15.15 0 0 1-.012-.224L18.009 7.052a.15.15 0 0 1 .224.012 7.9 7.9 0 0 1 1.716 4.786h.451c.364 0 .717.052 1.05.149A9.45 9.45 0 0 0 12 2.55m0 1.8a7.65 7.65 0 0 0-6.1 12.266L16.615 5.899A7.6 7.6 0 0 0 12 4.35M4.05 12a7.95 7.95 0 0 1 12.886-6.233.15.15 0 0 1 .012.224L5.991 16.949a.15.15 0 0 1-.224-.013A7.92 7.92 0 0 1 4.05 12m10.35 1.35a2.25 2.25 0 0 0-2.25 2.25v4.8a2.25 2.25 0 0 0 2.25 2.25h6a2.25 2.25 0 0 0 2.25-2.25v-4.8a2.25 2.25 0 0 0-2.25-2.25zm-2.55 2.25a2.55 2.55 0 0 1 2.55-2.55h6a2.55 2.55 0 0 1 2.55 2.55v4.8a2.55 2.55 0 0 1-2.55 2.55h-6a2.55 2.55 0 0 1-2.55-2.55zm2.4.6a.75.75 0 0 1 .75-.75h4.8a.75.75 0 0 1 0 1.5H15a.75.75 0 0 1-.75-.75m.75-.45a.45.45 0 0 0 0 .9h4.8a.45.45 0 0 0 0-.9zm-.75 4.05a.75.75 0 0 1 .75-.75h4.8a.75.75 0 0 1 0 1.5H15a.75.75 0 0 1-.75-.75m.75-.45a.45.45 0 0 0 0 .9h4.8a.45.45 0 0 0 0-.9z" clip-rule="evenodd"/></svg>