<svg xmlns="http://www.w3.org/2000/svg" width="24" height="24" fill="none"><path fill="#04071E" d="M6 18.068v-2.811q.32.135.655.25c.353.124.737.124 1.09 0 1.72-.596 3.107-1.539 4.058-2.862C12.755 11.32 13.2 9.71 13.2 7.9V4.842l-.02-.217-.012-.057A1.685 1.685 0 0 0 11.52 3.2q-.054 0-.107-.002A2.4 2.4 0 0 1 15.6 4.8l-.002.068H19.2a1.2 1.2 0 0 1 1.2 1.2V9.6h-1.2a2.4 2.4 0 0 0-2.393 2.222L16.8 12a2.4 2.4 0 0 0 2.221 2.393l.18.007 1.198-.001.001 3.669a1.2 1.2 0 0 1-1.2 1.2h-3.603l-.003.111a2.4 2.4 0 0 1-4.793-.11l-3.6-.001a1.2 1.2 0 0 1-1.2-1.2M9.6 4.016a4.9 4.9 0 0 0 1.92.384c.232 0 .426.171.47.4l.01.1V7.9c0 3.219-1.575 5.406-4.648 6.473a.46.46 0 0 1-.303 0q-1.305-.454-2.25-1.174A6 6 0 0 1 3.614 12c-.752-1.02-1.157-2.284-1.207-3.78L2.4 7.9V4.9c0-.276.215-.5.48-.5 1.468 0 2.788-.611 3.982-1.854a.467.467 0 0 1 .679 0q.97 1.013 2.06 1.47"/></svg>