<svg xmlns="http://www.w3.org/2000/svg" width="24" height="24" fill="none"><path fill="#04071E" d="M9.481 9h1.037L10 7.734z"/><path fill="#04071E" fill-rule="evenodd" d="M5.7 3A2.7 2.7 0 0 0 3 5.7v12.6A2.7 2.7 0 0 0 5.7 21h12.6a2.7 2.7 0 0 0 2.7-2.7V5.7A2.7 2.7 0 0 0 18.3 3zm10.05 2a.75.75 0 0 1 .75.75V7h1.25a.75.75 0 0 1 0 1.5H16.5v1.25a.75.75 0 0 1-1.5 0V8.5h-1.25a.75.75 0 0 1 0-1.5H15V5.75a.75.75 0 0 1 .75-.75m-5.055.466a.75.75 0 0 0-1.389 0l-2.25 5.503a.75.75 0 1 0 1.388.568l.424-1.036h2.262l.423 1.035a.75.75 0 1 0 1.389-.567zM6 14.25a.75.75 0 0 1 .75-.75h10.5a.75.75 0 0 1 0 1.5H6.75a.75.75 0 0 1-.75-.75m0 3.5a.75.75 0 0 1 .75-.75h10.5a.75.75 0 0 1 0 1.5H6.75a.75.75 0 0 1-.75-.75" clip-rule="evenodd"/></svg>