<svg xmlns="http://www.w3.org/2000/svg" width="24" height="24" fill="none"><path fill="#04071E" d="m17.14 3.89-1.312 1.312a7.8 7.8 0 1 0 1.687 12.314.9.9 0 0 1 1.273 1.272A9.6 9.6 0 0 1 5.212 5.212c3.239-3.24 8.216-3.68 11.928-1.322m-3.955 3.955 1.396-1.396a6.122 6.122 0 0 0-6.908 9.879 6.12 6.12 0 0 0 8.655 0 .9.9 0 1 0-1.273-1.273 4.32 4.32 0 1 1-1.87-7.21m5.751-2.781a.9.9 0 0 1 0 1.272l-5.197 5.198a1.8 1.8 0 1 1-1.273-1.273l5.198-5.197a.9.9 0 0 1 1.272 0M20.7 15.9a.9.9 0 1 1-1.8 0 .9.9 0 0 1 1.8 0M19.8 9a.9.9 0 1 0 0-1.8.9.9 0 0 0 0 1.8m1.8 4.5a.9.9 0 1 1-1.8 0 .9.9 0 0 1 1.8 0m-.9-2.1a.9.9 0 1 0 0-1.8.9.9 0 0 0 0 1.8M18 13.5a.9.9 0 1 1-1.8 0 .9.9 0 0 1 1.8 0m-.9-2.1a.9.9 0 1 0 0-1.8.9.9 0 0 0 0 1.8"/><path fill="#04071E" fill-rule="evenodd" d="M17.06 3.899a9.55 9.55 0 1 0 1.692 14.854.85.85 0 0 0-1.201-1.202A7.85 7.85 0 1 1 15.82 5.14zM5.177 5.177c3.256-3.256 8.26-3.7 11.991-1.33l.053.034-1.383 1.383-.033-.019A7.75 7.75 0 1 0 17.48 17.48a.95.95 0 1 1 1.344 1.344A9.65 9.65 0 1 1 5.177 5.177m13.725-.078a.85.85 0 0 0-1.202 0l-5.218 5.218-.028-.008a1.75 1.75 0 1 0 1.238 1.238l-.008-.028L18.901 6.3a.85.85 0 0 0 0-1.202m-1.273-.07a.95.95 0 1 1 1.344 1.343l-5.177 5.177A1.854 1.854 0 0 1 12 13.85a1.85 1.85 0 1 1 .451-3.644zm-9.99 2.608a6.17 6.17 0 0 1 6.964-1.233l.065.03L13.2 7.901l-.028-.008a4.27 4.27 0 1 0 1.848 7.126.95.95 0 1 1 1.343 1.344 6.17 6.17 0 1 1-8.726-8.726m6.857-1.172a6.072 6.072 0 0 0-6.787 9.827 6.07 6.07 0 0 0 8.584 0 .85.85 0 1 0-1.202-1.202 4.37 4.37 0 1 1-1.92-7.301zM18.85 8.1a.95.95 0 1 1 1.9 0 .95.95 0 0 1-1.9 0m.95-.85a.85.85 0 1 0 0 1.7.85.85 0 0 0 0-1.7m-3.65 3.25a.95.95 0 1 1 1.9 0 .95.95 0 0 1-1.9 0m.95-.85a.85.85 0 1 0 0 1.7.85.85 0 0 0 0-1.7m2.65.85a.95.95 0 1 1 1.9 0 .95.95 0 0 1-1.9 0m.95-.85a.85.85 0 1 0 0 1.7.85.85 0 0 0 0-1.7m-3.6 3a.85.85 0 1 0 0 1.7.85.85 0 0 0 0-1.7m-.95.85a.95.95 0 1 1 1.9 0 .95.95 0 0 1-1.9 0m4.55-.85a.85.85 0 1 0 0 1.7.85.85 0 0 0 0-1.7m-.95.85a.95.95 0 1 1 1.9 0 .95.95 0 0 1-1.9 0m.05 1.55a.85.85 0 1 0 0 1.7.85.85 0 0 0 0-1.7m-.95.85a.95.95 0 1 1 1.9 0 .95.95 0 0 1-1.9 0" clip-rule="evenodd"/></svg>