<svg xmlns="http://www.w3.org/2000/svg" width="24" height="24" fill="none"><path fill="#04071E" d="m17.14 3.89-1.312 1.312a7.803 7.803 0 0 0-11.59 6.034c-.671.257-1.289.62-1.833 1.069a9.57 9.57 0 0 1 2.807-7.093c3.239-3.24 8.216-3.68 11.928-1.322m-5.445 17.705a6.6 6.6 0 0 0 1.07-1.832 7.77 7.77 0 0 0 4.75-2.248.9.9 0 0 1 1.273 1.273 9.57 9.57 0 0 1-7.093 2.807M13.2 17.4q0 .307-.028.607a6.1 6.1 0 0 0 3.156-1.68.9.9 0 1 0-1.273-1.272 4.3 4.3 0 0 1-1.967 1.127q.112.593.112 1.218m-6.6-6.6q.625.001 1.218.112a4.319 4.319 0 0 1 5.367-3.067l1.396-1.396a6.122 6.122 0 0 0-8.588 4.379q.3-.028.607-.028m3.605 1.07a6.6 6.6 0 0 1 1.925 1.926 1.8 1.8 0 0 0 1.609-2.262l5.197-5.198a.9.9 0 1 0-1.272-1.272l-5.198 5.197a1.8 1.8 0 0 0-2.261 1.61M20.7 15.9a.9.9 0 1 1-1.8 0 .9.9 0 0 1 1.8 0M19.8 9a.9.9 0 1 0 0-1.8.9.9 0 0 0 0 1.8m1.8 4.5a.9.9 0 1 1-1.8 0 .9.9 0 0 1 1.8 0m-.9-2.1a.9.9 0 1 0 0-1.8.9.9 0 0 0 0 1.8M18 13.5a.9.9 0 1 1-1.8 0 .9.9 0 0 1 1.8 0m-.9-2.1a.9.9 0 1 0 0-1.8.9.9 0 0 0 0 1.8m-5.1 6a5.4 5.4 0 1 1-10.8 0 5.4 5.4 0 0 1 10.8 0m-2.576-2.224a.6.6 0 0 0-.848 0L5.4 18.352l-.776-.776a.6.6 0 0 0-.848.848l1.2 1.2a.6.6 0 0 0 .848 0l3.6-3.6a.6.6 0 0 0 0-.848"/><path fill="#04071E" fill-rule="evenodd" d="M17.06 3.899C13.375 1.59 8.455 2.04 5.248 5.247a9.52 9.52 0 0 0-2.795 6.955A6.6 6.6 0 0 1 4.191 11.2a7.853 7.853 0 0 1 11.63-6.06zM5.177 5.177c3.256-3.256 8.26-3.7 11.991-1.33l.053.034-1.383 1.383-.033-.019A7.753 7.753 0 0 0 4.287 11.24l-.003.031-.029.011a6.5 6.5 0 0 0-1.818 1.061l-.079.065-.003-.102a9.62 9.62 0 0 1 2.821-7.13m12.452-.149a.95.95 0 1 1 1.344 1.344l-5.177 5.177a1.854 1.854 0 0 1-1.662 2.296l-.03.002-.015-.024a6.6 6.6 0 0 0-1.91-1.91l-.025-.017.002-.03a1.85 1.85 0 0 1 2.296-1.66zm1.273.071a.85.85 0 0 0-1.202 0l-5.218 5.218-.028-.008a1.75 1.75 0 0 0-2.196 1.536 6.7 6.7 0 0 1 1.898 1.898 1.75 1.75 0 0 0 1.536-2.196l-.008-.028L18.901 6.3a.85.85 0 0 0 0-1.202M7.637 7.637a6.17 6.17 0 0 1 6.965-1.233l.065.03L13.2 7.901l-.028-.008a4.27 4.27 0 0 0-5.305 3.032l-.012.045-.046-.009a6.6 6.6 0 0 0-1.812-.084l-.066.006.013-.065a6.14 6.14 0 0 1 1.693-3.18m6.858-1.172a6.072 6.072 0 0 0-8.44 4.307 6.7 6.7 0 0 1 1.727.083 4.369 4.369 0 0 1 5.389-3.066zM18.85 8.1a.95.95 0 1 1 1.9 0 .95.95 0 0 1-1.9 0m.95-.85a.85.85 0 1 0 0 1.7.85.85 0 0 0 0-1.7m-3.65 3.25a.95.95 0 1 1 1.9 0 .95.95 0 0 1-1.9 0m.95-.85a.85.85 0 1 0 0 1.7.85.85 0 0 0 0-1.7m2.65.85a.95.95 0 1 1 1.9 0 .95.95 0 0 1-1.9 0m.95-.85a.85.85 0 1 0 0 1.7.85.85 0 0 0 0-1.7m-14.1 2.4a5.35 5.35 0 1 0 0 10.7 5.35 5.35 0 0 0 0-10.7M1.15 17.4a5.45 5.45 0 1 1 10.9 0 5.45 5.45 0 0 1-10.9 0m15.95-4.75a.85.85 0 1 0 0 1.7.85.85 0 0 0 0-1.7m-.95.85a.95.95 0 1 1 1.9 0 .95.95 0 0 1-1.9 0m4.55-.85a.85.85 0 1 0 0 1.7.85.85 0 0 0 0-1.7m-.95.85a.95.95 0 1 1 1.9 0 .95.95 0 0 1-1.9 0m-4.73 1.52a.95.95 0 1 1 1.343 1.343 6.14 6.14 0 0 1-3.181 1.694l-.065.012.006-.066a6.6 6.6 0 0 0-.084-1.812l-.009-.046.045-.012a4.25 4.25 0 0 0 1.944-1.114m1.272.07a.85.85 0 0 0-1.202 0 4.35 4.35 0 0 1-1.945 1.128 6.7 6.7 0 0 1 .083 1.727 6.04 6.04 0 0 0 3.064-1.653.85.85 0 0 0 0-1.202m-7.752.05a.65.65 0 1 1 .92.92l-3.6 3.6a.65.65 0 0 1-.92 0l-1.2-1.2a.65.65 0 1 1 .92-.92l.74.74zm.849.071a.55.55 0 0 0-.778 0L5.4 18.422l-.811-.81a.55.55 0 1 0-.778.777l1.2 1.2a.55.55 0 0 0 .778 0l3.6-3.6a.55.55 0 0 0 0-.778m10.411-.16a.85.85 0 1 0 0 1.7.85.85 0 0 0 0-1.7m-.95.85a.95.95 0 1 1 1.9-.001.95.95 0 0 1-1.9 0m-.097 1.65a.85.85 0 0 0-1.202 0 7.82 7.82 0 0 1-4.75 2.259 6.6 6.6 0 0 1-1.003 1.738 9.52 9.52 0 0 0 6.955-2.795.85.85 0 0 0 0-1.202m-1.273-.07a.95.95 0 1 1 1.344 1.343 9.62 9.62 0 0 1-7.13 2.821l-.102-.003.065-.078a6.6 6.6 0 0 0 1.06-1.82l.012-.028.03-.003a7.72 7.72 0 0 0 4.721-2.233" clip-rule="evenodd"/></svg>