<svg xmlns="http://www.w3.org/2000/svg" width="24" height="24" fill="none"><path fill="#04071E" d="m17.14 3.89-1.312 1.312A7.803 7.803 0 0 0 4.292 13.2H2.475a9.58 9.58 0 0 1 2.737-7.988c3.239-3.24 8.216-3.68 11.928-1.322M12 20.4v-.6a7.78 7.78 0 0 0 5.515-2.285.9.9 0 1 1 1.273 1.273 9.57 9.57 0 0 1-6.992 2.81c.132-.375.204-.778.204-1.198m0-3v.72a6.1 6.1 0 0 0 4.328-1.793.9.9 0 1 0-1.273-1.272 4.31 4.31 0 0 1-3.427 1.25c.233.303.372.683.372 1.095m-4.2-4.2h.05a4.32 4.32 0 0 1 1.095-4.255 4.32 4.32 0 0 1 4.24-1.1l1.396-1.396A6.122 6.122 0 0 0 5.998 13.2zm11.136-8.136a.9.9 0 0 1 0 1.272l-5.197 5.198A1.801 1.801 0 1 1 10.2 12a1.8 1.8 0 0 1 2.266-1.739l5.198-5.197a.9.9 0 0 1 1.272 0M20.7 15.9a.9.9 0 1 1-1.8 0 .9.9 0 0 1 1.8 0M19.8 9a.9.9 0 1 0 0-1.8.9.9 0 0 0 0 1.8m1.8 4.5a.9.9 0 1 1-1.8 0 .9.9 0 0 1 1.8 0m-.9-2.1a.9.9 0 1 0 0-1.8.9.9 0 0 0 0 1.8M18 13.5a.9.9 0 1 1-1.8 0 .9.9 0 0 1 1.8 0m-.9-2.1a.9.9 0 1 0 0-1.8.9.9 0 0 0 0 1.8m-15.3 3a.6.6 0 0 0-.6.6v4.8a.6.6 0 0 0 .6.6h6a.6.6 0 0 0 .6-.6V15a.6.6 0 0 0-.6-.6zm8.4 2.4a.6.6 0 0 1 .6.6v3a2.4 2.4 0 0 1-2.4 2.4H4.2a.6.6 0 1 1 0-1.2h4.2a1.2 1.2 0 0 0 1.2-1.2v-3a.6.6 0 0 1 .6-.6"/><path fill="#04071E" fill-rule="evenodd" d="m17.3 3.872-1.455 1.454-.066-.037a7.703 7.703 0 0 0-11.388 7.896l.018.115H2.387l-.011-.088a9.68 9.68 0 0 1 2.765-8.07c3.273-3.274 8.302-3.719 12.053-1.337zM11.9 19.7h.1c1.97 0 3.941-.752 5.445-2.255a1 1 0 1 1 1.414 1.414 9.67 9.67 0 0 1-7.065 2.839l-.138-.003.046-.13c.128-.365.198-.757.198-1.165zm0-1.48v-.82c0-.39-.13-.748-.351-1.035l-.139-.18.227.02a4.21 4.21 0 0 0 3.347-1.221 1 1 0 0 1 1.414 1.414A6.2 6.2 0 0 1 12 18.22zm-3.917-4.916-.136-.003L7.8 13.3H5.916l-.016-.08a6.222 6.222 0 0 1 8.723-6.861l.13.06-1.539 1.538-.056-.016a4.22 4.22 0 0 0-4.142 1.075 4.22 4.22 0 0 0-1.07 4.157zM17.14 3.89l-.087-.055C13.352 1.54 8.426 1.998 5.213 5.212A9.58 9.58 0 0 0 2.475 13.2h1.817l-.014-.1a7.803 7.803 0 0 1 11.55-7.898zm-5.31 17.609c.11-.347.17-.716.17-1.099v-.6a7.78 7.78 0 0 0 5.515-2.285.9.9 0 1 1 1.273 1.273 9.57 9.57 0 0 1-6.992 2.81q.017-.05.033-.1m.27-3.38a6.1 6.1 0 0 0 4.228-1.791.9.9 0 1 0-1.273-1.273 4.3 4.3 0 0 1-3.427 1.25q.04.051.076.105c.187.284.296.624.296.99v.72zm-4.25-4.918-.028-.1a4.32 4.32 0 0 1 1.123-4.156 4.32 4.32 0 0 1 4.24-1.1l1.396-1.396-.097-.044A6.122 6.122 0 0 0 5.998 13.2H7.85m11.157-8.208a1 1 0 0 1 0 1.414l-5.157 5.157A1.903 1.903 0 0 1 12 13.9a1.9 1.9 0 1 1 .436-3.75l5.157-5.157a1 1 0 0 1 1.414 0m-6.54 5.268A1.801 1.801 0 1 0 12 13.8a1.8 1.8 0 0 0 1.739-2.266l5.197-5.198a.9.9 0 1 0-1.272-1.272zM20.8 15.9a1 1 0 1 1-2 0 1 1 0 0 1 2 0m0-7.8a1 1 0 1 1-2 0 1 1 0 0 1 2 0m.9 5.4a1 1 0 1 1-2 0 1 1 0 0 1 2 0m0-3a1 1 0 1 1-2 0 1 1 0 0 1 2 0m-3.6 3a1 1 0 1 1-2 0 1 1 0 0 1 2 0m0-3a1 1 0 1 1-2 0 1 1 0 0 1 2 0M1.1 15a.7.7 0 0 1 .7-.7h6a.7.7 0 0 1 .7.7v4.8a.7.7 0 0 1-.7.7h-6a.7.7 0 0 1-.7-.7zm9.1 1.7a.7.7 0 0 1 .7.7v3a2.5 2.5 0 0 1-2.5 2.5H4.2a.7.7 0 1 1 0-1.4h4.2a1.1 1.1 0 0 0 1.1-1.1v-3a.7.7 0 0 1 .7-.7m9.6.1a.9.9 0 1 0 0-1.8.9.9 0 0 0 0 1.8m.9-8.7a.9.9 0 1 1-1.8 0 .9.9 0 0 1 1.8 0m0 6.3a.9.9 0 1 0 0-1.8.9.9 0 0 0 0 1.8m.9-3.9a.9.9 0 1 1-1.8 0 .9.9 0 0 1 1.8 0m-4.5 3.9a.9.9 0 1 0 0-1.8.9.9 0 0 0 0 1.8m.9-3.9a.9.9 0 1 1-1.8 0 .9.9 0 0 1 1.8 0M1.2 15a.6.6 0 0 1 .6-.6h6a.6.6 0 0 1 .6.6v4.8a.6.6 0 0 1-.6.6h-6a.6.6 0 0 1-.6-.6zm9.6 2.4a.6.6 0 0 0-1.2 0v3a1.2 1.2 0 0 1-1.2 1.2H4.2a.6.6 0 0 0 0 1.2h4.2a2.4 2.4 0 0 0 2.4-2.4z" clip-rule="evenodd"/></svg>