<svg xmlns="http://www.w3.org/2000/svg" width="24" height="24" fill="none"><path fill="#04071E" d="M6 8.4h3V12H6zm7.8 0V12h-3.6V8.4zM15 12h3V8.4h-3zm4.247-7.2q.469 0 .89.188.423.187.75.515.33.329.516.75.187.422.197.9V13.2q0 .637-.319 1.2a2.3 2.3 0 0 1-.881.881V17.4q0 .366-.14.694a1.8 1.8 0 0 1-.966.965q-.338.15-.694.141h-4.8a.58.58 0 0 1-.422-.178L12 17.644l-1.378 1.378a.58.58 0 0 1-.422.178H5.4q-.366 0-.694-.14a1.8 1.8 0 0 1-.572-.385 1.9 1.9 0 0 1-.393-.581A1.6 1.6 0 0 1 3.6 17.4v-2.119a2.3 2.3 0 0 1-.872-.881 2.5 2.5 0 0 1-.328-1.2V7.153q0-.469.188-.89.186-.423.515-.75.328-.33.75-.516.422-.187.9-.197zm-.788 2.493A1.1 1.1 0 0 0 18 7.2H6a1 1 0 0 0-.469.093q-.225.104-.384.263t-.253.375T4.8 8.4V12q.01.262.094.478.084.214.253.375.168.159.384.253.216.093.469.094h12q.244.01.469-.094.225-.103.384-.263a1.2 1.2 0 0 0 .253-.375q.094-.215.094-.468V8.4q0-.245-.094-.47a1.1 1.1 0 0 0-.262-.383 1.3 1.3 0 0 0-.385-.254"/></svg>