<svg xmlns="http://www.w3.org/2000/svg" width="24" height="24" fill="none"><path fill="#04071E" d="M4.8 6a2.4 2.4 0 0 1 2.4-2.4h8.4A2.4 2.4 0 0 1 18 6v8.4h3.6v2.4a3.6 3.6 0 0 1-3.6 3.6h-4.654l-1.872-1.872A5.4 5.4 0 0 0 12 16.2 5.39 5.39 0 0 0 9.994 12H13.8a.6.6 0 0 0 0-1.2H9a.6.6 0 0 0-.536.33A5.4 5.4 0 0 0 6.6 10.8c-.631 0-1.237.108-1.8.307zM18 19.2a2.4 2.4 0 0 0 2.4-2.4v-1.2H18zm-9-12a.6.6 0 0 0 0 1.2h4.8a.6.6 0 0 0 0-1.2zM6.6 20.4c.943 0 1.814-.311 2.515-.836l3.06 3.06a.6.6 0 0 0 .85-.848l-3.061-3.06A4.2 4.2 0 1 0 6.6 20.4m0-1.2a3 3 0 1 1 0-6 3 3 0 0 1 0 6"/><path fill="#04071E" fill-rule="evenodd" d="M7.2 3.65A2.35 2.35 0 0 0 4.85 6v5.037a5.5 5.5 0 0 1 1.75-.287 5.4 5.4 0 0 1 1.84.319.65.65 0 0 1 .56-.319h4.8a.65.65 0 0 1 0 1.3h-3.667a5.44 5.44 0 0 1 1.917 4.15 5.4 5.4 0 0 1-.516 2.318l1.832 1.832H18a3.55 3.55 0 0 0 3.55-3.55v-2.35h-3.6V6a2.35 2.35 0 0 0-2.35-2.35zM4.75 6A2.45 2.45 0 0 1 7.2 3.55h8.4A2.45 2.45 0 0 1 18.05 6v8.35h3.6v2.45A3.65 3.65 0 0 1 18 20.45h-4.675l-1.912-1.912.016-.031c.334-.699.521-1.48.521-2.307a5.34 5.34 0 0 0-1.987-4.161l-.11-.089H13.8a.55.55 0 0 0 0-1.1H9a.55.55 0 0 0-.491.303l-.02.04-.042-.016A5.3 5.3 0 0 0 6.6 10.85a5.3 5.3 0 0 0-1.783.305l-.067.023zm3.6 1.8A.65.65 0 0 1 9 7.15h4.8a.65.65 0 1 1 0 1.3H9a.65.65 0 0 1-.65-.65M9 7.25a.55.55 0 1 0 0 1.1h4.8a.55.55 0 0 0 0-1.1zM2.35 16.2a4.25 4.25 0 1 1 7.68 2.51l3.03 3.03a.65.65 0 0 1-.92.92l-3.03-3.03a4.25 4.25 0 0 1-6.76-3.43m4.25-4.15a4.15 4.15 0 1 0 2.485 7.474l.035-.026 3.091 3.09a.55.55 0 1 0 .778-.777L9.898 18.72l.026-.035A4.15 4.15 0 0 0 6.6 12.05m0 1.2a2.95 2.95 0 1 0 0 5.9 2.95 2.95 0 0 0 0-5.9M3.55 16.2a3.05 3.05 0 1 1 6.1 0 3.05 3.05 0 0 1-6.1 0m14.4-.65h2.5v1.25A2.45 2.45 0 0 1 18 19.25h-.05zm.1.1v3.5a2.35 2.35 0 0 0 2.3-2.35v-1.15z" clip-rule="evenodd"/></svg>