<svg xmlns="http://www.w3.org/2000/svg" width="24" height="24" fill="none"><path fill="#04071E" d="M7.2 2.4a2.4 2.4 0 0 0-2.4 2.4v14.4a2.4 2.4 0 0 0 2.4 2.4h6.835a5.4 5.4 0 0 1-1.715-2.422 1.8 1.8 0 0 1 0-3.556 5.39 5.39 0 0 1 3.302-3.301 1.8 1.8 0 0 1 3.556 0l.022.007V4.8a2.4 2.4 0 0 0-2.4-2.4zm10.867 15.998a1.2 1.2 0 1 1-1.334-1.997 1.2 1.2 0 0 1 1.334 1.997m3.472-1.598h.661a.6.6 0 0 1 0 1.2h-.661A4.185 4.185 0 0 1 18 21.54v.661a.6.6 0 0 1-1.2 0v-.661A4.185 4.185 0 0 1 13.261 18H12.6a.6.6 0 0 1 0-1.2h.661a4.185 4.185 0 0 1 3.539-3.539v-.66a.6.6 0 0 1 1.2 0v.66a4.185 4.185 0 0 1 3.539 3.54m-3.844 3.586a3 3 0 1 0-.59-5.972 3 3 0 0 0 .59 5.972"/><path fill="#04071E" fill-rule="evenodd" d="M4.75 4.8A2.45 2.45 0 0 1 7.2 2.35h9.6a2.45 2.45 0 0 1 2.45 2.45V12.4l-.117-.041-.004-.03a1.75 1.75 0 0 0-3.458 0l-.004.03-.029.01a5.33 5.33 0 0 0-3.27 3.27l-.01.029-.03.004a1.75 1.75 0 0 0 0 3.458l.03.005.01.028a5.33 5.33 0 0 0 1.699 2.4l.11.088H7.2a2.45 2.45 0 0 1-2.45-2.45zM7.2 2.45A2.35 2.35 0 0 0 4.85 4.8v14.4a2.35 2.35 0 0 0 2.35 2.35h6.696a5.4 5.4 0 0 1-1.613-2.327 1.85 1.85 0 0 1 0-3.646 5.43 5.43 0 0 1 3.294-3.294A1.85 1.85 0 0 1 19.15 12V4.8a2.35 2.35 0 0 0-2.35-2.35zm10.2 9.6a.55.55 0 0 0-.55.55v.705l-.043.006a4.13 4.13 0 0 0-3.496 3.496l-.006.043H12.6a.55.55 0 1 0 0 1.1h.705l.006.043a4.13 4.13 0 0 0 3.496 3.496l.043.007v.704a.55.55 0 1 0 1.1 0v-.704l.043-.007a4.13 4.13 0 0 0 3.496-3.496l.006-.043h.705a.55.55 0 1 0 0-1.1h-.704l-.007-.043a4.13 4.13 0 0 0-3.496-3.496l-.043-.006V12.6a.55.55 0 0 0-.55-.55m-.46.09a.65.65 0 0 1 1.11.46v.618a4.23 4.23 0 0 1 3.532 3.532h.618a.65.65 0 0 1 0 1.3h-.618a4.23 4.23 0 0 1-3.532 3.532v.618a.65.65 0 0 1-1.3 0v-.618a4.23 4.23 0 0 1-3.532-3.532H12.6a.65.65 0 0 1 0-1.3h.618a4.23 4.23 0 0 1 3.532-3.532V12.6a.65.65 0 0 1 .19-.46m-.978 2.571a3.05 3.05 0 1 1 2.876 5.379 3.05 3.05 0 0 1-2.876-5.379m2.013-.204a2.95 2.95 0 1 0-1.15 5.788 2.95 2.95 0 0 0 1.15-5.788m-.35 1.765a1.15 1.15 0 1 0-.45 2.256 1.15 1.15 0 0 0 .45-2.256m-.703-.027a1.25 1.25 0 1 1 .956 2.311 1.25 1.25 0 0 1-.956-2.31" clip-rule="evenodd"/></svg>