<svg xmlns="http://www.w3.org/2000/svg" width="24" height="24" fill="none"><path fill="#04071E" d="M10.68 3.645c.566-1.054 2.078-1.054 2.643 0l1.993 3.712-1.231-.41a.9.9 0 0 0-.57 1.707l3.6 1.2a.9.9 0 0 0 1.173-.706l.6-3.6a.9.9 0 0 0-1.776-.296l-.209 1.256-1.994-3.714c-1.245-2.319-4.57-2.32-5.815 0L7.012 6.67a.9.9 0 0 0 1.586.852zm9.647 13.047-2.294-4.273a.9.9 0 0 1 1.586-.851l2.294 4.272c1.18 2.199-.413 4.861-2.908 4.861h-4.231l.862.863a.9.9 0 1 1-1.272 1.273l-2.4-2.4a.9.9 0 0 1 0-1.273l2.4-2.4a.9.9 0 0 1 1.272 1.273l-.864.864h4.233a1.5 1.5 0 0 0 1.322-2.21M8.7 18.9a.9.9 0 1 1 0 1.8H4.997c-2.495 0-4.088-2.663-2.908-4.861l2.216-4.127-1.62.54a.9.9 0 0 1-.57-1.707l3.6-1.2a.9.9 0 0 1 1.139.569l1.2 3.6a.9.9 0 0 1-1.708.57l-.487-1.461-2.184 4.067a1.5 1.5 0 0 0 1.322 2.21z"/><path fill="#04071E" fill-rule="evenodd" d="M9.006 2.746c1.283-2.389 4.709-2.389 5.991 0l1.855 3.457.162-.967a1 1 0 1 1 1.972.329l-.6 3.6a1 1 0 0 1-1.302.784l-3.6-1.2a1 1 0 1 1 .632-1.898l.992.331-1.873-3.49a1.4 1.4 0 0 0-2.467 0L8.686 7.57a1 1 0 0 1-1.762-.946zm5.815.095c-1.207-2.248-4.431-2.249-5.639 0L7.1 6.719a.8.8 0 1 0 1.41.757l2.082-3.878c.604-1.125 2.216-1.124 2.82 0l1.992 3.711a.1.1 0 0 1-.12.142l-1.231-.41a.8.8 0 1 0-.506 1.518l3.6 1.2a.8.8 0 0 0 1.042-.627l.6-3.6a.8.8 0 0 0-1.578-.263L17 6.524a.1.1 0 0 1-.186.031zM6.358 9.484a.8.8 0 0 0-.611-.044l-3.6 1.201a.8.8 0 0 0 .506 1.518l1.62-.54a.1.1 0 0 1 .12.142l-2.215 4.126c-1.145 2.132.4 4.714 2.819 4.714H8.7a.8.8 0 0 0 0-1.6H4.997a1.6 1.6 0 0 1-1.41-2.357l2.184-4.068a.1.1 0 0 1 .183.016l.487 1.461a.8.8 0 0 0 1.518-.506l-1.2-3.6a.8.8 0 0 0-.401-.463m-.674-.233a1 1 0 0 1 1.265.632l1.2 3.601a1 1 0 0 1-1.898.632l-.413-1.24-2.075 3.863A1.4 1.4 0 0 0 4.997 18.8H8.7a1 1 0 1 1 0 2H4.997c-2.571 0-4.212-2.743-2.996-5.008l2.097-3.905-1.382.46a1 1 0 1 1-.632-1.897zm13.847 2.364a.8.8 0 1 0-1.41.757l2.294 4.272a1.6 1.6 0 0 1-1.41 2.357h-4.233a.1.1 0 0 1-.07-.17l.864-.865a.8.8 0 1 0-1.132-1.132l-2.4 2.4a.8.8 0 0 0 0 1.132l2.4 2.4a.8.8 0 1 0 1.132-1.132l-.863-.862a.1.1 0 0 1 .07-.171h4.232c2.42 0 3.964-2.582 2.82-4.713zm-1.152-.516a1 1 0 0 1 1.328.421l2.294 4.273c1.215 2.265-.425 5.008-2.996 5.008h-3.99l.692.692a1 1 0 0 1-1.414 1.414l-2.4-2.4a1 1 0 0 1 0-1.414l2.4-2.4a1 1 0 0 1 1.414 1.414l-.694.694h3.992a1.4 1.4 0 0 0 1.233-2.062l-2.293-4.273a1 1 0 0 1 .434-1.367" clip-rule="evenodd"/></svg>