<svg xmlns="http://www.w3.org/2000/svg" width="24" height="24" fill="none"><path fill="#04071E" d="M20.364 18.036a.9.9 0 1 0 1.272-1.272L15.073 10.2l6.563-6.564a.9.9 0 1 0-1.272-1.272l-7.2 7.2a.9.9 0 0 0 0 1.272zM3.636 5.964a.9.9 0 1 0-1.272 1.272L8.927 13.8l-6.563 6.564a.9.9 0 1 0 1.272 1.272l7.2-7.2a.9.9 0 0 0 0-1.272z"/><path fill="#04071E" fill-rule="evenodd" d="M20.258 2.257a1.05 1.05 0 1 1 1.484 1.485L15.285 10.2l6.457 6.458a1.05 1.05 0 1 1-1.485 1.484l-7.2-7.2a1.05 1.05 0 0 1 0-1.485zm1.272.213a.75.75 0 0 0-1.06 0l-7.2 7.2a.75.75 0 0 0 0 1.06l7.2 7.2a.75.75 0 0 0 1.06-1.06l-6.67-6.67 6.67-6.67a.75.75 0 0 0 0-1.06M2.257 5.857a1.05 1.05 0 0 1 1.485 0l7.2 7.2c.41.41.41 1.075 0 1.485l-7.2 7.2a1.05 1.05 0 1 1-1.485-1.485L8.715 13.8 2.257 7.342a1.05 1.05 0 0 1 0-1.485m1.273.213a.75.75 0 0 0-1.06 1.06l6.67 6.67-6.67 6.67a.75.75 0 0 0 1.06 1.06l7.2-7.2a.75.75 0 0 0 0-1.06z" clip-rule="evenodd"/></svg>