<svg xmlns="http://www.w3.org/2000/svg" width="24" height="24" fill="none"><path fill="#04071E" d="M3.621 10.621a3 3 0 0 1 0-4.242L6.88 3.12a3 3 0 0 1 4.242 0l3.667 3.667q-.069.105-.123.22A1.75 1.75 0 0 0 12 8.5v4.528a4 4 0 0 0-.5-.032c-.665 0-1.246.166-1.694.391a2.9 2.9 0 0 0-.753.542 2 2 0 0 0-.232.287 1.86 1.86 0 0 0-.3 1.305zM17 7.75v5.75a.5.5 0 1 0 1 0v-5a.75.75 0 0 1 1.5 0v5.498a.5.5 0 1 0 1 0V9.75a.75.75 0 0 1 1.5 0v7c0 .624-.274 1.386-.56 2.037-.301.684-.675 1.376-.977 1.902a2.64 2.64 0 0 1-2.305 1.31h-1.139a2.75 2.75 0 0 1-2.225-1.133l-1.377-1.898-1.658-1.89-1.907-1.192a.75.75 0 0 1-.352-.636c0-.237.104-.408.15-.476.06-.088.127-.158.185-.211.119-.108.264-.204.42-.282.318-.16.745-.285 1.245-.285.53 0 1.07.154 1.503.317L13 14.25V8.5a.75.75 0 0 1 1.5 0v5a.5.5 0 1 0 1 0V7.75a.75.75 0 0 1 1.5 0M4.251 14a.75.75 0 0 1 .75.75v.748h.746a.75.75 0 0 1 0 1.5H5v.756a.75.75 0 0 1-1.5 0v-.756H2.75a.75.75 0 0 1 0-1.5h.751v-.748a.75.75 0 0 1 .75-.75m4.75 4.25a.75.75 0 0 0-1.5 0v.748H6.75a.75.75 0 0 0 0 1.5h.751v.756a.75.75 0 0 0 1.5 0v-.756h.746a.75.75 0 0 0 0-1.5H9z"/></svg>