<svg xmlns="http://www.w3.org/2000/svg" width="24" height="24" fill="none"><path fill="#04071E" d="M3.6 6A2.4 2.4 0 0 1 6 3.6h1.2v4.2A1.8 1.8 0 0 0 9 9.6h4.8a1.8 1.8 0 0 0 1.8-1.8V3.6h.454a2.4 2.4 0 0 1 1.698.703l1.945 1.946a2.4 2.4 0 0 1 .703 1.697V18a2.4 2.4 0 0 1-2.4 2.4v-6.6a1.8 1.8 0 0 0-1.8-1.8h-5.005a5.4 5.4 0 0 0-7.595.805zm9.074 12.528 1.872 1.872H16.8v-6.6a.6.6 0 0 0-.6-.6h-3.909a5.41 5.41 0 0 1 .383 5.328M14.4 3.6h-6v4.2a.6.6 0 0 0 .6.6h4.8a.6.6 0 0 0 .6-.6zM12 16.2a4.18 4.18 0 0 1-.836 2.515l3.06 3.06a.6.6 0 0 1-.848.85l-3.06-3.061A4.2 4.2 0 1 1 12 16.2m-7.2 0a3 3 0 1 0 6 0 3 3 0 0 0-6 0"/></svg>