<svg xmlns="http://www.w3.org/2000/svg" width="24" height="24" fill="none"><path fill="#04071E" d="M3.6 6A2.4 2.4 0 0 1 6 3.6h1.2v4.2A1.8 1.8 0 0 0 9 9.6h4.8a1.8 1.8 0 0 0 1.8-1.8V3.6h.454a2.4 2.4 0 0 1 1.698.703l1.945 1.946a2.4 2.4 0 0 1 .703 1.697v3.574c-.9-.46-1.92-.72-3-.72a6.57 6.57 0 0 0-3.796 1.2H7.8A1.8 1.8 0 0 0 6 13.8v6.6A2.4 2.4 0 0 1 3.6 18zm7.2 11.4c0-1.595.566-3.059 1.509-4.2H7.8a.6.6 0 0 0-.6.6v6.6h4.32c-.46-.9-.72-1.92-.72-3m3.6-13.8h-6v4.2a.6.6 0 0 0 .6.6h4.8a.6.6 0 0 0 .6-.6zM12 17.4a5.4 5.4 0 1 0 10.8 0 5.4 5.4 0 0 0-10.8 0m7.8-3.6a.6.6 0 0 1 .6.6v1.8a.6.6 0 0 1-.6.6H18a.6.6 0 1 1 0-1.2h.562a2.4 2.4 0 0 0-1.12-.3 2.4 2.4 0 0 0-1.74.703.6.6 0 1 1-.848-.848 3.6 3.6 0 0 1 4.346-.573V14.4a.6.6 0 0 1 .6-.6m-1.051 6.638a3.6 3.6 0 0 1-3.149-.22v.182a.6.6 0 1 1-1.2 0v-1.8a.6.6 0 0 1 .6-.6h1.8a.6.6 0 1 1 0 1.2h-.562a2.4 2.4 0 0 0 1.12.3 2.4 2.4 0 0 0 1.74-.703.6.6 0 1 1 .848.849 3.6 3.6 0 0 1-1.197.792"/></svg>