<svg xmlns="http://www.w3.org/2000/svg" width="24" height="24" fill="none"><path fill="#04071E" d="M5.75 3h1v4.5A2.25 2.25 0 0 0 9 9.75h4.5a2.25 2.25 0 0 0 2.25-2.25V3c.85.01 1.661.35 2.263.952l2.035 2.035c.61.61.952 1.437.952 2.299v2.84A4 4 0 0 0 20 11h-5a4 4 0 0 0-3.308 1.75H8.25A2.25 2.25 0 0 0 6 15v6h-.25A2.75 2.75 0 0 1 3 18.25V5.75A2.75 2.75 0 0 1 5.75 3"/><path fill="#04071E" d="M11.07 14.25H8.25a.75.75 0 0 0-.75.75v6h3.626A4 4 0 0 1 11 20v-5q0-.385.07-.75M14.25 7.5V3h-6v4.5c0 .414.336.75.75.75h4.5a.75.75 0 0 0 .75-.75"/><path fill="#04071E" fill-rule="evenodd" d="M12 15a3 3 0 0 1 3-3h5a3 3 0 0 1 3 3v5c0 .648-.205 1.248-.555 1.738l-3.53-3.53a2 2 0 0 0-2.83 0l-3.53 3.53A3 3 0 0 1 12 20zm9 0a1 1 0 1 1-2 0 1 1 0 0 1 2 0" clip-rule="evenodd"/><path fill="#04071E" d="M13.262 22.445c.49.35 1.09.555 1.738.555h5c.648 0 1.248-.205 1.738-.555l-3.53-3.53a1 1 0 0 0-1.415 0z"/></svg>