<svg xmlns="http://www.w3.org/2000/svg" width="24" height="24" fill="none"><path fill="#04071E" d="M2.981 3.83A3.3 3.3 0 0 0 2.4 5.7v1.8a.9.9 0 1 0 1.8 0V5.7c0-.193.037-.378.103-.548L6.9 7.749V8.1a.9.9 0 0 0 1.2.849l3 3V16.2h-.3a.9.9 0 0 0 0 1.8h2.4a.9.9 0 1 0 0-1.8h-.3v-2.451l5.948 5.948c-.17.066-.354.103-.548.103h-1.8a.9.9 0 0 0 0 1.8h1.8c.694 0 1.339-.215 1.87-.58l.406.404a.6.6 0 0 0 .848-.848l-.405-.405-1.322-1.323L7.138 6.29 5.152 4.303 3.83 2.981l-.406-.405a.6.6 0 0 0-.848.848zM21.6 18.3q0 .352-.07.684l-1.73-1.73V16.5a.9.9 0 0 1 1.8 0zM12.9 7.8v2.554l-1.8-1.8V7.8h-.754L8.546 6H16.2a.9.9 0 0 1 .9.9v1.2a.9.9 0 1 1-1.8 0v-.3zM7.5 4.2h-.754l-1.73-1.73q.332-.07.684-.07h1.8a.9.9 0 1 1 0 1.8M5.7 19.8a1.5 1.5 0 0 1-1.5-1.5v-1.8a.9.9 0 0 0-1.8 0v1.8a3.3 3.3 0 0 0 3.3 3.3h1.8a.9.9 0 1 0 0-1.8zM19.8 5.7a1.5 1.5 0 0 0-1.5-1.5h-1.8a.9.9 0 0 1 0-1.8h1.8a3.3 3.3 0 0 1 3.3 3.3v1.8a.9.9 0 1 1-1.8 0z"/><path fill="#04071E" fill-rule="evenodd" d="M5.222 2.535 6.787 4.1H7.5a.8.8 0 1 0 0-1.6H5.7q-.244 0-.478.035m-.226-.162Q5.338 2.3 5.7 2.3h1.8a1 1 0 1 1 0 2h-.796L4.815 2.411zM16.5 2.5a.8.8 0 0 0 0 1.6h1.8a1.6 1.6 0 0 1 1.6 1.6v1.8a.8.8 0 0 0 1.6 0V5.7a3.2 3.2 0 0 0-3.2-3.2zm-1 .8a1 1 0 0 1 1-1h1.8a3.4 3.4 0 0 1 3.4 3.4v1.8a1 1 0 0 1-2 0V5.7a1.4 1.4 0 0 0-1.4-1.4h-1.8a1 1 0 0 1-1-1M3.495 2.505l.405.405-.039.04.04-.04 3.308 3.31 14.286 14.285a.7.7 0 1 1-.99.99l-.347-.347a3.4 3.4 0 0 1-1.858.552h-1.8a1 1 0 0 1 0-2h1.8q.189-.001.363-.047L13 13.99v2.11h.2a1 1 0 0 1 0 2h-2.4a1 1 0 0 1 0-2h.2v-4.11L8.072 9.062A1 1 0 0 1 6.8 8.1v-.31L4.347 5.337q-.046.175-.047.363v1.8a1 1 0 1 1-2 0V5.7c0-.685.203-1.324.552-1.858l-.347-.347a.7.7 0 0 1 .99-.99m-.141.142a.5.5 0 1 0-.707.707l.464.464-.048.068A3.2 3.2 0 0 0 2.5 5.7v1.8a.8.8 0 1 0 1.6 0V5.7c0-.206.04-.403.11-.585l.056-.142L7 7.707V8.1a.8.8 0 0 0 1.067.754l.06-.02 3.073 3.073V16.3h-.4a.8.8 0 0 0 0 1.6h2.4a.8.8 0 1 0 0-1.6h-.4v-2.793l6.227 6.227-.142.056q-.274.108-.585.11h-1.8a.8.8 0 0 0 0 1.6h1.8c.674 0 1.298-.208 1.814-.563l.068-.047.465.464a.5.5 0 1 0 .707-.707L5.08 4.374zM8.304 5.9H16.2a1 1 0 0 1 1 1v1.2a1 1 0 1 1-2 0v-.2H13v2.696l-2-2V7.9h-.696zm.483.2H16.2a.8.8 0 0 1 .8.8v1.2a.8.8 0 1 1-1.6 0v-.4h-2.6v2.413l-1.6-1.6V7.7h-.813zM2.3 16.5a1 1 0 0 1 2 0v1.8a1.4 1.4 0 0 0 1.4 1.4h1.8a1 1 0 1 1 0 2H5.7a3.4 3.4 0 0 1-3.4-3.4zm1-.8a.8.8 0 0 0-.8.8v1.8a3.2 3.2 0 0 0 3.2 3.2h1.8a.8.8 0 1 0 0-1.6H5.7a1.6 1.6 0 0 1-1.6-1.6v-1.8a.8.8 0 0 0-.8-.8m17.4 0a.8.8 0 0 0-.8.8v.713l1.565 1.565q.035-.234.035-.478v-1.8a.8.8 0 0 0-.8-.8m-1 .8a1 1 0 0 1 2 0v1.8q0 .363-.073.704l-.038.18-1.889-1.888z" clip-rule="evenodd"/></svg>