<svg xmlns="http://www.w3.org/2000/svg" width="24" height="24" fill="none"><path fill="#04071E" d="M6.25 3A3.25 3.25 0 0 0 3 6.25V8a1 1 0 0 0 2 0V6.25C5 5.56 5.56 5 6.25 5H8a1 1 0 0 0 0-2zM16 3a1 1 0 1 0 0 2h1.75c.69 0 1.25.56 1.25 1.25V8a1 1 0 1 0 2 0V6.25A3.25 3.25 0 0 0 17.75 3zM5 16a1 1 0 1 0-2 0v1.75A3.25 3.25 0 0 0 6.25 21H8a1 1 0 1 0 0-2H6.25C5.56 19 5 18.44 5 17.75zm16 0a1 1 0 1 0-2 0v1.75c0 .69-.56 1.25-1.25 1.25H16a1 1 0 1 0 0 2h1.75A3.25 3.25 0 0 0 21 17.75zM8 7a1 1 0 0 0 0 2h8a1 1 0 1 0 0-2zm-1 5a1 1 0 0 1 1-1h8a1 1 0 1 1 0 2H8a1 1 0 0 1-1-1m1 3a1 1 0 1 0 0 2h4a1 1 0 1 0 0-2z"/></svg>