<svg xmlns="http://www.w3.org/2000/svg" width="24" height="24" fill="none"><path fill="#04071E" d="M3.6 7.195a1.2 1.2 0 0 1 1.2-1.2h.6a.6.6 0 1 0 0-1.2h-.6a2.4 2.4 0 0 0-2.4 2.4v.6a.6.6 0 0 0 1.2 0zM4.8 16.804a1.2 1.2 0 0 1-1.2-1.2v-.6a.6.6 0 1 0-1.2 0v.6a2.4 2.4 0 0 0 2.4 2.4h.3a.6.6 0 1 0 0-1.2zM3 9.6a.6.6 0 0 1 .6.6v2.4a.6.6 0 1 1-1.2 0v-2.4a.6.6 0 0 1 .6-.6M20.4 7.195a1.2 1.2 0 0 0-1.2-1.2h-.6a.6.6 0 0 1 0-1.2h.6a2.4 2.4 0 0 1 2.4 2.4v.6a.6.6 0 1 1-1.2 0zM20.4 15.604a1.2 1.2 0 0 1-1.2 1.2h-.303a.6.6 0 1 0 0 1.2h.303a2.4 2.4 0 0 0 2.4-2.4v-.6a.6.6 0 1 0-1.2 0zM20.4 10.2a.6.6 0 0 1 1.2 0v2.4a.6.6 0 1 1-1.2 0zM7.2 5.395a.6.6 0 0 1 .6-.6h3a.6.6 0 1 1 0 1.2h-3a.6.6 0 0 1-.6-.6M13.2 4.795a.6.6 0 0 0 0 1.2h3a.6.6 0 1 0 0-1.2zM6 7.2a1.2 1.2 0 0 0-1.2 1.2v6A1.2 1.2 0 0 0 6 15.6h3.238l.594-.891-2.34-3.508a1.797 1.797 0 0 1 .506-2.497 1.803 1.803 0 0 1 2.493.504l1.504 2.256L13.5 9.208a1.803 1.803 0 0 1 2.494-.504 1.797 1.797 0 0 1 .504 2.497l-2.338 3.508.594.89H18a1.2 1.2 0 0 0 1.2-1.2v-6A1.2 1.2 0 0 0 18 7.2z"/><path fill="#04071E" d="M8.659 9.705a.597.597 0 0 0-.168.83l2.783 4.174-1.486 2.228a2.4 2.4 0 1 0 .113 4.493 2.4 2.4 0 0 0 .887-3.83l1.207-1.81 1.21 1.816a2.4 2.4 0 1 0 4.018 2.497 2.4 2.4 0 0 0-3.02-3.163l-1.487-2.231.003-.004-.721-1.082-.003.004-2.503-3.753a.603.603 0 0 0-.833-.169m6.34 10.695a1.2 1.2 0 1 1 0-2.4 1.2 1.2 0 0 1 0 2.4M9 20.4A1.2 1.2 0 1 1 9 18a1.2 1.2 0 0 1 0 2.4M12.719 12.542l.72 1.081 2.06-3.088a.597.597 0 0 0-.168-.83.603.603 0 0 0-.833.169z"/></svg>