<svg xmlns="http://www.w3.org/2000/svg" width="24" height="24" fill="none"><path fill="#04071E" d="M10.2 3.6a6.6 6.6 0 0 1 5.26 10.587l4.976 4.977a.9.9 0 0 1-1.171 1.36l-.101-.088-4.977-4.976q-.518.393-1.107.68a6.6 6.6 0 0 0-.59-1.72 4.8 4.8 0 1 0-7.04-3.52c-.61.107-1.19.298-1.73.56A6.6 6.6 0 0 1 10.2 3.6M3.678 13.73a2.4 2.4 0 0 1-1.717 2.974l-.553.141a5.7 5.7 0 0 0 .012 1.22l.42.1a2.4 2.4 0 0 1 1.747 3.022l-.152.507q.465.367 1.002.622l.39-.413a2.4 2.4 0 0 1 3.491.002l.405.43q.528-.246.986-.598l-.187-.668a2.4 2.4 0 0 1 1.717-2.973l.552-.142a5.7 5.7 0 0 0-.012-1.22l-.418-.099a2.4 2.4 0 0 1-1.748-3.023l.152-.506a5.2 5.2 0 0 0-1.002-.622l-.39.413a2.4 2.4 0 0 1-3.491-.002l-.405-.43q-.527.245-.986.597zM6.6 18.6a1.2 1.2 0 1 1 0-2.4 1.2 1.2 0 0 1 0 2.4"/><path fill="#04071E" fill-rule="evenodd" d="M10.2 3.7a6.5 6.5 0 0 0-6.405 7.614 6.7 6.7 0 0 1 1.544-.495 4.9 4.9 0 1 1 7.284 3.642c.235.48.414.994.529 1.532q.517-.264.975-.613l.07-.052 5.035 5.035.095.082a.8.8 0 0 0 1.039-1.21l-5.038-5.039.052-.07A6.5 6.5 0 0 0 10.2 3.7m-6.7 6.5a6.7 6.7 0 1 1 12.092 3.978l4.915 4.915a1 1 0 0 1-1.302 1.51l-.006-.004-.106-.092-4.915-4.915q-.496.365-1.055.638l-.117.057-.024-.128a6.5 6.5 0 0 0-.581-1.694l-.044-.087.085-.046a4.7 4.7 0 1 0-6.893-3.446l.015.095-.096.017c-.6.106-1.173.293-1.704.552l-.117.057-.025-.128A6.7 6.7 0 0 1 3.5 10.2m1 2.144.455.482a2.3 2.3 0 0 0 3.346.002l.439-.465.066.03q.547.26 1.02.634l.054.042-.17.572a2.3 2.3 0 0 0 1.674 2.897l.486.115.009.07a5.7 5.7 0 0 1 .012 1.241l-.007.07-.62.158a2.3 2.3 0 0 0-1.646 2.85l.206.733-.054.041q-.466.36-1.005.609l-.065.03-.454-.482a2.3 2.3 0 0 0-3.346-.002l-.44.466-.066-.03a5.3 5.3 0 0 1-1.02-.634l-.054-.042.171-.573a2.3 2.3 0 0 0-1.674-2.897l-.488-.115-.008-.07a5.7 5.7 0 0 1-.012-1.24l.007-.07.62-.159a2.3 2.3 0 0 0 1.646-2.85l-.206-.733.054-.041q.466-.36 1.005-.609zm-.895.757.17.602a2.5 2.5 0 0 1-1.789 3.098l-.485.124a5.6 5.6 0 0 0 .01 1.059l.352.083a2.5 2.5 0 0 1 1.82 3.148l-.132.442q.405.311.863.537l.34-.36a2.5 2.5 0 0 1 3.637.002l.355.377q.45-.216.849-.515l-.17-.602a2.5 2.5 0 0 1 1.79-3.097l.483-.124a5.6 5.6 0 0 0-.01-1.06l-.35-.082a2.5 2.5 0 0 1-1.82-3.15l.131-.44a5 5 0 0 0-.864-.537l-.339.36a2.5 2.5 0 0 1-3.637-.003l-.355-.376a5 5 0 0 0-.849.514M6.6 16.3a1.1 1.1 0 1 0 0 2.2 1.1 1.1 0 0 0 0-2.2m-1.3 1.1a1.3 1.3 0 1 1 2.6 0 1.3 1.3 0 0 1-2.6 0" clip-rule="evenodd"/></svg>