<svg xmlns="http://www.w3.org/2000/svg" width="24" height="24" fill="none"><path fill="#04071E" d="M10.2 3.6a6.6 6.6 0 0 1 5.26 10.587l4.976 4.977a.9.9 0 0 1-1.171 1.36l-.101-.088-4.977-4.976a6.6 6.6 0 0 1-2.19 1.092q.003-.125.003-.25v-1.65A4.802 4.802 0 0 0 10.2 5.4a4.8 4.8 0 0 0-4.774 4.302 1.7 1.7 0 0 0-.63.413c-.378.394-.758.7-1.142.931A6.6 6.6 0 0 1 10.2 3.6m-1.8 8.817a5.6 5.6 0 0 1-1.2-.7 7 7 0 0 1-.86-.77.467.467 0 0 0-.678 0C4.468 12.188 3.148 12.8 1.68 12.8a.49.49 0 0 0-.48.5v3.001l.005.319q.05 1.435.529 2.58a5.8 5.8 0 0 0 1.865 2.4q.943.72 2.25 1.174a.46.46 0 0 0 .303 0c3.073-1.067 4.648-3.254 4.648-6.473V13.3l-.01-.1a.486.486 0 0 0-.47-.4 4.87 4.87 0 0 1-1.92-.384"/><path fill="#04071E" fill-rule="evenodd" d="M3.64 10.937a6.6 6.6 0 1 1 11.82 3.25l4.977 4.977a.9.9 0 0 1-1.172 1.36l-.101-.088-4.977-4.976a6.6 6.6 0 0 1-2.19 1.092l.003-.25v-1.65A4.802 4.802 0 0 0 10.2 5.4a4.8 4.8 0 0 0-4.774 4.302 1.7 1.7 0 0 0-.63.413 5.7 5.7 0 0 1-1.142.931zm10.538 4.655a6.7 6.7 0 0 1-2.154 1.057l-.13.036.003-.135q.003-.123.003-.249v-1.717l.063-.026A4.702 4.702 0 0 0 10.2 5.5a4.7 4.7 0 0 0-4.675 4.213l-.006.062-.059.021a1.6 1.6 0 0 0-.592.388c-.383.4-.77.712-1.163.948l-.13.079-.02-.152a6.7 6.7 0 1 1 12.037 3.119l4.915 4.915a1 1 0 0 1-1.302 1.51L19.2 20.6l-.106-.092zm-13.078.71V13.3c0-.328.256-.6.58-.6 1.436 0 2.731-.596 3.91-1.823a.567.567 0 0 1 .823 0q.414.433.847.76.572.433 1.179.687a4.8 4.8 0 0 0 1.881.376c.284 0 .515.209.569.48l.001.01.01.11v3.001c0 1.626-.398 3-1.19 4.102-.793 1.103-1.974 1.927-3.525 2.466a.56.56 0 0 1-.37 0q-1.318-.458-2.276-1.19a5.875 5.875 0 0 1-1.897-2.44q-.488-1.165-.537-2.616v-.002zm.1 0V13.3c0-.276.215-.5.48-.5 1.468 0 2.788-.611 3.982-1.854a.467.467 0 0 1 .679 0q.418.438.86.771.579.44 1.2.7a4.9 4.9 0 0 0 1.92.383c.231 0 .425.171.47.4l.01.1v3.001c0 3.219-1.576 5.407-4.65 6.473a.46.46 0 0 1-.303 0Q4.543 22.321 3.6 21.6a5.774 5.774 0 0 1-1.866-2.4q-.48-1.145-.528-2.58z" clip-rule="evenodd"/></svg>