<svg xmlns="http://www.w3.org/2000/svg" width="24" height="24" fill="none"><path fill="#04071E" d="M8 2a3 3 0 0 0-3 3v14a3 3 0 0 0 3 3h4.834a4.74 4.74 0 0 1-1.827-3.5H8.25a.75.75 0 0 1 0-1.5h2.916a4.7 4.7 0 0 1 .71-1.5H8.25a.75.75 0 0 1 0-1.5h5.376a4.7 4.7 0 0 1 2.124-.5H17V5a3 3 0 0 0-3-3zm-.5 4.75A.75.75 0 0 1 8.25 6h5.5a.75.75 0 0 1 0 1.5h-5.5a.75.75 0 0 1-.75-.75M23 18.25a3.75 3.75 0 0 0-3.75-3.75l-.102.007A.75.75 0 0 0 19.25 16l.154.005a2.25 2.25 0 0 1-.154 4.495l-.003.005-.102.007a.75.75 0 0 0 .108 1.493V22l.2-.005A3.75 3.75 0 0 0 23 18.25m-6.5-3a.75.75 0 0 0-.75-.75l-.2.005a3.75 3.75 0 0 0 .2 7.495l.102-.007a.75.75 0 0 0-.102-1.493l-.154-.005A2.25 2.25 0 0 1 15.75 16l.102-.007a.75.75 0 0 0 .648-.743m3.5 3a.75.75 0 0 0-.75-.75h-3.5l-.102.007A.75.75 0 0 0 15.75 19h3.5l.102-.007A.75.75 0 0 0 20 18.25"/></svg>