<svg xmlns="http://www.w3.org/2000/svg" width="24" height="24" fill="none"><path fill="#04071E" d="M15.002 12h.748a.749.749 0 1 0 0-1.5h-.748V8.25c0-.828-.28-1.606-.772-2.254.006 0 .02.004.02.004h1.5a.749.749 0 1 0 0-1.5h-1.5a.75.75 0 0 0-.75.75l.002.01.002.011a3.7 3.7 0 0 0-2.252-.771H10.5v-.75a2.245 2.245 0 0 1 2.25-2.25h4.5a2.25 2.25 0 0 1 2.25 2.241v9.009c0 1.24-1.01 2.25-2.25 2.25h-2.248zm5.996.623 1.464 4.39a.75.75 0 0 1-.104.675h-.008a.75.75 0 0 1-.6.312h-4.876l-.488-1.462q-.003-.01-.01-.02l-.01-.018h.883a3.755 3.755 0 0 0 3.75-3.75zM15 17.123l1.464 4.39v.002a.75.75 0 0 1-.105.674h-.007a.75.75 0 0 1-.6.313h-13.5a.76.76 0 0 1-.61-.312.74.74 0 0 1-.103-.677L3 17.128v.122A3.755 3.755 0 0 0 6.75 21h4.5A3.755 3.755 0 0 0 15 17.25zM11.25 19.5h-4.5c-1.24 0-2.25-1.01-2.25-2.25v-9A2.245 2.245 0 0 1 6.75 6h4.5a2.25 2.25 0 0 1 2.25 2.241v9.009c0 1.24-1.01 2.25-2.25 2.25M8.252 9a.749.749 0 1 0 0 1.5h1.5a.749.749 0 1 0 0-1.5zm0 6a.749.749 0 1 0 0 1.5h1.5a.749.749 0 1 0 0-1.5z"/></svg>