<svg xmlns="http://www.w3.org/2000/svg" width="24" height="24" fill="none"><path fill="#04071E" d="M8.25 19.5h6c1.24 0 2.25-1.01 2.25-2.25V3.75a2.251 2.251 0 0 0-2.25-2.25h-6A2.245 2.245 0 0 0 6 3.75v13.5c0 1.24 1.01 2.25 2.25 2.25m.969-13.281A.75.75 0 0 1 9.749 6h3a.749.749 0 0 1 .531 1.281.75.75 0 0 1-.53.219h-3A.746.746 0 0 1 9 6.75c0-.2.08-.39.219-.531m0 6a.75.75 0 0 1 .53-.219h3a.749.749 0 0 1 .531 1.281.75.75 0 0 1-.53.219h-3a.746.746 0 0 1-.75-.75c0-.2.08-.39.219-.531m0 3a.75.75 0 0 1 .53-.219h3a.749.749 0 0 1 .531 1.281.75.75 0 0 1-.53.219h-3a.749.749 0 0 1-.531-1.281m11.733 6.267-2.25-6A.751.751 0 0 0 18 15v2.25A3.754 3.754 0 0 1 14.25 21h-6a3.754 3.754 0 0 1-3.75-3.75V15a.75.75 0 0 0-.702.486l-2.25 6q-.064.173-.042.355a.75.75 0 0 0 .744.657h18a.76.76 0 0 0 .616-.322.76.76 0 0 0 .086-.69"/></svg>