<svg xmlns="http://www.w3.org/2000/svg" width="24" height="24" fill="none"><path fill="#04071E" d="M12.333 2.5a.6.6 0 0 0-.666 0C9.341 4.052 6.827 5.02 4.115 5.407A.6.6 0 0 0 3.6 6v5.4c0 4.67 2.768 8.077 8.185 10.16a.6.6 0 0 0 .43 0q.62-.239 1.194-.5a7 7 0 0 1-.782-1.396c-.384-.917-.585-1.924-.621-3.004v-.01L12 16.31v-3.038l-2.364 2.363a.9.9 0 1 1-1.272-1.272L10.727 12 8.364 9.636a.9.9 0 0 1 1.272-1.272L12 10.727l2.364-2.363a.9.9 0 1 1 1.272 1.272L13.674 11.6h.007c1.087 0 2.108-.436 3.116-1.485a1.667 1.667 0 0 1 2.411.001q.36.375.717.644.238.18.476.318V6a.6.6 0 0 0-.515-.594q-4.064-.58-7.552-2.905m8.067 9.916a5.6 5.6 0 0 1-1.2-.699 7 7 0 0 1-.86-.77.467.467 0 0 0-.678 0c-1.194 1.242-2.514 1.853-3.982 1.853a.49.49 0 0 0-.48.5V16.3l.005.319q.05 1.435.529 2.58a5.77 5.77 0 0 0 1.866 2.4q.942.72 2.248 1.174a.46.46 0 0 0 .304 0c3.072-1.067 4.648-3.254 4.648-6.473V13.3l-.01-.1a.485.485 0 0 0-.47-.4 4.87 4.87 0 0 1-1.92-.383"/></svg>