<svg xmlns="http://www.w3.org/2000/svg" width="24" height="24" fill="none"><path fill="#04071E" d="M12.333 2.5a.6.6 0 0 0-.666 0C9.341 4.052 6.827 5.02 4.115 5.407A.6.6 0 0 0 3.6 6v5.4c0 4.67 2.768 8.077 8.185 10.16a.6.6 0 0 0 .43 0l.046-.018a6.57 6.57 0 0 1-1.46-4.234c-2.125-.346-3-1.627-3-2.909a1.8 1.8 0 0 1 1.8-1.8h3.27a6.58 6.58 0 0 1 4.53-1.8c1.08 0 2.099.26 2.999.72V6a.6.6 0 0 0-.515-.593q-4.064-.58-7.552-2.905M12 11.4a2.4 2.4 0 1 1 0-4.8 2.4 2.4 0 0 1 0 4.8m10.8 6a5.4 5.4 0 1 1-10.8 0 5.4 5.4 0 0 1 10.8 0M18 15a.6.6 0 1 0-1.2 0v1.8H15a.6.6 0 1 0 0 1.2h1.8v1.8a.6.6 0 1 0 1.2 0V18h1.8a.6.6 0 1 0 0-1.2H18z"/></svg>