<svg xmlns="http://www.w3.org/2000/svg" width="24" height="24" fill="none"><path fill="#04071E" d="M3.6 6.6a3 3 0 0 1 3-3h10.8a3 3 0 0 1 3 3v10.8a3 3 0 0 1-3 3h-3.103a1.8 1.8 0 0 0-.424-.673l-2.4-2.399A5.4 5.4 0 0 0 3.6 10.509zm12 1.2v8.4a.6.6 0 1 0 1.2 0V7.8a.6.6 0 1 0-1.2 0M10.8 15c0 .944-.311 1.814-.836 2.515l3.06 3.06a.6.6 0 0 1-.848.85l-3.06-3.061A4.2 4.2 0 1 1 10.8 15m-1.2 0a3 3 0 1 0-6 0 3 3 0 0 0 6 0"/><path fill="#04071E" fill-rule="evenodd" d="m14.227 20.5-.024-.067a1.7 1.7 0 0 0-.401-.635l-2.45-2.45.031-.063a5.3 5.3 0 0 0-7.728-6.692l-.155.104V6.6a3.1 3.1 0 0 1 3.1-3.1h10.8a3.1 3.1 0 0 1 3.1 3.1v10.8a3.1 3.1 0 0 1-3.1 3.1zM3.6 6.6a3 3 0 0 1 3-3h10.8a3 3 0 0 1 3 3v10.8a3 3 0 0 1-3 3h-3.103a1.8 1.8 0 0 0-.424-.673l-2.4-2.399A5.4 5.4 0 0 0 3.6 10.509zm12.1 1.2v8.4a.5.5 0 0 0 1 0V7.8a.5.5 0 0 0-1 0m-5.605 9.705a4.3 4.3 0 1 0-.99.99l3 3a.7.7 0 0 0 .99-.99zm-.98.859 3.06 3.06a.6.6 0 0 0 .85-.848l-3.061-3.06a4.2 4.2 0 1 0-.849.849M9.5 15a2.9 2.9 0 1 0-5.8 0 2.9 2.9 0 0 0 5.8 0m6.1 1.2V7.8a.6.6 0 1 1 1.2 0v8.4a.6.6 0 1 1-1.2 0m-9-4.2a3 3 0 1 1 0 6 3 3 0 0 1 0-6" clip-rule="evenodd"/></svg>