<svg xmlns="http://www.w3.org/2000/svg" width="24" height="24" fill="none"><path fill="#04071E" d="M3.6 6.6a3 3 0 0 1 3-3h10.8a3 3 0 0 1 3 3V15a5.4 5.4 0 1 0-5.4 5.4H6.6a3 3 0 0 1-3-3zm3.6 1.2v8.4a.6.6 0 1 0 1.2 0V7.8a.6.6 0 0 0-1.2 0m12 7.2a4.18 4.18 0 0 1-.836 2.515l3.06 3.06a.6.6 0 0 1-.848.85l-3.06-3.061A4.2 4.2 0 1 1 19.2 15M18 15a3 3 0 1 0-6 0 3 3 0 0 0 6 0"/><path fill="#04071E" fill-rule="evenodd" d="M6.6 3.65A2.95 2.95 0 0 0 3.65 6.6v10.8a2.95 2.95 0 0 0 2.95 2.95h7.355A5.452 5.452 0 0 1 15 9.55a5.45 5.45 0 0 1 5.35 4.405V6.6a2.95 2.95 0 0 0-2.95-2.95zM20.45 15V6.6a3.05 3.05 0 0 0-3.05-3.05H6.6A3.05 3.05 0 0 0 3.55 6.6v10.8a3.05 3.05 0 0 0 3.05 3.05H15v-.1A5.35 5.35 0 1 1 20.35 15zM7.15 7.8a.65.65 0 0 1 1.3 0v8.4a.65.65 0 1 1-1.3 0zm.65-.55a.55.55 0 0 0-.55.55v8.4a.55.55 0 1 0 1.1 0V7.8a.55.55 0 0 0-.55-.55m7.2 3.6a4.15 4.15 0 1 0 2.485 7.474l.035-.026 3.09 3.09a.55.55 0 1 0 .779-.777l-3.091-3.091.026-.035A4.15 4.15 0 0 0 15 10.85M10.75 15a4.25 4.25 0 1 1 7.68 2.51l3.03 3.03a.65.65 0 1 1-.92.92l-3.03-3.03A4.25 4.25 0 0 1 10.75 15m1.2 0a3.05 3.05 0 1 1 6.1 0 3.05 3.05 0 0 1-6.1 0M15 12.05a2.95 2.95 0 1 0 0 5.9 2.95 2.95 0 0 0 0-5.9" clip-rule="evenodd"/></svg>