<svg xmlns="http://www.w3.org/2000/svg" width="24" height="24" fill="none"><path fill="#04071E" d="M14.75 16.5c1.308 0 1.818.583 2.205 1.874l.068.238c.183.657.292.854.513.945.259.107.431.091.703-.048l.147-.082a5 5 0 0 0 .176-.112l.663-.451c.616-.405 1.17-.673 1.843-.842a.75.75 0 0 1 .364 1.456 4 4 0 0 0-1.146.489l-.298.19-.48.329c-.229.156-.402.264-.583.357-.643.33-1.27.386-1.96.1-.746-.306-1.046-.78-1.327-1.721l-.156-.542c-.181-.59-.305-.68-.732-.68-.31 0-.63.155-1.069.523l-.184.16-.921.876c-1.408 1.324-2.609 1.967-4.328 1.967q-2.53.002-4.368-.77l2.947-.803q.67.072 1.421.073c1.183 0 2.032-.415 3.087-1.363l.258-.239.532-.51c.236-.228.414-.39.592-.54.684-.574 1.305-.874 2.033-.874m4.28-13.53a3.58 3.58 0 0 1 0 5.06l-.288.29c1.151 1.4 1.11 2.886.039 3.96l-2.001 2a.75.75 0 1 1-1.06-1.06l1.999-2c.485-.486.54-1.09-.04-1.838L9.062 18a2.25 2.25 0 0 1-1 .58l-5.115 1.395a.75.75 0 0 1-.92-.921l1.394-5.116a2.25 2.25 0 0 1 .58-.999L13.97 2.97a3.58 3.58 0 0 1 5.061 0"/></svg>