<svg xmlns="http://www.w3.org/2000/svg" width="24" height="24" fill="none"><path fill="#04071E" d="M6 15a2 2 0 0 1 2-2h8a2 2 0 0 1 2 2v4a2 2 0 0 1-2 2H8a2 2 0 0 1-2-2zm2 .5v3a.5.5 0 0 0 .5.5h7a.5.5 0 0 0 .5-.5v-3a.5.5 0 0 0-.5-.5h-7a.5.5 0 0 0-.5.5M2 3.25a1 1 0 1 1 2 0v2.729c1.068-1.08 2.378-1.971 3.954-2.46 2.43-.751 5.013-.689 7.395.197 2.363.88 4.603 2.664 5.778 4.807a1 1 0 0 1-1.754.961c-.912-1.662-2.74-3.156-4.722-3.893a9.44 9.44 0 0 0-6.106-.16C7.071 5.886 5.848 6.82 4.863 8H8.25a1 1 0 0 1 0 2H3a1 1 0 0 1-1-1z"/></svg>