<svg xmlns="http://www.w3.org/2000/svg" width="24" height="24" fill="none"><path fill="#04071E" d="M12 4.2A7.8 7.8 0 0 0 4.2 12a.9.9 0 1 1-1.8 0 9.6 9.6 0 1 1 9.6 9.6.9.9 0 1 1 0-1.8 7.8 7.8 0 0 0 0-15.6"/><path fill="#04071E" fill-rule="evenodd" d="M12 2.55A9.45 9.45 0 0 0 2.55 12a.75.75 0 0 0 1.5 0A7.95 7.95 0 1 1 12 19.95a.75.75 0 0 0 0 1.5 9.45 9.45 0 1 0 0-18.9M2.25 12c0-5.385 4.365-9.75 9.75-9.75s9.75 4.365 9.75 9.75-4.365 9.75-9.75 9.75a1.05 1.05 0 1 1 0-2.1A7.65 7.65 0 1 0 4.35 12a1.05 1.05 0 1 1-2.1 0" clip-rule="evenodd"/></svg>