<svg xmlns="http://www.w3.org/2000/svg" width="24" height="24" fill="none"><path fill="#04071E" d="M2.353 12.573c-.684 1.898-.775 3.874.438 5.099l.234.238a628 628 0 0 0 3.024 3.039c1.28 1.28 3.304 1.3 5.288.66 2.027-.655 4.25-2.061 6.226-4.037s3.382-4.2 4.037-6.226c.64-1.984.62-4.009-.66-5.289a741 741 0 0 1-2.891-2.912l-.363-.366-.002.002c-1.225-1.214-3.201-1.124-5.1-.44-1.965.709-4.149 2.143-6.119 4.113s-3.404 4.154-4.112 6.119M17.49 6.87v.003l-.001.004-.002.011-.007.037-.026.127q-.034.163-.11.45c-.105.38-.276.913-.545 1.542a14.3 14.3 0 0 1-3.05 4.485 15.6 15.6 0 0 1-6.185 3.771 10 10 0 0 1-.6.17l-.038.008-.011.003H6.91l-.003.001s-.749.084-.891-.575a.75.75 0 0 1 .573-.89l.001-.001h.003l.022-.006.099-.025q.137-.033.398-.116c.348-.109.847-.286 1.437-.553a14.1 14.1 0 0 0 4.138-2.847 12.8 12.8 0 0 0 2.732-4.015c.239-.559.388-1.026.477-1.35a7 7 0 0 0 .11-.457c.073-.404.446-.707.864-.638a.75.75 0 0 1 .62.861"/></svg>