<svg xmlns="http://www.w3.org/2000/svg" width="24" height="24" fill="none"><path fill="#04071E" d="M21 2.25a.75.75 0 1 1 1.5 0 .75.75 0 0 1-1.5 0m-3 1.5a.75.75 0 1 1 1.5 0 .75.75 0 0 1-1.5 0M15.75 6a.75.75 0 1 0 0-1.5.75.75 0 0 0 0 1.5m3 0a.75.75 0 1 0 0 1.5.75.75 0 0 0 0-1.5m3-1.5a.75.75 0 1 0 0 1.5.75.75 0 0 0 0-1.5M21 8.25a.75.75 0 1 1 1.5 0 .75.75 0 0 1-1.5 0m-4.518 1.404a1 1 0 0 0-.02-.096.75.75 0 0 0-.181-.339L13.5 6.438V3.75a.75.75 0 0 0-.75-.75H9.752a.75.75 0 0 0-.75.75v2.69L6.22 9.218a.75.75 0 0 0-.181.339 1 1 0 0 0-.02.096q-.001.013-.005.025l-.003.014A.2.2 0 0 0 6 9.75v10.125A2.626 2.626 0 0 0 8.625 22.5h5.25a2.626 2.626 0 0 0 2.625-2.625V9.75a.2.2 0 0 0-.008-.047l-.003-.01zM10.502 4.5h1.5V6h-1.5zm-.44 3h2.379l1.5 1.5H8.562z"/></svg>