<svg xmlns="http://www.w3.org/2000/svg" width="24" height="24" fill="none"><path fill="#04071E" d="m10.48 16.364 5.88-5.88a2.974 2.974 0 0 1 4.04-.177V7.2a3.6 3.6 0 0 0-3.6-3.6H7.2a3.6 3.6 0 0 0-3.6 3.6v9.6a3.6 3.6 0 0 0 3.6 3.6h3.11a3 3 0 0 1 .17-4.036m9.283-5.037 2.514 2.514a1.8 1.8 0 0 1 0 2.546l-4.32 4.32-5.06-5.06 4.32-4.32a1.8 1.8 0 0 1 2.546 0m-2.655 10.227-5.059-5.06-.72.72a1.8 1.8 0 0 0 0 2.546l2.52 2.514a1.8 1.8 0 0 0 1.34.526H20.1a.6.6 0 0 0 0-1.2h-3.037z"/><path fill="#04071E" fill-rule="evenodd" d="m16.36 10.484-5.88 5.88a3 3 0 0 0-.17 4.036H7.2a3.6 3.6 0 0 1-3.6-3.6V7.2a3.6 3.6 0 0 1 3.6-3.6h9.6a3.6 3.6 0 0 1 3.6 3.6v3.107l-.1-.081a2.973 2.973 0 0 0-3.94.258m-5.81 5.95 5.88-5.879a2.875 2.875 0 0 1 3.905-.172l.165.14V7.2a3.7 3.7 0 0 0-3.7-3.7H7.2a3.7 3.7 0 0 0-3.7 3.7v9.6a3.7 3.7 0 0 0 3.7 3.7h3.323l-.137-.164a2.9 2.9 0 0 1 .165-3.901m6.668-5.107a1.8 1.8 0 0 1 2.545 0l2.514 2.514a1.8 1.8 0 0 1 0 2.546l-4.32 4.32-5.06-5.06zm5.13 5.13-4.391 4.392-5.2-5.202 4.39-4.39a1.9 1.9 0 0 1 2.687 0l2.514 2.513a1.9 1.9 0 0 1 0 2.688M17.063 21.6H20.1a.6.6 0 0 1 0 1.2h-4.91a1.8 1.8 0 0 1-1.34-.526l-2.52-2.514a1.8 1.8 0 0 1 0-2.546l.72-.72 5.058 5.06zm-5.804-4.457.79-.79 5.146 5.147H20.1a.7.7 0 1 1 0 1.4h-4.909a1.9 1.9 0 0 1-1.413-.555l-2.52-2.514a1.9 1.9 0 0 1 0-2.688" clip-rule="evenodd"/></svg>