<svg xmlns="http://www.w3.org/2000/svg" width="24" height="24" fill="none"><path fill="#04071E" d="M11.1 3.6a.9.9 0 1 0 0 1.8h1.8a.9.9 0 1 0 0-1.8zm-7.5 9.3a.9.9 0 1 0 1.8 0v-1.8a.9.9 0 1 0-1.8 0zM9 19.5a.9.9 0 0 1 .9-.9h1.009c.117.637.325 1.241.61 1.8H9.9a.9.9 0 0 1-.9-.9m9.6-8.591a6.6 6.6 0 0 1 1.8.61V9.9a.9.9 0 1 0-1.8 0zM7.2 4.5a.9.9 0 0 0-.9-.9 2.7 2.7 0 0 0-2.7 2.7.9.9 0 1 0 1.8 0 .9.9 0 0 1 .9-.9.9.9 0 0 0 .9-.9m-.9 15.9a.9.9 0 1 0 0-1.8.9.9 0 0 1-.9-.9.9.9 0 1 0-1.8 0 2.7 2.7 0 0 0 2.7 2.7M16.8 4.5a.9.9 0 0 1 .9-.9 2.7 2.7 0 0 1 2.7 2.7.9.9 0 1 1-1.8 0 .9.9 0 0 0-.9-.9.9.9 0 0 1-.9-.9m.6 18.3a5.4 5.4 0 1 0 0-10.8 5.4 5.4 0 0 0 0 10.8m-1.076-7.676L15.248 16.2H17.1a3.3 3.3 0 0 1 3.3 3.3v.3a.6.6 0 1 1-1.2 0v-.3a2.1 2.1 0 0 0-2.1-2.1h-1.852l1.076 1.076a.6.6 0 0 1-.848.848l-2.103-2.102a.6.6 0 0 1 .003-.846l2.1-2.1a.6.6 0 0 1 .848.848"/><path fill="#04071E" fill-rule="evenodd" d="m10.992 18.5.015.082c.115.627.32 1.222.602 1.773l.074.145H9.9a1 1 0 1 1 0-2zm7.508-7.508V9.9a1 1 0 1 1 2 0v1.783l-.145-.074a6.5 6.5 0 0 0-1.773-.602zM15.007 16.3l1.247-1.246a.5.5 0 0 0-.708-.708l-2.1 2.1a.5.5 0 0 0-.002.705l2.102 2.103a.5.5 0 0 0 .708-.708L15.007 17.3H17.1a2.2 2.2 0 0 1 2.2 2.2v.3a.5.5 0 0 0 1 0v-.3a3.2 3.2 0 0 0-3.2-3.2zm1.317-1.176a.6.6 0 0 0-.848-.848l-2.1 2.1a.6.6 0 0 0-.003.846l2.103 2.102a.6.6 0 0 0 .848-.848L15.248 17.4H17.1c1.16 0 2.1.94 2.1 2.1v.3a.6.6 0 1 0 1.2 0v-.3a3.3 3.3 0 0 0-3.3-3.3h-1.852zM10.1 4.5a1 1 0 0 1 1-1h1.8a1 1 0 1 1 0 2h-1.8a1 1 0 0 1-1-1m-5.6 9.4a1 1 0 0 1-1-1v-1.8a1 1 0 1 1 2 0v1.8a1 1 0 0 1-1 1m5.4 6.5a.9.9 0 1 1 0-1.8h1.009a6.6 6.6 0 0 0 .61 1.8zm10.4-8.93.1.05V9.9a.9.9 0 1 0-1.8 0v1.009c.599.11 1.17.3 1.7.56M6.3 3.5a1 1 0 0 1 0 2 .8.8 0 0 0-.8.8 1 1 0 0 1-2 0 2.8 2.8 0 0 1 2.8-2.8m1 16a1 1 0 0 1-1 1 2.8 2.8 0 0 1-2.8-2.8 1 1 0 1 1 2 0 .8.8 0 0 0 .8.8 1 1 0 0 1 1 1m9.4-15a1 1 0 0 1 1-1 2.8 2.8 0 0 1 2.8 2.8 1 1 0 1 1-2 0 .8.8 0 0 0-.8-.8 1 1 0 0 1-1-1m6.2 12.9a5.5 5.5 0 1 1-11 0 5.5 5.5 0 0 1 11 0M10.2 4.5a.9.9 0 0 1 .9-.9h1.8a.9.9 0 1 1 0 1.8h-1.8a.9.9 0 0 1-.9-.9m-5.7 9.3a.9.9 0 0 1-.9-.9v-1.8a.9.9 0 1 1 1.8 0v1.8a.9.9 0 0 1-.9.9M6.3 3.6a.9.9 0 1 1 0 1.8.9.9 0 0 0-.9.9.9.9 0 1 1-1.8 0 2.7 2.7 0 0 1 2.7-2.7m.9 15.9a.9.9 0 0 1-.9.9 2.7 2.7 0 0 1-2.7-2.7.9.9 0 1 1 1.8 0 .9.9 0 0 0 .9.9.9.9 0 0 1 .9.9M17.7 3.6a.9.9 0 1 0 0 1.8.9.9 0 0 1 .9.9.9.9 0 1 0 1.8 0 2.7 2.7 0 0 0-2.7-2.7m5.1 13.8a5.4 5.4 0 1 1-10.8 0 5.4 5.4 0 0 1 10.8 0" clip-rule="evenodd"/></svg>