<svg xmlns="http://www.w3.org/2000/svg" width="24" height="24" fill="none"><path fill="#04071E" d="M7.2 3.6a3.6 3.6 0 0 0-3.6 3.6v9.6a3.6 3.6 0 0 0 3.6 3.6h4.32a6.6 6.6 0 0 1 8.88-8.88V7.2a3.6 3.6 0 0 0-3.6-3.6zm10.2 19.2a5.4 5.4 0 1 0 0-10.8 5.4 5.4 0 0 0 0 10.8m0-8.4a.6.6 0 0 1 .6.6v1.8h1.8a.6.6 0 1 1 0 1.2H18v1.8a.6.6 0 0 1-1.2 0V18H15a.6.6 0 0 1 0-1.2h1.8V15a.6.6 0 0 1 .6-.6"/><path fill="#04071E" fill-rule="evenodd" d="M3.45 7.2A3.75 3.75 0 0 1 7.2 3.45h9.6a3.75 3.75 0 0 1 3.75 3.75v4.565l-.218-.112a6.45 6.45 0 0 0-8.679 8.679l.112.218H7.2a3.75 3.75 0 0 1-3.75-3.75zM7.2 3.75A3.45 3.45 0 0 0 3.75 7.2v9.6a3.45 3.45 0 0 0 3.45 3.45h4.08a6.75 6.75 0 0 1 8.97-8.97V7.2a3.45 3.45 0 0 0-3.45-3.45zm4.65 13.65a5.55 5.55 0 1 1 11.1 0 5.55 5.55 0 0 1-11.1 0m5.55-5.25a5.25 5.25 0 1 0 0 10.5 5.25 5.25 0 0 0 0-10.5m0 2.4a.45.45 0 0 0-.45.45v1.95H15a.45.45 0 1 0 0 .9h1.95v1.95a.45.45 0 0 0 .9 0v-1.95h1.95a.45.45 0 0 0 0-.9h-1.95V15a.45.45 0 0 0-.45-.45m-.75.45a.75.75 0 1 1 1.5 0v1.65h1.65a.75.75 0 1 1 0 1.5h-1.65v1.65a.75.75 0 0 1-1.5 0v-1.65H15a.75.75 0 0 1 0-1.5h1.65z" clip-rule="evenodd"/></svg>