<svg xmlns="http://www.w3.org/2000/svg" width="24" height="24" fill="none"><path fill="#04071E" d="M5.4 2.4a3 3 0 0 0-3 3v8.4a3 3 0 0 0 3 3h1.8v1.8a3 3 0 0 0 3 3h8.4a3 3 0 0 0 3-3v-8.4a3 3 0 0 0-3-3h-1.8V5.4a3 3 0 0 0-3-3zm-1.2 3a1.2 1.2 0 0 1 1.2-1.2h8.4A1.2 1.2 0 0 1 15 5.4v8.4a1.2 1.2 0 0 1-1.2 1.2H5.4a1.2 1.2 0 0 1-1.2-1.2z"/><path fill="#04071E" fill-rule="evenodd" d="M2.25 5.4A3.15 3.15 0 0 1 5.4 2.25h8.4a3.15 3.15 0 0 1 3.15 3.15v1.65h1.65a3.15 3.15 0 0 1 3.15 3.15v8.4a3.15 3.15 0 0 1-3.15 3.15h-8.4a3.15 3.15 0 0 1-3.15-3.15v-1.65H5.4a3.15 3.15 0 0 1-3.15-3.15zM5.4 2.55A2.85 2.85 0 0 0 2.55 5.4v8.4a2.85 2.85 0 0 0 2.85 2.85h1.95v1.95a2.85 2.85 0 0 0 2.85 2.85h8.4a2.85 2.85 0 0 0 2.85-2.85v-8.4a2.85 2.85 0 0 0-2.85-2.85h-1.95V5.4a2.85 2.85 0 0 0-2.85-2.85zm0 1.8c-.58 0-1.05.47-1.05 1.05v8.4c0 .58.47 1.05 1.05 1.05h8.4c.58 0 1.05-.47 1.05-1.05V5.4c0-.58-.47-1.05-1.05-1.05zM4.05 5.4c0-.746.604-1.35 1.35-1.35h8.4c.746 0 1.35.604 1.35 1.35v8.4a1.35 1.35 0 0 1-1.35 1.35H5.4a1.35 1.35 0 0 1-1.35-1.35z" clip-rule="evenodd"/></svg>