<svg xmlns="http://www.w3.org/2000/svg" width="24" height="24" fill="none"><path fill="#04071E" d="M13.21 3.103c-.496-1.004-1.927-1.004-2.422 0L8.43 7.88l-5.272.766c-1.108.161-1.55 1.522-.749 2.303l3.816 3.72-.901 5.25c-.15.87.54 1.578 1.325 1.581.21.002.427-.047.636-.157L9 20.44v-.001L12 18.863l4.716 2.48c.99.52 2.148-.32 1.958-1.424l-.9-5.25 3.815-3.72c.801-.78.36-2.142-.748-2.302l-5.273-.767zM9 18.745V9.283a1.35 1.35 0 0 0 .74-.668L12 4.039l2.258 4.576a1.35 1.35 0 0 0 1.017.738l5.05.734-3.655 3.562a1.35 1.35 0 0 0-.388 1.195l.863 5.03-4.517-2.375a1.35 1.35 0 0 0-1.257 0z"/><path fill="#04071E" fill-rule="evenodd" d="M10.564 2.992c.587-1.19 2.283-1.19 2.87 0l2.3 4.66 5.142.747c1.312.19 1.836 1.804.886 2.73l-3.72 3.626.878 5.122c.224 1.307-1.148 2.304-2.322 1.687l-4.6-2.418L9.25 20.59l-1.849.973c-.246.129-.503.188-.753.186-.927-.003-1.748-.838-1.57-1.873l.878-5.122.094.092.175-.179-.247-.042-.022.13-3.721-3.628c-.95-.925-.426-2.538.887-2.729l5.142-.747-.058.118.224.11-.036-.247-.13.019zm2.421.221a1.1 1.1 0 0 0-1.973 0L8.596 8.11l-5.402.785a1.1 1.1 0 0 0-.61 1.876l3.91 3.81-.924 5.382a1.103 1.103 0 0 0 1.08 1.288c.17.002.346-.038.518-.129l1.582-.831v-.002L12 18.582l4.832 2.54a1.1 1.1 0 0 0 1.596-1.16l-.923-5.38 3.91-3.81a1.1 1.1 0 0 0-.61-1.877L15.4 8.109zM12 3.474l2.482 5.03c.16.325.47.55.828.602l5.551.807-4.016 3.915a1.1 1.1 0 0 0-.317.974l.949 5.528-4.965-2.61a1.1 1.1 0 0 0-1.024 0L8.75 19.16V9.109l.163-.06a1.1 1.1 0 0 0 .603-.545zm0 1.13L9.965 8.726a1.6 1.6 0 0 1-.715.72v8.885l2.004-1.053a1.6 1.6 0 0 1 1.49 0l4.067 2.138-.776-4.53a1.6 1.6 0 0 1 .46-1.416l3.291-3.208-4.549-.661a1.6 1.6 0 0 1-1.204-.875z" clip-rule="evenodd"/><path fill="#04071E" d="m5.956 14.755.094.092.175-.179-.247-.042zM8.264 7.652l-.058.118.224.11-.036-.247z"/></svg>