<svg xmlns="http://www.w3.org/2000/svg" width="24" height="24" fill="none"><path fill="#04071E" d="M12 2.35c-.482 0-.964.25-1.212.753L8.43 7.88l-5.272.766c-1.108.161-1.55 1.522-.749 2.303l3.816 3.72-.901 5.25c-.15.873.544 1.582 1.331 1.582.208 0 .423-.05.63-.159L12 18.865l4.715 2.479c.99.52 2.148-.32 1.958-1.424l-.9-5.25 3.815-3.72c.801-.78.36-2.142-.748-2.302l-5.273-.767-2.358-4.777A1.34 1.34 0 0 0 12 2.35m0 14.994V4.042l2.257 4.573a1.35 1.35 0 0 0 1.017.738l5.05.734-3.655 3.562a1.35 1.35 0 0 0-.388 1.195l.863 5.03-4.517-2.375a1.35 1.35 0 0 0-.627-.155"/><path fill="#04071E" fill-rule="evenodd" d="M10.564 2.992A1.58 1.58 0 0 1 12 2.1c.567 0 1.14.298 1.434.892l2.3 4.66 5.142.747c1.312.19 1.836 1.804.886 2.73l-3.72 3.626.878 5.122c.224 1.307-1.148 2.304-2.322 1.687L12 19.146 7.4 21.564a1.6 1.6 0 0 1-.746.187c-.93 0-1.755-.837-1.577-1.874l.878-5.122.094.092.175-.179-.247-.042-.022.13-3.721-3.628c-.95-.925-.426-2.538.887-2.729l5.142-.747-.058.118.224.11-.036-.247-.13.019zm1.435-.392c.395 0 .784.205.986.613l2.416 4.896 5.403.785a1.1 1.1 0 0 1 .61 1.876l-3.91 3.81.923 5.382a1.1 1.1 0 0 1-1.596 1.16L12 18.581l-4.832 2.54c-.17.09-.345.129-.513.129-.644 0-1.206-.581-1.085-1.29l.923-5.38-3.91-3.81a1.1 1.1 0 0 1 .61-1.877l5.403-.785 2.416-4.896c.202-.409.592-.613.987-.613m-.249 1.442.475-.11 2.256 4.572c.16.325.47.55.828.602l5.551.807-4.016 3.915a1.1 1.1 0 0 0-.317.974l.949 5.528-4.965-2.61a1.1 1.1 0 0 0-.511-.126h-.25zm.5 1.072v12a1.6 1.6 0 0 1 .493.163l4.068 2.14-.776-4.53a1.6 1.6 0 0 1 .46-1.417l3.291-3.208-4.549-.661a1.6 1.6 0 0 1-1.204-.875z" clip-rule="evenodd"/><path fill="#04071E" d="m5.956 14.755.094.092.175-.179-.247-.042zM8.264 7.652l-.058.118.224.11-.036-.247z"/></svg>