<svg xmlns="http://www.w3.org/2000/svg" width="24" height="24" fill="none"><path fill="#04071E" d="m13.211 3.103 1.79 3.625v.004l.566 1.148 5.273.766c1.107.161 1.55 1.522.748 2.303l-3.815 3.72.9 5.25c.19 1.103-.968 1.944-1.958 1.424L12 18.863l-4.715 2.48a1.34 1.34 0 0 1-.63.158c-.787 0-1.48-.709-1.331-1.582l.9-5.25-3.815-3.72c-.8-.78-.359-2.142.749-2.302L8.43 7.88l2.358-4.777c.248-.502.73-.753 1.212-.753s.963.25 1.211.753m1.79 6.181v9.463l2.143 1.126-.863-5.029a1.35 1.35 0 0 1 .388-1.195l3.654-3.562-5.05-.734A1.4 1.4 0 0 1 15 9.284"/><path fill="#04071E" fill-rule="evenodd" d="M12.987 3.213A1.08 1.08 0 0 0 12 2.6c-.395 0-.786.204-.988.613L8.596 8.11l-5.402.785a1.1 1.1 0 0 0-.61 1.876l3.91 3.81-.924 5.382c-.121.708.441 1.289 1.085 1.289.168 0 .342-.04.513-.13L12 18.581l4.83 2.54a1.1 1.1 0 0 0 1.597-1.16l-.923-5.38 3.91-3.81a1.1 1.1 0 0 0-.61-1.877L15.4 8.109l-.65-1.32v-.003zM12 2.1c.568 0 1.142.297 1.435.892l1.815 3.677v.004l.483.979 5.143.747c1.312.19 1.836 1.804.886 2.73l-3.72 3.626.878 5.122c.224 1.307-1.148 2.304-2.322 1.687L12 19.146 7.4 21.564a1.6 1.6 0 0 1-.746.187c-.93 0-1.755-.837-1.577-1.874l.878-5.122.094.092.175-.179-.247-.042-.022.13-3.721-3.628c-.95-.925-.426-2.538.887-2.729l5.142-.747-.058.118.224.11-.036-.247-.13.019 2.3-4.66A1.58 1.58 0 0 1 12 2.1m2.75 6.825.337.124a1 1 0 0 0 .222.057l5.551.807-4.016 3.915a1.1 1.1 0 0 0-.317.974l.949 5.528-2.726-1.432zm.5.678v8.993l1.561.82-.776-4.53a1.6 1.6 0 0 1 .46-1.416l3.291-3.208z" clip-rule="evenodd"/><path fill="#04071E" d="m8.264 7.652-.058.118.224.11-.036-.247zM5.956 14.755l.094.092.175-.179-.247-.042z"/></svg>