<svg xmlns="http://www.w3.org/2000/svg" width="24" height="24" fill="none"><path fill="#04071E" d="M23.754 12c0 6.491-5.263 11.754-11.754 11.754S.246 18.49.246 12 5.508.246 12 .246C18.491.246 23.754 5.508 23.754 12m-2.939 0a8.78 8.78 0 0 0-1.63-5.108L6.893 19.186A8.815 8.815 0 0 0 20.815 12m-3.707-7.186A8.815 8.815 0 0 0 4.814 17.108z"/><path fill="#04071E" fill-rule="evenodd" d="M12 .393C5.59.393.393 5.59.393 12S5.59 23.607 12 23.607 23.607 18.41 23.607 12 18.41.393 12 .393M.1 12C.1 5.427 5.426.1 12 .1S23.9 5.426 23.9 12 18.574 23.9 12 23.9.1 18.574.1 12m2.938 0a8.962 8.962 0 0 1 14.155-7.305l.141.1-12.539 12.54-.1-.142A8.92 8.92 0 0 1 3.038 12M12 3.332A8.669 8.669 0 0 0 4.834 16.88L16.88 4.834A8.63 8.63 0 0 0 12 3.332m7.205 3.333.1.142A8.962 8.962 0 0 1 6.807 19.305l-.142-.1zM7.12 19.165A8.668 8.668 0 0 0 19.165 7.12z" clip-rule="evenodd"/><path fill="#04071E" fill-rule="evenodd" d="M0 12C0 5.373 5.373 0 12 0s12 5.373 12 12-5.373 12-12 12S0 18.627 0 12M12 .492C5.644.492.492 5.644.492 12S5.644 23.508 12 23.508 23.508 18.356 23.508 12 18.356.492 12 .492M2.938 12A9.062 9.062 0 0 1 17.25 4.614l.238.169L4.783 17.488l-.17-.238A9.02 9.02 0 0 1 2.939 12M12 3.43a8.57 8.57 0 0 0-7.15 13.295L16.724 4.85A8.53 8.53 0 0 0 12 3.43m7.217 3.082.17.237A9.062 9.062 0 0 1 6.75 19.386l-.238-.169zM7.275 19.15A8.57 8.57 0 0 0 19.15 7.275z" clip-rule="evenodd"/></svg>