<svg xmlns="http://www.w3.org/2000/svg" width="24" height="24" fill="none"><path fill="#04071E" d="M12 3.184a8.816 8.816 0 1 0 0 17.632 8.816 8.816 0 0 0 0-17.632M.245 12C.245 5.508 5.508.245 12 .245S23.755 5.508 23.755 12 18.492 23.755 12 23.755.245 18.492.245 12"/><path fill="#04071E" fill-rule="evenodd" d="M12 .49C5.643.49.49 5.643.49 12S5.643 23.51 12 23.51 23.51 18.357 23.51 12 18.357.49 12 .49M0 12C0 5.373 5.373 0 12 0s12 5.373 12 12-5.373 12-12 12S0 18.627 0 12m2.939 0a9.061 9.061 0 1 1 18.122 0A9.061 9.061 0 0 1 2.94 12M12 3.429a8.571 8.571 0 1 0 0 17.142A8.571 8.571 0 0 0 12 3.43" clip-rule="evenodd"/></svg>