<svg xmlns="http://www.w3.org/2000/svg" width="25" height="24" fill="none"><path fill="#04071E" d="M20.136 2.364a.9.9 0 1 0-1.272 1.272L20.927 5.7H16.5a5.7 5.7 0 0 0-5.7 5.7v1.2a3.9 3.9 0 0 1-3.9 3.9H3.3a.9.9 0 1 0 0 1.8h3.6a5.7 5.7 0 0 0 5.7-5.7v-1.2a3.9 3.9 0 0 1 3.9-3.9h4.427l-2.063 2.064a.9.9 0 1 0 1.272 1.272l3.6-3.6a.9.9 0 0 0 0-1.272zM15.9 4.2A6.9 6.9 0 0 0 9 11.1v1.2A2.7 2.7 0 0 1 6.3 15h-3a.9.9 0 0 1 0-1.8h3a.9.9 0 0 0 .9-.9v-1.2a8.7 8.7 0 0 1 8.7-8.7h.6a.9.9 0 1 1 0 1.8zm1.097 4.802a2.65 2.65 0 0 0-.204 1.851.9.9 0 0 0-.593.847v1.2a8.7 8.7 0 0 1-8.7 8.7h-.6a.9.9 0 0 1 0-1.8h.6a6.9 6.9 0 0 0 6.9-6.9v-1.2a2.7 2.7 0 0 1 2.597-2.698"/><path fill="#04071E" fill-rule="evenodd" d="M18.758 2.257a1.05 1.05 0 0 1 1.485 0l3.6 3.6c.41.41.41 1.075 0 1.485l-3.6 3.6a1.05 1.05 0 1 1-1.485-1.485l1.807-1.807H16.5a3.75 3.75 0 0 0-3.75 3.75v1.2a5.85 5.85 0 0 1-5.85 5.85H3.3a1.05 1.05 0 1 1 0-2.1h3.6a3.75 3.75 0 0 0 3.75-3.75v-1.2a5.85 5.85 0 0 1 5.85-5.85h4.065l-1.808-1.808a1.05 1.05 0 0 1 0-1.485m1.272.213a.75.75 0 1 0-1.06 1.06l2.063 2.064a.15.15 0 0 1-.106.256H16.5a5.55 5.55 0 0 0-5.55 5.55v1.2a4.05 4.05 0 0 1-4.05 4.05H3.3a.75.75 0 1 0 0 1.5h3.6a5.55 5.55 0 0 0 5.55-5.55v-1.2a4.05 4.05 0 0 1 4.05-4.05h4.427a.15.15 0 0 1 .106.256L18.97 9.67a.75.75 0 0 0 1.06 1.06l3.6-3.6a.75.75 0 0 0 0-1.06zm-4.13.08a8.55 8.55 0 0 0-8.55 8.55v1.2c0 .58-.47 1.05-1.05 1.05h-3a.75.75 0 0 0 0 1.5h3a2.55 2.55 0 0 0 2.55-2.55v-1.2a7.05 7.05 0 0 1 7.05-7.05h.6a.75.75 0 0 0 0-1.5zM7.05 11.1a8.85 8.85 0 0 1 8.85-8.85h.6a1.05 1.05 0 1 1 0 2.1h-.6a6.75 6.75 0 0 0-6.75 6.75v1.2a2.85 2.85 0 0 1-2.85 2.85h-3a1.05 1.05 0 0 1 0-2.1h3a.75.75 0 0 0 .75-.75zm10.073-2.18a.15.15 0 0 1 .008.15 2.5 2.5 0 0 0-.193 1.746.15.15 0 0 1-.094.178.75.75 0 0 0-.494.706v1.2a8.85 8.85 0 0 1-8.85 8.85h-.6a1.05 1.05 0 1 1 0-2.1h.6a6.75 6.75 0 0 0 6.75-6.75v-1.2a2.85 2.85 0 0 1 2.741-2.848.15.15 0 0 1 .132.069m-.367.253A2.55 2.55 0 0 0 14.55 11.7v1.2a7.05 7.05 0 0 1-7.05 7.05h-.6a.75.75 0 0 0 0 1.5h.6a8.55 8.55 0 0 0 8.55-8.55v-1.2c0-.407.231-.76.569-.934a2.8 2.8 0 0 1 .137-1.593" clip-rule="evenodd"/></svg>