<svg xmlns="http://www.w3.org/2000/svg" width="25" height="24" fill="none"><path fill="#04071E" d="M10 11.1a6.9 6.9 0 0 1 6.9-6.9h.6a.9.9 0 1 0 0-1.8h-.6a8.7 8.7 0 0 0-8.7 8.7v1.2a.9.9 0 0 1-.9.9h-.42l1.552 1.552A2.7 2.7 0 0 0 10 12.3zm-1.317 8.698-1.476 1.476a.9.9 0 0 0 .693.326h.6a8.7 8.7 0 0 0 8.7-8.7v-1.2a.9.9 0 0 1 .9-.9h3.6a.9.9 0 1 0 0-1.8h-3.6a2.7 2.7 0 0 0-2.7 2.7v1.2a6.9 6.9 0 0 1-6.717 6.898m.946-3.701c.318.569.414 1.218.287 1.836A5.7 5.7 0 0 0 13.6 12.6v-1.2a3.9 3.9 0 0 1 3.9-3.9h4.2a.9.9 0 1 0 0-1.8h-4.2a5.7 5.7 0 0 0-5.7 5.7v1.2a3.9 3.9 0 0 1-2.171 3.497m-6.566-2.933a.9.9 0 0 1 1.273 0l3.6 3.6a.9.9 0 0 1 0 1.272l-3.6 3.6a.9.9 0 1 1-1.273-1.272L5.127 18.3H1.9a.9.9 0 1 1 0-1.8h3.227l-2.064-2.064a.9.9 0 0 1 0-1.272"/><path fill="#04071E" fill-rule="evenodd" d="M8.05 11.1a8.85 8.85 0 0 1 8.85-8.85h.6a1.05 1.05 0 1 1 0 2.1h-.6a6.75 6.75 0 0 0-6.75 6.75v1.2a2.85 2.85 0 0 1-1.655 2.588.15.15 0 0 1-.169-.03l-1.552-1.552a.15.15 0 0 1 .106-.256h.42a.75.75 0 0 0 .75-.75zm8.85-8.55a8.55 8.55 0 0 0-8.55 8.55v1.2c0 .58-.47 1.05-1.05 1.05h-.058l1.22 1.22A2.55 2.55 0 0 0 9.85 12.3v-1.2a7.05 7.05 0 0 1 7.05-7.05h.6a.75.75 0 0 0 0-1.5zm-5.25 8.85a5.85 5.85 0 0 1 5.85-5.85h4.2a1.05 1.05 0 1 1 0 2.1h-4.2a3.75 3.75 0 0 0-3.75 3.75v1.2a5.85 5.85 0 0 1-3.78 5.473.15.15 0 0 1-.2-.17c.119-.583.029-1.195-.272-1.733a.15.15 0 0 1 .064-.208A3.75 3.75 0 0 0 11.65 12.6zm5.85-5.55a5.55 5.55 0 0 0-5.55 5.55v1.2a4.05 4.05 0 0 1-2.118 3.56c.237.484.328 1.014.273 1.535A5.55 5.55 0 0 0 13.45 12.6v-1.2a4.05 4.05 0 0 1 4.05-4.05h4.2a.75.75 0 0 0 0-1.5zm-2.25 5.85a2.85 2.85 0 0 1 2.85-2.85h3.6a1.05 1.05 0 1 1 0 2.1h-3.6a.75.75 0 0 0-.75.75v1.2a8.85 8.85 0 0 1-8.85 8.85h-.6c-.326 0-.617-.148-.809-.38a.15.15 0 0 1 .01-.202l1.476-1.476a.15.15 0 0 1 .102-.044 6.75 6.75 0 0 0 6.57-6.748zm2.85-2.55a2.55 2.55 0 0 0-2.55 2.55v1.2a7.05 7.05 0 0 1-6.803 7.046l-1.329 1.329c.13.11.298.175.482.175h.6a8.55 8.55 0 0 0 8.55-8.55v-1.2c0-.58.47-1.05 1.05-1.05h3.6a.75.75 0 0 0 0-1.5zM4.23 13.27a.75.75 0 0 0-1.06 1.06l2.063 2.064a.15.15 0 0 1-.106.256H1.9a.75.75 0 0 0 0 1.5h3.227a.15.15 0 0 1 .106.256L3.169 20.47a.75.75 0 1 0 1.06 1.06l3.6-3.6a.75.75 0 0 0 0-1.06zm-1.273-.213a1.05 1.05 0 0 1 1.485 0l3.6 3.6c.41.41.41 1.075 0 1.485l-3.6 3.6a1.05 1.05 0 0 1-1.485-1.485l1.808-1.807H1.9a1.05 1.05 0 1 1 0-2.1h2.865l-1.808-1.808a1.05 1.05 0 0 1 0-1.485" clip-rule="evenodd"/></svg>