<svg xmlns="http://www.w3.org/2000/svg" width="24" height="24" fill="none"><path fill="#04071E" d="M15.9 4.2A6.9 6.9 0 0 0 9 11.1v1.2A2.7 2.7 0 0 1 6.3 15h-3a.9.9 0 1 1 0-1.8h3a.9.9 0 0 0 .9-.9v-1.2a8.7 8.7 0 0 1 8.7-8.7h.6a.9.9 0 1 1 0 1.8zm-3.3 7.2a3.9 3.9 0 0 1 3.9-3.9h4.2a.9.9 0 1 0 0-1.8h-4.2a5.7 5.7 0 0 0-5.7 5.7v1.2a3.9 3.9 0 0 1-3.9 3.9H3.3a.9.9 0 1 0 0 1.8h3.6a5.7 5.7 0 0 0 5.7-5.7zm4.5-.6a.9.9 0 0 0-.9.9v1.2a8.7 8.7 0 0 1-.303 2.285 2.28 2.28 0 0 0-1.902.05c.262-.73.405-1.516.405-2.335v-1.2A2.7 2.7 0 0 1 17.1 9h3.6a.9.9 0 1 1 0 1.8zm-1.676 10.994a.6.6 0 1 1-.848.849l-2.4-2.4a.6.6 0 0 1 0-.848l2.4-2.4a.6.6 0 0 1 .848.848l-1.375 1.376h6.703l-1.376-1.376a.6.6 0 1 1 .848-.849l2.4 2.4a.6.6 0 0 1 0 .849l-2.4 2.4a.6.6 0 0 1-.848-.849l1.375-1.375h-6.703z"/><path fill="#04071E" fill-rule="evenodd" d="M15.9 2.55a8.55 8.55 0 0 0-8.55 8.55v1.2c0 .58-.47 1.05-1.05 1.05h-3a.75.75 0 0 0 0 1.5h3a2.55 2.55 0 0 0 2.55-2.55v-1.2a7.05 7.05 0 0 1 7.05-7.05h.6a.75.75 0 0 0 0-1.5zM7.05 11.1a8.85 8.85 0 0 1 8.85-8.85h.6a1.05 1.05 0 1 1 0 2.1h-.6a6.75 6.75 0 0 0-6.75 6.75v1.2a2.85 2.85 0 0 1-2.85 2.85h-3a1.05 1.05 0 1 1 0-2.1h3a.75.75 0 0 0 .75-.75zm3.6.3a5.85 5.85 0 0 1 5.85-5.85h4.2a1.05 1.05 0 1 1 0 2.1h-4.2a3.75 3.75 0 0 0-3.75 3.75v1.2a5.85 5.85 0 0 1-5.85 5.85H3.3a1.05 1.05 0 1 1 0-2.1h3.6a3.75 3.75 0 0 0 3.75-3.75zm5.85-5.55a5.55 5.55 0 0 0-5.55 5.55v1.2a4.05 4.05 0 0 1-4.05 4.05H3.3a.75.75 0 0 0 0 1.5h3.6a5.55 5.55 0 0 0 5.55-5.55v-1.2a4.05 4.05 0 0 1 4.05-4.05h4.2a.75.75 0 0 0 0-1.5zm.6 3.3a2.55 2.55 0 0 0-2.55 2.55v1.2c0 .721-.108 1.417-.31 2.073a2.4 2.4 0 0 1 1.554.012 8.6 8.6 0 0 0 .256-2.085v-1.2c0-.58.47-1.05 1.05-1.05h3.6a.75.75 0 0 0 0-1.5zm-2.85 2.55a2.85 2.85 0 0 1 2.85-2.85h3.6a1.05 1.05 0 1 1 0 2.1h-3.6a.75.75 0 0 0-.75.75v1.2c0 .804-.107 1.583-.308 2.324a.15.15 0 0 1-.204.099 2.13 2.13 0 0 0-1.777.046.15.15 0 0 1-.207-.185 6.7 6.7 0 0 0 .396-2.284zm5.868 5.4a.45.45 0 1 0-.636.637l1.376 1.376a.15.15 0 0 1-.107.256h-6.703a.15.15 0 0 1-.105-.256l1.375-1.376a.45.45 0 1 0-.636-.636l-2.4 2.4a.45.45 0 0 0 0 .636l2.4 2.4a.45.45 0 1 0 .636-.636l-1.375-1.376a.15.15 0 0 1 .106-.256h6.703a.15.15 0 0 1 .106.256L19.482 21.9a.45.45 0 1 0 .636.636l2.4-2.4a.45.45 0 0 0 0-.636zm-5.648-.212a.75.75 0 1 1 1.06 1.061l-1.12 1.12h5.98l-1.12-1.12a.75.75 0 0 1 1.06-1.06l2.4 2.4a.75.75 0 0 1 0 1.06l-2.4 2.4a.75.75 0 1 1-1.06-1.06l1.12-1.12h-5.98l1.12 1.12a.75.75 0 0 1-1.06 1.06l-2.4-2.4a.75.75 0 0 1 0-1.06z" clip-rule="evenodd"/></svg>