<svg xmlns="http://www.w3.org/2000/svg" width="24" height="24" fill="none"><path fill="#04071E" d="M20.375 11.507q.025-.351.025-.707a9.6 9.6 0 1 0-8.893 9.574 6.6 6.6 0 0 1 3.14-8.974H6.6a.6.6 0 0 1 0-1.2H15a.6.6 0 0 1 .538.866A6.6 6.6 0 0 1 17.4 10.8c1.07 0 2.08.255 2.975.707M22.8 17.4a5.4 5.4 0 1 1-10.8 0 5.4 5.4 0 0 1 10.8 0m-6.475-3.124a.6.6 0 0 0-.85 0l-2.1 2.1a.6.6 0 0 0-.002.846l2.103 2.102a.6.6 0 0 0 .848-.848L15.25 17.4H17.1c1.16 0 2.1.94 2.1 2.1v.3a.6.6 0 0 0 1.2 0v-.3a3.3 3.3 0 0 0-3.3-3.3H15.25l1.076-1.076a.6.6 0 0 0 0-.848"/></svg>