<svg xmlns="http://www.w3.org/2000/svg" width="24" height="24" fill="none"><path fill="#04071E" d="M2.4 5.4a3 3 0 0 1 3-3h1.8v3A1.8 1.8 0 0 0 9 7.2h9V15a3 3 0 0 1-3 3h-1.827q.027-.297.027-.6a6.6 6.6 0 0 0-10.8-5.091zm10.552 13.8a6.6 6.6 0 0 1-1.26 2.4H16.8a4.8 4.8 0 0 0 4.8-4.8V9a3 3 0 0 0-2.4-2.94V15a4.2 4.2 0 0 1-4.2 4.2zM8.4 5.4v-3H15a3 3 0 0 1 3 3V6H9a.6.6 0 0 1-.6-.6m3.6 12a5.4 5.4 0 1 1-10.8 0 5.4 5.4 0 0 1 10.8 0M7.2 15A.6.6 0 1 0 6 15v1.8H4.2a.6.6 0 1 0 0 1.2H6v1.8a.6.6 0 1 0 1.2 0V18H9a.6.6 0 1 0 0-1.2H7.2z"/></svg>