<svg xmlns="http://www.w3.org/2000/svg" width="24" height="24" fill="none"><path fill="#04071E" d="M6.25 3H14v5.5H3V6.25A3.25 3.25 0 0 1 6.25 3M21 8.5h-5.5V3h2.25A3.25 3.25 0 0 1 21 6.25zM10 14v-4h11v2.022A6.47 6.47 0 0 0 17.5 11a6.5 6.5 0 0 0-5.478 3zM11.314 15.5H3v2.25A3.25 3.25 0 0 0 6.25 21h5.772A6.47 6.47 0 0 1 11 17.5c0-.698.11-1.37.313-2M3 10h5.5v4H3z"/><path fill="#04071E" fill-rule="evenodd" d="M12 17.5a5.5 5.5 0 1 0 11 0 5.5 5.5 0 0 0-11 0m3 3a.5.5 0 0 1 .5-.5h4a.5.5 0 0 1 0 1h-4a.5.5 0 0 1-.5-.5m1.188-5.61a.5.5 0 1 1 .624-.78l2.5 2a.5.5 0 0 1 0 .78l-2.5 2a.5.5 0 1 1-.624-.78L18.2 16.5z" clip-rule="evenodd"/></svg>