<svg xmlns="http://www.w3.org/2000/svg" width="24" height="24" fill="none"><path fill="#04071E" d="M19.8 10.8q.306 0 .6.043V9.6h-4.8v1.2zm-9 9v-4.2H9.6v4.8h1.242a4 4 0 0 1-.042-.6m.042-5.4a4.2 4.2 0 0 1 3.558-3.557V9.6H9.6v4.8zm-2.442 0V9.6H3.6v4.8zm-4.8 1.2h4.8v4.8H6.6a3 3 0 0 1-3-3zm12-7.2h4.8V6.6a3 3 0 0 0-3-3h-1.8zm-1.2-4.8v4.8H9.6V3.6zm-6 0v4.8H3.6V6.6a3 3 0 0 1 3-3zM12 15a3 3 0 0 1 3-3h4.8a3 3 0 0 1 3 3v4.8c0 .611-.183 1.18-.497 1.654l-3.63-3.63a1.8 1.8 0 0 0-2.546 0l-3.63 3.63A3 3 0 0 1 12 19.8zm8.4.3a.9.9 0 1 0-1.8 0 .9.9 0 0 0 1.8 0m-7.054 7.003A3 3 0 0 0 15 22.8h4.8c.611 0 1.18-.183 1.654-.497l-3.63-3.63a.6.6 0 0 0-.848 0z"/></svg>