<svg xmlns="http://www.w3.org/2000/svg" width="24" height="24" fill="none"><path fill="#04071E" d="M15.6 20.4h1.8a3 3 0 0 0 3-3v-1.8h-4.8zM15.6 14.4V9.6h4.8v4.8zM14.4 14.4h-3.907a5.4 5.4 0 0 0-.893-1.594V9.6h4.8zM10.274 18.528l1.872 1.872H14.4v-4.8h-3.633q.033.295.033.6a5.4 5.4 0 0 1-.526 2.328M5.4 10.8c1.11 0 2.142.335 3 .91V9.6H3.6v1.507a5.4 5.4 0 0 1 1.8-.307M15.6 8.4h4.8V6.6a3 3 0 0 0-3-3h-1.8zM14.4 3.6v4.8H9.6V3.6zM8.4 3.6v4.8H3.6V6.6a3 3 0 0 1 3-3z"/><path fill="#04071E" d="M5.4 20.4c.943 0 1.814-.311 2.515-.836l3.06 3.06a.6.6 0 0 0 .85-.848l-3.061-3.06A4.2 4.2 0 1 0 5.4 20.4m0-1.2a3 3 0 1 1 0-6 3 3 0 0 1 0 6"/></svg>