<svg xmlns="http://www.w3.org/2000/svg" width="24" height="24" fill="none"><path fill="#04071E" d="M8.4 3.6v4.8H3.6V6.6a3 3 0 0 1 3-3zm6 6H9.6v4.8h4.8zm1.2 6h4.8v1.8a3 3 0 0 1-3 3h-1.8zm-6-10.8h7.8a1.8 1.8 0 0 1 1.8 1.8v7.8h1.2V6.6a3 3 0 0 0-3-3H9.6zm-3 14.4h7.8v1.2H6.6a3 3 0 0 1-3-3V9.6h1.2v7.8a1.8 1.8 0 0 0 1.8 1.8"/><path fill="#04071E" fill-rule="evenodd" d="M6.6 3.75A2.85 2.85 0 0 0 3.75 6.6v1.65h4.5v-4.5zM3.45 6.6A3.15 3.15 0 0 1 6.6 3.45h1.95v5.1h-5.1zm6-3.15h7.95a3.15 3.15 0 0 1 3.15 3.15v7.95h-1.5V6.6a1.65 1.65 0 0 0-1.65-1.65H9.45zm.3.3v.9h7.65a1.95 1.95 0 0 1 1.95 1.95v7.65h.9V6.6a2.85 2.85 0 0 0-2.85-2.85zm-6.3 5.7h1.5v7.95c0 .911.739 1.65 1.65 1.65h7.95v1.5H6.6a3.15 3.15 0 0 1-3.15-3.15zm.3.3v7.65a2.85 2.85 0 0 0 2.85 2.85h7.65v-.9H6.6a1.95 1.95 0 0 1-1.95-1.95V9.75zm5.7-.3h5.1v5.1h-5.1zm.3.3v4.5h4.5v-4.5zm5.7 5.7h5.1v1.95a3.15 3.15 0 0 1-3.15 3.15h-1.95zm.3.3v4.5h1.65a2.85 2.85 0 0 0 2.85-2.85v-1.65z" clip-rule="evenodd"/></svg>