<svg xmlns="http://www.w3.org/2000/svg" width="24" height="24" fill="none"><path fill="#04071E" d="M15.6 8.4h4.8V6.6a3 3 0 0 0-3-3h-1.8zm-7.2 6V9.6H3.6v4.8zm6-4.2v-.6H9.6v4.8h3.6v-1.8c0-.981.471-1.853 1.2-2.4m-1.2 5.4H9.6v4.8h3.6zm-4.8 0H3.6v1.8a3 3 0 0 0 3 3h1.8zm6-7.2V3.6H9.6v4.8zm-6-4.8v4.8H3.6V6.6a3 3 0 0 1 3-3zm6 9a1.8 1.8 0 0 1 1.8-1.8H21a1.8 1.8 0 0 1 1.8 1.8V21a1.8 1.8 0 0 1-1.8 1.8h-4.8a1.8 1.8 0 0 1-1.8-1.8zm3 3h-1.2a.6.6 0 1 0 0 1.2h1.2a.6.6 0 0 0 0-1.2m4.2.6a.6.6 0 0 0-.6-.6h-1.2a.6.6 0 1 0 0 1.2H21a.6.6 0 0 0 .6-.6M17.4 18h-1.2a.6.6 0 1 0 0 1.2h1.2a.6.6 0 0 0 0-1.2m4.2.6a.6.6 0 0 0-.6-.6h-1.2a.6.6 0 1 0 0 1.2H21a.6.6 0 0 0 .6-.6m-4.2 1.8h-1.2a.6.6 0 1 0 0 1.2h1.2a.6.6 0 0 0 0-1.2m4.2.6a.6.6 0 0 0-.6-.6h-1.2a.6.6 0 1 0 0 1.2H21a.6.6 0 0 0 .6-.6m-5.4-9a.6.6 0 0 0-.6.6v1.2a.6.6 0 0 0 .6.6H21a.6.6 0 0 0 .6-.6v-1.2a.6.6 0 0 0-.6-.6z"/></svg>