<svg xmlns="http://www.w3.org/2000/svg" width="24" height="24" fill="none"><path fill="#04071E" d="M11.749 6c1.358 0 1.952.899 2 2.326l.003.189V11l2.871.423q.168.024.333.07a2.75 2.75 0 0 1 1.96 3.213l-.042.17-1.227 4.442a1.75 1.75 0 0 1-1.292 1.24l-.146.026-3.061.44a1.75 1.75 0 0 1-1.825-.973l-.06-.14-.217-.571a4.13 4.13 0 0 0-1.176-1.675l-.203-.162-1.596-1.202a2 2 0 0 0-.266-.165l-.143-.064-2.195-.868a.75.75 0 0 1-.474-.66c-.036-.722.49-1.246 1.422-1.712.719-.36 1.727-.33 3.066.044l.272.079v-4.45c0-1.537.578-2.506 1.996-2.506m0-3.5a5.75 5.75 0 0 1 5.3 7.987l.173.043a4 4 0 0 0-.453-.096l-1.267-.186a4.25 4.25 0 1 0-6.748 1.018l-.001.415c-.614-.108-1.168-.135-1.672-.072A5.75 5.75 0 0 1 11.75 2.5"/></svg>