<svg xmlns="http://www.w3.org/2000/svg" width="24" height="24" fill="none"><path fill="#04071E" d="M7.2 3.6a3.6 3.6 0 0 0-3.6 3.6v9.6a3.6 3.6 0 0 0 3.6 3.6h4.321a6.6 6.6 0 0 1 8.88-8.879v-4.32a3.6 3.6 0 0 0-3.6-3.6zm4.024 4.076a.6.6 0 0 1 0 .848l-2.1 2.1a.6.6 0 0 1-.829.019l-.9-.822a.6.6 0 1 1 .81-.886l.476.435 1.695-1.694a.6.6 0 0 1 .848 0m-.848 6a.6.6 0 0 1 .848.848l-2.1 2.1a.6.6 0 0 1-.829.019l-.9-.822a.6.6 0 1 1 .81-.886l.476.435zM13.2 9.6a.6.6 0 1 1 0-1.2h3a.6.6 0 1 1 0 1.2zm-.439 7.104a2.4 2.4 0 0 0 1.716-2.974l-.187-.668q.46-.355.987-.6l.404.43a2.4 2.4 0 0 0 3.492 0l.386-.412c.357.168.694.376 1.002.621l-.15.507a2.4 2.4 0 0 0 1.746 3.023l.42.098a5.5 5.5 0 0 1 .011 1.22l-.552.142a2.4 2.4 0 0 0-1.717 2.974l.187.667a5 5 0 0 1-.986.6l-.405-.43a2.4 2.4 0 0 0-3.49 0l-.386.418a5.2 5.2 0 0 1-1.002-.622l.152-.507a2.4 2.4 0 0 0-1.748-3.023l-.418-.1a5.5 5.5 0 0 1-.013-1.219zm5.838.696a1.2 1.2 0 1 0-2.4 0 1.2 1.2 0 0 0 2.4 0"/></svg>