<svg xmlns="http://www.w3.org/2000/svg" width="24" height="24" fill="none"><path fill="#04071E" d="M7.2 3.6a3.6 3.6 0 0 0-3.6 3.6v9.6a3.6 3.6 0 0 0 3.6 3.6h3.661a3 3 0 0 1-.06-.6v-4.851l-1.677 1.675a.6.6 0 0 1-.829.019l-.9-.822a.6.6 0 1 1 .81-.886l.476.435 1.695-1.694a.6.6 0 0 1 .424-.176v-.899c0-1.462 1.053-2.534 2.199-3.171 1.187-.66 2.745-1.03 4.401-1.03 1.065 0 2.089.153 3 .438V7.2a3.6 3.6 0 0 0-3.6-3.6zm13.2 6.505c-.858-.319-1.89-.505-3-.505-2.982 0-5.4 1.343-5.4 3s2.418 3 5.4 3 5.4-1.343 5.4-3c0-1.04-.953-1.957-2.4-2.495m-9.176-2.43a.6.6 0 0 1 0 .85l-2.1 2.1a.6.6 0 0 1-.829.018l-.9-.822a.6.6 0 1 1 .81-.886l.476.435 1.695-1.694a.6.6 0 0 1 .848 0M17.4 16.8c1.656 0 3.214-.37 4.401-1.03a5.5 5.5 0 0 0 1-.707V19.8c0 1.657-2.419 3-5.4 3-2.983 0-5.4-1.343-5.4-3v-4.734c.305.275.647.51.998.705 1.187.66 2.745 1.03 4.401 1.03"/></svg>