<svg xmlns="http://www.w3.org/2000/svg" width="24" height="24" fill="none"><path fill="#04071E" d="M3.6 7.2a3.6 3.6 0 0 1 3.6-3.6h9.6a3.6 3.6 0 0 1 3.6 3.6v4.082A3.6 3.6 0 0 0 15 14.4h-1.8a.6.6 0 1 0 0 1.2h2.005c.16.452.408.863.723 1.212A3 3 0 0 0 13.2 19.8q0 .3.046.6H7.2a3.6 3.6 0 0 1-3.6-3.6zm7.624 1.324a.6.6 0 0 0-.848-.848L8.68 9.37l-.476-.435a.6.6 0 1 0-.81.886l.9.822a.6.6 0 0 0 .83-.019zm0 5.152a.6.6 0 0 0-.848 0L8.68 15.37l-.476-.435a.6.6 0 1 0-.81.886l.9.822a.6.6 0 0 0 .83-.019l2.1-2.1a.6.6 0 0 0 0-.848M12.6 9a.6.6 0 0 0 .6.6h3a.6.6 0 1 0 0-1.2h-3a.6.6 0 0 0-.6.6m8.4 5.4a2.4 2.4 0 1 1-4.8 0 2.4 2.4 0 0 1 4.8 0m1.8 5.4c0 1.494-1.2 3-4.2 3s-4.2-1.5-4.2-3a1.8 1.8 0 0 1 1.8-1.8H21a1.8 1.8 0 0 1 1.8 1.8"/></svg>