<svg xmlns="http://www.w3.org/2000/svg" width="24" height="24" fill="none"><path fill="#04071E" d="M3.6 6.9a3.3 3.3 0 0 1 3.3-3.3h10.2a3.3 3.3 0 0 1 3.3 3.3v4.5a3 3 0 0 0-1.8-.6h-2.4c-.982 0-1.853.471-2.4 1.2h-2.4a.6.6 0 1 0 0 1.2h1.86l-.01.05a3 3 0 0 0-2.45 2.95v4.2H6.9a3.3 3.3 0 0 1-3.3-3.3zm4.5 2.7a.9.9 0 1 0 0-1.8.9.9 0 0 0 0 1.8m.9 2.7a.9.9 0 1 0-1.8 0 .9.9 0 0 0 1.8 0m-.9 4.5a.9.9 0 1 0 0-1.8.9.9 0 0 0 0 1.8M10.8 9a.6.6 0 0 0 .6.6h4.8a.6.6 0 1 0 0-1.2h-4.8a.6.6 0 0 0-.6.6m3.6 5.4v-.6a1.8 1.8 0 0 1 1.8-1.8h2.4a1.8 1.8 0 0 1 1.8 1.8v.6h.6a1.8 1.8 0 0 1 1.8 1.8V18h-2.4v-.6a.6.6 0 1 0-1.2 0v.6h-3.6v-.6a.6.6 0 1 0-1.2 0v.6H12v-1.8a1.8 1.8 0 0 1 1.8-1.8zm1.2-.6v.6h3.6v-.6a.6.6 0 0 0-.6-.6h-2.4a.6.6 0 0 0-.6.6m4.8 5.4h2.4V21a1.8 1.8 0 0 1-1.8 1.8h-7.2A1.8 1.8 0 0 1 12 21v-1.8h2.4v.6a.6.6 0 1 0 1.2 0v-.6h3.6v.6a.6.6 0 1 0 1.2 0z"/></svg>