<svg xmlns="http://www.w3.org/2000/svg" width="24" height="24" fill="none"><path fill="#04071E" d="M6.9 3.6a3.3 3.3 0 0 0-3.3 3.3v10.2a3.3 3.3 0 0 0 3.3 3.3h4.62c-.46-.9-.72-1.92-.72-3 0-1.595.566-3.059 1.508-4.2H11.4a.6.6 0 1 1 0-1.2h2.204a6.57 6.57 0 0 1 3.796-1.2c1.08 0 2.1.26 3 .72V6.9a3.3 3.3 0 0 0-3.3-3.3zM9 8.7a.9.9 0 1 1-1.8 0 .9.9 0 0 1 1.8 0m-.9 2.7a.9.9 0 1 1 0 1.8.9.9 0 0 1 0-1.8m.9 4.5a.9.9 0 1 1-1.8 0 .9.9 0 0 1 1.8 0m2.4-6.3a.6.6 0 1 1 0-1.2h4.8a.6.6 0 1 1 0 1.2zm6 13.2a5.4 5.4 0 1 0 0-10.8 5.4 5.4 0 0 0 0 10.8m-.6-7.8a.6.6 0 1 1 1.2 0v1.8h1.2a.6.6 0 1 1 0 1.2h-1.8a.6.6 0 0 1-.6-.6z"/></svg>