<svg xmlns="http://www.w3.org/2000/svg" width="24" height="24" fill="none"><path fill="#04071E" d="M12.838 4.17a.9.9 0 0 0-1.674 0l-4.5 11.4a.9.9 0 1 0 1.673.66l1.434-3.63h4.46l1.432 3.63a.9.9 0 0 0 1.674-.66zm.682 6.63H10.48l1.52-3.849zM3 19.2a.6.6 0 1 0 0 1.2h18a.6.6 0 0 0 0-1.2z"/><path fill="#04071E" fill-rule="evenodd" d="M12 3.75a.75.75 0 0 0-.697.475l-4.5 11.4a.75.75 0 1 0 1.395.55l1.47-3.725h4.664l1.47 3.725a.75.75 0 0 0 1.396-.55l-4.5-11.4a.75.75 0 0 0-.697-.475m-.976.364a1.05 1.05 0 0 1 1.953 0l4.5 11.4a1.05 1.05 0 1 1-1.953.771l-1.396-3.535H9.873l-1.396 3.535a1.05 1.05 0 0 1-1.953-.77zm.977 2.429 1.74 4.407h-3.48zm-1.3 4.107H13.3l-1.298-3.29zM3 19.35a.45.45 0 0 0 0 .9h18a.45.45 0 0 0 0-.9zm-.75.45a.75.75 0 0 1 .75-.75h18a.75.75 0 0 1 0 1.5H3a.75.75 0 0 1-.75-.75" clip-rule="evenodd"/></svg>