<svg xmlns="http://www.w3.org/2000/svg" width="24" height="24" fill="none"><g clip-path="url(#a)"><path fill="#04071E" d="M4.97.375A1 1 0 0 1 6.374.22L7 .72l.625-.5a1 1 0 1 1 1.25 1.562l-1.25 1a1 1 0 0 1-1.25 0l-1.25-1A1 1 0 0 1 4.97.375M17.5 2a1 1 0 0 1 1 1v15.586l1.793-1.793a1 1 0 0 1 1.414 1.414l-3.5 3.5a1 1 0 0 1-1.414 0l-3.5-3.5a1 1 0 0 1 1.414-1.414l1.793 1.793V3a1 1 0 0 1 1-1M7 13a1 1 0 0 1 .92.606l3 7a1 1 0 0 1-1.839.788L8.484 20H5.517l-.598 1.394a1 1 0 0 1-1.838-.788l3-7a1 1 0 0 1 .92-.606m0 3.539L6.374 18h1.253zM4.5 4a1 1 0 1 0 0 2h3.227l-3.964 4.324A1 1 0 0 0 4.5 12H10a1 1 0 1 0 0-2H6.773l3.964-4.324A1 1 0 0 0 10 4z"/></g><defs><clipPath id="a"><path fill="#fff" d="M0 0h24v24H0z"/></clipPath></defs></svg>