<svg xmlns="http://www.w3.org/2000/svg" width="24" height="24" fill="none"><path fill="#04071E" d="M4 7.1C4 5.365 5.366 4 7 4s3 1.364 3 3.1c0 1.105-.554 2.06-1.378 2.607-.35.233-.622.595-.622 1.015V11a1 1 0 0 0 1 1h2a1 1 0 0 0 .109-1.994c.563-.827.891-1.83.891-2.906C12 4.307 9.785 2 7 2S2 4.307 2 7.1c0 1.075.328 2.079.891 2.906A1 1 0 0 0 3 12h2a1 1 0 0 0 1-1v-.278c0-.42-.272-.782-.622-1.015A3.12 3.12 0 0 1 4 7.1M18.5 3a1 1 0 1 0-2 0v15.586l-1.793-1.793a1 1 0 0 0-1.414 1.414l3.5 3.5a1 1 0 0 0 1.414 0l3.5-3.5a1 1 0 0 0-1.414-1.414L18.5 18.586zM7.92 13.606a1 1 0 0 0-1.839 0l-3 7a1 1 0 1 0 1.838.788L5.517 20h2.967l.597 1.394a1 1 0 1 0 1.838-.788zM7.626 18H6.374L7 16.539z"/></svg>