<svg xmlns="http://www.w3.org/2000/svg" width="24" height="24" fill="none"><path fill="#04071E" d="M22.8 18.9v.6a2.1 2.1 0 0 1-2.1 2.1H3.3a2.1 2.1 0 0 1-2.1-2.1v-.6a.9.9 0 0 1 1.8 0v.6a.3.3 0 0 0 .3.3h17.4a.3.3 0 0 0 .3-.3v-.6a.9.9 0 1 1 1.8 0M4.6 12.451a5 5 0 0 1 3.032-.732q.669.037 1.32.195a1.16 1.16 0 0 0-.66-.909 3.2 3.2 0 0 0-1.513-.28 3.4 3.4 0 0 0-1.281.28.9.9 0 1 1-.806-1.61 5.1 5.1 0 0 1 2.028-.47 5 5 0 0 1 2.388.47 3.23 3.23 0 0 1 1.692 3.154V17.4a.9.9 0 0 1-1.8.067 4.47 4.47 0 0 1-3.534.683 3.133 3.133 0 0 1-.866-5.699m1.333 3.96A3.51 3.51 0 0 0 9 15.211v-1.41a5.4 5.4 0 0 0-1.459-.283 3.2 3.2 0 0 0-1.943.433 1.334 1.334 0 0 0 .335 2.46m7.267.99V4.8a.9.9 0 1 1 1.8 0v5.588a3.25 3.25 0 0 1 2.1-.789 3.935 3.935 0 0 1 3.6 4.2 3.935 3.935 0 0 1-3.6 4.2 3.26 3.26 0 0 1-2.1-.788v.188a.9.9 0 1 1-1.8 0m2.1-3.6a2.16 2.16 0 0 0 1.8 2.4 2.16 2.16 0 0 0 1.8-2.4 2.16 2.16 0 0 0-1.8-2.4 2.16 2.16 0 0 0-1.8 2.4"/><path fill="#04071E" fill-rule="evenodd" d="M14.1 3.95a.85.85 0 0 0-.85.85v12.6a.85.85 0 1 0 1.7 0v-.297l.083.07c.575.496 1.307.77 2.066.777a3.885 3.885 0 0 0 3.552-4.146l-.001-.008a3.884 3.884 0 0 0-3.551-4.146c-.76.006-1.491.28-2.066.776l-.083.072V4.8a.85.85 0 0 0-.85-.85m-.671.178a.95.95 0 0 1 1.621.672v5.482a3.3 3.3 0 0 1 2.05-.732h.005a3.985 3.985 0 0 1 3.645 4.25 3.985 3.985 0 0 1-3.645 4.25H17.1a3.3 3.3 0 0 1-2.05-.732v.082a.95.95 0 1 1-1.9 0V4.8c0-.252.1-.493.279-.672M9.086 9.44a4.9 4.9 0 0 0-2.363-.464h-.002a5.1 5.1 0 0 0-2.007.464.85.85 0 0 0 .761 1.52h.003c.41-.18.852-.276 1.3-.286a3.2 3.2 0 0 1 1.535.286 1.21 1.21 0 0 1 .689.947l.009.072-.07-.017a7 7 0 0 0-1.311-.193h-.002a4.95 4.95 0 0 0-3.002.725 3.083 3.083 0 0 0 .852 5.608 4.42 4.42 0 0 0 3.494-.676l.075-.052.003.091a.85.85 0 1 0 1.7-.063v-4.858A3.18 3.18 0 0 0 9.086 9.44m-2.367-.564c.83-.044 1.659.118 2.41.474h.003a3.28 3.28 0 0 1 1.718 3.2v4.85a.95.95 0 0 1-1.892.157 4.52 4.52 0 0 1-3.503.642h-.001a3.182 3.182 0 0 1-.88-5.79 5.05 5.05 0 0 1 3.062-.74q.636.035 1.255.179a1.11 1.11 0 0 0-.62-.797 3.1 3.1 0 0 0-1.489-.277H6.78a3.3 3.3 0 0 0-1.261.277.949.949 0 0 1-.849-1.7l.001-.002a5.2 5.2 0 0 1 2.048-.473M17.1 11.35h.008a2.21 2.21 0 0 1 1.843 2.45 2.21 2.21 0 0 1-1.843 2.45h-.016a2.21 2.21 0 0 1-1.842-2.45 2.21 2.21 0 0 1 1.842-2.45zm0 .1a2.11 2.11 0 0 0-1.75 2.344l.002.012h-.002a2.11 2.11 0 0 0 1.75 2.343 2.11 2.11 0 0 0 1.75-2.343v-.012a2.11 2.11 0 0 0-1.75-2.343m-9.555 2.018c.501.027.996.123 1.472.285l.033.011v1.466l-.012.014a3.56 3.56 0 0 1-3.11 1.217H5.92a1.384 1.384 0 0 1-.348-2.553 3.27 3.27 0 0 1 1.972-.44m-.009.1a3.17 3.17 0 0 0-1.912.426h-.001a1.285 1.285 0 0 0 .32 2.368 3.46 3.46 0 0 0 3.007-1.17v-1.356a5.4 5.4 0 0 0-1.411-.268zM2.1 18.05a.85.85 0 0 0-.85.85v.6a2.053 2.053 0 0 0 2.05 2.05h17.4a2.053 2.053 0 0 0 2.05-2.05v-.6a.85.85 0 0 0-1.7 0v.6a.35.35 0 0 1-.35.35H3.3a.35.35 0 0 1-.35-.35v-.6a.85.85 0 0 0-.85-.85m-.671.178a.95.95 0 0 1 1.621.672v.6a.25.25 0 0 0 .25.25h17.4a.25.25 0 0 0 .25-.25v-.6a.95.95 0 0 1 1.9 0v.6a2.153 2.153 0 0 1-2.15 2.15H3.3a2.153 2.153 0 0 1-2.15-2.15v-.6c0-.252.1-.493.279-.672" clip-rule="evenodd"/></svg>