<svg xmlns="http://www.w3.org/2000/svg" width="24" height="24" fill="none"><path fill="#04071E" d="M3 5a3 3 0 0 1 3-3h4a1 1 0 0 1 1 1v7a1 1 0 1 1-2 0V8H6.339a1.74 1.74 0 0 0-.626.28C5.405 8.5 5 8.95 5 10a1 1 0 1 1-2 0c0-1.273.405-2.182.953-2.807A3 3 0 0 1 3 5m3.27 1H9V4H6a1 1 0 0 0 0 2h.27M17.5 2a1 1 0 0 1 1 1v15.586l1.793-1.793a1 1 0 0 1 1.414 1.414l-3.5 3.5a1 1 0 0 1-1.414 0l-3.5-3.5a1 1 0 0 1 1.414-1.414l1.793 1.793V3a1 1 0 0 1 1-1M7.979 12.673a1 1 0 0 0-1.89 0l-2.793 8.069a1 1 0 1 0 1.89.654l.411-1.19H8.47l.412 1.19a1 1 0 0 0 1.89-.654zm-1.69 5.534.745-2.15.744 2.15z"/></svg>