<svg xmlns="http://www.w3.org/2000/svg" width="24" height="24" fill="none"><path fill="#04071E" d="M2.761 14.001a.84.84 0 0 1-.55-.18.6.6 0 0 1-.211-.464q0-.163.093-.408L6.02 2.71q.27-.71.998-.71.685 0 .956.702l3.934 10.246q.093.245.093.408 0 .277-.22.465a.8.8 0 0 1-.541.18q-.542 0-.745-.564l-1.083-2.92h-4.83l-1.075 2.92q-.203.563-.745.563m2.26-4.731H8.98L7.025 3.902h-.05zm7.77 5.46 5.48 5.481 4.157-4.156a1.95 1.95 0 0 0 .002-2.76l-2.724-2.723a1.947 1.947 0 0 0-2.759.002zm1.957-3.372L13 13.107V2.755a.77.77 0 0 1 .195-.544.68.68 0 0 1 .51-.21q.309 0 .504.21.203.21.203.544v4.073h.032q.405-.73 1.112-1.144a3.13 3.13 0 0 1 1.598-.414q1.599 0 2.58 1.193.982 1.192.982 3.172 0 .265-.017.514l-.286-.285a2.9 2.9 0 0 0-1.161-.716q-.095-1.098-.63-1.793-.648-.844-1.768-.844-1.08 0-1.769.869-.681.86-.681 2.255 0 .999.345 1.722m2.463 9.914L11.73 15.79l-1.157 1.157a1.95 1.95 0 0 0-.002 2.759l2.724 2.724a1.94 1.94 0 0 0 1.208.563L14.5 23H20a.75.75 0 0 0 0-1.5h-3.02z"/></svg>