<svg xmlns="http://www.w3.org/2000/svg" width="24" height="24" fill="none"><path fill="#04071E" d="M11.634 5.187c-.498.346-.884.954-.884 2.063 0 .546.198.897.567 1.228.422.379 1.013.682 1.801 1.086l.036.019c1.488.763 3.564 1.83 4.078 4.477.53 2.736-1.591 6.19-5.732 6.19-2.9 0-4.43-2.241-4.925-3.12a6 6 0 0 1-.226-.445l-.014-.032-.005-.01-.002-.005v-.002a1 1 0 0 1 1.843-.775l.004.009.025.053c.024.05.063.129.118.226.419.745 1.435 2.101 3.182 2.101 2.86 0 4.065-2.284 3.768-3.81-.31-1.598-1.478-2.283-3.034-3.081l-.137-.07c-.69-.354-1.494-.765-2.115-1.321-.72-.646-1.232-1.513-1.232-2.718 0-1.641.614-2.92 1.741-3.705 1.08-.752 2.478-.941 3.868-.789 1.954.214 2.98 1.394 3.459 2.26a4.6 4.6 0 0 1 .38.904l.018.07.006.025.002.009.001.004v.003a1 1 0 0 1-1.948.448m0 0-.001-.004v-.003l-.001-.001m.002.008-.004-.015-.032-.098a2.6 2.6 0 0 0-.173-.381c-.267-.482-.804-1.118-1.927-1.24-1.11-.123-1.963.063-2.507.442"/></svg>