<svg xmlns="http://www.w3.org/2000/svg" width="24" height="24" fill="none"><path fill="#04071E" d="M9.974 7.525c-.08-.35-.006-.71.217-.979.213-.255.662-.546 1.559-.546.93 0 1.569.256 1.962.487.199.117.34.23.424.308q.063.058.084.082l.009.01a1 1 0 0 0 1.552-1.262c-.156-.11 0 0 0 0l-.002-.001-.001-.002-.003-.004-.008-.01a1 1 0 0 0-.082-.092 3 3 0 0 0-.204-.201 4.6 4.6 0 0 0-.755-.552C14.056 4.37 13.07 4 11.75 4c-1.353 0-2.423.459-3.095 1.266a3.12 3.12 0 0 0-.63 2.709c.208.898.803 1.505 1.418 1.935.582.406 1.289.726 1.906 1.006l.058.026c.67.304 1.26.575 1.744.905.474.322.77.65.92 1.024.289.72.144 1.18-.115 1.473-.3.34-.933.656-1.955.656-1.253 0-1.868-.407-2.169-.707a1.7 1.7 0 0 1-.313-.428 1 1 0 0 1-.05-.116l-.005-.012a1 1 0 0 0-1.935.506c.1.292 0 .001 0 .001l.001.002.001.003.002.006.004.016a2 2 0 0 0 .048.152c.032.088.079.204.145.337.134.266.35.609.688.947.7.7 1.835 1.293 3.583 1.293 1.387 0 2.656-.427 3.456-1.333.84-.953.99-2.242.471-3.538-.35-.876-.989-1.485-1.652-1.936-.645-.439-1.386-.775-2.02-1.062l-.024-.01c-.678-.308-1.226-.559-1.643-.85-.403-.282-.562-.519-.615-.746M7 18a1 1 0 1 0 0 2h10a1 1 0 1 0 0-2z"/></svg>