<svg xmlns="http://www.w3.org/2000/svg" width="24" height="24" fill="none"><path fill="#04071E" d="M11.994 4.345c.466-.519 1.314-.7 1.834-.533.316.1.526.315.617.535a.68.68 0 0 1-.076.666c-.28.417-.741.482-1.47.488h-.133a1 1 0 1 0 0 2l.087.001h.046c.729.007 1.19.072 1.47.489a.68.68 0 0 1 .076.666.98.98 0 0 1-.617.535c-.52.167-1.368-.014-1.834-.533a1 1 0 0 0-1.488 1.336c1.002 1.117 2.676 1.504 3.931 1.102 1.677-.536 2.739-2.516 1.591-4.222a3 3 0 0 0-.295-.373q.156-.166.295-.373c1.148-1.706.086-3.686-1.59-4.222-1.256-.402-2.93-.015-3.932 1.101a1 1 0 0 0 1.488 1.337M3 2a1 1 0 0 1 1 1v2.5h3V3a1 1 0 0 1 2 0v6.994a1 1 0 1 1-2 0V7.5H4V10a1 1 0 1 1-2 0V3a1 1 0 0 1 1-1m14.557 3.462a.75.75 0 0 1 .693-.463h3.002a.75.75 0 0 1 .53 1.28l-1.5 1.501a.75.75 0 0 1-1.062 0l-1.5-1.5a.75.75 0 0 1-.163-.818M2 20a1 1 0 0 1 1-1h18a1 1 0 1 1 0 2H3a1 1 0 0 1-1-1m1-6a1 1 0 1 0 0 2h18a1 1 0 1 0 0-2z"/></svg>