<svg xmlns="http://www.w3.org/2000/svg" width="24" height="24" fill="none"><path fill="#04071E" d="M7.92 2.606a1 1 0 0 0-1.839 0l-3 7a1 1 0 1 0 1.838.788L5.517 9h2.967l.597 1.394a1 1 0 0 0 1.838-.788zM7.626 7H6.374L7 5.539zm-1.252 4.22a1 1 0 1 0-1.25 1.56l1.25 1a1 1 0 0 0 1.25 0l1.25-1a1 1 0 0 0-1.25-1.56l-.625.5zM4.5 15a1 1 0 1 0 0 2h3.227l-3.964 4.324A1 1 0 0 0 4.5 23H10a1 1 0 1 0 0-2H6.773l3.964-4.324A1 1 0 0 0 10 15zm13-13a1 1 0 0 1 1 1v15.586l1.793-1.793a1 1 0 0 1 1.414 1.414l-3.5 3.5a1 1 0 0 1-1.414 0l-3.5-3.5a1 1 0 0 1 1.414-1.414l1.793 1.793V3a1 1 0 0 1 1-1"/></svg>