<svg xmlns="http://www.w3.org/2000/svg" width="24" height="24" fill="none"><path fill="#04071E" d="M7.92 2.606a1 1 0 0 0-1.839 0l-3 7a1 1 0 1 0 1.838.788L5.517 9h2.967l.597 1.394a1 1 0 0 0 1.838-.788zM7.626 7H6.374L7 5.539zM7 14c-1.634 0-3 1.364-3 3.1 0 1.105.554 2.06 1.378 2.607.35.233.622.595.622 1.015V21a1 1 0 0 1-1 1H3a1 1 0 0 1-.109-1.994A5.16 5.16 0 0 1 2 17.1C2 14.307 4.215 12 7 12s5 2.307 5 5.1a5.16 5.16 0 0 1-.891 2.906A1 1 0 0 1 11 22H9a1 1 0 0 1-1-1v-.278c0-.42.272-.782.622-1.015A3.12 3.12 0 0 0 10 17.1c0-1.736-1.366-3.1-3-3.1M17.25 2a.75.75 0 0 1 .75.75v16.69l2.22-2.22a.75.75 0 1 1 1.06 1.06l-3.5 3.5a.75.75 0 0 1-1.06 0l-3.5-3.5a.75.75 0 1 1 1.06-1.06l2.22 2.22V2.75a.75.75 0 0 1 .75-.75"/></svg>