<svg xmlns="http://www.w3.org/2000/svg" width="24" height="24" fill="none"><path fill="#04071E" d="M3.6 6.9a3.3 3.3 0 0 1 3.3-3.3h10.2a3.3 3.3 0 0 1 3.3 3.3v10.2a3.3 3.3 0 0 1-3.3 3.3h-4.954l-1.872-1.872a5.4 5.4 0 0 0 .493-1.728H16.2a.6.6 0 1 0 0-1.2h-5.433A5.4 5.4 0 0 0 3.6 11.107zm4.5 2.7a.9.9 0 1 0 0-1.8.9.9 0 0 0 0 1.8m2.7-.6a.6.6 0 0 0 .6.6h4.8a.6.6 0 1 0 0-1.2h-4.8a.6.6 0 0 0-.6.6m.6 3a.6.6 0 1 0 0 1.2h4.8a.6.6 0 1 0 0-1.2zm-6 8.4c.944 0 1.814-.311 2.516-.836l3.06 3.06a.6.6 0 0 0 .848-.848l-3.06-3.06A4.2 4.2 0 1 0 5.4 20.4m0-1.2a3 3 0 1 1 0-6 3 3 0 0 1 0 6"/></svg>