<svg xmlns="http://www.w3.org/2000/svg" width="24" height="24" fill="none"><path fill="#04071E" d="M8.942 5.432c1.299-1.235 2.955-1.824 4.885-1.68 2.057.156 3.207 1.275 3.8 2.363a5.4 5.4 0 0 1 .622 2.055v.015l.001.006v.003s-.03-.29 0-.003v.005a1 1 0 0 1-1.996.115l-.001-.01-.007-.066a3.415 3.415 0 0 0-.376-1.163c-.326-.6-.926-1.23-2.193-1.325-1.392-.105-2.486.306-3.357 1.134-.9.855-1.624 2.22-2.097 4.111-.47 1.877-.61 3.71-.218 5.055q.285.98.916 1.512c.418.353 1.02.622 1.912.694 1.764.143 2.852-.566 3.527-1.3a5 5 0 0 0 .904-1.415l.033-.086.006-.016v.002l-.001.001a1 1 0 0 1 1.901.62l-.003.01.003-.009v.001l-.001.003-.002.006-.006.016a3 3 0 0 1-.078.205 6.96 6.96 0 0 1-1.284 2.014c-1.012 1.102-2.674 2.143-5.16 1.942-1.234-.1-2.253-.494-3.042-1.16-.785-.664-1.271-1.538-1.546-2.481-.538-1.849-.303-4.094.198-6.099.527-2.108 1.39-3.868 2.66-5.075"/></svg>