<svg xmlns="http://www.w3.org/2000/svg" width="24" height="24" fill="none"><path fill="#04071E" d="M18 7.125v-1.5c0-.621-.503-1.125-1.124-1.125h-9.75C6.505 4.5 6 5.004 6 5.625v1.5a1.125 1.125 0 0 0 2.25 0V6.75h2.625v10.5H10.5a1.125 1.125 0 0 0 0 2.25h3a1.125 1.125 0 0 0 0-2.25h-.375V6.75h2.625v.375a1.125 1.125 0 0 0 2.25 0M6.373 10.033a1.125 1.125 0 0 0-1.588.093l-3 3.375a1.123 1.123 0 0 0 0 1.494l3 3.375c.222.25.53.378.841.378a1.124 1.124 0 0 0 .84-1.872L4.13 14.248l2.335-2.628a1.125 1.125 0 0 0-.093-1.587m12.845.095 3 3.375v.001c.38.426.38 1.068 0 1.494l-3 3.375a1.126 1.126 0 1 1-1.681-1.494l2.335-2.628-2.335-2.628a1.124 1.124 0 0 1 .093-1.588 1.12 1.12 0 0 1 1.588.093"/><path fill="#04071E" fill-rule="evenodd" d="M5.95 5.625c0-.649.527-1.175 1.176-1.175h9.75c.648 0 1.175.526 1.175 1.175v1.5a1.175 1.175 0 0 1-2.35 0V6.8h-2.525v10.4h.325a1.175 1.175 0 0 1 0 2.35h-3a1.175 1.175 0 0 1 0-2.35h.325V6.8H8.3v.325a1.175 1.175 0 0 1-2.35 0zM7.127 4.55c-.594 0-1.075.482-1.075 1.075v1.5a1.075 1.075 0 0 0 2.15 0V6.7h2.725v10.6H10.5a1.075 1.075 0 0 0 0 2.15h3a1.075 1.075 0 0 0 0-2.15h-.425V6.7H15.8v.425a1.075 1.075 0 0 0 2.15 0v-1.5c0-.593-.482-1.075-1.075-1.075zm-2.38 5.543a1.175 1.175 0 0 1 1.757 1.56l-2.306 2.595 2.306 2.595a1.174 1.174 0 1 1-1.757 1.56m0 0-3-3.374a1.173 1.173 0 0 1 0-1.56l3-3.376m.075.067a1.075 1.075 0 0 1 1.607 1.427m0 0-2.365 2.661 2.365 2.662a1.074 1.074 0 1 1-1.607 1.427l-3-3.375a1.073 1.073 0 0 1 0-1.427l3-3.375m14.359.001a1.07 1.07 0 0 0-1.518-.089 1.074 1.074 0 0 0-.089 1.518l2.365 2.661-2.365 2.662a1.076 1.076 0 0 0 .803 1.788c.295 0 .59-.121.804-.36m0 0 3-3.376a1.073 1.073 0 0 0 0-1.427l-.013-.015v-.001L19.18 10.16m.075-.066a1.17 1.17 0 0 0-1.66-.097 1.174 1.174 0 0 0-.097 1.659l2.306 2.594-2.306 2.595a1.176 1.176 0 0 0 .878 1.955c.322 0 .645-.133.879-.394l3-3.375c.392-.44.396-1.101.012-1.546v-.002z" clip-rule="evenodd"/></svg>