<svg xmlns="http://www.w3.org/2000/svg" width="24" height="24" fill="none"><path fill="#04071E" d="m9.97 16.168 4.59-12.512c.306-.834 1.446-.872 1.829-.113l.049.113 5.501 14.997a1 1 0 0 1-1.83.796l-.047-.107-1.411-3.843h-6.305l-1.442 3.92-.04.078-.073.109-.077.09-.085.077-.083.06-.05.031-.084.043-.104.041-.105.028-.133.02-.107.001-.071-.005-.103-.016-.15-.045-.069-.03-.1-.054-.111-.08-.092-.086-.064-.076-.061-.09-.054-.102-.746-1.913H4.655l-.723 1.86a1 1 0 0 1-1.183.605l-.111-.035a1 1 0 0 1-.606-1.184l.036-.111 3.499-8.996c.315-.81 1.42-.848 1.81-.116l.054.116zl4.59-12.512zM6.499 12.76 5.433 15.5h2.131zm9-5.856-2.42 6.595h4.838z"/></svg>