<svg xmlns="http://www.w3.org/2000/svg" width="24" height="24" fill="none"><path fill="#04071E" d="M3.615 7.1c.836 0 1.513-.672 1.513-1.5s-.677-1.5-1.513-1.5S2.1 4.772 2.1 5.6s.678 1.5 1.514 1.5m4.541-1.5c0-.497.407-.9.908-.9H20.57c.501 0 .908.403.908.9s-.407.9-.908.9H9.064a.904.904 0 0 1-.908-.9m.908 5.1a.904.904 0 0 0-.908.9c0 .497.407.9.908.9h6.607a6.7 6.7 0 0 1 2.779-.6c.9 0 1.758.177 2.54.497a.899.899 0 0 0-.421-1.697zm0 6h2.976a6.6 6.6 0 0 0-.251 1.8H9.064a.904.904 0 0 1-.908-.9c0-.497.407-.9.908-.9m-3.936-5.1c0 .828-.677 1.5-1.513 1.5A1.507 1.507 0 0 1 2.1 11.6c0-.828.678-1.5 1.514-1.5s1.513.672 1.513 1.5m-1.513 7.5c.836 0 1.513-.672 1.513-1.5s-.677-1.5-1.513-1.5-1.514.672-1.514 1.5.678 1.5 1.514 1.5m20.284-.6c0 2.982-2.44 5.4-5.45 5.4S13 21.482 13 18.5s2.44-5.4 5.45-5.4 5.45 2.418 5.45 5.4m-4.593 0 1.388-1.376a.596.596 0 0 0 0-.848.61.61 0 0 0-.856 0l-1.389 1.375-1.388-1.375a.61.61 0 0 0-.856 0 .596.596 0 0 0 0 .848l1.388 1.376-1.388 1.376a.596.596 0 0 0 0 .848.61.61 0 0 0 .856 0l1.389-1.375 1.388 1.375a.61.61 0 0 0 .856 0 .596.596 0 0 0 0-.848z"/><path fill="#04071E" fill-rule="evenodd" d="M2 5.6C2 4.716 2.723 4 3.615 4c.891 0 1.614.716 1.614 1.6s-.723 1.6-1.614 1.6A1.607 1.607 0 0 1 2 5.6m1.615-1.4c-.78 0-1.413.627-1.413 1.4S2.834 7 3.615 7c.78 0 1.413-.627 1.413-1.4s-.633-1.4-1.413-1.4m5.45.6a.804.804 0 0 0-.808.8c0 .442.361.8.807.8H20.57a.804.804 0 0 0 .807-.8c0-.442-.361-.8-.807-.8zm-1.01.8c0-.552.452-1 1.01-1h11.504c.557 0 1.009.448 1.009 1s-.452 1-1.01 1H9.065c-.557 0-1.009-.448-1.009-1m-4.44 4.6c-.78 0-1.413.627-1.413 1.4S2.834 13 3.615 13c.78 0 1.413-.627 1.413-1.4s-.633-1.4-1.413-1.4M2 11.6c0-.884.723-1.6 1.615-1.6.891 0 1.614.716 1.614 1.6s-.723 1.6-1.614 1.6A1.607 1.607 0 0 1 2 11.6m6.055 0c0-.552.452-1 1.01-1h11.504c.557 0 1.009.448 1.009 1 0 .385-.22.719-.54.886l-.042.022-.044-.018a6.6 6.6 0 0 0-2.503-.49c-.976 0-1.903.212-2.736.59l-.02.01H9.064c-.557 0-1.009-.448-1.009-1m1.01-.8a.804.804 0 0 0-.808.8c0 .442.361.8.807.8h6.585a6.8 6.8 0 0 1 2.8-.6c.896 0 1.752.173 2.535.486a.798.798 0 0 0-.415-1.486zm9.385 2.4c-2.954 0-5.35 2.373-5.35 5.3s2.396 5.3 5.35 5.3 5.348-2.373 5.348-5.3-2.394-5.3-5.348-5.3m-5.55 5.3c0-3.038 2.484-5.5 5.55-5.5S24 15.462 24 18.5 21.515 24 18.45 24s-5.55-2.462-5.55-5.5M2 17.6c0-.884.723-1.6 1.615-1.6.891 0 1.614.716 1.614 1.6s-.723 1.6-1.614 1.6A1.607 1.607 0 0 1 2 17.6m1.615-1.4c-.78 0-1.413.627-1.413 1.4S2.834 19 3.615 19c.78 0 1.413-.627 1.413-1.4s-.633-1.4-1.413-1.4m12.519.005a.71.71 0 0 1 .999 0l1.317 1.305 1.317-1.305a.71.71 0 0 1 .999 0 .696.696 0 0 1 0 .99L19.449 18.5l1.317 1.305a.696.696 0 0 1 0 .99.71.71 0 0 1-1 0L18.45 19.49l-1.317 1.305a.71.71 0 0 1-1 0 .696.696 0 0 1 0-.99l1.318-1.305-1.317-1.305a.696.696 0 0 1 0-.99m.856.141a.51.51 0 0 0-.714 0 .497.497 0 0 0 0 .708l1.46 1.446-1.46 1.446a.497.497 0 0 0 0 .708.51.51 0 0 0 .714 0l1.46-1.447 1.46 1.447a.51.51 0 0 0 .713 0 .497.497 0 0 0 0-.708l-1.46-1.446 1.46-1.446a.497.497 0 0 0 0-.708.51.51 0 0 0-.714 0l-1.46 1.447zm-7.926.454a.804.804 0 0 0-.807.8c0 .442.361.8.807.8h2.625a6.7 6.7 0 0 1 .219-1.6zm-1.009.8c0-.552.452-1 1.01-1h3.108l-.036.127a6.5 6.5 0 0 0-.247 1.773v.1H9.064c-.557 0-1.009-.448-1.009-1" clip-rule="evenodd"/></svg>