<svg xmlns="http://www.w3.org/2000/svg" width="24" height="24" fill="none"><path fill="#04071E" d="M14.696 5.7a.9.9 0 1 0-1.8 0v2.23l-2.117-.689a.9.9 0 0 0-.557 1.712l2.122.69-1.312 1.805a.9.9 0 0 0 1.457 1.058l1.309-1.802 1.309 1.802a.9.9 0 0 0 1.456-1.058l-1.31-1.804 2.125-.69a.9.9 0 0 0-.556-1.713l-2.126.691zM7.8 19.2a1.8 1.8 0 1 0 0-3.6 1.8 1.8 0 0 0 0 3.6"/><path fill="#04071E" fill-rule="evenodd" d="M12.846 5.7a.95.95 0 1 1 1.9 0v2.163l2.06-.67a.95.95 0 0 1 .587 1.808l-2.06.67 1.27 1.748a.95.95 0 1 1-1.537 1.117l-1.268-1.747-1.27 1.747a.95.95 0 0 1-1.536-1.117l1.271-1.75-2.056-.668a.95.95 0 1 1 .587-1.807l2.051.667zm.95-.85a.85.85 0 0 0-.85.85v2.298l-2.183-.709a.85.85 0 1 0-.525 1.617l2.187.71-1.352 1.862a.85.85 0 1 0 1.375.999l1.35-1.858 1.35 1.858a.85.85 0 1 0 1.375-1l-1.351-1.86 2.19-.711a.85.85 0 0 0-.525-1.617l-2.191.712V5.7a.85.85 0 0 0-.85-.85M5.95 17.4a1.85 1.85 0 1 1 3.7 0 1.85 1.85 0 0 1-3.7 0m1.85-1.75a1.75 1.75 0 1 0 0 3.5 1.75 1.75 0 0 0 0-3.5" clip-rule="evenodd"/></svg>