<svg xmlns="http://www.w3.org/2000/svg" width="24" height="24" fill="none"><path fill="#04071E" d="M13.8 3.6a4.8 4.8 0 1 0 0 9.6h1.8V21a.6.6 0 1 0 1.2 0V4.8H18V21a.6.6 0 1 0 1.2 0V4.8h.6a.6.6 0 1 0 0-1.2zM6.176 9.176a.6.6 0 0 1 .848.848L5.048 12l1.976 1.976a.6.6 0 1 1-.848.848l-2.4-2.4a.6.6 0 0 1 0-.848z"/><path fill="#04071E" fill-rule="evenodd" d="M8.95 8.4a4.85 4.85 0 0 1 4.85-4.85h6a.65.65 0 1 1 0 1.3h-.55V21a.65.65 0 1 1-1.3 0V4.85h-1.1V21a.65.65 0 1 1-1.3 0v-7.75H13.8A4.85 4.85 0 0 1 8.95 8.4m4.85-4.75a4.75 4.75 0 0 0 0 9.5h1.85V21a.55.55 0 1 0 1.1 0V4.75h1.3V21a.55.55 0 1 0 1.1 0V4.75h.65a.55.55 0 1 0 0-1.1zM6.989 9.211a.55.55 0 0 0-.778 0l-2.4 2.4a.55.55 0 0 0 0 .778l2.4 2.4a.55.55 0 0 0 .778-.778L4.978 12l2.01-2.011a.55.55 0 0 0 0-.778m-.849-.07a.65.65 0 1 1 .92.919L5.118 12l1.94 1.94a.65.65 0 0 1-.919.92l-2.4-2.4a.65.65 0 0 1 0-.92z" clip-rule="evenodd"/></svg>