<svg xmlns="http://www.w3.org/2000/svg" width="24" height="24" fill="none"><path fill="#04071E" d="M3.6 6.9a3.3 3.3 0 0 1 3.3-3.3h10.2a3.3 3.3 0 0 1 3.3 3.3v5.6c-.617-.162-1.22-.535-1.83-1.187-.307-.33-.729-.51-1.166-.513h-.011c-.437.002-.86.184-1.167.513q-.39.415-.777.687h-4.05a.6.6 0 1 0 0 1.2h.972A1.7 1.7 0 0 0 12 14.25v2.71l.005.307v.01c.037 1.137.27 2.188.722 3.123H6.9a3.3 3.3 0 0 1-3.3-3.3zm4.5 2.7a.9.9 0 1 0 0-1.8.9.9 0 0 0 0 1.8m.9 2.7a.9.9 0 1 0-1.8 0 .9.9 0 0 0 1.8 0m-.9 4.5a.9.9 0 1 0 0-1.8.9.9 0 0 0 0 1.8M10.8 9a.6.6 0 0 0 .6.6h4.8a.6.6 0 1 0 0-1.2h-4.8a.6.6 0 0 0-.6.6m6.598 13.8a.4.4 0 0 1-.131-.023q-1.246-.446-2.114-1.176h-.002a5.2 5.2 0 0 1-1.052-1.2q-.834-1.314-.895-3.163l-.004-.287v-2.7c0-.25.188-.45.42-.45 1.284 0 2.44-.55 3.483-1.67a.4.4 0 0 1 .295-.13c.107 0 .214.043.296.13 1.044 1.12 2.199 1.67 3.483 1.67.232 0 .42.2.42.45v2.7l-.004.287q-.061 1.85-.895 3.162v.001a5.2 5.2 0 0 1-1.053 1.2h-.001q-.869.731-2.114 1.176a.4.4 0 0 1-.132.023"/></svg>