<svg xmlns="http://www.w3.org/2000/svg" width="24" height="24" fill="none"><path fill="#04071E" d="M4 5a1 1 0 0 0 0 2h16a1 1 0 1 0 0-2zm0 4a1 1 0 0 0 0 2h16a1 1 0 1 0 0-2zm7 8.5q0-.252.019-.5H4a1 1 0 1 0 0 2h7.174A6.5 6.5 0 0 1 11 17.5m.498-2.5a6.5 6.5 0 0 1 1.312-2H4a1 1 0 1 0 0 2zM23 17.5a5.5 5.5 0 1 1-11 0 5.5 5.5 0 0 1 11 0M18.529 14h-1.433a.5.5 0 0 0-.468.324l-1.125 3a.5.5 0 0 0 .469.676h.778l-.773 2.318a.518.518 0 0 0 .926.446l2.625-4.038a.47.47 0 0 0-.393-.726H18.5l.497-1.324a.5.5 0 0 0-.468-.676"/></svg>