<svg xmlns="http://www.w3.org/2000/svg" width="24" height="24" fill="none"><path fill="#04071E" d="M8.707 5.293a1 1 0 0 1-1.414 1.414L7 6.414V20a1 1 0 1 1-2 0V6.414l-.293.293a1 1 0 0 1-1.414-1.414l2-2a1 1 0 0 1 1.414 0zM16.707 6.707a1 1 0 0 0 0-1.414l-2-2a1 1 0 0 0-1.414 0l-2 2a1 1 0 0 0 1.414 1.414L13 6.414V8a1 1 0 1 0 2 0V6.414l.293.293a1 1 0 0 0 1.414 0M9 13a1 1 0 0 1 1-1h3v-1a1 1 0 1 1 2 0v1h4.25a1 1 0 1 1 0 2H10a1 1 0 0 1-1-1M11 21a1 1 0 0 1-1-1v-4a1 1 0 0 1 1-1h1.25c1.104 0 2.506.216 3.664.958C17.136 16.739 18 18.055 18 20a1 1 0 1 1-2 0c0-1.255-.51-1.94-1.164-2.358-.717-.458-1.69-.642-2.586-.642H12v3a1 1 0 0 1-1 1"/></svg>