<svg xmlns="http://www.w3.org/2000/svg" width="24" height="24" fill="none"><path fill="#04071E" d="M7.92 2.606a1 1 0 0 0-1.839 0l-3 7a1 1 0 1 0 1.838.788L5.517 9h2.967l.597 1.394a1 1 0 0 0 1.838-.788zM7.626 7H6.374L7 5.539zm1.1 8.308a2.5 2.5 0 1 0-3.454 0l-2.197 5.31a1 1 0 1 0 1.848.764L5.496 20h3.008l.572 1.382a1 1 0 1 0 1.848-.764zM7.677 18H6.324L7 16.365zM6.5 13.5a.5.5 0 1 1 1 0 .5.5 0 0 1-1 0M17.5 2a1 1 0 0 1 1 1v15.586l1.793-1.793a1 1 0 0 1 1.414 1.414l-3.5 3.5a1 1 0 0 1-1.414 0l-3.5-3.5a1 1 0 0 1 1.414-1.414l1.793 1.793V3a1 1 0 0 1 1-1"/></svg>