<svg xmlns="http://www.w3.org/2000/svg" width="24" height="24" fill="none"><path fill="#04071E" d="M8.572 4.458c.916-.61 2.06-.958 3.428-.958 1.925 0 3.305.653 4.218 1.383.446.357.764.719.979 1.004a4.6 4.6 0 0 1 .35.545l.01.02.006.012.001.002s-.564-.966 0-.002l.001.003a1.75 1.75 0 0 1-3.11 1.604 2.093 2.093 0 0 0-.423-.455C13.695 7.347 13.075 7 12 7c-.756 0-1.207.184-1.486.37-.29.194-.506.464-.668.788-.165.33-.256.682-.303.966a4 4 0 0 0-.043.387V14.5a2.5 2.5 0 0 0 5 0h-.75a1.75 1.75 0 1 1 0-3.5h2.5c.966 0 1.75.784 1.75 1.75v1.75a6 6 0 0 1-12 0V9.483v.015-.038a4 4 0 0 1 .013-.267 6.97 6.97 0 0 1 .703-2.6 5.5 5.5 0 0 1 1.856-2.135"/></svg>