<svg xmlns="http://www.w3.org/2000/svg" width="24" height="24" fill="none"><g clip-path="url(#a)"><path fill="#04071E" d="M7.75 3.75a1 1 0 0 0-2 0v7.5a1 1 0 1 0 2 0v-4.5a1 1 0 0 0 0-2zM23 4a1 1 0 1 0-2 0v7a1 1 0 1 0 2 0V6.75a1 1 0 1 0 0-2zm-9-1a1 1 0 0 1 1 1v.75h.25a1 1 0 1 1 0 2H15V11a1 1 0 1 1-2 0V8.521a1 1 0 0 1-.803.96l-2.5.5a1 1 0 0 1-1.145-1.297l1.5-4.5a1 1 0 1 1 1.898.632l-.955 2.866.81-.162A1 1 0 0 1 13 8.48v-4.48a1 1 0 0 1 1-1M0 4.75a1 1 0 0 1 1-1h3a1 1 0 0 1 1 1c0 1.752-.868 4.452-3.594 5.664a1 1 0 0 1-.812-1.828C1.931 7.992 2.62 6.824 2.877 5.75H1a1 1 0 0 1-1-1M16.5 5a1 1 0 0 1 1-1H19a1 1 0 1 1 0 2h-.5v2.22l.758-.19a1 1 0 0 1 .486 1.94l-2 .5A1 1 0 0 1 16.5 9.5zM11.184 17.77l4.299-5.159a1 1 0 1 1 1.536 1.28l-5 6a1 1 0 0 1-1.475.067l-2.5-2.5a1 1 0 0 1 1.414-1.414z"/></g><defs><clipPath id="a"><path fill="#fff" d="M0 0h24v24H0z"/></clipPath></defs></svg>