<svg xmlns="http://www.w3.org/2000/svg" width="24" height="24" fill="none"><path fill="#04071E" d="M7.92 1.606a1 1 0 0 0-1.839 0l-3 7a1 1 0 0 0 1.838.788L5.517 8h2.967l.597 1.394a1 1 0 0 0 1.838-.788zM7.626 6H6.374L7 4.539zM18.5 3a1 1 0 1 0-2 0v15.586l-1.793-1.793a1 1 0 0 0-1.414 1.414l3.5 3.5a1 1 0 0 0 1.414 0l3.5-3.5a1 1 0 0 0-1.414-1.414L18.5 18.586zM5.75 13a.75.75 0 1 0 0-1.5.75.75 0 0 0 0 1.5M9 12.25a.75.75 0 1 1-1.5 0 .75.75 0 0 1 1.5 0M7 13.5c-2.778 0-5.25 2.013-5.25 4.75S4.222 23 7 23s5.25-2.013 5.25-4.75S9.778 13.5 7 13.5m-3.25 4.75c0-1.405 1.334-2.75 3.25-2.75s3.25 1.345 3.25 2.75S8.916 21 7 21s-3.25-1.345-3.25-2.75"/></svg>