<svg xmlns="http://www.w3.org/2000/svg" width="24" height="24" fill="none"><path fill="#04071E" d="M12.72 3a.72.72 0 0 0-1.44 0v7.262L6.145 5.127a.72.72 0 1 0-1.018 1.018l5.135 5.135H3a.72.72 0 1 0 0 1.44h7.262l-5.135 5.135a.72.72 0 1 0 1.018 1.018l5.135-5.134V21a.72.72 0 1 0 1.44 0v-7.262l5.135 5.135a.72.72 0 1 0 1.018-1.018l-5.135-5.135H21a.72.72 0 0 0 0-1.44h-7.262l5.135-5.135a.72.72 0 0 0-1.018-1.018l-5.135 5.135z"/><path fill="#04071E" fill-rule="evenodd" d="M11.13 3a.87.87 0 1 1 1.74 0v6.9l4.879-4.879a.87.87 0 1 1 1.23 1.23l-4.878 4.88H21a.87.87 0 1 1 0 1.74h-6.9l4.88 4.878a.87.87 0 1 1-1.231 1.23l-4.88-4.879V21a.87.87 0 1 1-1.74 0v-6.9l-4.878 4.88a.87.87 0 0 1-1.23-1.231L9.9 12.87H3a.87.87 0 1 1 0-1.74h6.9L5.02 6.251a.87.87 0 0 1 1.231-1.23L11.13 9.9zm.87-.57a.57.57 0 0 0-.57.57v7.262a.15.15 0 0 1-.256.106L6.039 5.233a.57.57 0 1 0-.806.806l5.135 5.135a.15.15 0 0 1-.106.256H3a.57.57 0 0 0 0 1.14h7.262a.15.15 0 0 1 .106.256l-5.135 5.135a.57.57 0 1 0 .806.806l5.135-5.134a.15.15 0 0 1 .256.106V21a.57.57 0 0 0 1.14 0v-7.262a.15.15 0 0 1 .256-.106l5.135 5.135a.57.57 0 1 0 .806-.806l-5.135-5.135a.15.15 0 0 1 .106-.256H21a.57.57 0 0 0 0-1.14h-7.262a.15.15 0 0 1-.106-.256l5.135-5.135a.57.57 0 1 0-.806-.806l-5.135 5.135a.15.15 0 0 1-.256-.106V3a.57.57 0 0 0-.57-.57" clip-rule="evenodd"/></svg>