<svg xmlns="http://www.w3.org/2000/svg" width="24" height="24" fill="none"><path fill="#04071E" d="M3.6 6.9a3.3 3.3 0 0 1 3.3-3.3h10.2a3.3 3.3 0 0 1 3.3 3.3v4.382a3.6 3.6 0 0 0-1.8-.482 3.6 3.6 0 0 0-2.684 1.2H11.4a.6.6 0 1 0 0 1.2h3.804c-.132.375-.204.78-.204 1.2s.072.825.204 1.2H11.4a.6.6 0 1 0 0 1.2h4.516l.011.012A3 3 0 0 0 13.2 19.8q0 .3.045.6H6.9a3.3 3.3 0 0 1-3.3-3.3zm4.5 2.7a.9.9 0 1 0 0-1.8.9.9 0 0 0 0 1.8m.9 2.7a.9.9 0 1 0-1.8 0 .9.9 0 0 0 1.8 0m-.9 4.5a.9.9 0 1 0 0-1.8.9.9 0 0 0 0 1.8M10.8 9a.6.6 0 0 0 .6.6h4.8a.6.6 0 1 0 0-1.2h-4.8a.6.6 0 0 0-.6.6M21 14.4a2.4 2.4 0 1 1-4.8 0 2.4 2.4 0 0 1 4.8 0m1.8 5.4c0 1.494-1.2 3-4.2 3s-4.2-1.5-4.2-3a1.8 1.8 0 0 1 1.8-1.8H21a1.8 1.8 0 0 1 1.8 1.8"/></svg>