<svg xmlns="http://www.w3.org/2000/svg" width="24" height="24" fill="none"><path fill="#04071E" d="M3.3 6a.9.9 0 1 0 0 1.8h17.4a.9.9 0 1 0 0-1.8zm0 3.6a.9.9 0 0 0 0 1.8h11.346c.838-.385 1.77-.6 2.754-.6.982 0 1.915.215 2.753.6h.547a.9.9 0 0 0 0-1.8zm0 3.6h9.008A6.6 6.6 0 0 0 11.25 15H3.3a.9.9 0 0 1 0-1.8m0 3.6h7.527a6.7 6.7 0 0 0 .081 1.8H3.3a.9.9 0 0 1 0-1.8m19.5.6a5.4 5.4 0 1 1-10.8 0 5.4 5.4 0 0 1 10.8 0m-5.4-3a.6.6 0 0 0-.6.6v2.4a.6.6 0 0 0 1.2 0V15a.6.6 0 0 0-.6-.6m0 6.15a.75.75 0 1 0 0-1.5.75.75 0 0 0 0 1.5"/><path fill="#04071E" fill-rule="evenodd" d="M2.35 6.9a.95.95 0 0 1 .95-.95h17.4a.95.95 0 1 1 0 1.9H3.3a.95.95 0 0 1-.95-.95m.95-.85a.85.85 0 0 0 0 1.7h17.4a.85.85 0 0 0 0-1.7zm-.95 4.45a.95.95 0 0 1 .95-.95h17.4a.95.95 0 1 1 0 1.9h-.558l-.01-.005a6.5 6.5 0 0 0-2.732-.595c-.976 0-1.901.213-2.733.595l-.01.005H3.3a.95.95 0 0 1-.95-.95m.95-.85a.85.85 0 0 0 0 1.7h11.335a6.6 6.6 0 0 1 2.765-.6c.986 0 1.922.215 2.764.6h.536a.85.85 0 0 0 0-1.7zm14.1 2.4a5.35 5.35 0 1 0 0 10.7 5.35 5.35 0 0 0 0-10.7m-5.45 5.35a5.45 5.45 0 1 1 10.9 0 5.45 5.45 0 0 1-10.9 0M3.3 13.25a.85.85 0 1 0 0 1.7h7.916c.244-.617.579-1.19.987-1.7zm-.95.85a.95.95 0 0 1 .95-.95h9.114l-.067.082a6.6 6.6 0 0 0-1.05 1.786l-.013.032H3.3a.95.95 0 0 1-.95-.95m14.4.9a.65.65 0 1 1 1.3 0v2.4a.65.65 0 0 1-1.3 0zm.65-.55a.55.55 0 0 0-.55.55v2.4a.55.55 0 0 0 1.1 0V15a.55.55 0 0 0-.55-.55m-14.1 2.4a.85.85 0 1 0 0 1.7h7.549a6.7 6.7 0 0 1-.077-1.7zm-.95.85a.95.95 0 0 1 .95-.95h7.581l-.005.054a6.6 6.6 0 0 0 .082 1.787l.01.059H3.3a.95.95 0 0 1-.95-.95m14.25 2.1a.8.8 0 1 1 1.6 0 .8.8 0 0 1-1.6 0m.8-.7a.7.7 0 1 0 0 1.4.7.7 0 0 0 0-1.4" clip-rule="evenodd"/></svg>