<svg xmlns="http://www.w3.org/2000/svg" width="24" height="24" fill="none"><path fill="#04071E" d="M3.6 6.9a3.3 3.3 0 0 1 3.3-3.3h10.2a3.3 3.3 0 0 1 3.3 3.3v4.62c-.9-.46-1.92-.72-3-.72a6.57 6.57 0 0 0-3.796 1.2H11.4a.6.6 0 1 0 0 1.2h.908a6.57 6.57 0 0 0-1.508 4.2c0 1.08.26 2.1.72 3H6.9a3.3 3.3 0 0 1-3.3-3.3zm4.5 2.7a.9.9 0 1 0 0-1.8.9.9 0 0 0 0 1.8m.9 2.7a.9.9 0 1 0-1.8 0 .9.9 0 0 0 1.8 0m-.9 4.5a.9.9 0 1 0 0-1.8.9.9 0 0 0 0 1.8M10.8 9a.6.6 0 0 0 .6.6h4.8a.6.6 0 1 0 0-1.2h-4.8a.6.6 0 0 0-.6.6m3.678 4.73a2.4 2.4 0 0 1-1.716 2.974l-.554.142a5.7 5.7 0 0 0 .012 1.22l.42.098a2.4 2.4 0 0 1 1.747 3.023l-.151.508q.464.366 1.001.62l.39-.412a2.4 2.4 0 0 1 3.492.002l.404.43q.528-.245.987-.598l-.188-.668a2.4 2.4 0 0 1 1.717-2.973l.553-.142a5.6 5.6 0 0 0-.012-1.22l-.42-.099a2.4 2.4 0 0 1-1.747-3.022l.152-.507a5.2 5.2 0 0 0-1.002-.622l-.39.413a2.4 2.4 0 0 1-3.49-.002l-.406-.43q-.527.244-.986.598zM17.4 18.6a1.2 1.2 0 1 1 0-2.4 1.2 1.2 0 0 1 0 2.4"/></svg>