<svg xmlns="http://www.w3.org/2000/svg" width="24" height="24" fill="none"><path fill="#04071E" d="M6.5 1.25a.75.75 0 1 1-1.5 0 .75.75 0 0 1 1.5 0M18.5 3a1 1 0 1 0-2 0v15.586l-1.793-1.793a1 1 0 0 0-1.414 1.414l3.5 3.5a1 1 0 0 0 1.414 0l3.5-3.5a1 1 0 0 0-1.414-1.414L18.5 18.586zM8.25 2a.75.75 0 1 0 0-1.5.75.75 0 0 0 0 1.5m-6.5 5.25C1.75 4.513 4.222 2.5 7 2.5s5.25 2.013 5.25 4.75S9.778 12 7 12 1.75 9.987 1.75 7.25M7 4.5c-1.916 0-3.25 1.345-3.25 2.75S5.084 10 7 10s3.25-1.345 3.25-2.75S8.916 4.5 7 4.5M7 13a1 1 0 0 1 .92.606l3 7a1 1 0 1 1-1.839.788L8.484 20H5.517l-.598 1.394a1 1 0 1 1-1.838-.788l3-7a1 1 0 0 1 .92-.606m0 3.539L6.374 18h1.253z"/></svg>