<svg xmlns="http://www.w3.org/2000/svg" width="24" height="24" fill="none"><path fill="#04071E" d="M15.25 13c.967 0 1.75.784 1.75 1.75v4.503a1.75 1.75 0 0 1-1.75 1.75H3.75A1.75 1.75 0 0 1 2 19.253V14.75c0-.966.784-1.75 1.75-1.75zm5.751 1.896v5.354a.75.75 0 0 1-1.494.102l-.007-.102v-5.344a3 3 0 0 0 1.501-.01m-.75-4.804a1.908 1.908 0 1 1 0 3.816 1.908 1.908 0 0 1 0-3.816m-5.005-7.095c.967 0 1.75.783 1.75 1.75V9.25a1.75 1.75 0 0 1-1.75 1.75h-11.5a1.75 1.75 0 0 1-1.75-1.75V4.747a1.75 1.75 0 0 1 1.607-1.744l.143-.006zM20.251 3a.75.75 0 0 1 .743.648l.007.102v5.346a3 3 0 0 0-1.5-.011V3.75a.75.75 0 0 1 .75-.75"/></svg>