<svg xmlns="http://www.w3.org/2000/svg" width="24" height="24" fill="none"><path fill="#04071E" d="M3.08 5.621a6.34 6.34 0 0 1 4.456-.33h.003q.957.282 1.547.88c.394.398.624.852.755 1.291.202.677.18 1.421.168 1.837q-.005.12-.005.201v5.503a1 1 0 0 1-1.96.282l-.08.039c-.964.462-2.397.92-3.877.507-1.632-.457-2.453-1.81-2.572-3.136-.114-1.28.41-2.735 1.682-3.447 1.529-.856 3.116-.84 4.262-.641q.295.052.555.116a2.5 2.5 0 0 0-.09-.689 1.05 1.05 0 0 0-.258-.454c-.121-.122-.325-.263-.69-.37a4.34 4.34 0 0 0-3.048.222 1 1 0 0 1-.848-1.811m4.037 4.957c-.884-.154-1.956-.137-2.943.415-.424.237-.729.83-.667 1.523.058.647.421 1.194 1.119 1.389.79.22 1.681-.004 2.473-.384.367-.176.68-.37.905-.524V10.8a6 6 0 0 0-.887-.222m9.186-3.53a1 1 0 0 1 .65 1.255 7 7 0 0 0-.155.584 18 18 0 0 0 1.964-.358 1 1 0 1 1 .476 1.943 20 20 0 0 1-2.842.472q-.096.508-.166.964a6 6 0 0 1 1.796-.138A1 1 0 0 1 20 12q0 .165-.006.326a4.75 4.75 0 0 1 2.103 2.165 4.44 4.44 0 0 1 .17 3.464c-.435 1.182-1.38 2.22-2.82 2.94a1 1 0 0 1-.895-1.79c1.06-.529 1.606-1.209 1.84-1.842a2.44 2.44 0 0 0-.1-1.91 2.7 2.7 0 0 0-.657-.864 8.4 8.4 0 0 1-2.735 4.06l.041.114a1 1 0 0 1-1.746.931 5.3 5.3 0 0 1-.988.32c-.795.17-1.824.148-2.5-.588-.939-1.026-.863-2.6-.239-3.883.495-1.016 1.374-1.984 2.638-2.7q.08-.782.239-1.698c-.482.001-.957-.014-1.417-.047a1 1 0 0 1 .143-1.995c.531.038 1.087.05 1.652.038.088-.445.2-.955.324-1.344a1 1 0 0 1 1.256-.65m-2.278 8.233c-.344.34-.593.697-.758 1.037-.424.871-.257 1.452-.095 1.645l.003.001c.027.013.186.086.615-.006.203-.043.431-.118.674-.227a9.6 9.6 0 0 1-.341-1.477 11 11 0 0 1-.098-.973m2.172 1.204a6.36 6.36 0 0 0 1.568-2.73l-1.651.266-.1.036c-.029.772.012 1.391.087 1.904q.042.28.096.524"/></svg>