<svg xmlns="http://www.w3.org/2000/svg" width="24" height="24" fill="none"><path fill="#04071E" d="M12.745 2.653a1.2 1.2 0 0 0-1.487 0l-3.97 3.133c-.965.762-.847 2.09-.068 2.776L5.463 10.01c-1.156.953-.688 2.726.612 3.113l-1.903 1.783c-1.183 1.109-.399 3.093 1.222 3.093H9.6v2.1a1.5 1.5 0 0 0 1.5 1.5h1.8a1.5 1.5 0 0 0 1.5-1.5v-2.1h4.205c1.622 0 2.406-1.986 1.222-3.094l-1.904-1.781c1.303-.385 1.773-2.16.615-3.114l-1.755-1.447c.78-.685.897-2.015-.068-2.777zM10.801 18h2.4v2.1a.3.3 0 0 1-.3.3h-1.8a.3.3 0 0 1-.3-.3z"/><path fill="#04071E" fill-rule="evenodd" d="M11.227 2.614a1.25 1.25 0 0 1 1.549 0l3.97 3.133c.975.769.874 2.1.114 2.814l1.71 1.41c1.166.961.725 2.73-.55 3.175l1.84 1.723c1.218 1.139.412 3.18-1.255 3.18H14.45v2.05a1.55 1.55 0 0 1-1.55 1.55h-1.8a1.55 1.55 0 0 1-1.55-1.55v-2.05H5.394c-1.666 0-2.472-2.04-1.256-3.18l1.841-1.725c-1.274-.446-1.712-2.213-.547-3.173l1.711-1.41c-.76-.715-.86-2.045.115-2.814zm1.487.078a1.15 1.15 0 0 0-1.425 0L7.32 5.825c-.937.74-.825 2.032-.066 2.7a.05.05 0 0 1-.002.076l-1.756 1.447c-1.123.926-.67 2.65.594 3.027a.05.05 0 0 1 .02.084l-1.903 1.784c-1.15 1.077-.387 3.006 1.188 3.006H9.6a.05.05 0 0 1 .05.05v2.1c0 .8.65 1.45 1.45 1.45h1.8c.801 0 1.45-.65 1.45-1.45v-2.1a.05.05 0 0 1 .05-.05h4.205c1.576 0 2.339-1.93 1.187-3.007L17.89 13.16a.05.05 0 0 1 .02-.085c1.267-.374 1.722-2.1.598-3.027L16.75 8.602a.05.05 0 0 1 0-.077c.758-.667.87-1.96-.067-2.7zM10.751 18a.05.05 0 0 1 .05-.05h2.4a.05.05 0 0 1 .05.05v2.1a.35.35 0 0 1-.35.35h-1.8a.35.35 0 0 1-.35-.35zm.1.05v2.05c0 .138.111.25.25.25h1.8a.25.25 0 0 0 .25-.25v-2.05z" clip-rule="evenodd"/></svg>