<svg xmlns="http://www.w3.org/2000/svg" width="24" height="24" fill="none"><path fill="#04071E" d="M22.8 6.6a5.4 5.4 0 1 1-10.8 0 5.4 5.4 0 0 1 10.8 0m-2.576.425.003-.003a.6.6 0 0 0 .173-.418v-.008a.6.6 0 0 0-.176-.42l-2.4-2.4a.6.6 0 0 0-.848.848L18.352 6H15a.6.6 0 1 0 0 1.2h3.352l-1.376 1.376a.6.6 0 0 0 .848.848zM17.4 13.2a6.57 6.57 0 0 0 4.2-1.509V15.6a2.4 2.4 0 0 1-2.4 2.4H4.8a2.4 2.4 0 0 1-2.4-2.4V7.2a2.4 2.4 0 0 1 2.4-2.4h6.248a6.6 6.6 0 0 0 6.352 8.4m-10.8 6a.6.6 0 1 0 0 1.2h10.8a.6.6 0 0 0 0-1.2z"/></svg>