<svg xmlns="http://www.w3.org/2000/svg" width="24" height="24" fill="none"><path fill="#04071E" d="M1 8.573V4.427a1.5 1.5 0 0 1 .83-1.341l3.5-1.75a1.5 1.5 0 0 1 1.34 0l3.5 1.75A1.5 1.5 0 0 1 11 4.427v4.146a1.5 1.5 0 0 1-.83 1.342l-3.5 1.75a1.5 1.5 0 0 1-1.34 0l-3.5-1.75A1.5 1.5 0 0 1 1 8.573m1.553-4.046a.5.5 0 0 0 .223.67L5.5 6.56V9.5a.5.5 0 1 0 1 0V6.56l2.724-1.363a.5.5 0 1 0-.448-.894L6 5.691 3.224 4.303a.5.5 0 0 0-.671.224m9-1.527c.286.411.447.907.447 1.427v4.146a2.5 2.5 0 0 1-1.382 2.236l-3.5 1.75a2.5 2.5 0 0 1-2.236 0L2 11.118v6.132a2.25 2.25 0 0 0 2.04 2.24 3 3 0 0 0 5.919.01h2.082a3 3 0 0 0 5.918 0h1.791A2.25 2.25 0 0 0 22 17.25v-5.413a2.25 2.25 0 0 0-.217-.963l-1.699-3.587A2.25 2.25 0 0 0 18.051 6H16.5v-.75A2.25 2.25 0 0 0 14.25 3zm7.697 12.5h1.25V17h-1.25a.75.75 0 0 1 0-1.5m-.521-7.571L20.183 11H16.5V7.5h1.55a.75.75 0 0 1 .679.429M8.5 19a1.5 1.5 0 1 1-3 0 1.5 1.5 0 0 1 3 0m6.5-1.5a1.5 1.5 0 1 1 0 3 1.5 1.5 0 0 1 0-3"/></svg>