<svg xmlns="http://www.w3.org/2000/svg" width="24" height="24" fill="none"><path fill="#04071E" d="M15.6 7.8a3 3 0 0 0-3-3H5.4a3 3 0 0 0-3 3v4.508a6.6 6.6 0 0 1 10.557 6.87A3 3 0 0 0 15.6 16.2zm1.2 1.717v4.98l3.317 2.821a.9.9 0 0 0 1.483-.686v-9.2a.9.9 0 0 0-1.477-.691zM1.2 17.4a5.4 5.4 0 1 0 10.8 0 5.4 5.4 0 0 0-10.8 0M9 13.8a.6.6 0 0 1 .6.6v1.8a.6.6 0 0 1-.6.6H7.2a.6.6 0 1 1 0-1.2h.562a2.4 2.4 0 0 0-1.12-.3 2.4 2.4 0 0 0-1.74.703.6.6 0 1 1-.848-.849 3.6 3.6 0 0 1 4.346-.572V14.4a.6.6 0 0 1 .6-.6m-1.051 6.638a3.6 3.6 0 0 1-3.149-.22v.182a.6.6 0 1 1-1.2 0v-1.8a.6.6 0 0 1 .6-.6H6a.6.6 0 1 1 0 1.2h-.562a2.4 2.4 0 0 0 1.12.3 2.4 2.4 0 0 0 1.74-.703.6.6 0 1 1 .848.848 3.6 3.6 0 0 1-1.197.793"/></svg>