<svg xmlns="http://www.w3.org/2000/svg" width="24" height="24" fill="none"><path fill="#04071E" d="M12.6 4.8a3 3 0 0 1 3 3v8.4a3 3 0 0 1-2.4 2.94V15A4.2 4.2 0 0 0 9 10.8H4.2c-.644 0-1.255.145-1.8.404V7.8a3 3 0 0 1 3-3zm4.2 9.698V9.517l3.323-2.776a.9.9 0 0 1 1.477.69v9.202a.9.9 0 0 1-1.483.685zM1.2 15a3 3 0 0 1 3-3H9a3 3 0 0 1 3 3v4.8a3 3 0 0 1-3 3H4.2a3 3 0 0 1-3-3zm4.824.04a.54.54 0 0 0-.537-.044.6.6 0 0 0-.186.13.61.61 0 0 0-.174.429v3.69q0 .12.046.232.048.112.128.196.082.083.189.134a.54.54 0 0 0 .388.022.6.6 0 0 0 .155-.076l2.756-1.88a.56.56 0 0 0 .195-.222.64.64 0 0 0 .07-.292.6.6 0 0 0-.073-.293.6.6 0 0 0-.201-.219z"/></svg>