<svg xmlns="http://www.w3.org/2000/svg" width="24" height="24" fill="none"><path fill="#04071E" d="M4.692 4.017C3.318 3.825 2 4.875 2 6.317v11.368c0 1.44 1.318 2.49 2.691 2.298q.296-.041.636-.084A54 54 0 0 1 12 19.5c3.19 0 5.732.262 7.31.483 1.372.193 2.69-.858 2.69-2.298V6.316c0-1.44-1.318-2.491-2.692-2.299-1.576.221-4.116.483-7.308.483-3.191 0-5.732-.262-7.308-.483M19 18.43a52 52 0 0 0-3.5-.325V15H18a1 1 0 0 1 1 1zm-5-.395a59 59 0 0 0-4 0V15a1 1 0 0 1 1-1h2a1 1 0 0 1 1 1v3.034m-5.5.07a52 52 0 0 0-3.5.325V16a1 1 0 0 1 1-1h2.5zM12 13a1.5 1.5 0 1 1 0-3 1.5 1.5 0 0 1 0 3m-3.5-.5a1.5 1.5 0 1 1-3 0 1.5 1.5 0 0 1 3 0m10 0a1.5 1.5 0 1 1-3 0 1.5 1.5 0 0 1 3 0"/></svg>