<svg xmlns="http://www.w3.org/2000/svg" width="24" height="24" fill="none"><path fill="#04071E" d="M3.424 2.576a.6.6 0 0 0-.848.848l1.421 1.422A2.04 2.04 0 0 0 2.4 6.837v10.326a2.04 2.04 0 0 0 2.363 2.012q.9-.144 1.802-.253a45.4 45.4 0 0 1 11.602.094l2.409 2.408a.6.6 0 1 0 .848-.848zm13.37 15.066a47 47 0 0 0-1.194-.107v-1.086zM14.4 15.25v2.208a47 47 0 0 0-4.8 0V14.4a1.2 1.2 0 0 1 1.2-1.2h1.551zm-9.6 2.705V15.6A1.2 1.2 0 0 1 6 14.4h2.4v3.135a47 47 0 0 0-3.6.42M6.6 13.2a1.2 1.2 0 1 1 0-2.4 1.2 1.2 0 0 1 0 2.4m10.345 1.2L7.751 5.206c3.825.359 7.685.232 11.486-.381 1.24-.2 2.363.757 2.363 2.012v10.326c0 .53-.2 1.007-.525 1.366L19.2 16.654V15.6a1.2 1.2 0 0 0-1.2-1.2zm.455-1.2a1.2 1.2 0 1 0 0-2.4 1.2 1.2 0 0 0 0 2.4"/><path fill="#04071E" fill-rule="evenodd" d="M2.54 2.54a.65.65 0 0 1 .92 0l18 18a.65.65 0 0 1-.92.92l-2.396-2.397a45.4 45.4 0 0 0-13.373.162 2.09 2.09 0 0 1-2.421-2.062V6.837c0-.98.669-1.783 1.55-2.018l-1.36-1.36a.65.65 0 0 1 0-.919m.849.071a.55.55 0 1 0-.778.778l1.486 1.486-.089.02A1.99 1.99 0 0 0 2.45 6.837v10.326a1.99 1.99 0 0 0 2.305 1.963q.9-.145 1.804-.254a45.5 45.5 0 0 1 11.615.094l.017.003 2.42 2.42a.55.55 0 1 0 .778-.778zM21.55 6.837a1.99 1.99 0 0 0-2.305-1.963c-3.76.607-7.576.738-11.36.394l9.081 9.082H18c.69 0 1.25.56 1.25 1.25v1.034l1.822 1.822c.297-.345.478-.795.478-1.293zm-2.321-2.062a2.09 2.09 0 0 1 2.421 2.062v10.326c0 .543-.205 1.032-.538 1.4l-.036.039-1.926-1.927V15.6A1.15 1.15 0 0 0 18 14.45h-1.075L7.618 5.143l.138.013c3.82.359 7.676.232 11.473-.38M6.6 10.85a1.15 1.15 0 1 0 0 2.3 1.15 1.15 0 0 0 0-2.3M5.35 12a1.25 1.25 0 1 1 2.5 0 1.25 1.25 0 0 1-2.5 0m10.8 0a1.25 1.25 0 1 1 2.5 0 1.25 1.25 0 0 1-2.5 0m1.25-1.15a1.15 1.15 0 1 0 0 2.3 1.15 1.15 0 0 0 0-2.3m-6.6 2.4a1.15 1.15 0 0 0-1.15 1.15v3.005a47 47 0 0 1 4.7 0v-2.136l-2.02-2.019zM9.55 14.4c0-.69.56-1.25 1.25-1.25h1.572l2.078 2.078v2.282l-.053-.003a47 47 0 0 0-4.794 0l-.053.003zM6 14.45a1.15 1.15 0 0 0-1.15 1.15v2.296q1.744-.27 3.5-.408V14.45zM4.75 15.6c0-.69.56-1.25 1.25-1.25h2.45v3.23l-.046.004a47 47 0 0 0-3.596.42l-.058.009zm10.8.728 1.379 1.379-.14-.015a46 46 0 0 0-1.193-.108l-.046-.003zm.1.241v.92q.505.039 1.01.09z" clip-rule="evenodd"/></svg>