<svg xmlns="http://www.w3.org/2000/svg" width="24" height="24" fill="none"><path fill="#04071E" d="M4.5 5.625A3.375 3.375 0 0 1 7.877 2.25h11.25A3.375 3.375 0 0 1 22.5 5.625v7.5a3.375 3.375 0 0 1-3.375 3.375h-4.732c-.45-.987-1.407-1.627-2.394-1.816V13.5a2.25 2.25 0 0 1 2.25-2.25H18a2.25 2.25 0 0 1 2.25 2.25v1.126c.456-.342.75-.887.75-1.501v-7.5c0-1.036-.839-1.875-1.874-1.875H7.876C6.84 3.75 6 4.59 6 5.625v.235a4.9 4.9 0 0 0-1.5.797zm6.893 10.125c.628 0 1.256.277 1.668.75.316.364.506.845.47 1.405-.101 1.555-.689 2.76-1.803 3.546-1.074.758-2.533 1.049-4.229 1.049-1.686 0-3.117-.288-4.175-1.04-1.093-.777-1.67-1.964-1.812-3.486-.122-1.312 1-2.224 2.142-2.224zm4.732-5.25a2.625 2.625 0 1 0 0-5.25 2.625 2.625 0 0 0 0 5.25m-4.875 0a3.75 3.75 0 1 1-7.5 0 3.75 3.75 0 0 1 7.5 0"/></svg>