<svg xmlns="http://www.w3.org/2000/svg" width="24" height="24" fill="none"><path fill="#04071E" d="M5.649 7.387a.9.9 0 0 1 .164 1.262l-2.578 3.35 2.578 3.352a.9.9 0 0 1-1.426 1.098l-3-3.9a.9.9 0 0 1 0-1.098l3-3.9a.9.9 0 0 1 1.262-.164m12.538 7.964a.9.9 0 1 0 1.426 1.098l3-3.9a.9.9 0 0 0 0-1.098l-3-3.9a.9.9 0 1 0-1.426 1.098L20.765 12zM7.2 13.2a1.2 1.2 0 1 0 0-2.4 1.2 1.2 0 0 0 0 2.4m6-1.2a1.2 1.2 0 1 1-2.4 0 1.2 1.2 0 0 1 2.4 0m3.6 1.2a1.2 1.2 0 1 0 0-2.4 1.2 1.2 0 0 0 0 2.4"/><path fill="#04071E" fill-rule="evenodd" d="M18.32 7.347a.95.95 0 0 1 1.333.174l3 3.9a.95.95 0 0 1 0 1.158l-3 3.9a.95.95 0 0 1-1.506-1.158L20.701 12l-2.554-3.32a.95.95 0 0 1 .174-1.333m1.254.235a.85.85 0 0 0-1.348 1.036L20.828 12l-2.602 3.382a.85.85 0 0 0 1.348 1.036l3-3.9a.85.85 0 0 0 0-1.036zM5.618 7.426a.85.85 0 0 0-1.192.156l-3 3.9a.85.85 0 0 0 0 1.036l3 3.9a.85.85 0 0 0 1.348-1.036L3.172 12l2.602-3.382a.85.85 0 0 0-.156-1.192m-1.271.095a.95.95 0 0 1 1.506 1.158L3.298 12l2.555 3.322a.95.95 0 0 1-1.506 1.158l-3-3.9a.95.95 0 0 1 0-1.158zM5.95 12a1.25 1.25 0 1 1 2.5 0 1.25 1.25 0 0 1-2.5 0m1.25-1.15a1.15 1.15 0 1 0 0 2.3 1.15 1.15 0 0 0 0-2.3m4.8 0a1.15 1.15 0 1 0 0 2.3 1.15 1.15 0 0 0 0-2.3M10.75 12a1.25 1.25 0 1 1 2.5 0 1.25 1.25 0 0 1-2.5 0m4.8 0a1.25 1.25 0 1 1 2.5 0 1.25 1.25 0 0 1-2.5 0m1.25-1.15a1.15 1.15 0 1 0 0 2.3 1.15 1.15 0 0 0 0-2.3" clip-rule="evenodd"/></svg>