<svg xmlns="http://www.w3.org/2000/svg" width="24" height="24" fill="none"><path fill="#04071E" d="M5.813 8.649A.9.9 0 1 0 4.387 7.55l-3 3.9a.9.9 0 0 0 0 1.098l3 3.9a.9.9 0 1 0 1.426-1.098L3.235 12zM21.55 13.25a3 3 0 0 0-1.357-1.992l-2.006-2.61a.9.9 0 1 1 1.426-1.097l3 3.9a.9.9 0 0 1 0 1.098l-.628.816a3 3 0 0 0-.435-.115M8.4 12A1.2 1.2 0 1 1 6 12a1.2 1.2 0 0 1 2.4 0m3.6 1.2a1.2 1.2 0 1 0 0-2.4 1.2 1.2 0 0 0 0 2.4m2.4 1.2v-.6a1.8 1.8 0 0 1 1.8-1.8h2.4a1.8 1.8 0 0 1 1.8 1.8v.6h.6a1.8 1.8 0 0 1 1.8 1.8V18h-2.4v-.6a.6.6 0 1 0-1.2 0v.6h-3.6v-.6a.6.6 0 1 0-1.2 0v.6H12v-1.8a1.8 1.8 0 0 1 1.8-1.8zm1.2-.6v.6h3.6v-.6a.6.6 0 0 0-.6-.6h-2.4a.6.6 0 0 0-.6.6m4.8 5.4h2.4V21a1.8 1.8 0 0 1-1.8 1.8h-7.2A1.8 1.8 0 0 1 12 21v-1.8h2.4v.6a.6.6 0 1 0 1.2 0v-.6h3.6v.6a.6.6 0 1 0 1.2 0z"/><path fill="#04071E" fill-rule="evenodd" d="M19.574 7.582a.85.85 0 0 0-1.348 1.036l2.002 2.602c.695.44 1.2 1.152 1.364 1.987q.193.039.375.1l.607-.789a.85.85 0 0 0 0-1.036zm-1.253-.235a.95.95 0 0 1 1.332.174l3 3.9a.95.95 0 0 1 0 1.158l-.65.845-.034-.011a3 3 0 0 0-.428-.114l-.034-.006-.007-.034a2.95 2.95 0 0 0-1.333-1.959l-.008-.005-2.012-2.616a.95.95 0 0 1 .174-1.332m-13.974.174a.95.95 0 0 1 1.506 1.158L3.298 12l2.555 3.322a.95.95 0 0 1-1.506 1.158l-3-3.9a.95.95 0 0 1 0-1.158zm1.271-.095a.85.85 0 0 0-1.192.156l-3 3.9a.85.85 0 0 0 0 1.036l3 3.9a.85.85 0 0 0 1.348-1.036L3.172 12l2.602-3.382a.85.85 0 0 0-.156-1.192M7.2 10.85a1.15 1.15 0 1 0 0 2.3 1.15 1.15 0 0 0 0-2.3M5.95 12a1.25 1.25 0 1 1 2.5 0 1.25 1.25 0 0 1-2.5 0m4.8 0a1.25 1.25 0 1 1 2.5 0 1.25 1.25 0 0 1-2.5 0M12 10.85a1.15 1.15 0 1 0 0 2.3 1.15 1.15 0 0 0 0-2.3m4.2 1.2a1.75 1.75 0 0 0-1.75 1.75v.65h-.65a1.75 1.75 0 0 0-1.75 1.75v1.75h2.3v-.55a.65.65 0 1 1 1.3 0v.55h3.5v-.55a.65.65 0 1 1 1.3 0v.55h2.3V16.2A1.75 1.75 0 0 0 21 14.45h-.65v-.65a1.75 1.75 0 0 0-1.75-1.75zm-1.85 1.75a1.85 1.85 0 0 1 1.85-1.85h2.4a1.85 1.85 0 0 1 1.85 1.85v.55H21a1.85 1.85 0 0 1 1.85 1.85v1.85h-2.5v-.65a.55.55 0 1 0-1.1 0v.65h-3.7v-.65a.55.55 0 1 0-1.1 0v.65h-2.5V16.2a1.85 1.85 0 0 1 1.85-1.85h.55zm1.2 0a.65.65 0 0 1 .65-.65h2.4a.65.65 0 0 1 .65.65v.65h-3.7zm.65-.55a.55.55 0 0 0-.55.55v.55h3.5v-.55a.55.55 0 0 0-.55-.55zm-4.25 5.9h2.5v.65a.55.55 0 1 0 1.1 0v-.65h3.7v.65a.55.55 0 1 0 1.1 0v-.65h2.5V21A1.85 1.85 0 0 1 21 22.85h-7.2A1.85 1.85 0 0 1 11.95 21zm.1.1V21c0 .966.783 1.75 1.75 1.75H21A1.75 1.75 0 0 0 22.75 21v-1.75h-2.3v.55a.65.65 0 1 1-1.3 0v-.55h-3.5v.55a.65.65 0 1 1-1.3 0v-.55z" clip-rule="evenodd"/></svg>