<svg xmlns="http://www.w3.org/2000/svg" width="24" height="24" fill="none"><path fill="#04071E" d="M7.2 12a1.2 1.2 0 1 1 2.4 0 1.2 1.2 0 0 1-2.4 0m8.4-2.4c.89 0 1.668.485 2.082 1.206a6.57 6.57 0 0 1 3.918 1.502V7.2a2.4 2.4 0 0 0-2.4-2.4H4.8a2.4 2.4 0 0 0-2.4 2.4v9.6a2.4 2.4 0 0 0 2.4 2.4h6.248a6.6 6.6 0 0 1-.248-1.8c0-2.058.942-3.896 2.418-5.106a2.39 2.39 0 0 1 .303-1.494h-3.042A2.4 2.4 0 1 1 8.4 9.6zM12 17.4a5.4 5.4 0 1 0 10.8 0 5.4 5.4 0 0 0-10.8 0m6.476-3.124a.6.6 0 0 1 .848 0l2.1 2.1a.6.6 0 0 1 .003.845l-2.103 2.103a.6.6 0 0 1-.848-.849L19.55 17.4H17.7a2.1 2.1 0 0 0-2.1 2.1v.3a.6.6 0 1 1-1.2 0v-.3a3.3 3.3 0 0 1 3.3-3.3h1.851l-1.075-1.076a.6.6 0 0 1 0-.849"/></svg>