<svg xmlns="http://www.w3.org/2000/svg" width="24" height="24" fill="none"><path fill="#04071E" d="M15.6 9.6c.89 0 1.668.485 2.082 1.206a6.57 6.57 0 0 1 3.918 1.502V7.2a2.4 2.4 0 0 0-2.4-2.4H4.8a2.4 2.4 0 0 0-2.4 2.4v9.6a2.4 2.4 0 0 0 2.4 2.4h6.248a6.6 6.6 0 0 1-.248-1.8c0-2.058.942-3.896 2.418-5.106a2.39 2.39 0 0 1 .303-1.494h-3.042A2.4 2.4 0 1 1 8.4 9.6zM7.2 12a1.2 1.2 0 1 1 2.4 0 1.2 1.2 0 0 1-2.4 0m15.6 5.4a5.4 5.4 0 1 1-10.8 0 5.4 5.4 0 0 1 10.8 0m-8.4 0a.6.6 0 0 0 .6.6h4.8a.6.6 0 1 0 0-1.2H15a.6.6 0 0 0-.6.6"/></svg>