<svg xmlns="http://www.w3.org/2000/svg" width="24" height="24" fill="none"><path fill="#04071E" d="m9.223 2.222-7.87 14.31A1.8 1.8 0 0 0 2.93 19.2h9.52a8.7 8.7 0 0 1-.444-2.54v-.01L12 16.31V13.3c0-.892.707-1.7 1.68-1.7 1.07 0 2.075-.422 3.067-1.434l-4.37-7.944c-.683-1.243-2.47-1.243-3.154 0M10.8 6.9a.9.9 0 0 1 .9.9v4.8a.9.9 0 0 1-1.8 0V7.8a.9.9 0 0 1 .9-.9m.9 8.4a.9.9 0 1 1-1.8 0 .9.9 0 0 1 1.8 0"/><path fill="#04071E" d="M20.4 12.416a5.6 5.6 0 0 1-1.2-.699 7 7 0 0 1-.86-.77.467.467 0 0 0-.679 0c-1.193 1.242-2.513 1.853-3.981 1.853a.49.49 0 0 0-.48.5V16.3l.005.319q.048 1.435.529 2.58a5.77 5.77 0 0 0 1.865 2.4q.944.72 2.25 1.174a.46.46 0 0 0 .303 0c3.072-1.067 4.648-3.255 4.648-6.473V13.3l-.01-.101a.485.485 0 0 0-.47-.4 4.87 4.87 0 0 1-1.92-.383"/><path fill="#04071E" fill-rule="evenodd" d="M9.18 2.198c.702-1.278 2.539-1.278 3.241 0l4.387 7.976-.026.027c-1 1.02-2.017 1.449-3.102 1.449-.944 0-1.63.783-1.63 1.65v3.01l.005.338v.01c.03.896.175 1.742.443 2.525l.023.067H2.93c-1.407 0-2.3-1.509-1.621-2.742zm3.154.048c-.665-1.208-2.402-1.208-3.067 0l-7.87 14.31A1.75 1.75 0 0 0 2.93 19.15h9.451a8.8 8.8 0 0 1-.425-2.489v-.01l-.006-.34V13.3c0-.918.727-1.75 1.73-1.75 1.045 0 2.03-.408 3.005-1.393zM9.85 7.8a.95.95 0 0 1 1.9 0v4.8a.95.95 0 0 1-1.9 0zm.95-.85a.85.85 0 0 0-.85.85v4.8a.85.85 0 0 0 1.7 0V7.8a.85.85 0 0 0-.85-.85m7.504 4.031a.417.417 0 0 0-.607 0c-1.2 1.25-2.533 1.869-4.017 1.869a.44.44 0 0 0-.43.45v3l.005.318q.049 1.426.525 2.563a5.7 5.7 0 0 0 1.85 2.38q.934.713 2.235 1.166c.088.03.183.03.27 0 1.53-.53 2.682-1.34 3.452-2.412.771-1.072 1.163-2.413 1.163-4.014v-2.999l-.01-.096a.435.435 0 0 0-.42-.356q-.37 0-.727-.051a5 5 0 0 1-1.212-.337 5.6 5.6 0 0 1-1.211-.705 7 7 0 0 1-.866-.776m-.679-.07a.517.517 0 0 1 .752.001q.416.435.853.765.576.435 1.19.693a4.8 4.8 0 0 0 1.9.38c.258 0 .47.19.52.44v.004l.01.106V16.3c0 1.618-.396 2.98-1.181 4.073-.785 1.092-1.957 1.911-3.5 2.447a.5.5 0 0 1-.337 0q-1.313-.456-2.263-1.181a5.824 5.824 0 0 1-1.882-2.42q-.483-1.155-.532-2.599l-.005-.32V13.3a.54.54 0 0 1 .53-.55c1.452 0 2.76-.604 3.945-1.838M9.85 15.3a.95.95 0 1 1 1.9 0 .95.95 0 0 1-1.9 0m.95-.85a.85.85 0 1 0 0 1.7.85.85 0 0 0 0-1.7" clip-rule="evenodd"/></svg>