<svg xmlns="http://www.w3.org/2000/svg" width="24" height="24" fill="none"><path fill="#04071E" d="M3.6 7.2a3.6 3.6 0 0 1 3.6-3.6h9.6a3.6 3.6 0 0 1 3.6 3.6v4.32a6.6 6.6 0 0 0-1.2-.471V8.4H4.8v8.4a2.4 2.4 0 0 0 2.4 2.4h3.848q.179.63.472 1.2H7.2a3.6 3.6 0 0 1-3.6-3.6zm10.878 6.53a2.4 2.4 0 0 1-1.717 2.974l-.553.141a5.7 5.7 0 0 0 .012 1.22l.42.1a2.4 2.4 0 0 1 1.746 3.022l-.151.507q.464.367 1.001.622l.39-.413a2.4 2.4 0 0 1 3.492.002l.405.43q.526-.245.986-.598l-.188-.668a2.4 2.4 0 0 1 1.717-2.973l.553-.142a5.6 5.6 0 0 0-.012-1.22l-.419-.099a2.4 2.4 0 0 1-1.747-3.022l.151-.507a5.2 5.2 0 0 0-1.002-.622l-.39.413a2.4 2.4 0 0 1-3.49-.002l-.405-.43q-.528.245-.987.597zm2.921 4.87a1.2 1.2 0 1 1 0-2.4 1.2 1.2 0 0 1 0 2.4"/><path fill="#04071E" fill-rule="evenodd" d="M7.2 3.75A3.45 3.45 0 0 0 3.75 7.2v9.6a3.45 3.45 0 0 0 3.45 3.45h4.08q-.203-.435-.344-.9H7.2a2.55 2.55 0 0 1-2.55-2.55V8.25h14.7v2.686q.465.141.9.344V7.2a3.45 3.45 0 0 0-3.45-3.45zM3.45 7.2A3.75 3.75 0 0 1 7.2 3.45h9.6a3.75 3.75 0 0 1 3.75 3.75v4.565l-.218-.112a6.4 6.4 0 0 0-1.173-.46l-.109-.03V8.55H4.95v8.25a2.25 2.25 0 0 0 2.25 2.25h3.962l.03.11q.175.613.461 1.172l.112.218H7.2a3.75 3.75 0 0 1-3.75-3.75zm11.862 5.084.479.508a2.25 2.25 0 0 0 3.273.002l.464-.492.098.047q.554.26 1.031.64l.08.062-.18.605a2.25 2.25 0 0 0 1.638 2.833l.52.124.013.104a5.8 5.8 0 0 1 .012 1.252l-.01.105-.655.167a2.25 2.25 0 0 0-1.61 2.788l.216.765-.08.062a5.3 5.3 0 0 1-1.016.614l-.098.046-.478-.508a2.25 2.25 0 0 0-3.274-.002l-.464.492-.099-.047a5.3 5.3 0 0 1-1.03-.639l-.08-.063.18-.605a2.25 2.25 0 0 0-1.637-2.834l-.522-.123-.012-.104a5.8 5.8 0 0 1-.013-1.252l.01-.105.656-.167a2.25 2.25 0 0 0 1.61-2.788l-.216-.766.08-.062a5.3 5.3 0 0 1 1.016-.614zm-.85.837.16.569a2.55 2.55 0 0 1-1.824 3.16l-.45.114a5.5 5.5 0 0 0 .01.98l.316.074a2.55 2.55 0 0 1 1.856 3.212l-.122.409q.374.284.795.494l.314-.333a2.55 2.55 0 0 1 3.71.002l.33.35q.412-.201.78-.473l-.16-.57a2.55 2.55 0 0 1 1.824-3.159l.45-.115a5.5 5.5 0 0 0-.01-.979l-.316-.075a2.55 2.55 0 0 1-1.856-3.211l.122-.408a5 5 0 0 0-.795-.495l-.314.333a2.55 2.55 0 0 1-3.71-.002l-.33-.35a5 5 0 0 0-.78.473M17.4 16.35a1.05 1.05 0 1 0 0 2.1 1.05 1.05 0 0 0 0-2.1m-1.35 1.05a1.35 1.35 0 1 1 2.7 0 1.35 1.35 0 0 1-2.7 0" clip-rule="evenodd"/></svg>