<svg xmlns="http://www.w3.org/2000/svg" width="24" height="24" fill="none"><path fill="#04071E" d="M5.4 2.4a3 3 0 0 0-3 3V15a3 3 0 0 0 3 3H15a3 3 0 0 0 3-3V5.4a3 3 0 0 0-3-3zM3.6 15V7.2h13.2V15a1.8 1.8 0 0 1-1.8 1.8H5.4A1.8 1.8 0 0 1 3.6 15M9 21.6a3 3 0 0 1-2.94-2.4h1.242A1.8 1.8 0 0 0 9 20.4h7.8a3.6 3.6 0 0 0 3.6-3.6V9a1.8 1.8 0 0 0-1.2-1.698V6.06A3 3 0 0 1 21.6 9v7.8a4.8 4.8 0 0 1-4.8 4.8z"/><path fill="#04071E" fill-rule="evenodd" d="M2.35 5.4A3.05 3.05 0 0 1 5.4 2.35H15a3.05 3.05 0 0 1 3.05 3.05V15A3.05 3.05 0 0 1 15 18.05H5.4A3.05 3.05 0 0 1 2.35 15zM5.4 2.45A2.95 2.95 0 0 0 2.45 5.4V15a2.95 2.95 0 0 0 2.95 2.95H15A2.95 2.95 0 0 0 17.95 15V5.4A2.95 2.95 0 0 0 15 2.45zm13.768 3.571a.05.05 0 0 1 .042-.01A3.05 3.05 0 0 1 21.65 9v7.8a4.85 4.85 0 0 1-4.85 4.85H9a3.05 3.05 0 0 1-2.99-2.44.05.05 0 0 1 .05-.06h1.242a.05.05 0 0 1 .047.033A1.75 1.75 0 0 0 9 20.35h7.8a3.55 3.55 0 0 0 3.55-3.55V9a1.75 1.75 0 0 0-1.166-1.65.05.05 0 0 1-.033-.048V6.06a.05.05 0 0 1 .018-.039m.082.1v1.146c.7.264 1.2.94 1.2 1.733v7.8a3.65 3.65 0 0 1-3.65 3.65H9a1.85 1.85 0 0 1-1.733-1.2H6.122A2.95 2.95 0 0 0 9 21.55h7.8a4.75 4.75 0 0 0 4.75-4.75V9a2.95 2.95 0 0 0-2.3-2.878M3.55 7.2a.05.05 0 0 1 .05-.05h13.2a.05.05 0 0 1 .05.05V15A1.85 1.85 0 0 1 15 16.85H5.4A1.85 1.85 0 0 1 3.55 15zm.1.05V15c0 .966.784 1.75 1.75 1.75H15A1.75 1.75 0 0 0 16.75 15V7.25z" clip-rule="evenodd"/><path fill="#04071E" fill-rule="evenodd" d="M2.25 5.4A3.15 3.15 0 0 1 5.4 2.25H15a3.15 3.15 0 0 1 3.15 3.15V15A3.15 3.15 0 0 1 15 18.15H5.4A3.15 3.15 0 0 1 2.25 15zM5.4 2.55A2.85 2.85 0 0 0 2.55 5.4V15a2.85 2.85 0 0 0 2.85 2.85H15A2.85 2.85 0 0 0 17.85 15V5.4A2.85 2.85 0 0 0 15 2.55zm13.705 3.394a.15.15 0 0 1 .125-.031A3.15 3.15 0 0 1 21.75 9v7.8a4.95 4.95 0 0 1-4.95 4.95H9a3.15 3.15 0 0 1-3.087-2.52.15.15 0 0 1 .147-.18h1.242c.064 0 .12.04.142.1A1.65 1.65 0 0 0 9 20.25h7.8a3.45 3.45 0 0 0 3.45-3.45V9a1.65 1.65 0 0 0-1.1-1.556.15.15 0 0 1-.1-.142V6.06a.15.15 0 0 1 .055-.116M7.199 19.35h-.95A2.85 2.85 0 0 0 9 21.45h7.8a4.65 4.65 0 0 0 4.65-4.65V9c0-1.314-.89-2.421-2.1-2.75v.95c.705.293 1.2.989 1.2 1.8v7.8a3.75 3.75 0 0 1-3.75 3.75H9a1.95 1.95 0 0 1-1.8-1.2M3.45 7.2a.15.15 0 0 1 .15-.15h13.2a.15.15 0 0 1 .15.15V15A1.95 1.95 0 0 1 15 16.95H5.4A1.95 1.95 0 0 1 3.45 15zm.3.15V15c0 .911.739 1.65 1.65 1.65H15A1.65 1.65 0 0 0 16.65 15V7.35z" clip-rule="evenodd"/></svg>