<svg xmlns="http://www.w3.org/2000/svg" width="24" height="24" fill="none"><path fill="#04071E" d="M6 11.25a.6.6 0 0 1 .6-.6h10.8a.6.6 0 0 1 0 1.2H6.6a.6.6 0 0 1-.6-.6m0 2.55a.6.6 0 0 1 .6-.6h6a.6.6 0 0 1 0 1.2h-6a.6.6 0 0 1-.6-.6m8.4 0a.6.6 0 0 1 .6-.6h2.4a.6.6 0 0 1 0 1.2H15a.6.6 0 0 1-.6-.6m-3.6 2.45a.6.6 0 0 1 .6-.6h6a.6.6 0 0 1 0 1.2h-6a.6.6 0 0 1-.6-.6m-4.8 0a.6.6 0 0 1 .6-.6H9a.6.6 0 1 1 0 1.2H6.6a.6.6 0 0 1-.6-.6M7.2 3.6a3.6 3.6 0 0 0-3.6 3.6v9.6a3.6 3.6 0 0 0 3.6 3.6h9.6a3.6 3.6 0 0 0 3.6-3.6V7.2a3.6 3.6 0 0 0-3.6-3.6zM4.8 16.8V8.4h14.4v8.4a2.4 2.4 0 0 1-2.4 2.4H7.2a2.4 2.4 0 0 1-2.4-2.4"/><path fill="#04071E" fill-rule="evenodd" d="M3.45 7.2A3.75 3.75 0 0 1 7.2 3.45h9.6a3.75 3.75 0 0 1 3.75 3.75v9.6a3.75 3.75 0 0 1-3.75 3.75H7.2a3.75 3.75 0 0 1-3.75-3.75zM7.2 3.75A3.45 3.45 0 0 0 3.75 7.2v9.6a3.45 3.45 0 0 0 3.45 3.45h9.6a3.45 3.45 0 0 0 3.45-3.45V7.2a3.45 3.45 0 0 0-3.45-3.45zm-2.55 4.5h14.7v8.55a2.55 2.55 0 0 1-2.55 2.55H7.2a2.55 2.55 0 0 1-2.55-2.55zm.3.3v8.25a2.25 2.25 0 0 0 2.25 2.25h9.6a2.25 2.25 0 0 0 2.25-2.25V8.55zM6.6 10.8a.45.45 0 0 0 0 .9h10.8a.45.45 0 0 0 0-.9zm-.75.45a.75.75 0 0 1 .75-.75h10.8a.75.75 0 0 1 0 1.5H6.6a.75.75 0 0 1-.75-.75m.75 2.1a.45.45 0 0 0 0 .9h6a.45.45 0 1 0 0-.9zm-.75.45a.75.75 0 0 1 .75-.75h6a.75.75 0 1 1 0 1.5h-6a.75.75 0 0 1-.75-.75m9.15-.45a.45.45 0 1 0 0 .9h2.4a.45.45 0 0 0 0-.9zm-.75.45a.75.75 0 0 1 .75-.75h2.4a.75.75 0 0 1 0 1.5H15a.75.75 0 0 1-.75-.75m-7.65 2a.45.45 0 0 0 0 .9H9a.45.45 0 0 0 0-.9zm-.75.45a.75.75 0 0 1 .75-.75H9A.75.75 0 0 1 9 17H6.6a.75.75 0 0 1-.75-.75m5.55-.45a.45.45 0 1 0 0 .9h6a.45.45 0 0 0 0-.9zm-.75.45a.75.75 0 0 1 .75-.75h6a.75.75 0 0 1 0 1.5h-6a.75.75 0 0 1-.75-.75" clip-rule="evenodd"/></svg>