<svg xmlns="http://www.w3.org/2000/svg" width="24" height="24" fill="none"><path fill="#04071E" d="M3 6.25A3.25 3.25 0 0 1 6.25 3h11.5A3.25 3.25 0 0 1 21 6.25v5.772a6.5 6.5 0 0 0-1.5-.709V8.5h-15v9.25c0 .966.784 1.75 1.75 1.75h5.063c.173.534.412 1.037.709 1.5H6.25A3.25 3.25 0 0 1 3 17.75z"/><path fill="#04071E" fill-rule="evenodd" d="M17.5 23a5.5 5.5 0 1 1 0-11 5.5 5.5 0 0 1 0 11m3-5a.5.5 0 0 0 0-1h-4.793l1.647-1.646a.5.5 0 0 0-.708-.708l-2.5 2.5a.5.5 0 0 0 0 .708l2.5 2.5a.5.5 0 0 0 .708-.708L15.707 18z" clip-rule="evenodd"/></svg>