<svg xmlns="http://www.w3.org/2000/svg" width="24" height="24" fill="none"><path fill="#04071E" d="M3.6 7.2a3.6 3.6 0 0 1 3.6-3.6h9.6a3.6 3.6 0 0 1 3.6 3.6v5.71a5.4 5.4 0 0 0-1.2-.603V8.4H4.8v8.4a2.4 2.4 0 0 0 2.4 2.4h5.107c.151.427.354.83.602 1.2H7.2a3.6 3.6 0 0 1-3.599-3.6zm14.467 11.198a1.2 1.2 0 1 1-1.334-1.996 1.2 1.2 0 0 1 1.334 1.996m3.472-1.598h.661a.6.6 0 1 1 0 1.2h-.661A4.185 4.185 0 0 1 18 21.54v.661a.6.6 0 0 1-1.2 0v-.661A4.185 4.185 0 0 1 13.261 18H12.6a.6.6 0 1 1 0-1.2h.661a4.18 4.18 0 0 1 3.539-3.539v-.66a.6.6 0 0 1 1.2 0v.66a4.185 4.185 0 0 1 3.539 3.54m-3.845 3.586a3.001 3.001 0 1 0-.59-5.973 3.001 3.001 0 0 0 .59 5.973"/><path fill="#04071E" fill-rule="evenodd" d="M7.2 3.65A3.55 3.55 0 0 0 3.65 7.2v9.6a3.55 3.55 0 0 0 3.55 3.55h5.617a5.4 5.4 0 0 1-.545-1.1H7.2a2.45 2.45 0 0 1-2.45-2.45V8.35h14.5v3.922q.586.212 1.1.545V7.2a3.55 3.55 0 0 0-3.55-3.55zM3.55 7.2A3.65 3.65 0 0 1 7.2 3.55h9.6a3.65 3.65 0 0 1 3.65 3.65v5.803l-.078-.052a5.3 5.3 0 0 0-1.189-.596l-.033-.012V8.45H4.85v8.35a2.35 2.35 0 0 0 2.35 2.35h5.143l.011.034c.15.423.351.822.597 1.188l.052.078H7.2a3.65 3.65 0 0 1-3.65-3.65zm13.85 4.85a.55.55 0 0 0-.55.55v.705l-.043.006a4.13 4.13 0 0 0-3.496 3.496l-.007.043H12.6a.55.55 0 1 0 0 1.1h.704l.007.043a4.135 4.135 0 0 0 3.496 3.497l.043.006v.704a.55.55 0 1 0 1.1 0v-.704l.043-.006a4.13 4.13 0 0 0 3.496-3.497l.006-.043h.705a.55.55 0 0 0 0-1.1h-.704l-.007-.043a4.135 4.135 0 0 0-3.496-3.496l-.043-.006V12.6a.55.55 0 0 0-.55-.55m-.46.09a.65.65 0 0 1 1.11.46v.618a4.23 4.23 0 0 1 3.532 3.532h.618a.65.65 0 0 1 0 1.3h-.618a4.23 4.23 0 0 1-3.532 3.532v.618a.65.65 0 0 1-1.3 0v-.618a4.23 4.23 0 0 1-3.532-3.532H12.6a.65.65 0 0 1 0-1.3h.618a4.23 4.23 0 0 1 3.532-3.532V12.6a.65.65 0 0 1 .19-.46m-.978 2.571a3.05 3.05 0 1 1 2.876 5.38 3.05 3.05 0 0 1-2.876-5.38m2.013-.204a2.95 2.95 0 1 0-1.15 5.788 2.95 2.95 0 0 0 1.15-5.788m-.35 1.765a1.15 1.15 0 1 0-.45 2.256 1.15 1.15 0 0 0 .45-2.256m-.703-.027a1.25 1.25 0 1 1 .956 2.31 1.25 1.25 0 0 1-.956-2.31" clip-rule="evenodd"/><path fill="#04071E" fill-rule="evenodd" d="M3.45 7.2A3.75 3.75 0 0 1 7.2 3.45h9.6a3.75 3.75 0 0 1 3.75 3.75v5.99l-.233-.156a5.2 5.2 0 0 0-1.167-.585l-.1-.035V8.55H4.95v8.25a2.25 2.25 0 0 0 2.25 2.25h5.213l.036.1c.146.416.344.807.585 1.167l.156.233H7.2a3.75 3.75 0 0 1-3.75-3.75zm8.752 12.15H7.2a2.55 2.55 0 0 1-2.55-2.55V8.25h14.7v3.953q.472.177.9.434V7.2a3.45 3.45 0 0 0-3.45-3.45H7.2A3.45 3.45 0 0 0 3.75 7.2v9.6a3.45 3.45 0 0 0 3.45 3.45h5.437a5.5 5.5 0 0 1-.435-.9m4.668-7.28a.75.75 0 0 1 1.28.53v.534a4.335 4.335 0 0 1 3.517 3.516h.533a.75.75 0 0 1 0 1.5h-.534a4.33 4.33 0 0 1-3.516 3.517v.533a.75.75 0 0 1-1.5 0v-.533a4.335 4.335 0 0 1-3.517-3.517H12.6a.75.75 0 1 1 0-1.5h.533a4.33 4.33 0 0 1 3.517-3.516V12.6a.75.75 0 0 1 .22-.53m.53.08a.45.45 0 0 0-.45.45v.791l-.128.019a4.03 4.03 0 0 0-3.412 3.412l-.02.128h-.79a.45.45 0 1 0 0 .9h.79l.02.129a4.03 4.03 0 0 0 3.412 3.412l.128.018v.791a.45.45 0 0 0 .9 0v-.79l.128-.02a4.03 4.03 0 0 0 3.412-3.411l.019-.129h.791a.45.45 0 0 0 0-.9h-.791l-.019-.128a4.03 4.03 0 0 0-3.412-3.412l-.128-.019v-.79a.45.45 0 0 0-.45-.45m-1.485 2.473a3.15 3.15 0 1 1 2.97 5.556 3.15 3.15 0 0 1-2.97-5.556m2.04-.018a2.85 2.85 0 1 0-1.11 5.591 2.85 2.85 0 0 0 1.11-5.59m-1.072 1.548a1.35 1.35 0 1 1 1.034 2.494 1.35 1.35 0 0 1-1.034-2.494m.722.217a1.05 1.05 0 1 0-.41 2.062 1.05 1.05 0 0 0 .41-2.062" clip-rule="evenodd"/></svg>