<svg xmlns="http://www.w3.org/2000/svg" width="24" height="24" fill="none"><path fill="#04071E" d="M3.424 2.576a.6.6 0 0 0-.848.848l1.521 1.522A3 3 0 0 0 3.6 6.6v10.8a3 3 0 0 0 3 3h10.8c.612 0 1.18-.183 1.655-.497l1.52 1.521a.6.6 0 0 0 .85-.848zM17.711 18.56q-.15.04-.31.04H6.6a1.2 1.2 0 0 1-1.2-1.2v-9h2.15zM18.6 8.4v7.655l1.77 1.77q.03-.208.03-.425V6.6a3 3 0 0 0-3-3H6.6q-.218 0-.425.03l4.77 4.77z"/><path fill="#04071E" fill-rule="evenodd" d="M2.54 2.54a.65.65 0 0 1 .92 0l18 18a.65.65 0 1 1-.92.92l-1.492-1.493a3.04 3.04 0 0 1-1.648.483H6.6a3.05 3.05 0 0 1-3.05-3.05V6.6c0-.607.177-1.172.483-1.648L2.54 3.46a.65.65 0 0 1 0-.92m.849.071a.55.55 0 1 0-.778.778l1.55 1.55-.022.034A2.94 2.94 0 0 0 3.65 6.6v10.8a2.95 2.95 0 0 0 2.95 2.95h10.8c.601 0 1.16-.18 1.627-.489l.034-.022 1.55 1.55a.55.55 0 1 0 .778-.778zm2.78.97q.211-.03.431-.03h10.8a3.05 3.05 0 0 1 3.05 3.05v10.8q0 .22-.03.43l-.014.1-1.856-1.856V8.45h-7.625L6.069 3.594zm.114.086 4.683 4.683h7.684v7.684l1.683 1.683q.017-.156.017-.317V6.6a2.95 2.95 0 0 0-2.95-2.95H6.6q-.16 0-.317.017M5.35 8.35h2.222l10.236 10.235-.084.023a1.3 1.3 0 0 1-.324.042H6.6c-.69 0-1.25-.56-1.25-1.25zm.1.1v8.95c0 .635.515 1.15 1.15 1.15h10.8q.108 0 .212-.02L7.53 8.45z" clip-rule="evenodd"/></svg>