<svg xmlns="http://www.w3.org/2000/svg" width="24" height="24" fill="none"><path fill="#04071E" d="M6.597 3.601a3 3 0 0 0-3 3v10.8a3 3 0 0 0 3 3h10.8a3 3 0 0 0 3-3v-7.8h.003V7.8h-.003V6.6a3 3 0 0 0-3-3zm12.003 3.6v.6h-1.55l1.375-1.375c.112.234.175.497.175.774m-1.023-1.625L15.354 7.8H11.96l2.4-2.4h2.44c.278 0 .542.063.777.176M12.662 5.4l-2.4 2.4H6.868l2.4-2.4zm-5.09 0L5.4 7.572V7.2a1.8 1.8 0 0 1 1.8-1.8zm.89 4.2L5.4 12.663V9.6zM5.4 14.36l4.76-4.76h3.394l-7.978 7.978A1.8 1.8 0 0 1 5.4 16.8zm9.85-4.76h3.35v.045L9.645 18.6H7.2c-.277 0-.54-.063-.775-.175zm3.35 1.742v3.394L14.736 18.6h-3.394zm0 5.091v.367a1.8 1.8 0 0 1-1.8 1.8h-.367z"/><path fill="#04071E" fill-rule="evenodd" d="M3.547 6.601a3.05 3.05 0 0 1 3.05-3.05h10.8a3.05 3.05 0 0 1 3.05 3.05v1.15h.003v1.9h-.003v7.75a3.05 3.05 0 0 1-3.05 3.05h-10.8a3.05 3.05 0 0 1-3.05-3.05zm16.803 2.95v-1.7h-.003V6.6a2.95 2.95 0 0 0-2.95-2.95h-10.8a2.95 2.95 0 0 0-2.95 2.95v10.8a2.95 2.95 0 0 0 2.95 2.95h10.8a2.95 2.95 0 0 0 2.95-2.95v-7.85zM7.2 5.45A1.75 1.75 0 0 0 5.45 7.2v.25l2-2zM5.35 7.2A1.85 1.85 0 0 1 7.2 5.35h.492L5.35 7.691zm3.898-1.85h3.535l-2.5 2.5H6.748zm.041.1-2.3 2.3h3.253l2.3-2.3zm5.05-.1h2.46c.287 0 .558.064.8.18l.064.03-2.289 2.29H11.84zm.041.1-2.3 2.3h3.253l2.158-2.16a1.7 1.7 0 0 0-.691-.14zm4.06.89.03.063c.115.241.18.511.18.796v.65h-1.72zM17.17 7.75h1.379V7.2c0-.245-.05-.478-.14-.689zM5.35 9.55h3.233L5.35 12.782zm.1.1v2.891L8.342 9.65zm4.689-.1h3.535l-8.113 8.112-.03-.064a1.84 1.84 0 0 1-.181-.799v-2.46zm.041.1-4.73 4.73v2.42c0 .245.05.478.142.69l7.84-7.84zm5.05-.1h3.42v.115L9.665 18.65H7.2c-.285 0-.555-.064-.796-.18l-.064-.03zm.041.1-8.76 8.759c.212.09.444.14.689.14h2.424l8.9-8.9zm3.379 1.57v3.536l-3.893 3.893H11.22zm-7.187 7.33h3.252l3.835-3.835v-3.253zm7.187-2.238v.487a1.85 1.85 0 0 1-1.85 1.85h-.488zm-2.096 2.237h.246a1.75 1.75 0 0 0 1.75-1.75v-.246z" clip-rule="evenodd"/></svg>