<svg xmlns="http://www.w3.org/2000/svg" width="24" height="24" fill="none"><path fill="#04071E" d="M3.6 7.2a3.6 3.6 0 0 1 3.6-3.6h9.6a3.6 3.6 0 0 1 3.6 3.6v4.32a6.6 6.6 0 0 0-1.2-.471V8.4H4.8v8.4a2.4 2.4 0 0 0 2.4 2.4h3.849q.178.63.47 1.2H7.2a3.6 3.6 0 0 1-3.6-3.6zM13.604 12a6.56 6.56 0 0 1 3.298-1.181.7.7 0 0 0-.162-.019h-5.28a.67.67 0 0 0-.607.367.55.55 0 0 0 .143.65v.006c.126.116.292.18.464.177zm-6.91-1.068a1.2 1.2 0 0 0-.094.468q.006.248.094.48c.055.142.142.27.253.373q.17.16.384.253c.148.064.308.096.47.094a1 1 0 0 0 .468-.094q.216-.096.384-.262A1.166 1.166 0 0 0 9 11.4c0-.16-.031-.32-.093-.468a1.1 1.1 0 0 0-.263-.385 1.4 1.4 0 0 0-.384-.253 1.15 1.15 0 0 0-.46-.094 1 1 0 0 0-.47.097 1.218 1.218 0 0 0-.637.635M6.6 16.2c-.001-.16.03-.32.094-.468a1.22 1.22 0 0 1 .637-.637c.147-.069.307-.101.47-.095.157-.001.314.031.459.095q.213.091.384.252c.114.108.203.24.263.385a1.207 1.207 0 0 1-.638 1.574 1 1 0 0 1-.469.094 1.2 1.2 0 0 1-.47-.094 1.3 1.3 0 0 1-.383-.253 1 1 0 0 1-.253-.374A1.4 1.4 0 0 1 6.6 16.2m13.8 5.69a5.4 5.4 0 1 1-6-8.98 5.4 5.4 0 0 1 6 8.98m-2.576-7.314A.6.6 0 0 0 16.8 15v1.8H15a.6.6 0 0 0 0 1.2h1.8v1.8a.6.6 0 0 0 1.2 0V18h1.8a.6.6 0 0 0 0-1.2H18V15a.6.6 0 0 0-.176-.424"/></svg>