<svg xmlns="http://www.w3.org/2000/svg" width="24" height="24" fill="none"><path fill="#04071E" d="M3.6 6.6a3 3 0 0 1 3-3h10.8a3 3 0 0 1 3 3v.6H3.604v1.2H18a4.2 4.2 0 0 0-2.94 7.2c-.979 0-1.753.494-2.236 1.037-.476.536-.824 1.285-.824 2.107v.384c0 .446.067.872.193 1.272H6.6a3 3 0 0 1-3-3zm14.4 9a3 3 0 1 1 2.4-4.8H18V12h2.94a3 3 0 0 1 0 1.2H18v1.2h2.4a3 3 0 0 1-2.4 1.2m-2.94 1.2c-.558 0-1.026.282-1.34.635-.31.35-.52.823-.52 1.31v.383c0 1.961 1.96 3.672 4.8 3.672 1.489 0 2.736-.47 3.585-1.2H18v-1.2h4.513c.177-.378.276-.783.286-1.2H18V18h4.64c-.09-.208-.214-.4-.36-.565-.314-.353-.782-.635-1.34-.635z"/></svg>