<svg xmlns="http://www.w3.org/2000/svg" width="24" height="24" fill="none"><path fill="#04071E" d="M2.4 5.4a3 3 0 0 1 3-3H15a3 3 0 0 1 3 3V15a3 3 0 0 1-3 3h-1.903a1.8 1.8 0 0 0 0-1.2H15a1.8 1.8 0 0 0 1.8-1.8V7.2H3.6v6.103a1.8 1.8 0 0 0-.673.424l-.527.527zm14.4 16.2H9c.46 0 .921-.176 1.273-.527l.672-.673H16.8a3.6 3.6 0 0 0 3.6-3.6V9a1.8 1.8 0 0 0-1.2-1.698V6.06A3 3 0 0 1 21.6 9v7.8a4.8 4.8 0 0 1-4.8 4.8m-4.976-3.776-2.4 2.4a.6.6 0 0 1-.848-.848L9.95 18H3.248l1.376 1.376a.6.6 0 0 1-.848.848l-2.4-2.4a.6.6 0 0 1 0-.848l2.4-2.4a.6.6 0 0 1 .848.848L3.248 16.8h6.703l-1.375-1.376a.6.6 0 0 1 .848-.848l2.4 2.4a.6.6 0 0 1 0 .848M3.891 16.8h1.59"/><path fill="#04071E" fill-rule="evenodd" d="M5.4 2.55A2.85 2.85 0 0 0 2.55 5.4v8.492l.271-.27c.186-.187.4-.327.629-.422v-6a.15.15 0 0 1 .15-.15h13.2a.15.15 0 0 1 .15.15V15A1.95 1.95 0 0 1 15 16.95h-1.703c.07.296.07.604 0 .9H15A2.85 2.85 0 0 0 17.85 15V5.4A2.85 2.85 0 0 0 15 2.55zM2.25 5.4A3.15 3.15 0 0 1 5.4 2.25H15a3.15 3.15 0 0 1 3.15 3.15V15A3.15 3.15 0 0 1 15 18.15h-1.903a.15.15 0 0 1-.141-.2 1.66 1.66 0 0 0 0-1.1.15.15 0 0 1 .141-.2H15A1.65 1.65 0 0 0 16.65 15V7.35H3.75v5.953a.15.15 0 0 1-.1.141c-.225.08-.437.209-.617.39l-.527.527a.15.15 0 0 1-.256-.107zm16.855.544a.15.15 0 0 1 .124-.031A3.15 3.15 0 0 1 21.75 9v7.8a4.95 4.95 0 0 1-4.95 4.95H9a.15.15 0 1 1 0-.3c.423 0 .845-.161 1.167-.483l.673-.673a.15.15 0 0 1 .106-.044H16.8a3.45 3.45 0 0 0 3.45-3.45V9a1.65 1.65 0 0 0-1.1-1.556.15.15 0 0 1-.1-.142V6.06a.15.15 0 0 1 .055-.116M10.04 21.45h6.76a4.65 4.65 0 0 0 4.65-4.65V9c0-1.314-.89-2.421-2.1-2.75v.95c.704.293 1.2.989 1.2 1.8v7.8a3.75 3.75 0 0 1-3.75 3.75h-5.792l-.63.629a2 2 0 0 1-.338.271m-5.522-6.768a.45.45 0 0 0-.636 0l-2.4 2.4a.45.45 0 0 0 0 .636l2.4 2.4a.45.45 0 0 0 .636-.636l-1.376-1.376a.15.15 0 0 1 .106-.256h6.703a.15.15 0 0 1 .106.256l-1.375 1.376a.45.45 0 1 0 .636.636l2.4-2.4a.45.45 0 0 0 0-.636l-2.4-2.4a.45.45 0 0 0-.636.636l1.375 1.376a.15.15 0 0 1-.106.256H3.248a.15.15 0 0 1-.106-.256l1.376-1.376a.45.45 0 0 0 0-.636m5.071 1.968-1.12-1.12a.75.75 0 1 1 1.061-1.06l2.4 2.4a.75.75 0 0 1 0 1.06l-2.4 2.4a.75.75 0 0 1-1.06-1.06l1.12-1.12H3.61l1.12 1.12a.75.75 0 1 1-1.06 1.06l-2.4-2.4a.75.75 0 0 1 0-1.06l2.4-2.4a.75.75 0 0 1 1.06 1.06l-1.12 1.12z" clip-rule="evenodd"/></svg>