<svg xmlns="http://www.w3.org/2000/svg" width="24" height="24" fill="none"><path fill="#04071E" d="M3.6 6.6a3 3 0 0 1 3-3h10.8a3 3 0 0 1 3 3v10.8a3 3 0 0 1-3 3H6.6a3 3 0 0 1-3-3zm1.8 1.8v9a1.2 1.2 0 0 0 1.2 1.2h10.8a1.2 1.2 0 0 0 1.2-1.2v-9z"/><path fill="#04071E" fill-rule="evenodd" d="M6.6 3.65A2.95 2.95 0 0 0 3.65 6.6v10.8a2.95 2.95 0 0 0 2.95 2.95h10.8a2.95 2.95 0 0 0 2.95-2.95V6.6a2.95 2.95 0 0 0-2.95-2.95zM3.55 6.6A3.05 3.05 0 0 1 6.6 3.55h10.8a3.05 3.05 0 0 1 3.05 3.05v10.8a3.05 3.05 0 0 1-3.05 3.05H6.6a3.05 3.05 0 0 1-3.05-3.05zm1.8 1.75h13.3v9.05c0 .69-.56 1.25-1.25 1.25H6.6c-.69 0-1.25-.56-1.25-1.25zm.1.1v8.95c0 .635.515 1.15 1.15 1.15h10.8a1.15 1.15 0 0 0 1.15-1.15V8.45z" clip-rule="evenodd"/></svg>