<svg xmlns="http://www.w3.org/2000/svg" width="24" height="24" fill="none"><path fill="#04071E" d="M6.694 10.932a1.2 1.2 0 0 0-.094.468q.006.247.094.48c.055.142.141.27.253.373q.17.16.384.253c.148.063.308.095.47.094a1 1 0 0 0 .468-.094q.216-.097.384-.263A1.166 1.166 0 0 0 9 11.4c0-.16-.031-.32-.094-.467a1.1 1.1 0 0 0-.262-.386 1.4 1.4 0 0 0-.384-.253 1.15 1.15 0 0 0-.46-.093 1 1 0 0 0-.47.097 1.218 1.218 0 0 0-.637.635m0 4.8a1.2 1.2 0 0 0-.094.468q.006.246.094.479c.055.142.141.27.253.374q.17.16.384.253c.148.063.308.095.47.094a1 1 0 0 0 .468-.094 1.219 1.219 0 0 0 .637-.637 1.207 1.207 0 0 0 0-.937 1.1 1.1 0 0 0-.262-.386 1.3 1.3 0 0 0-.384-.252A1.1 1.1 0 0 0 7.8 15a1 1 0 0 0-.47.095 1.219 1.219 0 0 0-.637.637M11.459 12a.67.67 0 0 1-.464-.178v-.004a.555.555 0 0 1 0-.84.67.67 0 0 1 .464-.178h5.28a.67.67 0 0 1 .465.182.554.554 0 0 1 0 .84.67.67 0 0 1-.465.178zm-.464 4.622c.126.117.293.18.464.178h5.28a.67.67 0 0 0 .607-.367.555.555 0 0 0-.142-.65.67.67 0 0 0-.465-.183h-5.28a.67.67 0 0 0-.606.367.554.554 0 0 0 .142.65zM7.2 3.6a3.6 3.6 0 0 0-3.6 3.6v9.6a3.6 3.6 0 0 0 3.6 3.6h9.6a3.6 3.6 0 0 0 3.6-3.6V7.2a3.6 3.6 0 0 0-3.6-3.6zM4.8 16.8V8.4h14.4v8.4a2.4 2.4 0 0 1-2.4 2.4H7.2a2.4 2.4 0 0 1-2.4-2.4"/><path fill="#04071E" fill-rule="evenodd" d="M3.55 7.2A3.65 3.65 0 0 1 7.2 3.55h9.6a3.65 3.65 0 0 1 3.65 3.65v9.6a3.65 3.65 0 0 1-3.65 3.65H7.2a3.65 3.65 0 0 1-3.65-3.65zM7.2 3.65A3.55 3.55 0 0 0 3.65 7.2v9.6a3.55 3.55 0 0 0 3.55 3.55h9.6a3.55 3.55 0 0 0 3.55-3.55V7.2a3.55 3.55 0 0 0-3.55-3.55zm-2.45 4.7h14.5v8.45a2.45 2.45 0 0 1-2.45 2.45H7.2a2.45 2.45 0 0 1-2.45-2.45zm.1.1v8.35a2.35 2.35 0 0 0 2.35 2.35h9.6a2.35 2.35 0 0 0 2.35-2.35V8.45zm2.95 1.7c.165-.001.328.032.48.097q.22.098.398.263.18.172.275.403a1.26 1.26 0 0 1-.264 1.366q-.175.172-.399.273a1.05 1.05 0 0 1-.49.098 1.2 1.2 0 0 1-.489-.098 1.4 1.4 0 0 1-.398-.263 1.1 1.1 0 0 1-.266-.391 1.5 1.5 0 0 1-.097-.497 1.22 1.22 0 0 1 .361-.877q.175-.17.399-.272c.153-.072.321-.107.49-.102m-.001.1a1 1 0 0 0-.447.092 1.168 1.168 0 0 0-.613.61c-.06.14-.09.293-.089.447.004.158.034.315.09.463a1 1 0 0 0 .241.354q.163.154.37.244c.141.06.294.091.449.09h.002a.95.95 0 0 0 .446-.09q.207-.092.37-.252a1.116 1.116 0 0 0 .332-.808c0-.154-.03-.307-.09-.449a1.1 1.1 0 0 0-.25-.368 1.3 1.3 0 0 0-.37-.244 1.1 1.1 0 0 0-.44-.09zm3.66.6a.62.62 0 0 0-.43.164l-.001.001a.504.504 0 0 0 0 .765l.017.015v.005a.62.62 0 0 0 .414.15h5.28a.62.62 0 0 0 .43-.164l.002-.002a.507.507 0 0 0 0-.764l-.002-.001a.62.62 0 0 0-.43-.17zm0-.1a.72.72 0 0 0-.652.396.6.6 0 0 0 .138.694v.004l.016.015a.72.72 0 0 0 .499.19h5.279a.72.72 0 0 0 .652-.395.604.604 0 0 0-.154-.709.72.72 0 0 0-.498-.195m-8.938 4.2c.165-.001.328.033.479.099q.222.096.398.261.18.172.275.403a1.26 1.26 0 0 1-.264 1.367 1.4 1.4 0 0 1-.399.272 1.05 1.05 0 0 1-.49.098 1.2 1.2 0 0 1-.489-.098 1.4 1.4 0 0 1-.398-.263 1.1 1.1 0 0 1-.266-.392 1.5 1.5 0 0 1-.097-.496 1.22 1.22 0 0 1 .361-.88q.175-.171.4-.272c.152-.072.32-.106.49-.1m-.003.1a.96.96 0 0 0-.446.09 1.168 1.168 0 0 0-.612.612c-.06.14-.091.293-.09.447q.006.239.09.462a1 1 0 0 0 .241.355q.163.155.37.244.215.09.449.09h.002a.95.95 0 0 0 .446-.09c.137-.06.263-.146.37-.25a1.2 1.2 0 0 0 .243-.36q.09-.216.09-.45c0-.154-.031-.307-.09-.449a1.1 1.1 0 0 0-.252-.368 1.3 1.3 0 0 0-.37-.243 1.1 1.1 0 0 0-.439-.09zm3.164.69a.72.72 0 0 1 .498-.19h5.279m.498.195a.605.605 0 0 1 0 .915m-5.777.19h5.279zm-.001-1.2a.62.62 0 0 0-.43.164l-.001.001a.502.502 0 0 0 0 .765l.017.015v.005a.62.62 0 0 0 .414.15h5.28a.63.63 0 0 0 .43-.165h.002a.506.506 0 0 0 0-.765l-.002-.001a.62.62 0 0 0-.43-.17z" clip-rule="evenodd"/></svg>