<svg xmlns="http://www.w3.org/2000/svg" width="24" height="24" fill="none"><path fill="#04071E" d="M7.2 3.6a3.6 3.6 0 0 0-3.6 3.6v9.6a3.6 3.6 0 0 0 3.6 3.6h6.046q-.046-.3-.046-.6 0-.308.06-.6H7.2a2.4 2.4 0 0 1-2.4-2.4V8.4h14.4v2.45c.43.072.835.221 1.2.432V7.2a3.6 3.6 0 0 0-3.6-3.6zm0 7.2h3.6v3.6H7.2zm-.6-1.2a.6.6 0 0 0-.6.6V15a.6.6 0 0 0 .6.6h4.8a.6.6 0 0 0 .6-.6v-4.8a.6.6 0 0 0-.6-.6zM21 14.4a2.4 2.4 0 1 1-4.8 0 2.4 2.4 0 0 1 4.8 0m1.8 5.4c0 1.494-1.2 3-4.2 3s-4.2-1.5-4.2-3a1.8 1.8 0 0 1 1.8-1.8H21a1.8 1.8 0 0 1 1.8 1.8"/><path fill="#04071E" fill-rule="evenodd" d="M3.45 7.2A3.75 3.75 0 0 1 7.2 3.45h9.6a3.75 3.75 0 0 1 3.75 3.75v4.342l-.225-.13a3.4 3.4 0 0 0-1.15-.414l-.125-.021V8.55H4.95v8.25a2.25 2.25 0 0 0 2.25 2.25h6.244l-.037.18a3 3 0 0 0-.057.57q0 .29.044.577l.027.173H7.2a3.75 3.75 0 0 1-3.75-3.75zM7.2 3.75A3.45 3.45 0 0 0 3.75 7.2v9.6a3.45 3.45 0 0 0 3.45 3.45h5.875a4 4 0 0 1-.025-.45q0-.229.032-.45H7.2a2.55 2.55 0 0 1-2.55-2.55V8.25h14.7v2.475q.475.098.9.307V7.2a3.45 3.45 0 0 0-3.45-3.45zM5.85 10.2a.75.75 0 0 1 .75-.75h4.8a.75.75 0 0 1 .75.75V15a.75.75 0 0 1-.75.75H6.6a.75.75 0 0 1-.75-.75zm.75-.45a.45.45 0 0 0-.45.45V15c0 .249.201.45.45.45h4.8a.45.45 0 0 0 .45-.45v-4.8a.45.45 0 0 0-.45-.45zm.45.9h3.9v3.9h-3.9zm.3.3v3.3h3.3v-3.3zm11.25 1.2a2.25 2.25 0 1 0 0 4.5 2.25 2.25 0 0 0 0-4.5m-2.55 2.25a2.55 2.55 0 1 1 5.1 0 2.55 2.55 0 0 1-5.1 0m.15 3.75a1.65 1.65 0 0 0-1.65 1.65c0 .708.282 1.415.921 1.947.64.534 1.653.903 3.129.903s2.488-.37 3.129-.905a2.49 2.49 0 0 0 .921-1.945A1.65 1.65 0 0 0 21 18.15zm-1.95 1.65a1.95 1.95 0 0 1 1.95-1.95H21a1.95 1.95 0 0 1 1.95 1.95 2.79 2.79 0 0 1-1.029 2.176c-.71.592-1.797.974-3.321.974s-2.612-.38-3.321-.972A2.79 2.79 0 0 1 14.25 19.8" clip-rule="evenodd"/></svg>