<svg xmlns="http://www.w3.org/2000/svg" width="24" height="24" fill="none"><path fill="#04071E" d="m3.424 2.576 18 18a.6.6 0 0 1-.848.848l-1.522-1.521a3 3 0 0 1-1.654.497H6.6a3 3 0 0 1-3-3V6.6c0-.612.183-1.18.497-1.655l-1.521-1.52a.6.6 0 1 1 .848-.85m14.224 15.92L13.2 14.049V15a.6.6 0 0 1-.6.6H7.8a.6.6 0 0 1-.6-.6v-4.8a.6.6 0 0 1 .6-.6h.951l-1.2-1.2H5.4v8.7a1.5 1.5 0 0 0 1.5 1.5h10.2q.291-.002.548-.103M9.951 10.8H8.4v3.6H12v-1.552zm8.649 5.254V8.4h-7.655l-4.77-4.77q.208-.03.425-.03h10.8a3 3 0 0 1 3 3v10.8q0 .216-.03.425z"/></svg>