<svg xmlns="http://www.w3.org/2000/svg" width="24" height="24" fill="none"><path fill="#04071E" d="M9.807 4.507a2.58 2.58 0 0 0-1.639-.205l-1.182.225a2.85 2.85 0 0 0-2.004 1.5c-1.367 2.673-2.4 4.862-2.8 6.73-.41 1.925-.16 3.574 1.08 5.076.821.995 2.23.794 2.963-.036.56-.633 1.195-1.365 1.818-2.087a2.15 2.15 0 0 1 1.63-.748h1.51a6.503 6.503 0 0 1 10.226-3.656c-.523-1.532-1.362-3.268-2.39-5.279a2.85 2.85 0 0 0-2.004-1.5l-1.183-.225a2.58 2.58 0 0 0-1.639.205q-.215.109-.439.23a2.34 2.34 0 0 1-1.113.296h-1.282c-.376 0-.757-.104-1.113-.296a15 15 0 0 0-.44-.23M12 10a1 1 0 1 1 0-2 1 1 0 0 1 0 2m11 6.5a5.5 5.5 0 1 1-11 0 5.5 5.5 0 0 1 11 0M17.5 13a.5.5 0 0 0-.5.5v4a.5.5 0 1 0 1 0v-4a.5.5 0 0 0-.5-.5m0 7.125a.625.625 0 1 0 0-1.25.625.625 0 0 0 0 1.25"/></svg>