<svg xmlns="http://www.w3.org/2000/svg" width="24" height="24" fill="none"><path fill="#04071E" d="m10.429 19.924 3.562-1.512a1.999 1.999 0 0 1-3.562 1.512m5.432-17.83c2.086 1.14 3.652 2.602 4.682 4.387s1.515 3.872 1.459 6.248a.75.75 0 0 1-1.5-.036c.05-2.111-.372-3.927-1.258-5.462-.886-1.536-2.249-2.809-4.102-3.821a.75.75 0 1 1 .72-1.316m-9.15 4.421a5.824 5.824 0 0 1 7.6 2.746l.098.209 1.288 2.892 1.698 1.47c.093.08.173.173.266.324l.059.115a1.25 1.25 0 0 1-.637 1.649L6.756 20.49A1.25 1.25 0 0 1 5 19.347l-.001-2.343-1.242-2.791A5.82 5.82 0 0 1 6.71 6.515m-1.584 7.088 1.372 3.082v2.278l9.616-4.255-1.653-1.43-1.417-3.184-.085-.181a4.32 4.32 0 0 0-5.638-2.028 4.32 4.32 0 0 0-2.195 5.718m10.497-7.909c.967.527 1.742 1.295 2.316 2.29.574.994.851 2.049.824 3.15a.75.75 0 1 1-1.5-.037c.02-.821-.185-1.604-.623-2.364s-1.014-1.328-1.735-1.722a.75.75 0 0 1 .718-1.317"/></svg>