<svg xmlns="http://www.w3.org/2000/svg" width="24" height="24" fill="none"><path fill="#04071E" d="M19.8 21.6a.6.6 0 0 1-.6-.6V3a.6.6 0 1 1 1.2 0v18a.6.6 0 0 1-.6.6M12 4.8a2.4 2.4 0 0 0-2.4 2.4v9.6a2.4 2.4 0 0 0 2.4 2.4h2.4a2.4 2.4 0 0 0 2.4-2.4V7.2a2.4 2.4 0 0 0-2.4-2.4zm-1.2 2.4A1.2 1.2 0 0 1 12 6h2.4a1.2 1.2 0 0 1 1.2 1.2v9.6a1.2 1.2 0 0 1-1.2 1.2H12a1.2 1.2 0 0 1-1.2-1.2z"/><path fill="#04071E" fill-rule="evenodd" d="M19.05 3a.75.75 0 1 1 1.5 0v18a.75.75 0 0 1-1.5 0zm.75-.45a.45.45 0 0 0-.45.45v18a.45.45 0 1 0 .9 0V3a.45.45 0 0 0-.45-.45M12 4.95A2.25 2.25 0 0 0 9.75 7.2v9.6A2.25 2.25 0 0 0 12 19.05h2.4a2.25 2.25 0 0 0 2.25-2.25V7.2a2.25 2.25 0 0 0-2.25-2.25zM9.45 7.2A2.55 2.55 0 0 1 12 4.65h2.4a2.55 2.55 0 0 1 2.55 2.55v9.6a2.55 2.55 0 0 1-2.55 2.55H12a2.55 2.55 0 0 1-2.55-2.55zm1.2 0c0-.746.604-1.35 1.35-1.35h2.4c.745 0 1.35.604 1.35 1.35v9.6a1.35 1.35 0 0 1-1.35 1.35H12a1.35 1.35 0 0 1-1.35-1.35zM12 6.15c-.58 0-1.05.47-1.05 1.05v9.6c0 .58.47 1.05 1.05 1.05h2.4c.58 0 1.05-.47 1.05-1.05V7.2c0-.58-.47-1.05-1.05-1.05z" clip-rule="evenodd"/></svg>