<svg xmlns="http://www.w3.org/2000/svg" width="24" height="24" fill="none"><path fill="#04071E" d="M3.6 4.8a2.4 2.4 0 0 0-2.4 2.4v9.6a2.4 2.4 0 0 0 2.4 2.4h1.2a2.4 2.4 0 0 0 2.4-2.4V7.2a2.4 2.4 0 0 0-2.4-2.4zM2.4 7.2A1.2 1.2 0 0 1 3.6 6h1.2A1.2 1.2 0 0 1 6 7.2v9.6A1.2 1.2 0 0 1 4.8 18H3.6a1.2 1.2 0 0 1-1.2-1.2zm16.8-2.4a2.4 2.4 0 0 0-2.4 2.4v9.6a2.4 2.4 0 0 0 2.4 2.4h1.2a2.4 2.4 0 0 0 2.4-2.4V7.2a2.4 2.4 0 0 0-2.4-2.4zM18 7.2A1.2 1.2 0 0 1 19.2 6h1.2a1.2 1.2 0 0 1 1.2 1.2v9.6a1.2 1.2 0 0 1-1.2 1.2h-1.2a1.2 1.2 0 0 1-1.2-1.2z"/></svg>