<svg xmlns="http://www.w3.org/2000/svg" width="24" height="24" fill="none"><path fill="#04071E" d="M21.75 22.5a.75.75 0 0 0 0-1.5H2.25a.75.75 0 1 0 0 1.5zm0-10.5a.75.75 0 0 0 0-1.5H2.25a.75.75 0 1 0 0 1.5zM4.5 5.25A2.25 2.25 0 0 1 6.75 3h10.5a2.25 2.25 0 0 1 2.25 2.25v1.5A2.25 2.25 0 0 1 17.25 9H6.75A2.25 2.25 0 0 1 4.5 6.75zm2.25-.75a.75.75 0 0 0-.75.75v1.5c0 .414.336.75.75.75h10.5a.75.75 0 0 0 .75-.75v-1.5a.75.75 0 0 0-.75-.75zm3 9a2.25 2.25 0 0 0-2.25 2.25v1.5a2.25 2.25 0 0 0 2.25 2.25h4.5a2.25 2.25 0 0 0 2.25-2.25v-1.5a2.25 2.25 0 0 0-2.25-2.25zM9 15.75a.75.75 0 0 1 .75-.75h4.5a.75.75 0 0 1 .75.75v1.5a.75.75 0 0 1-.75.75h-4.5a.75.75 0 0 1-.75-.75z"/></svg>