<svg xmlns="http://www.w3.org/2000/svg" width="24" height="24" fill="none"><path fill="#04071E" d="M7.2 9.6A2.4 2.4 0 0 0 4.8 12v2.4a2.4 2.4 0 0 0 2.4 2.4h9.6a2.4 2.4 0 0 0 2.4-2.4V12a2.4 2.4 0 0 0-2.4-2.4zM6 12a1.2 1.2 0 0 1 1.2-1.2h9.6A1.2 1.2 0 0 1 18 12v2.4a1.2 1.2 0 0 1-1.2 1.2H7.2A1.2 1.2 0 0 1 6 14.4zM2.4 19.8a.6.6 0 0 1 .6-.6h18a.6.6 0 1 1 0 1.2H3a.6.6 0 0 1-.6-.6"/><path fill="#04071E" fill-rule="evenodd" d="M7.2 9.75A2.25 2.25 0 0 0 4.95 12v2.4a2.25 2.25 0 0 0 2.25 2.25h9.6a2.25 2.25 0 0 0 2.25-2.25V12a2.25 2.25 0 0 0-2.25-2.25zM4.65 12A2.55 2.55 0 0 1 7.2 9.45h9.6A2.55 2.55 0 0 1 19.35 12v2.4a2.55 2.55 0 0 1-2.55 2.55H7.2a2.55 2.55 0 0 1-2.55-2.55zm1.2 0c0-.746.604-1.35 1.35-1.35h9.6c.746 0 1.35.604 1.35 1.35v2.4a1.35 1.35 0 0 1-1.35 1.35H7.2a1.35 1.35 0 0 1-1.35-1.35zm1.35-1.05c-.58 0-1.05.47-1.05 1.05v2.4c0 .58.47 1.05 1.05 1.05h9.6c.58 0 1.05-.47 1.05-1.05V12c0-.58-.47-1.05-1.05-1.05zM2.25 19.8a.75.75 0 0 1 .75-.75h18a.75.75 0 0 1 0 1.5H3a.75.75 0 0 1-.75-.75m.75-.45a.45.45 0 0 0 0 .9h18a.45.45 0 0 0 0-.9z" clip-rule="evenodd"/></svg>