<svg xmlns="http://www.w3.org/2000/svg" width="24" height="24" fill="none"><path fill="#04071E" d="M7.2 4.8h1.2a2.4 2.4 0 0 1 2.4 2.4v9.6a2.4 2.4 0 0 1-2.4 2.4H7.2a2.4 2.4 0 0 1-2.4-2.4V7.2a2.4 2.4 0 0 1 2.4-2.4M6 7.2v9.6A1.2 1.2 0 0 0 7.2 18h1.2a1.2 1.2 0 0 0 1.2-1.2V7.2A1.2 1.2 0 0 0 8.4 6H7.2A1.2 1.2 0 0 0 6 7.2m9.6-2.4a2.4 2.4 0 0 0-2.4 2.4v9.6a2.4 2.4 0 0 0 2.4 2.4h1.2a2.4 2.4 0 0 0 2.4-2.4V7.2a2.4 2.4 0 0 0-2.4-2.4zm-1.2 2.4A1.2 1.2 0 0 1 15.6 6h1.2A1.2 1.2 0 0 1 18 7.2v9.6a1.2 1.2 0 0 1-1.2 1.2h-1.2a1.2 1.2 0 0 1-1.2-1.2z"/></svg>