<svg xmlns="http://www.w3.org/2000/svg" width="24" height="24" fill="none"><path fill="#04071E" d="M4.2 21.6a.6.6 0 0 1-.6-.6V3a.6.6 0 0 1 1.2 0v18a.6.6 0 0 1-.6.6M9.6 4.8a2.4 2.4 0 0 0-2.4 2.4v9.6a2.4 2.4 0 0 0 2.4 2.4H12a2.4 2.4 0 0 0 2.4-2.4V7.2A2.4 2.4 0 0 0 12 4.8zM8.4 7.2A1.2 1.2 0 0 1 9.6 6H12a1.2 1.2 0 0 1 1.2 1.2v9.6A1.2 1.2 0 0 1 12 18H9.6a1.2 1.2 0 0 1-1.2-1.2z"/><path fill="#04071E" fill-rule="evenodd" d="M3.45 3a.75.75 0 0 1 1.5 0v18a.75.75 0 0 1-1.5 0zm.75-.45a.45.45 0 0 0-.45.45v18a.45.45 0 0 0 .9 0V3a.45.45 0 0 0-.45-.45m5.4 2.4A2.25 2.25 0 0 0 7.35 7.2v9.6a2.25 2.25 0 0 0 2.25 2.25H12a2.25 2.25 0 0 0 2.25-2.25V7.2A2.25 2.25 0 0 0 12 4.95zM7.05 7.2A2.55 2.55 0 0 1 9.6 4.65H12a2.55 2.55 0 0 1 2.55 2.55v9.6A2.55 2.55 0 0 1 12 19.35H9.6a2.55 2.55 0 0 1-2.55-2.55zm1.2 0c0-.746.604-1.35 1.35-1.35H12c.745 0 1.35.604 1.35 1.35v9.6A1.35 1.35 0 0 1 12 18.15H9.6a1.35 1.35 0 0 1-1.35-1.35zM9.6 6.15c-.58 0-1.05.47-1.05 1.05v9.6c0 .58.47 1.05 1.05 1.05H12c.58 0 1.05-.47 1.05-1.05V7.2c0-.58-.47-1.05-1.05-1.05z" clip-rule="evenodd"/></svg>