<svg xmlns="http://www.w3.org/2000/svg" width="24" height="24" fill="none"><path fill="#04071E" d="M7.2 4.8a2.4 2.4 0 0 0-2.4 2.4v1.2a2.4 2.4 0 0 0 2.4 2.4h9.6a2.4 2.4 0 0 0 2.4-2.4V7.2a2.4 2.4 0 0 0-2.4-2.4zM6 7.2A1.2 1.2 0 0 1 7.2 6h9.6A1.2 1.2 0 0 1 18 7.2v1.2a1.2 1.2 0 0 1-1.2 1.2H7.2A1.2 1.2 0 0 1 6 8.4zm1.2 6a2.4 2.4 0 0 0-2.4 2.4v1.2a2.4 2.4 0 0 0 2.4 2.4h9.6a2.4 2.4 0 0 0 2.4-2.4v-1.2a2.4 2.4 0 0 0-2.4-2.4zM6 15.6a1.2 1.2 0 0 1 1.2-1.2h9.6a1.2 1.2 0 0 1 1.2 1.2v1.2a1.2 1.2 0 0 1-1.2 1.2H7.2A1.2 1.2 0 0 1 6 16.8z"/></svg>