<svg xmlns="http://www.w3.org/2000/svg" width="24" height="24" fill="none"><path fill="#04071E" d="M2.25 19.5a.75.75 0 0 0 0 1.5h19.5a.75.75 0 0 0 0-1.5zm0-16.5a.75.75 0 0 0 0 1.5h19.5a.75.75 0 0 0 0-1.5zm4.5 15a2.25 2.25 0 0 1-2.25-2.25v-7.5A2.25 2.25 0 0 1 6.75 6h1.5a2.25 2.25 0 0 1 2.25 2.25v7.5A2.25 2.25 0 0 1 8.25 18zM6 15.75c0 .414.336.75.75.75h1.5a.75.75 0 0 0 .75-.75v-7.5a.75.75 0 0 0-.75-.75h-1.5a.75.75 0 0 0-.75.75zm7.5 0A2.25 2.25 0 0 0 15.75 18h1.5a2.25 2.25 0 0 0 2.25-2.25v-7.5A2.25 2.25 0 0 0 17.25 6h-1.5a2.25 2.25 0 0 0-2.25 2.25zm2.25.75a.75.75 0 0 1-.75-.75v-7.5a.75.75 0 0 1 .75-.75h1.5a.75.75 0 0 1 .75.75v7.5a.75.75 0 0 1-.75.75z"/></svg>