<svg xmlns="http://www.w3.org/2000/svg" width="24" height="24" fill="none"><path fill="#04071E" d="M7.2 1.2a2.4 2.4 0 0 0-2.4 2.4v1.2a2.4 2.4 0 0 0 2.4 2.4h9.6a2.4 2.4 0 0 0 2.4-2.4V3.6a2.4 2.4 0 0 0-2.4-2.4zM6 3.6a1.2 1.2 0 0 1 1.2-1.2h9.6A1.2 1.2 0 0 1 18 3.6v1.2A1.2 1.2 0 0 1 16.8 6H7.2A1.2 1.2 0 0 1 6 4.8zm1.2 13.2a2.4 2.4 0 0 0-2.4 2.4v1.2a2.4 2.4 0 0 0 2.4 2.4h9.6a2.4 2.4 0 0 0 2.4-2.4v-1.2a2.4 2.4 0 0 0-2.4-2.4zM6 19.2A1.2 1.2 0 0 1 7.2 18h9.6a1.2 1.2 0 0 1 1.2 1.2v1.2a1.2 1.2 0 0 1-1.2 1.2H7.2A1.2 1.2 0 0 1 6 20.4z"/></svg>