<svg xmlns="http://www.w3.org/2000/svg" width="24" height="24" fill="none"><path fill="#04071E" d="M2.25 1.5a.75.75 0 1 0 0 1.5h19.5a.75.75 0 0 0 0-1.5zm0 10.5a.75.75 0 0 0 0 1.5h19.5a.75.75 0 0 0 0-1.5zm12 9a2.25 2.25 0 0 0 2.25-2.25v-1.5A2.25 2.25 0 0 0 14.25 15h-4.5a2.25 2.25 0 0 0-2.25 2.25v1.5A2.25 2.25 0 0 0 9.75 21zm.75-2.25a.75.75 0 0 1-.75.75h-4.5a.75.75 0 0 1-.75-.75v-1.5a.75.75 0 0 1 .75-.75h4.5a.75.75 0 0 1 .75.75zm2.25-8.25a2.25 2.25 0 0 0 2.25-2.25v-1.5a2.25 2.25 0 0 0-2.25-2.25H6.75A2.25 2.25 0 0 0 4.5 6.75v1.5a2.25 2.25 0 0 0 2.25 2.25zM18 8.25a.75.75 0 0 1-.75.75H6.75A.75.75 0 0 1 6 8.25v-1.5A.75.75 0 0 1 6.75 6h10.5a.75.75 0 0 1 .75.75z"/></svg>