<svg xmlns="http://www.w3.org/2000/svg" width="24" height="24" fill="none"><path fill="#04071E" d="M1.2 16.8a2.4 2.4 0 0 0 2.4 2.4H9a2.4 2.4 0 0 0 2.4-2.4V7.2A2.4 2.4 0 0 0 9 4.8H3.6a2.4 2.4 0 0 0-2.4 2.4zM3.6 18a1.2 1.2 0 0 1-1.2-1.2V7.2A1.2 1.2 0 0 1 3.6 6H9a1.2 1.2 0 0 1 1.2 1.2v9.6A1.2 1.2 0 0 1 9 18zM12.6 16.8a2.4 2.4 0 0 0 2.4 2.4h5.4a2.4 2.4 0 0 0 2.4-2.4V7.2a2.4 2.4 0 0 0-2.4-2.4H15a2.4 2.4 0 0 0-2.4 2.4zM15 18a1.2 1.2 0 0 1-1.2-1.2V7.2A1.2 1.2 0 0 1 15 6h5.4a1.2 1.2 0 0 1 1.2 1.2v9.6a1.2 1.2 0 0 1-1.2 1.2z"/><path fill="#04071E" fill-rule="evenodd" d="M1.35 16.8a2.25 2.25 0 0 0 2.25 2.25H9a2.25 2.25 0 0 0 2.25-2.25V7.2A2.25 2.25 0 0 0 9 4.95H3.6A2.25 2.25 0 0 0 1.35 7.2zm2.25 2.55a2.55 2.55 0 0 1-2.55-2.55V7.2A2.55 2.55 0 0 1 3.6 4.65H9a2.55 2.55 0 0 1 2.55 2.55v9.6A2.55 2.55 0 0 1 9 19.35zm0-1.2a1.35 1.35 0 0 1-1.35-1.35V7.2c0-.746.604-1.35 1.35-1.35H9c.746 0 1.35.604 1.35 1.35v9.6A1.35 1.35 0 0 1 9 18.15zM2.55 16.8c0 .58.47 1.05 1.05 1.05H9c.58 0 1.05-.47 1.05-1.05V7.2c0-.58-.47-1.05-1.05-1.05H3.6c-.58 0-1.05.47-1.05 1.05zm10.2 0A2.25 2.25 0 0 0 15 19.05h5.4a2.25 2.25 0 0 0 2.25-2.25V7.2a2.25 2.25 0 0 0-2.25-2.25H15a2.25 2.25 0 0 0-2.25 2.25zM15 19.35a2.55 2.55 0 0 1-2.55-2.55V7.2A2.55 2.55 0 0 1 15 4.65h5.4a2.55 2.55 0 0 1 2.55 2.55v9.6a2.55 2.55 0 0 1-2.55 2.55zm0-1.2a1.35 1.35 0 0 1-1.35-1.35V7.2c0-.746.604-1.35 1.35-1.35h5.4c.746 0 1.35.604 1.35 1.35v9.6a1.35 1.35 0 0 1-1.35 1.35zm-1.05-1.35c0 .58.47 1.05 1.05 1.05h5.4c.58 0 1.05-.47 1.05-1.05V7.2c0-.58-.47-1.05-1.05-1.05H15c-.58 0-1.05.47-1.05 1.05z" clip-rule="evenodd"/></svg>