<svg xmlns="http://www.w3.org/2000/svg" width="24" height="24" fill="none"><path fill="#04071E" d="M2.4 4.2a.6.6 0 0 1 .6-.6h18a.6.6 0 1 1 0 1.2H3a.6.6 0 0 1-.6-.6M7.2 7.2a2.4 2.4 0 0 0-2.4 2.4V12a2.4 2.4 0 0 0 2.4 2.4h9.6a2.4 2.4 0 0 0 2.4-2.4V9.6a2.4 2.4 0 0 0-2.4-2.4zM6 9.6a1.2 1.2 0 0 1 1.2-1.2h9.6A1.2 1.2 0 0 1 18 9.6V12a1.2 1.2 0 0 1-1.2 1.2H7.2A1.2 1.2 0 0 1 6 12z"/><path fill="#04071E" fill-rule="evenodd" d="M2.25 4.2A.75.75 0 0 1 3 3.45h18a.75.75 0 0 1 0 1.5H3a.75.75 0 0 1-.75-.75M3 3.75a.45.45 0 1 0 0 .9h18a.45.45 0 0 0 0-.9zm4.2 3.6A2.25 2.25 0 0 0 4.95 9.6V12a2.25 2.25 0 0 0 2.25 2.25h9.6A2.25 2.25 0 0 0 19.05 12V9.6a2.25 2.25 0 0 0-2.25-2.25zM4.65 9.6A2.55 2.55 0 0 1 7.2 7.05h9.6a2.55 2.55 0 0 1 2.55 2.55V12a2.55 2.55 0 0 1-2.55 2.55H7.2A2.55 2.55 0 0 1 4.65 12zm1.2 0c0-.746.604-1.35 1.35-1.35h9.6c.746 0 1.35.604 1.35 1.35V12a1.35 1.35 0 0 1-1.35 1.35H7.2A1.35 1.35 0 0 1 5.85 12zM7.2 8.55c-.58 0-1.05.47-1.05 1.05V12c0 .58.47 1.05 1.05 1.05h9.6c.58 0 1.05-.47 1.05-1.05V9.6c0-.58-.47-1.05-1.05-1.05z" clip-rule="evenodd"/></svg>