<svg xmlns="http://www.w3.org/2000/svg" width="24" height="24" fill="none"><path fill="#04071E" d="M7.2 1.2a2.4 2.4 0 0 0-2.4 2.4V9a2.4 2.4 0 0 0 2.4 2.4h9.6A2.4 2.4 0 0 0 19.2 9V3.6a2.4 2.4 0 0 0-2.4-2.4zM6 3.6a1.2 1.2 0 0 1 1.2-1.2h9.6A1.2 1.2 0 0 1 18 3.6V9a1.2 1.2 0 0 1-1.2 1.2H7.2A1.2 1.2 0 0 1 6 9zM7.2 12.6A2.4 2.4 0 0 0 4.8 15v5.4a2.4 2.4 0 0 0 2.4 2.4h9.6a2.4 2.4 0 0 0 2.4-2.4V15a2.4 2.4 0 0 0-2.4-2.4zM6 15a1.2 1.2 0 0 1 1.2-1.2h9.6A1.2 1.2 0 0 1 18 15v5.4a1.2 1.2 0 0 1-1.2 1.2H7.2A1.2 1.2 0 0 1 6 20.4z"/><path fill="#04071E" fill-rule="evenodd" d="M7.2 1.35A2.25 2.25 0 0 0 4.95 3.6V9a2.25 2.25 0 0 0 2.25 2.25h9.6A2.25 2.25 0 0 0 19.05 9V3.6a2.25 2.25 0 0 0-2.25-2.25zM4.65 3.6A2.55 2.55 0 0 1 7.2 1.05h9.6a2.55 2.55 0 0 1 2.55 2.55V9a2.55 2.55 0 0 1-2.55 2.55H7.2A2.55 2.55 0 0 1 4.65 9zm1.2 0c0-.746.604-1.35 1.35-1.35h9.6c.745 0 1.35.604 1.35 1.35V9a1.35 1.35 0 0 1-1.35 1.35H7.2A1.35 1.35 0 0 1 5.85 9zM7.2 2.55c-.58 0-1.05.47-1.05 1.05V9c0 .58.47 1.05 1.05 1.05h9.6c.58 0 1.05-.47 1.05-1.05V3.6c0-.58-.47-1.05-1.05-1.05zm0 10.2A2.25 2.25 0 0 0 4.95 15v5.4a2.25 2.25 0 0 0 2.25 2.25h9.6a2.25 2.25 0 0 0 2.25-2.25V15a2.25 2.25 0 0 0-2.25-2.25zM4.65 15a2.55 2.55 0 0 1 2.55-2.55h9.6A2.55 2.55 0 0 1 19.35 15v5.4a2.55 2.55 0 0 1-2.55 2.55H7.2a2.55 2.55 0 0 1-2.55-2.55zm1.2 0c0-.746.604-1.35 1.35-1.35h9.6c.745 0 1.35.604 1.35 1.35v5.4a1.35 1.35 0 0 1-1.35 1.35H7.2a1.35 1.35 0 0 1-1.35-1.35zm1.35-1.05c-.58 0-1.05.47-1.05 1.05v5.4c0 .58.47 1.05 1.05 1.05h9.6c.58 0 1.05-.47 1.05-1.05V15c0-.58-.47-1.05-1.05-1.05z" clip-rule="evenodd"/></svg>