<svg xmlns="http://www.w3.org/2000/svg" width="24" height="24" fill="none"><path fill="#04071E" d="M1.5 21.75a.75.75 0 0 0 1.5 0V2.25a.75.75 0 1 0-1.5 0zm10.5 0a.75.75 0 0 0 1.5 0V2.25a.75.75 0 0 0-1.5 0zM6.75 19.5a2.25 2.25 0 0 1-2.25-2.25V6.75A2.25 2.25 0 0 1 6.75 4.5h1.5a2.25 2.25 0 0 1 2.25 2.25v10.5a2.25 2.25 0 0 1-2.25 2.25zM6 17.25c0 .414.336.75.75.75h1.5a.75.75 0 0 0 .75-.75V6.75A.75.75 0 0 0 8.25 6h-1.5a.75.75 0 0 0-.75.75zm9-3a2.25 2.25 0 0 0 2.25 2.25h1.5A2.25 2.25 0 0 0 21 14.25v-4.5a2.25 2.25 0 0 0-2.25-2.25h-1.5A2.25 2.25 0 0 0 15 9.75zm2.25.75a.75.75 0 0 1-.75-.75v-4.5a.75.75 0 0 1 .75-.75h1.5a.75.75 0 0 1 .75.75v4.5a.75.75 0 0 1-.75.75z"/></svg>