<svg xmlns="http://www.w3.org/2000/svg" width="24" height="24" fill="none"><path fill="#04071E" d="M20.225 10.624a.6.6 0 0 0 0-.848l-4.8-4.8a.6.6 0 0 0-.85 0l-4.8 4.8a.6.6 0 0 0 .85.848L14.4 6.85V14.4a2.4 2.4 0 0 1-2.4 2.4H4.2a.6.6 0 1 0 0 1.2H12a3.6 3.6 0 0 0 3.6-3.6V6.849l3.776 3.775a.6.6 0 0 0 .848 0"/><path fill="#04071E" fill-rule="evenodd" d="M14.47 4.87a.75.75 0 0 1 1.06 0l4.8 4.8a.75.75 0 1 1-1.06 1.06l-3.52-3.52v7.19A3.75 3.75 0 0 1 12 18.15H4.2a.75.75 0 0 1 0-1.5H12a2.25 2.25 0 0 0 2.25-2.25V7.21l-3.52 3.52a.75.75 0 1 1-1.06-1.06zm.848.212a.45.45 0 0 0-.636 0l-4.8 4.8a.45.45 0 1 0 .636.636l3.776-3.776a.15.15 0 0 1 .256.107V14.4A2.55 2.55 0 0 1 12 16.95H4.2a.45.45 0 0 0 0 .9H12a3.45 3.45 0 0 0 3.45-3.45V6.849a.15.15 0 0 1 .256-.107l3.776 3.776a.45.45 0 0 0 .636-.636z" clip-rule="evenodd"/></svg>