<svg xmlns="http://www.w3.org/2000/svg" width="24" height="24" fill="none"><path fill="#04071E" d="M19.195 17.479a.6.6 0 0 1-.372.48l-6 2.398a.6.6 0 0 1-.446-1.114l4.605-1.841-13.829-5.508c-.994-.396-1.012-1.795-.03-2.217l14.04-6.028a.6.6 0 1 1 .474 1.102L3.597 10.78l13.761 5.48-2.295-4.59a.6.6 0 1 1 1.073-.537l2.99 5.978a.6.6 0 0 1 .069.369"/><path fill="#04071E" fill-rule="evenodd" d="M17.813 4.023a.45.45 0 0 0-.59-.236L3.182 9.815c-.86.369-.844 1.594.026 1.94l13.829 5.507a.15.15 0 0 1 0 .28l-4.605 1.84a.45.45 0 1 0 .334.836l6-2.399a.45.45 0 0 0 .227-.636l-.003-.006-2.989-5.978a.45.45 0 1 0-.805.402l2.296 4.592a.15.15 0 0 1-.19.206L3.542 10.92a.15.15 0 0 1-.004-.277l14.04-6.028a.45.45 0 0 0 .235-.591m-.709-.512a.75.75 0 0 1 .592 1.378L3.989 10.774l13.06 5.201-2.12-4.24a.75.75 0 0 1 1.342-.67l2.987 5.976a.753.753 0 0 1-.38 1.057l-6 2.399a.75.75 0 0 1-.557-1.393l4.257-1.702.349.14.055-.14-.055-.14-.35.14-13.48-5.369c-1.117-.445-1.138-2.02-.033-2.494z" clip-rule="evenodd"/></svg>