<svg xmlns="http://www.w3.org/2000/svg" width="24" height="24" fill="none"><path fill="#04071E" d="M3.424 2.576a.6.6 0 1 0-.848.848l1.413 1.414A.6.6 0 0 0 4.2 6h.952l4.8 4.8H7.2a3.6 3.6 0 0 0 0 7.2h9.951l1.624 1.624.001.001 1.8 1.8a.6.6 0 0 0 .848-.85zM15.951 16.8H7.2a2.4 2.4 0 1 1 0-4.8h3.951zM16.8 10.8h-3.455l1.2 1.2H16.8a3.6 3.6 0 0 0 0-7.2H7.345l1.2 1.2H16.8a2.4 2.4 0 1 1 0 4.8M20.897 18.352 19.345 16.8h.206l-.775-.776a.6.6 0 0 1 .848-.848l1.8 1.8a.6.6 0 0 1 0 .848z"/><path fill="#04071E" fill-rule="evenodd" d="M3.353 2.646a.5.5 0 1 0-.707.708L4.17 4.877l-.146.055A.5.5 0 0 0 4.2 5.9h.993l5 5H7.2a3.5 3.5 0 0 0 0 7h9.993l1.652 1.652.001.002 1.8 1.8a.5.5 0 0 0 .707-.708zm15.351 17.048L17.11 18.1H7.2a3.7 3.7 0 1 1 0-7.4h2.51l-4.6-4.6H4.2a.7.7 0 0 1-.379-1.289L2.505 3.495a.7.7 0 1 1 .99-.99l18 18a.7.7 0 0 1-.99.99l-1.8-1.8zM7.104 4.7H16.8a3.7 3.7 0 1 1 0 7.4h-2.296l-1.4-1.4H16.8a2.3 2.3 0 1 0 0-4.6H8.504zm.483.2 1 1H16.8a2.5 2.5 0 0 1 0 5h-3.213l1 1H16.8a3.5 3.5 0 1 0 0-7zM7.2 12.1a2.3 2.3 0 1 0 0 4.6h8.51l-4.6-4.6zm-2.5 2.3a2.5 2.5 0 0 1 2.5-2.5h3.993l5 5H7.2a2.5 2.5 0 0 1-2.5-2.5m14.005.705a.7.7 0 0 1 .99 0l1.8 1.8a.7.7 0 0 1 0 .99l-.598.598-1.793-1.793h.206l-.605-.605a.7.7 0 0 1 0-.99m.882 1.795 1.31 1.31.456-.456a.5.5 0 0 0 0-.708l-1.8-1.8a.5.5 0 0 0-.707.708l.947.946zm-.891 2.785a.2.2 0 0 1 .006-.069.14.14 0 0 0-.017.051zm.134-.143.008.004-.004-.003zm.022.018.001.002zm-.005.072a.16.16 0 0 1-.127.073.2.2 0 0 0 .06.018.16.16 0 0 0 .067-.09m-.135.07" clip-rule="evenodd"/></svg>