<svg xmlns="http://www.w3.org/2000/svg" width="24" height="24" fill="none"><path fill="#04071E" d="M6 22.25a.75.75 0 0 1-1.5 0v-.5a2.25 2.25 0 0 1 2.25-2.25h10A2.25 2.25 0 0 1 19 21.75v.5a.75.75 0 0 1-1.5 0v-.5a.75.75 0 0 0-.75-.75h-10a.75.75 0 0 0-.75.75zM11.75 18a.75.75 0 0 0 .75-.75V8.56l3.72 3.72a.75.75 0 1 0 1.06-1.06l-5-5a.75.75 0 0 0-1.06 0l-5 5a.75.75 0 1 0 1.06 1.06L11 8.56v8.69c0 .414.336.75.75.75M4.5 2.25A2.25 2.25 0 0 0 6.75 4.5h10A2.25 2.25 0 0 0 19 2.25v-.5a.75.75 0 0 0-1.5 0v.5a.75.75 0 0 1-.75.75h-10A.75.75 0 0 1 6 2.25v-.5a.75.75 0 0 0-1.5 0z"/></svg>