<svg xmlns="http://www.w3.org/2000/svg" width="24" height="24" fill="none"><path fill="#04071E" d="M5.128 6.188A8.96 8.96 0 0 0 3 12c0 2.823 1.3 5.343 3.333 6.992a.75.75 0 1 0 .945-1.165A7.48 7.48 0 0 1 4.5 12c0-1.801.635-3.454 1.693-4.747l10.554 10.554a7.47 7.47 0 0 1-4.43 1.686l.963-.963a.75.75 0 1 0-1.06-1.06l-2.25 2.25a.75.75 0 0 0 0 1.06l2.25 2.25a.75.75 0 1 0 1.06-1.06l-.974-.975a8.96 8.96 0 0 0 5.506-2.123l3.408 3.408a.75.75 0 1 0 1.06-1.06L2.78 1.72a.75.75 0 0 0-1.06 1.06zM18.65 15.47l1.103 1.103A8.96 8.96 0 0 0 21 12c0-2.823-1.3-5.343-3.333-6.992a.75.75 0 1 0-.945 1.165A7.48 7.48 0 0 1 19.5 12a7.5 7.5 0 0 1-.849 3.47M7.428 4.246 8.531 5.35a7.5 7.5 0 0 1 3.152-.842l-.963.963a.75.75 0 0 0 1.06 1.06l2.25-2.25a.75.75 0 0 0 0-1.06L11.78.97a.75.75 0 1 0-1.06 1.06l.974.975a8.95 8.95 0 0 0-4.266 1.241"/></svg>