<svg xmlns="http://www.w3.org/2000/svg" width="24" height="24" fill="none"><path fill="#04071E" d="M3.503 4A.45.45 0 0 1 4 3.503l12.062 1.34a.45.45 0 0 1 .268.766l-1.798 1.797a.75.75 0 0 0 0 1.061l5.834 5.834a.45.45 0 0 1 0 .636l-5.429 5.43a.45.45 0 0 1-.636 0l-5.834-5.834a.75.75 0 0 0-1.06 0L5.608 16.33a.45.45 0 0 1-.766-.268zm.663-1.988a1.95 1.95 0 0 0-2.154 2.154l1.34 12.061c.181 1.625 2.161 2.32 3.317 1.164l1.268-1.267 5.303 5.303a1.95 1.95 0 0 0 2.758 0l5.429-5.429a1.95 1.95 0 0 0 0-2.758l-5.304-5.303 1.268-1.268c1.156-1.156.461-3.136-1.164-3.317z"/></svg>