<svg xmlns="http://www.w3.org/2000/svg" width="24" height="24" fill="none"><path fill="#04071E" d="M10.625 3.776a.6.6 0 0 0-.849 0l-4.8 4.8a.6.6 0 0 0 0 .848l4.8 4.8a.6.6 0 0 0 .849-.848L6.849 9.6H14.4a2.4 2.4 0 0 1 2.4 2.4v7.8a.6.6 0 1 0 1.2 0V12a3.6 3.6 0 0 0-3.6-3.6H6.85l3.776-3.776a.6.6 0 0 0 0-.848"/><path fill="#04071E" fill-rule="evenodd" d="M9.67 3.67a.75.75 0 1 1 1.06 1.06L7.212 8.25h7.19A3.75 3.75 0 0 1 18.15 12v7.8a.75.75 0 0 1-1.5 0V12a2.25 2.25 0 0 0-2.25-2.25H7.21l3.52 3.52a.75.75 0 1 1-1.06 1.06l-4.8-4.8a.75.75 0 0 1 0-1.06zm.849.212a.45.45 0 0 0-.637 0l-4.8 4.8a.45.45 0 0 0 0 .636l4.8 4.8a.45.45 0 0 0 .637-.636L6.743 9.706a.15.15 0 0 1 .106-.256H14.4A2.55 2.55 0 0 1 16.95 12v7.8a.45.45 0 0 0 .9 0V12a3.45 3.45 0 0 0-3.45-3.45H6.85a.15.15 0 0 1-.106-.256l3.776-3.776a.45.45 0 0 0 0-.636" clip-rule="evenodd"/></svg>