<svg xmlns="http://www.w3.org/2000/svg" width="24" height="24" fill="none"><path fill="#04071E" d="M8.999 8.999v5.997l-2.25-.001a.75.75 0 0 0-.542 1.268l5.25 5.503a.75.75 0 0 0 1.086 0l5.25-5.503.068-.083a.75.75 0 0 0-.611-1.185l-2.25.001V8.999h2.25a.75.75 0 0 0 .542-1.269l-5.25-5.497a.75.75 0 0 0-1.085 0L6.208 7.73a.75.75 0 0 0 .543 1.268zm3 11.164-3.498-3.667 1.248-.001a.75.75 0 0 0 .75-.75V8.248l-.007-.101a.75.75 0 0 0-.743-.649L8.503 7.5 12 3.838l3.496 3.661H14.25a.75.75 0 0 0-.75.75v7.496l.007.102a.75.75 0 0 0 .743.648l1.248.001z"/></svg>