<svg xmlns="http://www.w3.org/2000/svg" width="24" height="24" fill="none"><path fill="#04071E" d="m16.53 12.28-.084.072a.75.75 0 0 1-.976-.072l-2.72-2.72v6.69l-.007.102A.75.75 0 0 1 12 17l-.102-.007a.75.75 0 0 1-.648-.743V9.558L8.53 12.28l-.085.073a.75.75 0 0 1-.976-1.133l4-4.002.084-.072a.75.75 0 0 1 .976.072l4.001 4 .073.085a.75.75 0 0 1-.073.977M6.25 21A3.25 3.25 0 0 1 3 17.75V6.25A3.25 3.25 0 0 1 6.25 3h11.5A3.25 3.25 0 0 1 21 6.25v11.5A3.25 3.25 0 0 1 17.75 21zM4.5 17.75c0 .966.784 1.75 1.75 1.75h11.5a1.75 1.75 0 0 0 1.75-1.75V6.25a1.75 1.75 0 0 0-1.75-1.75H6.25A1.75 1.75 0 0 0 4.5 6.25z"/></svg>