<svg xmlns="http://www.w3.org/2000/svg" width="24" height="24" fill="none"><path fill="#04071E" d="m11.72 16.53-.072-.084a.75.75 0 0 1 .072-.976l2.72-2.72H7.75l-.102-.007A.75.75 0 0 1 7 12l.007-.102a.75.75 0 0 1 .743-.648h6.692L11.72 8.53l-.073-.085a.75.75 0 0 1 1.133-.976l4.002 4 .072.084a.75.75 0 0 1-.072.976l-4 4.001-.085.073a.75.75 0 0 1-.977-.073M3 6.25A3.25 3.25 0 0 1 6.25 3h11.5A3.25 3.25 0 0 1 21 6.25v11.5A3.25 3.25 0 0 1 17.75 21H6.25A3.25 3.25 0 0 1 3 17.75zM6.25 4.5A1.75 1.75 0 0 0 4.5 6.25v11.5c0 .966.784 1.75 1.75 1.75h11.5a1.75 1.75 0 0 0 1.75-1.75V6.25a1.75 1.75 0 0 0-1.75-1.75z"/></svg>