<svg xmlns="http://www.w3.org/2000/svg" width="24" height="24" fill="none"><path fill="#04071E" d="M12.748 3.001h7.554l.1.015.099.027.061.026a.7.7 0 0 1 .218.15l.04.045.061.081.037.065.039.09.02.065.013.064.009.093v7.533a.75.75 0 0 1-1.493.102l-.006-.102-.001-5.696-13.94 13.945 5.69.001a.75.75 0 0 1 .744.648l.007.102a.75.75 0 0 1-.649.743l-.101.007H3.714l-.03-.003a.7.7 0 0 1-.187-.04l-.09-.039-.018-.01a.75.75 0 0 1-.384-.553l-.007-.105v-7.504a.75.75 0 0 1 1.493-.101l.007.101v5.692L18.438 4.5l-5.69.001a.75.75 0 0 1-.743-.648l-.007-.102a.75.75 0 0 1 .648-.743z"/></svg>