<svg xmlns="http://www.w3.org/2000/svg" width="24" height="24" fill="none"><path fill="#04071E" d="M20.495 19.998a.45.45 0 0 1-.497.497l-12.061-1.34a.45.45 0 0 1-.269-.765l1.798-1.798a.75.75 0 0 0 0-1.06L3.632 9.696a.45.45 0 0 1 0-.636L9.06 3.63a.45.45 0 0 1 .636 0l5.834 5.835a.75.75 0 0 0 1.061 0l1.798-1.798a.45.45 0 0 1 .765.269zm-.663 1.988a1.95 1.95 0 0 0 2.154-2.153L20.646 7.77c-.18-1.625-2.161-2.32-3.317-1.163l-1.267 1.267-5.304-5.304a1.95 1.95 0 0 0-2.758 0l-5.429 5.43a1.95 1.95 0 0 0 0 2.757l5.304 5.304-1.268 1.267c-1.156 1.156-.461 3.136 1.164 3.317z"/></svg>