<svg xmlns="http://www.w3.org/2000/svg" width="24" height="24" fill="none"><path fill="#04071E" d="M15 8.999H9.005v-2.25a.75.75 0 0 0-1.267-.542l-5.504 5.25a.75.75 0 0 0 0 1.086l5.504 5.25.082.069a.75.75 0 0 0 1.186-.612L9.004 15H15v2.25c0 .66.791.998 1.268.543l5.498-5.25a.75.75 0 0 0 0-1.085l-5.498-5.25a.75.75 0 0 0-1.268.542zM3.838 12l3.667-3.499V9.75c0 .414.336.75.75.75h7.497l.102-.007a.75.75 0 0 0 .648-.743V8.503L20.16 12l-3.66 3.496v-1.245a.75.75 0 0 0-.75-.75H8.255l-.102.007a.75.75 0 0 0-.648.743l-.001 1.247z"/></svg>