<svg xmlns="http://www.w3.org/2000/svg" width="24" height="24" fill="none"><path fill="#04071E" d="M21.778 2.222a.75.75 0 0 1 .072.977l-.072.084-6.223 6.224h5.693a.75.75 0 0 1 .743.649l.007.101a.75.75 0 0 1-.649.744l-.101.006-7.55-.002-.016-.001a.7.7 0 0 1-.195-.043l-.098-.045a.75.75 0 0 1-.386-.554l-.007-.105V2.754a.75.75 0 0 1 1.493-.102l.007.102v5.69l6.222-6.222a.75.75 0 0 1 1.06 0M11.003 13.755v7.504a.75.75 0 0 1-1.494.101l-.007-.101v-5.696L3.28 21.78a.75.75 0 0 1-1.133-.976l.073-.084 6.22-6.215H2.751a.75.75 0 0 1-.743-.647L2 13.755a.75.75 0 0 1 .75-.75l7.554.002.074.008.097.024.053.018.086.041.089.058a.8.8 0 0 1 .148.148l.066.105.041.094.022.071.01.055.007.058v-.009z"/></svg>