<svg xmlns="http://www.w3.org/2000/svg" width="24" height="24" fill="none"><path fill="#04071E" d="M16.8 4.8a3.6 3.6 0 0 1 0 7.2H7.2a2.4 2.4 0 1 0 0 4.8h12.352l-.776-.776a.6.6 0 0 1 .848-.848l1.8 1.8a.6.6 0 0 1 0 .848l-1.8 1.8a.6.6 0 0 1-.848-.848l.776-.776H7.2a3.6 3.6 0 0 1 0-7.2h9.6a2.4 2.4 0 1 0 0-4.8H4.2a.6.6 0 0 1 0-1.2z"/><path fill="#04071E" fill-rule="evenodd" d="M3.5 5.4a.7.7 0 0 1 .7-.7h12.6a3.7 3.7 0 1 1 0 7.4H7.2a2.3 2.3 0 1 0 0 4.6h12.11l-.605-.605a.7.7 0 0 1 .99-.99l1.8 1.8a.7.7 0 0 1 0 .99l-1.8 1.8a.7.7 0 0 1-.99-.99l.605-.605H7.2a3.7 3.7 0 1 1 0-7.4h9.6a2.3 2.3 0 1 0 0-4.6H4.2a.7.7 0 0 1-.7-.7m.7-.5a.5.5 0 0 0 0 1h12.6a2.5 2.5 0 0 1 0 5H7.2a3.5 3.5 0 1 0 0 7h12.352a.1.1 0 0 1 .07.17l-.776.776a.5.5 0 0 0 .708.708l1.8-1.8a.5.5 0 0 0 0-.708l-1.8-1.8a.5.5 0 0 0-.708.708l.776.775a.1.1 0 0 1-.07.171H7.2a2.5 2.5 0 0 1 0-5h9.6a3.5 3.5 0 1 0 0-7z" clip-rule="evenodd"/></svg>