<svg xmlns="http://www.w3.org/2000/svg" width="24" height="24" fill="none"><path fill="#04071E" d="M15 20.4a.6.6 0 1 0 0-1.2H7.2a2.4 2.4 0 0 1-2.4-2.4V7.2a2.4 2.4 0 0 1 2.4-2.4H15a.6.6 0 1 0 0-1.2H7.2a3.6 3.6 0 0 0-3.6 3.6v9.6a3.6 3.6 0 0 0 3.6 3.6zm1.376-13.024a.6.6 0 0 1 .848 0l4.2 4.2a.6.6 0 0 1 0 .848l-4.2 4.2a.6.6 0 0 1-.848-.848l3.176-3.176H9a.6.6 0 1 1 0-1.2h10.552l-3.176-3.176a.6.6 0 0 1 0-.848"/><path fill="#04071E" fill-rule="evenodd" d="M3.45 7.2A3.75 3.75 0 0 1 7.2 3.45H15a.75.75 0 0 1 0 1.5H7.2A2.25 2.25 0 0 0 4.95 7.2v9.6a2.25 2.25 0 0 0 2.25 2.25H15a.75.75 0 0 1 0 1.5H7.2a3.75 3.75 0 0 1-3.75-3.75zM7.2 3.75A3.45 3.45 0 0 0 3.75 7.2v9.6a3.45 3.45 0 0 0 3.45 3.45H15a.45.45 0 0 0 0-.9H7.2a2.55 2.55 0 0 1-2.55-2.55V7.2A2.55 2.55 0 0 1 7.2 4.65H15a.45.45 0 0 0 0-.9zm9.918 3.732a.45.45 0 0 0-.636.636l3.176 3.176a.15.15 0 0 1-.106.256H9a.45.45 0 0 0 0 .9h10.552a.15.15 0 0 1 .106.256l-3.176 3.176a.45.45 0 0 0 .636.636l4.2-4.2a.45.45 0 0 0 0-.636zm-.848-.212a.75.75 0 0 1 1.06 0l4.2 4.2a.75.75 0 0 1 0 1.06l-4.2 4.2a.75.75 0 1 1-1.06-1.06l2.92-2.92H9a.75.75 0 0 1 0-1.5h10.19l-2.92-2.92a.75.75 0 0 1 0-1.06" clip-rule="evenodd"/></svg>