<svg xmlns="http://www.w3.org/2000/svg" width="24" height="24" fill="none"><path fill="#04071E" d="M13.375 20.224a.6.6 0 0 0 .849 0l4.8-4.8a.6.6 0 0 0 0-.848l-4.8-4.8a.6.6 0 0 0-.849.848l3.776 3.776H9.6A2.4 2.4 0 0 1 7.2 12V4.2a.6.6 0 0 0-1.2 0V12a3.6 3.6 0 0 0 3.6 3.6h7.551l-3.776 3.776a.6.6 0 0 0 0 .848"/><path fill="#04071E" fill-rule="evenodd" d="M5.85 4.2a.75.75 0 0 1 1.5 0V12a2.25 2.25 0 0 0 2.25 2.25h7.189l-3.52-3.52a.75.75 0 1 1 1.06-1.06l4.8 4.8a.75.75 0 0 1 0 1.06l-4.8 4.8a.75.75 0 1 1-1.06-1.06l3.52-3.52h-7.19A3.75 3.75 0 0 1 5.85 12zm.75-.45a.45.45 0 0 0-.45.45V12a3.45 3.45 0 0 0 3.45 3.45h7.551a.15.15 0 0 1 .106.256l-3.776 3.776a.45.45 0 0 0 .637.636l4.8-4.8a.45.45 0 0 0 0-.636l-4.8-4.8a.45.45 0 0 0-.637.636l3.776 3.776a.15.15 0 0 1-.106.256H9.6A2.55 2.55 0 0 1 7.05 12V4.2a.45.45 0 0 0-.45-.45" clip-rule="evenodd"/></svg>