<svg xmlns="http://www.w3.org/2000/svg" width="24" height="24" fill="none"><path fill="#04071E" d="M18.68 3.605a.6.6 0 0 1 .479.372l2.399 6a.6.6 0 0 1-1.114.446l-1.842-4.605-5.507 13.829c-.396.994-1.796 1.012-2.218.03L4.85 5.636a.6.6 0 0 1 1.103-.474l6.028 14.04 5.48-13.761-4.591 2.295a.6.6 0 0 1-.537-1.074l5.979-2.988a.6.6 0 0 1 .368-.07"/><path fill="#04071E" fill-rule="evenodd" d="M18.66 3.754a.45.45 0 0 0-.277.052l-.005.003-5.979 2.989a.45.45 0 1 0 .403.805l4.591-2.296a.15.15 0 0 1 .207.19l-5.48 13.761a.15.15 0 0 1-.278.004L5.814 5.222a.45.45 0 1 0-.827.356l6.028 14.04c.37.859 1.594.843 1.94-.027l5.508-13.829a.15.15 0 0 1 .278 0l1.842 4.605a.45.45 0 1 0 .835-.334l-2.398-6a.45.45 0 0 0-.36-.28m.04-.297a.75.75 0 0 1 .598.465l2.399 6a.75.75 0 0 1-1.393.557l-1.701-4.257-5.369 13.48c-.445 1.118-2.02 1.14-2.495.033L4.711 5.695a.75.75 0 1 1 1.379-.59l5.885 13.706 5.2-13.06-4.24 2.12a.75.75 0 0 1-.67-1.342l5.976-2.987a.75.75 0 0 1 .458-.085" clip-rule="evenodd"/></svg>