<svg xmlns="http://www.w3.org/2000/svg" width="24" height="24" fill="none"><path fill="#04071E" d="M4.806 17.479a.6.6 0 0 0 .372.48l6 2.398a.6.6 0 0 0 .445-1.114l-4.605-1.841 13.83-5.508c.993-.396 1.012-1.795.029-2.217L6.837 3.649a.6.6 0 0 0-.473 1.102l14.04 6.028-13.762 5.48 2.295-4.59a.6.6 0 1 0-1.073-.537L4.875 17.11a.6.6 0 0 0-.07.369"/><path fill="#04071E" fill-rule="evenodd" d="M5.911 3.904a.75.75 0 0 1 .985-.393l14.04 6.028c1.105.475 1.085 2.05-.033 2.495l-13.48 5.368 4.256 1.702a.75.75 0 1 1-.557 1.393l-6-2.4a.75.75 0 0 1-.38-1.056v.002l.133.067-.131-.072-.002.003 2.988-5.976a.75.75 0 0 1 1.341.67l-2.119 4.24-.366.146.056.139.134.067.176-.352 13.059-5.2.333.142.06-.138-.056-.139-.337.134L6.304 4.89a.75.75 0 0 1-.393-.985m.867-.117a.45.45 0 0 0-.355.827l14.04 6.028a.15.15 0 0 1-.004.277l-13.762 5.48a.15.15 0 0 1-.19-.206L8.804 11.6a.45.45 0 0 0-.805-.402l-2.991 5.984a.45.45 0 0 0 .226.636l6 2.399a.45.45 0 1 0 .335-.836l-4.606-1.84a.15.15 0 0 1 0-.28l13.83-5.507c.87-.347.885-1.571.025-1.94z" clip-rule="evenodd"/></svg>