<svg xmlns="http://www.w3.org/2000/svg" width="24" height="24" fill="none"><path fill="#04071E" d="M8.824 16.624 10.8 14.65a.6.6 0 0 0-.849-.849L9 14.751V7.8a.6.6 0 0 0-1.2 0v6.952l-.951-.952a.6.6 0 0 0-.849.848l1.976 1.976a.6.6 0 0 0 .848 0M18 9.351l-1.976-1.975a.6.6 0 0 0-.848 0L13.2 9.35a.6.6 0 1 0 .849.849L15 9.249V16.2a.6.6 0 1 0 1.2 0V9.249l.951.951A.6.6 0 0 0 18 9.351M21.6 12a9.6 9.6 0 1 1-19.2 0 9.6 9.6 0 0 1 19.2 0M12 20.4a8.4 8.4 0 1 0 0-16.8 8.4 8.4 0 0 0 0 16.8"/><path fill="#04071E" fill-rule="evenodd" d="M12 2.55a9.45 9.45 0 1 0 0 18.9 9.45 9.45 0 0 0 0-18.9M2.25 12c0-5.385 4.365-9.75 9.75-9.75s9.75 4.365 9.75 9.75-4.365 9.75-9.75 9.75S2.25 17.385 2.25 12m1.2 0a8.55 8.55 0 1 1 17.1 0 8.55 8.55 0 0 1-17.1 0M12 3.75a8.25 8.25 0 1 0 0 16.5 8.25 8.25 0 0 0 0-16.5M7.65 7.8a.75.75 0 0 1 1.5 0v6.59l.695-.696a.75.75 0 1 1 1.061 1.06L8.93 16.73a.75.75 0 0 1-1.06 0l-1.976-1.975a.75.75 0 0 1 1.06-1.061l.696.695zm.75-.45a.45.45 0 0 0-.45.45v6.952a.15.15 0 0 1-.256.105l-.952-.95a.45.45 0 1 0-.636.636l1.976 1.975a.45.45 0 0 0 .636 0l1.976-1.976a.45.45 0 1 0-.637-.636l-.95.951a.15.15 0 0 1-.257-.105V7.8a.45.45 0 0 0-.45-.45m6.67-.08a.75.75 0 0 1 1.06 0l1.976 1.975a.75.75 0 0 1-1.06 1.061l-.696-.695V16.2a.75.75 0 0 1-1.5 0V9.61l-.695.696a.75.75 0 1 1-1.061-1.06zm.848.212a.45.45 0 0 0-.636 0l-1.976 1.976a.45.45 0 0 0 .636.636l.952-.952a.15.15 0 0 1 .256.107V16.2a.45.45 0 1 0 .9 0V9.249a.15.15 0 0 1 .256-.107l.951.952a.45.45 0 1 0 .637-.636z" clip-rule="evenodd"/></svg>