<svg xmlns="http://www.w3.org/2000/svg" width="24" height="24" fill="none"><path fill="#04071E" d="M8.576 19.624a.6.6 0 0 0 .848 0l1.976-1.976V22.2a.6.6 0 1 0 1.2 0v-4.552l1.976 1.976a.6.6 0 0 0 .848-.848l-3-3a.6.6 0 0 0-.848 0l-3 3a.6.6 0 0 0 0 .848m11.048-10.2a.6.6 0 0 0-.848-.848l-3 3a.6.6 0 0 0 0 .848l3 3a.6.6 0 0 0 .848-.848L17.648 12.6H22.2a.6.6 0 1 0 0-1.2h-4.552zm-15.248 0a.6.6 0 0 1 .848-.848l3 3a.6.6 0 0 1 0 .848l-3 3a.6.6 0 0 1-.848-.848L6.35 12.6H1.8a.6.6 0 1 1 0-1.2H6.35zm5.048-5.048a.6.6 0 1 0-.848.848l3 3a.6.6 0 0 0 .848 0l3-3a.6.6 0 1 0-.848-.848L12.6 6.35V1.8a.6.6 0 1 0-1.2 0v4.551z"/><path fill="#04071E" fill-rule="evenodd" d="M11.25 1.8a.75.75 0 0 1 1.5 0v4.19l1.72-1.72a.75.75 0 1 1 1.06 1.06l-3 3a.75.75 0 0 1-1.06 0l-3-3a.75.75 0 0 1 1.06-1.06l1.72 1.72zm.75-.45a.45.45 0 0 0-.45.45v4.551a.15.15 0 0 1-.256.107L9.318 4.482a.45.45 0 0 0-.636.636l3 3a.45.45 0 0 0 .636 0l3-3a.45.45 0 0 0-.636-.636l-1.976 1.976a.15.15 0 0 1-.256-.107V1.8a.45.45 0 0 0-.45-.45M5.118 8.682a.45.45 0 0 0-.636.636l1.975 1.976a.15.15 0 0 1-.106.256H1.8a.45.45 0 0 0 0 .9H6.35a.15.15 0 0 1 .106.256l-1.975 1.976a.45.45 0 1 0 .636.636l3-3a.45.45 0 0 0 0-.636zm-.849-.212a.75.75 0 0 1 1.061 0l3 3a.75.75 0 0 1 0 1.06l-3 3a.75.75 0 0 1-1.06-1.06l1.72-1.72H1.8a.75.75 0 0 1 0-1.5h4.19L4.27 9.53a.75.75 0 0 1 0-1.06m14.4 0a.75.75 0 1 1 1.061 1.06l-1.72 1.72h4.19a.75.75 0 0 1 0 1.5h-4.19l1.72 1.72a.75.75 0 1 1-1.06 1.06l-3-3a.75.75 0 0 1 0-1.06zm.849.212a.45.45 0 0 0-.636 0l-3 3a.45.45 0 0 0 0 .636l3 3a.45.45 0 0 0 .636-.636l-1.976-1.976a.15.15 0 0 1 .106-.256H22.2a.45.45 0 0 0 0-.9h-4.552a.15.15 0 0 1-.106-.256l1.976-1.976a.45.45 0 0 0 0-.636m-8.049 6.988a.75.75 0 0 1 1.061 0l3 3a.75.75 0 1 1-1.06 1.06l-1.72-1.72v4.19a.75.75 0 0 1-1.5 0v-4.19l-1.72 1.72a.75.75 0 0 1-1.06-1.06zm.849.212a.45.45 0 0 0-.636 0l-3 3a.45.45 0 1 0 .636.636l1.976-1.976a.15.15 0 0 1 .256.106V22.2a.45.45 0 0 0 .9 0v-4.552a.15.15 0 0 1 .256-.105l1.976 1.975a.45.45 0 0 0 .636-.636z" clip-rule="evenodd"/></svg>