<svg xmlns="http://www.w3.org/2000/svg" width="24" height="24" fill="none"><path fill="#04071E" d="M18.678 20.395a.6.6 0 0 0 .48-.372l2.399-6a.6.6 0 0 0-1.114-.446L18.6 18.182 13.094 4.353c-.396-.993-1.796-1.012-2.218-.03l-6.028 14.04a.6.6 0 0 0 1.103.474l6.028-14.04 5.48 13.761-4.591-2.295a.6.6 0 0 0-.537 1.073l5.979 2.99a.6.6 0 0 0 .368.069"/><path fill="#04071E" fill-rule="evenodd" d="M10.738 4.265c.475-1.106 2.05-1.085 2.495.033l5.369 13.48 1.701-4.257a.75.75 0 0 1 1.393.557l-2.399 6a.75.75 0 0 1-.599.466M11.974 5.19 6.089 18.896a.75.75 0 0 1-1.379-.592l6.028-14.04m2.216.145c-.346-.87-1.57-.886-1.94-.026l-6.028 14.04a.45.45 0 1 0 .827.355l6.028-14.04a.15.15 0 0 1 .277.004l5.48 13.761a.15.15 0 0 1-.206.19l-4.591-2.296a.45.45 0 1 0-.403.805l5.984 2.992a.45.45 0 0 0 .636-.227l2.4-6a.45.45 0 1 0-.836-.334l-1.841 4.605a.15.15 0 0 1-.28 0z" clip-rule="evenodd"/></svg>