<svg xmlns="http://www.w3.org/2000/svg" width="24" height="24" fill="none"><path fill="#04071E" d="m12.28 7.47.072.084a.75.75 0 0 1-.072.976l-2.72 2.72h6.69l.102.007A.75.75 0 0 1 17 12l-.007.102a.75.75 0 0 1-.743.648H9.558l2.722 2.72.073.085a.75.75 0 0 1-1.133.976l-4.002-4-.072-.084a.75.75 0 0 1 .072-.976l4-4.001.085-.073a.75.75 0 0 1 .977.073M21 17.75A3.25 3.25 0 0 1 17.75 21H6.25A3.25 3.25 0 0 1 3 17.75V6.25A3.25 3.25 0 0 1 6.25 3h11.5A3.25 3.25 0 0 1 21 6.25zm-3.25 1.75a1.75 1.75 0 0 0 1.75-1.75V6.25a1.75 1.75 0 0 0-1.75-1.75H6.25A1.75 1.75 0 0 0 4.5 6.25v11.5c0 .966.784 1.75 1.75 1.75z"/></svg>