<svg xmlns="http://www.w3.org/2000/svg" width="24" height="24" fill="none"><path fill="#04071E" d="M20.225 13.376a.6.6 0 0 1 0 .848l-4.8 4.8a.6.6 0 0 1-.85 0l-4.8-4.8a.6.6 0 0 1 .85-.848L14.4 17.15V9.6A2.4 2.4 0 0 0 12 7.2H4.2a.6.6 0 1 1 0-1.2H12a3.6 3.6 0 0 1 3.6 3.6v7.551l3.776-3.775a.6.6 0 0 1 .848 0"/><path fill="#04071E" fill-rule="evenodd" d="M4.2 6.15a.45.45 0 1 0 0 .9H12a2.55 2.55 0 0 1 2.55 2.55v7.551a.15.15 0 0 1-.256.107l-3.776-3.776a.45.45 0 0 0-.636.636l4.8 4.8a.45.45 0 0 0 .636 0l4.8-4.8a.45.45 0 0 0-.636-.636l-3.776 3.776a.15.15 0 0 1-.256-.107V9.6A3.45 3.45 0 0 0 12 6.15zm-.75.45a.75.75 0 0 1 .75-.75H12a3.75 3.75 0 0 1 3.75 3.75v7.19l3.52-3.52a.75.75 0 1 1 1.06 1.06l-4.8 4.8a.75.75 0 0 1-1.06 0l-4.8-4.8a.75.75 0 1 1 1.06-1.06l3.52 3.52V9.6A2.25 2.25 0 0 0 12 7.35H4.2a.75.75 0 0 1-.75-.75" clip-rule="evenodd"/></svg>