<svg xmlns="http://www.w3.org/2000/svg" width="24" height="24" fill="none"><path fill="#04071E" d="M6 3a.6.6 0 0 0-1.2 0c0 3.856 2.361 7.106 5.732 8.4C7.161 12.694 4.8 15.944 4.8 19.8a.6.6 0 1 0 1.2 0C6 15.451 9.45 12 13.8 12h.951l-1.375 1.376a.6.6 0 0 0 .848.848l2.4-2.4a.6.6 0 0 0 0-.848l-2.4-2.4a.6.6 0 0 0-.848.848L14.75 10.8H13.8A7.75 7.75 0 0 1 6 3m4.2 1.8a.6.6 0 0 0 0 1.2H18c.628 0 1.2.571 1.2 1.2v8.4c0 .629-.572 1.2-1.2 1.2h-7.8a.6.6 0 1 0 0 1.2H18c1.291 0 2.4-1.109 2.4-2.4V7.2c0-1.291-1.109-2.4-2.4-2.4z"/><path fill="#04071E" fill-rule="evenodd" d="M4.65 3a.75.75 0 0 1 1.5 0 7.6 7.6 0 0 0 7.65 7.65h.59l-1.12-1.12a.75.75 0 0 1 1.06-1.06l2.4 2.4a.75.75 0 0 1 0 1.06l-2.4 2.4a.75.75 0 1 1-1.06-1.06l1.12-1.12h-.59a7.6 7.6 0 0 0-7.65 7.65.75.75 0 0 1-1.5 0c0-3.787 2.241-7 5.485-8.4C6.891 10 4.65 6.787 4.65 3m.75-.45a.45.45 0 0 0-.45.45c0 3.792 2.322 6.988 5.636 8.26a.15.15 0 0 1 0 .28C7.272 12.812 4.95 16.008 4.95 19.8a.45.45 0 0 0 .9 0 7.9 7.9 0 0 1 7.95-7.95h.951a.15.15 0 0 1 .106.256l-1.375 1.376a.45.45 0 0 0 .636.636l2.4-2.4a.45.45 0 0 0 0-.636l-2.4-2.4a.45.45 0 0 0-.636.636l1.375 1.376a.15.15 0 0 1-.106.256H13.8A7.9 7.9 0 0 1 5.85 3a.45.45 0 0 0-.45-.45M9.45 5.4a.75.75 0 0 1 .75-.75H18c1.374 0 2.55 1.176 2.55 2.55v8.4c0 1.374-1.176 2.55-2.55 2.55h-7.8a.75.75 0 0 1 0-1.5H18c.546 0 1.05-.504 1.05-1.05V7.2c0-.546-.504-1.05-1.05-1.05h-7.8a.75.75 0 0 1-.75-.75m.75-.45a.45.45 0 1 0 0 .9H18c.711 0 1.35.639 1.35 1.35v8.4c0 .711-.639 1.35-1.35 1.35h-7.8a.45.45 0 0 0 0 .9H18c1.208 0 2.25-1.042 2.25-2.25V7.2c0-1.209-1.042-2.25-2.25-2.25z" clip-rule="evenodd"/></svg>