<svg xmlns="http://www.w3.org/2000/svg" width="24" height="24" fill="none"><path fill="#04071E" d="M16.97 13.469a.75.75 0 0 1 .976-.073l.084.073 2.37 2.367a.77.77 0 0 1 .351.664.79.79 0 0 1-.276.611l-.075.053-2.37 2.367-.084.073a.75.75 0 0 1-.882.007l-.094-.08-.073-.084a.75.75 0 0 1-.007-.883l.08-.093 1.221-1.222H3.407l-.089-.007c-.32-.05-.567-.363-.567-.743s.247-.693.567-.743l.09-.007H18.19l-1.221-1.22-.073-.084a.75.75 0 0 1 .073-.976m2.789-6.97a2.25 2.25 0 0 0-2.25-2.25h-11.5a2.25 2.25 0 0 0-2.25 2.25v6a.75.75 0 0 0 1.5 0v-6a.75.75 0 0 1 .75-.75h11.5a.75.75 0 0 1 .75.75v4a.75.75 0 0 0 1.5 0z"/></svg>