<svg xmlns="http://www.w3.org/2000/svg" width="24" height="24" fill="none"><path fill="#04071E" d="M10.625 20.224a.6.6 0 0 1-.849 0l-4.8-4.8a.6.6 0 0 1 0-.848l4.8-4.8a.6.6 0 0 1 .849.848L6.849 14.4H14.4a2.4 2.4 0 0 0 2.4-2.4V4.2a.6.6 0 1 1 1.2 0V12a3.6 3.6 0 0 1-3.6 3.6H6.85l3.776 3.776a.6.6 0 0 1 0 .848"/><path fill="#04071E" fill-rule="evenodd" d="M17.4 3.75a.45.45 0 0 0-.45.45V12a2.55 2.55 0 0 1-2.55 2.55H6.85a.15.15 0 0 1-.106-.256l3.776-3.776a.45.45 0 0 0-.637-.636l-4.8 4.8a.45.45 0 0 0 0 .636l4.8 4.8a.45.45 0 0 0 .637-.636l-3.776-3.776a.15.15 0 0 1 .106-.256H14.4A3.45 3.45 0 0 0 17.85 12V4.2a.45.45 0 0 0-.45-.45m-.75.45a.75.75 0 0 1 1.5 0V12a3.75 3.75 0 0 1-3.75 3.75H7.211l3.52 3.52a.75.75 0 1 1-1.06 1.06l-4.8-4.8a.75.75 0 0 1 0-1.06l4.8-4.8a.75.75 0 1 1 1.06 1.06l-3.52 3.52h7.19A2.25 2.25 0 0 0 16.65 12z" clip-rule="evenodd"/></svg>