<svg xmlns="http://www.w3.org/2000/svg" width="24" height="24" fill="none"><path fill="#04071E" d="M11.518 6.24a.6.6 0 0 1 .96 0l5.398 7.202a.6.6 0 0 1-.48.96H6.603a.6.6 0 0 1-.48-.96zm1.92-.72a1.8 1.8 0 0 0-2.88.001l-5.396 7.202c-.889 1.186-.042 2.879 1.441 2.879h10.793c1.483 0 2.33-1.693 1.44-2.88zM4.8 18a.6.6 0 1 0 0 1.2h14.4a.6.6 0 0 0 0-1.2z"/><path fill="#04071E" fill-rule="evenodd" d="M10.437 5.431a1.95 1.95 0 0 1 3.121 0l5.398 7.201c.964 1.286.047 3.12-1.56 3.12H6.603c-1.606 0-2.524-1.834-1.56-3.12zm2.881.18a1.65 1.65 0 0 0-2.64 0l-5.395 7.201c-.815 1.088-.04 2.64 1.32 2.64h10.793c1.36 0 2.136-1.552 1.32-2.64zm-.96.72a.45.45 0 0 0-.72 0l-5.395 7.2a.45.45 0 0 0 .36.72h10.793a.45.45 0 0 0 .36-.72zm-.96-.18c.3-.4.9-.401 1.2 0l5.398 7.2a.75.75 0 0 1-.6 1.2H6.603a.75.75 0 0 1-.6-1.199zM4.05 18.6a.75.75 0 0 1 .75-.75h14.4a.75.75 0 1 1 0 1.5H4.8a.75.75 0 0 1-.75-.75m.75-.45a.45.45 0 1 0 0 .9h14.4a.45.45 0 0 0 0-.9z" clip-rule="evenodd"/></svg>