<svg xmlns="http://www.w3.org/2000/svg" width="24" height="24" fill="none"><path fill="#04071E" d="M11.771 3.743a6 6 0 0 1 8.867 8.063 6.5 6.5 0 0 0-1.486-.594l.044-.044a4.502 4.502 0 0 0-6.198-6.524l-.168.16-.012.014-9.537 9.536a.75.75 0 0 1-1.133-.976l.073-.084 9.549-9.551zm-.56 15.408a6.5 6.5 0 0 0 .609 1.512l-.378.378-.036.03a3.723 3.723 0 0 1-5.49-4.974 1 1 0 0 1 .086-.13l.053-.06.087-.087.141-.148.003.003 7.436-7.455a.75.75 0 0 1 .976-.074l.084.073a.75.75 0 0 1 .074.976l-.072.085-7.595 7.613a2.23 2.23 0 0 0 3.174 3.105zM23 17.5a5.5 5.5 0 1 1-11 0 5.5 5.5 0 0 1 11 0m-8.5-.5a.5.5 0 0 0 0 1h4.793l-1.647 1.646a.5.5 0 0 0 .707.708l2.5-2.5a.5.5 0 0 0 0-.708l-2.5-2.5a.5.5 0 0 0-.707.708L19.292 17z"/></svg>