<svg xmlns="http://www.w3.org/2000/svg" width="24" height="24" fill="none"><path fill="#04071E" d="m18.84 17.61-2.415-4.11-.915-1.575c-.33-.57-.51-1.23-.51-1.89V4.5h.75c.42 0 .75-.33.75-.75S16.17 3 15.75 3h-7.5c-.42 0-.75.33-.75.75s.33.75.75.75H9v5.535c0 .66-.18 1.32-.51 1.89L7.575 13.5 5.16 17.61c-.87 1.5.21 3.39 1.95 3.39h9.78c1.74 0 2.82-1.89 1.95-3.39m-1.95 1.89H7.11a.743.743 0 0 1-.645-1.125L8.43 15l.87-1.5.48-.825a5.1 5.1 0 0 0 .72-2.64V4.5h3v5.535c0 .93.24 1.845.72 2.64l.48.825.87 1.5 1.965 3.375a.753.753 0 0 1-.645 1.125"/></svg>