<svg xmlns="http://www.w3.org/2000/svg" width="24" height="24" fill="none"><path fill="#04071E" d="M8 4.5h1v6.238c0 .375-.094.744-.273 1.074l-3.584 6.603A1.75 1.75 0 0 0 6.68 21h5.34a6.5 6.5 0 0 1-.708-1.5H6.682a.25.25 0 0 1-.22-.37l1.97-3.63h2.883a6.5 6.5 0 0 1 .708-1.5H9.246l.8-1.473a3.75 3.75 0 0 0 .454-1.789V4.5h3v6.238c0 .492.097.977.283 1.43a6.5 6.5 0 0 1 1.333-.717 2.3 2.3 0 0 1-.116-.713V4.5h1A.75.75 0 0 0 16 3H8a.75.75 0 0 0 0 1.5m15 13a5.5 5.5 0 1 0-11 0 5.5 5.5 0 0 0 11 0m-7.976-2.476.069-.058.076-.043a.5.5 0 0 1 .493.043l.069.058 1.77 1.77 1.771-1.77.07-.058a.5.5 0 0 1 .568 0l.07.058.057.07a.5.5 0 0 1 0 .568l-.058.07-1.772 1.769 1.77 1.769.057.069a.5.5 0 0 1 0 .569l-.057.069-.07.058a.5.5 0 0 1-.568 0l-.07-.058-1.769-1.77-1.767 1.768-.069.057a.5.5 0 0 1-.568 0l-.07-.057-.057-.07a.5.5 0 0 1 0-.568l.057-.07 1.767-1.766-1.77-1.77-.057-.069a.5.5 0 0 1 0-.569z"/></svg>