<svg xmlns="http://www.w3.org/2000/svg" width="24" height="24" fill="none"><path fill="#04071E" d="M3.424 2.576a.6.6 0 1 0-.848.848l5.817 5.818v1.182a4.2 4.2 0 0 1-.502 1.992l-2.873 5.332c-.646 1.199.221 2.654 1.584 2.654h10.796a1.78 1.78 0 0 0 1.438-.717l1.74 1.74a.6.6 0 0 0 .848-.85zM17.961 18.81a.6.6 0 0 1-.563.392H6.602a.6.6 0 0 1-.528-.885L7.538 15.6h7.214zm-4.41-4.41H8.186l.762-1.415a5.4 5.4 0 0 0 .646-2.543zm.854-3.98a5.4 5.4 0 0 0 .282 1.722l2.764 2.764-1.343-2.493a4.2 4.2 0 0 1-.503-1.992V4.8H16.8a.6.6 0 1 0 0-1.2H7.2a.6.6 0 0 0-.586.469l.731.731h1.048v1.048l1.2 1.2V4.8h4.812z"/><path fill="#04071E" fill-rule="evenodd" d="M2.47 2.47a.75.75 0 0 1 1.06 0l18 18a.75.75 0 1 1-1.06 1.06l-1.623-1.622a1.93 1.93 0 0 1-1.449.644H6.602c-1.477 0-2.416-1.576-1.716-2.875l2.873-5.332a4.05 4.05 0 0 0 .484-1.921v-1.12L2.47 3.53a.75.75 0 0 1 0-1.06m.848.212a.45.45 0 0 0-.636.636L8.543 9.18v1.244c0 .72-.179 1.429-.52 2.063L5.15 17.82a1.65 1.65 0 0 0 1.452 2.433h10.796a1.63 1.63 0 0 0 1.318-.657l.104-.139 1.862 1.862a.45.45 0 0 0 .636-.636zm3.15 1.354A.75.75 0 0 1 7.2 3.45h9.6a.75.75 0 0 1 0 1.5h-1.045v5.47c0 .671.167 1.331.485 1.922l1.343 2.493-.238.177-2.79-2.79-.01-.033a5.6 5.6 0 0 1-.29-1.768V4.95H9.743v2.46l-1.5-1.5v-.96h-.96l-.833-.833zm.316-.009.623.623h1.136v1.136l.9.9V4.65h5.112v5.77c0 .56.09 1.113.263 1.64l2.016 2.016-.858-1.592a4.35 4.35 0 0 1-.52-2.063V4.65H16.8a.45.45 0 0 0 0-.9H7.2a.45.45 0 0 0-.416.277m2.66 6.054 4.47 4.469h-5.98l.881-1.636c.41-.76.625-1.61.628-2.473zm.287.71a5.55 5.55 0 0 1-.652 2.265l-.643 1.194h4.753zM7.45 15.45h7.365l3.321 3.322-.033.09a.75.75 0 0 1-.704.49H6.602a.75.75 0 0 1-.66-1.106zm.179.3-1.422 2.639a.45.45 0 0 0 .396.663h10.796a.45.45 0 0 0 .382-.212l-3.09-3.09z" clip-rule="evenodd"/></svg>