<svg xmlns="http://www.w3.org/2000/svg" width="24" height="24" fill="none"><path fill="#04071E" d="M16.8 3.6a.6.6 0 0 1 0 1.2h-1.195v5.62q0 .31.045.614-.596.165-1.143.432a5.4 5.4 0 0 1-.102-1.045V4.8H9.593v5.624a5.4 5.4 0 0 1-.646 2.561L8.185 14.4h3.335q-.293.572-.472 1.2h-3.51l-1.464 2.717a.6.6 0 0 0 .528.885h4.447q.178.628.472 1.2H6.6c-1.362 0-2.229-1.455-1.583-2.654l2.873-5.332a4.2 4.2 0 0 0 .502-1.992V4.8H7.2a.6.6 0 0 1 0-1.2zm-2.322 10.13a2.4 2.4 0 0 1-1.716 2.974l-.554.141a5.7 5.7 0 0 0 .012 1.22l.42.1a2.4 2.4 0 0 1 1.747 3.022l-.152.507q.466.367 1.002.622l.39-.413a2.4 2.4 0 0 1 3.492.002l.404.43q.528-.246.987-.598l-.188-.668a2.4 2.4 0 0 1 1.717-2.973l.553-.142a5.6 5.6 0 0 0-.012-1.22l-.42-.099a2.4 2.4 0 0 1-1.747-3.023l.152-.506a5.2 5.2 0 0 0-1.002-.622l-.39.413a2.4 2.4 0 0 1-3.49-.002l-.406-.43a5.2 5.2 0 0 0-.986.597zM17.4 18.6a1.2 1.2 0 1 1 0-2.4 1.2 1.2 0 0 1 0 2.4"/><path fill="#04071E" fill-rule="evenodd" d="M7.2 3.75a.45.45 0 1 0 0 .9h1.343v5.774c0 .72-.179 1.429-.52 2.063L5.15 17.82a1.65 1.65 0 0 0 1.452 2.433h4.678q-.203-.435-.343-.9H6.602a.75.75 0 0 1-.66-1.106L7.45 15.45h3.487q.14-.465.343-.9H7.934l.881-1.636a5.25 5.25 0 0 0 .628-2.49V4.65h5.112v5.77q0 .418.066.827.418-.19.864-.321a4 4 0 0 1-.03-.505V4.65H16.8a.45.45 0 0 0 0-.9zm-.75.45a.75.75 0 0 1 .75-.75h9.6a.75.75 0 0 1 0 1.5h-1.045v5.47q0 .3.044.592l.02.132-.129.035a6.4 6.4 0 0 0-1.117.422l-.175.085-.038-.191a5.6 5.6 0 0 1-.105-1.074V4.95H9.743v5.474a5.55 5.55 0 0 1-.664 2.632l-.643 1.194h3.329l-.112.218q-.286.559-.46 1.173l-.031.109H7.628l-1.422 2.639a.45.45 0 0 0 .396.663h4.56l.031.11q.175.613.461 1.172l.112.218H6.602c-1.477 0-2.416-1.576-1.716-2.875l2.873-5.332a4.05 4.05 0 0 0 .484-1.921V4.95H7.2a.75.75 0 0 1-.75-.75m8.862 8.084.48.508a2.25 2.25 0 0 0 3.272.002l.465-.492.098.046c.368.174.713.39 1.03.64l.08.063-.18.604a2.25 2.25 0 0 0 1.638 2.834l.521.123.012.105a5.8 5.8 0 0 1 .013 1.252l-.01.105-.655.167a2.25 2.25 0 0 0-1.61 2.788l.215.765-.08.062a5.3 5.3 0 0 1-1.015.614l-.098.046-.479-.508a2.25 2.25 0 0 0-3.273-.002l-.465.492-.098-.047a5.3 5.3 0 0 1-1.03-.64l-.08-.062.18-.605a2.25 2.25 0 0 0-1.638-2.834l-.521-.123-.013-.104a5.8 5.8 0 0 1-.012-1.252l.01-.105.656-.167a2.25 2.25 0 0 0 1.609-2.788l-.215-.766.08-.062a5.3 5.3 0 0 1 1.015-.614zm-.849.836.16.57a2.55 2.55 0 0 1-1.824 3.16l-.45.114a5.5 5.5 0 0 0 .009.98l.316.074a2.55 2.55 0 0 1 1.857 3.212l-.122.409q.373.283.795.494l.314-.333a2.55 2.55 0 0 1 3.71.002l.33.35q.412-.202.78-.473l-.16-.57a2.55 2.55 0 0 1 1.824-3.159l.45-.115a5.5 5.5 0 0 0-.01-.98l-.316-.074a2.55 2.55 0 0 1-1.856-3.211l.122-.409a5 5 0 0 0-.795-.494l-.314.333a2.55 2.55 0 0 1-3.71-.002l-.33-.35a5 5 0 0 0-.78.472m2.937 3.23a1.05 1.05 0 1 0 0 2.1 1.05 1.05 0 0 0 0-2.1m-1.35 1.05a1.35 1.35 0 1 1 2.7 0 1.35 1.35 0 0 1-2.7 0" clip-rule="evenodd"/></svg>