<svg xmlns="http://www.w3.org/2000/svg" width="24" height="24" fill="none"><path fill="#04071E" d="M6 3.6A2.4 2.4 0 0 0 3.6 6v12A2.4 2.4 0 0 0 6 20.4h12a2.4 2.4 0 0 0 2.4-2.4V6A2.4 2.4 0 0 0 18 3.6zm13.2 11.904c-1.001-.172-1.707-.563-2.234-1.055-.737-.687-1.185-1.626-1.551-2.65a33 33 0 0 1-.346-1.04l-.158-.489c-.162-.495-.338-.99-.556-1.426-.217-.435-.496-.85-.886-1.155A2.3 2.3 0 0 0 12 7.2c-.579 0-1.067.173-1.47.489-.39.305-.668.72-.885 1.155-.218.436-.394.93-.556 1.427q-.08.244-.158.487c-.11.345-.22.69-.346 1.04-.366 1.025-.814 1.964-1.55 2.65-.528.493-1.234.884-2.235 1.056V6A1.2 1.2 0 0 1 6 4.8h12A1.2 1.2 0 0 1 19.2 6zM4.8 16.72c1.31-.187 2.298-.688 3.053-1.393.951-.888 1.478-2.05 1.862-3.124.132-.37.253-.747.366-1.101l.148-.456c.16-.489.313-.912.489-1.264s.357-.594.553-.748c.183-.143.408-.233.729-.233s.546.09.729.233c.196.154.377.396.553.748s.329.775.49 1.264l.147.456c.113.354.234.731.366 1.1.384 1.076.91 2.237 1.862 3.125.755.705 1.743 1.206 3.053 1.393V18a1.2 1.2 0 0 1-1.2 1.2H6A1.2 1.2 0 0 1 4.8 18z"/><path fill="#04071E" fill-rule="evenodd" d="M3.5 6A2.5 2.5 0 0 1 6 3.5h12A2.5 2.5 0 0 1 20.5 6v12a2.5 2.5 0 0 1-2.5 2.5H6A2.5 2.5 0 0 1 3.5 18zM6 3.7A2.3 2.3 0 0 0 3.7 6v12A2.3 2.3 0 0 0 6 20.3h12a2.3 2.3 0 0 0 2.3-2.3V6A2.3 2.3 0 0 0 18 3.7zm0 1.2A1.1 1.1 0 0 0 4.9 6v9.384c.92-.178 1.574-.549 2.066-1.008.719-.67 1.16-1.59 1.525-2.611.124-.35.234-.692.345-1.037l.158-.489c.163-.496.34-.997.561-1.44s.508-.87.914-1.189c.421-.33.93-.51 1.531-.51s1.11.18 1.531.51c.406.318.693.747.914 1.19s.398.943.561 1.44q.08.245.158.488c.11.345.22.687.345 1.037.365 1.02.806 1.94 1.525 2.61.492.46 1.145.83 2.066 1.01V6A1.1 1.1 0 0 0 18 4.9zM4.7 6A1.3 1.3 0 0 1 6 4.7h12A1.3 1.3 0 0 1 19.3 6v9.504a.1.1 0 0 1-.117.099c-1.02-.176-1.744-.575-2.286-1.081-.754-.704-1.209-1.661-1.576-2.69-.126-.353-.237-.698-.347-1.042l-.158-.488c-.162-.495-.336-.984-.55-1.413s-.485-.829-.858-1.122A2.2 2.2 0 0 0 12 7.3c-.557 0-1.023.166-1.408.467-.373.293-.644.693-.858 1.122s-.388.918-.55 1.413q-.08.244-.158.487c-.11.344-.221.69-.347 1.043-.367 1.029-.822 1.986-1.576 2.69-.542.506-1.266.905-2.286 1.08a.1.1 0 0 1-.117-.098zM12 8.5c-.3 0-.502.083-.667.212-.18.141-.353.369-.526.714-.172.344-.323.762-.483 1.25l-.147.456c-.114.353-.235.732-.368 1.103-.385 1.08-.919 2.26-1.888 3.164-.754.705-1.734 1.207-3.021 1.406V18A1.1 1.1 0 0 0 6 19.1h12a1.1 1.1 0 0 0 1.1-1.1v-1.195c-1.287-.2-2.267-.701-3.021-1.406-.97-.904-1.503-2.084-1.888-3.164a35 35 0 0 1-.367-1.103l-.148-.456c-.16-.488-.31-.906-.483-1.25-.173-.345-.346-.573-.526-.714-.165-.13-.367-.212-.667-.212m-.79.054c.2-.158.447-.254.79-.254s.59.096.79.254c.213.167.402.423.582.782s.334.789.494 1.278l.148.456c.114.355.234.73.365 1.098.383 1.071.903 2.214 1.836 3.085.74.69 1.708 1.182 3 1.367a.1.1 0 0 1 .085.099V18a1.3 1.3 0 0 1-1.3 1.3H6A1.3 1.3 0 0 1 4.7 18V16.72a.1.1 0 0 1 .086-.1c1.29-.184 2.26-.675 2.999-1.366.933-.871 1.453-2.014 1.836-3.085.131-.368.252-.743.365-1.098l.148-.456c.16-.49.315-.92.495-1.278.179-.359.368-.615.58-.782" clip-rule="evenodd"/></svg>