<svg xmlns="http://www.w3.org/2000/svg" width="24" height="24" fill="none"><path fill="#04071E" d="M7.035 3.5c-.9 0-1.628.675-1.737 1.527A.8.8 0 0 1 5.5 5h13q.105 0 .201.027A1.75 1.75 0 0 0 16.966 3.5zM6.85 19.83a.75.75 0 0 0 .746.67h8.806a.75.75 0 0 0 .746-.67l1.442-13.335a1 1 0 0 1-.091.005h-13a1 1 0 0 1-.09-.005zM3.804 5.6A3.25 3.25 0 0 1 7.034 2h9.931a3.25 3.25 0 0 1 3.231 3.6L18.64 19.991A2.25 2.25 0 0 1 16.403 22H7.597a2.25 2.25 0 0 1-2.237-2.008zm7.988 4.81a.25.25 0 0 1 .416 0l.669 1a.75.75 0 1 0 1.246-.835l-.668-1a1.75 1.75 0 0 0-2.91 0l-.668 1a.75.75 0 0 0 1.246.834zM9.636 12.6a.75.75 0 0 1 .257 1.028l-.364.607a.5.5 0 0 0 .429.757h.792a.75.75 0 0 1 0 1.5h-.792c-1.555 0-2.515-1.696-1.715-3.029l.364-.607a.75.75 0 0 1 1.029-.257m4.473 1.028a.75.75 0 1 1 1.287-.771l.364.607c.798 1.333-.162 3.028-1.716 3.028h-.794a.75.75 0 1 1 0-1.5h.794a.5.5 0 0 0 .429-.757z"/></svg>