<svg xmlns="http://www.w3.org/2000/svg" width="24" height="24" fill="none"><path fill="#04071E" d="M16.2 3.6a2.4 2.4 0 0 0-2.352 2.881.6.6 0 0 1-.648.719c-.396 0-.77.096-1.1.266q-.272-.547-.667-1.003c.356-.201.75-.343 1.168-.413V6a3.6 3.6 0 0 1 7.2 0l-.001.05a3.6 3.6 0 1 1-1.366 7.068l.263 1.088a2.1 2.1 0 0 1-2.04 2.594h-.915a2.1 2.1 0 0 1-2.04-2.596l.54-2.223a.6.6 0 1 1 1.166.284l-.54 2.222a.9.9 0 0 0 .874 1.113h.914a.9.9 0 0 0 .875-1.112l-.539-2.225a.6.6 0 0 1 .909-.645A2.4 2.4 0 1 0 19.152 7.2a.6.6 0 0 1-.6-.719Q18.6 6.248 18.6 6a2.4 2.4 0 0 0-2.4-2.4m-10.8 6a2.4 2.4 0 1 1 4.32 1.44.6.6 0 0 0 .48.96h.6a.6.6 0 1 1 0 1.2H9.472a.6.6 0 0 0-.596.673c.362 2.964 1.93 4.664 2.81 5.4.208.174.314.394.314.585 0 .3-.242.542-.541.542H4.14a.54.54 0 0 1-.541-.541c0-.192.106-.412.315-.587.878-.735 2.447-2.435 2.809-5.4a.6.6 0 0 0-.596-.672H4.8a.6.6 0 1 1 0-1.2h.6a.6.6 0 0 0 .48-.96A2.4 2.4 0 0 1 5.4 9.6M7.8 6a3.6 3.6 0 0 0-3.38 4.84 1.8 1.8 0 0 0 .38 3.56h.623c-.445 2.158-1.622 3.403-2.278 3.952-.417.348-.745.883-.745 1.506 0 .962.78 1.742 1.741 1.742h7.318c.961 0 1.741-.78 1.741-1.742 0-.623-.328-1.158-.745-1.506-.656-.55-1.833-1.794-2.278-3.952h.623a1.8 1.8 0 0 0 .38-3.56A3.6 3.6 0 0 0 7.8 6"/><path fill="#04071E" fill-rule="evenodd" d="M12.75 6v.049a.15.15 0 0 1-.124.149q-.511.087-.96.311.285.354.501.76a2.54 2.54 0 0 1 1.085-.218.45.45 0 0 0 .45-.54 2.55 2.55 0 1 1 4.998 0 .45.45 0 0 0 .449.54l.051-.001a2.55 2.55 0 1 1-1.38 4.694.45.45 0 0 0-.682.484l.539 2.225a1.05 1.05 0 0 1-1.02 1.297h-.915a1.05 1.05 0 0 1-1.02-1.298l.54-2.223a.45.45 0 1 0-.875-.213l-.54 2.223a1.95 1.95 0 0 0 1.895 2.41h.914a1.95 1.95 0 0 0 1.896-2.408l-.264-1.088a.15.15 0 0 1 .178-.181q.355.076.734.078a3.45 3.45 0 0 0 .575-6.852.15.15 0 0 1-.125-.15V6a3.45 3.45 0 0 0-6.9 0m-.299-.075a3.75 3.75 0 0 1 7.499 0 3.751 3.751 0 0 1-1.316 7.382l.21.863a2.25 2.25 0 0 1-2.188 2.78h-.914a2.25 2.25 0 0 1-2.187-2.782l.54-2.222a.75.75 0 0 1 1.458.354l-.54 2.223a.75.75 0 0 0 .729.927h.914a.75.75 0 0 0 .73-.927l-.54-2.224a.75.75 0 0 1 1.136-.807 2.25 2.25 0 1 0 1.173-4.142.75.75 0 0 1-.75-.899q.045-.218.045-.451a2.25 2.25 0 1 0-4.455.451.75.75 0 0 1-.795.899c-.372 0-.722.09-1.03.25a.15.15 0 0 1-.204-.067 4.7 4.7 0 0 0-.647-.972.15.15 0 0 1 .04-.229c.335-.189.703-.328 1.092-.407M4.05 9.6a3.75 3.75 0 1 1 7.325 1.136 1.95 1.95 0 0 1-.575 3.814h-.437c.463 2.004 1.568 3.168 2.189 3.687.442.37.798.944.798 1.622a1.89 1.89 0 0 1-1.891 1.891H4.14a1.89 1.89 0 0 1-1.891-1.892c0-.677.356-1.251.799-1.621.62-.519 1.725-1.683 2.188-3.687H4.8a1.95 1.95 0 0 1-.575-3.814A3.8 3.8 0 0 1 4.05 9.6M7.8 6.15a3.45 3.45 0 0 0-3.24 4.639.15.15 0 0 1-.109.198A1.65 1.65 0 0 0 4.8 14.25h.623a.15.15 0 0 1 .147.18c-.454 2.2-1.655 3.473-2.329 4.037-.39.327-.691.822-.691 1.392 0 .878.713 1.591 1.591 1.591h7.318c.879 0 1.591-.712 1.591-1.591 0-.57-.3-1.065-.691-1.392-.674-.564-1.875-1.837-2.329-4.037a.15.15 0 0 1 .147-.18h.623a1.65 1.65 0 0 0 .349-3.263.15.15 0 0 1-.11-.198A3.45 3.45 0 0 0 7.8 6.15m0 1.2a2.25 2.25 0 0 0-1.8 3.6.75.75 0 0 1-.6 1.2h-.6a.45.45 0 0 0 0 .9h1.328a.75.75 0 0 1 .745.841c-.369 3.013-1.964 4.745-2.862 5.496-.183.153-.261.334-.261.471 0 .217.175.392.391.392h7.318a.39.39 0 0 0 .391-.392c0-.137-.078-.318-.26-.47-.9-.752-2.494-2.485-2.863-5.497a.75.75 0 0 1 .745-.841H10.8a.45.45 0 0 0 0-.9h-.6a.75.75 0 0 1-.6-1.2 2.25 2.25 0 0 0-1.8-3.6M5.25 9.6a2.55 2.55 0 1 1 4.59 1.53.45.45 0 0 0 .36.72h.6a.75.75 0 0 1 0 1.5H9.472a.45.45 0 0 0-.447.505c.356 2.915 1.897 4.584 2.757 5.302.235.197.368.457.368.701 0 .382-.31.692-.691.692H4.14a.69.69 0 0 1-.691-.692c0-.244.133-.504.368-.7.86-.72 2.4-2.388 2.757-5.303a.45.45 0 0 0-.447-.505H4.8a.75.75 0 0 1 0-1.5h.6a.45.45 0 0 0 .36-.72 2.54 2.54 0 0 1-.51-1.53" clip-rule="evenodd"/></svg>