<svg xmlns="http://www.w3.org/2000/svg" width="24" height="24" fill="none"><path fill="#04071E" d="M2.4 4.2a3 3 0 0 1 3-3h10.8a3 3 0 0 1 3 3v3H18v-3a1.8 1.8 0 0 0-1.8-1.8H5.4a1.8 1.8 0 0 0-1.8 1.8V15a1.8 1.8 0 0 0 1.8 1.8h4.2V18H5.4a3 3 0 0 1-3-3zm4.2 3h6.6a3.6 3.6 0 0 0-2.683 1.2H6.6a.6.6 0 0 1 0-1.2m3.205 2.4H6.6a.6.6 0 0 0 0 1.2h3c0-.42.072-.825.205-1.2M6.6 4.8a.6.6 0 0 0 0 1.2H15a.6.6 0 1 0 0-1.2zm15 6a2.4 2.4 0 0 0-2.4-2.4h-6a2.4 2.4 0 0 0-2.4 2.4v9.6a2.4 2.4 0 0 0 2.4 2.4H21a.6.6 0 1 0 0-1.2h-7.8a1.2 1.2 0 0 1-1.2-1.2v-.004h9a.6.6 0 0 0 .6-.6zM12 19.196V10.8a1.2 1.2 0 0 1 1.2-1.2h6a1.2 1.2 0 0 1 1.2 1.2v8.396z"/><path fill="#04071E" fill-rule="evenodd" d="M5.4 1.35A2.85 2.85 0 0 0 2.55 4.2V15a2.85 2.85 0 0 0 2.85 2.85h4.05v-.9H5.4A1.95 1.95 0 0 1 3.45 15V4.2A1.95 1.95 0 0 1 5.4 2.25h10.8a1.95 1.95 0 0 1 1.95 1.95v2.85h.9V4.2a2.85 2.85 0 0 0-2.85-2.85zM2.25 4.2A3.15 3.15 0 0 1 5.4 1.05h10.8a3.15 3.15 0 0 1 3.15 3.15v3.15h-1.5V4.2a1.65 1.65 0 0 0-1.65-1.65H5.4A1.65 1.65 0 0 0 3.75 4.2V15c0 .911.739 1.65 1.65 1.65h4.35v1.5H5.4A3.15 3.15 0 0 1 2.25 15zm3.6 1.2a.75.75 0 0 1 .75-.75H15a.75.75 0 0 1 0 1.5H6.6a.75.75 0 0 1-.75-.75m.75-.45a.45.45 0 1 0 0 .9H15a.45.45 0 0 0 0-.9zm0 2.4a.45.45 0 0 0 0 .9h3.85a3.8 3.8 0 0 1 1.278-.9zm6.6-.3H6.6a.75.75 0 0 0 0 1.5h3.984l.044-.05A3.44 3.44 0 0 1 13.2 7.35zm-2.55 3.75a2.55 2.55 0 0 1 2.55-2.55h6a2.55 2.55 0 0 1 2.55 2.55v8.996a.75.75 0 0 1-.75.75h-8.84c.071.511.51.904 1.04.904H21a.75.75 0 0 1 0 1.5h-7.8a2.55 2.55 0 0 1-2.55-2.55zm2.55-2.25a2.25 2.25 0 0 0-2.25 2.25v9.6a2.25 2.25 0 0 0 2.25 2.25H21a.45.45 0 0 0 0-.9h-7.8a1.35 1.35 0 0 1-1.35-1.35v-.154H21a.45.45 0 0 0 .45-.45V10.8a2.25 2.25 0 0 0-2.25-2.25zM5.85 10.2a.75.75 0 0 1 .75-.75h3.417l-.07.2c-.128.36-.197.746-.197 1.15v.15H6.6a.75.75 0 0 1-.75-.75m.75-.45a.45.45 0 0 0 0 .9h2.853q.019-.468.146-.9zm6.6 0c-.58 0-1.05.47-1.05 1.05v8.246h8.1V10.8c0-.58-.47-1.05-1.05-1.05zm-1.35 1.05c0-.746.604-1.35 1.35-1.35h6c.746 0 1.35.604 1.35 1.35v8.546h-8.7z" clip-rule="evenodd"/></svg>