<svg xmlns="http://www.w3.org/2000/svg" width="24" height="24" fill="none"><path fill="#04071E" d="M7.2 6a1.2 1.2 0 0 1 1.2-1.2h7.2A1.2 1.2 0 0 1 16.8 6v1.2a1.2 1.2 0 0 1-1.2 1.2H8.4a1.2 1.2 0 0 1-1.2-1.2zm1.2 0v1.2h7.2V6zM4.8 4.8v14.4a2.4 2.4 0 0 0 2.4 2.4h5.109a6.6 6.6 0 0 1-.79-1.2H7.2A1.2 1.2 0 0 1 6 19.2h5.05a6.6 6.6 0 0 1-.222-1.2H6V4.8a1.2 1.2 0 0 1 1.2-1.2h9.6A1.2 1.2 0 0 1 18 4.8v6.027q.619.056 1.2.221V4.8a2.4 2.4 0 0 0-2.4-2.4H7.2a2.4 2.4 0 0 0-2.4 2.4m18 12.6a5.4 5.4 0 1 1-10.8 0 5.4 5.4 0 0 1 10.8 0m-3.176-1.376a.6.6 0 0 0-.848-.848L17.4 16.552l-1.376-1.376a.6.6 0 0 0-.848.848L16.55 17.4l-1.375 1.376a.6.6 0 0 0 .848.848L17.4 18.25l1.376 1.375a.6.6 0 0 0 .848-.848L18.248 17.4z"/><path fill="#04071E" fill-rule="evenodd" d="M4.65 4.8A2.55 2.55 0 0 1 7.2 2.25h9.6a2.55 2.55 0 0 1 2.55 2.55v6.447l-.19-.054a6.4 6.4 0 0 0-1.174-.217l-.136-.012V4.8c0-.58-.47-1.05-1.05-1.05H7.2c-.58 0-1.05.47-1.05 1.05v13.05h4.814l.012.136q.055.605.217 1.173l.054.191H6.16c.072.509.51.9 1.039.9h4.411l.042.082q.324.631.771 1.172l.203.246H7.2a2.55 2.55 0 0 1-2.55-2.55zM7.2 2.55A2.25 2.25 0 0 0 4.95 4.8v14.4a2.25 2.25 0 0 0 2.25 2.25H12a7 7 0 0 1-.572-.9H7.2a1.35 1.35 0 0 1-1.35-1.35v-.15h5.003a7 7 0 0 1-.162-.9H5.85V4.8c0-.746.604-1.35 1.35-1.35h9.6c.745 0 1.35.604 1.35 1.35v5.891q.46.052.9.162V4.8a2.25 2.25 0 0 0-2.25-2.25zm1.2 2.4c-.58 0-1.05.47-1.05 1.05v1.2c0 .58.47 1.05 1.05 1.05h7.2c.58 0 1.05-.47 1.05-1.05V6c0-.58-.47-1.05-1.05-1.05zM7.05 6c0-.746.604-1.35 1.35-1.35h7.2c.746 0 1.35.604 1.35 1.35v1.2a1.35 1.35 0 0 1-1.35 1.35H8.4A1.35 1.35 0 0 1 7.05 7.2zm1.2-.15h7.5v1.5h-7.5zm.3.3v.9h6.9v-.9zm8.85 6a5.25 5.25 0 1 0 0 10.5 5.25 5.25 0 0 0 0-10.5m-5.55 5.25a5.55 5.55 0 1 1 11.1 0 5.55 5.55 0 0 1-11.1 0m6.82-2.33a.75.75 0 1 1 1.06 1.06l-1.27 1.27 1.27 1.27a.75.75 0 1 1-1.06 1.06l-1.27-1.27-1.27 1.27a.75.75 0 1 1-1.06-1.06l1.27-1.27-1.27-1.27a.75.75 0 1 1 1.06-1.06l1.27 1.27zm.848.212a.45.45 0 0 0-.636 0L17.4 16.764l-1.482-1.482a.45.45 0 0 0-.636.636l1.482 1.482-1.482 1.482a.45.45 0 0 0 .636.636l1.482-1.482 1.482 1.482a.45.45 0 0 0 .636-.636L18.036 17.4l1.482-1.482a.45.45 0 0 0 0-.636" clip-rule="evenodd"/></svg>