<svg xmlns="http://www.w3.org/2000/svg" width="24" height="24" fill="none"><path fill="#04071E" d="M18.5 10.255q0 .067-.004.133A1.54 1.54 0 0 0 17.472 10q-.243 0-.472.074V5.75a.75.75 0 0 0-.75-.75h-8.5a.75.75 0 0 0-.75.75v4.505c0 .414.336.75.75.75h8.275l-.009.025-.004.012-.45 1.384-.01.026-.018.053H7.75a2.25 2.25 0 0 1-2.25-2.25V5.75A2.25 2.25 0 0 1 7.75 3.5h3.5v-.75a.75.75 0 0 1 .648-.743L12 2a.75.75 0 0 1 .743.649l.007.101v.75h3.5a2.25 2.25 0 0 1 2.25 2.25zm-5.458 3.781.113-.036H6.253a2.25 2.25 0 0 0-2.25 2.25v.907a3.75 3.75 0 0 0 1.306 2.844c1.563 1.343 3.801 2 6.69 2 2.077 0 3.818-.339 5.214-1.028a1.55 1.55 0 0 1-1.17-1.003l-.003-.012-.03-.093q-1.627.634-4.01.636c-2.56 0-4.455-.556-5.713-1.638a2.25 2.25 0 0 1-.784-1.706v-.907a.75.75 0 0 1 .75-.75H12v-.003a1.54 1.54 0 0 1 1.03-1.456zM11 7.75a1.25 1.25 0 1 0-2.5 0 1.25 1.25 0 0 0 2.5 0M14.242 6.5a1.25 1.25 0 1 1 0 2.499 1.25 1.25 0 0 1 0-2.499m1.846 10.912a2.83 2.83 0 0 0-1.347-.955l-1.378-.448a.544.544 0 0 1 0-1.025l1.378-.448a2.84 2.84 0 0 0 1.759-1.762l.011-.034.448-1.377a.544.544 0 0 1 1.026 0l.448 1.377a2.84 2.84 0 0 0 1.798 1.796l1.378.448.028.007a.544.544 0 0 1 0 1.025l-1.378.448a2.84 2.84 0 0 0-1.798 1.796l-.448 1.377-.013.034a.544.544 0 0 1-1.013-.034l-.448-1.377a2.8 2.8 0 0 0-.45-.848m7.695 3.801-.766-.248a1.58 1.58 0 0 1-.998-.998l-.25-.765a.302.302 0 0 0-.57 0l-.248.764a1.58 1.58 0 0 1-.984.999l-.765.248a.302.302 0 0 0 0 .57l.765.249a1.58 1.58 0 0 1 .999 1.002l.249.764a.302.302 0 0 0 .57 0l.249-.764a1.58 1.58 0 0 1 .999-.999l.765-.248a.302.302 0 0 0 0-.57z"/></svg>