<svg xmlns="http://www.w3.org/2000/svg" width="24" height="24" fill="none"><path fill="#04071E" d="M17.5 12a5.5 5.5 0 1 1 0 11 5.5 5.5 0 0 1 0-11m-5.478 2a6.5 6.5 0 0 0-.709 1.5h-7.06a.75.75 0 0 0-.75.75v.907c0 .656.286 1.279.784 1.706C5.545 19.945 7.44 20.501 10 20.501q.898 0 1.688-.09c.249.5.563.963.929 1.38Q11.414 22 10 22c-2.89 0-5.128-.657-6.691-2a3.75 3.75 0 0 1-1.306-2.844v-.907A2.25 2.25 0 0 1 4.253 14zm5.478 0-.09.007a.5.5 0 0 0-.402.402L17 14.5V17L14.498 17l-.09.008a.5.5 0 0 0-.402.402l-.008.09.008.09a.5.5 0 0 0 .402.402l.09.008H17l.001 2.503.008.09a.5.5 0 0 0 .402.402l.09.008.09-.008a.5.5 0 0 0 .402-.402l.008-.09V18l2.503.001.09-.008a.5.5 0 0 0 .402-.402l.008-.09-.008-.09a.5.5 0 0 0-.402-.402l-.09-.008H18v-2.5l-.008-.09a.5.5 0 0 0-.402-.403zM10 2a.75.75 0 0 1 .743.649l.007.101v.75h3.5a2.25 2.25 0 0 1 2.25 2.25v4.505c0 .3-.06.588-.167.85a6.46 6.46 0 0 0-2.992 1.4H5.75a2.25 2.25 0 0 1-2.25-2.25V5.75A2.25 2.25 0 0 1 5.75 3.5h3.5v-.75a.75.75 0 0 1 .55-.723l.098-.02zm4.25 3h-8.5a.75.75 0 0 0-.75.75v4.505c0 .414.336.75.75.75h8.5a.75.75 0 0 0 .75-.75V5.75a.75.75 0 0 0-.75-.75m-6.5 1.5a1.25 1.25 0 1 1 0 2.499 1.25 1.25 0 0 1 0-2.499m4.492 0a1.25 1.25 0 1 1 0 2.499 1.25 1.25 0 0 1 0-2.499"/></svg>