<svg xmlns="http://www.w3.org/2000/svg" width="24" height="24" fill="none"><path fill="#04071E" d="M17.753 14a2.25 2.25 0 0 1 2.25 2.25v.905A3.75 3.75 0 0 1 18.696 20C17.13 21.344 14.89 22.001 12 22.001s-5.128-.657-6.691-2a3.75 3.75 0 0 1-1.306-2.844v-.907A2.25 2.25 0 0 1 6.253 14zm0 1.5h-11.5a.75.75 0 0 0-.75.75v.907c0 .656.286 1.279.784 1.706C7.545 19.945 9.44 20.501 12 20.501s4.458-.556 5.719-1.639a2.25 2.25 0 0 0 .784-1.707v-.905a.75.75 0 0 0-.75-.75M11.898 2.007 12 2a.75.75 0 0 1 .743.649l.007.101v.75h3.5a2.25 2.25 0 0 1 2.25 2.25v4.505a2.25 2.25 0 0 1-2.25 2.25h-8.5a2.25 2.25 0 0 1-2.25-2.25V5.75A2.25 2.25 0 0 1 7.75 3.5h3.5v-.75a.75.75 0 0 1 .648-.743L12 2zM16.25 5h-8.5a.75.75 0 0 0-.75.75v4.505c0 .414.336.75.75.75h8.5a.75.75 0 0 0 .75-.75V5.75a.75.75 0 0 0-.75-.75m-6.5 1.5a1.25 1.25 0 1 1 0 2.499 1.25 1.25 0 0 1 0-2.499m4.492 0a1.25 1.25 0 1 1 0 2.499 1.25 1.25 0 0 1 0-2.499"/></svg>