<svg xmlns="http://www.w3.org/2000/svg" width="24" height="24" fill="none"><path fill="#04071E" d="M10.591 2.512a3.75 3.75 0 0 1 2.818 0l7.498 3.04A1.75 1.75 0 0 1 22 7.174v5.636a6.5 6.5 0 0 0-1.5-1.078v-3.96l-7.75 2.992v2.299a6.5 6.5 0 0 0-1.5 2.644v-4.944L3.5 7.749v9.078a.25.25 0 0 0 .156.231l7.499 3.04q.047.02.095.036v-.841c.26.906.711 1.73 1.307 2.428a3.75 3.75 0 0 1-1.966-.233l-7.498-3.04A1.75 1.75 0 0 1 2 16.826V7.175a1.75 1.75 0 0 1 1.093-1.622zm2.254 1.39a2.25 2.25 0 0 0-1.69 0l-1.914.776 7.527 2.927 2.669-1.03zm1.846 4.505L7.215 5.499 4.59 6.563l7.411 2.882zM23 17.5a5.5 5.5 0 1 1-11 0 5.5 5.5 0 0 1 11 0m-7.146-2.354a.5.5 0 0 0-.708.708l1.647 1.646-1.647 1.646a.5.5 0 0 0 .708.708l1.646-1.647 1.646 1.647a.5.5 0 0 0 .708-.708L18.207 17.5l1.647-1.646a.5.5 0 0 0-.708-.708L17.5 16.793z"/></svg>