<svg xmlns="http://www.w3.org/2000/svg" width="24" height="24" fill="none"><path fill="#04071E" d="M10.591 2.512a3.75 3.75 0 0 1 2.818 0l7.498 3.04A1.75 1.75 0 0 1 22 7.174v9.653a1.75 1.75 0 0 1-1.093 1.621l-7.498 3.04a3.75 3.75 0 0 1-2.818 0l-7.498-3.04A1.75 1.75 0 0 1 2 16.826V7.175a1.75 1.75 0 0 1 1.093-1.622zm2.254 1.39a2.25 2.25 0 0 0-1.69 0l-1.914.776 7.527 2.927 2.669-1.03zm1.846 4.505L7.215 5.499 4.59 6.563l7.411 2.882zM3.5 16.827a.25.25 0 0 0 .156.231l7.499 3.04q.047.02.095.036v-9.371L3.5 7.749zm9.345 3.271 7.499-3.04a.25.25 0 0 0 .156-.232V7.772l-7.75 2.992v9.37q.048-.016.095-.036"/></svg>