<svg xmlns="http://www.w3.org/2000/svg" width="24" height="24" fill="none"><path fill="#04071E" d="M6.75 20.25A.75.75 0 0 1 6 21a3 3 0 0 1-3-3v-4.5a.75.75 0 0 0-.75-.75.75.75 0 0 1 0-1.5.75.75 0 0 0 .75-.75V6a3 3 0 0 1 3-3 .75.75 0 0 1 0 1.5A1.5 1.5 0 0 0 4.5 6v4.5c0 .576-.216 1.102-.573 1.5.357.398.573.924.573 1.5V18A1.5 1.5 0 0 0 6 19.5a.75.75 0 0 1 .75.75m15-9a.75.75 0 0 1-.75-.75V6a3 3 0 0 0-3-3 .75.75 0 0 0 0 1.5A1.5 1.5 0 0 1 19.5 6v4.5c0 .576.216 1.102.573 1.5a2.25 2.25 0 0 0-.573 1.5V18a1.5 1.5 0 0 1-1.5 1.5.75.75 0 0 0 0 1.5 3 3 0 0 0 3-3v-4.5a.75.75 0 0 1 .75-.75.75.75 0 0 0 0-1.5M18 12a6 6 0 1 1-12 0 6 6 0 0 1 12 0m-1.5 0c0-2.481-2.019-4.5-4.5-4.5A4.505 4.505 0 0 0 7.5 12c0 2.481 2.019 4.5 4.5 4.5s4.5-2.019 4.5-4.5m-2.781-2.031-2.469 2.469-.969-.969a.75.75 0 0 0-1.06 1.06l1.5 1.5a.75.75 0 0 0 1.062 0l3-3a.75.75 0 0 0-1.061-1.06z"/></svg>