<svg xmlns="http://www.w3.org/2000/svg" width="24" height="24" fill="none"><path fill="#04071E" d="M18.6 2.4a3 3 0 1 0 0 6 3 3 0 0 0 0-6m-4.2 3a4.2 4.2 0 1 1 8.4 0 4.2 4.2 0 0 1-8.4 0M3.6 12a4.8 4.8 0 1 1 9.6 0 4.8 4.8 0 0 1-9.6 0m4.8-6a6 6 0 1 0 0 12 6 6 0 0 0 0-12m6.599 15.599a4.2 4.2 0 0 1-3.99-2.886q.57-.223 1.092-.536a3.001 3.001 0 0 0 5.897-.778 3 3 0 0 0-2.81-2.994q.203-.57.307-1.177a4.2 4.2 0 0 1-.496 8.37M9.199 8.64a.6.6 0 1 0-.4 1.131 3.01 3.01 0 0 1 1.83 1.828.6.6 0 0 0 1.131-.4A4.21 4.21 0 0 0 9.2 8.64"/><path fill="#04071E" fill-rule="evenodd" d="M18.6 1.3a4.1 4.1 0 1 0 0 8.2 4.1 4.1 0 0 0 0-8.2m-4.3 4.1a4.3 4.3 0 1 1 8.6 0 4.3 4.3 0 0 1-8.6 0m1.2 0a3.1 3.1 0 1 1 6.2 0 3.1 3.1 0 0 1-6.2 0m3.1-2.9a2.9 2.9 0 1 0 0 5.8 2.9 2.9 0 0 0 0-5.8M2.3 12a6.1 6.1 0 1 1 12.2 0 6.1 6.1 0 0 1-12.2 0m6.1-5.9a5.9 5.9 0 1 0 0 11.8 5.9 5.9 0 0 0 0-11.8m0 1.2a4.7 4.7 0 1 0 0 9.4 4.7 4.7 0 0 0 0-9.4M3.5 12a4.9 4.9 0 1 1 9.8 0 4.9 4.9 0 0 1-9.8 0m4.84-3.027a.7.7 0 0 1 .893-.427 4.31 4.31 0 0 1 2.621 2.62.7.7 0 0 1-1.32.468 2.91 2.91 0 0 0-1.767-1.768.7.7 0 0 1-.427-.893m.826-.238a.5.5 0 1 0-.333.943 3.11 3.11 0 0 1 1.89 1.889.5.5 0 1 0 .943-.334 4.11 4.11 0 0 0-2.5-2.498m6.231 4.476a.1.1 0 0 1 .11-.083 4.3 4.3 0 1 1-4.594 5.616.1.1 0 0 1 .059-.124 7 7 0 0 0 1.077-.528.1.1 0 0 1 .148.06 2.901 2.901 0 0 0 5.701-.753 2.9 2.9 0 0 0-2.716-2.895.1.1 0 0 1-.088-.133q.2-.56.303-1.16m.18.128a7 7 0 0 1-.252.977 3.1 3.1 0 1 1-3.284 4.013q-.436.251-.907.442a4.102 4.102 0 0 0 7.965-1.372 4.1 4.1 0 0 0-3.522-4.06" clip-rule="evenodd"/></svg>