<svg xmlns="http://www.w3.org/2000/svg" width="24" height="24" fill="none"><path fill="#04071E" fill-rule="evenodd" d="M20.224 3.776a.6.6 0 0 1 .176.424v2.4a3 3 0 0 1-3 3h-.6v1.23a6.7 6.7 0 0 0-1.2.226V8.4A2.4 2.4 0 0 0 13.2 6h-2.4a2.4 2.4 0 0 0-2.4 2.4v7.2a3.59 3.59 0 0 0 2.616 3.446c.116.45.28.888.488 1.304A4.783 4.783 0 0 1 7.2 15.6h-.6a1.8 1.8 0 0 0-1.8 1.8v2.4a.6.6 0 0 1-1.2 0v-2.4a3 3 0 0 1 3-3h.6v-1.8H3a.6.6 0 1 1 0-1.2h4.2V9.6h-.6a3 3 0 0 1-3-3V4.2a.6.6 0 0 1 1.2 0v2.4a1.8 1.8 0 0 0 1.8 1.8h.6a3.6 3.6 0 0 1 2.778-3.506A2.4 2.4 0 0 1 9.6 3.6V3a.6.6 0 0 1 1.2 0v.6a1.2 1.2 0 1 0 2.4 0V3a.6.6 0 1 1 1.2 0v.6c0 .459-.13.908-.378 1.294A3.6 3.6 0 0 1 16.8 8.4h.6a1.8 1.8 0 0 0 1.8-1.8V4.2a.6.6 0 0 1 1.024-.424" clip-rule="evenodd"/><path fill="#04071E" fill-rule="evenodd" d="M17.4 12a5.4 5.4 0 1 0 0 10.8 5.4 5.4 0 0 0 0-10.8m-1.348 8.413a3.3 3.3 0 0 0 2.826-.064 3.3 3.3 0 1 0-3.278-5.716V14.4a.6.6 0 0 0-1.2 0v1.646a.6.6 0 0 0 .6.754h1.8a.6.6 0 0 0 0-1.2h-.48a2.1 2.1 0 1 1-.486 3.2.599.599 0 1 0-.894.8c.31.346.688.623 1.112.813" clip-rule="evenodd"/><path stroke="#04071E" stroke-width=".3" d="M20.224 3.776a.6.6 0 0 1 .176.424v2.4a3 3 0 0 1-3 3h-.6v1.23a6.7 6.7 0 0 0-1.2.226V8.4A2.4 2.4 0 0 0 13.2 6h-2.4a2.4 2.4 0 0 0-2.4 2.4v7.2a3.59 3.59 0 0 0 2.616 3.446c.116.45.28.888.488 1.304A4.783 4.783 0 0 1 7.2 15.6h-.6a1.8 1.8 0 0 0-1.8 1.8v2.4a.6.6 0 0 1-1.2 0v-2.4a3 3 0 0 1 3-3h.6v-1.8H3a.6.6 0 1 1 0-1.2h4.2V9.6h-.6a3 3 0 0 1-3-3V4.2a.6.6 0 0 1 1.2 0v2.4a1.8 1.8 0 0 0 1.8 1.8h.6a3.6 3.6 0 0 1 2.778-3.506A2.4 2.4 0 0 1 9.6 3.6V3a.6.6 0 0 1 1.2 0v.6a1.2 1.2 0 1 0 2.4 0V3a.6.6 0 1 1 1.2 0v.6c0 .459-.13.908-.378 1.294A3.6 3.6 0 0 1 16.8 8.4h.6a1.8 1.8 0 0 0 1.8-1.8V4.2a.6.6 0 0 1 1.024-.424Z" clip-rule="evenodd"/><path stroke="#04071E" stroke-width=".3" d="M17.4 12a5.4 5.4 0 1 0 0 10.8 5.4 5.4 0 0 0 0-10.8Zm-1.348 8.413a3.3 3.3 0 0 0 2.826-.064 3.3 3.3 0 1 0-3.278-5.716V14.4a.6.6 0 0 0-1.2 0v1.646a.6.6 0 0 0 .6.754h1.8a.6.6 0 0 0 0-1.2h-.48a2.1 2.1 0 1 1-.486 3.2.599.599 0 1 0-.894.8c.31.346.688.623 1.112.813Z" clip-rule="evenodd"/></svg>