<svg xmlns="http://www.w3.org/2000/svg" width="24" height="24" fill="none"><path fill="#04071E" d="M11.016 19.046c.116.45.28.888.488 1.304A4.783 4.783 0 0 1 7.2 15.6h-.6a1.8 1.8 0 0 0-1.8 1.8v2.4a.6.6 0 0 1-1.2 0v-2.4a3 3 0 0 1 3-3h.6v-1.8H3a.6.6 0 1 1 0-1.2h4.2V9.6h-.6a3 3 0 0 1-3-3V4.2a.6.6 0 0 1 1.2 0v2.4a1.8 1.8 0 0 0 1.8 1.8h.6a3.6 3.6 0 0 1 2.778-3.506A2.4 2.4 0 0 1 9.6 3.6V3a.6.6 0 0 1 1.2 0v.6a1.2 1.2 0 1 0 2.4 0V3a.6.6 0 1 1 1.2 0v.6c0 .459-.13.908-.378 1.294A3.6 3.6 0 0 1 16.8 8.4h.6a1.8 1.8 0 0 0 1.8-1.8V4.2a.6.6 0 1 1 1.2 0v2.4a3 3 0 0 1-3 3h-.6v1.23a6.6 6.6 0 0 0-1.2.226V8.4A2.4 2.4 0 0 0 13.2 6h-2.4a2.4 2.4 0 0 0-2.4 2.4v7.2a3.59 3.59 0 0 0 2.616 3.446M22.8 17.4a5.4 5.4 0 1 1-10.8 0 5.4 5.4 0 0 1 10.8 0m-8.76 2.52 5.88-5.88a4.2 4.2 0 0 0-5.88 5.88m7.56-2.52a4.18 4.18 0 0 0-.84-2.52l-5.88 5.88a4.2 4.2 0 0 0 6.72-3.36"/><path stroke="#04071E" stroke-width=".3" d="M22.8 17.4a5.4 5.4 0 1 1-10.8 0 5.4 5.4 0 0 1 10.8 0Zm0 0Zm-8.76 2.52 5.88-5.88a4.2 4.2 0 0 0-5.88 5.88Zm0 0Zm7.56-2.52a4.18 4.18 0 0 0-.84-2.52l-5.88 5.88a4.2 4.2 0 0 0 6.72-3.36Zm0 0Zm-10.584 1.646c.116.45.28.888.488 1.304A4.783 4.783 0 0 1 7.2 15.6h-.6a1.8 1.8 0 0 0-1.8 1.8v2.4a.6.6 0 0 1-1.2 0v-2.4a3 3 0 0 1 3-3h.6v-1.8H3a.6.6 0 1 1 0-1.2h4.2V9.6h-.6a3 3 0 0 1-3-3V4.2a.6.6 0 0 1 1.2 0v2.4a1.8 1.8 0 0 0 1.8 1.8h.6a3.6 3.6 0 0 1 2.778-3.506A2.4 2.4 0 0 1 9.6 3.6V3a.6.6 0 0 1 1.2 0v.6a1.2 1.2 0 1 0 2.4 0V3a.6.6 0 1 1 1.2 0v.6c0 .459-.13.908-.378 1.294A3.6 3.6 0 0 1 16.8 8.4h.6a1.8 1.8 0 0 0 1.8-1.8V4.2a.6.6 0 1 1 1.2 0v2.4a3 3 0 0 1-3 3h-.6v1.23a6.6 6.6 0 0 0-1.2.226V8.4A2.4 2.4 0 0 0 13.2 6h-2.4a2.4 2.4 0 0 0-2.4 2.4v7.2a3.59 3.59 0 0 0 2.616 3.446Z"/></svg>