<svg xmlns="http://www.w3.org/2000/svg" width="24" height="24" fill="none"><path fill="#04071E" d="m8.039 4.578 2.952 2.558a.75.75 0 0 1 .259.567V15.5h-2.5a.75.75 0 0 0-.75.75v3.25H4.75a.25.25 0 0 1-.25-.25V7.703a.75.75 0 0 1 .259-.567L7.71 4.578a.25.25 0 0 1 .328 0M11.25 17v2.5H9.5V17zm1.5 0h1.75v2.5h-1.75zM16 19.5v-3.25a.75.75 0 0 0-.75-.75h-2.5V7.703a.75.75 0 0 1 .259-.567l2.952-2.558a.25.25 0 0 1 .328 0l2.952 2.558a.75.75 0 0 1 .259.567V19.25a.25.25 0 0 1-.25.25zM4.75 21h14.5A1.75 1.75 0 0 0 21 19.25V7.703a2.25 2.25 0 0 0-.777-1.701l-2.952-2.558a1.75 1.75 0 0 0-2.292 0l-2.952 2.558-.027.023-.027-.023-2.952-2.558a1.75 1.75 0 0 0-2.292 0L3.777 6.002A2.25 2.25 0 0 0 3 7.702V19.25c0 .966.784 1.75 1.75 1.75M8.879 9a1 1 0 1 1-2 0 1 1 0 0 1 2 0m-1 4.997a1 1 0 1 0 0-2 1 1 0 0 0 0 2M16.12 10a1 1 0 1 1 0-2 1 1 0 0 1 0 2m-1 2.997a1 1 0 1 0 2 0 1 1 0 0 0-2 0"/></svg>