<svg xmlns="http://www.w3.org/2000/svg" width="24" height="24" fill="none"><path fill="#04071E" d="M10.502 2.479a.6.6 0 0 1 .596 0l3.817 2.181a1.36 1.36 0 0 1-.515 2.53v2.633a2.4 2.4 0 0 1 1.374 1.912l.948 8.532A1.2 1.2 0 0 1 15.53 21.6H6.07a1.2 1.2 0 0 1-1.192-1.333l.948-8.532A2.4 2.4 0 0 1 7.2 9.823V7.191a1.36 1.36 0 0 1-.515-2.53zm.298 1.212L7.28 5.702A.16.16 0 0 0 7.36 6h6.88a.16.16 0 0 0 .08-.298zm2.598 7.109H8.203a1.2 1.2 0 0 0-1.185 1.067l-.256 2.309 7.844-2.092-.024-.216a1.2 1.2 0 0 0-1.184-1.068M13.2 9.6V7.2H8.4v2.4zm-6.85 8.286 8.644-2.305-.254-2.29-8.12 2.165zm-.142 1.28L6.07 20.4h9.46l-.402-3.613zM17.4 8.4h2.4a.6.6 0 1 0 0-1.2h-2.4a.6.6 0 1 0 0 1.2m1.624-4.624a.6.6 0 0 1 0 .848l-1.2 1.2a.6.6 0 1 1-.848-.848l1.2-1.2a.6.6 0 0 1 .848 0m0 7.2a.6.6 0 0 1-.848.848l-1.2-1.2a.6.6 0 1 1 .848-.848z"/><path fill="#04071E" fill-rule="evenodd" d="M11.023 2.61a.45.45 0 0 0-.446 0L6.759 4.79a1.21 1.21 0 0 0 .458 2.252l.133.015V9.92l-.087.04a2.25 2.25 0 0 0-1.288 1.793l-.948 8.532A1.05 1.05 0 0 0 6.07 21.45h9.46a1.05 1.05 0 0 0 1.043-1.166l-.948-8.532a2.25 2.25 0 0 0-1.288-1.793l-.087-.04V7.057l.133-.015a1.21 1.21 0 0 0 .458-2.251zm-.595-.261a.75.75 0 0 1 .744 0L14.99 4.53a1.51 1.51 0 0 1-.439 2.788V9.73a2.55 2.55 0 0 1 1.373 1.99l.948 8.532c.09.8-.537 1.499-1.341 1.499H6.07c-.804 0-1.43-.7-1.341-1.5l.948-8.532A2.55 2.55 0 0 1 7.05 9.73V7.32a1.51 1.51 0 0 1-.44-2.789zm8.49 1.533a.45.45 0 0 0-.636 0l-1.2 1.2a.45.45 0 0 0 .636.636l1.2-1.2a.45.45 0 0 0 0-.636m.212-.212a.75.75 0 0 1 0 1.06l-1.2 1.2a.75.75 0 1 1-1.06-1.06l1.2-1.2a.75.75 0 0 1 1.06 0m-8.33-.152 3.594 2.054a.31.31 0 0 1-.153.578H7.359a.31.31 0 0 1-.153-.578zm0 .346L7.355 5.833a.01.01 0 0 0 .004.017h6.882a.01.01 0 0 0 .004-.017zM8.25 7.05h5.1v2.7h-5.1zm.3.3v2.1h4.5v-2.1zm8.1.45a.75.75 0 0 1 .75-.75h2.4a.75.75 0 0 1 0 1.5h-2.4a.75.75 0 0 1-.75-.75m.75-.45a.45.45 0 0 0 0 .9h2.4a.45.45 0 0 0 0-.9zm-.318 2.532a.45.45 0 0 0 0 .636l1.2 1.2a.45.45 0 0 0 .636-.636l-1.2-1.2a.45.45 0 0 0-.636 0m-.212-.212a.75.75 0 0 1 1.06 0l1.2 1.2a.75.75 0 1 1-1.06 1.06l-1.2-1.2a.75.75 0 0 1 0-1.06m-8.668.98H13.4a1.35 1.35 0 0 1 1.332 1.2l.038.346-8.18 2.181.28-2.526a1.35 1.35 0 0 1 1.333-1.201m.001.3a1.05 1.05 0 0 0-1.035.934l-.233 2.09 7.507-2.001-.01-.089a1.05 1.05 0 0 0-1.035-.934zm6.667 2.15.288 2.592-8.982 2.395.306-2.75zm-8.112 2.474-.235 2.11 8.308-2.215-.221-1.989zm8.5 1.023.44 3.953H5.902l.167-1.503zm-8.913 2.687-.107.966h9.124l-.364-3.273z" clip-rule="evenodd"/></svg>