<svg xmlns="http://www.w3.org/2000/svg" width="24" height="24" fill="none"><path fill="#04071E" d="M17.25 3A3.75 3.75 0 0 1 21 6.75v.825a3.8 3.8 0 0 0-.75-.075h-.75v-.75a2.25 2.25 0 0 0-2.25-2.25H6.75A2.25 2.25 0 0 0 4.5 6.75v.75h11.25c-1.227 0-2.316.59-3 1.5H4.5v8.25a2.25 2.25 0 0 0 2.25 2.25H12v.75q0 .386.075.75H6.75A3.75 3.75 0 0 1 3 17.25V6.75A3.75 3.75 0 0 1 6.75 3zm-1.125 6a2.625 2.625 0 0 0-2.625 2.625v8.25a2.625 2.625 0 0 0 2.625 2.625h3.75a2.625 2.625 0 0 0 2.625-2.625v-8.25A2.625 2.625 0 0 0 19.875 9zm.375 9.75a.75.75 0 0 1 .75-.75h1.5a.75.75 0 0 1 0 1.5h-1.5a.75.75 0 0 1-.75-.75"/></svg>