<svg xmlns="http://www.w3.org/2000/svg" width="24" height="24" fill="none"><path fill="#04071E" d="M1.5 5.25A3.75 3.75 0 0 1 5.25 1.5h7.5a3.75 3.75 0 0 1 3.75 3.75V9H15V6H3v6.75A2.25 2.25 0 0 0 5.25 15H6v1.5h-.75a3.75 3.75 0 0 1-3.75-3.75zM5.25 3a2.25 2.25 0 0 0-2.122 1.5h11.744A2.25 2.25 0 0 0 12.75 3zm2.25 9.75a2.25 2.25 0 0 1 2.25-2.25h10.5a2.25 2.25 0 0 1 2.25 2.25v7.5a2.25 2.25 0 0 1-2.25 2.25H9.75a2.25 2.25 0 0 1-2.25-2.25zM9.75 12a.75.75 0 0 0-.75.75v.662l6 3 6-3v-.662a.75.75 0 0 0-.75-.75zM9 20.25c0 .414.336.75.75.75h10.5a.75.75 0 0 0 .75-.75v-5.161l-5.665 2.832a.75.75 0 0 1-.67 0L9 15.089z"/></svg>