<svg xmlns="http://www.w3.org/2000/svg" width="24" height="24" fill="none"><path fill="#04071E" d="M21 6.75A3.75 3.75 0 0 0 17.25 3H6.75A3.75 3.75 0 0 0 3 6.75v1.887A6.7 6.7 0 0 1 6.75 7.5c1.607 0 3.084.562 4.243 1.5H19.5v8.25a2.25 2.25 0 0 1-2.25 2.25h-2.068l.659.659c.246.246.423.534.53.841h.879A3.75 3.75 0 0 0 21 17.25zM6.75 7.5H4.5v-.75A2.25 2.25 0 0 1 6.75 4.5h10.5a2.25 2.25 0 0 1 2.25 2.25v.75zm3.144 10.955a5.25 5.25 0 1 1 1.06-1.06l3.826 3.825a.75.75 0 0 1-1.06 1.06zm.606-4.205a3.75 3.75 0 1 0-7.5 0 3.75 3.75 0 0 0 7.5 0"/></svg>