<svg xmlns="http://www.w3.org/2000/svg" width="24" height="24" fill="none"><path fill="#04071E" d="M17.4 3.6a3 3 0 0 1 3 3v5.9a6 6 0 0 0-1.2-.38V8.4H4.8v9a1.8 1.8 0 0 0 1.8 1.8h5.52q.129.627.38 1.2H6.6a3 3 0 0 1-3-3V6.6a3 3 0 0 1 3-3zm0 1.2H6.6a1.8 1.8 0 0 0-1.8 1.8v.6h14.4v-.6a1.8 1.8 0 0 0-1.8-1.8m.602 9.6a3.602 3.602 0 1 0 0 7.204c.552 0 1.068-.126 1.54-.351a.6.6 0 0 1 .516 1.083 4.75 4.75 0 0 1-2.056.468 4.802 4.802 0 1 1 4.802-4.807v.601a1.802 1.802 0 0 1-3.176 1.166 2.4 2.4 0 1 1-.227-3.712.6.6 0 0 1 .999.448v2.098a.602.602 0 1 0 1.204 0v-.596a3.6 3.6 0 0 0-3.602-3.602M16.8 18a1.2 1.2 0 1 0 2.4 0 1.2 1.2 0 0 0-2.4 0"/><path fill="#04071E" fill-rule="evenodd" d="M6.6 3.75A2.85 2.85 0 0 0 3.75 6.6v10.8a2.85 2.85 0 0 0 2.85 2.85h5.675a6 6 0 0 1-.276-.9h-5.4a1.95 1.95 0 0 1-1.95-1.95V8.25H19.35v3.749q.465.104.9.276V6.6a2.85 2.85 0 0 0-2.85-2.85zM3.45 6.6A3.15 3.15 0 0 1 6.6 3.45h10.8a3.15 3.15 0 0 1 3.15 3.15v6.129l-.21-.092a5.8 5.8 0 0 0-1.17-.37l-.12-.024V8.55H4.95v8.85c0 .911.739 1.65 1.65 1.65h5.643l.024.12q.125.611.37 1.17l.091.21H6.6a3.15 3.15 0 0 1-3.15-3.15zm1.2 0A1.95 1.95 0 0 1 6.6 4.65h10.8a1.95 1.95 0 0 1 1.95 1.95v.75H4.65zM6.6 4.95A1.65 1.65 0 0 0 4.95 6.6v.45h14.1V6.6a1.65 1.65 0 0 0-1.65-1.65zm11.402 8.4a4.652 4.652 0 1 0 0 9.304c.716 0 1.386-.165 1.992-.454a.45.45 0 0 0-.388-.812c-.49.234-1.029.366-1.604.366a3.752 3.752 0 1 1 3.752-3.752v.596a.752.752 0 0 1-1.504 0V16.5a.45.45 0 0 0-.749-.336l-.09.08-.097-.07a2.25 2.25 0 1 0 .212 3.48l.115-.107.101.12a1.652 1.652 0 0 0 2.911-1.069v-.601a4.65 4.65 0 0 0-4.651-4.647m-4.952 4.652a4.952 4.952 0 0 1 9.904-.005v.601a1.952 1.952 0 0 1-3.338 1.374 2.55 2.55 0 1 1-.219-4.106.75.75 0 0 1 1.152.633v2.099a.452.452 0 1 0 .905 0v-.596a3.452 3.452 0 1 0-3.452 3.452 3.4 3.4 0 0 0 1.475-.337.75.75 0 1 1 .646 1.354 4.9 4.9 0 0 1-2.121.483 4.95 4.95 0 0 1-4.952-4.952m3.6-.002a1.35 1.35 0 1 1 2.7 0 1.35 1.35 0 0 1-2.7 0M18 16.95a1.05 1.05 0 1 0 0 2.1 1.05 1.05 0 0 0 0-2.1" clip-rule="evenodd"/></svg>