<svg xmlns="http://www.w3.org/2000/svg" width="24" height="24" fill="none"><path fill="#04071E" d="M21 6.75A3.75 3.75 0 0 0 17.25 3H6.75A3.75 3.75 0 0 0 3 6.75v10.5A3.75 3.75 0 0 0 6.75 21h2.636a8.3 8.3 0 0 1-.986-1.5H6.75a2.25 2.25 0 0 1-2.25-2.25V9h6.505a8.2 8.2 0 0 1 4.745-1.5c1.994 0 3.824.708 5.25 1.886zm-5.25.75H4.5v-.75A2.25 2.25 0 0 1 6.75 4.5h10.5a2.25 2.25 0 0 1 2.25 2.25v.75zm-.937 5.25a.937.937 0 1 1 1.874 0 .937.937 0 0 1-1.875 0m1.687 6a.75.75 0 0 1-1.5 0v-3a.75.75 0 0 1 1.5 0zm-7.5-3a6.75 6.75 0 1 1 13.5 0 6.75 6.75 0 0 1-13.5 0m1.5 0a5.25 5.25 0 1 0 10.5 0 5.25 5.25 0 0 0-10.5 0"/></svg>