<svg xmlns="http://www.w3.org/2000/svg" width="24" height="24" fill="none"><path fill="#04071E" d="m15.238 1.684-4.381 8.646c-.416.822.19 1.789 1.122 1.789h8.765c.933 0 1.539-.967 1.122-1.79l-4.385-8.646c-.462-.911-1.782-.91-2.243 0m1.748 2.399v3.709c0 .341-.28.618-.627.618a.623.623 0 0 1-.627-.618v-3.71c0-.34.28-.618.627-.618.346 0 .627.277.627.619m-.627 6.8a.623.623 0 0 1-.627-.618c0-.342.28-.619.627-.619.346 0 .627.277.627.619s-.28.618-.627.618m-12.463-8.1c1.07-.591 2.434-.73 3.74-.404a2.41 2.41 0 0 1 1.502 1.125l1.218 2.094a3.06 3.06 0 0 1-.83 4.002l-.754.56c-.354.264-.5.637-.428.952.23 1.004.735 1.935 1.443 2.62.211.205.583.276.987.123l.835-.314c1.452-.548 3.092.037 3.852 1.375l1.194 2.104c.33.58.385 1.274.151 1.897-.465 1.24-1.36 2.238-2.461 2.739-1.12.508-2.43.488-3.615-.292-1.876-1.234-4.138-3.31-6.186-6.772-2.075-3.507-2.599-6.494-2.54-8.72.038-1.425.803-2.489 1.892-3.09m.611 1.077c-.735.406-1.225 1.09-1.25 2.045-.053 1.993.41 4.754 2.369 8.065 1.952 3.3 4.082 5.236 5.8 6.366.8.527 1.647.537 2.394.198.765-.348 1.447-1.076 1.81-2.045.108-.285.082-.601-.068-.866l-1.194-2.103a1.89 1.89 0 0 0-2.312-.825l-.834.314c-.727.274-1.66.238-2.313-.395-.894-.866-1.51-2.016-1.788-3.23-.204-.895.246-1.726.896-2.21l.754-.56c.755-.563.969-1.591.498-2.401L8.051 4.119a1.16 1.16 0 0 0-.724-.542c-1.036-.259-2.065-.133-2.82.283"/></svg>