<svg xmlns="http://www.w3.org/2000/svg" width="24" height="24" fill="none"><path fill="#04071E" d="M22.8 6.6a5.4 5.4 0 1 0-10.8 0 5.4 5.4 0 0 0 10.8 0m-5.4 2.256a.75.75 0 1 1 0 1.5.75.75 0 0 1 0-1.5m0-5.852c1.237 0 2.224 1.015 2.224 2.34 0 .702-.257 1.089-.873 1.582l-.332.257c-.295.233-.395.36-.415.538l-.014.187A.6.6 0 0 1 16.8 7.8c0-.685.252-1.06.859-1.546l.334-.258c.346-.275.431-.41.431-.652 0-.67-.457-1.14-1.024-1.14-.592 0-1.03.439-1.024 1.134a.6.6 0 0 1-1.2.011c-.013-1.364.966-2.345 2.224-2.345"/><path fill="#04071E" d="M17.814 13.187a6.7 6.7 0 0 1-1.302-.046L12.6 19.814v-6.775a1.2 1.2 0 1 0-1.2 0v6.775L7.46 13.09a1.8 1.8 0 0 1-.075-1.68L9.38 7.2h1.447a6.7 6.7 0 0 1 0-1.2H7.8a.6.6 0 0 1-.6-.6V3A.6.6 0 0 0 6 3v2.4a1.8 1.8 0 0 0 1.8 1.8h.252l-1.751 3.696a3 3 0 0 0 .123 2.802l4.155 7.088a1.647 1.647 0 0 0 2.842 0l4.155-7.088q.145-.247.238-.51"/><path fill="#04071E" fill-rule="evenodd" d="M17.4 1.35a5.25 5.25 0 1 0 0 10.5 5.25 5.25 0 0 0 0-10.5M11.85 6.6a5.55 5.55 0 1 1 11.1 0 5.55 5.55 0 0 1-11.1 0M6.6 2.55a.45.45 0 0 0-.45.45v2.4c0 .911.739 1.65 1.65 1.65h.489l-1.852 3.91a2.85 2.85 0 0 0 .116 2.662l4.155 7.088a1.497 1.497 0 0 0 2.584 0l4.155-7.088q.079-.134.141-.275a7 7 0 0 1-.997-.045l-4.14 7.064v-7.413l.074-.043a1.05 1.05 0 1 0-1.05 0l.075.043v7.413l-4.22-7.2a1.95 1.95 0 0 1-.08-1.82L9.285 7.05h1.38a7 7 0 0 1 0-.9H7.8a.75.75 0 0 1-.75-.75V3a.45.45 0 0 0-.45-.45M5.85 3a.75.75 0 1 1 1.5 0v2.4c0 .249.202.45.45.45h3.191l-.015.163a6.5 6.5 0 0 0 0 1.174l.015.163H9.475L7.52 11.475a1.65 1.65 0 0 0 .068 1.54l3.661 6.246v-6.138a1.349 1.349 0 0 1 1.147-2.414A1.35 1.35 0 0 1 13.35 12c0 .468-.238.88-.6 1.123v6.138l3.683-6.282.099.013a6.5 6.5 0 0 0 1.273.045l.227-.014-.076.215q-.1.277-.25.536l-4.155 7.088a1.797 1.797 0 0 1-3.101 0l-4.155-7.088a3.15 3.15 0 0 1-.13-2.942l1.65-3.482H7.8A1.95 1.95 0 0 1 5.85 5.4zm9.176 2.35c-.014-1.443 1.03-2.496 2.374-2.496 1.326 0 2.374 1.088 2.374 2.49 0 .37-.068.67-.225.944-.155.27-.39.504-.704.755l-.002.001-.331.257c-.291.23-.345.324-.358.434l-.015.192-.001.008A.75.75 0 0 1 16.65 7.8c0-.362.067-.655.222-.923.153-.264.385-.493.693-.74l.002-.001.332-.257c.171-.136.263-.227.314-.304a.4.4 0 0 0 .061-.231c0-.599-.401-.99-.874-.99a.84.84 0 0 0-.627.259c-.152.164-.25.408-.247.723a.75.75 0 1 1-1.5.015M17.4 3.155c-1.17 0-2.086.909-2.074 2.194a.45.45 0 0 0 .9-.009c-.004-.38.115-.702.328-.93.213-.23.511-.355.846-.355.661 0 1.174.55 1.174 1.29a.7.7 0 0 1-.11.396c-.08.12-.204.235-.378.374h-.002l-.332.258c-.298.238-.495.44-.62.655-.123.213-.182.45-.182.773a.45.45 0 0 0 .891.089l.014-.185c.028-.243.174-.404.47-.639h.002l.331-.257c.302-.242.503-.448.63-.67.126-.218.186-.463.186-.794 0-1.248-.926-2.19-2.074-2.19m-.9 6.452a.9.9 0 1 1 1.8 0 .9.9 0 0 1-1.8 0m.9-.6a.6.6 0 1 0 0 1.2.6.6 0 0 0 0-1.2" clip-rule="evenodd"/></svg>