<svg xmlns="http://www.w3.org/2000/svg" width="24" height="24" fill="none"><path fill="#04071E" d="m9.525 3.572.902 2.005a2.75 2.75 0 0 1-.633 3.14L8.3 10.11a.25.25 0 0 0-.078.155c-.044.397.225 1.17.845 2.245.451.78.86 1.329 1.207 1.637.242.214.375.261.432.244l2.01-.614a2.75 2.75 0 0 1 3.035 1.02l1.28 1.775a2.75 2.75 0 0 1-.339 3.606l-.886.84a3.75 3.75 0 0 1-3.587.889c-2.754-.77-5.223-3.093-7.435-6.924-2.215-3.837-2.992-7.141-2.276-9.913a3.75 3.75 0 0 1 2.548-2.652l1.167-.352a2.75 2.75 0 0 1 3.302 1.506m-2.869-.07-1.167.352A2.25 2.25 0 0 0 3.96 5.445c-.602 2.332.087 5.26 2.123 8.788 2.033 3.522 4.222 5.582 6.54 6.229a2.25 2.25 0 0 0 2.151-.534l.887-.84a1.25 1.25 0 0 0 .154-1.638l-1.28-1.775a1.25 1.25 0 0 0-1.38-.464l-2.015.616c-1.17.349-2.232-.593-3.372-2.567C7 11.929 6.642 10.9 6.731 10.098c.047-.415.24-.8.546-1.085l1.494-1.394a1.25 1.25 0 0 0 .288-1.427l-.902-2.005a1.25 1.25 0 0 0-1.5-.685M14.75 2h2.496C19.636 2 21 3.136 21 5.25c0 2.044-1.276 3.173-3.519 3.243l-.235.004H15.5v2.76a.75.75 0 0 1-1.493.1l-.007-.1V2.75a.75.75 0 0 1 .648-.743zh2.496zm2.496 1.5H15.5v3.497h1.747c1.615.001 2.253-.529 2.253-1.747 0-1.168-.586-1.705-2.057-1.747z"/></svg>