<svg xmlns="http://www.w3.org/2000/svg" width="24" height="24" fill="none"><path fill="#04071E" d="m6.223 2.066-1.167.352A3.75 3.75 0 0 0 2.508 5.07c-.716 2.772.06 6.076 2.276 9.913 2.212 3.83 4.68 6.155 7.435 6.924a3.75 3.75 0 0 0 3.587-.89l.886-.839a2.75 2.75 0 0 0 .34-3.606l-1.281-1.775a2.75 2.75 0 0 0-3.035-1.02l-2.01.614c-.057.017-.19-.03-.432-.244-.348-.308-.756-.856-1.207-1.637-.62-1.075-.89-1.848-.845-2.245a.25.25 0 0 1 .078-.155l1.494-1.394a2.75 2.75 0 0 0 .633-3.139l-.902-2.005a2.75 2.75 0 0 0-3.302-1.506M3.96 5.446a2.25 2.25 0 0 1 1.53-1.592l1.166-.352a1.25 1.25 0 0 1 1.501.685l.902 2.005A1.25 1.25 0 0 1 8.77 7.62L7.277 9.013c-.306.285-.5.67-.546 1.085-.09.802.269 1.83 1.037 3.162 1.14 1.974 2.202 2.916 3.372 2.567l2.015-.616a1.25 1.25 0 0 1 1.38.464l1.28 1.775a1.25 1.25 0 0 1-.154 1.639l-.887.84a2.25 2.25 0 0 1-2.152.533c-2.317-.647-4.506-2.707-6.54-6.23-2.035-3.526-2.724-6.455-2.122-8.787M14 2.75a.75.75 0 0 1 .75-.75h6.5a.75.75 0 0 1 .75.75v6.5a.75.75 0 0 1-1.5 0V4.56l-3.97 3.97a.75.75 0 1 1-1.06-1.06l3.97-3.97h-4.69a.75.75 0 0 1-.75-.75m0 8a.75.75 0 1 0 0-1.5.75.75 0 0 0 0 1.5M12.75 12a.75.75 0 1 1-1.5 0 .75.75 0 0 1 1.5 0"/></svg>