<svg xmlns="http://www.w3.org/2000/svg" width="24" height="24" fill="none"><path fill="#04071E" d="M12 2.4c3.998-.005 6.703 1.53 8.585 3.192.792.699 1.154 1.75.966 2.736l-.19.995c-.177.932-1.048 1.558-2.036 1.463l-1.965-.19c-.856-.082-1.491-.708-1.76-1.596-.365-1.206-.6-2.1-.6-2.1-.897-.368-1.783-.6-3-.6-1.216 0-2.085.258-3 .6 0 0-.245.895-.6 2.1-.237.805-.605 1.508-1.444 1.592l-1.953.197c-.975.098-1.91-.522-2.187-1.45l-.297-.996c-.296-.99-.032-2.033.693-2.736C4.922 3.947 8.008 2.405 12 2.4m4.17 4.232.03.114.119.43c.103.367.25.884.43 1.476.163.541.466.725.726.75l1.965.19c.415.04.69-.213.743-.494l.19-.994c.105-.557-.097-1.185-.582-1.613C18.08 4.982 15.649 3.595 12 3.6c-3.69.005-6.474 1.43-7.953 2.868-.395.383-.55.957-.38 1.532l.298.995c.11.368.505.641.917.6l1.953-.197c.047-.004.062-.014.065-.015a.2.2 0 0 0 .06-.06c.084-.106.183-.307.288-.662a139 139 0 0 0 .55-1.923l.033-.116c.123-.44.55-.747.748-.846.983-.368 2.003-.676 3.42-.676 1.398 0 2.44.273 3.455.69.182.075.579.341.706.805l.002.009zM17.4 16.2a5.4 5.4 0 1 1-10.8 0 5.4 5.4 0 0 1 10.8 0m-5.4-3a.6.6 0 0 0-.6.6v2.4a.6.6 0 1 0 1.2 0v-2.4a.6.6 0 0 0-.6-.6m0 6.15a.75.75 0 1 0 0-1.5.75.75 0 0 0 0 1.5"/><path fill="#04071E" fill-rule="evenodd" d="M20.486 5.704C18.626 4.062 15.953 2.544 12 2.55c-3.954.005-7.003 1.532-8.684 3.165-.683.663-.933 1.647-.653 2.585l.297.995c.256.859 1.123 1.435 2.028 1.344l1.953-.196c.736-.074 1.079-.683 1.315-1.485a140 140 0 0 0 .556-1.94l.032-.117.011-.04.02-.075.072-.026c.924-.346 1.811-.61 3.053-.61 1.24 0 2.145.237 3.057.611l.07.029.018.072.003.01.008.03.031.118.12.438c.105.373.254.897.436 1.499.256.844.85 1.414 1.631 1.49l1.966.19c.915.088 1.712-.491 1.874-1.342l.19-.995c.178-.933-.165-1.93-.919-2.596M9.123 7.014l-.023.085a112 112 0 0 1-.557 1.943c-.238.808-.631 1.605-1.573 1.7l-1.953.196c-1.046.105-2.048-.559-2.346-1.557l-.297-.995c-.31-1.042-.034-2.143.732-2.887C4.846 3.811 7.97 2.255 12 2.25c4.042-.005 6.78 1.55 8.684 3.23.83.732 1.213 1.836 1.015 2.876l-.19.995c-.193 1.014-1.14 1.687-2.198 1.584l-1.965-.19c-.931-.09-1.607-.77-1.89-1.701a71 71 0 0 1-.558-1.946l-.024-.087A7.25 7.25 0 0 0 12 6.451c-1.16 0-1.996.237-2.876.563m2.877-3.564c3.691-.005 6.158 1.4 7.889 2.929.523.462.746 1.143.63 1.753l-.19.995c-.068.36-.415.661-.904.614l-1.965-.19c-.332-.032-.678-.268-.856-.855a70 70 0 0 1-.549-1.911l-.03-.114-.008-.029-.002-.007c-.11-.404-.461-.642-.618-.706-1-.41-2.022-.679-3.398-.679-1.388 0-2.388.3-3.36.664a1.6 1.6 0 0 0-.357.264 1.1 1.1 0 0 0-.307.484l-.032.116-.122.435c-.104.372-.253.893-.43 1.49-.105.361-.211.584-.312.713a.4.4 0 0 1-.104.096l-.075-.13.077.13h-.002a.3.3 0 0 1-.125.036l-1.953.196a1.03 1.03 0 0 1-1.076-.706l-.297-.995c-.187-.627-.017-1.26.418-1.683 1.508-1.465 4.33-2.905 8.058-2.91m7.69 3.154c-1.688-1.49-4.086-2.859-7.69-2.854-3.652.005-6.398 1.416-7.849 2.825-.353.343-.495.86-.34 1.382l.298.995a.73.73 0 0 0 .758.493L6.82 9.25h.008l.015-.019c.066-.083.158-.262.261-.611a139 139 0 0 0 .55-1.921l.032-.116c.071-.254.227-.463.386-.618.158-.156.327-.266.44-.322l.007-.004.007-.002c.992-.371 2.031-.686 3.473-.686 1.421 0 2.481.278 3.512.701.209.086.65.38.793.905v.001l.003.008.007.028.03.114q.041.152.119.428c.102.367.249.882.428 1.474.15.494.41.625.598.643l1.965.19c.34.033.542-.17.58-.372l.19-.995c.096-.502-.087-1.077-.534-1.471M12 10.95a5.25 5.25 0 1 0 0 10.5 5.25 5.25 0 0 0 0-10.5M6.45 16.2a5.55 5.55 0 1 1 11.1 0 5.55 5.55 0 0 1-11.1 0m4.8-2.4a.75.75 0 0 1 1.5 0v2.4a.75.75 0 0 1-1.5 0zm.75-.45a.45.45 0 0 0-.45.45v2.4a.45.45 0 0 0 .9 0v-2.4a.45.45 0 0 0-.45-.45m-.9 5.25a.9.9 0 1 1 1.8 0 .9.9 0 0 1-1.8 0m.9-.6a.6.6 0 1 0 0 1.2.6.6 0 0 0 0-1.2" clip-rule="evenodd"/></svg>