<svg xmlns="http://www.w3.org/2000/svg" width="24" height="24" fill="none"><path fill="#04071E" d="M7.842 2.54c-1.25-.317-2.556-.182-3.58.391-1.044.584-1.776 1.617-1.812 3.002-.057 2.162.444 5.063 2.432 8.47 1.962 3.362 4.128 5.378 5.925 6.577 1.135.757 2.39.777 3.461.283 1.055-.486 1.912-1.456 2.358-2.66a2.2 2.2 0 0 0-.145-1.843l-1.144-2.043a3 3 0 0 0-3.69-1.336l-.798.305c-.387.148-.743.08-.945-.118-.679-.667-1.163-1.571-1.383-2.546-.07-.306.071-.668.41-.924l.722-.545a3 3 0 0 0 .795-3.887L9.282 3.632a2.32 2.32 0 0 0-1.44-1.092M3.65 5.964c.025-.927.494-1.592 1.198-1.986.722-.404 1.708-.526 2.7-.275.294.074.544.264.694.526l1.166 2.034a1.8 1.8 0 0 1-.477 2.332l-.721.545c-.623.47-1.055 1.277-.859 2.146.266 1.18.856 2.296 1.713 3.138.625.614 1.518.65 2.215.383l.799-.305a1.8 1.8 0 0 1 2.213.801l1.144 2.043c.144.258.168.565.066.84-.348.942-1.001 1.65-1.734 1.987-.716.33-1.526.32-2.293-.192-1.645-1.097-3.685-2.978-5.555-6.183C4.042 10.582 3.598 7.9 3.65 5.964m11.642-3.489a.6.6 0 0 0-.582 1.05l.46.255a10.2 10.2 0 0 1 5.196 7.902l.038.378a.6.6 0 0 0 1.194-.12l-.038-.377a11.4 11.4 0 0 0-5.807-8.832zm-1.405 3.216a.6.6 0 0 1 .823-.206l.149.09a7.8 7.8 0 0 1 3.68 5.406l.054.32a.6.6 0 1 1-1.184.198l-.053-.32a6.6 6.6 0 0 0-3.115-4.575l-.149-.09a.6.6 0 0 1-.205-.823"/><path fill="#04071E" fill-rule="evenodd" d="M4.188 2.8c1.062-.594 2.41-.73 3.691-.406.648.164 1.201.584 1.533 1.164l1.166 2.034a3.15 3.15 0 0 1-.835 4.08l-.721.545c-.303.229-.408.535-.355.772.214.95.686 1.827 1.342 2.471.15.148.44.219.787.086l.798-.305a3.15 3.15 0 0 1 3.874 1.403l1.144 2.043c.337.602.394 1.321.154 1.968-.457 1.237-1.34 2.24-2.435 2.744-1.116.515-2.426.493-3.608-.294-1.815-1.212-3.998-3.244-5.97-6.627-2.002-3.43-2.51-6.36-2.453-8.549.037-1.442.803-2.521 1.888-3.129m3.618-.115c-1.218-.308-2.485-.175-3.472.377-1 .56-1.7 1.547-1.734 2.875-.056 2.133.438 5.007 2.411 8.39 1.95 3.343 4.101 5.342 5.879 6.528 1.09.726 2.288.745 3.316.272 1.014-.468 1.846-1.405 2.279-2.576a2.06 2.06 0 0 0-.134-1.717l-1.145-2.044a2.85 2.85 0 0 0-3.504-1.27l-.8.306c-.427.164-.85.098-1.104-.152-.7-.688-1.198-1.619-1.423-2.619-.085-.375.09-.794.466-1.077l.722-.545a2.85 2.85 0 0 0 .755-3.692L9.152 3.707a2.17 2.17 0 0 0-1.346-1.022m6.538-.05a.75.75 0 0 1 1.02-.29l.46.255a11.55 11.55 0 0 1 5.884 8.948l.038.377a.75.75 0 0 1-1.492.15l-.038-.378a10.05 10.05 0 0 0-5.12-7.785l-.46-.256a.75.75 0 0 1-.292-1.02m.875-.028a.45.45 0 0 0-.438.786l.461.256a10.35 10.35 0 0 1 5.272 8.018l.038.378a.45.45 0 1 0 .896-.09l-.038-.378a11.25 11.25 0 0 0-5.73-8.714zM7.51 3.848c-.96-.243-1.906-.122-2.59.261-.662.37-1.099.988-1.122 1.86-.05 1.907.387 4.56 2.249 7.753 1.858 3.186 3.882 5.05 5.508 6.135.721.481 1.476.49 2.147.18.693-.32 1.32-.993 1.657-1.902a.86.86 0 0 0-.056-.715l-1.145-2.043a1.65 1.65 0 0 0-2.029-.735l-.799.305c-.734.281-1.694.25-2.373-.416-.88-.864-1.482-2.007-1.754-3.212-.212-.94.256-1.802.914-2.299l.722-.544c.663-.501.85-1.417.437-2.138L8.111 4.304a.97.97 0 0 0-.6-.456m-2.737 0c.76-.426 1.786-.55 2.81-.29.333.084.617.3.787.597l1.166 2.034a1.95 1.95 0 0 1-.517 2.526L8.3 9.26c-.588.444-.982 1.196-.802 1.994.26 1.154.836 2.244 1.67 3.064.573.562 1.398.602 2.057.35l.799-.306a1.95 1.95 0 0 1 2.398.869l1.144 2.043c.166.296.193.649.076.966-.36.974-1.04 1.714-1.812 2.07-.76.351-1.626.34-2.44-.203-1.664-1.11-3.719-3.008-5.6-6.233-1.89-3.24-2.34-5.948-2.29-7.913.026-.984.528-1.695 1.275-2.112m9.858 1.766a.45.45 0 1 0-.463.772l.148.09a6.75 6.75 0 0 1 3.186 4.678l.053.32a.45.45 0 0 0 .888-.148l-.053-.32a7.65 7.65 0 0 0-3.61-5.303zm-.875 0a.75.75 0 0 1 1.029-.257l.149.09a7.95 7.95 0 0 1 3.751 5.51l.054.32a.75.75 0 1 1-1.48.246l-.053-.32a6.45 6.45 0 0 0-3.044-4.47l-.149-.09a.75.75 0 0 1-.257-1.029" clip-rule="evenodd"/></svg>