<svg xmlns="http://www.w3.org/2000/svg" width="24" height="24" fill="none"><path fill="#04071E" d="M17.4 12a5.4 5.4 0 1 0 0-10.8 5.4 5.4 0 0 0 0 10.8m2.824-6.776-3.6 3.6a.6.6 0 0 1-.848 0l-1.2-1.2a.6.6 0 0 1 .848-.848l.776.775 3.176-3.175a.6.6 0 0 1 .848.848"/><path fill="#04071E" d="M17.814 13.187a6.7 6.7 0 0 1-1.302-.046L12.6 19.814v-6.775a1.2 1.2 0 1 0-1.2 0v6.775L7.46 13.09a1.8 1.8 0 0 1-.075-1.68L9.38 7.2h1.447a6.7 6.7 0 0 1 0-1.2H7.8a.6.6 0 0 1-.6-.6V3A.6.6 0 0 0 6 3v2.4a1.8 1.8 0 0 0 1.8 1.8h.252l-1.751 3.696a3 3 0 0 0 .123 2.802l4.155 7.088a1.647 1.647 0 0 0 2.842 0l4.155-7.088q.145-.247.238-.51"/><path fill="#04071E" fill-rule="evenodd" d="M17.4 1.35a5.25 5.25 0 1 0 0 10.5 5.25 5.25 0 0 0 0-10.5M11.85 6.6a5.55 5.55 0 1 1 11.1 0 5.55 5.55 0 0 1-11.1 0M6.6 2.55a.45.45 0 0 0-.45.45v2.4c0 .911.739 1.65 1.65 1.65h.489l-1.852 3.91a2.85 2.85 0 0 0 .116 2.662l4.155 7.088a1.497 1.497 0 0 0 2.584 0l4.155-7.088q.079-.134.141-.275a7 7 0 0 1-.997-.045l-4.14 7.064v-7.413l.074-.043a1.05 1.05 0 1 0-1.05 0l.075.043v7.413l-4.22-7.2a1.95 1.95 0 0 1-.08-1.82L9.285 7.05h1.38a7 7 0 0 1 0-.9H7.8a.75.75 0 0 1-.75-.75V3a.45.45 0 0 0-.45-.45M5.85 3a.75.75 0 1 1 1.5 0v2.4c0 .249.202.45.45.45h3.191l-.015.163a6.5 6.5 0 0 0 0 1.174l.015.163H9.475L7.52 11.475a1.65 1.65 0 0 0 .068 1.54l3.661 6.246v-6.138a1.349 1.349 0 0 1 1.147-2.414A1.35 1.35 0 0 1 13.35 12c0 .468-.238.88-.6 1.123v6.138l3.683-6.282.099.013a6.5 6.5 0 0 0 1.273.045l.227-.014-.076.215q-.1.277-.25.536l-4.155 7.088a1.797 1.797 0 0 1-3.101 0l-4.155-7.088a3.15 3.15 0 0 1-.13-2.942l1.65-3.482H7.8A1.95 1.95 0 0 1 5.85 5.4zm14.268 1.482a.45.45 0 0 0-.636 0L16.2 7.764l-.882-.882a.45.45 0 1 0-.636.636l1.2 1.2a.45.45 0 0 0 .636 0l3.6-3.6a.45.45 0 0 0 0-.636m-.848-.212a.75.75 0 1 1 1.06 1.06l-3.6 3.6a.75.75 0 0 1-1.06 0l-1.2-1.2a.75.75 0 0 1 1.06-1.06l.67.67z" clip-rule="evenodd"/></svg>