<svg xmlns="http://www.w3.org/2000/svg" width="24" height="24" fill="none"><path fill="#04071E" d="M8.14 3.392A1.8 1.8 0 0 1 9.747 2.4h4.517a1.8 1.8 0 0 1 1.61.995l.702 1.404h2.028a3 3 0 0 1 3 3v2.635c-.36-.311-.77-.535-1.2-.672V7.8a1.8 1.8 0 0 0-1.8-1.8h-2.4a.6.6 0 0 1-.536-.331l-.868-1.736a.6.6 0 0 0-.536-.332H9.748a.6.6 0 0 0-.536.33L8.338 5.67a.6.6 0 0 1-.536.33H5.405a1.8 1.8 0 0 0-1.8 1.8V17.4a1.8 1.8 0 0 0 1.8 1.8h4.46l-.196.784q-.053.211-.066.416H5.405a3 3 0 0 1-3-3V7.8a3 3 0 0 1 3-3h2.027zm8.524 7.475A4.802 4.802 0 0 0 7.2 12a4.8 4.8 0 0 0 3.686 4.67q.114-.137.242-.266l.805-.805a3.6 3.6 0 1 1 3.666-3.666zm1.107.59-5.795 5.796a2.64 2.64 0 0 0-.694 1.224l-.45 1.798a1.067 1.067 0 0 0 1.295 1.294l1.798-.45a2.64 2.64 0 0 0 1.224-.693l5.796-5.795a2.244 2.244 0 0 0-3.174-3.174"/><path fill="#04071E" fill-rule="evenodd" d="M9.748 2.55a1.65 1.65 0 0 0-1.475.91l-.748 1.49h-2.12a2.85 2.85 0 0 0-2.85 2.85v9.6a2.85 2.85 0 0 0 2.85 2.85h4.062a3 3 0 0 1 .056-.302l.15-.598H5.404a1.95 1.95 0 0 1-1.95-1.95V7.8a1.95 1.95 0 0 1 1.95-1.95h2.397a.45.45 0 0 0 .402-.249l.874-1.738a.75.75 0 0 1 .67-.413h4.517a.75.75 0 0 1 .67.415l.868 1.735a.45.45 0 0 0 .403.25h2.399a1.95 1.95 0 0 1 1.95 1.95v1.854c.316.112.619.268.9.47V7.8a2.85 2.85 0 0 0-2.85-2.85h-2.121l-.743-1.487a1.65 1.65 0 0 0-1.476-.912zm-1.743.774A1.95 1.95 0 0 1 9.748 2.25h4.517a1.95 1.95 0 0 1 1.744 1.078l.66 1.321h1.936a3.15 3.15 0 0 1 3.15 3.15v2.962l-.248-.214a3.3 3.3 0 0 0-1.148-.642l-.104-.033V7.799a1.65 1.65 0 0 0-1.65-1.65h-2.4a.75.75 0 0 1-.67-.414l-.868-1.736a.45.45 0 0 0-.402-.249H9.748a.45.45 0 0 0-.402.248l-.874 1.738a.75.75 0 0 1-.67.413H5.405a1.65 1.65 0 0 0-1.65 1.65V17.4c0 .911.738 1.65 1.65 1.65h4.652l-.243.97a2 2 0 0 0-.06.39l-.01.14h-4.34a3.15 3.15 0 0 1-3.15-3.15V7.8a3.15 3.15 0 0 1 3.15-3.15H7.34zM7.05 12a4.95 4.95 0 0 1 9.761-1.169l.02.082-1.375 1.375-.007-.353a3.45 3.45 0 1 0-3.514 3.514l.353.007-1.054 1.054q-.123.123-.233.256l-.059.072-.09-.022A4.95 4.95 0 0 1 7.048 12m4.95-4.65a4.65 4.65 0 0 0-1.168 9.152q.09-.105.19-.204l.57-.57a3.75 3.75 0 1 1 4.136-4.136l.771-.771A4.65 4.65 0 0 0 12 7.35m5.666 4.001a2.394 2.394 0 0 1 3.386 3.386l-5.795 5.795c-.358.358-.805.61-1.295.733l-1.797.45a1.217 1.217 0 0 1-1.477-1.476l.45-1.798c.122-.49.375-.937.733-1.294zm3.174.212a2.094 2.094 0 0 0-2.962 0l-5.795 5.796a2.5 2.5 0 0 0-.654 1.155l-.45 1.797a.917.917 0 0 0 1.113 1.113l1.797-.45c.437-.109.837-.335 1.155-.654l5.796-5.795a2.094 2.094 0 0 0 0-2.962" clip-rule="evenodd"/></svg>