<svg xmlns="http://www.w3.org/2000/svg" width="24" height="24" fill="none"><path fill="#04071E" d="M12 2.4a9.6 9.6 0 0 1 9.595 9.905 6.6 6.6 0 0 0-1.209-.792A8.4 8.4 0 1 0 4.672 16.11a.6.6 0 0 1 .076.327l-.017.112-.907 3.625 3.63-.904a.6.6 0 0 1 .224-.012l.11.025.104.046a8.34 8.34 0 0 0 3.62 1.057c.22.433.487.838.793 1.21a9.562 9.562 0 0 1-4.64-1.028l-.146-.078-4.374 1.092a.6.6 0 0 1-.743-.53v-.097l.016-.1 1.092-4.373-.076-.144a9.5 9.5 0 0 1-.995-3.464l-.03-.458L2.4 12A9.6 9.6 0 0 1 12 2.4m10.8 15a5.4 5.4 0 1 1-10.8 0 5.4 5.4 0 0 1 10.8 0m-6.776-1.376a.6.6 0 1 0-.848-.848l-1.8 1.8a.6.6 0 0 0 0 .848l1.8 1.8a.6.6 0 0 0 .848-.848L14.648 17.4zm2.224.776.776-.776a.6.6 0 1 0-.848-.848l-1.8 1.8a.6.6 0 0 0 0 .848l1.8 1.8a.6.6 0 0 0 .848-.848L18.248 18H20.4v.6a.6.6 0 0 0 1.2 0V18a1.2 1.2 0 0 0-1.2-1.2z"/><path fill="#04071E" fill-rule="evenodd" d="m2.55 11.998.009.411.03.453a9.4 9.4 0 0 0 .978 3.407l.102.194-1.104 4.422-.014.082v.079a.45.45 0 0 0 .558.39l4.43-1.105.194.103A9.4 9.4 0 0 0 12 21.45a7 7 0 0 1-.582-.92 8.5 8.5 0 0 1-3.593-1.067l-.084-.037-.089-.02a.5.5 0 0 0-.162.01l-3.872.964.966-3.86.015-.098a.45.45 0 0 0-.058-.239 8.55 8.55 0 1 1 15.989-4.765q.485.255.92.582a9.45 9.45 0 0 0-18.9-.002m-.3.002c0-5.385 4.365-9.75 9.75-9.75s9.75 4.365 9.75 9.75q0 .156-.005.31l-.01.305-.235-.195q-.546-.45-1.182-.774l-.077-.039-.005-.086a8.25 8.25 0 1 0-15.433 4.515.75.75 0 0 1 .095.409v.007l-.02.127-.847 3.39 3.386-.844a.8.8 0 0 1 .281-.016l.014.002.124.029.124.055.006.003a8.2 8.2 0 0 0 3.555 1.038l.086.005.04.077q.323.636.773 1.182l.195.236-.306.01a9.712 9.712 0 0 1-4.713-1.044l-.003-.002-.093-.05-4.318 1.078a.75.75 0 0 1-.93-.663v-.122l.02-.125 1.079-4.317-.05-.095a9.7 9.7 0 0 1-1.011-3.519v-.003l-.031-.465-.009-.416zm15.15.15a5.25 5.25 0 1 0 0 10.5 5.25 5.25 0 0 0 0-10.5m-5.55 5.25a5.55 5.55 0 1 1 11.1 0 5.55 5.55 0 0 1-11.1 0m3.22-2.33a.75.75 0 1 1 1.06 1.06l-1.27 1.27 1.27 1.27a.75.75 0 0 1-1.06 1.06l-1.8-1.8a.75.75 0 0 1 0-1.06zm.848.212a.45.45 0 0 0-.636 0l-1.8 1.8a.45.45 0 0 0 0 .636l1.8 1.8a.45.45 0 0 0 .636-.636L14.436 17.4l1.482-1.482a.45.45 0 0 0 0-.636m2.152-.212a.75.75 0 1 1 1.06 1.06l-.52.52h1.79c.746 0 1.35.604 1.35 1.35v.6a.75.75 0 0 1-1.5 0v-.45h-1.64l.52.52a.75.75 0 0 1-1.06 1.06l-1.8-1.8a.75.75 0 0 1 0-1.06zm.848.212a.45.45 0 0 0-.636 0l-1.8 1.8a.45.45 0 0 0 0 .636l1.8 1.8a.45.45 0 0 0 .636-.636l-1.032-1.032h2.664v.75a.45.45 0 0 0 .9 0V18c0-.58-.47-1.05-1.05-1.05h-2.514l1.032-1.032a.45.45 0 0 0 0-.636" clip-rule="evenodd"/></svg>