<svg xmlns="http://www.w3.org/2000/svg" width="24" height="24" fill="none"><path fill="#04071E" d="M6 2.4A3.6 3.6 0 0 0 2.4 6v9.6A3.6 3.6 0 0 0 6 19.2h5.048a6.6 6.6 0 0 1-.221-1.2H6a2.4 2.4 0 0 1-2.4-2.4V6A2.4 2.4 0 0 1 6 3.6h9.6A2.4 2.4 0 0 1 18 6v4.827q.619.056 1.2.221V6a3.6 3.6 0 0 0-3.6-3.6zm9.424 5.824a.6.6 0 1 0-.848-.848L9 12.95l-1.976-1.975a.6.6 0 1 0-.848.848l2.4 2.4a.6.6 0 0 0 .848 0zM12 17.4a5.4 5.4 0 1 0 10.8 0 5.4 5.4 0 0 0-10.8 0m7.8-3.6a.6.6 0 0 1 .6.6v1.8a.6.6 0 0 1-.6.6H18a.6.6 0 1 1 0-1.2h.562a2.4 2.4 0 0 0-1.12-.3 2.4 2.4 0 0 0-1.74.703.6.6 0 1 1-.848-.849 3.6 3.6 0 0 1 4.346-.572V14.4a.6.6 0 0 1 .6-.6m-1.051 6.638a3.6 3.6 0 0 1-3.149-.22v.182a.6.6 0 1 1-1.2 0v-1.8a.6.6 0 0 1 .6-.6h1.8a.6.6 0 1 1 0 1.2h-.562a2.4 2.4 0 0 0 1.12.3 2.4 2.4 0 0 0 1.74-.703.6.6 0 1 1 .848.849 3.6 3.6 0 0 1-1.197.792"/><path fill="#04071E" fill-rule="evenodd" d="M2.25 6A3.75 3.75 0 0 1 6 2.25h9.6A3.75 3.75 0 0 1 19.35 6v5.247l-.19-.054a6.4 6.4 0 0 0-1.174-.217l-.136-.012V6a2.25 2.25 0 0 0-2.25-2.25H6A2.25 2.25 0 0 0 3.75 6v9.6A2.25 2.25 0 0 0 6 17.85h4.964l.012.136q.056.605.217 1.173l.054.191H6a3.75 3.75 0 0 1-3.75-3.75zM6 2.55A3.45 3.45 0 0 0 2.55 6v9.6A3.45 3.45 0 0 0 6 19.05h4.853a7 7 0 0 1-.162-.9H6a2.55 2.55 0 0 1-2.55-2.55V6A2.55 2.55 0 0 1 6 3.45h9.6A2.55 2.55 0 0 1 18.15 6v4.691q.46.052.9.162V6a3.45 3.45 0 0 0-3.45-3.45zm8.47 4.72a.75.75 0 1 1 1.06 1.06l-6 6a.75.75 0 0 1-1.06 0l-2.4-2.4a.75.75 0 1 1 1.06-1.06L9 12.74zm.848.212a.45.45 0 0 0-.636 0L9 13.164l-2.082-2.082a.45.45 0 0 0-.636.636l2.4 2.4a.45.45 0 0 0 .636 0l6-6a.45.45 0 0 0 0-.636M11.85 17.4a5.55 5.55 0 1 1 11.1 0 5.55 5.55 0 0 1-11.1 0m5.55-5.25a5.25 5.25 0 1 0 0 10.5 5.25 5.25 0 0 0 0-10.5m2.4 1.8a.45.45 0 0 0-.45.45v.442l-.225-.13a3.46 3.46 0 0 0-3.017-.21 3.45 3.45 0 0 0-1.148.758.45.45 0 0 0 .637.637 2.55 2.55 0 0 1 3.037-.428l-.072.281H18a.45.45 0 0 0 0 .9h1.8a.45.45 0 0 0 .45-.45v-1.8a.45.45 0 0 0-.45-.45m-.747.384a.75.75 0 0 1 1.497.066v1.8a.75.75 0 0 1-.75.75H18a.75.75 0 0 1-.219-1.467 2.26 2.26 0 0 0-1.224.13 2.25 2.25 0 0 0-.748.496.75.75 0 0 1-1.06-1.06 3.75 3.75 0 0 1 4.304-.715M14.25 18.6a.75.75 0 0 1 .75-.75h1.8a.75.75 0 0 1 .22 1.467 2.26 2.26 0 0 0 1.971-.626.75.75 0 0 1 1.06 1.06 3.75 3.75 0 0 1-4.304.715.75.75 0 0 1-1.497-.066zm.75-.45a.45.45 0 0 0-.45.45v1.8a.45.45 0 0 0 .9 0v-.442l.225.13a3.46 3.46 0 0 0 3.017.21 3.45 3.45 0 0 0 1.148-.758.45.45 0 0 0-.637-.637 2.55 2.55 0 0 1-3.037.428l.072-.281h.562a.45.45 0 0 0 0-.9z" clip-rule="evenodd"/></svg>