<svg xmlns="http://www.w3.org/2000/svg" width="24" height="24" fill="none"><path fill="#04071E" d="M12 20.4a8.4 8.4 0 1 1 0-16.8 8.4 8.4 0 0 1 0 16.8m0 1.2a9.6 9.6 0 1 0 0-19.2 9.6 9.6 0 0 0 0 19.2m4.624-14.224a.6.6 0 0 1 0 .848l-4.8 4.8a.6.6 0 0 1-.848 0l-2.4-2.4a.6.6 0 0 1 .848-.848l1.976 1.976 4.376-4.376a.6.6 0 0 1 .848 0M8.4 16.2a.6.6 0 0 0 .6.6h5.998a.6.6 0 1 0 0-1.2H9a.6.6 0 0 0-.6.6"/><path fill="#04071E" fill-rule="evenodd" d="M2.25 12c0-5.385 4.365-9.75 9.75-9.75s9.75 4.365 9.75 9.75-4.365 9.75-9.75 9.75S2.25 17.385 2.25 12M12 2.55a9.45 9.45 0 1 0 0 18.9 9.45 9.45 0 0 0 0-18.9m0 1.2a8.25 8.25 0 1 0 0 16.5 8.25 8.25 0 0 0 0-16.5M3.45 12a8.55 8.55 0 1 1 17.1 0 8.55 8.55 0 0 1-17.1 0m13.068-4.518a.45.45 0 0 0-.636 0L11.4 11.964 9.318 9.882a.45.45 0 0 0-.636.636l2.4 2.4a.45.45 0 0 0 .636 0l4.8-4.8a.45.45 0 0 0 0-.636m-.848-.212a.75.75 0 1 1 1.06 1.06l-4.8 4.8a.75.75 0 0 1-1.06 0l-2.4-2.4a.75.75 0 1 1 1.06-1.06l1.87 1.87zM8.25 16.2a.75.75 0 0 1 .75-.75h5.998a.75.75 0 0 1 0 1.5H9a.75.75 0 0 1-.75-.75m6.748-.45H9a.45.45 0 0 0 0 .9h5.998a.45.45 0 0 0 0-.9" clip-rule="evenodd"/></svg>