<svg xmlns="http://www.w3.org/2000/svg" width="24" height="24" fill="none"><path fill="#04071E" d="M1.101 10.952a.6.6 0 0 1 .848.05l4.377 4.924 12.15-12.15a.6.6 0 0 1 .848.848l-12.6 12.6a.6.6 0 0 1-.872-.025l-4.8-5.4a.6.6 0 0 1 .05-.848m11.2 4.648a2.4 2.4 0 0 1 2.4-2.4h6a2.4 2.4 0 0 1 2.4 2.4v4.8a2.4 2.4 0 0 1-2.4 2.4h-6a2.4 2.4 0 0 1-2.4-2.4zm7.8 3.6h-4.8a.6.6 0 1 0 0 1.2h4.8a.6.6 0 0 0 0-1.2m-4.8-3.6a.6.6 0 1 0 0 1.2h4.8a.6.6 0 0 0 0-1.2z"/><path fill="#04071E" fill-rule="evenodd" d="M18.476 3.776a.6.6 0 0 1 .848.848l-12.6 12.6a.6.6 0 0 1-.872-.025l-4.8-5.4A.6.6 0 0 1 1.949 11l4.377 4.925zM6.339 15.489 18.264 3.564a.9.9 0 0 1 1.273 1.272l-12.6 12.6a.9.9 0 0 1-1.31-.038l-4.8-5.4a.9.9 0 1 1 1.346-1.196zM12 15.6a2.7 2.7 0 0 1 2.7-2.7h6a2.7 2.7 0 0 1 2.7 2.7v4.8a2.7 2.7 0 0 1-2.7 2.7h-6a2.7 2.7 0 0 1-2.7-2.7zm2.7-2.4a2.4 2.4 0 0 0-2.4 2.4v4.8a2.4 2.4 0 0 0 2.4 2.4h6a2.4 2.4 0 0 0 2.4-2.4v-4.8a2.4 2.4 0 0 0-2.4-2.4z" clip-rule="evenodd"/></svg>