<svg xmlns="http://www.w3.org/2000/svg" width="24" height="24" fill="none"><path fill="#04071E" d="M9.836 2.034q.168.057.329.137l1.283.631a1.25 1.25 0 0 0 1.104 0l1.283-.631a2.75 2.75 0 0 1 3.682 1.252l.073.162.063.167.46 1.354c.125.367.414.656.781.78l1.354.46a2.75 2.75 0 0 1 1.581 3.82l-.631 1.282a1.25 1.25 0 0 0 0 1.104l.631 1.283a2.75 2.75 0 0 1-1.581 3.818l-1.354.46a1.25 1.25 0 0 0-.78.781l-.461 1.354a2.75 2.75 0 0 1-3.818 1.581l-1.283-.631a1.25 1.25 0 0 0-1.104 0l-1.283.631a2.75 2.75 0 0 1-3.818-1.581l-.46-1.354a1.25 1.25 0 0 0-.782-.78l-1.353-.46a2.75 2.75 0 0 1-1.582-3.82l.632-1.282a1.25 1.25 0 0 0 0-1.104l-.632-1.283a2.75 2.75 0 0 1 1.582-3.818l1.353-.46a1.25 1.25 0 0 0 .781-.781l.46-1.354a2.75 2.75 0 0 1 3.49-1.718m-2.07 2.201-.46 1.354a2.75 2.75 0 0 1-1.718 1.718l-1.353.46a1.25 1.25 0 0 0-.719 1.736l.632 1.282a2.75 2.75 0 0 1 0 2.43l-.632 1.282a1.25 1.25 0 0 0 .719 1.736l1.353.46a2.75 2.75 0 0 1 1.718 1.718l.46 1.354q.027.076.063.15a1.25 1.25 0 0 0 1.673.569l1.283-.632a2.75 2.75 0 0 1 2.43 0l1.282.632q.074.035.15.062a1.25 1.25 0 0 0 1.586-.781l.46-1.354a2.75 2.75 0 0 1 1.718-1.718l1.354-.46q.075-.026.15-.062a1.25 1.25 0 0 0 .569-1.674l-.632-1.282a2.75 2.75 0 0 1 0-2.43l.632-1.282a1.25 1.25 0 0 0-.719-1.736l-1.354-.46a2.75 2.75 0 0 1-1.718-1.718l-.46-1.354-.029-.076-.033-.073-.062-.112a1.25 1.25 0 0 0-1.612-.458l-1.283.632a2.75 2.75 0 0 1-2.429 0l-1.283-.632a1.25 1.25 0 0 0-1.735.72M10.05 14.39l5.42-5.42a.75.75 0 0 1 1.133.977l-.073.084-6 6a.75.75 0 0 1-1.031.028l-.075-.078-2.5-3a.75.75 0 0 1 1.075-1.04l.077.08zl5.42-5.42z"/></svg>