<svg xmlns="http://www.w3.org/2000/svg" width="24" height="24" fill="none"><path fill="#04071E" d="M12 3.6a1.2 1.2 0 0 1 1.2-1.2h.6c.462 0 .884.174 1.203.461.319-.287.74-.461 1.203-.461h1.188c.462 0 .884.174 1.203.461.319-.287.74-.461 1.203-.461h.6a1.2 1.2 0 0 1 1.2 1.2v3c0 1.43-1 2.626-2.34 2.927.341 4.852 2.04 7.903 2.624 8.822.192.302.316.663.316 1.051v.4a1.8 1.8 0 0 1-1.8 1.8h-6.57c.256-.35.438-.757.52-1.2h6.05a.6.6 0 0 0 .6-.6v-.4a.76.76 0 0 0-.128-.407c-.687-1.081-2.587-4.53-2.843-9.965a.6.6 0 0 1 .592-.628A1.8 1.8 0 0 0 20.4 6.6v-3h-.6a.6.6 0 0 0-.6.6v1.2a.6.6 0 0 1-1.2.003V5.4l-.006-1.203a.6.6 0 0 0-.6-.597h-1.188a.6.6 0 0 0-.6.597L15.6 5.403a.6.6 0 0 1-1.2-.003V4.2a.6.6 0 0 0-.6-.6h-.6v3a1.8 1.8 0 0 0 1.779 1.8.6.6 0 0 1 .592.628c-.189 4.007-1.27 6.934-2.102 8.629a3 3 0 0 0-.244-.226 5 5 0 0 1-.659-.67c.705-1.533 1.545-3.978 1.774-7.234A3.006 3.006 0 0 1 12 6.6zm-6.6 6a2.4 2.4 0 1 1 4.32 1.44.6.6 0 0 0 .48.96h.6a.6.6 0 1 1 0 1.2H9.472a.6.6 0 0 0-.596.673c.362 2.964 1.93 4.664 2.81 5.4.208.174.314.394.314.585 0 .3-.242.542-.541.542H4.14a.54.54 0 0 1-.541-.541c0-.192.106-.412.315-.587.878-.735 2.447-2.435 2.809-5.4a.6.6 0 0 0-.596-.672H4.8a.6.6 0 1 1 0-1.2h.6a.6.6 0 0 0 .48-.96A2.4 2.4 0 0 1 5.4 9.6M7.8 6a3.6 3.6 0 0 0-3.38 4.84 1.8 1.8 0 0 0 .38 3.56h.623c-.445 2.158-1.622 3.403-2.278 3.952-.417.348-.745.883-.745 1.506 0 .962.78 1.742 1.741 1.742h7.318c.961 0 1.741-.78 1.741-1.742 0-.623-.328-1.158-.745-1.506-.656-.55-1.833-1.794-2.278-3.952h.623a1.8 1.8 0 0 0 .38-3.56A3.6 3.6 0 0 0 7.8 6"/><path fill="#04071E" fill-rule="evenodd" d="M13.2 2.55c-.58 0-1.05.47-1.05 1.05v3a2.84 2.84 0 0 0 2.223 2.78.15.15 0 0 1 .117.158c-.227 3.216-1.046 5.648-1.748 7.2.217.256.422.446.58.578l.102.09c.81-1.705 1.816-4.545 1.997-8.385a.45.45 0 0 0-.444-.471A1.95 1.95 0 0 1 13.05 6.6v-3a.15.15 0 0 1 .15-.15h.6a.75.75 0 0 1 .75.75v1.2a.45.45 0 0 0 .9.002l.006-1.206a.75.75 0 0 1 .75-.746h1.188a.75.75 0 0 1 .75.746L18.15 5.4v.003a.45.45 0 0 0 .9-.002V4.2a.75.75 0 0 1 .75-.75h.6a.15.15 0 0 1 .15.15v3a1.95 1.95 0 0 1-1.927 1.95.45.45 0 0 0-.444.471c.255 5.403 2.142 8.826 2.82 9.891.1.157.151.325.151.488v.4a.75.75 0 0 1-.75.75h-5.928a3 3 0 0 1-.363.9H20.4a1.65 1.65 0 0 0 1.65-1.65v-.4c0-.356-.113-.69-.292-.97-.594-.935-2.304-4.01-2.648-8.892a.15.15 0 0 1 .117-.157A2.85 2.85 0 0 0 21.45 6.6v-3c0-.58-.47-1.05-1.05-1.05h-.6c-.424 0-.81.16-1.103.423a.15.15 0 0 1-.2 0 1.64 1.64 0 0 0-1.103-.423h-1.188c-.424 0-.81.16-1.103.423a.15.15 0 0 1-.2 0A1.64 1.64 0 0 0 13.8 2.55zM11.85 3.6c0-.746.604-1.35 1.35-1.35h.6c.454 0 .872.155 1.203.415.331-.26.75-.415 1.203-.415h1.188c.454 0 .872.155 1.203.415.331-.26.75-.415 1.203-.415h.6c.746 0 1.35.604 1.35 1.35v3a3.15 3.15 0 0 1-2.331 3.042c.359 4.749 2.022 7.73 2.592 8.626.205.323.339.711.339 1.132v.4a1.95 1.95 0 0 1-1.95 1.95h-6.57a.15.15 0 0 1-.121-.239c.243-.331.416-.718.494-1.138a.15.15 0 0 1 .147-.123h6.05a.45.45 0 0 0 .45-.45v-.4a.6.6 0 0 0-.105-.327c-.697-1.097-2.608-4.57-2.866-10.038a.75.75 0 0 1 .74-.785A1.65 1.65 0 0 0 20.25 6.6V3.75h-.45a.45.45 0 0 0-.45.45v1.2a.75.75 0 0 1-1.5.004V5.4l-.006-1.203a.45.45 0 0 0-.45-.448h-1.188a.45.45 0 0 0-.45.448l-.006 1.206a.75.75 0 0 1-1.5-.004V4.2a.45.45 0 0 0-.45-.45h-.45V6.6c0 .905.728 1.64 1.63 1.65a.75.75 0 0 1 .741.785c-.19 4.03-1.279 6.978-2.117 8.688a.15.15 0 0 1-.242.039 3 3 0 0 0-.233-.216 5 5 0 0 1-.679-.69.15.15 0 0 1-.02-.157c.689-1.5 1.511-3.884 1.751-7.057a3.16 3.16 0 0 1-2.053-1.747l-.003-.006-.065-.155-.002-.006A3.1 3.1 0 0 1 11.85 6.6zm-7.8 6a3.75 3.75 0 1 1 7.325 1.136 1.95 1.95 0 0 1-.575 3.814h-.437c.463 2.004 1.568 3.168 2.189 3.687.442.37.798.944.798 1.622a1.89 1.89 0 0 1-1.891 1.891H4.14a1.89 1.89 0 0 1-1.891-1.892c0-.677.356-1.251.799-1.621.62-.519 1.725-1.683 2.188-3.687H4.8a1.95 1.95 0 0 1-.575-3.814A3.8 3.8 0 0 1 4.05 9.6M7.8 6.15a3.45 3.45 0 0 0-3.24 4.639.15.15 0 0 1-.109.198A1.65 1.65 0 0 0 4.8 14.25h.623a.15.15 0 0 1 .147.18c-.454 2.2-1.655 3.473-2.329 4.037-.39.327-.691.822-.691 1.392 0 .878.713 1.591 1.591 1.591h7.318c.879 0 1.591-.712 1.591-1.591 0-.57-.3-1.065-.691-1.392-.674-.564-1.875-1.837-2.329-4.037a.15.15 0 0 1 .147-.18h.623a1.65 1.65 0 0 0 .349-3.263.15.15 0 0 1-.11-.198A3.45 3.45 0 0 0 7.8 6.15m0 1.2a2.25 2.25 0 0 0-1.8 3.6.75.75 0 0 1-.6 1.2h-.6a.45.45 0 0 0 0 .9h1.328a.75.75 0 0 1 .745.841c-.369 3.013-1.964 4.745-2.862 5.496-.183.153-.261.334-.261.471 0 .217.175.392.391.392h7.318a.39.39 0 0 0 .391-.392c0-.137-.078-.318-.26-.47-.9-.752-2.494-2.485-2.863-5.497a.75.75 0 0 1 .745-.841H10.8a.45.45 0 0 0 0-.9h-.6a.75.75 0 0 1-.6-1.2 2.25 2.25 0 0 0-1.8-3.6M5.25 9.6a2.55 2.55 0 1 1 4.59 1.53.45.45 0 0 0 .36.72h.6a.75.75 0 0 1 0 1.5H9.472a.45.45 0 0 0-.447.505c.356 2.915 1.897 4.584 2.757 5.302.235.197.368.457.368.701 0 .382-.31.692-.691.692H4.14a.69.69 0 0 1-.691-.692c0-.244.133-.504.368-.7.86-.72 2.4-2.388 2.757-5.303a.45.45 0 0 0-.447-.505H4.8a.75.75 0 0 1 0-1.5h.6a.45.45 0 0 0 .36-.72 2.54 2.54 0 0 1-.51-1.53" clip-rule="evenodd"/></svg>