<svg xmlns="http://www.w3.org/2000/svg" width="24" height="24" fill="none"><path fill="#04071E" d="M5.325 11.825a.6.6 0 0 1 .85-.847l6.175 6.197 6.175-6.197a.6.6 0 1 1 .85.847l-6.557 6.58a.66.66 0 0 1-.935 0zm0-6.002a.6.6 0 0 1 .85-.847l6.175 6.198 6.175-6.198a.6.6 0 1 1 .85.847l-6.557 6.582a.66.66 0 0 1-.935 0z"/><path fill="#04071E" fill-rule="evenodd" d="M11.776 18.512a.81.81 0 0 0 1.148 0l6.557-6.581a.75.75 0 0 0-1.062-1.06l-6.069 6.091-6.069-6.09A.75.75 0 1 0 5.22 11.93zm.935-.212c-.2.2-.523.2-.722 0L5.43 11.719a.45.45 0 0 1 .638-.636l6.175 6.198a.15.15 0 0 0 .212 0l6.175-6.198a.45.45 0 0 1 .638.636zM5.22 5.93l6.557 6.58a.81.81 0 0 0 1.148 0l6.557-6.58a.75.75 0 0 0-1.062-1.06l-6.069 6.091-6.069-6.09A.75.75 0 1 0 5.22 5.929m7.492 6.369c-.2.2-.523.2-.722 0L5.43 5.718a.45.45 0 0 1 .638-.636l6.175 6.198a.15.15 0 0 0 .212 0l6.175-6.198a.45.45 0 1 1 .638.636z" clip-rule="evenodd"/></svg>