<svg xmlns="http://www.w3.org/2000/svg" width="24" height="24" fill="none"><path fill="#04071E" d="M13.625 19.023a.6.6 0 0 1-.848.002l-6.582-6.558a.66.66 0 0 1 0-.935l6.582-6.558a.6.6 0 1 1 .847.85l-6.198 6.175 6.198 6.176a.6.6 0 0 1 .001.848m4.799 0a.6.6 0 0 1-.849.002l-6.581-6.558a.66.66 0 0 1 0-.935l6.581-6.558a.6.6 0 0 1 .847.85l-6.197 6.175 6.197 6.176a.6.6 0 0 1 .002.848"/><path fill="#04071E" fill-rule="evenodd" d="M13.519 5.081a.45.45 0 0 0-.636 0L6.3 11.637c-.2.2-.2.523 0 .723l6.582 6.558a.45.45 0 1 0 .635-.638L7.32 12.106a.15.15 0 0 1 0-.213l6.198-6.175a.45.45 0 0 0 0-.637m-.848-.213A.75.75 0 0 1 13.73 5.93L7.639 12l6.09 6.069a.75.75 0 0 1-1.058 1.062l-6.582-6.558a.81.81 0 0 1 0-1.148zm5.647.213a.45.45 0 0 0-.637 0L11.1 11.637c-.2.2-.2.523 0 .723l6.581 6.558a.45.45 0 0 0 .636-.638l-6.198-6.175a.15.15 0 0 1 0-.213l6.198-6.175a.45.45 0 0 0 0-.637m.212-.212a.75.75 0 0 1-.002 1.061L12.438 12l6.09 6.069a.75.75 0 0 1-1.058 1.062l-6.582-6.558a.81.81 0 0 1 0-1.148l6.582-6.557a.75.75 0 0 1 1.06.001" clip-rule="evenodd"/></svg>