<svg xmlns="http://www.w3.org/2000/svg" width="24" height="24" fill="none"><path fill="#04071E" d="M4.975 11.575a.6.6 0 0 0 .85.848L12 6.224l6.175 6.197a.6.6 0 1 0 .85-.847l-6.557-6.58a.66.66 0 0 0-.935 0zm0 6.002a.6.6 0 0 0 .85.846L12 12.227l6.175 6.198a.6.6 0 1 0 .85-.848l-6.557-6.58a.66.66 0 0 0-.935 0z"/><path fill="#04071E" fill-rule="evenodd" d="M11.427 4.888a.81.81 0 0 1 1.147 0l6.558 6.582a.75.75 0 0 1-1.063 1.058L12 6.438l-6.068 6.09a.75.75 0 1 1-1.063-1.058zm.935.212a.51.51 0 0 0-.723 0l-6.557 6.581a.45.45 0 0 0 .637.636l6.175-6.198a.15.15 0 0 1 .213 0l6.175 6.198a.45.45 0 0 0 .637-.636zM4.869 17.47l6.558-6.58a.81.81 0 0 1 1.147 0l6.558 6.58a.75.75 0 0 1-1.063 1.06L12 12.438l-6.068 6.09a.75.75 0 1 1-1.063-1.058m7.493-6.369a.51.51 0 0 0-.723 0l-6.557 6.581a.45.45 0 0 0 .637.636l6.175-6.198a.15.15 0 0 1 .213 0l6.175 6.198a.45.45 0 0 0 .637-.636z" clip-rule="evenodd"/></svg>