<svg xmlns="http://www.w3.org/2000/svg" width="24" height="24" fill="none"><path fill="#04071E" d="M10.375 4.976a.6.6 0 0 1 .848-.001l6.582 6.558a.66.66 0 0 1 0 .935l-6.581 6.558a.6.6 0 1 1-.848-.85L16.575 12l-6.198-6.176a.6.6 0 0 1-.001-.849m-4.8 0a.6.6 0 0 1 .849-.001l6.58 6.558a.66.66 0 0 1 0 .935l-6.58 6.558a.6.6 0 1 1-.848-.85L11.774 12 5.576 5.825a.6.6 0 0 1-.001-.849"/><path fill="#04071E" fill-rule="evenodd" d="M6.318 5.081a.45.45 0 1 0-.636.638l6.198 6.175a.15.15 0 0 1 0 .213l-6.198 6.175a.45.45 0 1 0 .636.638l6.581-6.558c.2-.2.2-.524 0-.723zm-.85-.21a.75.75 0 0 1 1.061-.002l6.582 6.558a.81.81 0 0 1 0 1.147l-6.582 6.558a.75.75 0 0 1-1.058-1.062L11.56 12l-6.09-6.069a.75.75 0 0 1-.002-1.06m5.65.21a.45.45 0 1 0-.636.638l6.198 6.175a.15.15 0 0 1 0 .213l-6.198 6.175a.45.45 0 1 0 .636.638l6.581-6.558c.2-.2.2-.524 0-.723zm-.85-.21a.75.75 0 0 1 1.061-.002l6.582 6.558a.81.81 0 0 1 0 1.147l-6.582 6.558a.75.75 0 0 1-1.058-1.062L16.36 12l-6.09-6.069a.75.75 0 0 1-.002-1.06" clip-rule="evenodd"/></svg>