<svg xmlns="http://www.w3.org/2000/svg" width="24" height="24" fill="none"><path fill="#04071E" d="M8.4 2.4a6 6 0 0 1 5.9 4.9q.587-.091 1.2-.1a7.2 7.2 0 1 0-8.3 8.3q.008-.613.1-1.2A6.002 6.002 0 0 1 8.4 2.4m-3 4.8a.6.6 0 1 0 0 1.2h6a.6.6 0 1 0 0-1.2zm13.624 7.024a.6.6 0 0 0-.849-.848L15 16.552l-1.376-1.376a.6.6 0 0 0-.849.848l1.8 1.8a.6.6 0 0 0 .85 0zM15.6 22.8a7.2 7.2 0 1 0 0-14.4 7.2 7.2 0 0 0 0 14.4m0-1.2a6 6 0 1 1 0-12 6 6 0 0 1 0 12"/><path fill="#04071E" fill-rule="evenodd" d="M1.05 8.4a7.35 7.35 0 0 1 14.598-1.224.15.15 0 0 1-.146.175q-.601.006-1.18.097a.15.15 0 0 1-.17-.12A5.852 5.852 0 0 0 2.55 8.4a5.85 5.85 0 0 0 4.777 5.752.15.15 0 0 1 .121.17q-.09.58-.098 1.18a.15.15 0 0 1-.174.146A7.35 7.35 0 0 1 1.05 8.4M8.4 1.35a7.05 7.05 0 0 0-1.346 13.972q.015-.458.077-.903a6.15 6.15 0 1 1 7.288-7.288q.444-.062.903-.077A7.05 7.05 0 0 0 8.4 1.35m-3 6a.45.45 0 1 0 0 .9h6a.45.45 0 0 0 0-.9zm2.85 8.25a7.35 7.35 0 1 1 14.7 0 7.35 7.35 0 0 1-14.7 0m7.35-7.05a7.05 7.05 0 1 0 0 14.1 7.05 7.05 0 0 0 0-14.1m0 1.2a5.85 5.85 0 1 0 0 11.7 5.85 5.85 0 0 0 0-11.7M9.45 15.6a6.15 6.15 0 1 1 12.3 0 6.15 6.15 0 0 1-12.3 0m9.468-2.118a.45.45 0 0 0-.636 0l-3.176 3.175a.15.15 0 0 1-.212 0l-1.376-1.375a.45.45 0 0 0-.636.636l1.8 1.8a.45.45 0 0 0 .636 0l3.6-3.6a.45.45 0 0 0 0-.636m.106-.106a.6.6 0 0 1 0 .848l-3.6 3.6a.6.6 0 0 1-.848 0l-1.8-1.8a.6.6 0 0 1 .848-.848L15 16.552l3.175-3.176a.6.6 0 0 1 .85 0M5.4 7.2a.6.6 0 1 0 0 1.2h6a.6.6 0 1 0 0-1.2z" clip-rule="evenodd"/></svg>