<svg xmlns="http://www.w3.org/2000/svg" width="24" height="24" fill="none"><path fill="#04071E" d="M10.127 2.583a9.8 9.8 0 0 1 3.746 0 .6.6 0 1 1-.233 1.177 8.6 8.6 0 0 0-3.28 0 .6.6 0 1 1-.233-1.177m6.375 1.6a.6.6 0 0 1 .832-.166 9.7 9.7 0 0 1 2.649 2.649.6.6 0 0 1-.997.667 8.45 8.45 0 0 0-2.32-2.319.6.6 0 0 1-.164-.832m-9.004 0a.6.6 0 0 1-.165.831 8.5 8.5 0 0 0-2.318 2.32.6.6 0 1 1-.998-.668 9.7 9.7 0 0 1 2.649-2.649.6.6 0 0 1 .832.165m-4.21 5.472a.6.6 0 0 1 .472.705 8.6 8.6 0 0 0 0 3.28.6.6 0 1 1-1.177.233 9.8 9.8 0 0 1 0-3.746.6.6 0 0 1 .705-.472m17.424 0a.6.6 0 0 1 .705.472 9.8 9.8 0 0 1 0 3.746.6.6 0 1 1-1.177-.233 8.6 8.6 0 0 0 0-3.28.6.6 0 0 1 .472-.705m-16.53 6.847a.6.6 0 0 1 .833.165 8.5 8.5 0 0 0 2.318 2.318.6.6 0 0 1-.667.998 9.7 9.7 0 0 1-2.649-2.649.6.6 0 0 1 .165-.832m15.636 0a.6.6 0 0 1 .165.832 9.65 9.65 0 0 1-2.649 2.649.6.6 0 0 1-.667-.998 8.45 8.45 0 0 0 2.319-2.318.6.6 0 0 1 .832-.165m-10.163 4.21a.6.6 0 0 1 .705-.472c1.06.21 2.22.21 3.28 0a.6.6 0 0 1 .233 1.177 9.8 9.8 0 0 1-3.746 0 .6.6 0 0 1-.472-.705"/><path fill="#04071E" fill-rule="evenodd" d="M13.844 2.73a9.7 9.7 0 0 0-3.688 0 .45.45 0 0 0 .175.883 8.8 8.8 0 0 1 3.338 0 .45.45 0 0 0 .175-.883m-3.746-.294a10 10 0 0 1 3.804 0 .75.75 0 1 1-.291 1.471 8.5 8.5 0 0 0-3.222 0 .75.75 0 0 1-.29-1.471m7.153 1.706a.45.45 0 0 0-.5.748 8.6 8.6 0 0 1 2.36 2.36.45.45 0 1 0 .747-.5 9.5 9.5 0 0 0-2.607-2.608m-.874-.043a.75.75 0 0 1 1.04-.206 9.8 9.8 0 0 1 2.69 2.69.75.75 0 1 1-1.246.834 8.3 8.3 0 0 0-2.278-2.278.75.75 0 0 1-.206-1.04m-9.003.167a.45.45 0 0 0-.625-.124 9.5 9.5 0 0 0-2.607 2.607.45.45 0 1 0 .748.5 8.6 8.6 0 0 1 2.36-2.36.45.45 0 0 0 .123-.623m-.792-.373a.75.75 0 0 1 .835 1.246 8.3 8.3 0 0 0-2.278 2.278.75.75 0 0 1-1.246-.835 9.8 9.8 0 0 1 2.69-2.69M3.26 9.803a.45.45 0 0 0-.529.353 9.7 9.7 0 0 0 0 3.688.45.45 0 0 0 .883-.175 8.8 8.8 0 0 1 0-3.338.45.45 0 0 0-.354-.529m-.823.295a.75.75 0 1 1 1.471.291 8.5 8.5 0 0 0 0 3.222.75.75 0 0 1-1.471.291 10 10 0 0 1 0-3.804m18.834.058a.45.45 0 1 0-.883.175 8.8 8.8 0 0 1 0 3.338.45.45 0 1 0 .883.175 9.7 9.7 0 0 0 0-3.688m-.587-.648a.75.75 0 0 1 .881.59 10 10 0 0 1 0 3.804.75.75 0 1 1-1.47-.291 8.5 8.5 0 0 0 0-3.222.75.75 0 0 1 .59-.881M4.89 16.75a.45.45 0 1 0-.748.5 9.5 9.5 0 0 0 2.607 2.608.45.45 0 1 0 .5-.748 8.6 8.6 0 0 1-2.359-2.36m-.791-.373a.75.75 0 0 1 1.04.206 8.3 8.3 0 0 0 2.278 2.278.75.75 0 0 1-.835 1.246 9.8 9.8 0 0 1-2.69-2.69.75.75 0 0 1 .207-1.04m15.636.25a.45.45 0 0 0-.625.123 8.6 8.6 0 0 1-2.36 2.36.45.45 0 0 0 .501.748 9.5 9.5 0 0 0 2.607-2.607.45.45 0 0 0-.123-.624m-.874-.044a.75.75 0 1 1 1.246.835 9.8 9.8 0 0 1-2.69 2.69.75.75 0 0 1-.834-1.247 8.3 8.3 0 0 0 2.278-2.278m-8.53 3.804a.45.45 0 0 0-.175.883 9.7 9.7 0 0 0 3.688 0 .45.45 0 1 0-.175-.883 8.8 8.8 0 0 1-3.338 0m-.823.296a.75.75 0 0 1 .881-.59 8.5 8.5 0 0 0 3.222 0 .75.75 0 0 1 .291 1.471 10 10 0 0 1-3.804 0 .75.75 0 0 1-.59-.88" clip-rule="evenodd"/></svg>