<svg xmlns="http://www.w3.org/2000/svg" width="24" height="24" fill="none"><path fill="#04071E" d="M10.478 20.608a3 3 0 0 1-.345-.424A8.41 8.41 0 0 1 3.6 12 8.41 8.41 0 0 1 12 3.6a8.41 8.41 0 0 1 8.183 6.53q.228.154.425.347l.96.96A9.6 9.6 0 0 0 12 2.4 9.61 9.61 0 0 0 2.4 12a9.6 9.6 0 0 0 9.042 9.571z"/><path fill="#04071E" fill-rule="evenodd" d="M10.936 19.175a1.8 1.8 0 0 0 .39.584l2.515 2.515a1.8 1.8 0 0 0 1.345.526h4.91a.6.6 0 0 0 0-1.2H17.06l5.208-5.207a1.8 1.8 0 0 0 0-2.546l-2.514-2.514a1.8 1.8 0 0 0-2.546 0l-5.88 5.88a1.8 1.8 0 0 0-.39 1.962m7.125-6.999-4.32 4.32 3.36 3.36 4.32-4.32a.6.6 0 0 0 0-.85l-2.514-2.513a.6.6 0 0 0-.846.003m-1.8 8.53-3.36-3.36-.72.72a.6.6 0 0 0 0 .85l2.514 2.514a.6.6 0 0 0 .85 0zm2.219-9.75a1.65 1.65 0 0 0-1.167.483l-5.88 5.88a1.65 1.65 0 0 0 0 2.334l2.514 2.515a1.65 1.65 0 0 0 1.233.482h4.916a.45.45 0 1 0 0-.9h-3.399l5.464-5.463a1.65 1.65 0 0 0 0-2.334l-2.514-2.514a1.65 1.65 0 0 0-1.167-.484m.532 1.11a.75.75 0 0 0-1.057.004l-4.426 4.426 3.572 3.573 4.426-4.426a.75.75 0 0 0 0-1.062l-2.514-2.514zm-3.604 9.633a.8.8 0 0 0 .243-.164l.822-.83-3.572-3.571-.826.826s-.229.26-.223.567a.73.73 0 0 0 .223.495l2.514 2.514a.75.75 0 0 0 .819.163" clip-rule="evenodd"/><path fill="#04071E" fill-rule="evenodd" d="M17.848 11.08a1.65 1.65 0 0 1 1.8.359l2.513 2.514a1.65 1.65 0 0 1 0 2.334l-5.464 5.463h3.4a.45.45 0 1 1 0 .9H15.18a1.65 1.65 0 0 1-1.233-.482l-2.514-2.515a1.65 1.65 0 0 1 0-2.334l5.88-5.88a1.7 1.7 0 0 1 .535-.358m.635.77a.75.75 0 0 1 .53.216l2.514 2.515a.75.75 0 0 1 0 1.062l-4.426 4.426-3.572-3.573 4.426-4.425a.75.75 0 0 1 .528-.22m-2.832 9.685a.75.75 0 0 1-1.062 0l-2.514-2.513s-.218-.191-.223-.495c-.006-.308.223-.567.223-.567l.826-.826 3.572 3.572z" clip-rule="evenodd"/><path fill="#04071E" fill-rule="evenodd" d="M18.68 4.912A9.75 9.75 0 0 0 12 2.25 9.76 9.76 0 0 0 2.25 12a9.75 9.75 0 0 0 9.183 9.72l.394.024-1.242-1.242a3 3 0 0 1-.328-.402l-.033-.049-.058-.013A8.26 8.26 0 0 1 3.75 12 8.26 8.26 0 0 1 12 3.75a8.26 8.26 0 0 1 8.037 6.413l.013.057.049.033q.217.148.404.331l1.238 1.238-.024-.394a9.75 9.75 0 0 0-3.038-6.516m-8.547 15.272q.154.227.345.424l.964.963A9.6 9.6 0 0 1 2.4 12 9.61 9.61 0 0 1 12 2.4a9.6 9.6 0 0 1 9.568 9.037l-.96-.96a3 3 0 0 0-.425-.348A8.41 8.41 0 0 0 12 3.6 8.41 8.41 0 0 0 3.6 12a8.41 8.41 0 0 0 6.533 8.184" clip-rule="evenodd"/></svg>