<svg xmlns="http://www.w3.org/2000/svg" width="24" height="24" fill="none"><path fill="#04071E" d="M4.8 5.65 2.577 3.423a.6.6 0 1 1 .848-.848l18 18a.6.6 0 0 1-.848.848L18.35 19.2A9.56 9.56 0 0 1 12 21.6 9.6 9.6 0 0 1 2.4 12c0-2.435.907-4.658 2.4-6.35m12.7 12.699L5.651 6.499a8.4 8.4 0 0 0 11.85 11.85M20.4 12a8.36 8.36 0 0 1-1.325 4.53l.866.866A9.56 9.56 0 0 0 21.6 12 9.6 9.6 0 0 0 12 2.4c-2 0-3.858.612-5.396 1.659l.866.866A8.4 8.4 0 0 1 20.4 12"/><path fill="#04071E" fill-rule="evenodd" d="M3.318 2.682a.45.45 0 0 0-.636.636l2.324 2.325-.093.106A9.4 9.4 0 0 0 2.55 12 9.45 9.45 0 0 0 12 21.45a9.4 9.4 0 0 0 6.252-2.363l.105-.093 2.325 2.324a.45.45 0 0 0 .636-.636zM2.47 2.47a.75.75 0 0 1 1.06 0l18 18a.75.75 0 1 1-1.06 1.06l-2.126-2.126A9.7 9.7 0 0 1 12 21.75c-5.385 0-9.75-4.365-9.75-9.75 0-2.422.884-4.639 2.346-6.344L2.47 3.53a.75.75 0 0 1 0-1.06m4.05 1.465A9.7 9.7 0 0 1 12 2.25c5.385 0 9.75 4.365 9.75 9.75a9.7 9.7 0 0 1-1.685 5.48l-.102.15-1.08-1.08.066-.101A8.25 8.25 0 0 0 7.551 5.05l-.101.065-1.08-1.08zm.32.147.652.652a8.55 8.55 0 0 1 11.774 11.775l.652.651A9.4 9.4 0 0 0 21.45 12 9.45 9.45 0 0 0 12 2.55a9.4 9.4 0 0 0-5.16 1.532M5.643 6.28 17.72 18.357l-.121.105a8.55 8.55 0 0 1-12.06-12.06zm.017.44a8.25 8.25 0 0 0 11.62 11.62z" clip-rule="evenodd"/></svg>