<svg xmlns="http://www.w3.org/2000/svg" width="24" height="24" fill="none"><path fill="#04071E" d="M9.018 6.001 7.527 7.503l-3.277.001a.75.75 0 0 0-.75.75V19.75c0 .414.336.75.75.75h11.5a.75.75 0 0 0 .75-.75l-.002-3.278L18 14.98v4.77A2.25 2.25 0 0 1 15.75 22H4.25A2.25 2.25 0 0 1 2 19.75V8.254a2.25 2.25 0 0 1 2.25-2.25zM5.22 12.219l1.999-1.997a.75.75 0 0 1 .976-.072l.084.072 5.501 5.498a.75.75 0 0 1 .073.976l-.073.084-2 2a.75.75 0 0 1-.976.073l-.084-.073-5.5-5.5a.75.75 0 0 1-.073-.976zl1.999-1.997zm2.529-.406-.938.937 4.439 4.44.94-.94zm13.53-9.095a2.58 2.58 0 0 1-.467 4.017l-.147.084-1.168.618.516.515a3.25 3.25 0 0 1 .135 4.452l-.135.144-1.233 1.232a.75.75 0 0 1-.976.073l-.084-.073-.47-.47-1.47 1.47a.75.75 0 0 1-.976.073l-.084-.073-5.5-5.5a.75.75 0 0 1-.073-.976l.073-.085 1.469-1.47-.47-.469a.75.75 0 0 1-.072-.976l.073-.084 1.231-1.231a3.254 3.254 0 0 1 4.452-.135l.144.136.514.513.618-1.167q.136-.256.324-.475l.13-.14a2.58 2.58 0 0 1 3.647-.003m-9.53 5.095-.938.937 4.439 4.44.94-.94zm.887-2.876-.125.113-.7.7 6.439 6.44.702-.703a1.75 1.75 0 0 0 .018-2.457l-3.982-3.98a1.754 1.754 0 0 0-2.352-.113m6.059-1.157q-.076.075-.136.166l-.054.092-.833 1.573.716.717 1.575-.834a1.077 1.077 0 1 0-1.268-1.714"/></svg>