<svg xmlns="http://www.w3.org/2000/svg" width="24" height="24" fill="none"><path fill="#04071E" d="M15.3 11.1a.9.9 0 1 1 0-1.8.9.9 0 0 1 0 1.8m0 3.6a.9.9 0 1 1 0-1.8.9.9 0 0 1 0 1.8m-.9 2.7a.9.9 0 1 0 1.8 0 .9.9 0 0 0-1.8 0m-1.2-7.2a.6.6 0 0 0-.6-.6H8.4a.6.6 0 0 0 0 1.2h4.2a.6.6 0 0 0 .6-.6m0 3.6a.6.6 0 0 0-.6-.6H8.4a.6.6 0 1 0 0 1.2h4.2a.6.6 0 0 0 .6-.6m0 3.6a.6.6 0 0 0-.6-.6H8.4a.6.6 0 1 0 0 1.2h4.2a.6.6 0 0 0 .6-.6m-3-15a1.8 1.8 0 0 0-1.697 1.2H6.6a1.8 1.8 0 0 0-1.8 1.8v14.4a1.8 1.8 0 0 0 1.8 1.8h10.8a1.8 1.8 0 0 0 1.8-1.8V5.4a1.8 1.8 0 0 0-1.8-1.8h-1.902A1.8 1.8 0 0 0 13.8 2.4zm-.6 1.8a.6.6 0 0 1 .6-.6h3.6a.6.6 0 1 1 0 1.2h-3.6a.6.6 0 0 1-.6-.6m-3 .6h1.903A1.8 1.8 0 0 0 10.2 6h3.6a1.8 1.8 0 0 0 1.698-1.2H17.4a.6.6 0 0 1 .6.6v14.4a.6.6 0 0 1-.6.6H6.6a.6.6 0 0 1-.6-.6V5.4a.6.6 0 0 1 .6-.6"/><path fill="#04071E" fill-rule="evenodd" d="M8.4 3.45a1.95 1.95 0 0 1 1.8-1.2h3.6a1.95 1.95 0 0 1 1.8 1.2h1.8a1.95 1.95 0 0 1 1.95 1.95v14.4a1.95 1.95 0 0 1-1.95 1.95H6.6a1.95 1.95 0 0 1-1.95-1.95V5.4A1.95 1.95 0 0 1 6.6 3.45zm1.8-.9a1.65 1.65 0 0 0-1.556 1.1l-.035.1H6.6A1.65 1.65 0 0 0 4.95 5.4v14.4c0 .911.74 1.65 1.65 1.65h10.8a1.65 1.65 0 0 0 1.65-1.65V5.4a1.65 1.65 0 0 0-1.65-1.65h-2.008l-.035-.1a1.65 1.65 0 0 0-1.557-1.1zm0 1.2a.45.45 0 1 0 0 .9h3.6a.45.45 0 0 0 0-.9zm-.75.45a.75.75 0 0 1 .75-.75h3.6a.75.75 0 0 1 0 1.5h-3.6a.75.75 0 0 1-.75-.75m-2.85.75a.45.45 0 0 0-.45.45v14.4c0 .248.202.45.45.45h10.8a.45.45 0 0 0 .45-.45V5.4a.45.45 0 0 0-.45-.45h-1.8a1.95 1.95 0 0 1-1.8 1.2h-3.6a1.95 1.95 0 0 1-1.8-1.2zm-.75.45a.75.75 0 0 1 .75-.75H8.61l.035.1a1.65 1.65 0 0 0 1.556 1.1h3.6a1.65 1.65 0 0 0 1.556-1.1l.036-.1H17.4a.75.75 0 0 1 .75.75v14.4a.75.75 0 0 1-.75.75H6.6a.75.75 0 0 1-.75-.75zm9.45 4.05a.75.75 0 1 0 0 1.5.75.75 0 0 0 0-1.5m-1.05.75a1.05 1.05 0 1 1 2.1 0 1.05 1.05 0 0 1-2.1 0m-6.6 0a.75.75 0 0 1 .75-.75h4.2a.75.75 0 0 1 0 1.5H8.4a.75.75 0 0 1-.75-.75m.75-.45a.45.45 0 1 0 0 .9h4.2a.45.45 0 0 0 0-.9zm6.9 3.3a.75.75 0 1 0 0 1.5.75.75 0 0 0 0-1.5m-1.05.75a1.05 1.05 0 1 1 2.1 0 1.05 1.05 0 0 1-2.1 0m-6.6 0a.75.75 0 0 1 .75-.75h4.2a.75.75 0 0 1 0 1.5H8.4a.75.75 0 0 1-.75-.75m.75-.45a.45.45 0 0 0 0 .9h4.2a.45.45 0 0 0 0-.9zm5.85 4.05a1.05 1.05 0 1 1 2.1 0 1.05 1.05 0 0 1-2.1 0m1.05-.75a.75.75 0 1 0 0 1.5.75.75 0 0 0 0-1.5m-7.65.75a.75.75 0 0 1 .75-.75h4.2a.75.75 0 0 1 0 1.5H8.4a.75.75 0 0 1-.75-.75m.75-.45a.45.45 0 0 0 0 .9h4.2a.45.45 0 0 0 0-.9z" clip-rule="evenodd"/></svg>