<svg xmlns="http://www.w3.org/2000/svg" width="24" height="24" fill="none"><path fill="#04071E" d="M10.2 2.4a1.8 1.8 0 0 0-1.697 1.2H6.6a1.8 1.8 0 0 0-1.8 1.8v14.4a1.8 1.8 0 0 0 1.8 1.8h4.605a4.2 4.2 0 0 1-.362-1.2H6.6a.6.6 0 0 1-.6-.6V5.4a.6.6 0 0 1 .6-.6h1.903A1.8 1.8 0 0 0 10.2 6h3.6a1.8 1.8 0 0 0 1.698-1.2H17.4a.6.6 0 0 1 .6.6V12h1.2V5.4a1.8 1.8 0 0 0-1.8-1.8h-1.902A1.8 1.8 0 0 0 13.8 2.4zm-.6 1.8a.6.6 0 0 1 .6-.6h3.6a.6.6 0 1 1 0 1.2h-3.6a.6.6 0 0 1-.6-.6m4.8 9a2.4 2.4 0 0 0-2.4 2.4v4.8a2.4 2.4 0 0 0 2.4 2.4h6a2.4 2.4 0 0 0 2.4-2.4v-4.8a2.4 2.4 0 0 0-2.4-2.4zm0 6.6a.6.6 0 0 1 .6-.6h4.8a.6.6 0 0 1 0 1.2H15a.6.6 0 0 1-.6-.6m0-3.6a.6.6 0 0 1 .6-.6h4.8a.6.6 0 0 1 0 1.2H15a.6.6 0 0 1-.6-.6"/><path fill="#04071E" fill-rule="evenodd" d="M8.4 3.45a1.95 1.95 0 0 1 1.8-1.2h3.6a1.95 1.95 0 0 1 1.8 1.2h1.8a1.95 1.95 0 0 1 1.95 1.95v6.75h-1.5V5.4a.45.45 0 0 0-.45-.45h-1.8a1.95 1.95 0 0 1-1.8 1.2h-3.6a1.95 1.95 0 0 1-1.8-1.2H6.6a.45.45 0 0 0-.45.45v14.4c0 .248.202.45.45.45h4.373l.018.129c.059.408.178.797.35 1.157l.1.214h-4.84a1.95 1.95 0 0 1-1.95-1.95V5.4A1.95 1.95 0 0 1 6.6 3.45zm1.8-.9a1.65 1.65 0 0 0-1.556 1.1l-.035.1H6.6A1.65 1.65 0 0 0 4.95 5.4v14.4c0 .911.74 1.65 1.65 1.65h4.374a4.3 4.3 0 0 1-.26-.9H6.6a.75.75 0 0 1-.75-.75V5.4a.75.75 0 0 1 .75-.75H8.61l.035.1a1.65 1.65 0 0 0 1.556 1.1h3.6a1.65 1.65 0 0 0 1.556-1.1l.036-.1H17.4a.75.75 0 0 1 .75.75v6.45h.9V5.4a1.65 1.65 0 0 0-1.65-1.65h-2.008l-.035-.1a1.65 1.65 0 0 0-1.557-1.1zm0 1.2a.45.45 0 1 0 0 .9h3.6a.45.45 0 0 0 0-.9zm-.75.45a.75.75 0 0 1 .75-.75h3.6a.75.75 0 0 1 0 1.5h-3.6a.75.75 0 0 1-.75-.75m2.4 11.4a2.55 2.55 0 0 1 2.55-2.55h6a2.55 2.55 0 0 1 2.55 2.55v4.8a2.55 2.55 0 0 1-2.55 2.55h-6a2.55 2.55 0 0 1-2.55-2.55zm2.55-2.25a2.25 2.25 0 0 0-2.25 2.25v4.8a2.25 2.25 0 0 0 2.25 2.25h6a2.25 2.25 0 0 0 2.25-2.25v-4.8a2.25 2.25 0 0 0-2.25-2.25zm.6 2.4a.45.45 0 0 0 0 .9h4.8a.45.45 0 0 0 0-.9zm-.75.45a.75.75 0 0 1 .75-.75h4.8a.75.75 0 0 1 0 1.5H15a.75.75 0 0 1-.75-.75m.75 3.15a.45.45 0 0 0 0 .9h4.8a.45.45 0 0 0 0-.9zm-.75.45a.75.75 0 0 1 .75-.75h4.8a.75.75 0 0 1 0 1.5H15a.75.75 0 0 1-.75-.75" clip-rule="evenodd"/></svg>