<svg xmlns="http://www.w3.org/2000/svg" width="24" height="24" fill="none"><path fill="#04071E" d="M9.75 1.5c-.98 0-1.814.626-2.123 1.5H6.75A2.25 2.25 0 0 0 4.5 5.25v12a2.25 2.25 0 0 0 2.25 2.25h9A2.25 2.25 0 0 0 18 17.25v-12A2.25 2.25 0 0 0 15.75 3h-.878a2.25 2.25 0 0 0-2.122-1.5zM9 3.75A.75.75 0 0 1 9.75 3h3a.75.75 0 0 1 0 1.5h-3A.75.75 0 0 1 9 3.75m-2.25.75h.877A2.25 2.25 0 0 0 9.75 6h3c.98 0 1.813-.625 2.122-1.5h.878a.75.75 0 0 1 .75.75v12a.75.75 0 0 1-.75.75h-9a.75.75 0 0 1-.75-.75v-12a.75.75 0 0 1 .75-.75M19.5 17.25V4.905C20.4 5.43 21 6.39 21 7.5v9.75a5.256 5.256 0 0 1-5.25 5.25H9c-1.11 0-2.07-.6-2.595-1.5h9.345c2.07 0 3.75-1.68 3.75-3.75"/><path fill="#04071E" fill-rule="evenodd" d="M7.524 2.85a2.4 2.4 0 0 1 2.226-1.5h3a2.4 2.4 0 0 1 2.226 1.5h.774a2.4 2.4 0 0 1 2.4 2.4v12a2.4 2.4 0 0 1-2.4 2.4h-9a2.4 2.4 0 0 1-2.4-2.4v-12a2.4 2.4 0 0 1 2.4-2.4zm2.226-1.2c-.914 0-1.693.584-1.981 1.4l-.036.1H6.75a2.1 2.1 0 0 0-2.1 2.1v12c0 1.16.94 2.1 2.1 2.1h9a2.1 2.1 0 0 0 2.1-2.1v-12a2.1 2.1 0 0 0-2.1-2.1h-.984l-.035-.1a2.1 2.1 0 0 0-1.981-1.4zm0 1.5a.6.6 0 0 0 0 1.2h3a.6.6 0 0 0 0-1.2zm-.9.6a.9.9 0 0 1 .9-.9h3a.9.9 0 0 1 0 1.8h-3a.9.9 0 0 1-.9-.9m-2.1.9a.6.6 0 0 0-.6.6v12a.6.6 0 0 0 .6.6h9a.6.6 0 0 0 .6-.6v-12a.6.6 0 0 0-.6-.6h-.774a2.4 2.4 0 0 1-2.226 1.5h-3a2.4 2.4 0 0 1-2.226-1.5zm-.9.6a.9.9 0 0 1 .9-.9h.983l.036.1a2.1 2.1 0 0 0 1.98 1.4h3c.915 0 1.693-.584 1.982-1.4l.035-.1h.984a.9.9 0 0 1 .9.9v12a.9.9 0 0 1-.9.9h-9a.9.9 0 0 1-.9-.9zm13.5-.606.225.131A3.14 3.14 0 0 1 21.15 7.5v9.75c0 2.978-2.422 5.4-5.4 5.4H9a3.14 3.14 0 0 1-2.725-1.574l-.132-.226h9.607c1.987 0 3.6-1.613 3.6-3.6zm.3.536v12.07c0 2.153-1.747 3.9-3.9 3.9H6.68c.52.73 1.361 1.2 2.32 1.2h6.75c2.812 0 5.1-2.288 5.1-5.1V7.5c0-.958-.471-1.8-1.2-2.32" clip-rule="evenodd"/></svg>