<svg xmlns="http://www.w3.org/2000/svg" width="24" height="24" fill="none"><path fill="#04071E" d="M12 3.6c3.38 0 5.297 2.308 5.576 5.095h.085c1.842 0 3.388 1.3 3.82 3.057a5 5 0 0 0-.638-.328 7 7 0 0 0-.942-.32 2.71 2.71 0 0 0-2.24-1.209h-.085a1.2 1.2 0 0 1-1.194-1.08C16.14 6.39 14.53 4.8 12 4.8c-2.537 0-4.139 1.58-4.382 4.015a1.2 1.2 0 0 1-1.194 1.08h-.086c-1.504 0-2.738 1.27-2.738 2.853S4.834 15.6 6.338 15.6H12v1.2H6.338c-2.175 0-3.938-1.814-3.938-4.052 0-2.164 1.648-3.931 3.722-4.047l.302-.006C6.704 5.89 8.62 3.6 12 3.6m8.965 13.539c-.972.556-2.235.861-3.565.861s-2.593-.305-3.565-.861a4.7 4.7 0 0 1-.635-.435V20.4c0 1.326 1.88 2.4 4.2 2.4s4.2-1.075 4.2-2.4v-3.696c-.202.166-.417.31-.635.435M17.4 12c-2.32 0-4.2 1.075-4.2 2.4 0 1.326 1.88 2.4 4.2 2.4s4.2-1.075 4.2-2.4-1.88-2.4-4.2-2.4"/><path fill="#04071E" fill-rule="evenodd" d="M8.155 5.202c-.908.895-1.445 2.134-1.582 3.508l-.013.133-.432.008c-1.99.112-3.578 1.81-3.578 3.897 0 2.159 1.7 3.902 3.788 3.902h5.512v-.9H6.338c-1.592 0-2.888-1.342-2.888-3.002s1.296-3.003 2.888-3.003h.086c.54 0 .99-.409 1.045-.945.124-1.247.598-2.287 1.378-3.016S10.7 4.65 12 4.65c1.298 0 2.37.408 3.151 1.139.78.73 1.256 1.769 1.38 3.01a1.05 1.05 0 0 0 1.045.946h.086c.955 0 1.805.484 2.33 1.229q.486.131.91.312.166.072.33.155c-.522-1.515-1.925-2.596-3.57-2.596h-.221l-.014-.135c-.136-1.364-.673-2.604-1.581-3.5S13.654 3.75 12 3.75s-2.939.56-3.845 1.452m-.21-.213C8.91 4.036 10.273 3.45 12 3.45s3.09.59 4.057 1.546c.934.923 1.49 2.179 1.654 3.55 1.893.022 3.472 1.366 3.915 3.17l.087.356-.311-.192a5 5 0 0 0-.619-.318 7 7 0 0 0-.92-.312l-.055-.015-.032-.046a2.56 2.56 0 0 0-2.114-1.144h-.086a1.35 1.35 0 0 1-1.343-1.215c-.118-1.183-.569-2.15-1.287-2.822C14.23 5.337 13.234 4.95 12 4.95c-1.236 0-2.232.384-2.949 1.054S7.886 7.64 7.767 8.829a1.35 1.35 0 0 1-1.343 1.216h-.086c-1.416 0-2.588 1.197-2.588 2.703s1.172 2.702 2.588 2.702h5.812v1.5H6.338c-2.262 0-4.088-1.885-4.088-4.202 0-2.24 1.707-4.077 3.864-4.197h.005l.17-.003c.164-1.38.72-2.637 1.655-3.56m6.41 7.584c.787-.45 1.864-.723 3.045-.723s2.258.273 3.044.723c.783.447 1.306 1.087 1.306 1.827s-.523 1.38-1.306 1.827c-.786.45-1.863.723-3.044.723s-2.258-.273-3.044-.723c-.783-.447-1.306-1.087-1.306-1.827s.523-1.38 1.306-1.827m.15.26c-.738.422-1.155.981-1.155 1.567s.417 1.145 1.155 1.567c.733.419 1.757.683 2.895.683s2.162-.264 2.895-.683c.738-.422 1.155-.981 1.155-1.567s-.417-1.145-1.155-1.567c-.733-.419-1.757-.683-2.895-.683s-2.162.264-2.895.683m7.245 3.555V20.4c0 .74-.523 1.38-1.306 1.827-.786.45-1.863.723-3.044.723s-2.258-.273-3.044-.723c-.783-.447-1.306-1.087-1.306-1.827v-4.012l.245.2c.195.16.403.3.614.42.946.541 2.182.842 3.491.842s2.545-.3 3.49-.841c.212-.12.42-.261.615-.42zm-8.4.62V20.4c0 .586.417 1.145 1.155 1.567.733.419 1.757.683 2.895.683s2.162-.264 2.895-.683c.738-.422 1.155-.981 1.155-1.567v-3.393a5 5 0 0 1-.41.262c-1 .57-2.289.881-3.64.881s-2.64-.31-3.64-.88a5 5 0 0 1-.41-.263" clip-rule="evenodd"/></svg>