<svg xmlns="http://www.w3.org/2000/svg" width="24" height="24" fill="none"><path fill="#04071E" d="M12 4.8c3.38 0 5.297 2.308 5.576 5.095h.085c1.49 0 2.786.85 3.455 2.105h-1.454a2.69 2.69 0 0 0-2-.905h-.086a1.2 1.2 0 0 1-1.194-1.08C16.14 7.59 14.53 6 12 6c-2.537 0-4.139 1.579-4.382 4.015a1.2 1.2 0 0 1-1.194 1.08h-.086c-1.504 0-2.738 1.27-2.738 2.853 0 1.582 1.234 2.852 2.738 2.852H10.8V18H6.338C4.163 18 2.4 16.186 2.4 13.948c0-2.164 1.648-3.931 3.722-4.047l.302-.006C6.704 7.09 8.62 4.8 12 4.8m0 9.6a1.2 1.2 0 0 1 1.2-1.2h8.4a1.2 1.2 0 0 1 1.2 1.2v4.8a1.2 1.2 0 0 1-1.2 1.2h-2.4v1.2h.6a.6.6 0 1 1 0 1.2H15a.6.6 0 1 1 0-1.2h.6v-1.2h-2.4a1.2 1.2 0 0 1-1.2-1.2z"/><path fill="#04071E" fill-rule="evenodd" d="M8.155 6.402c-.908.895-1.445 2.134-1.582 3.508l-.013.133-.432.008c-1.99.112-3.578 1.81-3.578 3.897 0 2.159 1.7 3.902 3.788 3.902h4.312v-.9H6.338c-1.592 0-2.888-1.342-2.888-3.002s1.296-3.003 2.888-3.003h.086c.54 0 .99-.409 1.045-.945.124-1.247.598-2.287 1.378-3.016S10.7 5.85 12 5.85c1.298 0 2.37.408 3.151 1.139.78.729 1.256 1.769 1.38 3.01a1.05 1.05 0 0 0 1.045.946h.086a2.83 2.83 0 0 1 2.066.905h1.129c-.674-1.087-1.854-1.805-3.195-1.805h-.221l-.014-.135c-.136-1.364-.673-2.604-1.581-3.5S13.654 4.95 12 4.95s-2.939.56-3.845 1.452m-.21-.213C8.91 5.236 10.273 4.65 12 4.65s3.09.59 4.057 1.546c.934.923 1.49 2.179 1.654 3.55 1.527.018 2.851.897 3.538 2.183l.117.221h-1.77l-.045-.05a2.54 2.54 0 0 0-1.89-.855h-.085a1.35 1.35 0 0 1-1.343-1.215c-.118-1.183-.569-2.15-1.287-2.822C14.23 6.537 13.234 6.15 12 6.15c-1.236 0-2.232.384-2.949 1.054S7.886 8.84 7.767 10.03a1.35 1.35 0 0 1-1.343 1.215h-.086c-1.416 0-2.588 1.197-2.588 2.703s1.172 2.702 2.588 2.702h4.612v1.5H6.338c-2.262 0-4.088-1.886-4.088-4.202 0-2.24 1.707-4.077 3.864-4.197h.005l.17-.003c.164-1.38.72-2.637 1.655-3.56M13.2 13.35c-.58 0-1.05.47-1.05 1.05v4.8c0 .58.47 1.05 1.05 1.05h2.55v1.5H15a.45.45 0 0 0 0 .9h4.8a.45.45 0 0 0 0-.9h-.75v-1.5h2.55c.58 0 1.05-.47 1.05-1.05v-4.8c0-.58-.47-1.05-1.05-1.05zm-1.35 1.05c0-.746.604-1.35 1.35-1.35h8.4c.746 0 1.35.604 1.35 1.35v4.8a1.35 1.35 0 0 1-1.35 1.35h-2.25v.9h.45a.75.75 0 0 1 0 1.5H15a.75.75 0 0 1 0-1.5h.45v-.9H13.2a1.35 1.35 0 0 1-1.35-1.35z" clip-rule="evenodd"/></svg>