<svg xmlns="http://www.w3.org/2000/svg" width="24" height="24" fill="none"><path fill="#04071E" d="M8.987 9.603A.75.75 0 0 0 8.25 9h-3a.75.75 0 0 0-.75.75v6a.75.75 0 1 0 1.5 0V13.5h1.5a.75.75 0 1 0 0-1.5H6v-1.5h2.25a.75.75 0 0 0 .737-.897m8.793 5.177a.75.75 0 0 0-.53-1.28h-.75V12h.75a.75.75 0 1 0 0-1.5h-.75v-.75a.75.75 0 1 0-1.5 0v.75h-1.5v-.75a.75.75 0 1 0-1.5 0v.75h-.75a.75.75 0 1 0 0 1.5H12v1.5h-.75a.75.75 0 1 0 0 1.5H12v.75a.75.75 0 1 0 1.5 0V15H15v.75a.75.75 0 1 0 1.5 0V15h.75a.75.75 0 0 0 .53-.22M13.5 12H15v1.5h-1.5zM4.125 4.5A2.625 2.625 0 0 0 1.5 7.125v11.25A2.625 2.625 0 0 0 4.125 21h14.25A2.625 2.625 0 0 0 21 18.375V7.125A2.625 2.625 0 0 0 18.375 4.5zM3 7.125C3 6.504 3.504 6 4.125 6h14.25c.621 0 1.125.504 1.125 1.125v11.25c0 .621-.504 1.125-1.125 1.125H4.125A1.125 1.125 0 0 1 3 18.375z"/></svg>