<svg xmlns="http://www.w3.org/2000/svg" width="24" height="24" fill="none"><path fill="#04071E" d="M8.625 6H5.25a.75.75 0 0 0-.75.75v10.5a.75.75 0 1 0 1.5 0v-4.5h2.625A3.38 3.38 0 0 0 12 9.375 3.38 3.38 0 0 0 8.625 6m0 5.25H6V7.5h2.625A1.88 1.88 0 0 1 10.5 9.375a1.88 1.88 0 0 1-1.875 1.875M21.61 7.186 18 12.24v5.01a.75.75 0 1 1-1.5 0v-5.01l-3.61-5.054A.751.751 0 0 1 13.9 6.11a.8.8 0 0 1 .213.201l3.137 4.4 3.14-4.397a.75.75 0 1 1 1.22.874"/><path fill="#04071E" fill-rule="evenodd" d="M13.6 6.153a.6.6 0 0 0-.45.105.6.6 0 0 0-.14.84l3.64 5.094v5.058a.6.6 0 0 0 1.2 0v-5.058l3.638-5.093a.602.602 0 0 0-.35-.935.6.6 0 0 0-.627.236l-3.261 4.568-3.259-4.57a.6.6 0 0 0-.391-.245m-.304-.284a.9.9 0 0 1 .94.354m0 0 3.014 4.229 3.017-4.225a.902.902 0 0 1 1.5.047.9.9 0 0 1-.035 1l-3.582 5.014v4.962a.9.9 0 1 1-1.8 0v-4.962l-3.583-5.014a.903.903 0 0 1 .53-1.405m-8.684.245a.9.9 0 0 1 .637-.264h3.375a3.53 3.53 0 0 1 3.525 3.525A3.53 3.53 0 0 1 8.625 12.9H6.15v4.35a.9.9 0 0 1-1.8 0V6.75a.9.9 0 0 1 .263-.636m4.012.036a3.23 3.23 0 0 1 3.225 3.225A3.23 3.23 0 0 1 8.624 12.6H5.85v4.65a.6.6 0 0 1-1.2 0V6.75a.6.6 0 0 1 .6-.6zM5.85 7.35h2.775a2.03 2.03 0 0 1 2.025 2.025A2.03 2.03 0 0 1 8.625 11.4H5.85zm2.774 3.75a1.73 1.73 0 0 0 1.726-1.725A1.73 1.73 0 0 0 8.625 7.65H6.15v3.45z" clip-rule="evenodd"/></svg>