<svg xmlns="http://www.w3.org/2000/svg" width="24" height="24" fill="none"><path fill="#04071E" d="m9.183 6-1.5-1.5H10.5a.75.75 0 0 1 0 1.5zm5.067 0h7.5a.75.75 0 0 0 0-1.5h-7.5a.75.75 0 0 0 0 1.5M15 9a.75.75 0 0 0 0 1.5h5.25a.75.75 0 0 0 0-1.5zm-1.5 9H2.25a.75.75 0 0 0 0 1.5H13.5a.75.75 0 0 0 0-1.5m8.781 3.219L2.779 1.721a.75.75 0 0 0-1.06 1.06L3.438 4.5H2.25a.75.75 0 0 0 0 1.5h2.688l3 3H6.75a.75.75 0 0 0 0 1.5h2.688l3 3H5.25a.75.75 0 0 0 0 1.5h8.688l7.281 7.281a.753.753 0 0 0 1.062-.002.75.75 0 0 0 0-1.06"/><path fill="#04071E" fill-rule="evenodd" d="m2.886 1.614 19.501 19.499a.9.9 0 0 1-.636 1.537h-.001a.9.9 0 0 1-.637-.262l-7.237-7.238H5.25a.9.9 0 0 1 0-1.8h6.826l-2.7-2.7H6.75a.9.9 0 0 1 0-1.8h.826l-2.7-2.7H2.25a.9.9 0 0 1 0-1.8h.826L1.613 2.887a.9.9 0 0 1 1.273-1.273m-.213.213a.6.6 0 0 0-.848.848L3.8 4.65H2.25a.6.6 0 0 0 0 1.2H5l3.3 3.3H6.75a.6.6 0 0 0 0 1.2H9.5l3.3 3.3H5.25a.6.6 0 0 0 0 1.2H14l7.325 7.324a.604.604 0 0 0 .85 0 .6.6 0 0 0 0-.849zM7.321 4.35H10.5a.9.9 0 0 1 0 1.8H9.12zm.724.3 1.2 1.2H10.5a.6.6 0 0 0 0-1.2zm5.305.6a.9.9 0 0 1 .9-.9h7.5a.9.9 0 0 1 0 1.8h-7.5a.9.9 0 0 1-.9-.9m.9-.6a.6.6 0 0 0 0 1.2h7.5a.6.6 0 0 0 0-1.2zm-.15 5.1a.9.9 0 0 1 .9-.9h5.25a.9.9 0 0 1 0 1.8H15a.9.9 0 0 1-.9-.9m.9-.6a.6.6 0 0 0 0 1.2h5.25a.6.6 0 0 0 0-1.2zm-13.65 9.6a.9.9 0 0 1 .9-.9H13.5a.9.9 0 0 1 0 1.8H2.25a.9.9 0 0 1-.9-.9m.9-.6a.6.6 0 0 0 0 1.2H13.5a.6.6 0 0 0 0-1.2z" clip-rule="evenodd"/></svg>