<svg xmlns="http://www.w3.org/2000/svg" width="24" height="24" fill="none"><path fill="#04071E" d="M6 14.25v-3a.75.75 0 1 1 1.5 0 .75.75 0 1 0 1.5 0 2.25 2.25 0 0 0-4.5 0v3a2.25 2.25 0 0 0 4.5 0 .75.75 0 1 0-1.5 0 .75.75 0 1 1-1.5 0m11.78.53a.75.75 0 0 0-.53-1.28h-.75V12h.75a.75.75 0 1 0 0-1.5h-.75v-.75a.75.75 0 1 0-1.5 0v.75h-1.5v-.75a.75.75 0 1 0-1.5 0v.75h-.75a.75.75 0 1 0 0 1.5H12v1.5h-.75a.75.75 0 1 0 0 1.5H12v.75a.75.75 0 1 0 1.5 0V15H15v.75a.75.75 0 1 0 1.5 0V15h.75a.75.75 0 0 0 .53-.22M13.5 12H15v1.5h-1.5zM4.125 4.5A2.625 2.625 0 0 0 1.5 7.125v11.25A2.625 2.625 0 0 0 4.125 21h14.25A2.625 2.625 0 0 0 21 18.375V7.125A2.625 2.625 0 0 0 18.375 4.5zM3 7.125C3 6.504 3.503 6 4.125 6h14.25c.62 0 1.125.504 1.125 1.125v11.25c0 .621-.504 1.125-1.125 1.125H4.125A1.125 1.125 0 0 1 3 18.375z"/><path fill="#04071E" fill-rule="evenodd" d="M1.35 7.125A2.775 2.775 0 0 1 4.125 4.35h14.25a2.775 2.775 0 0 1 2.775 2.775v11.25a2.775 2.775 0 0 1-2.775 2.775H4.125a2.775 2.775 0 0 1-2.775-2.775zM4.125 4.65A2.475 2.475 0 0 0 1.65 7.125v11.25a2.475 2.475 0 0 0 2.475 2.475h14.25a2.475 2.475 0 0 0 2.475-2.475V7.125a2.475 2.475 0 0 0-2.475-2.475zm0 1.5a.975.975 0 0 0-.975.975v11.25c0 .538.436.975.975.975h14.25a.975.975 0 0 0 .975-.975V7.125a.975.975 0 0 0-.975-.975zm-1.275.975c0-.704.57-1.275 1.275-1.275h14.25c.704 0 1.275.57 1.275 1.275v11.25c0 .704-.571 1.275-1.275 1.275H4.125c-.705 0-1.275-.57-1.275-1.275zm2.203 2.428A2.4 2.4 0 0 1 9.15 11.25a.9.9 0 0 1-1.8 0 .6.6 0 0 0-1.2 0v3a.6.6 0 0 0 1.2 0 .9.9 0 0 1 1.8 0 2.4 2.4 0 0 1-4.8 0v-3a2.4 2.4 0 0 1 .703-1.697M6.75 9.15a2.1 2.1 0 0 0-2.1 2.1v3a2.1 2.1 0 1 0 4.2 0 .6.6 0 0 0-1.2 0 .9.9 0 0 1-1.8 0v-3a.9.9 0 0 1 1.8 0 .6.6 0 0 0 1.2 0 2.1 2.1 0 0 0-2.1-2.1m5.363-.036a.9.9 0 0 1 1.537.636v.6h1.2v-.6a.9.9 0 1 1 1.8 0v.6h.6a.9.9 0 1 1 0 1.8h-.6v1.2h.6a.9.9 0 1 1 0 1.8h-.6v.6a.9.9 0 1 1-1.8 0v-.6h-1.2v.6a.9.9 0 1 1-1.8 0v-.6h-.6a.9.9 0 1 1 0-1.8h.6v-1.2h-.6a.9.9 0 1 1 0-1.8h.6v-.6a.9.9 0 0 1 .263-.636m.637.036a.6.6 0 0 0-.6.6v.9h-.9a.6.6 0 0 0 0 1.2h.9v1.8h-.9a.6.6 0 0 0 0 1.2h.9v.9a.6.6 0 0 0 1.2 0v-.9h1.8v.9a.6.6 0 0 0 1.2 0v-.9h.9a.6.6 0 1 0 0-1.2h-.9v-1.8h.9a.6.6 0 1 0 0-1.2h-.9v-.9a.6.6 0 1 0-1.2 0v.9h-1.8v-.9a.6.6 0 0 0-.6-.6m.6 2.7h1.8v1.8h-1.8zm.3.3v1.2h1.2v-1.2z" clip-rule="evenodd"/></svg>