<svg xmlns="http://www.w3.org/2000/svg" width="24" height="24" fill="none"><path fill="#04071E" d="M3 6a.6.6 0 0 0 0 1.2h6.6a.6.6 0 0 0 0-1.2zm3.6 3.6a.6.6 0 1 0 0 1.2h6a.6.6 0 1 0 0-1.2zm-1.8 4.2a.6.6 0 0 1 .6-.6h12a.6.6 0 1 1 0 1.2h-12a.6.6 0 0 1-.6-.6m-1.8 3A.6.6 0 1 0 3 18h10.2a.6.6 0 1 0 0-1.2zm12-6.6a.6.6 0 0 1 .6-.6h4.2a.6.6 0 1 1 0 1.2h-4.2a.6.6 0 0 1-.6-.6M12.6 6a.6.6 0 1 0 0 1.2H21A.6.6 0 1 0 21 6z"/><path fill="#04071E" fill-rule="evenodd" d="M2.25 6.6A.75.75 0 0 1 3 5.85h6.6a.75.75 0 0 1 0 1.5H3a.75.75 0 0 1-.75-.75M3 6.15a.45.45 0 1 0 0 .9h6.6a.45.45 0 0 0 0-.9zm8.85.45a.75.75 0 0 1 .75-.75H21a.75.75 0 0 1 0 1.5h-8.4a.75.75 0 0 1-.75-.75m.75-.45a.45.45 0 0 0 0 .9H21a.45.45 0 0 0 0-.9zM5.85 10.2a.75.75 0 0 1 .75-.75h6a.75.75 0 0 1 0 1.5h-6a.75.75 0 0 1-.75-.75m.75-.45a.45.45 0 1 0 0 .9h6a.45.45 0 0 0 0-.9zm9 0a.45.45 0 0 0 0 .9h4.2a.45.45 0 0 0 0-.9zm-.75.45a.75.75 0 0 1 .75-.75h4.2a.75.75 0 0 1 0 1.5h-4.2a.75.75 0 0 1-.75-.75M5.4 13.35a.45.45 0 0 0 0 .9h12a.45.45 0 0 0 0-.9zm-.75.45a.75.75 0 0 1 .75-.75h12a.75.75 0 0 1 0 1.5h-12a.75.75 0 0 1-.75-.75m-2.4 3.6a.75.75 0 0 1 .75-.75h10.2a.75.75 0 0 1 0 1.5H3a.75.75 0 0 1-.75-.75m.75-.45a.45.45 0 0 0 0 .9h10.2a.45.45 0 0 0 0-.9z" clip-rule="evenodd"/></svg>