<svg xmlns="http://www.w3.org/2000/svg" width="24" height="24" fill="none"><path fill="#04071E" d="M5.25 7.5A2.25 2.25 0 0 0 3 9.75v4.5a2.25 2.25 0 0 0 4.5 0 .75.75 0 0 1 1.5 0 3.75 3.75 0 0 1-7.5 0v-4.5a3.75 3.75 0 1 1 7.5 0 .75.75 0 0 1-1.5 0A2.25 2.25 0 0 0 5.25 7.5m9-.75a.75.75 0 0 1 .75.75V9h3V7.5a.75.75 0 0 1 1.5 0V9h1.875a.75.75 0 0 1 0 1.5H19.5v3h1.875a.75.75 0 0 1 0 1.5H19.5v1.5a.75.75 0 0 1-1.5 0V15h-3v1.5a.75.75 0 0 1-1.5 0V15H12a.75.75 0 0 1 0-1.5h1.5v-3H12A.75.75 0 0 1 12 9h1.5V7.5a.75.75 0 0 1 .75-.75M15 10.5v3h3v-3z"/><path fill="#04071E" fill-rule="evenodd" d="M5.25 6.15a3.6 3.6 0 0 0-3.6 3.6v4.5a3.6 3.6 0 1 0 7.2 0 .6.6 0 1 0-1.2 0 2.4 2.4 0 0 1-4.8 0v-4.5a2.4 2.4 0 0 1 4.8 0 .6.6 0 1 0 1.2 0 3.6 3.6 0 0 0-3.6-3.6m-2.758.842A3.9 3.9 0 0 1 9.15 9.75a.9.9 0 1 1-1.8 0 2.1 2.1 0 1 0-4.2 0v4.5a2.1 2.1 0 1 0 4.2 0 .9.9 0 1 1 1.8 0 3.9 3.9 0 0 1-7.8 0v-4.5a3.9 3.9 0 0 1 1.142-2.758M14.25 6.9a.6.6 0 0 0-.6.6V9a.15.15 0 0 1-.15.15H12a.6.6 0 1 0 0 1.2h1.5a.15.15 0 0 1 .15.15v3a.15.15 0 0 1-.15.15H12a.6.6 0 1 0 0 1.2h1.5a.15.15 0 0 1 .15.15v1.5a.6.6 0 1 0 1.2 0V15a.15.15 0 0 1 .15-.15h3a.15.15 0 0 1 .15.15v1.5a.6.6 0 1 0 1.2 0V15a.15.15 0 0 1 .15-.15h1.875a.6.6 0 1 0 0-1.2H19.5a.15.15 0 0 1-.15-.15v-3a.15.15 0 0 1 .15-.15h1.875a.6.6 0 1 0 0-1.2H19.5a.15.15 0 0 1-.15-.15V7.5a.6.6 0 1 0-1.2 0V9a.15.15 0 0 1-.15.15h-3a.15.15 0 0 1-.15-.15V7.5a.6.6 0 0 0-.6-.6m-.9.6a.9.9 0 0 1 1.8 0v1.35h2.7V7.5a.9.9 0 0 1 1.8 0v1.35h1.725a.9.9 0 1 1 0 1.8H19.65v2.7h1.725a.9.9 0 1 1 0 1.8H19.65v1.35a.9.9 0 1 1-1.8 0v-1.35h-2.7v1.35a.9.9 0 1 1-1.8 0v-1.35H12a.9.9 0 0 1 0-1.8h1.35v-2.7H12a.9.9 0 0 1 0-1.8h1.35zm1.5 3a.15.15 0 0 1 .15-.15h3a.15.15 0 0 1 .15.15v3a.15.15 0 0 1-.15.15h-3a.15.15 0 0 1-.15-.15zm.3.15v2.7h2.7v-2.7z" clip-rule="evenodd"/></svg>