<svg xmlns="http://www.w3.org/2000/svg" width="24" height="24" fill="none"><path fill="#04071E" d="M10.5 6.75v7.5a3.751 3.751 0 0 1-7.5 0v-.75a.75.75 0 1 1 1.5 0v.75a2.25 2.25 0 0 0 4.5 0v-7.5a.75.75 0 0 1 1.5 0m5.514 4.548c-1.565-.587-2.514-1.01-2.514-1.923 0-1.385 1.212-1.875 2.25-1.875S18 7.99 18 9.375a.75.75 0 1 0 1.5 0 3.42 3.42 0 0 0-2.351-3.219c-.838-.276-1.961-.276-2.799 0A3.42 3.42 0 0 0 12 9.375c0 2.02 1.933 2.745 3.486 3.327 1.552.582 2.514 1.01 2.514 1.923 0 1.384-1.212 1.875-2.25 1.875s-2.25-.49-2.25-1.875a.75.75 0 1 0-1.5 0A3.42 3.42 0 0 0 15.75 18a3.42 3.42 0 0 0 3.75-3.375c0-2.025-1.934-2.745-3.486-3.327"/><path fill="#04071E" fill-rule="evenodd" d="M14.303 6.014c.868-.286 2.025-.286 2.893 0a3.57 3.57 0 0 1 2.454 3.36v.001a.9.9 0 1 1-1.8 0c0-.64-.277-1.064-.67-1.333-.401-.274-.931-.392-1.43-.392-.5 0-1.03.118-1.43.392-.394.27-.67.692-.67 1.333 0 .39.196.683.604.96.416.281 1.027.528 1.812.822l.021.008c.767.288 1.65.619 2.342 1.135.705.527 1.22 1.254 1.22 2.325v.001a3.57 3.57 0 0 1-3.9 3.525 3.57 3.57 0 0 1-3.9-3.525v-.001a.9.9 0 1 1 1.8 0c0 .64.277 1.064.671 1.333.4.274.93.392 1.43.392.498 0 1.029-.118 1.43-.392.393-.27.67-.692.67-1.333 0-.39-.199-.684-.61-.962-.416-.282-1.027-.528-1.807-.82l-.011-.005c-.77-.288-1.657-.62-2.351-1.14-.706-.527-1.221-1.254-1.221-2.323v-.001a3.57 3.57 0 0 1 2.453-3.36m2.8.285c-.808-.266-1.899-.266-2.706 0a3.27 3.27 0 0 0-2.247 3.077c0 .951.45 1.596 1.1 2.082.657.491 1.508.81 2.288 1.104.773.29 1.42.547 1.87.853.46.31.742.686.742 1.21 0 .744-.33 1.258-.801 1.58-.465.318-1.06.445-1.6.445-.539 0-1.133-.127-1.598-.444-.472-.323-.801-.837-.801-1.581a.6.6 0 0 0-1.2 0 3.273 3.273 0 0 0 3.585 3.226l.015-.002.014.002a3.27 3.27 0 0 0 3.586-3.227c0-.953-.452-1.599-1.101-2.083-.657-.491-1.507-.81-2.288-1.102-.779-.292-1.425-.55-1.875-.856-.458-.31-.736-.684-.736-1.208 0-.744.329-1.258.8-1.58.466-.318 1.06-.445 1.6-.445.539 0 1.134.127 1.599.444.471.323.8.837.8 1.581a.6.6 0 0 0 1.2 0A3.27 3.27 0 0 0 17.103 6.3M9.75 6.15a.6.6 0 0 0-.6.6v7.5a2.4 2.4 0 0 1-4.8 0v-.75a.6.6 0 0 0-1.2 0v.75a3.6 3.6 0 0 0 7.2 0v-7.5a.6.6 0 0 0-.6-.6m-.637-.036a.9.9 0 0 1 1.537.636v7.5a3.9 3.9 0 0 1-7.8 0v-.75a.9.9 0 0 1 1.8 0v.75a2.1 2.1 0 0 0 4.2 0v-7.5a.9.9 0 0 1 .263-.636" clip-rule="evenodd"/></svg>