<svg xmlns="http://www.w3.org/2000/svg" width="24" height="24" fill="none"><path fill="#04071E" d="M6.75 9h1.5a2.25 2.25 0 0 1 0 4.5H7.5v2.25a.75.75 0 1 1-1.5 0v-6A.75.75 0 0 1 6.75 9m.75 3h.75a.75.75 0 1 0 0-1.5H7.5zm7.5.999 2.1-2.799a.75.75 0 0 0-1.2-.9l-1.65 2.2-1.65-2.2a.75.75 0 0 0-1.2.9l2.1 2.799v2.751a.75.75 0 1 0 1.5 0zM4.125 4.5A2.625 2.625 0 0 0 1.5 7.125v11.25A2.625 2.625 0 0 0 4.125 21h14.25A2.625 2.625 0 0 0 21 18.375V7.125A2.625 2.625 0 0 0 18.375 4.5zM3 7.125C3 6.504 3.504 6 4.125 6h14.25c.621 0 1.125.504 1.125 1.125v11.25c0 .621-.504 1.125-1.125 1.125H4.125A1.125 1.125 0 0 1 3 18.375z"/></svg>