<svg xmlns="http://www.w3.org/2000/svg" width="24" height="24" fill="none"><path fill="#04071E" d="M16.298 13.454a2.14 2.14 0 0 1-.6 2.584 2.14 2.14 0 0 1-1.328.462h-.219a2.15 2.15 0 0 1-1.514-.627A2.15 2.15 0 0 1 12 14.36a.8.8 0 0 1 .75-.806.7.7 0 0 1 .524.19.7.7 0 0 1 .226.506.674.674 0 0 0 .64.75h.22a.64.64 0 0 0 .637-.637.6.6 0 0 0-.095-.336.6.6 0 0 0-.257-.236l-1.464-.738a2.14 2.14 0 0 1-.974-1.008 2.139 2.139 0 0 1 .607-2.577c.377-.3.845-.465 1.326-.468h.22c.567 0 1.111.226 1.513.627.4.402.626.946.627 1.513a.8.8 0 0 1-.75.806.7.7 0 0 1-.524-.19.706.706 0 0 1-.226-.505v-.11a.64.64 0 0 0-.637-.638h-.22a.64.64 0 0 0-.637.637.63.63 0 0 0 .352.572l1.464.733c.43.217.773.572.976 1.008M6 9a.75.75 0 0 0 0 1.5h1.5v5.25a.75.75 0 1 0 1.5 0V10.5h1.5a.75.75 0 1 0 0-1.5zM4.125 4.5A2.625 2.625 0 0 0 1.5 7.125v11.25A2.625 2.625 0 0 0 4.125 21h14.25A2.625 2.625 0 0 0 21 18.375V7.125A2.625 2.625 0 0 0 18.375 4.5zM3 7.125C3 6.504 3.504 6 4.125 6h14.25c.621 0 1.125.504 1.125 1.125v11.25c0 .621-.504 1.125-1.125 1.125H4.125A1.125 1.125 0 0 1 3 18.375z"/></svg>