<svg xmlns="http://www.w3.org/2000/svg" width="24" height="24" fill="none"><path fill="#04071E" d="M19.5 14.625A3.42 3.42 0 0 1 15.75 18 3.42 3.42 0 0 1 12 14.625a.75.75 0 1 1 1.5 0c0 1.384 1.212 1.875 2.25 1.875S18 16.01 18 14.625c0-.914-.95-1.336-2.514-1.923C13.92 12.116 12 11.4 12 9.375A3.42 3.42 0 0 1 15.75 6a3.42 3.42 0 0 1 3.75 3.375.75.75 0 1 1-1.5 0C18 7.99 16.788 7.5 15.75 7.5s-2.25.49-2.25 1.875c0 .914.95 1.336 2.514 1.923 1.564.586 3.486 1.302 3.486 3.327M10.125 6h-6.75a.75.75 0 0 0 0 1.5H6v9.75a.75.75 0 1 0 1.5 0V7.5h2.625a.75.75 0 1 0 0-1.5"/><path fill="#04071E" fill-rule="evenodd" d="M15.735 6.15a3.27 3.27 0 0 0-3.585 3.226c0 .954.448 1.598 1.096 2.082.655.49 1.505.809 2.292 1.103.779.292 1.425.55 1.875.856.458.31.737.684.737 1.208 0 .744-.33 1.258-.801 1.58-.465.318-1.06.445-1.6.445-.539 0-1.133-.127-1.598-.444-.472-.323-.801-.837-.801-1.581a.6.6 0 0 0-1.2 0 3.27 3.27 0 0 0 3.585 3.226l.015-.002.014.002a3.27 3.27 0 0 0 3.586-3.227c0-.954-.449-1.598-1.097-2.082-.655-.49-1.505-.809-2.292-1.104-.779-.291-1.425-.55-1.875-.855-.458-.31-.736-.684-.736-1.208 0-.744.329-1.258.8-1.58.466-.318 1.06-.445 1.6-.445.539 0 1.134.127 1.599.444.471.323.8.837.8 1.581a.6.6 0 0 0 1.2 0 3.273 3.273 0 0 0-3.585-3.226l-.014.002zm.015-.3a3.57 3.57 0 0 0-3.9 3.524v.001c0 1.07.512 1.797 1.216 2.323.69.516 1.573.847 2.346 1.136l.021.008c.786.295 1.397.542 1.812.823.408.277.605.57.605.96 0 .64-.277 1.064-.67 1.333-.401.274-.931.392-1.43.392-.5 0-1.03-.118-1.43-.392-.394-.27-.67-.692-.67-1.333a.9.9 0 1 0-1.8 0v.001a3.57 3.57 0 0 0 3.9 3.525 3.57 3.57 0 0 0 3.9-3.525v-.001c0-1.07-.513-1.797-1.217-2.323-.69-.516-1.573-.847-2.346-1.137l-.02-.007c-.786-.295-1.397-.542-1.813-.823-.408-.277-.604-.57-.604-.96 0-.64.276-1.064.67-1.333.4-.274.93-.392 1.43-.392.498 0 1.029.118 1.43.392.393.269.67.692.67 1.333a.9.9 0 1 0 1.8 0v-.001a3.57 3.57 0 0 0-3.9-3.525m-13.012.264a.9.9 0 0 1 .637-.264h6.75a.9.9 0 0 1 0 1.8H7.65v9.6a.9.9 0 0 1-1.8 0v-9.6H3.375a.9.9 0 0 1-.637-1.536m.637.036a.6.6 0 0 0 0 1.2H6.15v9.9a.6.6 0 0 0 1.2 0v-9.9h2.775a.6.6 0 0 0 0-1.2z" clip-rule="evenodd"/></svg>