<svg xmlns="http://www.w3.org/2000/svg" width="24" height="24" fill="none"><path fill="#04071E" d="M19.917 11.85A3.372 3.372 0 0 0 17.625 6H14.25a.75.75 0 0 0-.75.75v10.5a.75.75 0 0 0 .75.75H18a3.373 3.373 0 0 0 1.917-6.15M19.5 9.375a1.88 1.88 0 0 1-1.875 1.875H15V7.5h2.625A1.88 1.88 0 0 1 19.5 9.375M18 16.5h-3v-3.75h3a1.875 1.875 0 0 1 0 3.75m-6.044-9.498-3.75 10.5a.75.75 0 0 1-1.413 0l-3.75-10.5a.75.75 0 1 1 1.413-.504L7.5 15.02l3.043-8.522a.75.75 0 0 1 1.413.504"/><path fill="#04071E" fill-rule="evenodd" d="M17.625 5.85a3.522 3.522 0 0 1 2.524 5.984 3.524 3.524 0 0 1-2.15 6.316h-3.75a.9.9 0 0 1-.9-.9V6.75a.9.9 0 0 1 .9-.9zm1.725 3.525a1.73 1.73 0 0 0-1.725-1.725H15.15v3.45h2.475a1.73 1.73 0 0 0 1.725-1.725m-4.2 3.525v3.45H18a1.725 1.725 0 1 0 0-3.45z" clip-rule="evenodd"/></svg>