<svg xmlns="http://www.w3.org/2000/svg" width="24" height="24" fill="none"><path fill="#04071E" d="M3 6a.6.6 0 0 0 0 1.2h6.6a.6.6 0 0 0 0-1.2zm3.6 3.6a.6.6 0 1 0 0 1.2h6a.6.6 0 1 0 0-1.2zm-1.8 4.2a.6.6 0 0 1 .6-.6h11.332l-1.2 1.2H5.4a.6.6 0 0 1-.6-.6m7.528 3.804.804-.804H3A.6.6 0 1 0 3 18h8.983q.158-.21.345-.396M15 10.2a.6.6 0 0 1 .6-.6h4.2a.6.6 0 1 1 0 1.2h-4.2a.6.6 0 0 1-.6-.6M12.6 6a.6.6 0 1 0 0 1.2h7.8a.6.6 0 1 0 0-1.2zm.576 12.453 5.795-5.796a2.244 2.244 0 0 1 3.174 3.174l-5.796 5.795a2.64 2.64 0 0 1-1.224.694l-1.798.45a1.067 1.067 0 0 1-1.294-1.295l.45-1.798c.115-.463.355-.886.693-1.224"/><path fill="#04071E" fill-rule="evenodd" d="M2.25 6.6A.75.75 0 0 1 3 5.85h6.6a.75.75 0 0 1 0 1.5H3a.75.75 0 0 1-.75-.75M3 6.15a.45.45 0 1 0 0 .9h6.6a.45.45 0 0 0 0-.9zm8.85.45a.75.75 0 0 1 .75-.75h7.8a.75.75 0 0 1 0 1.5h-7.8a.75.75 0 0 1-.75-.75m.75-.45a.45.45 0 0 0 0 .9h7.8a.45.45 0 0 0 0-.9zM5.85 10.2a.75.75 0 0 1 .75-.75h6a.75.75 0 0 1 0 1.5h-6a.75.75 0 0 1-.75-.75m.75-.45a.45.45 0 1 0 0 .9h6a.45.45 0 0 0 0-.9zm9 0a.45.45 0 0 0 0 .9h4.2a.45.45 0 0 0 0-.9zm-.75.45a.75.75 0 0 1 .75-.75h4.2a.75.75 0 0 1 0 1.5h-4.2a.75.75 0 0 1-.75-.75m7.189 2.563a2.094 2.094 0 0 0-2.962 0l-5.795 5.796a2.5 2.5 0 0 0-.654 1.155l-.45 1.797a.917.917 0 0 0 1.113 1.113l1.797-.45c.438-.109.837-.335 1.155-.654l5.796-5.795a2.094 2.094 0 0 0 0-2.962m-3.174-.212a2.394 2.394 0 1 1 3.386 3.386l-5.795 5.796c-.358.357-.805.61-1.295.732l-1.797.45a1.217 1.217 0 0 1-1.477-1.476l.45-1.798c.122-.49.376-.937.733-1.294zM5.4 13.35a.45.45 0 0 0 0 .9h10.07l.9-.9zm-.75.45a.75.75 0 0 1 .75-.75h11.695l-1.5 1.5H5.4a.75.75 0 0 1-.75-.75m-2.4 3.6a.75.75 0 0 1 .75-.75h10.495l-1.06 1.06q-.18.18-.332.38l-.045.06H3a.75.75 0 0 1-.75-.75m.75-.45a.45.45 0 0 0 0 .9h8.91q.144-.184.312-.352l.548-.548z" clip-rule="evenodd"/></svg>