<svg xmlns="http://www.w3.org/2000/svg" width="24" height="24" fill="none"><path fill="#04071E" d="M19.918 11.85A3.37 3.37 0 0 0 21 9.375 3.38 3.38 0 0 0 17.625 6H14.25a.75.75 0 0 0-.75.75v10.5a.75.75 0 0 0 .75.75H18a3.38 3.38 0 0 0 3.375-3.375 3.38 3.38 0 0 0-1.457-2.775M19.5 9.375a1.88 1.88 0 0 1-1.875 1.875H15V7.5h2.625A1.88 1.88 0 0 1 19.5 9.375M18 16.5h-3v-3.75h3a1.88 1.88 0 0 1 1.875 1.875A1.88 1.88 0 0 1 18 16.5m-6 .098a10 10 0 0 1-.278-.837 8.75 8.75 0 0 0-1.642-3.354A3.37 3.37 0 0 0 12 9.375 3.38 3.38 0 0 0 8.625 6H5.25a.75.75 0 0 0-.75.75v10.5a.75.75 0 1 0 1.5 0v-4.5h1.5c1.605 0 2.232 1.63 2.78 3.45.3 1.008.548 1.8 1.35 1.8a.75.75 0 0 0 .37-1.402M6 7.5h2.625A1.88 1.88 0 0 1 10.5 9.375a1.88 1.88 0 0 1-1.875 1.875H6z"/><path fill="#04071E" fill-rule="evenodd" d="M4.613 6.114a.9.9 0 0 1 .637-.264h3.375a3.53 3.53 0 0 1 3.525 3.525 3.52 3.52 0 0 1-1.84 3.083 8.9 8.9 0 0 1 1.557 3.263c.08.265.179.591.252.774a.9.9 0 0 1-.488 1.655q-.34-.001-.588-.163a1.3 1.3 0 0 1-.403-.43c-.213-.345-.355-.816-.503-1.314-.275-.911-.564-1.753-.975-2.367-.407-.606-.924-.976-1.662-.976H6.15v4.35a.9.9 0 0 1-1.8 0V6.75a.9.9 0 0 1 .263-.636m5.737 3.261A1.73 1.73 0 0 0 8.624 7.65H6.15v3.45h2.474a1.73 1.73 0 0 0 1.726-1.725M14.25 5.85a.9.9 0 0 0-.9.9v10.5a.9.9 0 0 0 .9.9H18a3.53 3.53 0 0 0 3.525-3.525 3.53 3.53 0 0 0-1.375-2.791 3.5 3.5 0 0 0 1-2.46 3.53 3.53 0 0 0-3.525-3.524zm4.593 2.306c.324.323.506.762.507 1.219a1.73 1.73 0 0 1-1.726 1.725H15.15V7.65h2.474c.458 0 .896.183 1.22.506M15.15 12.9v3.45H18a1.73 1.73 0 0 0 1.725-1.725A1.73 1.73 0 0 0 18 12.9z" clip-rule="evenodd"/></svg>