<svg xmlns="http://www.w3.org/2000/svg" width="24" height="24" fill="none"><path fill="#04071E" d="M16.09 12.543A2.25 2.25 0 0 0 14.25 9h-1.5a.75.75 0 0 0-.75.75v6a.75.75 0 0 0 .75.75h1.875a2.25 2.25 0 0 0 1.465-3.957M13.5 10.5h.75a.75.75 0 1 1 0 1.5h-.75zm1.125 4.5H13.5v-1.5h1.125a.75.75 0 1 1 0 1.5m-3.423-4.986-2.25 6a.75.75 0 0 1-1.404 0l-2.25-6a.75.75 0 1 1 1.404-.528l1.548 4.128 1.548-4.128a.75.75 0 1 1 1.404.528M4.125 4.5A2.625 2.625 0 0 0 1.5 7.125v11.25A2.625 2.625 0 0 0 4.125 21h14.25A2.625 2.625 0 0 0 21 18.375V7.125A2.625 2.625 0 0 0 18.375 4.5zM3 7.125C3 6.504 3.504 6 4.125 6h14.25c.621 0 1.125.504 1.125 1.125v11.25c0 .621-.504 1.125-1.125 1.125H4.125A1.125 1.125 0 0 1 3 18.375z"/></svg>