<svg xmlns="http://www.w3.org/2000/svg" width="24" height="24" fill="none"><path fill="#04071E" d="M16.494 11.4a2.25 2.25 0 0 1-.404 1.143 2.25 2.25 0 0 1-1.465 3.957H12.75a.75.75 0 0 1-.75-.75v-6a.75.75 0 0 1 .75-.75h1.5a2.25 2.25 0 0 1 2.244 2.4m-2.244-.9h-.75V12h.75a.75.75 0 1 0 0-1.5M13.5 15h1.125a.75.75 0 1 0 0-1.5H13.5zm-3.717-2.118c.356.59.61 1.234.75 1.908l.028.115c.028.115.053.218.082.3a.75.75 0 0 1-.515 1.295c-.713 0-.885-.687-1.05-1.348v-.002l-.004-.016c-.137-.539-.414-1.634-.824-1.634H7.5v2.25a.75.75 0 1 1-1.5 0v-6A.75.75 0 0 1 6.75 9h1.5a2.25 2.25 0 0 1 1.533 3.882M8.25 10.5H7.5V12h.75a.75.75 0 1 0 0-1.5m-4.125-6A2.625 2.625 0 0 0 1.5 7.125v11.25A2.625 2.625 0 0 0 4.125 21h14.25A2.625 2.625 0 0 0 21 18.375V7.125A2.625 2.625 0 0 0 18.375 4.5zM3 7.125C3 6.504 3.504 6 4.125 6h14.25c.621 0 1.125.504 1.125 1.125v11.25c0 .621-.504 1.125-1.125 1.125H4.125A1.125 1.125 0 0 1 3 18.375z"/></svg>