<svg xmlns="http://www.w3.org/2000/svg" width="24" height="24" fill="none"><path fill="#04071E" d="M3.839 5.857c2.94-3.915 9.03-5.055 13.364-2.36 4.28 2.661 5.854 7.778 4.1 12.578-1.655 4.532-6.016 6.328-9.159 4.048-1.177-.854-1.634-1.925-1.854-3.664l-.106-.988-.045-.397c-.123-.934-.311-1.353-.705-1.572-.535-.298-.892-.305-1.595-.033l-.351.146-.179.078c-1.014.44-1.688.595-2.541.416l-.2-.047-.164-.047c-2.789-.864-3.202-4.647-.565-8.158m.984 6.717.123.036.134.031c.439.087.814.015 1.437-.242l.602-.257c1.202-.493 1.985-.541 3.046.05.917.511 1.275 1.298 1.457 2.66l.053.459.055.531.047.423c.172 1.361.485 2.09 1.248 2.644 2.275 1.65 5.534.308 6.87-3.349 1.516-4.152.174-8.514-3.484-10.789-3.675-2.284-8.899-1.307-11.373 1.987-2.075 2.763-1.82 5.28-.215 5.816m11.225-1.994a1.25 1.25 0 1 1 2.414-.648 1.25 1.25 0 0 1-2.414.648m.494 3.488a1.25 1.25 0 1 1 2.415-.647 1.25 1.25 0 0 1-2.415.647M14.07 7.577a1.25 1.25 0 1 1 2.415-.647 1.25 1.25 0 0 1-2.415.647m-.028 8.998a1.25 1.25 0 1 1 2.414-.647 1.25 1.25 0 0 1-2.414.647m-3.497-9.97a1.25 1.25 0 1 1 2.415-.647 1.25 1.25 0 0 1-2.415.647"/></svg>