<svg xmlns="http://www.w3.org/2000/svg" width="24" height="24" fill="none"><path fill="#04071E" d="M8.625 3A2.625 2.625 0 0 0 6 5.625v12.75A2.625 2.625 0 0 0 8.625 21h5.25a2.625 2.625 0 0 0 2.625-2.625V5.625A2.625 2.625 0 0 0 13.875 3zM7.5 5.625c0-.621.503-1.125 1.125-1.125h5.25c.62 0 1.125.504 1.125 1.125V7.5H7.5zM7.5 9H15v9.375c0 .621-.504 1.125-1.125 1.125h-5.25A1.125 1.125 0 0 1 7.5 18.375z"/><path fill="#04071E" fill-rule="evenodd" d="M5.85 5.625A2.775 2.775 0 0 1 8.625 2.85h5.25a2.775 2.775 0 0 1 2.775 2.775v12.75a2.775 2.775 0 0 1-2.775 2.775h-5.25a2.775 2.775 0 0 1-2.775-2.775zM8.625 3.15A2.475 2.475 0 0 0 6.15 5.625v12.75a2.475 2.475 0 0 0 2.475 2.475h5.25a2.475 2.475 0 0 0 2.475-2.475V5.625a2.475 2.475 0 0 0-2.475-2.475zm0 1.5a.975.975 0 0 0-.975.975V7.35h7.2V5.625a.975.975 0 0 0-.975-.975zm-1.275.975c0-.704.57-1.275 1.275-1.275h5.25c.704 0 1.275.57 1.275 1.275V7.5a.15.15 0 0 1-.15.15H7.5a.15.15 0 0 1-.15-.15zM7.35 9a.15.15 0 0 1 .15-.15H15a.15.15 0 0 1 .15.15v9.375c0 .704-.571 1.275-1.275 1.275h-5.25c-.705 0-1.275-.57-1.275-1.275zm.3.15v9.225c0 .538.436.975.975.975h5.25a.975.975 0 0 0 .975-.975V9.15z" clip-rule="evenodd"/></svg>