<svg xmlns="http://www.w3.org/2000/svg" width="24" height="24" fill="none"><path fill="#04071E" d="M4.8 4.8a2.4 2.4 0 0 1 2.4-2.4h9.6a2.4 2.4 0 0 1 2.4 2.4v14.4a2.4 2.4 0 0 1-2.4 2.4H7.2a2.4 2.4 0 0 1-2.4-2.4zm2.4-1.2A1.2 1.2 0 0 0 6 4.8v2.4h12V4.8a1.2 1.2 0 0 0-1.2-1.2zM6 13.2h12V8.4H6zm0 3.6v2.4a1.2 1.2 0 0 0 1.2 1.2h9.6a1.2 1.2 0 0 0 1.2-1.2v-2.4z"/><path fill="#04071E" fill-rule="evenodd" d="M7.2 2.55A2.25 2.25 0 0 0 4.95 4.8v14.4a2.25 2.25 0 0 0 2.25 2.25h9.6a2.25 2.25 0 0 0 2.25-2.25V4.8a2.25 2.25 0 0 0-2.25-2.25zM4.65 4.8A2.55 2.55 0 0 1 7.2 2.25h9.6a2.55 2.55 0 0 1 2.55 2.55v14.4a2.55 2.55 0 0 1-2.55 2.55H7.2a2.55 2.55 0 0 1-2.55-2.55zm1.2 0c0-.746.605-1.35 1.35-1.35h9.6c.746 0 1.35.604 1.35 1.35v2.4a.15.15 0 0 1-.15.15H6a.15.15 0 0 1-.15-.15zM7.2 3.75c-.58 0-1.05.47-1.05 1.05v2.25h11.7V4.8c0-.58-.47-1.05-1.05-1.05zM5.85 8.4A.15.15 0 0 1 6 8.25h12a.15.15 0 0 1 .15.15v4.8a.15.15 0 0 1-.15.15H6a.15.15 0 0 1-.15-.15zm.3.15v4.5h11.7v-4.5zm-.3 8.25a.15.15 0 0 1 .15-.15h12a.15.15 0 0 1 .15.15v2.4a1.35 1.35 0 0 1-1.35 1.35H7.2a1.35 1.35 0 0 1-1.35-1.35zm.3.15v2.25c0 .58.47 1.05 1.05 1.05h9.6c.58 0 1.05-.47 1.05-1.05v-2.25z" clip-rule="evenodd"/></svg>