<svg xmlns="http://www.w3.org/2000/svg" width="24" height="24" fill="none"><path fill="#04071E" d="M4.8 3.6H6a1.2 1.2 0 0 1 1.2 1.2v4.8h1.2V4.8A2.4 2.4 0 0 0 6 2.4H4.8a2.4 2.4 0 0 0-2.4 2.4V18a2.4 2.4 0 0 0 2.4 2.4H6A2.4 2.4 0 0 0 8.4 18v-4.8H7.2V18A1.2 1.2 0 0 1 6 19.2H4.8A1.2 1.2 0 0 1 3.6 18V4.8a1.2 1.2 0 0 1 1.2-1.2M18 2.4a2.4 2.4 0 0 0-2.4 2.4V18a2.4 2.4 0 0 0 2.4 2.4h1.2a2.4 2.4 0 0 0 2.4-2.4V4.8a2.4 2.4 0 0 0-2.4-2.4zm1.2 1.2a1.2 1.2 0 0 1 1.2 1.2V18a1.2 1.2 0 0 1-1.2 1.2H18a1.2 1.2 0 0 1-1.2-1.2V4.8A1.2 1.2 0 0 1 18 3.6zm-8.224 4.976a.6.6 0 0 1 .848 0l2.4 2.4a.6.6 0 0 1 0 .848l-2.4 2.4a.6.6 0 0 1-.848-.848L12.35 12H6.6a.6.6 0 1 1 0-1.2h5.752l-1.376-1.376a.6.6 0 0 1 0-.848"/><path fill="#04071E" fill-rule="evenodd" d="M2.25 4.8A2.55 2.55 0 0 1 4.8 2.25H6A2.55 2.55 0 0 1 8.55 4.8v4.8a.15.15 0 0 1-.15.15H7.2a.15.15 0 0 1-.15-.15V4.8c0-.58-.47-1.05-1.05-1.05H4.8c-.58 0-1.05.47-1.05 1.05V18c0 .58.47 1.05 1.05 1.05H6c.58 0 1.05-.47 1.05-1.05v-4.8a.15.15 0 0 1 .15-.15h1.2a.15.15 0 0 1 .15.15V18A2.55 2.55 0 0 1 6 20.55H4.8A2.55 2.55 0 0 1 2.25 18zM4.8 2.55A2.25 2.25 0 0 0 2.55 4.8V18a2.25 2.25 0 0 0 2.25 2.25H6A2.25 2.25 0 0 0 8.25 18v-4.65h-.9V18A1.35 1.35 0 0 1 6 19.35H4.8A1.35 1.35 0 0 1 3.45 18V4.8c0-.746.604-1.35 1.35-1.35H6c.746 0 1.35.604 1.35 1.35v4.65h.9V4.8A2.25 2.25 0 0 0 6 2.55zM15.45 4.8A2.55 2.55 0 0 1 18 2.25h1.2a2.55 2.55 0 0 1 2.55 2.55V18a2.55 2.55 0 0 1-2.55 2.55H18A2.55 2.55 0 0 1 15.45 18zM18 2.55a2.25 2.25 0 0 0-2.25 2.25V18A2.25 2.25 0 0 0 18 20.25h1.2A2.25 2.25 0 0 0 21.45 18V4.8a2.25 2.25 0 0 0-2.25-2.25zm0 1.2c-.58 0-1.05.47-1.05 1.05V18c0 .58.47 1.05 1.05 1.05h1.2c.58 0 1.05-.47 1.05-1.05V4.8c0-.58-.47-1.05-1.05-1.05zM16.65 4.8c0-.746.604-1.35 1.35-1.35h1.2c.746 0 1.35.604 1.35 1.35V18a1.35 1.35 0 0 1-1.35 1.35H18A1.35 1.35 0 0 1 16.65 18zm-4.932 3.882a.45.45 0 0 0-.636.636l1.375 1.376a.15.15 0 0 1-.106.256H6.6a.45.45 0 0 0 0 .9h5.752a.15.15 0 0 1 .105.256l-1.375 1.376a.45.45 0 0 0 .636.636l2.4-2.4a.45.45 0 0 0 0-.636zm-.848-.212a.75.75 0 0 1 1.06 0l2.4 2.4a.75.75 0 0 1 0 1.06l-2.4 2.4a.75.75 0 1 1-1.06-1.06l1.12-1.12H6.6a.75.75 0 0 1 0-1.5h5.39l-1.12-1.12a.75.75 0 0 1 0-1.06" clip-rule="evenodd"/></svg>