<svg xmlns="http://www.w3.org/2000/svg" width="24" height="24" fill="none"><path fill="#04071E" d="M19.8 20.4a.6.6 0 1 0 0-1.2h-.6A1.2 1.2 0 0 1 18 18V6a1.2 1.2 0 0 1 1.2-1.2h.6a.6.6 0 1 0 0-1.2h-.6A2.4 2.4 0 0 0 16.8 6v12a2.4 2.4 0 0 0 2.4 2.4zM8.4 6a2.4 2.4 0 0 1 2.4-2.4h2.4A2.4 2.4 0 0 1 15.6 6v12a2.4 2.4 0 0 1-2.4 2.4h-2.4A2.4 2.4 0 0 1 8.4 18zm6 12V6a1.2 1.2 0 0 0-1.2-1.2h-2.4A1.2 1.2 0 0 0 9.6 6v12a1.2 1.2 0 0 0 1.2 1.2h2.4a1.2 1.2 0 0 0 1.2-1.2m-9.6 2.4A2.4 2.4 0 0 0 7.2 18V6a2.4 2.4 0 0 0-2.4-2.4h-.6a.6.6 0 1 0 0 1.2h.6A1.2 1.2 0 0 1 6 6v12q0 .061-.006.123A1.2 1.2 0 0 1 4.8 19.2h-.6a.6.6 0 0 0-.6.6.6.6 0 0 0 .6.6z"/><path fill="#04071E" fill-rule="evenodd" d="M13.2 3.75h-2.4A2.25 2.25 0 0 0 8.55 6v12a2.25 2.25 0 0 0 2.25 2.25h2.4A2.25 2.25 0 0 0 15.45 18V6a2.25 2.25 0 0 0-2.25-2.25m-2.4-.3h2.4A2.55 2.55 0 0 1 15.75 6v12a2.55 2.55 0 0 1-2.55 2.55h-2.4A2.55 2.55 0 0 1 8.25 18V6a2.55 2.55 0 0 1 2.55-2.55m7.886.052q.25-.051.514-.052h.6a.75.75 0 0 1 0 1.5h-.6c-.58 0-1.05.47-1.05 1.05v12c0 .58.47 1.05 1.05 1.05h.6a.75.75 0 0 1 0 1.5h-.6A2.55 2.55 0 0 1 16.65 18V6a2.55 2.55 0 0 1 2.036-2.498m.514.248A2.25 2.25 0 0 0 16.95 6v12a2.25 2.25 0 0 0 2.25 2.25h.6a.45.45 0 0 0 0-.9h-.6A1.35 1.35 0 0 1 17.85 18V6c0-.746.605-1.35 1.35-1.35h.6a.45.45 0 0 0 0-.9zM3.45 4.2a.75.75 0 0 1 .75-.75h.6A2.55 2.55 0 0 1 7.35 6v12a2.55 2.55 0 0 1-2.55 2.55h-.6a.8.8 0 0 1-.186-.024.75.75 0 0 1 .186-1.476h.6A1.05 1.05 0 0 0 5.85 18V6c0-.58-.47-1.05-1.05-1.05h-.6a.75.75 0 0 1-.75-.75m.75-.45a.45.45 0 1 0 0 .9h.6c.746 0 1.35.604 1.35 1.35v12q0 .069-.007.138A1.35 1.35 0 0 1 4.8 19.35h-.6a.451.451 0 1 0 0 .9h.6A2.25 2.25 0 0 0 7.05 18V6A2.25 2.25 0 0 0 4.8 3.75zm6.6.9h2.4c.746 0 1.35.604 1.35 1.35v12a1.35 1.35 0 0 1-1.35 1.35h-2.4q-.14 0-.272-.027A1.35 1.35 0 0 1 9.45 18V6c0-.746.605-1.35 1.35-1.35m2.4.3h-2.4c-.58 0-1.05.47-1.05 1.05v12a1.05 1.05 0 0 0 1.05 1.05h2.4c.58 0 1.05-.47 1.05-1.05V6c0-.58-.47-1.05-1.05-1.05" clip-rule="evenodd"/></svg>