<svg xmlns="http://www.w3.org/2000/svg" width="24" height="24" fill="none"><path fill="#04071E" d="M8.4 3.6H3.6A2.4 2.4 0 0 0 1.2 6v12a2.4 2.4 0 0 0 2.4 2.4h4.8a2.4 2.4 0 0 0 2.4-2.4V6a2.4 2.4 0 0 0-2.4-2.4M3.6 4.8h4.8A1.2 1.2 0 0 1 9.6 6v1.2H2.4V6a1.2 1.2 0 0 1 1.2-1.2m4.8 14.4H3.6A1.2 1.2 0 0 1 2.4 18V8.4h7.2V18a1.2 1.2 0 0 1-1.2 1.2m12-15.6h-4.8A2.4 2.4 0 0 0 13.2 6v12a2.4 2.4 0 0 0 2.4 2.4h4.8a2.4 2.4 0 0 0 2.4-2.4V6a2.4 2.4 0 0 0-2.4-2.4m-4.8 1.2h4.8A1.2 1.2 0 0 1 21.6 6v6h-7.2V6a1.2 1.2 0 0 1 1.2-1.2m4.8 14.4h-4.8a1.2 1.2 0 0 1-1.2-1.2v-2.4h7.2V18a1.2 1.2 0 0 1-1.2 1.2"/><path fill="#04071E" fill-rule="evenodd" d="M1.797 4.197A2.55 2.55 0 0 1 3.6 3.45h4.8A2.55 2.55 0 0 1 10.95 6v12a2.55 2.55 0 0 1-2.55 2.55H3.6A2.55 2.55 0 0 1 1.05 18V6c0-.676.268-1.325.747-1.803M3.6 3.75A2.25 2.25 0 0 0 1.35 6v12a2.25 2.25 0 0 0 2.25 2.25h4.8A2.25 2.25 0 0 0 10.65 18V6A2.25 2.25 0 0 0 8.4 3.75zm10.197.447A2.55 2.55 0 0 1 15.6 3.45h4.8A2.55 2.55 0 0 1 22.95 6v12a2.55 2.55 0 0 1-2.55 2.55h-4.8A2.55 2.55 0 0 1 13.05 18V6c0-.676.268-1.325.747-1.803M15.6 3.75A2.25 2.25 0 0 0 13.35 6v12a2.25 2.25 0 0 0 2.25 2.25h4.8A2.25 2.25 0 0 0 22.65 18V6a2.25 2.25 0 0 0-2.25-2.25zm-12 1.2A1.05 1.05 0 0 0 2.55 6v1.05h6.9V6A1.05 1.05 0 0 0 8.4 4.95zm-.955.095A1.35 1.35 0 0 1 3.6 4.65h4.8A1.35 1.35 0 0 1 9.75 6v1.35h-7.5V6c0-.358.142-.701.395-.955M15.6 4.95A1.05 1.05 0 0 0 14.55 6v5.85h6.9V6a1.05 1.05 0 0 0-1.05-1.05zm-.955.095a1.35 1.35 0 0 1 .955-.395h4.8A1.35 1.35 0 0 1 21.75 6v6.15h-7.5V6c0-.358.142-.701.395-.955M2.25 8.25h7.5V18a1.35 1.35 0 0 1-1.35 1.35H3.6A1.35 1.35 0 0 1 2.25 18zm.3.3V18a1.05 1.05 0 0 0 1.05 1.05h4.8A1.05 1.05 0 0 0 9.45 18V8.55zm11.7 6.9h7.5V18a1.35 1.35 0 0 1-1.35 1.35h-4.8A1.35 1.35 0 0 1 14.25 18zm.3.3V18a1.05 1.05 0 0 0 1.05 1.05h4.8A1.05 1.05 0 0 0 21.45 18v-2.25z" clip-rule="evenodd"/></svg>