<svg xmlns="http://www.w3.org/2000/svg" width="24" height="24" fill="none"><path fill="#04071E" d="M18 2a4 4 0 0 0 0 8c.826 0 1.588-.24 2.222-.665a.5.5 0 0 1 .556.83 4.97 4.97 0 0 1-2.778.836A5 5 0 1 1 23 6v.75a1.75 1.75 0 0 1-3.198.983A2.5 2.5 0 1 1 19.5 4a.5.5 0 0 1 1 0v2.75a.75.75 0 0 0 1.5 0v-.764A4 4 0 0 0 18 2m-1.5 4a1.5 1.5 0 1 0 3 0 1.5 1.5 0 0 0-3 0m5.5 8.75v-4.278c-.445.399-.95.732-1.5.984v3.294a1.75 1.75 0 0 1-1.75 1.75h-6.236L7.5 20.25l-.001-3.75H5.25a1.75 1.75 0 0 1-1.75-1.75v-8.5c0-.966.784-1.75 1.75-1.75h6.939a6 6 0 0 1 .614-1.5H5.25A3.25 3.25 0 0 0 2 6.25v8.5A3.25 3.25 0 0 0 5.25 18H6v2.75a1.25 1.25 0 0 0 1.999 1L13.013 18h5.737A3.25 3.25 0 0 0 22 14.75"/></svg>