<svg xmlns="http://www.w3.org/2000/svg" width="24" height="24" fill="none"><path fill="#04071E" d="M12 22.5c-3.344 0-9-.631-9-3q0-.09.02-.175l.071-.3a1 1 0 0 1 .054-.15l8.18-16.95a.78.78 0 0 1 1.35 0l8.18 16.95a1 1 0 0 1 .053.15l.07.3A.7.7 0 0 1 21 19.5c0 2.369-5.657 3-9 3m-7.485-2.971C4.81 20.04 7.552 21 12 21c4.41 0 7.144-.944 7.482-1.486l-.014-.058L12 3.976z"/><path fill="#04071E" fill-rule="evenodd" d="M12 1.685a.63.63 0 0 0-.543.31L3.28 18.94a.6.6 0 0 0-.043.12l-.07.3a.6.6 0 0 0-.017.139v.001c0 .523.309.966.87 1.343.56.379 1.353.674 2.262.9 1.816.45 4.052.607 5.718.607 1.665 0 3.902-.158 5.717-.607.91-.226 1.701-.521 2.263-.9.56-.377.87-.82.87-1.343v-.001a.6.6 0 0 0-.017-.138v-.002l-.07-.299a.6.6 0 0 0-.044-.12L12.542 1.995a.63.63 0 0 0-.542-.31m-.465-.175a.93.93 0 0 1 1.27.34l.005.01 8.18 16.95q.041.086.064.179v.001l.07.298v.001a.9.9 0 0 1 .026.211c0 .662-.398 1.185-1.003 1.592-.603.407-1.434.713-2.357.942-1.849.458-4.112.616-5.79.616-1.679 0-3.942-.158-5.79-.616-.923-.229-1.754-.535-2.358-.942S2.85 20.162 2.85 19.5H3l-.15.001V19.5q0-.107.025-.21l.146.035-.146-.037.07-.3a1 1 0 0 1 .065-.179l8.184-16.96a.93.93 0 0 1 .341-.34M12 3.63l7.611 15.775.032.134-.033.053a1 1 0 0 1-.281.265q-.188.127-.477.254c-.383.17-.904.341-1.549.494-1.29.307-3.087.544-5.302.544-2.234 0-4.044-.241-5.335-.548a9 9 0 0 1-1.542-.49 3 3 0 0 1-.468-.249.9.9 0 0 1-.27-.26l-.04-.068zm0 .691L4.69 19.509q.043.045.132.105.154.104.422.223a9 9 0 0 0 1.49.473c1.267.301 3.052.54 5.266.54 2.194 0 3.969-.235 5.233-.536a9 9 0 0 0 1.497-.476q.27-.121.43-.23a1 1 0 0 0 .155-.124z" clip-rule="evenodd"/></svg>