<svg xmlns="http://www.w3.org/2000/svg" width="24" height="24" fill="none"><path fill="#04071E" d="M7.054 7.903a3 3 0 1 1 .849-.849l2.443 2.443A3 3 0 0 1 12 9c.611 0 1.18.183 1.654.497l2.443-2.443a3 3 0 1 1 .849.849l-2.443 2.443c.314.474.497 1.043.497 1.654s-.183 1.18-.497 1.654l2.443 2.443a3 3 0 1 1-.849.849l-2.443-2.443A3 3 0 0 1 12 15c-.611 0-1.18-.183-1.654-.497l-2.443 2.443a3 3 0 1 1-.849-.849l2.443-2.443A3 3 0 0 1 9 12c0-.611.183-1.18.497-1.654zM7.2 5.4a1.8 1.8 0 1 0-3.6 0 1.8 1.8 0 0 0 3.6 0m13.2 0a1.8 1.8 0 1 0-3.6 0 1.8 1.8 0 0 0 3.6 0m-15 15a1.8 1.8 0 1 0 0-3.6 1.8 1.8 0 0 0 0 3.6m15-1.8a1.8 1.8 0 1 0-3.6 0 1.8 1.8 0 0 0 3.6 0M13.8 12a1.8 1.8 0 1 0-3.6 0 1.8 1.8 0 0 0 3.6 0"/><path fill="#04071E" fill-rule="evenodd" d="M5.4 2.55a2.85 2.85 0 1 0 1.572 5.228l.102-.068 2.616 2.616-.068.102c-.298.45-.472.99-.472 1.572 0 .581.174 1.121.472 1.572l.068.102-2.616 2.616-.102-.068a2.85 2.85 0 1 0 .806.806l-.068-.102 2.616-2.616.102.068c.45.298.99.472 1.572.472.581 0 1.121-.174 1.572-.472l.102-.068 2.616 2.616-.068.102a2.85 2.85 0 1 0 .806-.806l-.102.068-2.616-2.616.068-.102c.298-.45.472-.99.472-1.572 0-.581-.174-1.121-.472-1.572l-.068-.102 2.616-2.616.102.068a2.85 2.85 0 1 0-.806-.806l.068.102-2.616 2.616-.102-.068A2.84 2.84 0 0 0 12 9.15c-.581 0-1.121.174-1.572.472l-.102.068L7.71 7.074l.068-.102A2.85 2.85 0 0 0 5.4 2.55M2.25 5.4a3.15 3.15 0 1 1 5.844 1.633l2.273 2.273A3.14 3.14 0 0 1 12 8.85c.598 0 1.157.167 1.633.456l2.273-2.273a3.15 3.15 0 1 1 1.06 1.06l-2.272 2.274c.29.476.456 1.035.456 1.633s-.167 1.157-.456 1.633l2.273 2.273a3.15 3.15 0 1 1-1.06 1.06l-2.274-2.272A3.14 3.14 0 0 1 12 15.15a3.14 3.14 0 0 1-1.633-.456l-2.273 2.273a3.15 3.15 0 1 1-1.06-1.06l2.272-2.274A3.14 3.14 0 0 1 8.85 12c0-.598.167-1.157.456-1.633L7.033 8.094A3.15 3.15 0 0 1 2.25 5.4m1.2 0a1.95 1.95 0 1 1 3.9 0 1.95 1.95 0 0 1-3.9 0M5.4 3.75a1.65 1.65 0 1 0 0 3.3 1.65 1.65 0 0 0 0-3.3M16.65 5.4a1.95 1.95 0 1 1 3.9 0 1.95 1.95 0 0 1-3.9 0m1.95-1.65a1.65 1.65 0 1 0 0 3.3 1.65 1.65 0 0 0 0-3.3M10.05 12a1.95 1.95 0 1 1 3.9 0 1.95 1.95 0 0 1-3.9 0M12 10.35a1.65 1.65 0 1 0 0 3.3 1.65 1.65 0 0 0 0-3.3M3.45 18.6a1.95 1.95 0 1 1 3.9 0 1.95 1.95 0 0 1-3.9 0m1.95-1.65a1.65 1.65 0 1 0 0 3.3 1.65 1.65 0 0 0 0-3.3m11.25 1.65a1.95 1.95 0 1 1 3.9 0 1.95 1.95 0 0 1-3.9 0m1.95-1.65a1.65 1.65 0 1 0 0 3.3 1.65 1.65 0 0 0 0-3.3" clip-rule="evenodd"/></svg>