<svg xmlns="http://www.w3.org/2000/svg" width="24" height="24" fill="none"><g fill="#04071E" clip-path="url(#a)"><path d="M9 12a1.8 1.8 0 1 0 0-3.6A1.8 1.8 0 0 0 9 12m-1.861.9c-.63 0-1.139.51-1.139 1.139 0 1.016.692 1.902 1.678 2.149l.071.018c.822.205 1.68.205 2.502 0l.07-.018a2.216 2.216 0 0 0 1.68-2.15c0-.628-.51-1.138-1.14-1.138zm7.261-2.7a.6.6 0 0 1 .6-.6h3.6a.6.6 0 1 1 0 1.2H15a.6.6 0 0 1-.6-.6M5.7 4.8a2.1 2.1 0 0 0-2.1 2.1v10.2c0 1.16.94 2.1 2.1 2.1h6.704a4.2 4.2 0 0 1-.361-1.2H5.7a.9.9 0 0 1-.9-.9V6.9a.9.9 0 0 1 .9-.9h15a.9.9 0 0 1 .9.9v6.342c.424.061.827.185 1.2.362V6.9a2.1 2.1 0 0 0-2.1-2.1zm10.5 9.6a3 3 0 1 0 0 6h.6a.6.6 0 1 0 0-1.2h-.6a1.8 1.8 0 0 1 0-3.6h.6a.6.6 0 1 0 0-1.2zm4.2 0a.6.6 0 1 0 0 1.2h.6a1.8 1.8 0 0 1 0 3.6h-.6a.6.6 0 1 0 0 1.2h.6a3 3 0 0 0 0-6zm-4.2 2.4a.6.6 0 1 0 0 1.2H21a.6.6 0 1 0 0-1.2z"/><path fill-rule="evenodd" d="M3.45 6.9A2.25 2.25 0 0 1 5.7 4.65h15a2.25 2.25 0 0 1 2.25 2.25v6.704a.15.15 0 0 1-.214.136c-.36-.171-.749-.29-1.157-.349a.15.15 0 0 1-.129-.149V6.9a.75.75 0 0 0-.75-.75h-15a.75.75 0 0 0-.75.75v10.2c0 .414.336.75.75.75h6.343a.15.15 0 0 1 .148.129c.059.408.178.797.349 1.157a.15.15 0 0 1-.136.214H5.7a2.25 2.25 0 0 1-2.25-2.25zM5.7 4.95A1.95 1.95 0 0 0 3.75 6.9v10.2a1.95 1.95 0 0 0 1.95 1.95h6.474a4.3 4.3 0 0 1-.26-.9H5.7c-.58 0-1.05-.47-1.05-1.05V6.9c0-.58.47-1.05 1.05-1.05h15c.58 0 1.05.47 1.05 1.05v6.214q.47.084.9.26V6.9a1.95 1.95 0 0 0-1.95-1.95zm1.35 5.25a1.95 1.95 0 1 1 3.9 0 1.95 1.95 0 0 1-3.9 0M9 8.55a1.65 1.65 0 1 0 0 3.3 1.65 1.65 0 0 0 0-3.3m6 1.2a.45.45 0 0 0 0 .9h3.6a.45.45 0 0 0 0-.9zm-.75.45a.75.75 0 0 1 .75-.75h3.6a.75.75 0 0 1 0 1.5H15a.75.75 0 0 1-.75-.75m-8.4 3.839c0-.712.577-1.289 1.289-1.289h3.723c.711 0 1.288.577 1.288 1.289a2.366 2.366 0 0 1-1.792 2.295l-.07.017a5.3 5.3 0 0 1-2.575 0l-.07-.017a2.365 2.365 0 0 1-1.793-2.295m1.289-.989a.99.99 0 0 0-.989.989c0 .947.645 1.774 1.565 2.004l.07.017c.798.2 1.632.2 2.43 0l.07-.017a2.066 2.066 0 0 0 1.565-2.004.99.99 0 0 0-.988-.989zm5.911 4.35a3.15 3.15 0 0 1 3.15-3.15h.6a.75.75 0 0 1 0 1.5h-.6a1.65 1.65 0 1 0 0 3.3h.6a.75.75 0 0 1 0 1.5h-.6a3.15 3.15 0 0 1-3.15-3.15m3.15-2.85a2.85 2.85 0 0 0 0 5.7h.6a.45.45 0 0 0 0-.9h-.6a1.95 1.95 0 0 1 0-3.9h.6a.45.45 0 0 0 0-.9zm3.45.45a.75.75 0 0 1 .75-.75h.6a3.15 3.15 0 1 1 0 6.3h-.6a.75.75 0 0 1 0-1.5h.6a1.65 1.65 0 1 0 0-3.3h-.6a.75.75 0 0 1-.75-.75m.75-.45a.45.45 0 0 0 0 .9h.6a1.95 1.95 0 0 1 0 3.9h-.6a.45.45 0 0 0 0 .9h.6a2.85 2.85 0 0 0 0-5.7zm-4.95 2.85a.75.75 0 0 1 .75-.75H21a.75.75 0 0 1 0 1.5h-4.8a.75.75 0 0 1-.75-.75m.75-.45a.45.45 0 0 0 0 .9H21a.45.45 0 0 0 0-.9z" clip-rule="evenodd"/></g><defs><clipPath id="a"><path fill="#fff" d="M0 0h24v24H0z"/></clipPath></defs></svg>