<svg xmlns="http://www.w3.org/2000/svg" width="24" height="24" fill="none"><path fill="#04071E" d="M10.744 4.241a3 3 0 0 1 2.514 0l5.594 2.582a.6.6 0 0 1 .349.545V9.6h1.2V7.368a1.8 1.8 0 0 0-1.046-1.635l-5.594-2.582a4.2 4.2 0 0 0-3.52 0L4.646 5.733a1.8 1.8 0 0 0-1.045 1.635V9.6h1.2V7.368a.6.6 0 0 1 .348-.545zM4.079 13.2a8 8 0 0 0 .91.643C6.726 14.904 9.2 15.6 11.999 15.6c2.8 0 5.275-.696 7.012-1.757l.19-.12q.393-.254.72-.523.26-.215.48-.438.368-.373.621-.762h-1.821a.6.6 0 0 1 0-1.2h3a.6.6 0 0 1 .6.6v3a.6.6 0 0 1-1.2 0v-1.175q-.508.601-1.2 1.123a9.4 9.4 0 0 1-1.2.77C17.29 16.165 14.766 16.8 12 16.8s-5.289-.635-7.2-1.68q-.224-.123-.437-.253a9 9 0 0 1-.762-.518 7.4 7.4 0 0 1-1.2-1.121V14.4a.6.6 0 1 1-1.2 0v-3a.6.6 0 0 1 .6-.6h3a.6.6 0 1 1 0 1.2H2.977q.254.39.624.764.219.222.478.436m.722 3.269v.163a.6.6 0 0 0 .348.545l5.595 2.582a3 3 0 0 0 2.514 0l5.594-2.582a.6.6 0 0 0 .349-.545v-.164q.632-.305 1.2-.662v.826a1.8 1.8 0 0 1-1.046 1.634l-5.594 2.583a4.2 4.2 0 0 1-3.52 0l-5.595-2.582a1.8 1.8 0 0 1-1.045-1.635v-.825a12 12 0 0 0 1.2.662m2.448-8.305a.6.6 0 0 1 .788-.315l3.964 1.698 3.963-1.698a.6.6 0 1 1 .473 1.102l-3.836 1.645V13.2a.6.6 0 1 1-1.2 0v-2.604L7.564 8.95a.6.6 0 0 1-.315-.787"/><path fill="#04071E" fill-rule="evenodd" d="M10.178 3.015a4.35 4.35 0 0 1 3.646 0l5.594 2.582a1.95 1.95 0 0 1 1.133 1.77V9.75h-1.5V7.368a.45.45 0 0 0-.262-.409l-5.594-2.582a2.85 2.85 0 0 0-2.389 0L5.212 6.96a.45.45 0 0 0-.261.409V9.75h-1.5V7.368c0-.76.442-1.452 1.133-1.77zm3.52.273a4.05 4.05 0 0 0-3.394 0L4.709 5.87a1.65 1.65 0 0 0-.958 1.498V9.45h.9V7.368a.75.75 0 0 1 .435-.681l5.595-2.582a3.15 3.15 0 0 1 2.64 0l5.594 2.582a.75.75 0 0 1 .436.68V9.45h.9V7.368a1.65 1.65 0 0 0-.959-1.498zm-5.72 4.698a.45.45 0 0 0-.355.828l3.928 1.683V13.2a.45.45 0 0 0 .9 0v-2.703l3.927-1.683a.45.45 0 0 0-.355-.828L12.001 9.71zm-.867.119a.75.75 0 0 1 .985-.394l3.905 1.673 3.904-1.673a.75.75 0 0 1 .591 1.378l-3.745 1.606V13.2a.75.75 0 1 1-1.5 0v-2.505L7.505 9.089a.75.75 0 0 1-.394-.984m-5.31 2.845a.45.45 0 0 0-.45.45v3a.45.45 0 0 0 .9 0v-1.582l.264.313c.33.39.725.758 1.176 1.099a9 9 0 0 0 1.182.758C6.758 16.02 9.256 16.65 12 16.65c2.745 0 5.243-.63 7.129-1.663q.22-.12.43-.248.398-.244.751-.51.68-.514 1.176-1.1l.265-.313V14.4a.45.45 0 1 0 .9 0v-3a.45.45 0 0 0-.45-.45h-3a.45.45 0 1 0 0 .9H21.3l-.152.232q-.263.402-.64.786-.225.228-.492.448a8 8 0 0 1-.927.655c-1.764 1.078-4.268 1.779-7.09 1.779-2.82 0-5.324-.701-7.088-1.779l-.192-.12a8 8 0 0 1-.735-.535 7 7 0 0 1-.49-.446 5 5 0 0 1-.642-.788L2.7 11.85h2.1a.45.45 0 0 0 0-.9zm-.53-.08a.75.75 0 0 1 .53-.22h3a.75.75 0 0 1 0 1.5H3.266q.194.257.442.509.212.216.467.425a7.6 7.6 0 0 0 .892.631C6.777 14.76 9.225 15.45 12 15.45s5.223-.69 6.933-1.735l.186-.117q.387-.25.706-.514.255-.21.469-.427.247-.25.44-.507H19.2a.75.75 0 0 1 0-1.5h3a.75.75 0 0 1 .75.75v3a.75.75 0 0 1-1.5 0v-.783q-.429.45-.96.85a9.5 9.5 0 0 1-1.218.784C17.337 16.31 14.788 16.95 12 16.95s-5.336-.64-7.271-1.698q-.228-.125-.444-.257a10 10 0 0 1-.775-.526 8 8 0 0 1-.96-.85v.781a.75.75 0 0 1-1.5 0v-3a.75.75 0 0 1 .22-.53m19.28 4.664v1.098a1.95 1.95 0 0 1-1.133 1.77l-5.594 2.583a4.35 4.35 0 0 1-3.646 0l-5.594-2.582a1.95 1.95 0 0 1-1.133-1.77v-1.098l.23.145q.559.352 1.185.654l.085.04v.258a.45.45 0 0 0 .261.409l5.595 2.582c.757.35 1.63.35 2.388 0l5.594-2.582a.45.45 0 0 0 .262-.409v-.258l.085-.041q.625-.3 1.185-.654zm-1.2 1.028v.07a.75.75 0 0 1-.436.681l-5.594 2.582a3.15 3.15 0 0 1-2.64 0l-5.595-2.582a.75.75 0 0 1-.435-.68v-.07a12 12 0 0 1-.9-.488v.557c0 .644.374 1.229.958 1.498l5.595 2.582a4.05 4.05 0 0 0 3.394 0l5.594-2.582a1.65 1.65 0 0 0 .959-1.498v-.558q-.433.258-.9.488" clip-rule="evenodd"/></svg>