<svg xmlns="http://www.w3.org/2000/svg" width="24" height="24" fill="none"><g fill="#04071E" clip-path="url(#a)"><path d="M6.052 7.556a.6.6 0 0 1 .792-.304L12 9.543l5.156-2.291a.6.6 0 1 1 .488 1.096L12.6 10.59v5.61a.6.6 0 1 1-1.2 0v-5.61L6.356 8.348a.6.6 0 0 1-.304-.792m4.388-4.578a4.2 4.2 0 0 1 3.12 0l6.908 2.763A1.8 1.8 0 0 1 21.6 7.412v7.03a4 4 0 0 0-.6-.042h-.6V7.412a.6.6 0 0 0-.377-.557l-6.909-2.763a3 3 0 0 0-2.228 0L3.977 6.855a.6.6 0 0 0-.377.557v9.176a.6.6 0 0 0 .377.557l6.909 2.763a3 3 0 0 0 1.394.202c.155.404.372.778.638 1.111a4.2 4.2 0 0 1-2.478-.199L3.532 18.26A1.8 1.8 0 0 1 2.4 16.587V7.412a1.8 1.8 0 0 1 1.132-1.67zM16.2 15.6a3 3 0 1 0 0 6h.6a.6.6 0 1 0 0-1.2h-.6a1.8 1.8 0 0 1 0-3.6h.6a.6.6 0 1 0 0-1.2zm4.2 0a.6.6 0 1 0 0 1.2h.6a1.8 1.8 0 0 1 0 3.6h-.6a.6.6 0 1 0 0 1.2h.6a3 3 0 0 0 0-6zM16.2 18a.6.6 0 1 0 0 1.2H21a.6.6 0 1 0 0-1.2z"/><path fill-rule="evenodd" d="M13.504 3.117a4.05 4.05 0 0 0-3.008 0L3.587 5.88A1.65 1.65 0 0 0 2.55 7.412v9.176c0 .674.41 1.28 1.037 1.531l6.909 2.764c.69.276 1.436.355 2.158.237a4.3 4.3 0 0 1-.473-.853 3.15 3.15 0 0 1-1.35-.22l-6.91-2.763a.75.75 0 0 1-.471-.697V7.412a.75.75 0 0 1 .471-.696l6.91-2.763a3.15 3.15 0 0 1 2.339 0l6.908 2.763a.75.75 0 0 1 .472.696v6.838H21q.228 0 .45.023v-6.86a1.65 1.65 0 0 0-1.037-1.533zm-3.12-.279a4.35 4.35 0 0 1 3.232 0l6.908 2.764a1.95 1.95 0 0 1 1.226 1.81v7.03a.15.15 0 0 1-.171.149A4 4 0 0 0 21 14.55h-.6a.15.15 0 0 1-.15-.15V7.412a.45.45 0 0 0-.283-.417L13.06 4.23a2.85 2.85 0 0 0-2.117 0l-6.91 2.764a.45.45 0 0 0-.282.417v9.176c0 .183.112.349.283.417l6.908 2.764c.424.17.878.233 1.324.191a.15.15 0 0 1 .154.096c.15.39.36.75.616 1.071a.15.15 0 0 1-.084.24 4.35 4.35 0 0 1-2.567-.206l-6.908-2.763a1.95 1.95 0 0 1-1.226-1.81V7.411a1.95 1.95 0 0 1 1.226-1.81zm-3.601 4.55a.45.45 0 0 0-.366.823l5.044 2.242a.15.15 0 0 1 .089.137v5.61a.45.45 0 0 0 .9 0v-5.61a.15.15 0 0 1 .089-.137l5.044-2.242a.45.45 0 0 0-.366-.822L12.061 9.68a.15.15 0 0 1-.122 0zm-.868.107a.75.75 0 0 1 .99-.38L12 9.379l5.095-2.264a.75.75 0 1 1 .61 1.37l-4.955 2.202V16.2a.75.75 0 0 1-1.5 0v-5.513L6.295 8.485a.75.75 0 0 1-.38-.99M13.05 18.6a3.15 3.15 0 0 1 3.15-3.15h.6a.75.75 0 0 1 0 1.5h-.6a1.65 1.65 0 1 0 0 3.3h.6a.75.75 0 0 1 0 1.5h-.6a3.15 3.15 0 0 1-3.15-3.15m3.15-2.85a2.85 2.85 0 0 0 0 5.7h.6a.45.45 0 0 0 0-.9h-.6a1.95 1.95 0 0 1 0-3.9h.6a.45.45 0 0 0 0-.9zm3.45.45a.75.75 0 0 1 .75-.75h.6a3.15 3.15 0 1 1 0 6.3h-.6a.75.75 0 0 1 0-1.5h.6a1.65 1.65 0 1 0 0-3.3h-.6a.75.75 0 0 1-.75-.75m.75-.45a.45.45 0 0 0 0 .9h.6a1.95 1.95 0 1 1 0 3.9h-.6a.45.45 0 0 0 0 .9h.6a2.85 2.85 0 0 0 0-5.7zm-4.95 2.85a.75.75 0 0 1 .75-.75H21a.75.75 0 0 1 0 1.5h-4.8a.75.75 0 0 1-.75-.75m.75-.45a.45.45 0 0 0 0 .9H21a.45.45 0 0 0 0-.9z" clip-rule="evenodd"/></g><defs><clipPath id="a"><path fill="#fff" d="M0 0h24v24H0z"/></clipPath></defs></svg>