<svg xmlns="http://www.w3.org/2000/svg" width="24" height="24" fill="none"><path fill="#04071E" d="M10.886 19.909q.23.09.469.144.299.68.736 1.27a4.2 4.2 0 0 1-1.65-.3l-6.91-2.764A1.8 1.8 0 0 1 2.4 16.588V7.413a1.8 1.8 0 0 1 1.132-1.671l6.908-2.764a4.2 4.2 0 0 1 3.12 0l6.908 2.764a1.8 1.8 0 0 1 1.132 1.67v4.897a6.6 6.6 0 0 0-1.2-.79V7.414a.6.6 0 0 0-.377-.557l-6.909-2.764a3 3 0 0 0-2.228 0L3.977 6.856a.6.6 0 0 0-.377.557v9.175a.6.6 0 0 0 .377.557zM6.844 7.252a.6.6 0 0 0-.488 1.097L11.4 10.59v4.057a6.6 6.6 0 0 1 1.2-1.777v-2.28l5.044-2.241a.6.6 0 0 0-.488-1.097L12 9.544zM20.4 21.89a5.4 5.4 0 1 1-6-8.98 5.4 5.4 0 0 1 6 8.98m-2.576-7.314A.6.6 0 0 0 16.8 15v1.8H15a.6.6 0 0 0 0 1.2h1.8v1.8a.6.6 0 1 0 1.2 0V18h1.8a.6.6 0 0 0 0-1.2H18V15a.6.6 0 0 0-.176-.424"/><path fill="#04071E" fill-rule="evenodd" d="M13.504 3.117a4.05 4.05 0 0 0-3.008 0L3.587 5.881A1.65 1.65 0 0 0 2.55 7.413v9.175c0 .675.41 1.281 1.037 1.532l6.909 2.763c.42.168.86.263 1.303.285a7 7 0 0 1-.55-.986 3 3 0 0 1-.419-.134l-6.909-2.764a.75.75 0 0 1-.471-.696V7.413a.75.75 0 0 1 .471-.697l6.91-2.763a3.15 3.15 0 0 1 2.339 0l6.908 2.764a.75.75 0 0 1 .472.696v4.016q.474.25.9.57V7.413a1.65 1.65 0 0 0-1.037-1.532zm-3.12-.278a4.35 4.35 0 0 1 3.232 0l6.908 2.763a1.95 1.95 0 0 1 1.226 1.81v4.897a.15.15 0 0 1-.245.115 6.5 6.5 0 0 0-1.173-.77.15.15 0 0 1-.082-.134V7.413a.45.45 0 0 0-.283-.418L13.06 4.232a2.85 2.85 0 0 0-2.117 0l-6.91 2.763a.45.45 0 0 0-.282.418v9.175c0 .184.112.35.283.418l6.908 2.763q.22.087.446.137a.15.15 0 0 1 .105.087c.194.441.436.857.72 1.24a.15.15 0 0 1-.117.24 4.35 4.35 0 0 1-1.71-.311l-6.91-2.764a1.95 1.95 0 0 1-1.225-1.81V7.413a1.95 1.95 0 0 1 1.226-1.81zm-4.47 4.657a.75.75 0 0 1 .99-.38L12 9.38l5.095-2.265a.75.75 0 1 1 .61 1.37l-4.955 2.203v2.182a.15.15 0 0 1-.041.103 6.5 6.5 0 0 0-1.173 1.737.15.15 0 0 1-.286-.063v-3.96L6.295 8.487a.75.75 0 0 1-.38-.99m.869-.107a.45.45 0 0 0-.366.823l5.044 2.241a.15.15 0 0 1 .089.137v3.44q.382-.661.9-1.219v-2.22a.15.15 0 0 1 .089-.138l5.044-2.241a.45.45 0 0 0-.366-.823l-5.156 2.292a.15.15 0 0 1-.122 0zm11.641 4.862a5.25 5.25 0 1 0-2.048 10.299 5.25 5.25 0 0 0 2.048-10.3m-3.148.022a5.55 5.55 0 1 1 4.248 10.255 5.55 5.55 0 0 1-4.248-10.255m1.594 2.197a.75.75 0 0 1 1.28.53v1.65h1.65a.75.75 0 1 1 0 1.5h-1.65v1.65a.75.75 0 1 1-1.5 0v-1.65H15a.75.75 0 1 1 0-1.5h1.65V15a.75.75 0 0 1 .22-.53m.53.08a.45.45 0 0 0-.45.45v1.8a.15.15 0 0 1-.15.15H15a.45.45 0 0 0 0 .9h1.8a.15.15 0 0 1 .15.15v1.8a.45.45 0 1 0 .9 0V18a.15.15 0 0 1 .15-.15h1.8a.45.45 0 0 0 0-.9H18a.15.15 0 0 1-.15-.15V15a.45.45 0 0 0-.45-.45" clip-rule="evenodd"/></svg>