<svg xmlns="http://www.w3.org/2000/svg" width="24" height="24" fill="none"><path fill="#04071E" fill-rule="evenodd" d="M3.6 12.468a6.6 6.6 0 0 1-1.2-.788v4.89c0 .735.448 1.397 1.131 1.67L10.44 21c1.001.4 2.118.4 3.12 0l6.908-2.76a1.8 1.8 0 0 0 1.132-1.67V7.405c0-.735-.449-1.396-1.132-1.669l-6.908-2.76a4.2 4.2 0 0 0-1.651-.3q.436.59.736 1.268.239.052.469.145l6.908 2.76a.6.6 0 0 1 .378.556v9.165a.6.6 0 0 1-.378.557l-6.908 2.76a3 3 0 0 1-2.229 0l-6.908-2.76a.6.6 0 0 1-.377-.557zm7.8-1.349a6.6 6.6 0 0 0 1.243-1.87l4.513-2.004a.6.6 0 0 1 .487 1.095L12.6 10.58v5.603a.6.6 0 0 1-1.2 0z" clip-rule="evenodd"/><path fill="#04071E" fill-rule="evenodd" d="M1.203 6.594a5.397 5.397 0 0 1 5.4-5.394c2.982 0 5.4 2.415 5.4 5.394a5.397 5.397 0 0 1-5.4 5.394 5.397 5.397 0 0 1-5.4-5.394m6.6 2.149L8.88 7.668a.6.6 0 0 1 .848.848l-2.1 2.098a.6.6 0 0 1-.846.002l-2.102-2.1a.599.599 0 1 1 .848-.848l1.076 1.075v-1.85c0-1.158-.94-2.097-2.1-2.097h-.3a.6.6 0 1 1 0-1.199h.3c1.823 0 3.3 1.476 3.3 3.297z" clip-rule="evenodd"/><path stroke="#04071E" stroke-width=".3" d="M3.6 12.468a6.6 6.6 0 0 1-1.2-.788v4.89c0 .735.448 1.397 1.131 1.67L10.44 21c1.001.4 2.118.4 3.12 0l6.908-2.76a1.8 1.8 0 0 0 1.132-1.67V7.405c0-.735-.449-1.396-1.132-1.669l-6.908-2.76a4.2 4.2 0 0 0-1.651-.3q.436.59.736 1.268.239.052.469.145l6.908 2.76a.6.6 0 0 1 .378.556v9.165a.6.6 0 0 1-.378.557l-6.908 2.76a3 3 0 0 1-2.229 0l-6.908-2.76a.6.6 0 0 1-.377-.557zm7.8-1.349a6.6 6.6 0 0 0 1.243-1.87l4.513-2.004a.6.6 0 0 1 .487 1.095L12.6 10.58v5.603a.6.6 0 0 1-1.2 0z" clip-rule="evenodd"/><path stroke="#04071E" stroke-width=".3" d="M1.203 6.594a5.397 5.397 0 0 1 5.4-5.394c2.982 0 5.4 2.415 5.4 5.394a5.397 5.397 0 0 1-5.4 5.394 5.397 5.397 0 0 1-5.4-5.394Zm6.6 2.149L8.88 7.668a.6.6 0 0 1 .848.848l-2.1 2.098a.6.6 0 0 1-.846.002l-2.102-2.1a.599.599 0 1 1 .848-.848l1.076 1.075v-1.85c0-1.158-.94-2.097-2.1-2.097h-.3a.6.6 0 1 1 0-1.199h.3c1.823 0 3.3 1.476 3.3 3.297z" clip-rule="evenodd"/></svg>