<svg xmlns="http://www.w3.org/2000/svg" width="24" height="24" fill="none"><path fill="#04071E" d="M6.252 2.002a.75.75 0 0 0-.75.75v.314A4.25 4.25 0 0 0 2 7.25v.542a4.75 4.75 0 0 0 2.668 4.27l.834.406v6.908A2.75 2.75 0 0 1 3.5 16.729v-.981a.75.75 0 0 0-1.5 0v.98a4.25 4.25 0 0 0 3.502 4.185v.335a.75.75 0 0 0 1.5 0v-.336A4.25 4.25 0 0 0 10.5 16.73v-.525a4.75 4.75 0 0 0-2.668-4.27l-.83-.404V4.604A2.75 2.75 0 0 1 9 7.25v1.001a.75.75 0 1 0 1.5 0V7.25c0-2.09-1.51-3.829-3.498-4.184v-.314a.75.75 0 0 0-.75-.75M3.5 7.25c0-1.26.847-2.321 2.002-2.647v6.196l-.176-.086A3.25 3.25 0 0 1 3.5 7.792zm3.502 12.125v-6.176l.172.084A3.25 3.25 0 0 1 9 16.204v.525a2.75 2.75 0 0 1-1.998 2.646M14.5 12q0-.252.011-.5h1.737a.75.75 0 0 0 .001-1.5h-1.567c.247-1.323.73-2.491 1.367-3.405C16.994 5.24 18.226 4.5 19.5 4.5c.467 0 .973.136 1.337.376a.75.75 0 0 0 .826-1.252C21.019 3.2 20.216 3 19.5 3c-1.901 0-3.544 1.107-4.681 2.738-.815 1.169-1.395 2.636-1.66 4.26h-1.408a.75.75 0 1 0-.001 1.5h1.26a13 13 0 0 0 0 1.002h-1.26a.75.75 0 0 0 0 1.5h1.41c.264 1.625.844 3.093 1.659 4.262C15.956 19.894 17.599 21 19.5 21c.695 0 1.517-.168 2.182-.63a.75.75 0 0 0-.856-1.232c-.343.239-.838.362-1.326.362-1.274 0-2.506-.74-3.45-2.095-.638-.914-1.121-2.082-1.368-3.405h1.567a.75.75 0 1 0 0-1.5H14.51a11 11 0 0 1-.011-.5"/></svg>