<svg xmlns="http://www.w3.org/2000/svg" width="24" height="24" fill="none"><path fill="#04071E" d="M4.8 6c0-1.208 1.05-2.106 2.28-2.668A12.2 12.2 0 0 1 12 2.4a12.2 12.2 0 0 1 4.92.932c1.23.562 2.28 1.46 2.28 2.668v6.13a3.6 3.6 0 0 0-1.2.31v-4.4a6 6 0 0 1-1.08.63A12.2 12.2 0 0 1 12 9.6a12.2 12.2 0 0 1-4.92-.932A6 6 0 0 1 6 8.04V18c0 .449.427 1.05 1.582 1.576 1.4.574 2.904.855 4.418.824h.026q.02.098.046.193l-.912.917-.07.073a12.2 12.2 0 0 1-4.01-.915C5.85 20.106 4.8 19.208 4.8 18zM6 6c0 .449.427 1.05 1.582 1.576 1.4.574 2.904.855 4.418.824a11 11 0 0 0 4.418-.824C17.573 7.05 18 6.449 18 6s-.427-1.05-1.582-1.576A11 11 0 0 0 12 3.6a11 11 0 0 0-4.418.824C6.427 4.95 6 5.551 6 6m17.038 7.025a.6.6 0 1 0-.849-.85l-.363.363-1.06 1.06a1 1 0 0 0-.042.064 2.396 2.396 0 0 0-2.923.36l-.72.72a1.177 1.177 0 0 0 0 1.663l1.73 1.727a1.177 1.177 0 0 0 1.665 0l.72-.72a2.4 2.4 0 0 0 .36-2.924 1 1 0 0 0 .063-.042zm-6.806 4.225a1.176 1.176 0 0 0-1.663 0l-.72.72a2.4 2.4 0 0 0-.36 2.924 1 1 0 0 0-.064.042l-1.418 1.422a.6.6 0 0 0 .848.849l1.422-1.423a1 1 0 0 0 .043-.064 2.4 2.4 0 0 0 2.924-.36l.72-.72a1.177 1.177 0 0 0 0-1.664z"/><path fill="#04071E" fill-rule="evenodd" d="M7.14 3.47C5.92 4.027 4.95 4.888 4.95 6v12c0 1.112.97 1.973 2.19 2.53 1.24.515 2.554.818 3.889.9l.025-.026.848-.852c-1.5.017-2.989-.268-4.377-.838l-.006-.002c-.589-.268-1.003-.56-1.271-.851-.269-.291-.398-.588-.398-.861V7.744l.239.175c.327.24.68.445 1.05.61 1.539.64 3.193.953 4.858.921h.006c1.665.033 3.32-.28 4.857-.918a5.8 5.8 0 0 0 1.051-.613l.239-.176v4.472q.436-.166.9-.22V6c0-1.112-.97-1.973-2.19-2.53a12.1 12.1 0 0 0-4.857-.92h-.006a12.1 12.1 0 0 0-4.857.92M12 2.25a12.4 12.4 0 0 0-4.978.944l-.004.002C5.778 3.762 4.65 4.696 4.65 6v12c0 1.304 1.128 2.238 2.368 2.804l.004.002c1.294.537 2.667.85 4.06.927l.072.004.049-.054q.03-.034.063-.067l.973-.978-.022-.084a4 4 0 0 1-.045-.185l-.024-.116-.145-.003h-.006a10.9 10.9 0 0 1-4.356-.812c-.563-.257-.94-.528-1.173-.78-.234-.254-.318-.482-.318-.658V8.327q.414.274.869.477l.003.002c1.577.655 3.271.976 4.978.944a12.4 12.4 0 0 0 4.977-.942l.005-.001q.454-.204.868-.48v4.347l.212-.097q.054-.025.11-.047a3.4 3.4 0 0 1 1.04-.25l.138-.01V6c0-1.304-1.128-2.238-2.368-2.804l-.004-.002A12.4 12.4 0 0 0 12 2.25m0 1.2a11.2 11.2 0 0 1 4.475.836l.006.002c.589.268 1.003.56 1.271.851.269.29.398.588.398.86 0 .274-.13.571-.398.862-.268.29-.682.583-1.271.851l-.006.002A11.2 11.2 0 0 1 12 8.55a11.2 11.2 0 0 1-4.475-.836l-.006-.002c-.589-.268-1.003-.56-1.271-.851C5.979 6.57 5.85 6.273 5.85 6s.13-.57.398-.86c.268-.292.682-.584 1.271-.852l.006-.003A11.2 11.2 0 0 1 12 3.45M7.641 4.562c-.563.257-.94.528-1.173.78-.234.254-.318.482-.318.658s.084.404.318.657.61.524 1.173.78a10.9 10.9 0 0 0 4.356.813h.006a10.9 10.9 0 0 0 4.356-.812c.563-.257.94-.528 1.173-.78.234-.254.318-.482.318-.658s-.084-.404-.318-.657-.61-.524-1.173-.781a10.9 10.9 0 0 0-4.356-.812h-.006a10.9 10.9 0 0 0-4.356.812m14.442 7.507a.75.75 0 0 1 1.06 1.062l-1.393 1.396a2.55 2.55 0 0 1-.448 2.99l-.72.721a1.327 1.327 0 0 1-1.877 0m3.378-6.169-1.399 1.399zm-1.399 1.399a2.55 2.55 0 0 0-2.99.448l-.72.72a1.327 1.327 0 0 0 0 1.875l1.731 1.727m3.59-5.957a.45.45 0 0 1 .636.638l-1.411 1.414-.036.023-.137.075.08.134a2.25 2.25 0 0 1-.338 2.741l-.72.72a1.027 1.027 0 0 1-1.452 0l-1.73-1.727a1.03 1.03 0 0 1 0-1.451l.72-.72a2.25 2.25 0 0 1 2.74-.337l.13.077.076-.13.027-.042zm-7.402 4.575a1.33 1.33 0 0 1 1.445.288l1.731 1.725a1.33 1.33 0 0 1 0 1.877l-.72.72a2.55 2.55 0 0 1-2.99.448l-1.4 1.4a.75.75 0 0 1-1.06-1.06l.002-.002 1.393-1.397a2.55 2.55 0 0 1 .448-2.99l.72-.721q.188-.185.43-.288m.507.2a1.02 1.02 0 0 0-.725.3l-.72.72a2.25 2.25 0 0 0-.338 2.741l.08.133-.135.075-.038.025-1.41 1.413a.45.45 0 0 0 .636.637v-.001l1.414-1.414.027-.041.077-.13.13.077a2.25 2.25 0 0 0 2.74-.337l.72-.72a1.027 1.027 0 0 0 0-1.452m0 0-1.732-1.726a1.03 1.03 0 0 0-.726-.3" clip-rule="evenodd"/><path fill="#04071E" d="m20.766 13.599 1.06-1.061.257-.469-1.399 1.399-.057.139.097.055a1 1 0 0 1 .042-.064"/></svg>