<svg xmlns="http://www.w3.org/2000/svg" width="24" height="24" fill="none"><path fill="#04071E" d="M15.494 4.249A.82.82 0 0 1 15 3.51c0-.521.507-.892.986-.684a10.04 10.04 0 0 1 5.188 5.188c.208.479-.163.986-.684.986a.82.82 0 0 1-.739-.494 8.53 8.53 0 0 0-4.257-4.257M9 3.51c0-.521-.507-.892-.986-.684a10.04 10.04 0 0 0-5.188 5.188c-.208.479.163.986.684.986a.82.82 0 0 0 .739-.494A8.53 8.53 0 0 1 8.506 4.25.82.82 0 0 0 9 3.51m6.494 16.241a.82.82 0 0 0-.494.739c0 .521.507.892.986.684a10.04 10.04 0 0 0 5.188-5.188c.208-.479-.163-.986-.684-.986a.82.82 0 0 0-.739.494 8.53 8.53 0 0 1-4.257 4.257M3.51 15c.322 0 .607.2.739.494a8.53 8.53 0 0 0 4.257 4.257.82.82 0 0 1 .494.739c0 .521-.507.892-.986.684a10.04 10.04 0 0 1-5.188-5.188c-.208-.479.163-.986.684-.986M12 6.5q-.29 0-.572.03a.75.75 0 1 1-.154-1.493Q11.633 5 12 5a7 7 0 0 1 6.826 5.443.75.75 0 1 1-1.463.332A5.5 5.5 0 0 0 12 6.5m-2.879-.1a.75.75 0 0 1-.2 1.042A5.5 5.5 0 0 0 6.5 12c0 1.142.347 2.201.942 3.08a.75.75 0 1 1-1.242.84A6.97 6.97 0 0 1 5 12a7 7 0 0 1 3.08-5.8.75.75 0 0 1 1.041.2m9.11 6.505c.4.108.636.52.529.92A7.003 7.003 0 0 1 8.75 18.2a.75.75 0 1 1 .697-1.328 5.503 5.503 0 0 0 7.864-3.439.75.75 0 0 1 .92-.529M12 8a4 4 0 1 0 0 8 4 4 0 0 0 0-8m-2.5 4a2.5 2.5 0 1 1 5 0 2.5 2.5 0 0 1-5 0"/></svg>