<svg xmlns="http://www.w3.org/2000/svg" width="24" height="24" fill="none"><path fill="#04071E" d="M6 3.6a3.6 3.6 0 0 0-3.6 3.6v9.6A3.6 3.6 0 0 0 6 20.4h5.521a6.6 6.6 0 0 1-.47-1.2H6a2.4 2.4 0 0 1-2.4-2.4V7.2A2.4 2.4 0 0 1 6 4.8h9.6A2.4 2.4 0 0 1 18 7.2v3.627a6.6 6.6 0 0 1 1.2.223V7.2a3.6 3.6 0 0 0-3.6-3.6zm4.827 13.2a6.6 6.6 0 0 1 .573-2.15V12.6a.6.6 0 1 0-1.2 0v3.6a.6.6 0 0 0 .627.6m4.047-5.498q.357-.147.726-.252V7.8a.6.6 0 1 0-1.2 0v3.721q.232-.118.474-.219M6.6 9.6a.6.6 0 0 0-.6.6v6a.6.6 0 1 0 1.2 0v-6a.6.6 0 0 0-.6-.6m7.879 4.13a2.4 2.4 0 0 1-1.717 2.974l-.553.141a5.7 5.7 0 0 0 .012 1.22l.42.1a2.4 2.4 0 0 1 1.747 3.022l-.152.507q.464.367 1.002.622l.39-.413a2.4 2.4 0 0 1 3.491.002l.405.43q.527-.245.986-.598l-.187-.668a2.4 2.4 0 0 1 1.717-2.973l.552-.142a5.6 5.6 0 0 0-.012-1.22l-.419-.099a2.4 2.4 0 0 1-1.747-3.022l.151-.507a5.2 5.2 0 0 0-1.001-.622l-.39.413a2.4 2.4 0 0 1-3.491-.002l-.405-.43q-.528.245-.987.597zM17.4 18.6a1.2 1.2 0 1 1 0-2.4 1.2 1.2 0 0 1 0 2.4"/><path fill="#04071E" fill-rule="evenodd" d="M2.25 7.2A3.75 3.75 0 0 1 6 3.45h9.6a3.75 3.75 0 0 1 3.75 3.75v4.049l-.19-.055a6.5 6.5 0 0 0-1.174-.217l-.136-.013V7.2a2.25 2.25 0 0 0-2.25-2.25H6A2.25 2.25 0 0 0 3.75 7.2v9.6A2.25 2.25 0 0 0 6 19.05h5.164l.03.11q.174.608.46 1.172l.112.218H6a3.75 3.75 0 0 1-3.75-3.75zM6 3.75A3.45 3.45 0 0 0 2.55 7.2v9.6A3.45 3.45 0 0 0 6 20.25h5.281a7 7 0 0 1-.343-.9H6a2.55 2.55 0 0 1-2.55-2.55V7.2A2.55 2.55 0 0 1 6 4.65h9.6a2.55 2.55 0 0 1 2.55 2.55v3.492a7 7 0 0 1 .9.163V7.2a3.45 3.45 0 0 0-3.45-3.45zm8.25 4.05a.75.75 0 0 1 1.5 0v3.364l-.11.03a6.5 6.5 0 0 0-1.172.46l-.218.112zm.75-.45a.45.45 0 0 0-.45.45v3.481a7 7 0 0 1 .9-.343V7.8a.45.45 0 0 0-.45-.45M5.85 10.2a.75.75 0 0 1 1.5 0v6a.75.75 0 0 1-1.5 0zm.75-.45a.45.45 0 0 0-.45.45v6a.45.45 0 0 0 .9 0v-6a.45.45 0 0 0-.45-.45m3.45 2.85a.75.75 0 0 1 1.5 0v2.083l-.014.03a6.5 6.5 0 0 0-.56 2.1l-.011.13-.13.006-.035.001a.75.75 0 0 1-.75-.75zm.75-.45a.45.45 0 0 0-.45.45v3.6c0 .212.146.39.343.437.08-.698.268-1.38.557-2.02V12.6a.45.45 0 0 0-.45-.45m4.513.134.479.508a2.25 2.25 0 0 0 3.273.002l.464-.492.099.047c.367.173.713.388 1.03.64l.08.062-.18.605a2.25 2.25 0 0 0 1.638 2.833l.52.124.013.104a5.8 5.8 0 0 1 .012 1.252l-.01.105-.654.167a2.25 2.25 0 0 0-1.61 2.788l.215.765-.08.062a5.3 5.3 0 0 1-1.015.614l-.098.046-.48-.508a2.25 2.25 0 0 0-3.272-.002l-.465.492-.098-.047a5.3 5.3 0 0 1-1.031-.639l-.08-.063.18-.605a2.25 2.25 0 0 0-1.637-2.834l-.522-.123-.012-.104a5.8 5.8 0 0 1-.012-1.252l.01-.105.655-.167a2.25 2.25 0 0 0 1.61-2.788l-.215-.766.08-.062a5.3 5.3 0 0 1 1.015-.614zm-.85.836.16.57a2.55 2.55 0 0 1-1.824 3.16l-.45.114a5.5 5.5 0 0 0 .01.98l.316.074a2.55 2.55 0 0 1 1.856 3.212l-.122.409q.374.283.795.494l.314-.333a2.55 2.55 0 0 1 3.71.002l.33.35q.412-.201.78-.473l-.16-.57a2.55 2.55 0 0 1 1.824-3.159l.45-.115a5.5 5.5 0 0 0-.01-.979l-.315-.075a2.55 2.55 0 0 1-1.857-3.211l.122-.409a5 5 0 0 0-.795-.494l-.314.333a2.55 2.55 0 0 1-3.71-.002l-.33-.35a5 5 0 0 0-.78.473m2.938 3.23a1.05 1.05 0 1 0 0 2.1 1.05 1.05 0 0 0 0-2.1m-1.35 1.05a1.35 1.35 0 1 1 2.7 0 1.35 1.35 0 0 1-2.7 0" clip-rule="evenodd"/></svg>