<svg xmlns="http://www.w3.org/2000/svg" width="24" height="24" fill="none"><path fill="#04071E" d="M4.8 6c0-1.208 1.05-2.106 2.285-2.668C8.374 2.747 10.112 2.4 12 2.4s3.626.347 4.915.932C18.15 3.894 19.2 4.792 19.2 6v4.8H18V8.038a6 6 0 0 1-1.085.63c-1.289.585-3.027.932-4.915.932s-3.626-.347-4.915-.932A6 6 0 0 1 6 8.038V18c0 .448.427 1.05 1.581 1.575.842.383 1.955.663 3.219.773V21q0 .285.051.557c-1.438-.11-2.744-.425-3.766-.89C5.85 20.108 4.8 19.209 4.8 18zM6 6c0 .448.427 1.05 1.581 1.575 1.1.5 2.662.825 4.419.825s3.319-.325 4.419-.825c1.154-.524 1.58-1.127 1.58-1.575s-.426-1.05-1.58-1.575c-1.1-.5-2.662-.825-4.42-.825-1.756 0-3.318.325-4.418.825C6.427 4.949 6 5.552 6 6m6 7.8a1.8 1.8 0 0 1 1.8-1.8H21a1.8 1.8 0 0 1 1.8 1.8v.6H12zm0 1.8h10.8V21a1.8 1.8 0 0 1-1.8 1.8h-7.2A1.8 1.8 0 0 1 12 21z"/><path fill="#04071E" fill-rule="evenodd" d="M12 2.55c-1.872 0-3.588.344-4.853.919C5.92 4.026 4.95 4.887 4.95 6v12c0 1.113.971 1.974 2.197 2.531.959.436 2.177.74 3.527.86A3 3 0 0 1 10.65 21v-.515c-1.22-.12-2.3-.396-3.13-.773-.59-.268-1.004-.56-1.272-.851-.269-.291-.398-.588-.398-.861V7.739l.24.179c.315.235.676.44 1.057.613 1.265.575 2.981.919 4.853.919s3.588-.344 4.853-.919a5.8 5.8 0 0 0 1.057-.613l.24-.18v2.912h.9V6c0-1.113-.972-1.974-2.197-2.531-1.265-.575-2.981-.919-4.853-.919m-4.977.646C8.335 2.599 10.096 2.25 12 2.25s3.665.35 4.977.946c1.244.565 2.373 1.5 2.373 2.804v4.95h-1.5V8.326c-.273.18-.568.34-.873.478-1.312.597-3.073.946-4.977.946s-3.665-.35-4.977-.946a6.4 6.4 0 0 1-.873-.478V18c0 .176.084.404.318.657s.61.525 1.175.782c.824.374 1.92.65 3.17.76l.137.012V21q0 .271.049.529l.036.192-.195-.015c-1.452-.11-2.776-.428-3.817-.902C5.779 20.24 4.65 19.304 4.65 18V6c0-1.304 1.129-2.239 2.373-2.804m.496 1.092c1.124-.51 2.707-.838 4.48-.838s3.358.328 4.482.838c.589.268 1.003.56 1.271.851s.398.588.398.861-.13.57-.398.86c-.268.292-.682.584-1.271.852-1.124.51-2.708.838-4.481.838-1.774 0-3.357-.328-4.48-.838-.59-.268-1.004-.56-1.272-.851C5.979 6.57 5.85 6.273 5.85 6s.13-.57.398-.86c.268-.292.682-.584 1.271-.852M12 3.75c-1.74 0-3.28.322-4.356.811-.564.257-.941.528-1.175.782-.234.253-.318.481-.318.657s.084.404.318.657c.234.254.61.525 1.175.782 1.077.489 2.616.811 4.357.811 1.74 0 3.28-.322 4.357-.811.564-.257.941-.528 1.175-.782.234-.253.318-.481.318-.657s-.084-.404-.318-.657c-.234-.254-.61-.525-1.175-.782C15.28 4.072 13.74 3.75 12 3.75m1.8 8.4a1.65 1.65 0 0 0-1.65 1.65v.45h10.5v-.45A1.65 1.65 0 0 0 21 12.15zm-1.95 1.65a1.95 1.95 0 0 1 1.95-1.95H21a1.95 1.95 0 0 1 1.95 1.95v.75h-11.1zm0 1.65h11.1V21A1.95 1.95 0 0 1 21 22.95h-7.2A1.95 1.95 0 0 1 11.85 21zm.3.3V21c0 .911.74 1.65 1.65 1.65H21A1.65 1.65 0 0 0 22.65 21v-5.25z" clip-rule="evenodd"/></svg>