<svg xmlns="http://www.w3.org/2000/svg" width="24" height="24" fill="none"><path fill="#04071E" d="M9.485 2.132C8.25 2.694 7.2 3.592 7.2 4.8v3.616a11 11 0 0 1 1.2 0V6.838c.325.243.696.453 1.085.63 1.289.585 3.027.932 4.915.932s3.626-.347 4.915-.932c.39-.177.76-.387 1.085-.63V16.8c0 .448-.427 1.05-1.581 1.575-1.1.5-2.662.825-4.419.825v.6q0 .311-.061.6h.061c1.888 0 3.626-.347 4.915-.932 1.235-.562 2.285-1.46 2.285-2.668v-12c0-1.208-1.05-2.106-2.285-2.668-1.289-.585-3.027-.932-4.915-.932s-3.626.347-4.915.932m.496 4.243C8.827 5.851 8.4 5.248 8.4 4.8s.427-1.05 1.581-1.575c1.1-.5 2.662-.825 4.419-.825s3.319.325 4.419.825C19.973 3.749 20.4 4.352 20.4 4.8s-.427 1.05-1.581 1.575c-1.1.5-2.662.825-4.419.825s-3.319-.325-4.419-.825M8.4 9.618q.547.034 1.055.126a8 8 0 0 1 1.345.361c1.447.538 2.4 1.455 2.4 2.495 0 1.657-2.418 3-5.4 3s-5.4-1.343-5.4-3c0-1.544 2.1-2.816 4.8-2.982a10 10 0 0 1 1.2 0m4.71 10.727C12.65 21.741 10.448 22.8 7.8 22.8c-2.982 0-5.4-1.343-5.4-3v-4.734c.306.275.648.51.999.705 1.187.66 2.745 1.03 4.4 1.03 1.657 0 3.215-.37 4.402-1.03a5.5 5.5 0 0 0 1-.707l-.001 4.085v.651q0 .281-.09.546"/><path fill="#04071E" fill-rule="evenodd" d="M7 8.628V4.8c0-1.336 1.155-2.283 2.402-2.85C10.722 1.35 12.49 1 14.4 1s3.678.35 4.998.95c1.247.567 2.402 1.514 2.402 2.85v12c0 1.336-1.155 2.283-2.402 2.85-1.32.6-3.088.95-4.998.95h-.307l.05-.24a2.8 2.8 0 0 0 .057-.56V19h.2c1.735 0 3.267-.321 4.336-.807.56-.255.931-.523 1.159-.77s.305-.463.305-.623V7.218a6.5 6.5 0 0 1-.802.432c-1.32.6-3.088.95-4.998.95s-3.678-.35-4.998-.95a6.5 6.5 0 0 1-.802-.432v1.41l-.211-.012a11 11 0 0 0-1.178 0zm1.4-1.79q.098.072.2.141c.274.184.573.347.885.489 1.289.585 3.027.932 4.915.932s3.626-.347 4.915-.932a6 6 0 0 0 1.085-.63V16.8c0 .448-.427 1.05-1.581 1.575-1.1.5-2.662.825-4.419.825v.6a3 3 0 0 1-.061.6h.204c1.833-.018 3.516-.361 4.772-.932 1.235-.562 2.285-1.46 2.285-2.668v-12c0-1.208-1.05-2.106-2.285-2.668-1.289-.585-3.027-.932-4.915-.932s-3.626.347-4.915.932C8.25 2.694 7.2 3.592 7.2 4.8v3.616a11 11 0 0 1 1.2 0zm-6.2 7.778.334.3c.293.264.622.49.962.68 1.152.64 2.676 1.004 4.304 1.004s3.152-.365 4.304-1.005c.34-.189.67-.416.964-.68l.334-.301v.45l-.002 4.084v.651q0 .314-.1.609c-.255.772-.977 1.418-1.94 1.869-.97.453-2.212.722-3.56.722-1.519 0-2.903-.341-3.916-.903-1.005-.56-1.684-1.363-1.684-2.297zm11 4.532.001-3.82v-.265a5.625 5.625 0 0 1-1 .707c-1.187.66-2.745 1.03-4.401 1.03s-3.214-.37-4.401-1.03a5.6 5.6 0 0 1-.999-.705v4.734c0 1.657 2.418 3 5.4 3 2.647 0 4.849-1.058 5.31-2.454q.09-.266.09-.546zM8.905 5.423c.228.247.598.515 1.16.77 1.068.486 2.6.807 4.335.807s3.267-.321 4.336-.807c.56-.255.931-.523 1.159-.77s.305-.463.305-.623-.077-.376-.305-.623-.598-.515-1.16-.77c-1.068-.486-2.6-.807-4.335-.807s-3.267.321-4.336.807c-.56.255-.931.523-1.16.77-.227.247-.304.464-.304.623 0 .16.077.376.305.623M8.412 9.42q.558.034 1.078.128a8 8 0 0 1 1.38.37c1.468.547 2.53 1.511 2.53 2.683 0 .934-.68 1.738-1.684 2.296-1.013.563-2.397.904-3.916.904s-2.903-.341-3.916-.904C2.88 14.338 2.2 13.534 2.2 12.6c0-.87.59-1.628 1.483-2.178.896-.552 2.13-.919 3.505-1.003a10 10 0 0 1 1.224 0M8.4 4.8c0 .448.427 1.05 1.581 1.575 1.1.5 2.662.825 4.419.825s3.319-.325 4.419-.825C19.973 5.851 20.4 5.248 20.4 4.8s-.427-1.05-1.581-1.575c-1.1-.5-2.662-.825-4.419-.825s-3.319.325-4.419.825C8.827 3.749 8.4 4.352 8.4 4.8m1.055 4.944A9 9 0 0 0 7.8 9.6a10 10 0 0 0-.6.018c-2.7.166-4.8 1.438-4.8 2.982 0 1.657 2.418 3 5.4 3s5.4-1.343 5.4-3c0-1.04-.953-1.957-2.4-2.495a8 8 0 0 0-1.345-.361" clip-rule="evenodd"/></svg>