<svg xmlns="http://www.w3.org/2000/svg" width="24" height="24" fill="none"><path fill="#04071E" d="M4.8 6c0-1.209 1.05-2.106 2.28-2.668A12.2 12.2 0 0 1 12 2.4a12.2 12.2 0 0 1 4.92.932c1.23.562 2.28 1.46 2.28 2.668v5.048a6.6 6.6 0 0 0-1.2-.221V8.04a6 6 0 0 1-1.08.63A12.2 12.2 0 0 1 12 9.6a12.2 12.2 0 0 1-4.92-.933A6 6 0 0 1 6 8.04V18c0 .449.427 1.05 1.582 1.576 1.252.513 2.587.792 3.937.823.22.43.486.834.791 1.203q-.155 0-.31-.002a12.2 12.2 0 0 1-4.92-.933C5.85 20.107 4.8 19.209 4.8 18zM6 6c0 .449.427 1.05 1.582 1.575 1.4.575 2.904.856 4.418.825a11 11 0 0 0 4.418-.825C17.573 7.05 18 6.45 18 6s-.427-1.05-1.582-1.576A11 11 0 0 0 12 3.6a11 11 0 0 0-4.418.824C6.427 4.95 6 5.551 6 6m6 11.4a5.4 5.4 0 1 1 10.8 0 5.4 5.4 0 0 1-10.8 0m5.825-2.824-.003-.003a.6.6 0 0 0-.418-.173h-.008a.6.6 0 0 0-.42.176l-2.4 2.4a.6.6 0 0 0 .848.848l1.376-1.376V19.8a.6.6 0 0 0 1.2 0v-3.352l1.376 1.376a.6.6 0 1 0 .848-.848z"/><path fill="#04071E" fill-rule="evenodd" d="M7.003 3.148A12.4 12.4 0 0 1 12 2.2c1.713-.033 3.414.29 4.997.948l.006.002C18.245 3.717 19.4 4.664 19.4 6v5.313l-.255-.072a6.4 6.4 0 0 0-1.163-.215l-.182-.016V8.42a6 6 0 0 1-.798.432l-.005.003A12.4 12.4 0 0 1 12 9.8a12.4 12.4 0 0 1-4.997-.948l-.005-.002a6 6 0 0 1-.798-.43V18c0 .16.077.376.305.623s.597.514 1.156.769a10.8 10.8 0 0 0 3.863.807l.12.003.053.106q.322.628.767 1.166l.269.325-.422.003q-.155 0-.311-.002a12.4 12.4 0 0 1-4.997-.948l-.006-.003C5.755 20.283 4.6 19.336 4.6 18V6c0-1.335 1.155-2.281 2.397-2.849zM12 21.6h.052q.129.002.258.002a6.606 6.606 0 0 1-.79-1.203 11 11 0 0 1-3.938-.823C6.427 19.05 6 18.449 6 18V8.04a6 6 0 0 0 1.08.627c1.558.648 3.233.965 4.92.933a12.2 12.2 0 0 0 4.92-.93A6 6 0 0 0 18 8.04v2.787a6.6 6.6 0 0 1 1.2.221V6c0-1.209-1.05-2.106-2.28-2.668A12.2 12.2 0 0 0 12 2.4a12.2 12.2 0 0 0-4.92.932C5.85 3.894 4.8 4.792 4.8 6v12c0 1.208 1.05 2.106 2.28 2.668 1.558.647 3.233.964 4.92.932m.004-13.4a10.8 10.8 0 0 0 4.335-.808c.559-.255.929-.522 1.156-.769.228-.247.305-.463.305-.623s-.077-.376-.305-.623-.597-.514-1.156-.77a10.8 10.8 0 0 0-4.335-.807h-.008a10.8 10.8 0 0 0-4.335.808c-.56.255-.929.522-1.156.769-.228.247-.305.463-.305.623s.077.376.305.623.597.514 1.156.769a10.8 10.8 0 0 0 4.335.808zM7.582 4.424A11 11 0 0 1 12 3.6a11 11 0 0 1 4.418.824C17.573 4.95 18 5.551 18 6s-.427 1.05-1.582 1.575A11 11 0 0 1 12 8.4a11 11 0 0 1-4.418-.825C6.427 7.05 6 6.45 6 6s.427-1.05 1.582-1.576m11.794 13.4a.6.6 0 1 0 .848-.848l-2.4-2.4-.002-.003a.6.6 0 0 0-.418-.173h-.008a.6.6 0 0 0-.42.176l-2.4 2.4a.6.6 0 0 0 .848.848l1.376-1.376V19.8a.6.6 0 0 0 1.2 0v-3.352zM17.398 14.6a.4.4 0 0 0-.28.117l-2.4 2.4a.4.4 0 0 0 .565.566L17 15.966V19.8a.4.4 0 0 0 .8 0v-3.834l1.717 1.717a.4.4 0 0 0 .566-.566l-2.4-2.4-.002-.002a.4.4 0 0 0-.278-.115h-.005M11.8 17.4a5.6 5.6 0 1 1 11.2 0 5.6 5.6 0 0 1-11.2 0m5.6-5.4a5.4 5.4 0 1 0 0 10.8 5.4 5.4 0 0 0 0-10.8" clip-rule="evenodd"/></svg>