<svg xmlns="http://www.w3.org/2000/svg" width="24" height="24" fill="none"><path fill="#04071E" d="M3.8 6c0-1.209 1.05-2.106 2.28-2.668A12.2 12.2 0 0 1 11 2.4a12.2 12.2 0 0 1 4.92.932c1.23.562 2.28 1.46 2.28 2.668v3.674a2.46 2.46 0 0 0-1.2.001V8.04a6 6 0 0 1-1.08.63A12.2 12.2 0 0 1 11 9.6a12.2 12.2 0 0 1-4.92-.933A6 6 0 0 1 5 8.04V18c0 .449.427 1.05 1.582 1.576 1.4.574 2.904.855 4.418.824h.005c0 .428.117.841.326 1.202q-.165 0-.33-.002a12.2 12.2 0 0 1-4.92-.933C4.85 20.107 3.8 19.209 3.8 18zM5 6c0 .449.427 1.05 1.582 1.575 1.4.575 2.904.856 4.418.825a11 11 0 0 0 4.419-.825C16.572 7.05 17 6.45 17 6s-.427-1.05-1.582-1.576A11 11 0 0 0 11 3.6a11 11 0 0 0-4.418.824C5.427 4.95 5 5.551 5 6m11.524 5.464-4.196 8.398a1.2 1.2 0 0 0 1.075 1.738h8.394c.893 0 1.474-.94 1.075-1.738l-4.2-8.398a1.201 1.201 0 0 0-2.148 0m1.674 2.33v3.603a.6.6 0 0 1-1.2 0v-3.603a.6.6 0 1 1 1.2 0m-.6 6.605a.6.6 0 1 1 0-1.2.6.6 0 0 1 0 1.2"/><path fill="#04071E" fill-rule="evenodd" d="M6.003 3.148A12.4 12.4 0 0 1 11 2.2c1.713-.033 3.415.29 4.997.948l.006.002C17.246 3.717 18.4 4.664 18.4 6v3.93l-.249-.062c-.36-.091-.741-.09-1.102 0l-.249.064V8.42a6 6 0 0 1-.798.432l-.005.003A12.4 12.4 0 0 1 11 9.8a12.4 12.4 0 0 1-4.997-.948l-.005-.002a6 6 0 0 1-.798-.43V18c0 .16.077.376.305.623s.597.514 1.156.769a10.8 10.8 0 0 0 4.335.808h.008l.2.004v.196c.001.391.108.77.3 1.102l.173.297-.344.003q-.166 0-.333-.002a12.4 12.4 0 0 1-4.997-.948l-.006-.003C4.755 20.283 3.6 19.336 3.6 18V6c0-1.335 1.155-2.281 2.397-2.849zM11 21.6l.102.001h.229a2.44 2.44 0 0 1-.326-1.201h-.01l-.19.002a11 11 0 0 1-4.223-.826C5.427 19.05 5 18.449 5 18V8.04a6 6 0 0 0 1.08.627c1.558.648 3.233.965 4.92.933a12.2 12.2 0 0 0 4.92-.93A6 6 0 0 0 17 8.04v1.635a2.43 2.43 0 0 1 1.2-.001V6c0-1.209-1.05-2.106-2.28-2.668A12.2 12.2 0 0 0 11 2.4a12.2 12.2 0 0 0-4.92.932C4.85 3.894 3.8 4.792 3.8 6v12c0 1.208 1.05 2.106 2.28 2.668 1.558.647 3.233.964 4.92.932m.004-13.4a10.8 10.8 0 0 0 4.335-.808c.56-.255.929-.522 1.156-.769.229-.247.305-.463.305-.623s-.076-.376-.305-.623c-.227-.247-.597-.514-1.156-.77a10.8 10.8 0 0 0-4.335-.807h-.008a10.8 10.8 0 0 0-4.335.808c-.559.255-.929.522-1.156.769-.228.247-.305.463-.305.623s.077.376.305.623.597.514 1.156.769a10.8 10.8 0 0 0 4.335.808zM6.582 4.424A11 11 0 0 1 11 3.6a11 11 0 0 1 4.419.824C16.572 4.95 17 5.551 17 6s-.427 1.05-1.582 1.575A11 11 0 0 1 11 8.4a11 11 0 0 1-4.418-.825C5.427 7.05 5 6.45 5 6s.427-1.05 1.582-1.576m5.567 15.349 4.196-8.398c.516-1.033 1.99-1.033 2.506 0l4.2 8.398a1.4 1.4 0 0 1-1.253 2.027h-8.395a1.4 1.4 0 0 1-1.254-2.027M18 17.397v-3.603a.4.4 0 1 0-.802 0v3.603a.4.4 0 0 0 .801 0m-.802 2.402a.4.4 0 1 0 .801 0 .4.4 0 0 0-.8 0m-4.869.063 4.196-8.398a1.201 1.201 0 0 1 2.148 0l4.2 8.398c.399.799-.182 1.738-1.075 1.738h-8.394c-.893 0-1.474-.94-1.075-1.738m5.87-2.465v-3.603a.6.6 0 1 0-1.2 0v3.603a.6.6 0 0 0 1.2 0m-1.2 2.402a.6.6 0 1 0 1.2 0 .6.6 0 0 0-1.2 0" clip-rule="evenodd"/></svg>