<svg xmlns="http://www.w3.org/2000/svg" width="24" height="24" fill="none"><path fill="#04071E" stroke="#04071E" stroke-width=".3" d="M10.127 21.073a1.75 1.75 0 0 1-.449-.88 9 9 0 0 1-2.096-.617C6.427 19.05 6 18.449 6 18V8.04a6 6 0 0 0 1.08.63c1.558.646 3.233.963 4.92.93a12.2 12.2 0 0 0 4.92-.932q.573-.256 1.08-.628v7.672a1.7 1.7 0 0 1 1.2 0V6c0-1.208-1.05-2.106-2.28-2.668A12.2 12.2 0 0 0 12 2.4a12.2 12.2 0 0 0-4.92.932C5.85 3.894 4.8 4.792 4.8 6v12c0 1.208 1.05 2.106 2.28 2.668 1.113.476 2.296.768 3.503.865zM7.582 4.424A11 11 0 0 1 12 3.6a11 11 0 0 1 4.418.824C17.573 4.95 18 5.551 18 6s-.427 1.05-1.582 1.576A11 11 0 0 1 12 8.4a11 11 0 0 1-4.418-.824C6.427 7.05 6 6.449 6 6s.427-1.05 1.582-1.576Zm6.643 18.2a.6.6 0 0 1-.85 0l-2.4-2.4a.6.6 0 0 1 0-.849l2.4-2.4a.601.601 0 0 1 .85.85L12.848 19.2h6.704l-1.377-1.375a.6.6 0 0 1 .85-.85l2.4 2.4a.6.6 0 0 1 0 .85l-2.4 2.4a.6.6 0 1 1-.85-.85l1.377-1.375h-6.704l1.377 1.375a.6.6 0 0 1 0 .85Z"/></svg>