<svg xmlns="http://www.w3.org/2000/svg" width="24" height="24" fill="none"><path fill="#04071E" d="M12 1.5c-4.277 0-7.5 1.612-7.5 3.75v13.5c0 2.137 3.223 3.75 7.5 3.75 4.276 0 7.5-1.613 7.5-3.75V5.25c0-2.138-3.224-3.75-7.5-3.75M12 3c3.662 0 6 1.332 6 2.25S15.662 7.5 12 7.5 6 6.168 6 5.25 8.337 3 12 3m0 18c-3.663 0-6-1.334-6-2.25v-4.444c1.345.889 3.492 1.444 6 1.444s4.654-.555 6-1.444v4.444c0 .916-2.338 2.25-6 2.25m0-6.75c-3.663 0-6-1.332-6-2.25V7.531A11.1 11.1 0 0 0 12 9a11.1 11.1 0 0 0 6-1.469V12c0 .918-2.337 2.25-6 2.25"/><path fill="#04071E" fill-rule="evenodd" d="M6.58 2.44C7.945 1.755 9.844 1.35 12 1.35s4.054.406 5.42 1.09c1.361.68 2.23 1.657 2.23 2.81v13.5c0 1.153-.868 2.13-2.23 2.81-1.366.684-3.265 1.09-5.42 1.09s-4.054-.406-5.42-1.09c-1.362-.68-2.23-1.657-2.23-2.81V5.25c0-1.153.868-2.13 2.23-2.81m.133.268c-1.32.66-2.063 1.558-2.063 2.542v13.5c0 .984.743 1.882 2.063 2.542C8.028 21.95 9.878 22.35 12 22.35s3.972-.4 5.287-1.058c1.32-.66 2.063-1.558 2.063-2.542V5.25c0-.984-.743-1.882-2.063-2.542C15.972 2.05 14.122 1.65 12 1.65s-3.972.4-5.287 1.058m-.19 1.914c-.264.243-.373.46-.373.628s.11.385.374.628c.26.24.651.484 1.162.703 1.02.439 2.5.769 4.314.769s3.293-.33 4.314-.769c.51-.22.902-.463 1.162-.703.264-.243.374-.46.374-.628s-.11-.385-.374-.628c-.26-.24-.651-.484-1.162-.703-1.021-.439-2.5-.769-4.314-.769s-3.294.33-4.314.769c-.511.219-.902.463-1.162.703m1.044-.98C8.631 3.187 10.151 2.85 12 2.85s3.368.336 4.432.793c.532.228.954.489 1.247.758.288.265.471.557.471.849s-.183.584-.471.85c-.293.268-.715.529-1.247.757-1.064.457-2.584.793-4.432.793s-3.368-.336-4.432-.793c-.532-.228-.954-.489-1.247-.758-.288-.265-.471-.557-.471-.849s.183-.584.47-.85c.293-.268.716-.529 1.247-.757M5.85 7.273l.225.13a10.96 10.96 0 0 0 5.919 1.448h.012c2.07.085 4.123-.416 5.92-1.449l.224-.129V12c0 .292-.183.584-.47.85-.293.268-.716.529-1.247.757-1.064.457-2.584.793-4.433.793s-3.37-.336-4.433-.793c-.531-.228-.954-.489-1.246-.758-.288-.265-.471-.557-.471-.849zm.3.515V12c0 .167.11.385.374.628.26.24.65.484 1.162.703 1.02.439 2.5.769 4.314.769s3.294-.33 4.314-.769c.511-.22.902-.463 1.162-.703.265-.243.374-.46.374-.628V7.787A11.26 11.26 0 0 1 12 9.15a11.26 11.26 0 0 1-5.85-1.363m-.3 6.24.233.153C7.395 15.048 9.51 15.6 12 15.6s4.605-.552 5.917-1.42l.233-.153v4.723c0 .291-.183.584-.471.849-.293.268-.715.53-1.247.758-1.063.457-2.584.793-4.432.793s-3.37-.336-4.433-.793c-.531-.229-.954-.49-1.246-.758-.288-.265-.471-.558-.471-.849zm.3.55v4.173c0 .167.11.385.374.628.26.239.65.483 1.162.703 1.02.439 2.5.769 4.314.769s3.293-.33 4.314-.77c.51-.219.902-.463 1.162-.702.265-.243.374-.461.374-.628v-4.173C16.466 15.4 14.388 15.9 12 15.9s-4.466-.499-5.85-1.323" clip-rule="evenodd"/></svg>