<svg xmlns="http://www.w3.org/2000/svg" width="24" height="24" fill="none"><path fill="#04071E" d="M4.8 6c0-1.208 1.05-2.106 2.28-2.668A12.2 12.2 0 0 1 12 2.4a12.2 12.2 0 0 1 4.92.932c1.23.562 2.28 1.46 2.28 2.668v4.8H18V8.04a6 6 0 0 1-1.08.63A12.2 12.2 0 0 1 12 9.6a12.2 12.2 0 0 1-4.92-.932A6 6 0 0 1 6 8.04V18c0 .449.427 1.05 1.582 1.576 1.4.574 2.904.855 4.418.824a11 11 0 0 0 1.783-.108c.19.07.399.108.619.108h.563l-.236.945c-.895.186-1.81.273-2.729.255a12.2 12.2 0 0 1-4.92-.933C5.85 20.107 4.8 19.209 4.8 18zM6 6c0 .449.427 1.05 1.582 1.576 1.4.574 2.904.855 4.418.824a11 11 0 0 0 4.418-.824C17.573 7.05 18 6.449 18 6s-.427-1.05-1.582-1.576A11 11 0 0 0 12 3.6a11 11 0 0 0-4.418.824C6.427 4.95 6 5.551 6 6m9.735 13.2a.6.6 0 0 1 .582.745l-.522 2.086c-.145.58.555.992.992.584l5.847-5.457c.597-.557.203-1.558-.614-1.558h-.485a.6.6 0 0 1-.569-.79l.674-2.02a.6.6 0 0 0-.57-.79h-4.167a.6.6 0 0 0-.554.37l-2.5 6a.6.6 0 0 0 .554.83z"/><path fill="#04071E" fill-rule="evenodd" d="M7.14 3.47C5.92 4.027 4.95 4.888 4.95 6v12c0 1.112.97 1.973 2.19 2.53 1.538.639 3.192.952 4.857.92h.006c.876.017 1.749-.062 2.603-.233l.167-.667h-.371q-.337-.002-.635-.104-.878.121-1.767.104a11.2 11.2 0 0 1-4.475-.836l-.006-.002c-.589-.268-1.003-.56-1.271-.851-.269-.291-.398-.588-.398-.861V7.744l.239.175c.327.24.68.445 1.05.61 1.539.64 3.193.953 4.858.921h.006c1.665.033 3.32-.28 4.857-.918a5.8 5.8 0 0 0 1.051-.613l.239-.176v2.907h.9V6c0-1.112-.97-1.973-2.19-2.53a12.1 12.1 0 0 0-4.857-.92h-.006a12.1 12.1 0 0 0-4.857.92M12 2.25a12.4 12.4 0 0 0-4.978.944l-.004.002C5.778 3.762 4.65 4.696 4.65 6v12c0 1.304 1.128 2.238 2.368 2.804l.004.002c1.577.655 3.271.976 4.978.944.93.018 1.855-.07 2.76-.258l.091-.02.306-1.222h-.755q-.305-.002-.568-.099l-.035-.013-.037.006a11 11 0 0 1-1.759.106h-.006a10.9 10.9 0 0 1-4.356-.812c-.563-.257-.94-.528-1.173-.78-.234-.254-.318-.482-.318-.658V8.327q.414.274.869.477l.003.002c1.577.655 3.271.976 4.978.944a12.4 12.4 0 0 0 4.977-.942l.005-.001q.454-.204.868-.48v2.623h1.5V6c0-1.304-1.128-2.238-2.368-2.804l-.004-.002A12.4 12.4 0 0 0 12 2.25m0 1.2a11.2 11.2 0 0 1 4.475.836l.006.002c.589.268 1.003.56 1.271.851.269.29.398.588.398.86 0 .274-.13.571-.398.862-.268.29-.682.583-1.271.851l-.006.002A11.2 11.2 0 0 1 12 8.55a11.2 11.2 0 0 1-4.475-.836l-.006-.002c-.589-.268-1.003-.56-1.271-.851C5.979 6.57 5.85 6.273 5.85 6s.13-.57.398-.86c.268-.292.682-.584 1.271-.852l.006-.003A11.2 11.2 0 0 1 12 3.45M7.641 4.562c-.563.257-.94.528-1.173.78-.234.254-.318.482-.318.658s.084.404.318.657.61.524 1.173.78a10.9 10.9 0 0 0 4.356.813h.006a10.9 10.9 0 0 0 4.356-.812c.563-.257.94-.528 1.173-.78.234-.254.318-.482.318-.658s-.084-.404-.318-.657-.61-.524-1.173-.781a10.9 10.9 0 0 0-4.356-.812h-.006a10.9 10.9 0 0 0-4.356.812m8.57 7.75a.75.75 0 0 1 .692-.462h4.168a.75.75 0 0 1 .711.987l-.674 2.02a.45.45 0 0 0 .427.593h.485c.953 0 1.413 1.167.716 1.818l-5.847 5.457c-.546.51-1.42-.006-1.24-.73l.522-2.086a.45.45 0 0 0-.436-.559h-1.332a.75.75 0 0 1-.692-1.038zm.692-.162a.45.45 0 0 0-.415.277l-2.5 6a.45.45 0 0 0 .415.623h1.332a.75.75 0 0 1 .727.932l-.521 2.085c-.109.435.416.744.743.439l5.847-5.458a.75.75 0 0 0-.511-1.298h-.485a.75.75 0 0 1-.711-.987l.673-2.02a.45.45 0 0 0-.427-.593z" clip-rule="evenodd"/></svg>