<svg xmlns="http://www.w3.org/2000/svg" width="24" height="24" fill="none"><path fill="#04071E" d="M13.8 4.8a1.8 1.8 0 0 0-3.6 0zM9 4.8a3 3 0 1 1 6 0h6A.6.6 0 1 1 21 6h-1.265l-.97 8.4h-1.207l.969-8.4H5.473L6.89 18.275A2.4 2.4 0 0 0 9.274 20.4h2.828a1.8 1.8 0 0 0 0 1.2H9.274a3.6 3.6 0 0 1-3.577-3.187L4.265 6H3a.6.6 0 1 1 0-1.2zm4.8 10.8a.6.6 0 0 0 0 1.2H21a.6.6 0 1 0 0-1.2zm0 2.4a.6.6 0 0 0 0 1.2H21a.6.6 0 1 0 0-1.2zm0 2.4a.6.6 0 0 0 0 1.2H21a.6.6 0 1 0 0-1.2z"/><path fill="#04071E" fill-rule="evenodd" d="M12 1.95A2.85 2.85 0 0 0 9.15 4.8v.15H3a.45.45 0 0 0 0 .9h1.399l1.447 12.545a3.45 3.45 0 0 0 3.428 3.055h2.628a1.96 1.96 0 0 1 0-.9H9.274a2.55 2.55 0 0 1-2.533-2.258L5.305 5.85h13.39l-.97 8.4h.907l.97-8.4H21a.45.45 0 0 0 0-.9h-6.15V4.8A2.85 2.85 0 0 0 12 1.95m-3.146 2.7a3.15 3.15 0 0 1 6.293 0H21a.75.75 0 0 1 0 1.5h-1.132l-.969 8.4h-1.51l.97-8.4H5.641l1.397 12.108a2.25 2.25 0 0 0 2.235 1.992h3.04l-.07.2a1.65 1.65 0 0 0 0 1.1l.07.2h-3.04a3.75 3.75 0 0 1-3.726-3.32L4.132 6.15H3a.75.75 0 1 1 0-1.5zm1.196.15a1.95 1.95 0 1 1 3.9 0v.15h-3.9zm.307-.15h3.286a1.65 1.65 0 0 0-3.286 0M13.05 16.2a.75.75 0 0 1 .75-.75H21a.75.75 0 0 1 0 1.5h-7.2a.75.75 0 0 1-.75-.75m.75-.45a.45.45 0 0 0 0 .9H21a.45.45 0 1 0 0-.9zm-.75 2.85a.75.75 0 0 1 .75-.75H21a.75.75 0 0 1 0 1.5h-7.2a.75.75 0 0 1-.75-.75m.75-.45a.45.45 0 0 0 0 .9H21a.45.45 0 1 0 0-.9zM13.05 21a.75.75 0 0 1 .75-.75H21a.75.75 0 0 1 0 1.5h-7.2a.75.75 0 0 1-.75-.75m.75-.45a.45.45 0 0 0 0 .9H21a.45.45 0 1 0 0-.9z" clip-rule="evenodd"/></svg>