<svg xmlns="http://www.w3.org/2000/svg" width="24" height="24" fill="none"><path fill="#04071E" d="M13.8 4.8a1.8 1.8 0 0 0-3.6 0zM9 4.8a3 3 0 0 1 6 0h6A.6.6 0 0 1 21 6h-1.265l-.581 5.036a6.6 6.6 0 0 0-1.184-.212L18.527 6H5.473L6.89 18.275A2.4 2.4 0 0 0 9.274 20.4h2.246q.33.646.789 1.2H9.274a3.6 3.6 0 0 1-3.577-3.187L4.265 6H3a.6.6 0 0 1 0-1.2zm8.4 18a5.4 5.4 0 1 0 0-10.8 5.4 5.4 0 0 0 0 10.8m-1.076-7.676L15.248 16.2H17.1a3.3 3.3 0 0 1 3.3 3.3v.3a.6.6 0 0 1-1.2 0v-.3a2.1 2.1 0 0 0-2.1-2.1h-1.852l1.076 1.076a.6.6 0 0 1-.848.848l-2.103-2.102a.597.597 0 0 1 .003-.846l2.1-2.1a.6.6 0 0 1 .848.848"/><path fill="#04071E" fill-rule="evenodd" d="M9.274 21.6a3.6 3.6 0 0 1-3.577-3.187L4.265 6H3a.6.6 0 0 1 0-1.2h6a3 3 0 0 1 6 0h6A.6.6 0 0 1 21 6h-1.265l-.581 5.036a7 7 0 0 0-1.184-.212L18.527 6H5.473L6.89 18.275A2.4 2.4 0 0 0 9.274 20.4h2.246a6.6 6.6 0 0 0 .789 1.2zM5.698 6.2l1.39 12.052A2.2 2.2 0 0 0 9.274 20.2h2.368l.056.109q.321.625.765 1.164l.27.327h-3.46A3.8 3.8 0 0 1 5.5 18.436L4.087 6.2H3a.8.8 0 0 1 0-1.6h5.806a3.2 3.2 0 0 1 6.388 0H21a.8.8 0 0 1 0 1.6h-1.087l-.587 5.09-.225-.062a6.4 6.4 0 0 0-1.148-.204l-.205-.018.554-4.806zm9.068 10.2 1.417-1.417a.4.4 0 0 0-.566-.566l-2.1 2.1a.4.4 0 0 0-.002.564l2.102 2.102a.4.4 0 0 0 .566-.566L14.766 17.2H17.1a2.3 2.3 0 0 1 2.3 2.3v.3a.4.4 0 1 0 .8 0v-.3a3.1 3.1 0 0 0-3.1-3.1zm-1.393.822a.597.597 0 0 1 .003-.846l2.1-2.1a.6.6 0 0 1 .848.848L15.248 16.2H17.1a3.3 3.3 0 0 1 3.3 3.3v.3a.6.6 0 0 1-1.2 0v-.3a2.1 2.1 0 0 0-2.1-2.1h-1.852l1.076 1.076a.6.6 0 0 1-.848.848zM13.588 4.6a1.6 1.6 0 0 0-3.176 0zm.201 0a1.8 1.8 0 0 0-3.589.2h3.6q0-.101-.011-.2M23 17.4a5.6 5.6 0 1 1-11.2 0 5.6 5.6 0 0 1 11.2 0m-.2 0a5.4 5.4 0 1 1-10.8 0 5.4 5.4 0 0 1 10.8 0" clip-rule="evenodd"/></svg>