<svg xmlns="http://www.w3.org/2000/svg" width="24" height="24" fill="none"><path fill="#04071E" d="M9 2.4a.6.6 0 0 1 .6.6v1.8h1.8V3a.6.6 0 1 1 1.2 0v1.8h1.8V3a.6.6 0 1 1 1.2 0v1.8h.6a3 3 0 0 1 3 3v.6H21a.6.6 0 1 1 0 1.2h-1.8v1.26a3 3 0 0 0-.6-.06H18v-3A1.8 1.8 0 0 0 16.2 6H7.8A1.8 1.8 0 0 0 6 7.8v8.4A1.8 1.8 0 0 0 7.8 18h3v1.2H9.6V21a.6.6 0 1 1-1.2 0v-1.8h-.6a3 3 0 0 1-3-3v-.6H3a.6.6 0 1 1 0-1.2h1.8v-1.8H3a.6.6 0 1 1 0-1.2h1.8V9.6H3a.6.6 0 0 1 0-1.2h1.8v-.6a3 3 0 0 1 3-3h.6V3a.6.6 0 0 1 .6-.6m4.25 10.85a3 3 0 0 1 1.701-2.178.47.47 0 0 0-.432-.272h-1.835l.5-1.753c.149-.523-.523-.878-.872-.461l-3.201 3.826a.48.48 0 0 0 .368.788h1.868l-.52 1.75a.49.49 0 0 0 .08.45 3 3 0 0 1 2.343-2.15m1.15 1.15v-.6a1.8 1.8 0 0 1 1.8-1.8h2.4a1.8 1.8 0 0 1 1.8 1.8v.6h.6a1.8 1.8 0 0 1 1.8 1.8V18h-2.4v-.6a.6.6 0 1 0-1.2 0v.6h-3.6v-.6a.6.6 0 1 0-1.2 0v.6H12v-1.8a1.8 1.8 0 0 1 1.8-1.8zm1.2-.6v.6h3.6v-.6a.6.6 0 0 0-.6-.6h-2.4a.6.6 0 0 0-.6.6m4.8 6v-.6h2.4V21a1.8 1.8 0 0 1-1.8 1.8h-7.2A1.8 1.8 0 0 1 12 21v-1.8h2.4v.6a.6.6 0 1 0 1.2 0v-.6h3.6v.6a.6.6 0 1 0 1.2 0"/><path fill="#04071E" fill-rule="evenodd" d="M9 2.55a.45.45 0 0 0-.45.45v1.95H7.8A2.85 2.85 0 0 0 4.95 7.8v.75H3a.45.45 0 1 0 0 .9h1.95v2.1H3a.45.45 0 0 0 0 .9h1.95v2.1H3a.45.45 0 0 0 0 .9h1.95v.75a2.85 2.85 0 0 0 2.85 2.85h.75V21a.45.45 0 0 0 .9 0v-1.95h1.2v-.9H7.8a1.95 1.95 0 0 1-1.95-1.95V7.8A1.95 1.95 0 0 1 7.8 5.85h8.4a1.95 1.95 0 0 1 1.95 1.95v2.85h.45q.23 0 .45.032V9.45H21a.45.45 0 0 0 0-.9h-1.95V7.8a2.85 2.85 0 0 0-2.85-2.85h-.75V3a.45.45 0 0 0-.9 0v1.95h-2.1V3a.45.45 0 0 0-.9 0v1.95h-2.1V3A.45.45 0 0 0 9 2.55M8.25 3a.75.75 0 0 1 1.5 0v1.65h1.5V3a.75.75 0 0 1 1.5 0v1.65h1.5V3a.75.75 0 0 1 1.5 0v1.65h.45a3.15 3.15 0 0 1 3.15 3.15v.45H21a.75.75 0 0 1 0 1.5h-1.65v1.293l-.18-.036a3 3 0 0 0-.57-.057h-.75V7.8a1.65 1.65 0 0 0-1.65-1.65H7.8A1.65 1.65 0 0 0 6.15 7.8v8.4c0 .911.739 1.65 1.65 1.65h3.15v1.5h-1.2V21a.75.75 0 0 1-1.5 0v-1.65H7.8a3.15 3.15 0 0 1-3.15-3.15v-.45H3a.75.75 0 0 1 0-1.5h1.65v-1.5H3a.75.75 0 0 1 0-1.5h1.65v-1.5H3a.75.75 0 0 1 0-1.5h1.65V7.8A3.15 3.15 0 0 1 7.8 4.65h.45zm3.947 5.49c.453-.542 1.324-.08 1.13.599l-.444 1.561h1.636c.264 0 .47.154.567.356l.067.138-.14.064a2.86 2.86 0 0 0-1.615 2.07l-.019.101-.101.019a2.85 2.85 0 0 0-2.226 2.042l-.078.285-.184-.232a.64.64 0 0 1-.106-.587l.462-1.556H9.479a.63.63 0 0 1-.483-1.034zm.842.516c.105-.367-.367-.617-.612-.324l-3.201 3.826a.33.33 0 0 0 .253.542h2.07l-.46 1.545a3.15 3.15 0 0 1 2.034-1.472c.2-.913.796-1.678 1.598-2.105a.32.32 0 0 0-.202-.068h-2.034zM16.2 12.15a1.65 1.65 0 0 0-1.65 1.65v.75h-.75a1.65 1.65 0 0 0-1.65 1.65v1.65h2.1v-.45a.75.75 0 0 1 1.5 0v.45h3.3v-.45a.75.75 0 0 1 1.5 0v.45h2.1V16.2A1.65 1.65 0 0 0 21 14.55h-.75v-.75a1.65 1.65 0 0 0-1.65-1.65zm-1.95 1.65a1.95 1.95 0 0 1 1.95-1.95h2.4a1.95 1.95 0 0 1 1.95 1.95v.45H21a1.95 1.95 0 0 1 1.95 1.95v1.95h-2.7v-.75a.45.45 0 0 0-.9 0v.75h-3.9v-.75a.45.45 0 0 0-.9 0v.75h-2.7V16.2a1.95 1.95 0 0 1 1.95-1.95h.45zm1.2 0a.75.75 0 0 1 .75-.75h2.4a.75.75 0 0 1 .75.75v.75h-3.9zm.75-.45a.45.45 0 0 0-.45.45v.45h3.3v-.45a.45.45 0 0 0-.45-.45zm-4.35 5.7h2.7v.75a.45.45 0 0 0 .9 0v-.75h3.9v.75a.45.45 0 0 0 .9 0v-.75h2.7V21A1.95 1.95 0 0 1 21 22.95h-7.2A1.95 1.95 0 0 1 11.85 21zm.3.3V21c0 .911.739 1.65 1.65 1.65H21A1.65 1.65 0 0 0 22.65 21v-1.65h-2.1v.45a.75.75 0 0 1-1.5 0v-.45h-3.3v.45a.75.75 0 0 1-1.5 0v-.45z" clip-rule="evenodd"/></svg>