<svg xmlns="http://www.w3.org/2000/svg" width="24" height="24" fill="none"><path fill="#04071E" d="m13.183 9.048-.5 1.752h1.835a.48.48 0 0 1 .37.787l-3.19 3.828c-.352.421-1.027.06-.871-.466l.52-1.749H9.479a.48.48 0 0 1-.369-.788l3.202-3.826c.349-.417 1.02-.062.87.461M9.6 3a.6.6 0 0 0-1.2 0v1.8h-.6a3 3 0 0 0-3 3v.6H3a.6.6 0 0 0 0 1.2h1.8v1.8H3a.6.6 0 1 0 0 1.2h1.8v1.8H3a.6.6 0 1 0 0 1.2h1.8v.6a3 3 0 0 0 3 3h.6V21a.6.6 0 1 0 1.2 0v-1.8h1.8V21a.6.6 0 1 0 1.2 0v-1.8h1.8V21a.6.6 0 1 0 1.2 0v-1.8h.6a3 3 0 0 0 3-3v-.6H21a.6.6 0 1 0 0-1.2h-1.8v-1.8H21a.6.6 0 1 0 0-1.2h-1.8V9.6H21a.6.6 0 1 0 0-1.2h-1.8v-.6a3 3 0 0 0-3-3h-.6V3a.6.6 0 1 0-1.2 0v1.8h-1.8V3a.6.6 0 1 0-1.2 0v1.8H9.6zm6.6 3A1.8 1.8 0 0 1 18 7.8v8.4a1.8 1.8 0 0 1-1.8 1.8H7.8A1.8 1.8 0 0 1 6 16.2V7.8A1.8 1.8 0 0 1 7.8 6z"/><path fill="#04071E" fill-rule="evenodd" d="M8.25 3a.75.75 0 0 1 1.5 0v1.65h1.5V3a.75.75 0 0 1 1.5 0v1.65h1.5V3a.75.75 0 0 1 1.5 0v1.65h.45a3.15 3.15 0 0 1 3.15 3.15v.45H21a.75.75 0 0 1 0 1.5h-1.65v1.5H21a.75.75 0 0 1 0 1.5h-1.65v1.5H21a.75.75 0 0 1 0 1.5h-1.65v.45a3.15 3.15 0 0 1-3.15 3.15h-.45V21a.75.75 0 0 1-1.5 0v-1.65h-1.5V21a.75.75 0 0 1-1.5 0v-1.65h-1.5V21a.75.75 0 0 1-1.5 0v-1.65H7.8a3.15 3.15 0 0 1-3.15-3.15v-.45H3a.75.75 0 0 1 0-1.5h1.65v-1.5H3a.75.75 0 0 1 0-1.5h1.65v-1.5H3a.75.75 0 0 1 0-1.5h1.65V7.8A3.15 3.15 0 0 1 7.8 4.65h.45zM9 2.55a.45.45 0 0 0-.45.45v1.95H7.8A2.85 2.85 0 0 0 4.95 7.8v.75H3a.45.45 0 1 0 0 .9h1.95v2.1H3a.45.45 0 0 0 0 .9h1.95v2.1H3a.45.45 0 0 0 0 .9h1.95v.75a2.85 2.85 0 0 0 2.85 2.85h.75V21a.45.45 0 0 0 .9 0v-1.95h2.1V21a.45.45 0 0 0 .9 0v-1.95h2.1V21a.45.45 0 0 0 .9 0v-1.95h.75a2.85 2.85 0 0 0 2.85-2.85v-.75H21a.45.45 0 0 0 0-.9h-1.95v-2.1H21a.45.45 0 0 0 0-.9h-1.95v-2.1H21a.45.45 0 0 0 0-.9h-1.95V7.8a2.85 2.85 0 0 0-2.85-2.85h-.75V3a.45.45 0 0 0-.9 0v1.95h-2.1V3a.45.45 0 0 0-.9 0v1.95h-2.1V3A.45.45 0 0 0 9 2.55m-1.2 3.6A1.65 1.65 0 0 0 6.15 7.8v8.4c0 .911.739 1.65 1.65 1.65h8.4a1.65 1.65 0 0 0 1.65-1.65V7.8a1.65 1.65 0 0 0-1.65-1.65zM5.85 7.8A1.95 1.95 0 0 1 7.8 5.85h8.4a1.95 1.95 0 0 1 1.95 1.95v8.4a1.95 1.95 0 0 1-1.95 1.95H7.8a1.95 1.95 0 0 1-1.95-1.95zm7.189 1.206c.104-.367-.367-.617-.612-.324l-3.202 3.826a.33.33 0 0 0 .254.542h2.069l-.577 1.942c-.11.369.365.623.61.327l3.191-3.828a.33.33 0 0 0-.254-.541h-2.033zm-.842-.516c.453-.542 1.324-.08 1.13.599l-.445 1.561h1.636a.63.63 0 0 1 .484 1.033l-3.19 3.828c-.455.547-1.331.077-1.129-.604l.463-1.557H9.479a.63.63 0 0 1-.484-1.034z" clip-rule="evenodd"/></svg>