<svg xmlns="http://www.w3.org/2000/svg" width="24" height="24" fill="none"><path fill="#04071E" d="M12 3a.75.75 0 0 1 .743.648l.007.102v16.5a.75.75 0 0 1-1.493.102l-.007-.102V3.75A.75.75 0 0 1 12 3M8.255 6a.75.75 0 0 1 .743.648l.007.102v10.5a.75.75 0 0 1-1.493.102l-.007-.102V6.75a.75.75 0 0 1 .75-.75m7.49 0a.75.75 0 0 1 .743.648l.007.102v10.5a.75.75 0 0 1-1.493.102l-.007-.102V6.75a.75.75 0 0 1 .75-.75M4.751 9a.75.75 0 0 1 .743.648l.007.102v4.5a.75.75 0 0 1-1.493.102l-.007-.102v-4.5a.75.75 0 0 1 .75-.75m14.501 0a.75.75 0 0 1 .744.648l.006.102v4.499a.75.75 0 0 1-1.493.101l-.007-.101V9.75a.75.75 0 0 1 .75-.75"/></svg>