<svg xmlns="http://www.w3.org/2000/svg" width="24" height="24" fill="none"><path fill="#04071E" d="M3.6 6.6a3 3 0 0 1 3-3H15a3 3 0 0 1 3 3V15a3 3 0 0 1-3 3H6.6a3 3 0 0 1-3-3zm3-1.8a1.8 1.8 0 0 0-1.8 1.8V15a1.8 1.8 0 0 0 1.8 1.8H15a1.8 1.8 0 0 0 1.8-1.8V6.6A1.8 1.8 0 0 0 15 4.8zM9 20.4a3 3 0 0 1-2.4-1.2H15a4.2 4.2 0 0 0 4.2-4.2V6.6A3 3 0 0 1 20.4 9v6a5.4 5.4 0 0 1-5.4 5.4zM8.224 7.376a.6.6 0 1 0-.848.848L9.952 10.8l-2.576 2.576a.6.6 0 0 0 .848.848L10.8 11.65l2.576 2.575a.6.6 0 0 0 .849-.848L11.649 10.8l2.576-2.576a.6.6 0 0 0-.85-.848L10.8 9.95z"/><path fill="#04071E" fill-rule="evenodd" d="M6.6 3.75A2.85 2.85 0 0 0 3.75 6.6V15a2.85 2.85 0 0 0 2.85 2.85H15A2.85 2.85 0 0 0 17.85 15V6.6A2.85 2.85 0 0 0 15 3.75zM3.45 6.6A3.15 3.15 0 0 1 6.6 3.45H15a3.15 3.15 0 0 1 3.15 3.15V15A3.15 3.15 0 0 1 15 18.15H6.6A3.15 3.15 0 0 1 3.45 15zm1.2 0A1.95 1.95 0 0 1 6.6 4.65H15a1.95 1.95 0 0 1 1.95 1.95V15A1.95 1.95 0 0 1 15 16.95H6.6A1.95 1.95 0 0 1 4.65 15zM6.6 4.95A1.65 1.65 0 0 0 4.95 6.6V15c0 .911.739 1.65 1.65 1.65H15A1.65 1.65 0 0 0 16.65 15V6.6A1.65 1.65 0 0 0 15 4.95zM19.05 6.3l.24.18A3.15 3.15 0 0 1 20.55 9v6A5.55 5.55 0 0 1 15 20.55H9a3.15 3.15 0 0 1-2.52-1.26l-.18-.24H15A4.05 4.05 0 0 0 19.05 15zm.3.622V15A4.35 4.35 0 0 1 15 19.35H6.922c.52.554 1.259.9 2.078.9h6c2.9 0 5.25-2.35 5.25-5.25V9c0-.82-.345-1.558-.9-2.078M7.27 7.27a.75.75 0 0 1 1.06 0l2.47 2.47 2.47-2.47a.75.75 0 1 1 1.06 1.06l-2.47 2.47 2.47 2.47a.75.75 0 1 1-1.06 1.06l-2.47-2.47-2.47 2.47a.75.75 0 0 1-1.06-1.06l2.47-2.47-2.47-2.47a.75.75 0 0 1 0-1.06m.848.212a.45.45 0 0 0-.636.636l2.682 2.682-2.682 2.682a.45.45 0 1 0 .636.636l2.682-2.682 2.682 2.682a.45.45 0 0 0 .636-.636L11.437 10.8l2.681-2.682a.45.45 0 0 0-.636-.636L10.8 10.164z" clip-rule="evenodd"/></svg>