<svg xmlns="http://www.w3.org/2000/svg" width="24" height="24" fill="none"><path fill="#04071E" d="M7.2 2.4a2.4 2.4 0 0 0-2.4 2.4v6.05a3.6 3.6 0 0 1 1.2 0V4.8a1.2 1.2 0 0 1 1.2-1.2H12v4.2a1.8 1.8 0 0 0 1.8 1.8H18v9.6a1.2 1.2 0 0 1-1.2 1.2h-6.046a3.8 3.8 0 0 1-.396 1.2H16.8a2.4 2.4 0 0 0 2.4-2.4V8.897a1.8 1.8 0 0 0-.527-1.273l-4.697-4.697a1.8 1.8 0 0 0-1.273-.527zm10.552 6H13.8a.6.6 0 0 1-.6-.6V3.849zm-9.952 6a2.4 2.4 0 1 1-4.8 0 2.4 2.4 0 0 1 4.8 0m1.8 5.4c0 1.494-1.2 3-4.2 3s-4.2-1.5-4.2-3A1.8 1.8 0 0 1 3 18h4.8a1.8 1.8 0 0 1 1.8 1.8"/><path fill="#04071E" fill-rule="evenodd" d="M4.6 11.086V4.8a2.6 2.6 0 0 1 2.6-2.6h5.503a2 2 0 0 1 1.414.586l4.697 4.697a2 2 0 0 1 .586 1.414V19.2a2.6 2.6 0 0 1-2.6 2.6h-6.774l.155-.293c.191-.363.315-.747.375-1.138l.027-.169H16.8a1 1 0 0 0 1-1V9.8h-4a2 2 0 0 1-2-2v-4H7.2a1 1 0 0 0-1 1v6.286l-.233-.039a3.4 3.4 0 0 0-1.134 0zm6.154 9.314H16.8a1.2 1.2 0 0 0 1.2-1.2V9.6h-4.2A1.8 1.8 0 0 1 12 7.8V3.6H7.2A1.2 1.2 0 0 0 6 4.8v6.05a3.6 3.6 0 0 0-1-.028 4 4 0 0 0-.2.028V4.8a2.4 2.4 0 0 1 2.4-2.4h5.503a1.8 1.8 0 0 1 1.273.527l4.697 4.697a1.8 1.8 0 0 1 .527 1.273V19.2a2.4 2.4 0 0 1-2.4 2.4h-6.442a3.8 3.8 0 0 0 .396-1.2m6.998-12L13.2 3.849V7.8a.6.6 0 0 0 .6.6zm-.483-.2L13.4 4.331V7.8c0 .22.18.4.4.4zM8 14.4a2.6 2.6 0 1 1-5.2 0 2.6 2.6 0 0 1 5.2 0m.753 7.614c-.72.601-1.821.986-3.353.986s-2.632-.383-3.353-.984A2.84 2.84 0 0 1 1 19.8a2 2 0 0 1 2-2h4.8a2 2 0 0 1 2 2 2.84 2.84 0 0 1-1.047 2.214M5.4 16.8a2.4 2.4 0 1 0 0-4.8 2.4 2.4 0 0 0 0 4.8m0 6c3 0 4.2-1.506 4.2-3A1.8 1.8 0 0 0 7.8 18H3a1.8 1.8 0 0 0-1.8 1.8c0 1.5 1.2 3 4.2 3" clip-rule="evenodd"/></svg>