<svg xmlns="http://www.w3.org/2000/svg" width="25" height="24" fill="none"><path fill="#04071E" d="M14.384 7.488A.75.75 0 0 0 14.25 6h-4.5l-.135.012A.75.75 0 0 0 9.75 7.5h4.5zm0 5.25a.75.75 0 0 0 .612-.667v-.142l-.008-.061a2.25 2.25 0 0 1-.916-.618H9.75l-.135.012a.75.75 0 0 0 .135 1.488h4.5zM18 4.5v3h1.5v-3a3 3 0 0 0-3-3h-9a3 3 0 0 0-3 3v15a3 3 0 0 0 3 3h4.9a3 3 0 0 1-.405-1.5H7.5A1.5 1.5 0 0 1 6 19.5v-15A1.5 1.5 0 0 1 7.5 3h9A1.5 1.5 0 0 1 18 4.5M9.75 16.488h4.207l-.777 1.5H9.75a.75.75 0 0 1-.135-1.488zm11.243-2.381a3 3 0 0 0 .336 1.38l.525 1.013H15.64l.52-1.006a3 3 0 0 0 .337-1.38V10.5h-.747a.75.75 0 0 1 0-1.5h6a.75.75 0 0 1 0 1.5h-.757zM14.863 18l-1.196 2.31a1.5 1.5 0 0 0 1.332 2.19h7.496a1.5 1.5 0 0 0 1.332-2.19L22.63 18z"/><path fill="#04071E" fill-rule="evenodd" d="M4.35 4.5A3.15 3.15 0 0 1 7.5 1.35h9a3.15 3.15 0 0 1 3.15 3.15v3a.15.15 0 0 1-.15.15H18a.15.15 0 0 1-.15-.15v-3a1.35 1.35 0 0 0-1.35-1.35h-9A1.35 1.35 0 0 0 6.15 4.5v15c0 .746.604 1.35 1.35 1.35h4.495a.15.15 0 0 1 .15.15c0 .506.138.997.385 1.425a.15.15 0 0 1-.13.225H7.5a3.15 3.15 0 0 1-3.15-3.15zM7.5 1.65A2.85 2.85 0 0 0 4.65 4.5v15a2.85 2.85 0 0 0 2.85 2.85h4.652a3.2 3.2 0 0 1-.304-1.2H7.5a1.65 1.65 0 0 1-1.65-1.65v-15c0-.911.738-1.65 1.65-1.65h9c.91 0 1.65.739 1.65 1.65v2.85h1.2V4.5a2.85 2.85 0 0 0-2.85-2.85zm2.25 4.2h4.5a.9.9 0 0 1 .161 1.785l-.013.003-.148.013-4.5-.001a.9.9 0 0 1-.162-1.786l.013-.002zm.006.3-.12.01a.6.6 0 0 0 .114 1.19h4.493l.12-.01a.6.6 0 0 0-.113-1.19zm5.994 3a.6.6 0 1 0 0 1.2h.747a.15.15 0 0 1 .15.15v3.615c0 .504-.121 1-.353 1.448l-.408.787h5.721l-.411-.795a3.15 3.15 0 0 1-.353-1.448V10.5a.15.15 0 0 1 .15-.15h.757a.6.6 0 0 0 0-1.2zm-.9.6a.9.9 0 0 1 .9-.9h6a.9.9 0 1 1 0 1.8h-.607v3.457c0 .456.11.905.32 1.31l.524 1.014a.15.15 0 0 1-.133.219H15.64a.15.15 0 0 1-.133-.219l.52-1.006c.21-.405.32-.854.32-1.31V10.65h-.597a.9.9 0 0 1-.9-.9m-5.1 1.35h4.322a.15.15 0 0 1 .112.05c.23.257.524.458.855.577a.15.15 0 0 1 .097.115l.01.073v.17a.9.9 0 0 1-.735.8l-.013.003-.148.013-4.5-.001a.9.9 0 0 1-.162-1.786l.013-.002zm.006.3-.12.01a.6.6 0 0 0 .114 1.19h4.493l.12-.01a.6.6 0 0 0 .483-.526v-.09a2.4 2.4 0 0 1-.84-.574zm-.006 4.938h4.207a.15.15 0 0 1 .133.219l-.777 1.5a.15.15 0 0 1-.133.08H9.75a.9.9 0 0 1-.162-1.785l.013-.002zm.006.3-.12.01a.6.6 0 0 0 .114 1.19h3.339l.621-1.2zm4.974 1.293a.15.15 0 0 1 .133-.081h7.768a.15.15 0 0 1 .133.081l1.196 2.31a1.65 1.65 0 0 1-1.465 2.409h-7.496a1.65 1.65 0 0 1-1.466-2.409zm.224.219L13.8 20.38a1.35 1.35 0 0 0 1.199 1.97h7.496a1.35 1.35 0 0 0 1.199-1.97l-1.155-2.23z" clip-rule="evenodd"/></svg>