<svg xmlns="http://www.w3.org/2000/svg" width="24" height="24" fill="none"><path fill="#04071E" d="M4.8 4.8a2.4 2.4 0 0 1 2.4-2.4h5.503a1.8 1.8 0 0 1 1.272.527l4.697 4.697a1.8 1.8 0 0 1 .528 1.273v6.087a1.8 1.8 0 0 0-1.2-1.682V9.6h-4.2A1.8 1.8 0 0 1 12 7.8V3.6H7.2A1.2 1.2 0 0 0 6 4.8v8.502a1.8 1.8 0 0 0-.898.699l-.302.453zm9 3.6h3.951L13.2 3.849V7.8a.6.6 0 0 0 .6.6M4.2 21.6a.6.6 0 0 0 .6-.6v-2.218l2.299-3.45a.6.6 0 1 0-.999-.665l-1.9 2.851-1.901-2.851a.6.6 0 0 0-.999.665l2.3 3.45V21a.6.6 0 0 0 .6.6m5.336-6.869A.6.6 0 0 0 8.4 15v6a.6.6 0 1 0 1.2 0v-3.458l1.863 3.727a.6.6 0 0 0 1.073 0L14.4 17.54V21a.6.6 0 0 0 1.2 0v-6a.6.6 0 0 0-1.137-.269L12 19.658zM18 15a.6.6 0 0 0-1.2 0v6a.6.6 0 0 0 .6.6H21a.6.6 0 1 0 0-1.2h-3z"/><path fill="#04071E" fill-rule="evenodd" d="M7.2 2.5a2.3 2.3 0 0 0-2.3 2.3v9.324l.119-.179c.222-.334.533-.575.88-.712V4.8a1.3 1.3 0 0 1 1.3-1.3H12a.1.1 0 0 1 .1.1v4.2a1.7 1.7 0 0 0 1.7 1.7H18a.1.1 0 0 1 .1.1v3.633c.436.172.792.501 1 .917V8.897a1.7 1.7 0 0 0-.497-1.202l-4.697-4.697a1.7 1.7 0 0 0-1.202-.498zM4.7 4.8a2.5 2.5 0 0 1 2.5-2.5h5.503c.504 0 .987.2 1.343.556l4.697 4.698a1.9 1.9 0 0 1 .557 1.343v6.087a.1.1 0 0 1-.2 0 1.7 1.7 0 0 0-1.134-1.588.1.1 0 0 1-.066-.094V9.7h-4.1a1.9 1.9 0 0 1-1.9-1.9V3.7H7.2a1.1 1.1 0 0 0-1.1 1.1v8.502a.1.1 0 0 1-.067.094 1.7 1.7 0 0 0-.848.66l-.302.454a.1.1 0 0 1-.183-.056zm8.461-1.044a.1.1 0 0 1 .11.022l4.55 4.551a.1.1 0 0 1-.07.171H13.8a.7.7 0 0 1-.7-.7V3.849a.1.1 0 0 1 .061-.093m.139.334V7.8a.5.5 0 0 0 .5.5h3.71zM1.41 14.417a.7.7 0 0 1 .971.194L4.2 17.338l1.817-2.727a.7.7 0 0 1 1.165.777L4.9 18.812V21a.7.7 0 1 1-1.4 0v-2.188l-2.283-3.424a.7.7 0 0 1 .194-.971m.805.305a.5.5 0 0 0-.832.555l2.299 3.45a.1.1 0 0 1 .017.055V21a.5.5 0 0 0 1 0v-2.218a.1.1 0 0 1 .016-.056l2.3-3.45a.5.5 0 0 0-.832-.554l-1.901 2.852a.1.1 0 0 1-.167 0zm6.623-.404a.7.7 0 0 1 .787.369L12 19.434l2.374-4.748A.7.7 0 0 1 15.7 15v6a.7.7 0 1 1-1.4 0v-3.034l-1.674 3.348a.7.7 0 0 1-1.252 0L9.7 17.965V21a.7.7 0 1 1-1.4 0v-6a.7.7 0 0 1 .539-.682m.608.458a.5.5 0 0 0-.947.223v6a.5.5 0 1 0 1 0v-3.458a.1.1 0 0 1 .19-.044l1.863 3.726a.5.5 0 0 0 .894 0l1.863-3.726a.1.1 0 0 1 .19.044V21a.5.5 0 1 0 1 0v-6a.5.5 0 0 0-.947-.224l-2.464 4.927a.1.1 0 0 1-.179 0zm7.253.223a.7.7 0 1 1 1.4 0v5.3H21a.7.7 0 1 1 0 1.4h-3.6a.7.7 0 0 1-.7-.7zm.7-.5a.5.5 0 0 0-.5.5v6a.5.5 0 0 0 .5.5H21a.5.5 0 1 0 0-1h-3a.1.1 0 0 1-.1-.1V15a.5.5 0 0 0-.5-.5" clip-rule="evenodd"/></svg>