<svg xmlns="http://www.w3.org/2000/svg" width="24" height="24" fill="none"><path fill="#04071E" d="M4.8 4.8a2.4 2.4 0 0 1 2.4-2.4h4.303a1.8 1.8 0 0 1 1.272.527l4.698 4.697A1.8 1.8 0 0 1 18 8.897V16.8a2.4 2.4 0 0 1-2.4 2.4H12.95q.166-.581.222-1.2H15.6a1.2 1.2 0 0 0 1.2-1.2V9.6h-4.2a1.8 1.8 0 0 1-1.8-1.8V3.6H7.2A1.2 1.2 0 0 0 6 4.8v6.027a6.6 6.6 0 0 0-1.2.221zm7.2-.951V7.8a.6.6 0 0 0 .6.6h3.951zm.48 16.551q-.33.647-.789 1.2h3.981a4.727 4.727 0 0 0 4.728-4.727V10.8a1.2 1.2 0 0 0-1.2-1.2v7.2a3.6 3.6 0 0 1-3.6 3.6zm-11.28-3a5.4 5.4 0 1 0 10.8 0 5.4 5.4 0 0 0-10.8 0M9 13.8a.6.6 0 0 1 .6.6v1.8a.6.6 0 0 1-.6.6H7.2a.6.6 0 1 1 0-1.2h.562a2.4 2.4 0 0 0-1.12-.3 2.4 2.4 0 0 0-1.74.703.6.6 0 1 1-.848-.849 3.6 3.6 0 0 1 4.346-.572V14.4a.6.6 0 0 1 .6-.6m-1.052 6.638a3.6 3.6 0 0 1-3.148-.22v.182a.6.6 0 1 1-1.2 0v-1.8a.6.6 0 0 1 .6-.6H6a.6.6 0 1 1 0 1.2h-.562a2.4 2.4 0 0 0 1.12.3 2.4 2.4 0 0 0 1.739-.703.6.6 0 1 1 .848.849 3.6 3.6 0 0 1-1.197.792"/><path fill="#04071E" fill-rule="evenodd" d="M7.2 2.55A2.25 2.25 0 0 0 4.95 4.8v6.053q.44-.11.9-.162V4.8c0-.746.604-1.35 1.35-1.35h3.75V7.8c0 .911.739 1.65 1.65 1.65h4.35v7.35a1.35 1.35 0 0 1-1.35 1.35h-2.291a7 7 0 0 1-.162.9H15.6a2.25 2.25 0 0 0 2.25-2.25V8.897a1.65 1.65 0 0 0-.484-1.167L12.67 3.033a1.65 1.65 0 0 0-1.167-.483zM4.65 4.8A2.55 2.55 0 0 1 7.2 2.25h4.303a1.95 1.95 0 0 1 1.379.571l4.697 4.697c.365.366.57.862.57 1.38V16.8a2.55 2.55 0 0 1-2.55 2.55h-2.846l.054-.19q.161-.568.216-1.174l.013-.136H15.6c.58 0 1.05-.47 1.05-1.05V9.75H12.6a1.95 1.95 0 0 1-1.95-1.95V3.75H7.2c-.58 0-1.05.47-1.05 1.05v6.164l-.137.012q-.605.056-1.172.217l-.191.054zm7.2-1.314 5.063 5.064H12.6a.75.75 0 0 1-.75-.75zm.3.725V7.8c0 .249.201.45.45.45h3.59zm6.9 5.239h.15c.745 0 1.35.604 1.35 1.35v6.073a4.877 4.877 0 0 1-4.878 4.877h-4.3l.204-.245c.297-.36.556-.754.77-1.173l.042-.082H15.6a3.45 3.45 0 0 0 3.45-3.45zm.3.31v7.04a3.75 3.75 0 0 1-3.75 3.75H12.57a7 7 0 0 1-.57.9h3.672a4.577 4.577 0 0 0 4.577-4.577V10.8a1.05 1.05 0 0 0-.9-1.04M1.05 17.4a5.55 5.55 0 1 1 11.1 0 5.55 5.55 0 0 1-11.1 0m5.55-5.25a5.25 5.25 0 1 0 0 10.5 5.25 5.25 0 0 0 0-10.5m2.4 1.8a.45.45 0 0 0-.45.45v.442l-.225-.13a3.45 3.45 0 0 0-4.165.549.45.45 0 1 0 .637.636 2.55 2.55 0 0 1 3.037-.428l.509.281H7.2a.45.45 0 0 0 0 .9H9a.45.45 0 0 0 .45-.45v-1.8a.45.45 0 0 0-.45-.45m-.747.384a.75.75 0 0 1 1.497.066v1.8a.75.75 0 0 1-.75.75H7.2a.75.75 0 0 1-.22-1.467 2.26 2.26 0 0 0-1.971.626.75.75 0 1 1-1.06-1.06 3.75 3.75 0 0 1 4.304-.715M4.2 18.15a.45.45 0 0 0-.45.45v1.8a.45.45 0 0 0 .9 0v-.442l.225.13a3.45 3.45 0 0 0 4.164-.549.45.45 0 1 0-.636-.636 2.55 2.55 0 0 1-3.038.428l.073-.281H6a.45.45 0 0 0 0-.9zm-.75.45a.75.75 0 0 1 .75-.75H6a.75.75 0 0 1 .219 1.467 2.26 2.26 0 0 0 1.972-.626.75.75 0 0 1 1.06 1.06 3.75 3.75 0 0 1-4.304.715.75.75 0 0 1-1.497-.066z" clip-rule="evenodd"/></svg>