<svg xmlns="http://www.w3.org/2000/svg" width="24" height="24" fill="none"><g fill="#04071E" clip-path="url(#a)"><path d="m14.47 2.16 4.371 4.37h.002c.421.422.658.994.658 1.59V19.5a3 3 0 0 1-3 3h-5.614q.098-.076.199-.15c.146-.107.293-.215.422-.344.304-.304.56-.65.8-1.006h4.193a1.5 1.5 0 0 0 1.5-1.5V9h-3.75a2.25 2.25 0 0 1-2.25-2.25V3h-4.5a1.5 1.5 0 0 0-1.5 1.5v4.638a2.22 2.22 0 0 0-1.474 1.765l-.016.007-.011.005V4.501a3 3 0 0 1 3-3h5.379c.597 0 1.17.237 1.591.659m-.97 4.59c0 .414.336.75.75.75h3.44L13.5 3.31zm-6.75 12a1.5 1.5 0 0 0 1.471-1.793 1.5 1.5 0 0 0-1.179-1.179 1.505 1.505 0 0 0-1.54.638 1.505 1.505 0 0 0 .188 1.895c.28.282.662.439 1.06.439m6-2.25h-.827A5.23 5.23 0 0 0 7.5 12.076v-.826a.749.749 0 1 0-1.5 0v.826A5.23 5.23 0 0 0 1.576 16.5H.75a.749.749 0 1 0 0 1.5h.826A5.23 5.23 0 0 0 6 22.424v.826a.749.749 0 1 0 1.5 0v-.826A5.23 5.23 0 0 0 11.923 18h.827a.749.749 0 1 0 0-1.5m-3.348 3.402a3.752 3.752 0 0 1-6.117-4.086 3.752 3.752 0 0 1 6.363-.945 3.75 3.75 0 0 1-.246 5.031"/><path fill-rule="evenodd" d="M7.5 1.651a2.85 2.85 0 0 0-2.85 2.85v5.587q.162-.291.404-.534c.23-.231.504-.403.797-.52V4.5c0-.91.74-1.65 1.65-1.65h4.65v3.9c0 1.16.941 2.1 2.1 2.1h3.9V19.5c0 .91-.739 1.65-1.65 1.65h-4.113c-.23.336-.48.667-.774.963a3 3 0 0 1-.277.237h5.164a2.85 2.85 0 0 0 2.85-2.85V8.12c0-.526-.198-1.031-.552-1.419l-4.435-4.435a2.1 2.1 0 0 0-1.485-.615zM18.84 6.32l-4.265-4.265a2.4 2.4 0 0 0-1.697-.703h-5.38a3.15 3.15 0 0 0-3.15 3.15v6.623l.198-.066.03-.013.083-.024.015-.095A2.074 2.074 0 0 1 6.05 9.28l.1-.035V4.5c0-.745.605-1.35 1.35-1.35h4.35v3.6a2.4 2.4 0 0 0 2.4 2.4h3.6V19.5a1.35 1.35 0 0 1-1.35 1.35H12.23l-.045.066c-.238.352-.488.69-.782.984-.12.12-.257.22-.405.33l-.203.152-.342.268h6.05a3.15 3.15 0 0 0 3.15-3.15V8.12c0-.636-.254-1.245-.703-1.696l-.106-.107zm-5.491-3.37 4.701 4.7H14.25a.9.9 0 0 1-.9-.9zm.3.724V6.75a.6.6 0 0 0 .6.6h3.077zm-7.537 6.94a.906.906 0 0 1 1.274 0c.169.169.263.398.263.637v.698a5.38 5.38 0 0 1 4.401 4.402h.699a.901.901 0 0 1 0 1.8h-.699a5.38 5.38 0 0 1-4.401 4.402v.698a.901.901 0 0 1-1.8 0v-.698a5.38 5.38 0 0 1-4.402-4.402H.75a.9.9 0 0 1 0-1.8h.698a5.38 5.38 0 0 1 4.402-4.402v-.698c0-.24.096-.468.263-.637m.212.212a.6.6 0 0 0-.175.425v.956l-.129.019a5.08 5.08 0 0 0-4.296 4.297l-.02.128H.75a.6.6 0 1 0 0 1.2h.956l.019.128a5.08 5.08 0 0 0 4.296 4.297l.129.019v.956a.599.599 0 1 0 1.2 0v-.956l.128-.019a5.08 5.08 0 0 0 4.297-4.297l.018-.128h.957a.599.599 0 0 0 .425-1.025.6.6 0 0 0-.425-.175h-.957l-.018-.128a5.08 5.08 0 0 0-4.297-4.297l-.128-.019v-.956a.599.599 0 0 0-1.025-.425m1.126 2.894a3.602 3.602 0 0 0-4.146 4.576 3.6 3.6 0 0 0 3.797 2.538 3.6 3.6 0 0 0 3.248-3.583 3.6 3.6 0 0 0-2.9-3.53m-2.54.093a3.896 3.896 0 0 1 4.853.964 3.9 3.9 0 0 1-.256 5.232 3.902 3.902 0 0 1-6.362-4.25 3.9 3.9 0 0 1 1.764-1.946m1.207 1.913a1.655 1.655 0 0 1 1.798.358 1.65 1.65 0 0 1 .358 1.799 1.652 1.652 0 1 1-2.898-1.549h.001c.181-.27.438-.484.74-.608m.895.2a1.355 1.355 0 0 0-1.387.574 1.355 1.355 0 0 0 1.123 2.1 1.35 1.35 0 0 0 1.248-.832 1.34 1.34 0 0 0-.293-1.471c-.19-.19-.43-.32-.69-.37" clip-rule="evenodd"/></g><defs><clipPath id="a"><path fill="#fff" d="M0 0h24v24H0z"/></clipPath></defs></svg>