<svg xmlns="http://www.w3.org/2000/svg" width="24" height="24" fill="none"><path fill="#04071E" d="M20.341 6.531 15.97 2.159a2.25 2.25 0 0 0-1.59-.659h-5.38a3 3 0 0 0-3 3v8.743c.63.194 1.166.615 1.5 1.182V4.5A1.5 1.5 0 0 1 9 3h4.5v3.75A2.25 2.25 0 0 0 15.75 9h3.75v10.5A1.5 1.5 0 0 1 18 21h-1.241a2.6 2.6 0 0 1-1.215 1.5H18a3 3 0 0 0 3-3V8.121a2.25 2.25 0 0 0-.659-1.59M15.75 7.5a.75.75 0 0 1-.75-.75V3.31l4.19 4.19zm-1.5 12h-.75V18h.75a.75.75 0 1 0 0-1.5h-.75v-.75a.75.75 0 1 0-1.5 0v.75h-1.5v-.75a.75.75 0 1 0-1.5 0v.75h-.75a.75.75 0 1 0 0 1.5h.763l.01 1.5H8.25a.75.75 0 1 0 0 1.5h.781v.75a.75.75 0 0 0 1.5 0V21H12v.75a.75.75 0 1 0 1.5 0V21h.75a.75.75 0 1 0 0-1.5m-2.25 0h-1.478l-.009-1.5H12zm-6.22-3.22A.75.75 0 0 0 5.25 15h-3a.75.75 0 0 0-.75.75v6a.75.75 0 0 0 1.5 0V19.5h1.5a.75.75 0 1 0 0-1.5H3v-1.5h2.25a.75.75 0 0 0 .53-.22"/><path fill="#04071E" fill-rule="evenodd" d="M6.808 2.308A3.1 3.1 0 0 1 9 1.4h5.379c.623 0 1.22.248 1.66.688l4.373 4.372c.44.44.688 1.038.688 1.661V19.5a3.1 3.1 0 0 1-3.1 3.1h-2.84l.334-.187c.56-.313.978-.83 1.168-1.443l.022-.07H18a1.4 1.4 0 0 0 1.4-1.4V9.1h-3.65a2.35 2.35 0 0 1-2.35-2.35V3.1H9a1.4 1.4 0 0 0-1.4 1.4v10.291l-.186-.315A2.54 2.54 0 0 0 5.97 13.34l-.071-.021V4.5a3.1 3.1 0 0 1 .908-2.192M9 1.6a2.9 2.9 0 0 0-2.9 2.9v8.67c.518.175.97.5 1.3.93V4.5A1.6 1.6 0 0 1 9 2.9h4.6v3.85a2.15 2.15 0 0 0 2.15 2.15h3.85v10.6a1.6 1.6 0 0 1-1.6 1.6h-1.17a2.7 2.7 0 0 1-.948 1.3H18a2.9 2.9 0 0 0 2.9-2.9V8.121a2.15 2.15 0 0 0-.63-1.52m0 0L15.899 2.23a2.15 2.15 0 0 0-1.52-.629H9m5.9 1.47 4.53 4.53h-3.68a.85.85 0 0 1-.85-.85zm.2.482L18.948 7.4H15.75a.65.65 0 0 1-.65-.65zM1.649 15.149a.85.85 0 0 1 .6-.249h3a.85.85 0 0 1 0 1.7H3.1v1.3h1.4a.85.85 0 0 1 0 1.7H3.1v2.15a.85.85 0 1 1-1.7 0v-6a.85.85 0 0 1 .25-.601m.6-.049a.65.65 0 0 0-.65.65v6a.65.65 0 1 0 1.3 0V19.4h1.6a.65.65 0 0 0 0-1.3H2.9v-1.7h2.35a.65.65 0 0 0 0-1.3zm6.9.049a.85.85 0 0 1 1.45.601v.65h1.3v-.65a.85.85 0 0 1 1.7 0v.65h.65a.85.85 0 0 1 0 1.7h-.65v1.3h.65a.85.85 0 0 1 0 1.7h-.65v.65a.85.85 0 1 1-1.7 0v-.65h-1.268v.65a.85.85 0 0 1-1.7 0v-.65H8.25a.85.85 0 1 1 0-1.7h.672l-.008-1.3H8.25a.85.85 0 1 1 0-1.7h.65v-.65a.85.85 0 0 1 .249-.601m.6-.049a.65.65 0 0 0-.65.65v.85h-.85a.65.65 0 0 0 0 1.3h.864l.01 1.7H8.25a.65.65 0 0 0 0 1.3h.881v.85a.65.65 0 1 0 1.3 0v-.85H12.1v.85a.65.65 0 0 0 1.3 0v-.85h.85a.65.65 0 0 0 0-1.3h-.85v-1.7h.85a.65.65 0 0 0 0-1.3h-.85v-.85a.65.65 0 0 0-1.3 0v.85h-1.7v-.85a.65.65 0 0 0-.65-.65m.664 2.8H12.1v1.7h-1.677zm.201.2.008 1.3H11.9v-1.3z" clip-rule="evenodd"/></svg>