<svg xmlns="http://www.w3.org/2000/svg" width="24" height="24" fill="none"><path fill="#04071E" d="M18.5 20a.5.5 0 0 1-.5.5H6a.5.5 0 0 1-.5-.5v-3H4v3a2 2 0 0 0 2 2h12a2 2 0 0 0 2-2V9.828a2 2 0 0 0-.586-1.414l-5.829-5.828a1 1 0 0 0-.049-.04l-.036-.03a2 2 0 0 0-.219-.18 1 1 0 0 0-.08-.044l-.048-.024-.05-.029c-.054-.031-.109-.063-.166-.087a2 2 0 0 0-.624-.138q-.03-.002-.059-.007A1 1 0 0 0 12.172 2H6a2 2 0 0 0-2 2v9h1.5V4a.5.5 0 0 1 .5-.5h6V8a2 2 0 0 0 2 2h4.5zm-5-15.379L17.378 8.5H14a.5.5 0 0 1-.5-.5zM8.75 11.5a.75.75 0 0 0 0 1.5h6.5a.75.75 0 0 0 0-1.5zm-6 2.75a.75.75 0 0 0 0 1.5h6.5a.75.75 0 0 0 0-1.5zm6 2.75a.75.75 0 0 0 0 1.5h6.5a.75.75 0 0 0 0-1.5z"/></svg>