<svg xmlns="http://www.w3.org/2000/svg" width="24" height="24" fill="none"><path fill="#04071E" d="M7.2 2.4a2.4 2.4 0 0 0-2.4 2.4v8.503A1.8 1.8 0 0 1 6 15V4.8a1.2 1.2 0 0 1 1.2-1.2H12v4.2a1.8 1.8 0 0 0 1.8 1.8H18v4.405a1.8 1.8 0 0 1 1.2-.78V8.897a1.8 1.8 0 0 0-.527-1.273l-4.697-4.697a1.8 1.8 0 0 0-1.273-.527zm10.552 6H13.8a.6.6 0 0 1-.6-.6V3.849zM14.1 21.6a.6.6 0 0 0 .566-.402l2.1-6a.6.6 0 1 0-1.132-.396L14.1 19.184l-1.534-4.382a.6.6 0 0 0-1.132.396l2.1 6a.6.6 0 0 0 .566.402m5.966-6.798a.6.6 0 0 0-1.132 0l-2.1 6a.6.6 0 1 0 1.132.396l.28-.798h2.508l.28.798a.6.6 0 0 0 1.132-.396zm.268 4.398h-1.668l.834-2.384zM4.2 14.4a.6.6 0 0 1 .6.6v4.8a1.8 1.8 0 0 1-3.6 0v-.6a.6.6 0 1 1 1.2 0v.6a.6.6 0 1 0 1.2 0V15a.6.6 0 0 1 .6-.6m4.5 0a.6.6 0 0 1 .566.402l2.1 6a.6.6 0 1 1-1.132.396l-.28-.798H7.446l-.28.799a.6.6 0 1 1-1.132-.397l2.1-6A.6.6 0 0 1 8.7 14.4m0 2.417L7.866 19.2h1.668z"/><path fill="#04071E" fill-rule="evenodd" d="M4.7 4.8a2.5 2.5 0 0 1 2.5-2.5h5.503c.504 0 .987.2 1.344.556l4.697 4.698a1.9 1.9 0 0 1 .556 1.343v4.328a.1.1 0 0 1-.083.099 1.7 1.7 0 0 0-1.134.736.1.1 0 0 1-.183-.055V9.7h-4.1a1.9 1.9 0 0 1-1.9-1.9V3.7H7.2a1.1 1.1 0 0 0-1.1 1.1V15a.1.1 0 1 1-.2 0 1.7 1.7 0 0 0-1.133-1.603.1.1 0 0 1-.067-.094zm1.2 9.35V4.8a1.3 1.3 0 0 1 1.3-1.3H12a.1.1 0 0 1 .1.1v4.2a1.7 1.7 0 0 0 1.7 1.7H18a.1.1 0 0 1 .1.1v4.115a1.9 1.9 0 0 1 1-.572V8.897a1.7 1.7 0 0 0-.498-1.202l-4.697-4.697a1.7 1.7 0 0 0-1.202-.498H7.2a2.3 2.3 0 0 0-2.3 2.3v8.433c.435.173.792.502 1 .918m7.262-10.394a.1.1 0 0 1 .109.022l4.551 4.551a.1.1 0 0 1-.07.171H13.8a.7.7 0 0 1-.7-.7V3.849a.1.1 0 0 1 .062-.093m.138.334V7.8a.5.5 0 0 0 .5.5h3.71zM11.77 14.34a.7.7 0 0 1 .892.429l1.44 4.112 1.438-4.112a.7.7 0 1 1 1.322.462l-2.1 6a.7.7 0 0 1-1.322 0l-2.1-6a.7.7 0 0 1 .43-.892m.703.495a.5.5 0 1 0-.944.33l2.1 6a.5.5 0 0 0 .944 0l2.1-6a.5.5 0 1 0-.944-.33l-1.533 4.382a.1.1 0 0 1-.19 0zm6.367-.066a.7.7 0 0 1 1.322 0l2.1 6a.7.7 0 0 1-1.322.462l-.256-.73h-2.366l-.256.73a.7.7 0 1 1-1.322-.462zm.661-.269a.5.5 0 0 0-.472.335l-2.1 6a.5.5 0 1 0 .944.33l.28-.798a.1.1 0 0 1 .094-.067h2.508a.1.1 0 0 1 .095.067l.28.798a.5.5 0 1 0 .943-.33l-2.1-6a.5.5 0 0 0-.472-.335m-15.3 0a.5.5 0 0 0-.5.5v4.8a.7.7 0 1 1-1.4 0v-.6a.5.5 0 0 0-1 0v.6a1.7 1.7 0 1 0 3.4 0V15a.5.5 0 0 0-.5-.5m-.7.5a.7.7 0 1 1 1.4 0v4.8a1.9 1.9 0 1 1-3.8 0v-.6a.7.7 0 1 1 1.4 0v.6a.5.5 0 1 0 1 0zm5.2-.5a.5.5 0 0 0-.472.335l-2.1 6a.5.5 0 1 0 .944.33l.28-.798a.1.1 0 0 1 .094-.067h2.508a.1.1 0 0 1 .095.067l.28.799a.5.5 0 1 0 .943-.33l-2.1-6A.5.5 0 0 0 8.7 14.5m-.66.27a.7.7 0 0 1 1.32 0l2.1 6a.7.7 0 0 1-1.32.462l-.257-.732H7.517l-.256.732a.7.7 0 0 1-1.322-.463zm11.46 1.946a.1.1 0 0 1 .095.067l.834 2.384a.1.1 0 0 1-.095.133h-1.668a.1.1 0 0 1-.095-.133l.835-2.384a.1.1 0 0 1 .094-.067m-10.8 0a.1.1 0 0 1 .094.067l.835 2.384a.1.1 0 0 1-.095.133H7.866a.1.1 0 0 1-.095-.133l.835-2.384a.1.1 0 0 1 .094-.066M18.807 19.1h1.387l-.694-1.98zm-10.8 0h1.386L8.7 17.12z" clip-rule="evenodd"/></svg>