<svg xmlns="http://www.w3.org/2000/svg" width="24" height="24" fill="none"><path fill="#04071E" d="m14.47 2.16 4.372 4.371c.421.423.658.993.658 1.59V19.5a3 3 0 0 1-3 3h-3.384A3.7 3.7 0 0 0 13.8 21H16.5a1.5 1.5 0 0 0 1.5-1.5V9h-3.75A2.25 2.25 0 0 1 12 6.75V3H7.5A1.5 1.5 0 0 0 6 4.5v9.777l-.062-.052a1 1 0 0 0-.085-.068c-.408-.28-.873-.44-1.353-.54V4.501a3 3 0 0 1 3-3h5.38c.596 0 1.17.237 1.59.659m-.97 4.59c0 .414.336.75.75.75h3.44L13.5 3.31zM11.994 17.4a2.24 2.24 0 0 1-.403 1.143l.001.002c.35.298.597.697.713 1.142.114.446.09.915-.07 1.346a2.254 2.254 0 0 1-2.11 1.468H8.25a.75.75 0 0 1-.75-.75v-6a.75.75 0 0 1 .75-.75h1.5a2.24 2.24 0 0 1 1.995 1.213c.19.364.276.775.25 1.186m-2.244-.9H9V18h.75a.75.75 0 1 0 0-1.5M9 21h1.125a.749.749 0 1 0 0-1.5H9zm-3.717-2.118c.356.59.61 1.234.75 1.908l.03.115c.028.115.053.218.081.3a.75.75 0 0 1 .18.821.75.75 0 0 1-.696.474c-.713 0-.884-.687-1.05-1.348v-.002l-.004-.016c-.136-.539-.414-1.634-.824-1.634H3v2.25a.749.749 0 1 1-1.5 0v-6a.75.75 0 0 1 .75-.75h1.502a2.25 2.25 0 0 1 1.531 3.882M3.75 16.5H3V18h.75a.749.749 0 1 0 0-1.5"/><path fill="#04071E" fill-rule="evenodd" d="M18.913 6.46a2.35 2.35 0 0 1 .687 1.661V19.5a3.1 3.1 0 0 1-3.1 3.1h-3.584l.12-.16a3.6 3.6 0 0 0 .665-1.46l.017-.08H16.5a1.4 1.4 0 0 0 1.4-1.4V9.1h-3.65a2.35 2.35 0 0 1-2.35-2.35V3.1H7.5a1.4 1.4 0 0 0-1.4 1.4v9.98l-.16-.124q-.037-.028-.067-.055a1 1 0 0 0-.076-.062c-.393-.27-.845-.425-1.317-.524l-.08-.017V4.501a3.1 3.1 0 0 1 3.1-3.1h5.38c.623 0 1.221.248 1.662.688zM12 3v3.75A2.25 2.25 0 0 0 14.25 9H18v10.5a1.5 1.5 0 0 1-1.5 1.5H13.8q-.058.28-.158.552a3.6 3.6 0 0 1-.525.948H16.5a3 3 0 0 0 3-3V8.121a2.25 2.25 0 0 0-.658-1.59L14.47 2.16a2.25 2.25 0 0 0-1.592-.659H7.5a3 3 0 0 0-3 3v9.116c.48.1.945.26 1.353.54a1 1 0 0 1 .085.068q.03.027.062.052V4.5A1.5 1.5 0 0 1 7.5 3zm.402 16.663c.119.465.094.955-.072 1.405a2.355 2.355 0 0 1-2.204 1.534H8.25a.85.85 0 0 1-.85-.85v-6a.85.85 0 0 1 .85-.85h1.5a2.34 2.34 0 0 1 2.084 1.265 2.35 2.35 0 0 1-.111 2.36c.33.304.566.699.679 1.136m-.811-1.12a2.24 2.24 0 0 0 .154-2.33 2.25 2.25 0 0 0-1.995-1.212h-1.5a.749.749 0 0 0-.75.75v6a.749.749 0 0 0 .75.75h1.875a2.25 2.25 0 0 0 2.11-1.468 2.24 2.24 0 0 0-.644-2.489zm-5.133 3.024a.855.855 0 0 1-.353.885.84.84 0 0 1-.477.148.9.9 0 0 1-.495-.133 1 1 0 0 1-.32-.342c-.161-.267-.248-.616-.329-.94l-.002-.009v-.001l-.005-.017a8 8 0 0 0-.305-1.006 1.8 1.8 0 0 0-.218-.411c-.08-.104-.148-.141-.204-.141H3.1v2.15a.849.849 0 1 1-1.7 0v-6a.85.85 0 0 1 .85-.85h1.502a2.353 2.353 0 0 1 2.277 2.858c-.096.43-.31.826-.62 1.14.34.58.584 1.212.722 1.87v.002l-.098.02.097-.024v.002l.013.047.017.066q.037.159.072.27a.86.86 0 0 1 .226.416m-1.175-2.685a2.255 2.255 0 0 0 .545-2.459A2.25 2.25 0 0 0 3.752 15H2.25a.749.749 0 0 0-.75.75v6a.749.749 0 0 0 1.281.531.75.75 0 0 0 .22-.531V19.5h.75c.41 0 .687 1.095.823 1.634l.004.016v.002M13.6 6.75c0 .359.292.65.65.65h3.198L13.6 3.552zm-.1 0c0 .414.336.75.75.75h3.44L13.5 3.31zM9 16.5h.75a.749.749 0 0 1 .531 1.281.75.75 0 0 1-.53.219H9zm.1 1.4h.65a.65.65 0 1 0 0-1.3H9.1zm0 3h1.025a.65.65 0 1 0 0-1.3H9.1zM9 21v-1.5h1.125a.749.749 0 0 1 .531 1.281.75.75 0 0 1-.53.219zm-6-4.5h.75a.749.749 0 0 1 .531 1.281.75.75 0 0 1-.53.219H3zm.1 1.4h.65a.65.65 0 1 0 0-1.3H3.1zm3.044 3.306a.75.75 0 0 1 .216.382z" clip-rule="evenodd"/></svg>