<svg xmlns="http://www.w3.org/2000/svg" width="24" height="24" fill="none"><path fill="#04071E" d="M7.2 2.4a2.4 2.4 0 0 0-2.4 2.4v6H6v-6a1.2 1.2 0 0 1 1.2-1.2H12v4.2a1.8 1.8 0 0 0 1.8 1.8H18v9.6a1.2 1.2 0 0 1-1.2 1.2h-3.643a4.2 4.2 0 0 1-.361 1.2H16.8a2.4 2.4 0 0 0 2.4-2.4V8.897a1.8 1.8 0 0 0-.527-1.273l-4.697-4.697a1.8 1.8 0 0 0-1.273-.527zm10.551 6H13.8a.6.6 0 0 1-.6-.6V3.849zM1.2 15a3 3 0 0 1 3-3H9a3 3 0 0 1 3 3v4.8c0 .611-.183 1.18-.497 1.654l-3.63-3.63a1.8 1.8 0 0 0-2.546 0l-3.63 3.63A3 3 0 0 1 1.2 19.8zm8.4.3a.9.9 0 1 0-1.8 0 .9.9 0 0 0 1.8 0m-7.055 7.003A3 3 0 0 0 4.2 22.8H9c.611 0 1.18-.183 1.654-.497l-3.63-3.63a.6.6 0 0 0-.848 0z"/><path fill="#04071E" fill-rule="evenodd" d="M4.65 4.8A2.55 2.55 0 0 1 7.2 2.25h5.503a1.95 1.95 0 0 1 1.379.571l4.697 4.697c.365.366.57.862.57 1.38V19.2a2.55 2.55 0 0 1-2.55 2.55h-4.24l.101-.214c.171-.36.29-.749.349-1.157l.018-.129H16.8c.58 0 1.05-.47 1.05-1.05V9.75H13.8a1.95 1.95 0 0 1-1.95-1.95V3.75H7.2c-.58 0-1.05.47-1.05 1.05v6.15h-1.5zM7.2 2.55A2.25 2.25 0 0 0 4.95 4.8v5.85h.9V4.8c0-.746.604-1.35 1.35-1.35h4.95V7.8c0 .911.739 1.65 1.65 1.65h4.35v9.75a1.35 1.35 0 0 1-1.35 1.35h-3.515a4.3 4.3 0 0 1-.26.9H16.8a2.25 2.25 0 0 0 2.25-2.25V8.897a1.65 1.65 0 0 0-.483-1.167L13.87 3.033a1.65 1.65 0 0 0-1.167-.483zm5.85.936 5.063 5.064H13.8a.75.75 0 0 1-.75-.75zm.3.725V7.8c0 .249.201.45.45.45h3.59zM4.2 12.15A2.85 2.85 0 0 0 1.35 15v4.8c0 .515.136.998.375 1.414l3.496-3.496a1.95 1.95 0 0 1 2.758 0l3.496 3.496c.238-.416.375-.9.375-1.414V15A2.85 2.85 0 0 0 9 12.15zM1.05 15a3.15 3.15 0 0 1 3.15-3.15H9A3.15 3.15 0 0 1 12.15 15v4.8c0 .642-.192 1.24-.522 1.737l-.101.153-3.76-3.76a1.65 1.65 0 0 0-2.334 0l-3.76 3.76-.101-.153A3.14 3.14 0 0 1 1.05 19.8zm6.6.3a1.05 1.05 0 1 1 2.1 0 1.05 1.05 0 0 1-2.1 0m1.05-.75a.75.75 0 1 0 0 1.5.75.75 0 0 0 0-1.5m-2.63 4.017a.75.75 0 0 1 1.06 0l3.76 3.76-.153.101A3.14 3.14 0 0 1 9 22.95H4.2c-.642 0-1.24-.192-1.737-.522l-.153-.101zm.848.212a.45.45 0 0 0-.636 0l-3.496 3.496c.416.239.899.375 1.414.375H9c.515 0 .997-.136 1.414-.375z" clip-rule="evenodd"/></svg>