<svg xmlns="http://www.w3.org/2000/svg" width="24" height="24" fill="none"><path fill="#04071E" d="m14.475 2.16 4.365 4.365c.42.42.66 1.005.66 1.59V19.5c0 1.65-1.35 3-3 3h-4.635c.09-.24.135-.495.135-.75V21h4.5c.825 0 1.5-.675 1.5-1.5V9h-3.75A2.247 2.247 0 0 1 12 6.75V3H7.5C6.675 3 6 3.675 6 4.5v9.585a.7.7 0 0 0-.105.09c-.42-.285-.9-.495-1.395-.585V4.5c0-1.65 1.35-3 3-3h5.385c.585 0 1.17.24 1.59.66M13.5 6.75c0 .42.33.75.75.75h3.435L13.5 3.315zM2.25 15h1.5a2.251 2.251 0 0 1 1.592 3.842 2.25 2.25 0 0 1-1.592.658H3v2.25a.749.749 0 1 1-1.5 0v-6a.75.75 0 0 1 .75-.75M3 18h.75a.749.749 0 1 0 0-1.5H3zm7.5 1 2.1-2.8a.747.747 0 0 0-.15-1.05.747.747 0 0 0-1.05.15l-1.65 2.2-1.65-2.2a.75.75 0 1 0-1.2.9L9 19v2.75a.749.749 0 1 0 1.5 0z"/><path fill="#04071E" fill-rule="evenodd" d="M7.5 1.6a2.91 2.91 0 0 0-2.9 2.9v9.008c.455.094.894.286 1.284.54l.016-.014V4.5c0-.88.72-1.6 1.6-1.6h4.6v3.85c0 1.19.96 2.15 2.15 2.15h3.85v10.6c0 .88-.72 1.6-1.6 1.6h-4.4v.65q0 .332-.095.65H16.5c1.595 0 2.9-1.305 2.9-2.9V8.115c0-.559-.23-1.118-.63-1.52l-4.365-4.364a2.17 2.17 0 0 0-1.52-.631zM4.4 4.5c0-1.705 1.395-3.1 3.1-3.1h5.385c.612 0 1.222.25 1.661.69l4.365 4.364c.439.44.69 1.05.69 1.661V19.5c0 1.705-1.395 3.1-3.1 3.1h-4.78l.05-.135a2 2 0 0 0 .13-.715v-.85h4.6c.77 0 1.4-.63 1.4-1.4V9.1h-3.65c-1.3 0-2.35-1.05-2.35-2.35V3.1H7.5c-.77 0-1.4.63-1.4 1.4v9.639l-.045.03a.6.6 0 0 0-.09.077l-.058.058-.069-.046a3.6 3.6 0 0 0-1.357-.57l-.082-.014zm9-1.426L17.927 7.6H14.25a.843.843 0 0 1-.85-.85zm.2.482V6.75c0 .365.286.65.65.65h3.194zM6.99 15.07a.85.85 0 0 1 1.19.17l1.57 2.094 1.57-2.094c.136-.18.337-.3.56-.331a.847.847 0 0 1 .962.72.85.85 0 0 1-.162.631l-2.08 2.772v2.718a.85.85 0 0 1-1.7 0v-2.718L6.82 16.26a.86.86 0 0 1-.05-.944.9.9 0 0 1 .22-.246m.603.037a.645.645 0 0 0-.651.311l-.001.002a.6.6 0 0 0-.084.237.67.67 0 0 0 .124.483l2.12 2.826v2.784a.65.65 0 1 0 1.3 0v-2.784l2.12-2.826a.65.65 0 0 0-.13-.91.647.647 0 0 0-.91.13l-1.73 2.307-1.73-2.307a.65.65 0 0 0-.428-.253M2.25 15.1a.65.65 0 0 0-.65.65v6a.65.65 0 0 0 1.11.46.65.65 0 0 0 .19-.46V19.4h.85a2.151 2.151 0 0 0 0-4.3zm-.6.048a.86.86 0 0 1 .6-.248h1.5a2.351 2.351 0 0 1 1.663 4.012 2.35 2.35 0 0 1-1.663.688H3.1v2.15a.849.849 0 1 1-1.7 0v-6a.85.85 0 0 1 .25-.602M2.9 16.4h.85a.85.85 0 0 1 0 1.7H2.9zm.2.2v1.3h.65a.65.65 0 1 0 0-1.3z" clip-rule="evenodd"/></svg>