<svg xmlns="http://www.w3.org/2000/svg" width="24" height="24" fill="none"><path fill="#04071E" d="M4.5 4.5a3 3 0 0 1 3-3h5.38a2.25 2.25 0 0 1 1.59.659l4.371 4.371c.422.422.66.995.66 1.591V19.5a3 3 0 0 1-3 3h-4.629q.126-.354.128-.75V21h4.5a1.5 1.5 0 0 0 1.5-1.5V9h-3.75A2.25 2.25 0 0 1 12 6.75V3H7.5A1.5 1.5 0 0 0 6 4.5v9.75a3.7 3.7 0 0 0-1.5-.675zm9.75 3h3.44L13.5 3.31v3.44c0 .414.336.75.75.75m-4.048 7.806c.15.14.298.37.298.676v5.768a.75.75 0 0 1-1.5 0v-4.563a5.3 5.3 0 0 1-1.189.746.75.75 0 1 1-.621-1.366c.7-.319 1.17-.785 1.465-1.176.335-.443.86-.399 1.088-.338.147.04.315.117.46.253M3.75 15a2.25 2.25 0 0 0-2.25 2.25v3a2.25 2.25 0 1 0 4.5 0v-3A2.25 2.25 0 0 0 3.75 15M3 17.25a.75.75 0 0 1 1.5 0v3a.75.75 0 0 1-1.5 0z"/><path fill="#04071E" fill-rule="evenodd" d="M7.5 1.6a2.9 2.9 0 0 0-2.9 2.9v8.994c.472.107.912.3 1.3.562V4.5a1.6 1.6 0 0 1 1.6-1.6h4.6v3.85a2.15 2.15 0 0 0 2.15 2.15h3.85v10.6a1.6 1.6 0 0 1-1.6 1.6h-4.4v.65q0 .34-.09.65h4.49a2.9 2.9 0 0 0 2.9-2.9V8.121a2.15 2.15 0 0 0-.63-1.52L14.4 2.23a2.15 2.15 0 0 0-1.52-.63zM4.4 4.5a3.1 3.1 0 0 1 3.1-3.1h5.38a2.35 2.35 0 0 1 1.66.688l4.372 4.372c.44.44.688 1.038.688 1.661V19.5a3.1 3.1 0 0 1-3.1 3.1h-4.769l.047-.133q.121-.338.122-.717v-.85h4.6a1.4 1.4 0 0 0 1.4-1.4V9.1h-3.65a2.35 2.35 0 0 1-2.35-2.35V3.1H7.5a1.4 1.4 0 0 0-1.4 1.4v9.95l-.16-.12a3.6 3.6 0 0 0-1.46-.657l-.08-.016zm9-1.43 4.531 4.53h-3.68a.85.85 0 0 1-.85-.85zm.2.482V6.75c0 .359.291.65.65.65h3.198zM1.4 17.25a2.35 2.35 0 0 1 4.7 0v3a2.35 2.35 0 1 1-4.7 0zm2.35-2.15a2.15 2.15 0 0 0-2.15 2.15v3a2.15 2.15 0 0 0 4.3 0v-3a2.15 2.15 0 0 0-2.15-2.15m5.967.05c-.215-.058-.685-.092-.982.301-.303.401-.784.88-1.504 1.207a.65.65 0 0 0 .539 1.184c.459-.21.845-.464 1.166-.732l.164-.136v4.776a.65.65 0 1 0 1.3 0v-5.768a.83.83 0 0 0-.266-.603 1 1 0 0 0-.417-.229m-1.141.18c.372-.491.951-.438 1.193-.373.16.043.343.127.502.276.164.154.33.41.33.749v5.768a.85.85 0 1 1-1.7 0v-4.355c-.3.23-.647.446-1.048.629a.85.85 0 0 1-.705-1.548 3.7 3.7 0 0 0 1.428-1.145M3.75 16.6a.65.65 0 0 0-.65.65v3a.65.65 0 1 0 1.3 0v-3a.65.65 0 0 0-.65-.65m-.85.65a.85.85 0 0 1 1.7 0v3a.85.85 0 1 1-1.7 0z" clip-rule="evenodd"/></svg>