<svg xmlns="http://www.w3.org/2000/svg" width="24" height="24" fill="none"><path fill="#04071E" d="m10.81 15.75.971-.969a.751.751 0 1 0-1.062-1.062l-.969.97-.969-.97a.751.751 0 0 0-1.062 1.062l.97.969-.97.969a.75.75 0 0 0 1.062 1.062l.97-.97.968.97a.75.75 0 0 0 1.225-.244.75.75 0 0 0-.163-.818zM5.38 2.379A3 3 0 0 1 7.5 1.5h5.379a2.25 2.25 0 0 1 1.59.659l4.373 4.372c.421.422.658.994.658 1.59V19.5a3 3 0 0 1-3 3h-9a3 3 0 0 1-3-3v-15a3 3 0 0 1 .879-2.121M18 16.5V9h-3.75A2.25 2.25 0 0 1 12 6.75V3H7.5A1.5 1.5 0 0 0 6 4.5v15A1.5 1.5 0 0 0 7.5 21h9a1.5 1.5 0 0 0 1.5-1.5V18h-3.75a.75.75 0 1 1 0-1.5zm-3.75-9h3.44L13.5 3.31v3.44a.75.75 0 0 0 .75.75"/></svg>