<svg xmlns="http://www.w3.org/2000/svg" width="24" height="24" fill="none"><path fill="#04071E" d="M7.2 2.4a2.4 2.4 0 0 0-2.4 2.4v6.249a6.6 6.6 0 0 1 1.2-.222V4.8a1.2 1.2 0 0 1 1.2-1.2H12v4.2a1.8 1.8 0 0 0 1.8 1.8H18v9.6a1.2 1.2 0 0 1-1.2 1.2h-4.32q-.33.647-.789 1.2H16.8a2.4 2.4 0 0 0 2.4-2.4V8.897a1.8 1.8 0 0 0-.527-1.273l-4.697-4.697a1.8 1.8 0 0 0-1.273-.527zm10.552 6H13.8a.6.6 0 0 1-.6-.6V3.849zM6.6 22.8a5.4 5.4 0 1 0 0-10.8 5.4 5.4 0 0 0 0 10.8m-2.824-4.976a.6.6 0 0 1 .848-.848L6 18.352V15a.6.6 0 1 1 1.2 0v3.352l1.376-1.376a.6.6 0 1 1 .848.848l-2.4 2.4a.6.6 0 0 1-.42.176h-.008a.6.6 0 0 1-.418-.173l-.003-.003z"/><path fill="#04071E" fill-rule="evenodd" d="M4.6 11.313V4.8a2.6 2.6 0 0 1 2.6-2.6h5.503a2 2 0 0 1 1.414.586l4.697 4.697a2 2 0 0 1 .586 1.414V19.2a2.6 2.6 0 0 1-2.6 2.6h-5.533l.27-.327a6.4 6.4 0 0 0 .765-1.164l.056-.109H16.8a1 1 0 0 0 1-1V9.8h-4a2 2 0 0 1-2-2v-4H7.2a1 1 0 0 0-1 1v6.21l-.182.016q-.6.055-1.164.215zm7.88 9.087h4.32a1.2 1.2 0 0 0 1.2-1.2V9.6h-4.2A1.8 1.8 0 0 1 12 7.8V3.6H7.2A1.2 1.2 0 0 0 6 4.8v6.027a6.6 6.6 0 0 0-1.2.222V4.8a2.4 2.4 0 0 1 2.4-2.4h5.503a1.8 1.8 0 0 1 1.273.527l4.697 4.697a1.8 1.8 0 0 1 .527 1.273V19.2a2.4 2.4 0 0 1-2.4 2.4h-5.109a6.7 6.7 0 0 0 .79-1.2M6.2 18.834l-1.717-1.717a.4.4 0 0 0-.566.566l2.4 2.4.002.002a.4.4 0 0 0 .278.115h.005a.4.4 0 0 0 .28-.117l2.4-2.4a.4.4 0 0 0-.565-.566L7 18.834V15a.4.4 0 0 0-.8 0zm.404 1.566h-.008a.6.6 0 0 1-.418-.173l-.003-.003-2.4-2.4a.6.6 0 0 1 .85-.848L6 18.352V15a.6.6 0 1 1 1.2 0v3.352l1.376-1.376a.6.6 0 1 1 .848.848l-2.4 2.4a.6.6 0 0 1-.42.176m11.148-12L13.2 3.849V7.8a.6.6 0 0 0 .6.6zm-.483-.2L13.4 4.331V7.8c0 .22.18.4.4.4zM12.2 17.4a5.6 5.6 0 1 1-11.2 0 5.6 5.6 0 0 1 11.2 0m-.2 0a5.4 5.4 0 1 1-10.8 0 5.4 5.4 0 0 1 10.8 0" clip-rule="evenodd"/></svg>