<svg xmlns="http://www.w3.org/2000/svg" width="24" height="24" fill="none"><path fill="#04071E" stroke="#04071E" stroke-width=".2" d="m14.475 2.16 4.365 4.365c.42.42.66 1.005.66 1.59V19.5c0 1.65-1.35 3-3 3h-3.375c.21-.285.39-.6.51-.945.068-.162.11-.336.152-.5L13.8 21h2.7c.825 0 1.5-.675 1.5-1.5V9h-3.75A2.247 2.247 0 0 1 12 6.75V3H7.5C6.675 3 6 3.675 6 4.5v9c-.33 0-.63.075-.93.195-.21.105-.405.225-.57.405V4.5c0-1.65 1.35-3 3-3h5.385c.585 0 1.17.24 1.59.66ZM13.5 6.75c0 .42.33.75.75.75h3.435L13.5 3.315zM11.994 17.4a2.24 2.24 0 0 1-.403 1.143l.001.002c.35.298.597.697.713 1.143.114.445.09.915-.07 1.345s-.448.803-.824 1.065a2.25 2.25 0 0 1-1.286.404H8.25a.75.75 0 0 1-.75-.75v-6a.75.75 0 0 1 .75-.75h1.5a2.24 2.24 0 0 1 1.995 1.212c.19.364.276.775.25 1.186Zm-2.244-.9H9V18h.75a.749.749 0 1 0 0-1.5ZM9 21h1.125a.749.749 0 1 0 0-1.5H9zm-4.548 1.014 2.25-6a.751.751 0 0 0-1.405-.528l-1.548 4.128L2.2 15.486a.75.75 0 0 0-.966-.438.75.75 0 0 0-.437.966l2.25 6a.751.751 0 0 0 1.404 0Z"/></svg>