<svg xmlns="http://www.w3.org/2000/svg" width="24" height="24" fill="none"><path fill="#04071E" d="M7.2 2.4a2.4 2.4 0 0 0-2.4 2.4v14.4a2.4 2.4 0 0 0 2.4 2.4h3.6v-1.2H7.2A1.2 1.2 0 0 1 6 19.2V4.8a1.2 1.2 0 0 1 1.2-1.2H12v4.2a1.8 1.8 0 0 0 1.8 1.8H18v1.362q.57-.146 1.169-.162h.031V8.897a1.8 1.8 0 0 0-.528-1.273l-4.697-4.697a1.8 1.8 0 0 0-1.272-.527zm10.551 6H13.8a.6.6 0 0 1-.6-.6V3.849zm-5.573 14.222q.178.178.422.178H15a.7.7 0 0 0 .328-.084.44.44 0 0 0 .178-.207q.055-.13.075-.28t.019-.31V21.6q.43-.01.675-.028.243-.02.365-.14a.55.55 0 0 0 .14-.357q.02-.234.02-.675c.6 0 .76.025.918-.084a.6.6 0 0 0 .188-.207.8.8 0 0 0 .084-.28c.033-.276.01-.559.01-.835q.309.112.628.16.318.046.647.046.75-.01 1.378-.29.628-.281 1.115-.788t.76-1.153.272-1.369q0-.75-.282-1.406a3.6 3.6 0 0 0-.768-1.144 3.6 3.6 0 0 0-1.144-.769A3.5 3.5 0 0 0 19.2 12a3.9 3.9 0 0 0-1.378.281 3.5 3.5 0 0 0-1.144.75q-.498.487-.788 1.125a3.3 3.3 0 0 0-.29 1.369q0 .44.103.928l-3.525 3.525A.58.58 0 0 0 12 20.4v1.8q0 .244.178.422M21 14.7c0 .495-.406.9-.9.9a.903.903 0 0 1-.9-.9c0-.495.405-.9.9-.9.494 0 .9.405.9.9"/><path fill="#04071E" fill-rule="evenodd" d="M11 21.8H7.2a2.6 2.6 0 0 1-2.6-2.6V4.8a2.6 2.6 0 0 1 2.6-2.6h5.503a2 2 0 0 1 1.414.586l4.697 4.697a2 2 0 0 1 .586 1.414V11h-.226q-.578.015-1.125.155l-.25.065V9.8h-4a2 2 0 0 1-2-2v-4H7.2a1 1 0 0 0-1 1v14.4a1 1 0 0 0 1 1H11zm7-12.2h-4.2A1.8 1.8 0 0 1 12 7.8V3.6H7.2A1.2 1.2 0 0 0 6 4.8v14.4a1.2 1.2 0 0 0 1.2 1.2h3.6v1.2H7.2a2.4 2.4 0 0 1-2.4-2.4V4.8a2.4 2.4 0 0 1 2.4-2.4h5.503a1.8 1.8 0 0 1 1.272.527l4.697 4.697a1.8 1.8 0 0 1 .528 1.273V10.8h-.031a5.3 5.3 0 0 0-1.17.162zM15 23h-2.4a.78.78 0 0 1-.564-.237.78.78 0 0 1-.236-.563v-1.8c0-.217.082-.408.236-.563l3.45-3.45a4.6 4.6 0 0 1-.086-.862q0-.773.308-1.452.305-.67.83-1.184.525-.516 1.208-.793a4.1 4.1 0 0 1 1.449-.296h.005q.788 0 1.485.297.69.297 1.206.812t.811 1.206Q23 14.812 23 15.6q0 .761-.288 1.446-.285.682-.8 1.215a3.8 3.8 0 0 1-1.177.83 3.6 3.6 0 0 1-1.458.309h-.002a5 5 0 0 1-.676-.049 3 3 0 0 1-.395-.082c.005.188.008.39-.015.583a1 1 0 0 1-.107.352.8.8 0 0 1-.25.276.7.7 0 0 1-.396.119 6 6 0 0 1-.437.002 8 8 0 0 1-.019.49.75.75 0 0 1-.198.482c-.127.126-.302.184-.492.198q-.193.015-.49.024v.124q0 .17-.02.334-.023.177-.09.335a.64.64 0 0 1-.257.298.9.9 0 0 1-.424.114zm.6-1.4q.43-.01.675-.028.243-.02.365-.14a.55.55 0 0 0 .14-.357q.02-.234.02-.675h.2l.078.002c.378.003.51.004.64-.086a.6.6 0 0 0 .188-.207.8.8 0 0 0 .084-.28c.023-.195.018-.394.014-.59l-.001-.032-.003-.213a3.4 3.4 0 0 0 .628.16q.318.046.647.046.75-.01 1.378-.29.628-.281 1.115-.788t.76-1.153.272-1.369q0-.75-.282-1.406a3.6 3.6 0 0 0-.768-1.144 3.6 3.6 0 0 0-1.144-.769A3.5 3.5 0 0 0 19.2 12a3.9 3.9 0 0 0-1.378.281 3.5 3.5 0 0 0-1.144.75q-.498.487-.788 1.125a3.3 3.3 0 0 0-.29 1.369q0 .44.103.928l-3.525 3.525A.58.58 0 0 0 12 20.4v1.8q0 .244.178.422t.422.178H15a.7.7 0 0 0 .328-.084.44.44 0 0 0 .178-.207q.055-.13.075-.28t.019-.31zM17.75 8.4 13.2 3.849V7.8a.6.6 0 0 0 .6.6zm-.483-.2L13.4 4.331V7.8c0 .22.179.4.4.4zm2.832 7.2c.384 0 .7-.316.7-.7s-.316-.7-.7-.7c-.385 0-.7.316-.7.7s.315.7.7.7m0 .2c.494 0 .9-.405.9-.9s-.406-.9-.9-.9c-.495 0-.9.405-.9.9s.405.9.9.9" clip-rule="evenodd"/></svg>