<svg xmlns="http://www.w3.org/2000/svg" width="24" height="24" fill="none"><path fill="#04071E" d="m15.975 2.16 4.365 4.365c.42.423.657.994.66 1.59V19.5a3.01 3.01 0 0 1-3 3h-2.4a2.66 2.66 0 0 0 1.17-1.5H18a1.5 1.5 0 0 0 1.5-1.5V9h-3.75a2.25 2.25 0 0 1-2.25-2.25V3H9a1.5 1.5 0 0 0-1.5 1.5v9.915q-.112.188-.195.39a1 1 0 0 0-.18.09 3.3 3.3 0 0 0-.465-.555A3.7 3.7 0 0 0 6 13.8V4.5a3.01 3.01 0 0 1 3-3h5.385c.596.003 1.167.24 1.59.66m-.755 5.12c.14.141.331.22.53.22h3.435L15 3.315V6.75c0 .199.079.39.22.53M3.75 22.5a2.25 2.25 0 0 1-2.25-2.25v-3a2.25 2.25 0 0 1 4.5 0 .75.75 0 0 1-1.5 0 .75.75 0 1 0-1.5 0v3a.75.75 0 0 0 1.5 0 .75.75 0 1 1 1.5 0 2.25 2.25 0 0 1-2.25 2.25m10.5-3h-.75V18h.75a.75.75 0 1 0 0-1.5h-.75v-.75a.75.75 0 1 0-1.5 0v.75h-1.5v-.75a.75.75 0 1 0-1.5 0v.75h-.75a.75.75 0 1 0 0 1.5h.763l.01 1.5H8.25a.75.75 0 1 0 0 1.5h.781v.75a.75.75 0 0 0 1.5 0V21H12v.75a.75.75 0 1 0 1.5 0V21h.75a.75.75 0 1 0 0-1.5m-2.25 0h-1.478l-.009-1.5H12z"/><path fill="#04071E" fill-rule="evenodd" d="M9 1.4h5.385c.622.003 1.219.25 1.66.689l4.366 4.365c.438.442.686 1.038.689 1.66V19.5a3.11 3.11 0 0 1-3.1 3.1h-2.76l.308-.186c.54-.326.941-.84 1.126-1.443l.022-.071H18a1.4 1.4 0 0 0 1.4-1.4V9.1h-3.65a2.35 2.35 0 0 1-2.35-2.35V3.1H9a1.4 1.4 0 0 0-1.4 1.4v9.942l-.014.024a3 3 0 0 0-.189.377l-.016.04-.04.016a1 1 0 0 0-.163.08l-.082.053-.054-.082a3.2 3.2 0 0 0-.451-.538l-.003-.002a3.6 3.6 0 0 0-.642-.526l-.046-.03V4.5A3.11 3.11 0 0 1 9 1.4m5.385.2H9a2.91 2.91 0 0 0-2.9 2.9v9.246q.344.227.63.523.237.226.425.493.036-.018.074-.034.075-.175.17-.34V4.5A1.6 1.6 0 0 1 9 2.9h4.6v3.85a2.15 2.15 0 0 0 2.15 2.15h3.85v10.6a1.6 1.6 0 0 1-1.6 1.6h-1.156a2.76 2.76 0 0 1-.922 1.3H18a2.91 2.91 0 0 0 2.9-2.9V8.116a2.17 2.17 0 0 0-.63-1.52L15.904 2.23a2.17 2.17 0 0 0-1.52-.631m.515 1.474L19.426 7.6H15.75a.85.85 0 0 1-.85-.85zm.2.482V6.75a.65.65 0 0 0 .65.65h3.194zM3.75 15.1a2.15 2.15 0 0 0-2.15 2.15v3a2.15 2.15 0 0 0 4.3 0 .65.65 0 1 0-1.3 0 .85.85 0 1 1-1.7 0v-3a.85.85 0 0 1 1.7 0 .65.65 0 1 0 1.3 0 2.15 2.15 0 0 0-2.15-2.15m-1.662.488A2.35 2.35 0 0 1 6.1 17.25a.85.85 0 1 1-1.7 0 .65.65 0 1 0-1.3 0v3a.65.65 0 1 0 1.3 0 .85.85 0 0 1 1.7 0 2.35 2.35 0 1 1-4.7 0v-3c0-.623.247-1.221.688-1.662m7.06-.439a.85.85 0 0 1 1.452.601v.65h1.3v-.65a.85.85 0 0 1 1.7 0v.65h.65a.85.85 0 0 1 0 1.7h-.65v1.3h.65a.85.85 0 0 1 0 1.7h-.65v.65a.85.85 0 1 1-1.7 0v-.65H10.63v.65a.85.85 0 0 1-1.7 0v-.65H8.25a.85.85 0 1 1 0-1.7h.672l-.008-1.3H8.25a.85.85 0 1 1 0-1.7h.65v-.65a.85.85 0 0 1 .249-.601m.602-.049a.65.65 0 0 0-.65.65v.85h-.85a.65.65 0 0 0 0 1.3h.863l.01 1.7H8.25a.65.65 0 0 0 0 1.3h.881v.85a.65.65 0 1 0 1.3 0v-.85H12.1v.85a.65.65 0 0 0 1.3 0v-.85h.85a.65.65 0 0 0 0-1.3h-.85v-1.7h.85a.65.65 0 0 0 0-1.3h-.85v-.85a.65.65 0 0 0-1.3 0v.85h-1.7v-.85a.65.65 0 0 0-.65-.65m.663 2.8H12.1v1.7h-1.677zm.201.2.008 1.3H11.9v-1.3z" clip-rule="evenodd"/></svg>