<svg xmlns="http://www.w3.org/2000/svg" width="24" height="24" fill="none"><path fill="#04071E" d="M7.2 2.4a2.4 2.4 0 0 0-2.4 2.4v5.048q.581-.165 1.2-.221V4.8a1.2 1.2 0 0 1 1.2-1.2H12v4.2a1.8 1.8 0 0 0 1.8 1.8H18v9.6a1.2 1.2 0 0 1-1.2 1.2h-5.109c-.376.455-.812.86-1.295 1.2H16.8a2.4 2.4 0 0 0 2.4-2.4V8.897a1.8 1.8 0 0 0-.527-1.273l-4.697-4.697a1.8 1.8 0 0 0-1.273-.527zm10.552 6H13.8a.6.6 0 0 1-.6-.6V3.849zM3.678 12.53a2.4 2.4 0 0 1-1.717 2.974l-.553.141a5.7 5.7 0 0 0 .012 1.22l.42.1a2.4 2.4 0 0 1 1.746 3.022l-.151.507q.464.367 1.001.622l.39-.413a2.4 2.4 0 0 1 3.492.002l.405.43q.527-.246.986-.598l-.188-.668a2.4 2.4 0 0 1 1.717-2.974l.553-.14a5.6 5.6 0 0 0-.012-1.22l-.419-.1a2.4 2.4 0 0 1-1.747-3.023l.151-.506a5.2 5.2 0 0 0-1.002-.622l-.39.413a2.4 2.4 0 0 1-3.49-.002l-.405-.43q-.528.245-.987.597zm2.921 4.87a1.2 1.2 0 1 1 0-2.4 1.2 1.2 0 0 1 0 2.4"/><path fill="#04071E" fill-rule="evenodd" d="M4.65 4.8A2.55 2.55 0 0 1 7.2 2.25h5.503a1.95 1.95 0 0 1 1.379.571l4.697 4.697c.366.366.571.862.571 1.38V19.2a2.55 2.55 0 0 1-2.55 2.55H9.922l.387-.273a6.5 6.5 0 0 0 1.267-1.172l.045-.055H16.8c.58 0 1.05-.47 1.05-1.05V9.75H13.8a1.95 1.95 0 0 1-1.95-1.95V3.75H7.2c-.58 0-1.05.47-1.05 1.05v4.964l-.137.012q-.604.056-1.172.217l-.191.054zM7.2 2.55A2.25 2.25 0 0 0 4.95 4.8v4.853q.44-.11.9-.162V4.8c0-.746.604-1.35 1.35-1.35h4.95V7.8c0 .911.739 1.65 1.65 1.65h4.35v9.75a1.35 1.35 0 0 1-1.35 1.35h-5.038q-.417.494-.919.9H16.8a2.25 2.25 0 0 0 2.25-2.25V8.897a1.65 1.65 0 0 0-.483-1.167L13.87 3.033a1.65 1.65 0 0 0-1.167-.483zm5.85.936 5.064 5.064H13.8a.75.75 0 0 1-.75-.75zm.3.725V7.8c0 .249.202.45.45.45h3.59zm-8.838 6.873.479.508a2.25 2.25 0 0 0 3.273.002l.464-.492.098.046c.368.174.714.39 1.031.64l.08.063-.18.604a2.25 2.25 0 0 0 1.638 2.834l.52.123.013.105a5.8 5.8 0 0 1 .012 1.252l-.01.105-.655.167a2.25 2.25 0 0 0-1.61 2.787l.216.766-.08.062a5.3 5.3 0 0 1-1.016.614l-.098.046-.478-.508a2.25 2.25 0 0 0-3.274-.002l-.464.492-.099-.047a5.3 5.3 0 0 1-1.03-.64l-.08-.062.18-.605a2.25 2.25 0 0 0-1.637-2.834l-.522-.123-.012-.104a5.8 5.8 0 0 1-.013-1.252l.01-.105.656-.167a2.25 2.25 0 0 0 1.61-2.788l-.216-.766.08-.062a5.3 5.3 0 0 1 1.016-.614zm-.85.836.16.57a2.55 2.55 0 0 1-1.824 3.16l-.45.114a5.5 5.5 0 0 0 .01.98l.316.074A2.55 2.55 0 0 1 3.73 20.03l-.122.409q.374.283.795.494l.314-.333a2.55 2.55 0 0 1 3.71.002l.33.35q.412-.202.78-.473l-.16-.57a2.55 2.55 0 0 1 1.824-3.159l.45-.115a5.5 5.5 0 0 0-.01-.98l-.316-.074A2.55 2.55 0 0 1 9.47 12.37l.122-.409a5 5 0 0 0-.795-.494l-.314.333a2.55 2.55 0 0 1-3.71-.002l-.33-.35a5 5 0 0 0-.78.472M6.6 15.15a1.05 1.05 0 1 0 0 2.1 1.05 1.05 0 0 0 0-2.1M5.25 16.2a1.35 1.35 0 1 1 2.7 0 1.35 1.35 0 0 1-2.7 0" clip-rule="evenodd"/></svg>