<svg xmlns="http://www.w3.org/2000/svg" width="24" height="24" fill="none"><path fill="#04071E" d="M4.8 4.8a2.4 2.4 0 0 1 2.4-2.4h5.503a1.8 1.8 0 0 1 1.272.527l4.697 4.697a1.8 1.8 0 0 1 .528 1.273v4.363a3 3 0 0 0-1.2 0V9.6h-4.2A1.8 1.8 0 0 1 12 7.8V3.6H7.2A1.2 1.2 0 0 0 6 4.8v11.28h-.003A3 3 0 0 0 4.8 13.8zm9 3.6h3.951L13.2 3.849V7.8a.6.6 0 0 0 .6.6M3 15.6a.6.6 0 0 0-.6.6v.283c0 .335.189.64.488.79l.76.38A2.08 2.08 0 0 1 4.8 19.517v.283a1.8 1.8 0 0 1-3.6 0 .6.6 0 1 1 1.2 0 .6.6 0 1 0 1.2 0v-.283a.88.88 0 0 0-.489-.79l-.76-.38A2.08 2.08 0 0 1 1.2 16.483V16.2a1.8 1.8 0 0 1 3.6 0 .6.6 0 1 1-1.2 0 .6.6 0 0 0-.6-.6m5.966-.798a.6.6 0 0 0-1.133 0l-2.1 6a.6.6 0 0 0 1.133.396l.28-.798h2.508l.28.798a.6.6 0 1 0 1.132-.396zm.268 4.398H7.565l.835-2.384zm3.966-3a.6.6 0 1 1 1.2 0 .6.6 0 1 0 1.2 0 1.8 1.8 0 0 0-3.6 0v.283c0 .79.445 1.51 1.151 1.864l.76.38c.3.15.489.455.489.79v.283a.6.6 0 1 1-1.2 0 .6.6 0 1 0-1.2 0 1.8 1.8 0 0 0 3.6 0v-.283c0-.79-.446-1.51-1.152-1.864l-.76-.38a.88.88 0 0 1-.488-.79zm5.4-.6a.6.6 0 0 0-.6.6v.283c0 .335.189.64.488.79l.76.38a2.08 2.08 0 0 1 1.152 1.864v.283a1.8 1.8 0 0 1-3.6 0 .6.6 0 1 1 1.2 0 .6.6 0 1 0 1.2 0v-.283a.88.88 0 0 0-.489-.79l-.76-.38a2.08 2.08 0 0 1-1.151-1.864V16.2a1.8 1.8 0 0 1 3.6 0 .6.6 0 1 1-1.2 0 .6.6 0 0 0-.6-.6"/><path fill="#04071E" fill-rule="evenodd" d="M7.2 2.5a2.3 2.3 0 0 0-2.3 2.3v8.95c.446.347.796.814 1 1.352V4.8a1.3 1.3 0 0 1 1.3-1.3H12a.1.1 0 0 1 .1.1v4.2a1.7 1.7 0 0 0 1.7 1.7H18a.1.1 0 0 1 .1.1v3.54a3.1 3.1 0 0 1 1 0V8.897a1.7 1.7 0 0 0-.498-1.202l-4.697-4.697a1.7 1.7 0 0 0-1.202-.498zM4.7 4.8a2.5 2.5 0 0 1 2.5-2.5h5.503c.504 0 .987.2 1.343.556l4.697 4.698a1.9 1.9 0 0 1 .557 1.343v4.363a.1.1 0 0 1-.12.098 2.9 2.9 0 0 0-1.16 0 .1.1 0 0 1-.12-.098V9.7h-4.1a1.9 1.9 0 0 1-1.9-1.9V3.7H7.2a1.1 1.1 0 0 0-1.1 1.1v11.28a.1.1 0 0 1-.1.1h-.003a.1.1 0 0 1-.1-.096A2.9 2.9 0 0 0 4.74 13.88a.1.1 0 0 1-.04-.08zm8.461-1.044a.1.1 0 0 1 .11.022l4.55 4.551a.1.1 0 0 1-.07.171H13.8a.7.7 0 0 1-.7-.7V3.849a.1.1 0 0 1 .061-.093m.139.334V7.8a.5.5 0 0 0 .5.5h3.71zM3 14.5a1.7 1.7 0 0 0-1.7 1.7v.283c0 .752.424 1.438 1.096 1.774l.76.38a.98.98 0 0 1 .544.88v.283a.7.7 0 1 1-1.4 0 .5.5 0 1 0-1 0 1.7 1.7 0 1 0 3.4 0v-.283c0-.751-.425-1.438-1.097-1.774l-.76-.38a.98.98 0 0 1-.543-.88V16.2a.7.7 0 1 1 1.4 0 .5.5 0 0 0 1 0A1.7 1.7 0 0 0 3 14.5m-1.9 1.7a1.9 1.9 0 1 1 3.8 0 .7.7 0 1 1-1.4 0 .5.5 0 1 0-1 0v.283c0 .297.167.568.433.7l.76.38A2.18 2.18 0 0 1 4.9 19.518v.283a1.9 1.9 0 0 1-3.8 0 .7.7 0 1 1 1.4 0 .5.5 0 0 0 1 0v-.283a.78.78 0 0 0-.433-.7l-.76-.38A2.18 2.18 0 0 1 1.1 16.482zm6.639-1.431a.7.7 0 0 1 1.321 0l2.1 6a.7.7 0 1 1-1.321.462l-.256-.731H7.216l-.256.731a.7.7 0 1 1-1.321-.462zm.66-.269a.5.5 0 0 0-.471.335l-2.1 6a.5.5 0 1 0 .944.33l.279-.798a.1.1 0 0 1 .094-.067h2.509a.1.1 0 0 1 .094.067l.28.798a.5.5 0 0 0 .944-.33l-2.1-6A.5.5 0 0 0 8.4 14.5m3.5 1.7a1.9 1.9 0 1 1 3.8 0 .7.7 0 1 1-1.4 0 .5.5 0 1 0-1 0v.283c0 .297.168.568.434.7l.76.38a2.18 2.18 0 0 1 1.207 1.954v.283a1.9 1.9 0 1 1-3.8 0 .7.7 0 1 1 1.4 0 .5.5 0 0 0 1 0v-.283a.78.78 0 0 0-.433-.7l-.76-.38a2.18 2.18 0 0 1-1.207-1.954zm1.9-1.7a1.7 1.7 0 0 0-1.7 1.7v.283c0 .752.425 1.438 1.097 1.774l.76.38a.98.98 0 0 1 .544.88v.283a.7.7 0 1 1-1.4 0 .5.5 0 1 0-1 0 1.7 1.7 0 1 0 3.4 0v-.283c0-.751-.425-1.438-1.097-1.774l-.76-.38a.98.98 0 0 1-.543-.88V16.2a.7.7 0 1 1 1.4 0 .5.5 0 0 0 1 0 1.7 1.7 0 0 0-1.7-1.7m4.8 0a1.7 1.7 0 0 0-1.7 1.7v.283c0 .752.425 1.438 1.097 1.774l.76.38a.98.98 0 0 1 .544.88v.283a.7.7 0 1 1-1.4 0 .5.5 0 1 0-1 0 1.7 1.7 0 1 0 3.4 0v-.283c0-.751-.425-1.438-1.097-1.774l-.76-.38a.98.98 0 0 1-.543-.88V16.2a.7.7 0 1 1 1.4 0 .5.5 0 0 0 1 0 1.7 1.7 0 0 0-1.7-1.7m-1.9 1.7a1.9 1.9 0 1 1 3.8 0 .7.7 0 1 1-1.4 0 .5.5 0 1 0-1 0v.283c0 .297.168.568.434.7l.76.38a2.18 2.18 0 0 1 1.207 1.954v.283a1.9 1.9 0 1 1-3.8 0 .7.7 0 1 1 1.4 0 .5.5 0 0 0 1 0v-.283a.78.78 0 0 0-.433-.7l-.76-.38a2.18 2.18 0 0 1-1.207-1.954zm-8.3.516a.1.1 0 0 1 .095.067l.834 2.384a.1.1 0 0 1-.094.133H7.565a.1.1 0 0 1-.094-.133l.834-2.384a.1.1 0 0 1 .095-.067M7.707 19.1h1.387L8.4 17.119z" clip-rule="evenodd"/></svg>