<svg xmlns="http://www.w3.org/2000/svg" width="24" height="24" fill="none"><path fill="#04071E" d="M4.286 4.286a2.57 2.57 0 0 1 2.572-2.572h10.285a2.57 2.57 0 0 1 2.572 2.572v7.223a6.4 6.4 0 0 0-1.286-.31V4.287c0-.71-.576-1.286-1.286-1.286H6.858c-.71 0-1.286.576-1.286 1.286v15.428c0 .71.575 1.286 1.286 1.286h5.275c.3.474.659.906 1.068 1.286H6.858a2.57 2.57 0 0 1-2.572-2.572zm3.857 8.571a1.286 1.286 0 1 0 0-2.571 1.286 1.286 0 0 0 0 2.571m15 4.714a5.571 5.571 0 1 1-11.143 0 5.571 5.571 0 0 1 11.143 0m-9-.428a.429.429 0 1 0 0 .857h5.823l-1.84 1.84a.429.429 0 0 0 .606.606l2.572-2.572a.43.43 0 0 0 .125-.3v-.005a.43.43 0 0 0-.125-.3l-2.572-2.572a.429.429 0 1 0-.606.606l1.84 1.84z"/></svg>