<svg xmlns="http://www.w3.org/2000/svg" width="24" height="24" fill="none"><path fill="#04071E" d="M10.2 2.4h3.6a1.8 1.8 0 0 1 .656 3.477c.146.584.573 1.027 1.227 1.67l.012.013c.46.453 1.006.99 1.484 1.707l.03.051a4.97 4.97 0 0 1 .78 3.018q.01.13.01.264v6a3 3 0 0 1-4.5 2.598 3 3 0 0 1-1.5.402 3 3 0 0 1-1.5-.402A3 3 0 0 1 6 18.6v-6q0-.133.012-.264A5 5 0 0 1 6 12c0-1.595.766-3.014 1.956-3.99q.204-.217.393-.411l.002-.002c.64-.66 1.058-1.11 1.197-1.718A1.8 1.8 0 0 1 10.2 2.4m6.6 14.4v-4.2q0-.099-.01-.193a.6.6 0 0 1-.002-.111q.012-.147.012-.296a3.8 3.8 0 0 0-.646-2.107 6 6 0 0 0-.212-.293h-7.88a3.83 3.83 0 0 0-.85 2.696.6.6 0 0 1-.002.11q-.01.096-.01.194v4.2zM7.2 18v.6a1.8 1.8 0 0 0 2.924 1.406.6.6 0 0 1 .75 0A1.8 1.8 0 0 0 12 20.4a1.8 1.8 0 0 0 1.124-.394.6.6 0 0 1 .75 0A1.8 1.8 0 0 0 16.8 18.6v-.601zm6.055-12h-2.508C10.56 7.047 9.89 7.735 9.26 8.384l-.015.016h5.594l-.05-.05c-.64-.629-1.335-1.313-1.533-2.35M10.2 4.8h3.6a.6.6 0 1 0 0-1.2h-3.6a.6.6 0 0 0 0 1.2"/><path fill="#04071E" fill-rule="evenodd" d="M10.2 2.55a1.65 1.65 0 0 0-.597 3.189l.12.047-.028.126c-.15.657-.603 1.137-1.236 1.79l-.002.001q-.189.195-.391.409l-.007.007-.008.006C6.891 9.077 6.15 10.455 6.15 12q0 .164.01.326l.002.012-.002.011q-.01.125-.01.251v6a2.85 2.85 0 0 0 4.275 2.469l.075-.044.075.044c.419.242.906.381 1.425.381.518 0 1.005-.139 1.425-.381l.075-.044.075.044A2.85 2.85 0 0 0 17.85 18.6v-6a3 3 0 0 0-.011-.25l-.001-.012v-.012a4.823 4.823 0 0 0-.756-2.928l-.006-.01-.022-.038c-.468-.702-1.003-1.23-1.464-1.683l-.012-.012c-.647-.637-1.11-1.11-1.268-1.742l-.032-.128.123-.048A1.65 1.65 0 0 0 13.8 2.55zM8.25 4.2a1.95 1.95 0 0 1 1.95-1.95h3.6a1.95 1.95 0 0 1 .836 3.712c.16.479.542.878 1.152 1.479l.015.015c.46.452 1.014.999 1.5 1.728l.036.058a5.12 5.12 0 0 1 .8 3.093q.01.131.01.265v6a3.15 3.15 0 0 1-4.65 2.77c-.446.242-.957.38-1.5.38a3.14 3.14 0 0 1-1.5-.38 3.15 3.15 0 0 1-4.65-2.77v-6q0-.135.012-.265A5 5 0 0 1 5.85 12c0-1.642.787-3.099 2.003-4.1q.202-.214.388-.405l.002-.002c.6-.618.974-1.025 1.127-1.528A1.95 1.95 0 0 1 8.25 4.2m1.2 0a.75.75 0 0 1 .75-.75h3.6a.75.75 0 0 1 0 1.5h-3.6a.75.75 0 0 1-.75-.75m.75-.45a.45.45 0 0 0 0 .9h3.6a.45.45 0 0 0 0-.9zm.422 2.1h2.757l.023.122c.188.985.847 1.638 1.491 2.272l.311.306H8.89l.263-.27c.634-.653 1.268-1.31 1.448-2.307zm.248.3c-.198.9-.737 1.539-1.272 2.1h4.875c-.554-.553-1.129-1.194-1.34-2.1zM7.99 9.45h8.027l.045.059q.11.144.217.3l.007.01.015.026a3.93 3.93 0 0 1 .637 2.462.5.5 0 0 0 .002.084q.01.102.01.209v4.35h-9.9V12.6q0-.105.012-.21a.5.5 0 0 0 0-.083 3.98 3.98 0 0 1 .882-2.801zm.145.3a3.67 3.67 0 0 0-.773 2.534 1 1 0 0 1-.002.138q-.01.088-.01.178v4.05h9.3V12.6q0-.09-.009-.178a1 1 0 0 1-.002-.138 3.6 3.6 0 0 0-.612-2.312 6 6 0 0 0-.158-.222zm-1.084 8.1h9.9v.75a1.95 1.95 0 0 1-3.169 1.522.45.45 0 0 0-.563 0A1.94 1.94 0 0 1 12 20.55a1.94 1.94 0 0 1-1.219-.428.45.45 0 0 0-.563 0A1.95 1.95 0 0 1 7.05 18.6zm.3.3v.45a1.65 1.65 0 0 0 2.68 1.288.75.75 0 0 1 .939 0c.282.227.64.362 1.03.362a1.64 1.64 0 0 0 1.031-.362.75.75 0 0 1 .939 0 1.65 1.65 0 0 0 2.68-1.288v-.45z" clip-rule="evenodd"/></svg>