<svg xmlns="http://www.w3.org/2000/svg" width="24" height="24" fill="none"><path fill="#04071E" d="M7.539 8.388 2.576 3.424a.6.6 0 1 1 .848-.848l18 18a.6.6 0 1 1-.848.848L17.99 18.84A3 3 0 0 1 13.5 21.2a3 3 0 0 1-1.5.401 3 3 0 0 1-1.5-.402A3 3 0 0 1 6 18.6v-6q0-.133.011-.264A5 5 0 0 1 6 12c0-1.4.59-2.664 1.539-3.612m8.413 8.412-7.2-7.2h-.69a3.83 3.83 0 0 0-.85 2.696.6.6 0 0 1-.002.11q-.01.096-.01.194v4.2zM7.2 18v.6a1.8 1.8 0 0 0 2.925 1.406.6.6 0 0 1 .75 0A1.8 1.8 0 0 0 12 20.4a1.8 1.8 0 0 0 1.125-.394.6.6 0 0 1 .75 0A1.8 1.8 0 0 0 16.8 18.6v-.601zm9.6-5.4v1.655l1.2 1.2V12.6q0-.133-.012-.264a4.94 4.94 0 0 0-.778-3.018l-.03-.05c-.478-.717-1.024-1.255-1.484-1.708l-.013-.012c-.654-.644-1.081-1.087-1.227-1.671A1.8 1.8 0 0 0 13.8 2.4h-3.6a1.8 1.8 0 0 0-.651 3.479 2.1 2.1 0 0 1-.358.767l.859.858c.325-.424.59-.905.698-1.504h2.507c.198 1.037.893 1.721 1.533 2.35l.05.05h-3.893l1.2 1.2h3.798a6 6 0 0 1 .232.327 3.78 3.78 0 0 1 .613 2.369 1 1 0 0 0 .002.11q.01.096.01.194m-6.6-7.8a.6.6 0 0 1 0-1.2h3.6a.6.6 0 1 1 0 1.2z"/><path fill="#04071E" fill-rule="evenodd" d="M8.25 4.2a1.95 1.95 0 0 1 1.95-1.95h3.6a1.95 1.95 0 0 1 .837 3.712c.16.479.541.878 1.152 1.479l.015.015c.459.452 1.014.999 1.5 1.728l.035.058a5.12 5.12 0 0 1 .8 3.093q.01.131.011.265v3.217l-1.5-1.5V12.6q0-.09-.01-.178a1 1 0 0 1-.001-.138 3.6 3.6 0 0 0-.613-2.312 6 6 0 0 0-.158-.222h-3.785l-1.5-1.5h3.89c-.554-.553-1.129-1.194-1.34-2.1h-2.262c-.126.572-.39 1.038-.702 1.446l-.104.135-1.07-1.069.073-.103c.139-.196.24-.387.302-.594A1.95 1.95 0 0 1 8.25 4.2m1.95-1.65a1.65 1.65 0 0 0-.597 3.189l.12.047-.028.126c-.06.26-.165.49-.31.715l.648.648a3.2 3.2 0 0 0 .567-1.302l.022-.123h2.758l.023.122c.188.985.846 1.638 1.49 2.272l.312.306h-3.898l.9.9h3.81l.045.059q.11.144.216.3l.007.01.015.026a3.93 3.93 0 0 1 .638 2.462.5.5 0 0 0 0 .084q.012.102.012.209v1.593l.9.9V12.6a3 3 0 0 0-.01-.25l-.002-.012v-.012a4.823 4.823 0 0 0-.756-2.928l-.005-.01-.023-.038c-.468-.702-1.003-1.23-1.463-1.683l-.013-.012c-.647-.637-1.11-1.11-1.268-1.742l-.032-.128.123-.048A1.65 1.65 0 0 0 13.8 2.55zm-6.882.132a.45.45 0 1 0-.636.636l5.07 5.07-.107.106C6.722 9.417 6.15 10.644 6.15 12q0 .164.011.326v.023q-.01.125-.011.251v6a2.85 2.85 0 0 0 4.275 2.469l.075-.044.075.044c.42.242.906.381 1.425.381s1.006-.139 1.425-.381l.075-.044.075.044a2.85 2.85 0 0 0 4.266-2.241l.026-.325 2.815 2.815a.45.45 0 0 0 .636-.636zM2.47 2.47a.75.75 0 0 1 1.06 0l18 18a.75.75 0 1 1-1.06 1.06l-2.37-2.37a3.15 3.15 0 0 1-4.6 2.21c-.446.242-.958.38-1.5.38a3.14 3.14 0 0 1-1.5-.38 3.15 3.15 0 0 1-4.65-2.77v-6q0-.135.011-.265A5 5 0 0 1 5.85 12c0-1.391.566-2.65 1.478-3.611L2.47 3.53a.75.75 0 0 1 0-1.06m7.73 1.28a.45.45 0 1 0 0 .9h3.6a.45.45 0 0 0 0-.9zm-.75.45a.75.75 0 0 1 .75-.75h3.6a.75.75 0 0 1 0 1.5h-3.6a.75.75 0 0 1-.75-.75M7.99 9.45h.824l7.5 7.5H7.05V12.6q0-.105.011-.21a.5.5 0 0 0 .001-.083 3.98 3.98 0 0 1 .882-2.801zm.145.3a3.67 3.67 0 0 0-.774 2.534 1 1 0 0 1-.002.138q-.009.088-.009.178v4.05h8.24l-6.9-6.9zm-1.085 8.1h9.9v.75a1.95 1.95 0 0 1-3.168 1.522.45.45 0 0 0-.563 0A1.94 1.94 0 0 1 12 20.55a1.94 1.94 0 0 1-1.219-.428.45.45 0 0 0-.562 0A1.95 1.95 0 0 1 7.05 18.6zm.3.3v.45a1.65 1.65 0 0 0 2.68 1.288.75.75 0 0 1 .94 0c.282.227.64.362 1.03.362a1.64 1.64 0 0 0 1.03-.362.75.75 0 0 1 .94 0 1.65 1.65 0 0 0 2.68-1.288v-.45z" clip-rule="evenodd"/></svg>