<svg xmlns="http://www.w3.org/2000/svg" width="24" height="24" fill="none"><path fill="#04071E" d="m12.748 4.001-.001.002h7.498c.967 0 1.75.784 1.75 1.75V18.25a1.75 1.75 0 0 1-1.75 1.75h-8.997l-.001-.003H3.75A1.75 1.75 0 0 1 2 18.246V5.751c0-.967.784-1.75 1.75-1.75zm7.497 1.502h-7.497V18.5h7.497a.25.25 0 0 0 .25-.25V5.752a.25.25 0 0 0-.25-.25m-8.997-.002H3.75a.25.25 0 0 0-.25.25v12.495c0 .138.112.25.25.25h7.498zm3.49 9.999h1.5a.75.75 0 0 1 .102 1.493L16.24 17h-1.5a.75.75 0 0 1-.102-1.493zh1.5zm-6.997 0h1.502a.75.75 0 0 1 .102 1.493L9.243 17H7.74a.75.75 0 0 1-.102-1.493zh1.502z"/></svg>