<svg xmlns="http://www.w3.org/2000/svg" width="24" height="24" fill="none"><path fill="#04071E" d="M17.17 9.415a.75.75 0 0 0-1.341 0l-2.25 4.5a.75.75 0 0 0 .67 1.085h4.5a.75.75 0 0 0 .672-1.085zM15.464 13.5l1.037-2.073 1.036 2.073zM7.5 9a.75.75 0 0 1 .67.415l2.25 4.5A.75.75 0 0 1 9.75 15h-4.5a.75.75 0 0 1-.671-1.085l2.25-4.5A.75.75 0 0 1 7.499 9m0 2.427L6.463 13.5h2.073zm5.254-7.426v.002h7.498c.966 0 1.75.784 1.75 1.75V18.25a1.75 1.75 0 0 1-1.75 1.75h-8.998v-.003H3.757a1.75 1.75 0 0 1-1.75-1.75V5.751c0-.966.783-1.75 1.75-1.75zm7.498 1.503h-7.498v12.995h7.498a.25.25 0 0 0 .25-.25V5.754a.25.25 0 0 0-.25-.25M11.254 5.5H3.757a.25.25 0 0 0-.25.25v12.495c0 .138.112.25.25.25h7.497z"/></svg>