<svg xmlns="http://www.w3.org/2000/svg" width="24" height="24" fill="none"><path fill="#04071E" d="m12.748 4.001-.001.002h7.498c.967 0 1.75.784 1.75 1.75V18.25a1.75 1.75 0 0 1-1.75 1.75h-8.997l-.001-.003H3.75A1.75 1.75 0 0 1 2 18.246V5.751c0-.966.784-1.75 1.75-1.75zm7.497 1.503h-7.497v12.995h7.497a.25.25 0 0 0 .25-.25V5.754a.25.25 0 0 0-.25-.25M11.248 5.5H3.75a.25.25 0 0 0-.25.25v12.495c0 .138.112.25.25.25h7.498zM16.5 7c.38 0 .695.282.745.647l.007.101v6.698l.964-.96a.755.755 0 0 1 .98-.072l.084.073a.746.746 0 0 1 .072.974l-.072.084-2.248 2.237-.038.036-.063.049-.067.041-.06.03-.102.036-.062.014-.093.012h-.094l-.092-.011-.096-.025-.112-.047-.077-.046-.108-.089-2.248-2.237a.746.746 0 0 1 0-1.058.755.755 0 0 1 .98-.073l.084.073.963.959V7.748a.75.75 0 0 1 .553-.721l.098-.02z"/></svg>