<svg xmlns="http://www.w3.org/2000/svg" width="24" height="24" fill="none"><path fill="#04071E" d="M17.768 7.803a.75.75 0 0 1-1.061 1.06l-1.57-1.57a.75.75 0 0 1 1.06-1.06zm-8.373 9.433a.75.75 0 0 0 0-1.061l-1.57-1.57a.75.75 0 1 0-1.06 1.06l1.57 1.57a.75.75 0 0 0 1.06 0M20.94 3.084a1.94 1.94 0 0 0-2.746 0l-.67.671-.208-.207a2.413 2.413 0 0 0-3.661.291 2.936 2.936 0 0 0-2.613 4.963l.717.717-2.239 2.24-.717-.718a2.936 2.936 0 0 0-4.963 2.613q-.154.111-.291.249a2.413 2.413 0 0 0 0 3.412l.207.208-.692.692a1.941 1.941 0 0 0 2.745 2.745l.692-.692.208.207a2.413 2.413 0 0 0 3.66-.29 2.936 2.936 0 0 0 2.613-4.963l-.716-.718 2.239-2.24.717.718a2.936 2.936 0 0 0 4.963-2.613q.154-.111.291-.249a2.413 2.413 0 0 0 0-3.412l-.207-.207.67-.671a1.94 1.94 0 0 0 0-2.746M19.207 5.44l-.624-.624.671-.67a.441.441 0 1 1 .624.623zm-5.764 5.764-2.24 2.24-.623-.625 2.239-2.239zM5.44 19.207l-.693.693a.441.441 0 0 1-.624-.624l.693-.692zM14.963 4.61a.913.913 0 0 1 1.292 0l3.16 3.16a.913.913 0 0 1-.362 1.513.75.75 0 0 0-.45 1.025 1.437 1.437 0 0 1-2.322 1.614l-4.18-4.18a1.436 1.436 0 0 1 1.615-2.321.75.75 0 0 0 1.025-.45.9.9 0 0 1 .222-.361M5.71 12.102c.561-.56 1.47-.56 2.031 0l4.18 4.18a1.436 1.436 0 0 1-1.614 2.322.75.75 0 0 0-1.025.45.913.913 0 0 1-1.514.361l-3.16-3.16a.913.913 0 0 1 .362-1.514.75.75 0 0 0 .45-1.025 1.44 1.44 0 0 1 .29-1.614"/></svg>