<svg xmlns="http://www.w3.org/2000/svg" width="24" height="24" fill="none"><path fill="#04071E" d="M10.25 10a1.25 1.25 0 1 0-2.499 0 1.25 1.25 0 0 0 2.499 0m6 0a1.25 1.25 0 1 0-2.499 0 1.25 1.25 0 0 0 2.499 0m-6.114 5.107a.75.75 0 1 0-.772 1.286c.767.46 1.72.67 2.636.67s1.87-.21 2.636-.67a.75.75 0 0 0-.772-1.286c-.483.29-1.154.456-1.864.456s-1.38-.166-1.864-.456m11.866-3.106c0-5.524-4.478-10.002-10.002-10.002S1.998 6.477 1.998 12.001c0 5.523 4.478 10.001 10.002 10.001s10.002-4.478 10.002-10.001M3.498 12a8.502 8.502 0 1 1 17.004 0 8.502 8.502 0 0 1-17.004 0"/></svg>