<svg xmlns="http://www.w3.org/2000/svg" width="24" height="24" fill="none"><path fill="#04071E" d="M12 2c-.667 0-1.32.065-1.95.19a.75.75 0 0 0 .29 1.472 8.55 8.55 0 0 1 3.32 0 .75.75 0 0 0 .29-1.472A10 10 0 0 0 12 2M7.278 4.931a.75.75 0 0 0-.835-1.246 10 10 0 0 0-2.758 2.758.75.75 0 1 0 1.246.835A8.6 8.6 0 0 1 7.278 4.93m10.279-1.246a.75.75 0 0 0-.835 1.246 8.6 8.6 0 0 1 2.347 2.347.75.75 0 1 0 1.246-.835 10 10 0 0 0-2.758-2.758m4.253 6.364a.75.75 0 0 0-1.472.291 8.5 8.5 0 0 1 0 3.32.75.75 0 1 0 1.472.29 10.05 10.05 0 0 0 0-3.9m-18.148.291a.75.75 0 0 0-1.472-.29 10.05 10.05 0 0 0 0 3.9.75.75 0 0 0 1.472-.29 8.55 8.55 0 0 1 0-3.32m1.27 6.382a.75.75 0 0 0-1.247.835 10 10 0 0 0 2.758 2.758.75.75 0 0 0 .835-1.246 8.6 8.6 0 0 1-2.347-2.347m15.383.835a.75.75 0 0 0-1.246-.835 8.6 8.6 0 0 1-2.347 2.347.75.75 0 1 0 .835 1.246 10 10 0 0 0 2.758-2.758m-9.975 2.781a.75.75 0 1 0-.29 1.472 10.05 10.05 0 0 0 3.9 0 .75.75 0 0 0-.29-1.472 8.5 8.5 0 0 1-3.32 0M9.5 11a1 1 0 1 0 0-2 1 1 0 0 0 0 2m6-1a1 1 0 1 1-2 0 1 1 0 0 1 2 0m-6.177 4.255a.75.75 0 1 0-1.146.968A4.99 4.99 0 0 0 12 17a5 5 0 0 0 3.823-1.777.75.75 0 0 0-1.147-.968A3.5 3.5 0 0 1 12 15.5a3.5 3.5 0 0 1-2.677-1.245"/></svg>