<svg xmlns="http://www.w3.org/2000/svg" width="24" height="24" fill="none"><path fill="#04071E" d="M10.25 10a1.25 1.25 0 1 0-2.499 0 1.25 1.25 0 0 0 2.499 0m6 0a1.25 1.25 0 1 0-2.499 0 1.25 1.25 0 0 0 2.499 0m-.5 4c-.85 0-1.757.214-2.541.52-.777.302-1.514.724-1.99 1.2a.75.75 0 1 0 1.061 1.06c.275-.274.803-.602 1.473-.862.66-.257 1.379-.418 1.997-.418h.6a.75.75 0 0 0 0-1.5zm6.252-2C22.002 6.478 17.524 2 12 2S1.998 6.477 1.998 12.001c0 5.523 4.478 10.001 10.002 10.001s10.002-4.478 10.002-10.001M3.498 12a8.502 8.502 0 1 1 17.004 0 8.502 8.502 0 0 1-17.004 0"/></svg>