<svg xmlns="http://www.w3.org/2000/svg" width="24" height="24" fill="none"><path fill="#04071E" d="M2.22 2.22a.75.75 0 0 1 1.06 0l18.5 18.5a.75.75 0 0 1-1.06 1.06L2.22 3.28a.75.75 0 0 1 0-1.06"/><path fill="#04071E" d="M5.414 4.475A9.98 9.98 0 0 0 2 12c0 5.523 4.477 10 10 10 3 0 5.692-1.321 7.525-3.414l-1.063-1.063A8.5 8.5 0 1 1 6.478 5.539z"/><path fill="#04071E" d="M9.94 9H7.77a.75.75 0 0 0 0 1.5h3.67zM13.56 10.5 12.06 9h4.198a.75.75 0 0 1 0 1.5zM14.44 13.5H7.77a.75.75 0 0 0 0 1.5h8.17zM16.719 13.658l.13.131a.8.8 0 0 0-.13-.13"/><path fill="#04071E" d="M19.344 16.283A8.5 8.5 0 0 0 7.717 4.656l-1.091-1.09A9.95 9.95 0 0 1 12 2c5.523 0 10 4.477 10 10a9.95 9.95 0 0 1-1.565 5.374z"/></svg>