<svg xmlns="http://www.w3.org/2000/svg" width="24" height="24" fill="none"><path fill="#04071E" d="M6 5.4a1.8 1.8 0 0 1 1.8-1.8h8.4A1.8 1.8 0 0 1 18 5.4v3h-1.2v-3a.6.6 0 0 0-.6-.6H7.8a.6.6 0 0 0-.6.6v4.2h6.6c-.262.349-.45.757-.54 1.2H6A1.2 1.2 0 0 0 4.8 12v6.6a.6.6 0 0 0 .6.6h7.86c.09.443.278.851.54 1.2H5.4a1.8 1.8 0 0 1-1.8-1.8V12A2.4 2.4 0 0 1 6 9.6zm8.4 6a1.8 1.8 0 0 1 1.8-1.8h2.4a1.8 1.8 0 0 1 1.8 1.8v7.2a1.8 1.8 0 0 1-1.8 1.8h-2.4a1.8 1.8 0 0 1-1.8-1.8zm1.8-.6a.6.6 0 0 0-.6.6v7.2a.6.6 0 0 0 .6.6h2.4a.6.6 0 0 0 .6-.6v-7.2a.6.6 0 0 0-.6-.6zM6.75 12a.75.75 0 1 1 0 1.5.75.75 0 0 1 0-1.5m0 2.7a.75.75 0 1 1 0 1.5.75.75 0 0 1 0-1.5m3.45.9a.75.75 0 1 0-1.5 0 .75.75 0 0 0 1.5 0M9.45 12a.75.75 0 1 1 0 1.5.75.75 0 0 1 0-1.5"/><path fill="#04071E" fill-rule="evenodd" d="M7.8 3.75A1.65 1.65 0 0 0 6.15 5.4v4.35H6A2.25 2.25 0 0 0 3.75 12v6.6c0 .911.739 1.65 1.65 1.65h8.116a3.1 3.1 0 0 1-.376-.9H5.4a.75.75 0 0 1-.75-.75V12c0-.746.604-1.35 1.35-1.35h7.14c.079-.322.207-.625.376-.9H7.05V5.4a.75.75 0 0 1 .75-.75h8.4a.75.75 0 0 1 .75.75v2.85h.9V5.4a1.65 1.65 0 0 0-1.65-1.65zM5.85 5.4A1.95 1.95 0 0 1 7.8 3.45h8.4a1.95 1.95 0 0 1 1.95 1.95v3.15h-1.5V5.4a.45.45 0 0 0-.45-.45H7.8a.45.45 0 0 0-.45.45v4.05h6.75l-.18.24a2.8 2.8 0 0 0-.513 1.14l-.024.12H6c-.58 0-1.05.47-1.05 1.05v6.6c0 .248.201.45.45.45h7.983l.024.12c.085.421.264.808.513 1.14l.18.24H5.4a1.95 1.95 0 0 1-1.95-1.95V12a2.55 2.55 0 0 1 2.4-2.546zM16.2 9.75a1.65 1.65 0 0 0-1.65 1.65v7.2c0 .911.739 1.65 1.65 1.65h2.4a1.65 1.65 0 0 0 1.65-1.65v-7.2a1.65 1.65 0 0 0-1.65-1.65zm-1.95 1.65a1.95 1.95 0 0 1 1.95-1.95h2.4a1.95 1.95 0 0 1 1.95 1.95v7.2a1.95 1.95 0 0 1-1.95 1.95h-2.4a1.95 1.95 0 0 1-1.95-1.95zm1.2 0a.75.75 0 0 1 .75-.75h2.4a.75.75 0 0 1 .75.75v7.2a.75.75 0 0 1-.75.75h-2.4a.75.75 0 0 1-.75-.75zm.75-.45a.45.45 0 0 0-.45.45v7.2c0 .248.201.45.45.45h2.4a.45.45 0 0 0 .45-.45v-7.2a.45.45 0 0 0-.45-.45zm-9.45 1.2a.6.6 0 1 0 0 1.2.6.6 0 0 0 0-1.2m-.9.6a.9.9 0 1 1 1.8 0 .9.9 0 0 1-1.8 0m3.6-.6a.6.6 0 1 0 0 1.2.6.6 0 0 0 0-1.2m-.9.6a.9.9 0 1 1 1.8 0 .9.9 0 0 1-1.8 0m-1.8 2.1a.6.6 0 1 0 0 1.2.6.6 0 0 0 0-1.2m-.9.6a.9.9 0 1 1 1.8 0 .9.9 0 0 1-1.8 0m2.7.15a.9.9 0 1 1 1.8 0 .9.9 0 0 1-1.8 0m.9-.6a.6.6 0 1 0 0 1.2.6.6 0 0 0 0-1.2" clip-rule="evenodd"/></svg>