<svg xmlns="http://www.w3.org/2000/svg" width="24" height="24" fill="none"><path fill="#04071E" d="m19.108 19.991 1.825 1.826a.625.625 0 1 0 .884-.884L3.067 2.183a.625.625 0 0 0-.884.884l1.362 1.361A3.12 3.12 0 0 0 2 7.125v9.75C2 18.601 3.4 20 5.125 20h13.75q.117 0 .233-.009m-1.242-1.241H5.125a1.875 1.875 0 0 1-1.875-1.875v-9.75c0-.809.512-1.498 1.23-1.761zM22 16.875c0 .787-.291 1.506-.771 2.056l-.888-.887c.256-.32.409-.727.409-1.169v-9.75c0-1.036-.84-1.875-1.875-1.875H7.548L6.298 4h12.577C20.601 4 22 5.4 22 7.125zm-3-.625c0 .13-.033.253-.092.36l-1.28-1.28a.75.75 0 0 1 1.372.42zM5 7.75a.75.75 0 1 1 1.5 0v.5a.75.75 0 0 1-1.5 0zM18.25 7a.75.75 0 0 0-.75.75v.5a.75.75 0 0 0 1.5 0v-.5a.75.75 0 0 0-.75-.75M5 11.75a.75.75 0 0 1 1.5 0v.5a.75.75 0 0 1-1.5 0zM18.25 11a.75.75 0 0 0-.75.75v.5a.75.75 0 0 0 1.5 0v-.5a.75.75 0 0 0-.75-.75M5 15.75a.75.75 0 0 1 1.5 0v.5a.75.75 0 0 1-1.5 0z"/><path fill="#04071E" fill-rule="evenodd" d="M2.077 2.077a.775.775 0 0 1 1.096 0l18.75 18.75a.775.775 0 0 1-1.096 1.096l-1.778-1.778a3 3 0 0 1-.174.005H5.125a3.275 3.275 0 0 1-3.275-3.275v-9.75c0-1.136.578-2.136 1.455-2.723L2.077 3.173a.775.775 0 0 1 0-1.096m.884.212a.475.475 0 1 0-.672.672l1.362 1.361a.15.15 0 0 1-.03.236A2.97 2.97 0 0 0 2.15 7.125v9.75a2.975 2.975 0 0 0 2.975 2.975h13.75q.112 0 .222-.008a.15.15 0 0 1 .117.043l1.825 1.826a.475.475 0 0 0 .672-.672zm3.198 1.654a.15.15 0 0 1 .139-.093h12.577a3.275 3.275 0 0 1 3.275 3.275v9.75c0 .825-.305 1.579-.808 2.155a.15.15 0 0 1-.22.007l-.887-.887a.15.15 0 0 1-.01-.2c.234-.295.375-.668.375-1.075v-9.75c0-.953-.772-1.725-1.725-1.725H7.548a.15.15 0 0 1-.106-.044l-1.25-1.25a.15.15 0 0 1-.033-.163m.5.207.95.95h11.266c1.118 0 2.025.907 2.025 2.025v9.75c0 .429-.133.827-.361 1.154l.68.68a2.96 2.96 0 0 0 .631-1.834v-9.75a2.975 2.975 0 0 0-2.975-2.975zM4.43 5.223a.15.15 0 0 1 .157.035l13.386 13.386a.15.15 0 0 1-.106.256H5.125A2.025 2.025 0 0 1 3.1 16.875v-9.75c0-.874.553-1.618 1.328-1.902m.015.317A1.73 1.73 0 0 0 3.4 7.125v9.75c0 .953.772 1.725 1.725 1.725h12.379L6.65 7.746v.504a.9.9 0 0 1-1.8 0v-.5a.9.9 0 0 1 .9-.9h.004zM5.75 7.15a.6.6 0 0 0-.6.6v.5a.6.6 0 0 0 1.2 0v-.5a.6.6 0 0 0-.6-.6m11.6.6a.9.9 0 1 1 1.8 0v.5a.9.9 0 0 1-1.8 0zm.9-.6a.6.6 0 0 0-.6.6v.5a.6.6 0 1 0 1.2 0v-.5a.6.6 0 0 0-.6-.6m-12.5 4a.6.6 0 0 0-.6.6v.5a.6.6 0 0 0 1.2 0v-.5a.6.6 0 0 0-.6-.6m-.9.6a.9.9 0 1 1 1.8 0v.5a.9.9 0 0 1-1.8 0zm12.5 0a.9.9 0 1 1 1.8 0v.5a.9.9 0 0 1-1.8 0zm.9-.6a.6.6 0 0 0-.6.6v.5a.6.6 0 0 0 1.2 0v-.5a.6.6 0 0 0-.6-.6m-12.5 4a.6.6 0 0 0-.6.6v.5a.6.6 0 0 0 1.2 0v-.5a.6.6 0 0 0-.6-.6m-.9.6a.9.9 0 1 1 1.8 0v.5a.9.9 0 0 1-1.8 0zm12.98-.43 1.014 1.014a1 1 0 0 0 .006-.084v-.5a.6.6 0 0 0-1.02-.43m-.326-.074a.9.9 0 0 1 1.646.504v.5c0 .156-.04.304-.11.432a.15.15 0 0 1-.238.034l-1.28-1.28a.15.15 0 0 1-.018-.19" clip-rule="evenodd"/></svg>