<svg xmlns="http://www.w3.org/2000/svg" width="24" height="24" fill="none"><path fill="#04071E" d="M11.019 6H4.5a.75.75 0 0 0 0 1.5h6.576A6.6 6.6 0 0 1 11.02 6M14.996 12.5A6.5 6.5 0 0 1 12.81 11H7.5a.75.75 0 0 0 0 1.5zM14.25 16.75a.75.75 0 0 0-.75-.75h-3a.75.75 0 0 0 0 1.5h3a.75.75 0 0 0 .75-.75"/><path fill="#04071E" fill-rule="evenodd" d="M17.5 1a5.5 5.5 0 1 1 0 11 5.5 5.5 0 0 1 0-11m.501 8.504V7h2.496a.5.5 0 0 0 0-1H18V3.5a.5.5 0 0 0-1 0V6h-2.504a.5.5 0 0 0 0 1H17v2.504a.5.5 0 0 0 1 0" clip-rule="evenodd"/></svg>