<svg xmlns="http://www.w3.org/2000/svg" width="24" height="24" fill="none"><path fill="#04071E" d="M14.858 12.158c.56.573.877 1.268 1.106 2.228l.1.457.179.946c.089.445.158.692.254.908q.449 1.011 1.595 2.066a.75.75 0 1 1-1.013 1.105q-1.363-1.245-1.952-2.56c-.149-.334-.24-.65-.346-1.18l-.21-1.1-.014-.06c-.18-.85-.404-1.384-.772-1.762-.713-.73-2.357-.537-2.797.158-.562.889-.705 2.396-.259 3.916q.517 1.761 1.372 3.467a.75.75 0 1 1-1.34.672 22.3 22.3 0 0 1-1.471-3.716c-.562-1.913-.376-3.865.43-5.14.953-1.507 3.742-1.835 5.138-.405m-2.366 2.315a.75.75 0 0 1 .775.725 7.93 7.93 0 0 0 1.444 4.304l.196.267.3.39a.75.75 0 0 1-1.114.997l-.074-.083-.3-.39a9.43 9.43 0 0 1-1.951-5.435.75.75 0 0 1 .724-.775M8.783 9.391c2.112-1.564 4.874-1.48 6.733-.285.93.598 1.634 1.295 2.102 2.094a.75.75 0 0 1-1.294.758c-.342-.583-.878-1.113-1.62-1.59-1.362-.876-3.45-.94-5.028.228-1.639 1.213-2.329 3.291-2.123 5.482q.171 1.84 1.113 3.724a.75.75 0 1 1-1.342.67Q6.26 18.347 6.06 16.219c-.25-2.67.61-5.263 2.724-6.827m9.18 4.3a.75.75 0 0 1 .787.711c.031.603.18 1.096.442 1.493.22.333.414.525.563.6l.061.024a.75.75 0 1 1-.434 1.436c-.547-.165-1.017-.588-1.443-1.235-.415-.63-.642-1.382-.687-2.24a.75.75 0 0 1 .71-.788M10.51 6.103a.75.75 0 0 1-.377.992c-1.84.828-3.194 2.008-4.083 3.548-1.113 1.928-1.414 4.182-1.164 6.08a.75.75 0 0 1-1.488.196c-.288-2.2.055-4.778 1.353-7.026C5.804 8.072 7.4 6.68 9.519 5.726a.75.75 0 0 1 .992.376m2.343-.787c1.83.038 3.652.878 5.459 2.486 1.823 1.622 2.921 3.827 3.294 6.58a.75.75 0 1 1-1.486.202c-.327-2.412-1.261-4.287-2.805-5.661-1.56-1.387-3.055-2.078-4.492-2.107a.75.75 0 1 1 .03-1.5m-6.871.014a.75.75 0 0 1-.061 1.06q-.403.357-.844.854-.415.468-.846 1.213a.75.75 0 1 1-1.299-.75 9 9 0 0 1 1.023-1.458q.497-.56.968-.98a.75.75 0 0 1 1.059.061m6.585-2.966c2.193.103 4.03.703 5.53 1.861a.75.75 0 0 1-.917 1.188c-1.245-.962-2.785-1.461-4.683-1.55-1.903-.09-3.461.284-4.714.979-.384.213-.815.106-1.032-.247a.74.74 0 0 1 .247-1.031c1.535-.904 3.382-1.302 5.57-1.2"/></svg>