<svg xmlns="http://www.w3.org/2000/svg" width="24" height="24" fill="none"><path fill="#04071E" d="M3 3.748a.75.75 0 0 1 .75-.75h16.504a.75.75 0 0 1 .6 1.2L16.69 9.75l.939 1.252L17.5 11c-.552 0-1.087.069-1.599.198l-.749-.999a.75.75 0 0 1 0-.9l3.602-4.8H4.5V15h6.998q-.298.712-.422 1.5L4.5 16.5v4.75a.75.75 0 0 1-.648.743L3.75 22a.75.75 0 0 1-.743-.648L3 21.25z"/><path fill="#04071E" d="M17.5 12a5.5 5.5 0 1 1 0 11 5.5 5.5 0 0 1 0-11m2 5.5h-2V15a.5.5 0 0 0-1 0v3a.5.5 0 0 0 .5.5h2.5a.5.5 0 0 0 0-1"/></svg>