<svg xmlns="http://www.w3.org/2000/svg" width="24" height="24" fill="none"><path fill="#04071E" d="M6 4.2a.6.6 0 0 1 .6-.6h12a.6.6 0 0 1 .6.6v12a.6.6 0 0 1-.6.6H7.2V21A.6.6 0 0 1 6 21zm1.2 11.4h3.6V12h3.6v3.6H18V12h-3.6V8.4H18V4.8h-3.6v3.6h-3.6V4.8H7.2v3.6h3.6V12H7.2z"/><path fill="#04071E" fill-rule="evenodd" d="M6.6 3.75a.45.45 0 0 0-.45.45V21a.45.45 0 0 0 .9 0v-4.35H18.6a.45.45 0 0 0 .45-.45v-12a.45.45 0 0 0-.45-.45zm-.75.45a.75.75 0 0 1 .75-.75h12a.75.75 0 0 1 .75.75v12a.75.75 0 0 1-.75.75H7.35V21a.75.75 0 0 1-1.5 0zm1.2.45h3.9v3.6h3.3v-3.6h3.9v3.9h-3.6v3.3h3.6v3.9h-3.9v-3.6h-3.3v3.6h-3.9v-3.9h3.6v-3.3h-3.6zm3.6 3.6v-3.3h-3.3v3.3zm.3.3v3.3h3.3v-3.3zm-.3 3.6h-3.3v3.3h3.3zm3.9 0v3.3h3.3v-3.3zm0-3.9h3.3v-3.3h-3.3z" clip-rule="evenodd"/></svg>