<svg xmlns="http://www.w3.org/2000/svg" width="24" height="24" fill="none"><path fill="#04071E" d="M7.43 3.325A1.275 1.275 0 0 1 8.656 2.4h6.298c.87 0 1.485.853 1.21 1.678l-.003.009L14.647 8.4h3.077c1.135 0 1.689 1.372.92 2.174l-.005.004-.284.29a6.7 6.7 0 0 0-1.648-.032l1.072-1.095a.07.07 0 0 0 .02-.037.1.1 0 0 0-.008-.054.1.1 0 0 0-.03-.04q-.007-.009-.037-.01H13.8a.6.6 0 0 1-.566-.799l1.791-5.105a.075.075 0 0 0-.072-.096H8.657a.075.075 0 0 0-.072.054l-2.7 9.449a.075.075 0 0 0 .072.095h2.29a.6.6 0 0 1 .581.746l-1.59 6.36a.1.1 0 0 0-.004.035q.001.008.004.013a.1.1 0 0 0 .037.035c.02.012.04.014.05.013l.012-.004a.1.1 0 0 0 .028-.022l.004-.005 3.455-3.527a6.7 6.7 0 0 0 .066 1.648l-2.662 2.717c-.905.94-2.47.072-2.154-1.194l1.404-5.615h-1.52c-.848 0-1.46-.81-1.227-1.625zM22.8 17.4a5.4 5.4 0 1 1-10.8 0 5.4 5.4 0 0 1 10.8 0m-2.744-.524-3.565-1.98a.6.6 0 0 0-.891.524v3.96a.6.6 0 0 0 .891.525l3.565-1.98a.6.6 0 0 0 0-1.05"/></svg>