<svg xmlns="http://www.w3.org/2000/svg" width="24" height="24" fill="none"><path fill="#04071E" d="M2.4 6.6a3 3 0 0 1 3-3h2.979a2.1 2.1 0 0 1 1.485.615L11.648 6H18.6a3 3 0 0 1 3 3v3.41a3.6 3.6 0 0 0-1.2-1.128V9a1.8 1.8 0 0 0-1.8-1.8h-6.952L9.777 9.073a1.8 1.8 0 0 1-1.273.527H3.6v7.8a1.8 1.8 0 0 0 1.8 1.8h7.86q-.06.292-.06.6 0 .3.046.6H5.4a3 3 0 0 1-3-3zm3-1.8a1.8 1.8 0 0 0-1.8 1.8v1.8h4.903a.6.6 0 0 0 .424-.176L10.552 6.6 9.015 5.064A.9.9 0 0 0 8.38 4.8zM21 14.4a2.4 2.4 0 1 1-4.8 0 2.4 2.4 0 0 1 4.8 0m1.8 5.4c0 1.494-1.2 3-4.2 3s-4.2-1.5-4.2-3a1.8 1.8 0 0 1 1.8-1.8H21a1.8 1.8 0 0 1 1.8 1.8"/><path fill="#04071E" fill-rule="evenodd" d="M5.4 3.75A2.85 2.85 0 0 0 2.55 6.6v10.8a2.85 2.85 0 0 0 2.85 2.85h7.675q-.025-.225-.025-.45 0-.23.032-.45H5.4a1.95 1.95 0 0 1-1.95-1.95V9.45h5.053a1.65 1.65 0 0 0 1.167-.483l1.916-1.917H18.6A1.95 1.95 0 0 1 20.55 9v2.196c.34.207.643.466.9.767V9a2.85 2.85 0 0 0-2.85-2.85h-7.014L9.758 4.32a1.95 1.95 0 0 0-1.38-.571zM2.25 6.6A3.15 3.15 0 0 1 5.4 3.45h2.979a2.25 2.25 0 0 1 1.59.659l1.742 1.74H18.6A3.15 3.15 0 0 1 21.75 9v3.906l-.275-.414a3.5 3.5 0 0 0-1.15-1.08l-.075-.044V9a1.65 1.65 0 0 0-1.65-1.65h-6.89L9.883 9.179a1.95 1.95 0 0 1-1.38.57H3.75v7.651c0 .911.739 1.65 1.65 1.65h8.044l-.037.18a3 3 0 0 0-.057.57q0 .29.044.577l.027.173H5.4a3.15 3.15 0 0 1-3.15-3.15zm1.2 0A1.95 1.95 0 0 1 5.4 4.65h2.979c.278 0 .545.11.742.307L10.764 6.6l-1.73 1.73a.75.75 0 0 1-.531.22H3.45zM5.4 4.95A1.65 1.65 0 0 0 3.75 6.6v1.65h4.753a.45.45 0 0 0 .318-.132L10.34 6.6 8.91 5.17a.75.75 0 0 0-.53-.22zm13.2 7.2a2.25 2.25 0 1 0 0 4.5 2.25 2.25 0 0 0 0-4.5m-2.55 2.25a2.55 2.55 0 1 1 5.1 0 2.55 2.55 0 0 1-5.1 0m.15 3.75a1.65 1.65 0 0 0-1.65 1.65c0 .708.282 1.415.921 1.947.64.534 1.653.903 3.129.903s2.488-.37 3.129-.905a2.49 2.49 0 0 0 .921-1.945A1.65 1.65 0 0 0 21 18.15zm-1.95 1.65a1.95 1.95 0 0 1 1.95-1.95H21a1.95 1.95 0 0 1 1.95 1.95 2.79 2.79 0 0 1-1.029 2.175c-.71.592-1.797.975-3.321.975s-2.612-.381-3.321-.972A2.79 2.79 0 0 1 14.25 19.8" clip-rule="evenodd"/></svg>