<svg xmlns="http://www.w3.org/2000/svg" width="24" height="24" fill="none"><path fill="#04071E" d="M5.4 3.6a3 3 0 0 0-3 3v10.8a3 3 0 0 0 3 3h5.4v-1.2H5.4a1.8 1.8 0 0 1-1.8-1.8V9.6h4.903a1.8 1.8 0 0 0 1.273-.527L11.649 7.2H18.6A1.8 1.8 0 0 1 20.4 9v2.4a3 3 0 0 1 1.15 1.85l.05.01V9a3 3 0 0 0-3-3h-6.952L9.865 4.215A2.1 2.1 0 0 0 8.379 3.6zm-1.8 3a1.8 1.8 0 0 1 1.8-1.8h2.979a.9.9 0 0 1 .636.264L10.552 6.6 8.927 8.224a.6.6 0 0 1-.424.176H3.6zm10.8 7.2v.6h-.6a1.8 1.8 0 0 0-1.8 1.8V21a1.8 1.8 0 0 0 1.8 1.8H21a1.8 1.8 0 0 0 1.8-1.8v-4.8a1.8 1.8 0 0 0-1.8-1.8h-.6v-.6a1.8 1.8 0 0 0-1.8-1.8h-2.4a1.8 1.8 0 0 0-1.8 1.8m1.8-.6h2.4a.6.6 0 0 1 .6.6v.6h-3.6v-.6a.6.6 0 0 1 .6-.6"/><path fill="#04071E" fill-rule="evenodd" d="M2.25 6.6A3.15 3.15 0 0 1 5.4 3.45h2.979a2.25 2.25 0 0 1 1.59.659l1.742 1.74H18.6A3.15 3.15 0 0 1 21.75 9v4.444l-.18-.037-.048-.01-.101-.018-.019-.101a2.85 2.85 0 0 0-1.092-1.758l-.06-.045V9a1.65 1.65 0 0 0-1.65-1.65h-6.89L9.883 9.179a1.95 1.95 0 0 1-1.38.57H3.75v7.651c0 .911.739 1.65 1.65 1.65h5.55v1.5H5.4a3.15 3.15 0 0 1-3.15-3.15zM5.4 3.75A2.85 2.85 0 0 0 2.55 6.6v10.8a2.85 2.85 0 0 0 2.85 2.85h5.25v-.9H5.4a1.95 1.95 0 0 1-1.95-1.95V9.45h5.053a1.65 1.65 0 0 0 1.167-.483l1.916-1.917H18.6A1.95 1.95 0 0 1 20.55 9v2.326c.38.3.69.687.9 1.13V9a2.85 2.85 0 0 0-2.85-2.85h-7.014L9.758 4.32a1.95 1.95 0 0 0-1.38-.571zm0 1.2A1.65 1.65 0 0 0 3.75 6.6v1.65h4.753a.45.45 0 0 0 .318-.132L10.34 6.6 8.91 5.17a.75.75 0 0 0-.53-.22zM3.45 6.6A1.95 1.95 0 0 1 5.4 4.65h2.979c.278 0 .545.11.742.307L10.764 6.6l-1.73 1.73a.75.75 0 0 1-.531.22H3.45zm10.8 7.2a1.95 1.95 0 0 1 1.95-1.95h2.4a1.95 1.95 0 0 1 1.95 1.95v.45H21a1.95 1.95 0 0 1 1.95 1.95V21A1.95 1.95 0 0 1 21 22.95h-7.2A1.95 1.95 0 0 1 11.85 21v-4.8a1.95 1.95 0 0 1 1.95-1.95h.45zm1.95-1.65a1.65 1.65 0 0 0-1.65 1.65v.75h-.75a1.65 1.65 0 0 0-1.65 1.65V21c0 .911.739 1.65 1.65 1.65H21A1.65 1.65 0 0 0 22.65 21v-4.8A1.65 1.65 0 0 0 21 14.55h-.75v-.75a1.65 1.65 0 0 0-1.65-1.65zm0 1.2a.45.45 0 0 0-.45.45v.45h3.3v-.45a.45.45 0 0 0-.45-.45zm-.75.45a.75.75 0 0 1 .75-.75h2.4a.75.75 0 0 1 .75.75v.75h-3.9z" clip-rule="evenodd"/></svg>