<svg xmlns="http://www.w3.org/2000/svg" width="24" height="24" fill="none"><path fill="#04071E" d="M5.25 4.5A2.25 2.25 0 0 0 3 6.75v.75h4.629a.75.75 0 0 0 .53-.22L9.439 6 8.16 4.72a.75.75 0 0 0-.53-.22zM1.5 6.662q0-.036.003-.071A3.75 3.75 0 0 1 5.25 3h2.379a2.25 2.25 0 0 1 1.59.659l1.592 1.591h4.939A3.75 3.75 0 0 1 19.5 9v5.25A3.75 3.75 0 0 1 15.75 18H5.25a3.75 3.75 0 0 1-3.75-3.75zm9.31.088L9.22 8.341A2.25 2.25 0 0 1 7.629 9H3v5.25a2.25 2.25 0 0 0 2.25 2.25h10.5A2.25 2.25 0 0 0 18 14.25V9a2.25 2.25 0 0 0-2.25-2.25zM21 9c.911.684 1.5 1.773 1.5 3v2.25A6.75 6.75 0 0 1 15.75 21h-7.5a3.74 3.74 0 0 1-3-1.5h10.5c2.9 0 5.25-2.35 5.25-5.25z"/></svg>