<svg xmlns="http://www.w3.org/2000/svg" width="24" height="24" fill="none"><path fill="#04071E" d="M5.4 3.6a3 3 0 0 0-3 3v10.8a3 3 0 0 0 3 3h7.902c.08-.224.201-.427.356-.6a1.8 1.8 0 0 1-.356-.6H5.4a1.8 1.8 0 0 1-1.8-1.8V9.6h4.903a1.8 1.8 0 0 0 1.273-.527L11.649 7.2H18.6A1.8 1.8 0 0 1 20.4 9v5.4h1.2V9a3 3 0 0 0-3-3h-6.952L9.865 4.215A2.1 2.1 0 0 0 8.379 3.6zm-1.8 3a1.8 1.8 0 0 1 1.8-1.8h2.979a.9.9 0 0 1 .636.264L10.552 6.6 8.927 8.224a.6.6 0 0 1-.424.176H3.6zm11.4 9a.6.6 0 1 0 0 1.2h7.2a.6.6 0 0 0 0-1.2zm0 2.4a.6.6 0 1 0 0 1.2h7.2a.6.6 0 0 0 0-1.2zm-.6 3a.6.6 0 0 1 .6-.6h7.2a.6.6 0 1 1 0 1.2H15a.6.6 0 0 1-.6-.6"/><path fill="#04071E" fill-rule="evenodd" d="M2.25 6.6A3.15 3.15 0 0 1 5.4 3.45h2.979a2.25 2.25 0 0 1 1.59.659l1.742 1.74H18.6A3.15 3.15 0 0 1 21.75 9v5.4a.15.15 0 0 1-.15.15h-1.2a.15.15 0 0 1-.15-.15V9a1.65 1.65 0 0 0-1.65-1.65h-6.89L9.883 9.179a1.95 1.95 0 0 1-1.38.57H3.75v7.651c0 .911.739 1.65 1.65 1.65h7.902c.064 0 .12.04.142.1.072.205.184.391.326.55a.15.15 0 0 1 0 .2 1.7 1.7 0 0 0-.326.55.15.15 0 0 1-.142.1H5.4a3.15 3.15 0 0 1-3.15-3.15zM5.4 3.75A2.85 2.85 0 0 0 2.55 6.6v10.8a2.85 2.85 0 0 0 2.85 2.85h7.8q.102-.245.263-.45a2 2 0 0 1-.263-.45H5.4a1.95 1.95 0 0 1-1.95-1.95V9.6a.15.15 0 0 1 .15-.15h4.903a1.65 1.65 0 0 0 1.167-.483l1.873-1.873a.15.15 0 0 1 .106-.044H18.6A1.95 1.95 0 0 1 20.55 9v5.25h.9V9a2.85 2.85 0 0 0-2.85-2.85h-6.952a.15.15 0 0 1-.105-.044L9.758 4.321a1.95 1.95 0 0 0-1.38-.571zm0 1.2A1.65 1.65 0 0 0 3.75 6.6v1.65h4.753a.45.45 0 0 0 .318-.132L10.34 6.6 8.91 5.17a.75.75 0 0 0-.53-.22zM3.45 6.6A1.95 1.95 0 0 1 5.4 4.65h2.979c.278 0 .545.11.742.307l1.537 1.537a.15.15 0 0 1 0 .212L9.033 8.33a.75.75 0 0 1-.53.22H3.6a.15.15 0 0 1-.15-.15zm10.8 9.6a.75.75 0 0 1 .75-.75h7.2a.75.75 0 1 1 0 1.5H15a.75.75 0 0 1-.75-.75m.75-.45a.45.45 0 1 0 0 .9h7.2a.45.45 0 0 0 0-.9zm-.75 2.85a.75.75 0 0 1 .75-.75h7.2a.75.75 0 1 1 0 1.5H15a.75.75 0 0 1-.75-.75m.75-.45a.45.45 0 1 0 0 .9h7.2a.45.45 0 0 0 0-.9zm0 2.4a.45.45 0 1 0 0 .9h7.2a.45.45 0 0 0 0-.9zm-.75.45a.75.75 0 0 1 .75-.75h7.2a.75.75 0 1 1 0 1.5H15a.75.75 0 0 1-.75-.75" clip-rule="evenodd"/></svg>