<svg xmlns="http://www.w3.org/2000/svg" width="24" height="24" fill="none"><path fill="#04071E" d="M3.5 6.25V8h4.629a.75.75 0 0 0 .53-.22l1.53-1.53-1.53-1.53a.75.75 0 0 0-.53-.22H5.25A1.75 1.75 0 0 0 3.5 6.25m-1.5 0A3.25 3.25 0 0 1 5.25 3h2.879a2.25 2.25 0 0 1 1.59.659L11.562 5.5h7.189A3.25 3.25 0 0 1 22 8.75v4.55a2.74 2.74 0 0 0-1.5-.289V8.75A1.75 1.75 0 0 0 18.75 7h-7.19L9.72 8.841a2.25 2.25 0 0 1-1.591.659H3.5v8.25c0 .966.784 1.75 1.75 1.75h5.773q-.023.187-.023.375c0 .374.048.754.15 1.125h-5.9A3.25 3.25 0 0 1 2 17.75zm16 8.5a2.25 2.25 0 1 1-4.5 0 2.25 2.25 0 0 1 4.5 0m1.5 5.125c0 1.556-1.071 3.125-3.75 3.125S12 21.437 12 19.875C12 18.84 12.72 18 13.607 18h4.286c.887 0 1.607.84 1.607 1.875m1.25-2.375a1.75 1.75 0 1 0 0-3.5 1.75 1.75 0 0 0 0 3.5m-.252 2.375c0 .72-.178 1.465-.582 2.124l.088.001c2.143 0 3-1.098 3-2.187 0-.725-.575-1.313-1.286-1.313h-1.54c.208.424.32.9.32 1.375"/></svg>