<svg xmlns="http://www.w3.org/2000/svg" width="24" height="24" fill="none"><path fill="#04071E" d="M5.4 3.6a3 3 0 0 0-3 3v10.8a3 3 0 0 0 3 3h6.12a6.6 6.6 0 0 1-.472-1.2H5.4a1.8 1.8 0 0 1-1.8-1.8V9.6h4.903a1.8 1.8 0 0 0 1.273-.527L11.649 7.2H18.6A1.8 1.8 0 0 1 20.4 9v2.52q.647.33 1.2.789V9a3 3 0 0 0-3-3h-6.952L9.865 4.215A2.1 2.1 0 0 0 8.379 3.6zm-1.8 3a1.8 1.8 0 0 1 1.8-1.8h2.979a.9.9 0 0 1 .636.264L10.552 6.6 8.927 8.224a.6.6 0 0 1-.424.176H3.6zm12.66 6.78c-.349.872-.592 2.066-.648 3.42h3.576c-.056-1.354-.3-2.548-.648-3.42-.2-.5-.424-.866-.642-1.096-.216-.23-.385-.284-.498-.284s-.282.055-.498.284c-.218.23-.442.595-.642 1.096m-.865-.996q-.134.263-.25.55c-.413 1.035-.677 2.386-.734 3.866h-2.378a5.4 5.4 0 0 1 3.362-4.416m4.01 0q.134.263.249.55c.414 1.035.678 2.386.735 3.866h2.378a5.4 5.4 0 0 0-3.363-4.416M22.766 18h-2.378c-.057 1.48-.321 2.83-.735 3.865q-.115.29-.25.55A5.4 5.4 0 0 0 22.767 18M17.4 22.8c.113 0 .282-.055.498-.284.218-.23.441-.595.642-1.096.349-.872.591-2.066.648-3.42h-3.576c.056 1.354.3 2.548.648 3.42.2.5.424.866.642 1.096.216.23.385.284.498.284m-2.005-.384A5.4 5.4 0 0 1 12.033 18h2.378c.057 1.48.32 2.83.735 3.865q.115.29.25.55"/><path fill="#04071E" fill-rule="evenodd" d="M2.25 6.6A3.15 3.15 0 0 1 5.4 3.45h2.979a2.25 2.25 0 0 1 1.59.659l1.742 1.74H18.6A3.15 3.15 0 0 1 21.75 9v3.627l-.245-.203a6.5 6.5 0 0 0-1.173-.77l-.082-.043V9a1.65 1.65 0 0 0-1.65-1.65h-6.89L9.883 9.179a1.95 1.95 0 0 1-1.38.57H3.75v7.651c0 .911.739 1.65 1.65 1.65h5.762l.03.11q.175.613.461 1.172l.112.218H5.4a3.15 3.15 0 0 1-3.15-3.15zM5.4 3.75A2.85 2.85 0 0 0 2.55 6.6v10.8a2.85 2.85 0 0 0 2.85 2.85h5.88q-.203-.435-.344-.9H5.4a1.95 1.95 0 0 1-1.95-1.95V9.45h5.053a1.65 1.65 0 0 0 1.167-.483l1.916-1.917H18.6A1.95 1.95 0 0 1 20.55 9v2.428q.474.251.9.571V9a2.85 2.85 0 0 0-2.85-2.85h-7.014L9.758 4.322a1.95 1.95 0 0 0-1.38-.571zm0 1.2A1.65 1.65 0 0 0 3.75 6.6v1.65h4.753a.45.45 0 0 0 .318-.132L10.34 6.6 8.91 5.17a.75.75 0 0 0-.53-.22zM3.45 6.6A1.95 1.95 0 0 1 5.4 4.65h2.979c.278 0 .545.11.742.307L10.764 6.6l-1.73 1.73a.75.75 0 0 1-.531.22H3.45zm13.343 5.58c.234-.247.44-.33.607-.33s.373.083.607.33c.235.25.467.633.672 1.144.357.892.602 2.103.658 3.47l.007.156h-3.888l.006-.156c.057-1.367.302-2.578.659-3.47.204-.511.437-.895.672-1.143m.607-.03c-.06 0-.191.027-.39.237-.2.212-.415.558-.61 1.049-.329.82-.563 1.938-.63 3.214h3.26c-.067-1.276-.302-2.395-.63-3.214-.196-.49-.41-.837-.61-1.05-.2-.209-.33-.236-.39-.236m-1.687-.054-.184.357q-.132.256-.244.537c-.406 1.015-.668 2.348-.724 3.816l-.005.144h-2.69l.018-.166a5.56 5.56 0 0 1 3.456-4.539zm3.374 0 .373.149a5.56 5.56 0 0 1 3.456 4.539l.018.166h-2.69l-.005-.144c-.056-1.468-.318-2.8-.724-3.816a6 6 0 0 0-.244-.537zm.626.59q.04.094.08.193c.408 1.02.671 2.334.74 3.771h2.064a5.26 5.26 0 0 0-2.884-3.964m-7.51 3.964h2.065c.068-1.437.33-2.751.738-3.771q.04-.098.081-.194a5.26 5.26 0 0 0-2.884 3.965m-.338 1.2h2.69l.006.144c.056 1.468.318 2.8.724 3.816q.112.282.244.537l.184.357-.373-.15a5.56 5.56 0 0 1-3.456-4.538zm.338.3a5.26 5.26 0 0 0 2.884 3.964l-.08-.193c-.409-1.02-.671-2.334-.74-3.771zm3.253-.3h3.888l-.007.156c-.056 1.367-.301 2.578-.658 3.47-.204.511-.437.895-.672 1.143s-.44.331-.607.331-.373-.083-.607-.33c-.235-.25-.468-.633-.672-1.145-.357-.89-.602-2.102-.659-3.469zm.313.3c.067 1.276.302 2.395.63 3.214.196.49.411.837.612 1.05.198.209.33.236.389.236.06 0 .19-.027.39-.237.2-.212.414-.558.61-1.049.328-.82.563-1.938.63-3.214zm4.475-.3h2.69l-.018.166a5.56 5.56 0 0 1-3.456 4.539l-.373.15.184-.358q.131-.256.244-.537c.406-1.015.668-2.348.724-3.816zm.288.3c-.068 1.437-.33 2.751-.739 3.771l-.08.193a5.26 5.26 0 0 0 2.884-3.964z" clip-rule="evenodd"/></svg>