<svg xmlns="http://www.w3.org/2000/svg" width="24" height="24" fill="none"><path fill="#04071E" d="m8.446 16.147.084.073 2.25 2.25a.75.75 0 0 1 .073.976l-.073.084-2.25 2.25a.75.75 0 0 1-1.133-.976l.073-.084.969-.97H3.75a.75.75 0 0 1-.102-1.493l.102-.007h4.689l-.97-.97a.75.75 0 0 1-.072-.976l.073-.084a.75.75 0 0 1 .976-.073m7.108 0a.75.75 0 0 1 .882-.007l.094.08.073.084a.75.75 0 0 1 .007.882l-.08.094-.97.97h4.69a.75.75 0 0 1 .102 1.493l-.102.007h-4.69l.97.97.073.084a.75.75 0 0 1-1.05 1.049l-.083-.073-2.25-2.25-.073-.084a.75.75 0 0 1-.007-.882l.08-.094 2.25-2.25zM8.836 2.28l.062.092.05.106 4.5 11.5a.75.75 0 0 1-1.353.639l-.043-.093-1.236-3.156H5.683l-1.235 3.156a.75.75 0 0 1-.874.456l-.097-.03a.75.75 0 0 1-.456-.875l.03-.097 4.5-11.5c.22-.561.946-.627 1.285-.198m10.759.106a.75.75 0 0 1 1.384.541l-.03.098-4.5 11.5-.051.105a.75.75 0 0 1-1.296 0l-.05-.105-4.5-11.5-.031-.098a.75.75 0 0 1 .355-.826l.1-.048.098-.03a.75.75 0 0 1 .826.354l.048.101 3.802 9.715 3.802-9.715zM8.25 4.808 6.27 9.867h3.959z"/></svg>