<svg xmlns="http://www.w3.org/2000/svg" width="24" height="24" fill="none"><path fill="#04071E" d="M8.397 11.235a.75.75 0 0 0-.294-1.47c-.903.18-1.585.811-1.948 1.658-.36.839-.413 1.886-.132 3.009a.75.75 0 1 0 1.455-.364c-.22-.878-.148-1.58.055-2.054.2-.465.518-.71.864-.779M5.471 3.42A5.18 5.18 0 0 0 6.89 7.302a5.12 5.12 0 0 0-3.66 4.216A10.46 10.46 0 0 0 4.6 18.314l.35.59.043.063 1.416 1.907a3.462 3.462 0 0 0 5.275.335.437.437 0 0 1 .63 0 3.462 3.462 0 0 0 5.275-.335l1.416-1.907.042-.063.351-.59a10.46 10.46 0 0 0 1.373-6.796 5.12 5.12 0 0 0-6.11-4.306l-1.901.394-.003.001c.03-.78.152-1.62.391-2.339.29-.868.692-1.39 1.14-1.576a.75.75 0 1 0-.578-1.384c-1.052.438-1.65 1.479-1.985 2.486l-.046.142c-.24-.464-.554-.9-.943-1.29a5.18 5.18 0 0 0-3.98-1.511A1.367 1.367 0 0 0 5.47 3.42m1.493.207a3.68 3.68 0 0 1 2.712 1.08 3.68 3.68 0 0 1 1.08 2.712 4 4 0 0 1-.543-.025l-.617-.128a3.7 3.7 0 0 1-1.552-.927 3.68 3.68 0 0 1-1.08-2.712m2.069 5.054.202.042q.36.102.73.151l.97.201a5.25 5.25 0 0 0 2.13 0l1.902-.394a3.62 3.62 0 0 1 4.32 3.044 8.96 8.96 0 0 1-1.177 5.822l-.331.556-1.393 1.877a1.962 1.962 0 0 1-2.99.19 1.936 1.936 0 0 0-2.792 0 1.962 1.962 0 0 1-2.99-.19l-1.393-1.877-.331-.556a8.96 8.96 0 0 1-1.176-5.822 3.62 3.62 0 0 1 4.319-3.044"/></svg>