<svg xmlns="http://www.w3.org/2000/svg" width="24" height="24" fill="none"><path fill="#04071E" d="M9.514 11.724c0-1.13.093-2.402.387-3.587.294-1.189.778-2.235 1.517-2.974.82-.82 1.973-1.28 3.249-1.498 1.271-.219 2.6-.187 3.692-.08a2.27 2.27 0 0 1 2.062 2.061c.107 1.093.138 2.421-.08 3.693-.22 1.275-.679 2.429-1.499 3.249-.74.74-1.786 1.224-2.976 1.519-1.186.294-2.458.387-3.589.387-1 0-1.82.811-1.824 1.814-.008 1.695-.22 3.66-.936 5.169a.25.25 0 0 1-.076-.136 28 28 0 0 0-.772-2.663 11 11 0 0 0-.506-1.221c-.178-.356-.392-.708-.652-.967-.26-.26-.612-.474-.968-.652a11 11 0 0 0-1.221-.507 29 29 0 0 0-2.665-.773.25.25 0 0 1-.136-.075c1.51-.717 3.48-.927 5.177-.934a1.827 1.827 0 0 0 1.816-1.825m.843-7.621c-1.002 1.001-1.58 2.335-1.912 3.673-.333 1.344-.431 2.747-.43 3.95a.327.327 0 0 1-.322.323c-1.772.007-4.017.22-5.832 1.087-.683.326-.968.998-.826 1.635.132.596.615 1.085 1.266 1.244.795.194 1.718.445 2.52.73.4.142.76.288 1.051.434.302.151.487.28.578.372.092.09.22.275.372.577.146.292.292.65.434 1.05.284.802.534 1.723.728 2.518.158.652.648 1.135 1.244 1.267.637.142 1.31-.143 1.635-.825.867-1.814 1.081-4.054 1.09-5.823 0-.174.147-.321.324-.321 1.202 0 2.606-.098 3.95-.431 1.339-.333 2.674-.912 3.676-1.914 1.12-1.12 1.668-2.61 1.916-4.056.25-1.451.21-2.926.095-4.093a3.77 3.77 0 0 0-3.409-3.408c-1.167-.115-2.641-.155-4.092.094-1.447.249-2.937.797-4.056 1.917M16 5a1 1 0 1 1 0 2 1 1 0 0 1 0-2"/></svg>