<svg xmlns="http://www.w3.org/2000/svg" width="24" height="24" fill="none"><path fill="#04071E" d="M7.2 18V6a2.4 2.4 0 0 0-2.4-2.4H3a.6.6 0 0 0 0 1.2h1.8A1.2 1.2 0 0 1 6 6v2.4H3a.6.6 0 0 0 0 1.2h3v4.8H3a.6.6 0 1 0 0 1.2h3V18a1.2 1.2 0 0 1-1.2 1.2H3a.6.6 0 1 0 0 1.2h1.8A2.4 2.4 0 0 0 7.2 18m14.224-4.976A.6.6 0 0 1 21 13.2h-3v2.4a1.2 1.2 0 0 0 1.2 1.2H21a.6.6 0 0 1 0 1.2h-1.8a2.4 2.4 0 0 1-2.4-2.4v-6a2.4 2.4 0 0 1 2.4-2.4H21a.6.6 0 0 1 0 1.2h-1.8A1.2 1.2 0 0 0 18 9.6V12h3a.6.6 0 0 1 .424 1.024M12 13.8a.6.6 0 0 1 .176-.425l.777-.775H9.6a.6.6 0 1 1 0-1.2h3.352l-.777-.775a.6.6 0 1 1 .85-.85l1.8 1.8a.6.6 0 0 1 0 .85l-1.8 1.8a.601.601 0 0 1-1.026-.425"/><path fill="#04071E" fill-rule="evenodd" d="M2.47 3.67A.75.75 0 0 1 3 3.45h1.8A2.55 2.55 0 0 1 7.35 6v12a2.55 2.55 0 0 1-2.55 2.55H3a.75.75 0 1 1 0-1.5h1.8A1.05 1.05 0 0 0 5.85 18v-2.25H3a.75.75 0 0 1 0-1.5h2.85v-4.5H3a.75.75 0 0 1 0-1.5h2.85V6A1.05 1.05 0 0 0 4.8 4.95H3a.75.75 0 0 1-.53-1.28m.53.08a.45.45 0 1 0 0 .9h1.8A1.35 1.35 0 0 1 6.15 6v2.55H3a.45.45 0 1 0 0 .9h3.15v5.1H3a.45.45 0 1 0 0 .9h3.15V18a1.35 1.35 0 0 1-1.35 1.35H3a.45.45 0 0 0 0 .9h1.8A2.25 2.25 0 0 0 7.05 18V6A2.25 2.25 0 0 0 4.8 3.75zm16.2 3.6a2.25 2.25 0 0 0-2.25 2.25v6a2.25 2.25 0 0 0 2.25 2.25H21a.45.45 0 0 0 0-.9h-1.8a1.35 1.35 0 0 1-1.35-1.35v-2.55H21a.45.45 0 0 0 0-.9h-3.15V9.6a1.35 1.35 0 0 1 1.35-1.35H21a.45.45 0 0 0 0-.9zm-1.803.447A2.55 2.55 0 0 1 19.2 7.05H21a.75.75 0 1 1 0 1.5h-1.8a1.05 1.05 0 0 0-1.05 1.05v2.25H21a.75.75 0 0 1 0 1.5h-2.85v2.25a1.05 1.05 0 0 0 1.05 1.05H21a.75.75 0 1 1 0 1.5h-1.8a2.55 2.55 0 0 1-2.55-2.55v-6c0-.676.269-1.325.747-1.803M12.6 9.749a.45.45 0 0 0-.319.77l1.033 1.031H9.6a.45.45 0 1 0 0 .9h3.714l-1.033 1.031m0 0a.451.451 0 0 0 .638.638l1.8-1.8a.45.45 0 0 0 0-.638l-1.8-1.8a.45.45 0 0 0-.319-.132m-.53-.08a.75.75 0 0 1 1.06 0l1.8 1.8a.75.75 0 0 1 0 1.062m0 0-1.8 1.8a.75.75 0 0 1-1.06-1.062l.52-.519H9.6a.75.75 0 1 1 0-1.5h2.99l-.52-.52a.75.75 0 0 1 0-1.06" clip-rule="evenodd"/></svg>