<svg xmlns="http://www.w3.org/2000/svg" width="24" height="24" fill="none"><path fill="#04071E" d="M12.488 20.386a8.4 8.4 0 1 0-8.874-8.873q-.65.332-1.21.792A9.6 9.6 0 1 1 21.6 12a9.6 9.6 0 0 1-9.904 9.595q.46-.558.793-1.209m2.471-14.318a.6.6 0 0 1-.777.341 6.002 6.002 0 0 0-8.065 4.408q-.646.048-1.252.213a7.202 7.202 0 0 1 9.753-5.74.6.6 0 0 1 .341.778m-4.554 5.939a6.6 6.6 0 0 1 2.058 2.358c.38-.076.739-.277 1.01-.595.087-.1.204-.279.324-.468.13-.203.287-.462.462-.754.35-.585.776-1.315 1.187-2.027a354 354 0 0 0 1.456-2.552l.133-.235a.6.6 0 0 0-.895-.765l-.212.168a376 376 0 0 0-2.292 1.838c-.639.517-1.293 1.052-1.816 1.49-.261.218-.492.415-.673.574a5 5 0 0 0-.411.393c-.15.175-.26.37-.331.575m7.527-2.966a.6.6 0 0 1 .777.341 7.2 7.2 0 0 1-1.618 7.71.6.6 0 0 1-.848-.85 6 6 0 0 0 1.348-6.424.6.6 0 0 1 .341-.777M9.6 21.89a5.4 5.4 0 1 1-6-8.98 5.4 5.4 0 0 1 6 8.98m-2.576-7.314A.6.6 0 0 0 6 15v1.8H4.2a.6.6 0 1 0 0 1.2H6v1.8a.6.6 0 0 0 1.2 0V18H9a.6.6 0 1 0 0-1.2H7.2V15a.6.6 0 0 0-.176-.424"/><path fill="#04071E" fill-rule="evenodd" d="M12 2.45a9.55 9.55 0 0 0-9.548 9.752 6.7 6.7 0 0 1 1.114-.721 8.45 8.45 0 1 1 8.953 8.953 6.7 6.7 0 0 1-.72 1.114l.201.002a9.55 9.55 0 0 0 0-19.1M2.35 12a9.65 9.65 0 1 1 19.3 0 9.65 9.65 0 0 1-9.956 9.645.05.05 0 0 1-.037-.082c.303-.368.568-.77.786-1.2a.05.05 0 0 1 .042-.027 8.35 8.35 0 1 0-8.821-8.82.05.05 0 0 1-.027.041q-.647.329-1.2.786a.05.05 0 0 1-.082-.037A10 10 0 0 1 2.35 12M14.6 5.338a7.152 7.152 0 0 0-9.675 5.625 6.6 6.6 0 0 1 1.15-.193A6.052 6.052 0 0 1 14.2 6.362a.55.55 0 1 0 .4-1.024M6.874 6.874a7.25 7.25 0 0 1 7.762-1.63.65.65 0 0 1-.472 1.212 5.952 5.952 0 0 0-7.998 4.371.05.05 0 0 1-.045.04q-.641.047-1.243.212a.05.05 0 0 1-.062-.055 7.22 7.22 0 0 1 2.058-4.15m9.235.056a.65.65 0 0 1 .97.829l-.133.235a341 341 0 0 1-1.457 2.552c-.41.712-.836 1.443-1.187 2.028-.175.292-.333.551-.463.755-.12.188-.239.37-.328.474-.279.327-.647.532-1.038.611a.05.05 0 0 1-.055-.025 6.6 6.6 0 0 0-2.042-2.342.05.05 0 0 1-.018-.057c.073-.21.186-.41.34-.59.089-.104.249-.25.416-.398.181-.16.412-.357.673-.576.524-.438 1.179-.973 1.818-1.49a354 354 0 0 1 2.292-1.838zm.062.078a.55.55 0 0 1 .82.701l-.132.236a405 405 0 0 1-1.456 2.55c-.41.713-.836 1.443-1.187 2.027-.174.292-.332.55-.46.753a5 5 0 0 1-.32.463c-.256.299-.59.49-.947.57a6.7 6.7 0 0 0-2.024-2.32q.104-.281.309-.523c.083-.098.238-.24.406-.388.18-.16.41-.355.672-.574a149 149 0 0 1 1.816-1.489 355 355 0 0 1 2.291-1.837zM18.663 9.4a.55.55 0 0 0-1.026.4 6.05 6.05 0 0 1-1.359 6.478.55.55 0 1 0 .778.778A7.15 7.15 0 0 0 18.663 9.4m-.749-.406a.65.65 0 0 1 .842.37 7.25 7.25 0 0 1-1.63 7.763.65.65 0 0 1-.919-.92 5.95 5.95 0 0 0 1.337-6.37.65.65 0 0 1 .37-.843m-10.27 3.159a5.35 5.35 0 1 0-2.088 10.493 5.35 5.35 0 0 0 2.088-10.493m-3.13.212a5.45 5.45 0 1 1 4.172 10.07 5.45 5.45 0 0 1-4.172-10.07M6.14 14.54a.65.65 0 0 1 1.11.46v1.75H9a.65.65 0 0 1 0 1.3H7.25v1.75a.65.65 0 1 1-1.3 0v-1.75H4.2a.65.65 0 0 1 0-1.3h1.75V15a.65.65 0 0 1 .19-.46m.46-.09a.55.55 0 0 0-.55.55v1.8a.05.05 0 0 1-.05.05H4.2a.55.55 0 1 0 0 1.1H6a.05.05 0 0 1 .05.05v1.8a.55.55 0 0 0 1.1 0V18a.05.05 0 0 1 .05-.05H9a.55.55 0 0 0 0-1.1H7.2a.05.05 0 0 1-.05-.05V15a.55.55 0 0 0-.55-.55" clip-rule="evenodd"/></svg>