<svg xmlns="http://www.w3.org/2000/svg" width="24" height="24" fill="none"><path fill="#04071E" d="M14.14 2.979a2.25 2.25 0 0 0-3.411-.268L7.264 6.176a2.25 2.25 0 0 0 .342 3.463l2.01 1.34-6.873 6.742a2.51 2.51 0 1 0 3.532 3.565l6.872-6.872 1.216 1.911a2.25 2.25 0 0 0 3.49.383l3.436-3.436a2.25 2.25 0 0 0-.268-3.411l-3.888-2.828a.8.8 0 0 1-.166-.166zm-2.35.793a.75.75 0 0 1 1.136.089l.46.632L9.068 8.81l-.63-.42a.75.75 0 0 1-.114-1.154zm-1.45 5.887 3.939-3.938 1.475 2.029q.21.286.496.496L18.21 9.67l-3.852 3.851-1.054-1.657a2.25 2.25 0 0 0-.65-.664zm4.842 5.159 4.255-4.255.702.511a.75.75 0 0 1 .09 1.137l-3.437 3.436a.75.75 0 0 1-1.163-.127zm-2.86-1.7-7.108 7.108a1.01 1.01 0 1 1-1.42-1.434l7.096-6.964.93.62q.132.088.217.222zM14.75 19a.75.75 0 0 0 0 1.5h-2a.75.75 0 0 0 0 1.5h8.5a.75.75 0 0 0 0-1.5h-2a.75.75 0 0 0 0-1.5z"/></svg>