<svg xmlns="http://www.w3.org/2000/svg" width="24" height="24" fill="none"><path fill="#04071E" d="M7.727 6.34a1.8 1.8 0 0 0 .271 2.768l2.119 1.42-7.023 7.023a2.372 2.372 0 1 0 3.354 3.354l4.414-4.414a6.56 6.56 0 0 1 1.026-2.724L5.6 20.057a1.172 1.172 0 0 1-1.657-1.658l7.191-7.19.894.598q.098.067.164.165l.523.78a6.6 6.6 0 0 1 .924-.776l-.45-.672a1.8 1.8 0 0 0-.493-.494l-2.056-1.377 3.649-3.648L15.76 7.83a1.8 1.8 0 0 0 .409.408l2.045 1.474-1.093 1.093a6.63 6.63 0 0 1 1.576.122l.504-.505.945.681a.6.6 0 0 1 .244.411q.584.298 1.094.7a1.8 1.8 0 0 0-.637-2.085L16.87 7.264a.6.6 0 0 1-.136-.136L13.869 3.15a1.8 1.8 0 0 0-2.733-.22zm.939 1.77a.6.6 0 0 1-.09-.922l3.409-3.41a.6.6 0 0 1 .91.074l.682.946-3.954 3.954zM12 17.4a5.4 5.4 0 1 0 10.8 0 5.4 5.4 0 0 0-10.8 0m1.2 0a4.2 4.2 0 0 1 6.715-3.364l-5.879 5.879a4.18 4.18 0 0 1-.836-2.516m4.2 4.2a4.18 4.18 0 0 1-2.515-.837l5.879-5.879A4.2 4.2 0 0 1 17.4 21.6"/><path fill="#04071E" fill-rule="evenodd" d="M11.065 2.859a1.9 1.9 0 0 1 2.885.233l2.865 3.978a.5.5 0 0 0 .113.113l3.977 2.865c.72.518.957 1.43.673 2.201l-.048.13-.108-.086a6.5 6.5 0 0 0-1.077-.69l-.047-.024-.007-.052a.5.5 0 0 0-.204-.343l-.876-.63-.482.481-.052-.01a6.5 6.5 0 0 0-1.552-.12l-.256.01 1.191-1.19-1.95-1.406a1.9 1.9 0 0 1-.431-.431l-1.404-1.95-3.479 3.48 1.954 1.31c.206.137.383.314.521.52l.505.754-.08.056a6.5 6.5 0 0 0-.911.764l-.086.087-.59-.881a.5.5 0 0 0-.138-.138l-.825-.553-7.133 7.133a1.072 1.072 0 1 0 1.515 1.516l6.29-6.29.154.126a6.46 6.46 0 0 0-1.01 2.682l-.005.034-4.439 4.438a2.472 2.472 0 0 1-3.495-3.496l6.937-6.937L7.942 9.19a1.9 1.9 0 0 1-.286-2.923zm2.723.35A1.7 1.7 0 0 0 11.207 3l-3.41 3.41a1.7 1.7 0 0 0 .257 2.614l2.22 1.488-7.11 7.11a2.272 2.272 0 1 0 3.213 3.212l4.39-4.39a6.7 6.7 0 0 1 .65-2.064L5.67 20.127a1.272 1.272 0 1 1-1.799-1.798l7.25-7.25.961.645q.115.077.192.192l.456.68q.361-.351.77-.646l-.395-.59a1.7 1.7 0 0 0-.466-.466l-2.156-1.446L14.3 5.631l1.541 2.14q.161.224.386.386l2.141 1.542-1 1h.032q.649 0 1.263.12l.527-.527 1.014.73c.15.108.242.261.276.426a6.7 6.7 0 0 1 .953.6 1.7 1.7 0 0 0-.645-1.838l-3.977-2.865a.7.7 0 0 1-.158-.158zm-.974.701a.5.5 0 0 0-.759-.061l-3.409 3.41a.5.5 0 0 0 .076.768l.889.596 3.835-3.835zm-.9-.202a.7.7 0 0 1 1.063.085l.731 1.016L9.636 8.88 8.61 8.194a.7.7 0 0 1-.105-1.077zM11.9 17.399a5.5 5.5 0 1 1 11 0 5.5 5.5 0 0 1-11 0m5.5-5.3a5.3 5.3 0 1 0 0 10.6 5.3 5.3 0 0 0 0-10.6m0 1.2a4.1 4.1 0 0 0-3.352 6.462l5.714-5.713a4.1 4.1 0 0 0-2.362-.749m-4.3 4.1a4.3 4.3 0 0 1 6.875-3.443l.093.069-6.043 6.042-.069-.092a4.3 4.3 0 0 1-.856-2.576m7.675-2.667.069.092a4.3 4.3 0 0 1-6.02 6.02l-.092-.07zm-5.737 6.02a4.1 4.1 0 0 0 5.714-5.714z" clip-rule="evenodd"/></svg>