<svg xmlns="http://www.w3.org/2000/svg" width="24" height="24" fill="none"><path fill="#04071E" d="M18.75 3.5A3.25 3.25 0 0 1 22 6.75v10.503a3.25 3.25 0 0 1-3.25 3.25H5.25A3.25 3.25 0 0 1 2 17.253V6.75A3.25 3.25 0 0 1 5.25 3.5zm0 1.5H5.25A1.75 1.75 0 0 0 3.5 6.75v10.503c0 .967.784 1.75 1.75 1.75h13.5a1.75 1.75 0 0 0 1.75-1.75V6.75A1.75 1.75 0 0 0 18.75 5M8.015 8.872c.596 0 1.019.081 1.502.313a.625.625 0 1 1-.541 1.127c-.3-.144-.54-.19-.961-.19-.867 0-1.504.796-1.504 1.872s.638 1.876 1.504 1.876c.428 0 .791-.18.98-.5L9 13.355v-.735l-.376.001a.625.625 0 0 1-.618-.533L8 11.997c0-.314.231-.573.533-.618l.092-.007h1.002c.314 0 .573.231.618.533l.007.092-.002 1.548-.006.055-.021.09-.02.055c-.377.89-1.241 1.376-2.188 1.376-1.626 0-2.754-1.412-2.754-3.126 0-1.712 1.127-3.122 2.754-3.122m4.614.122c.314 0 .574.231.618.533l.007.092v4.762a.625.625 0 0 1-1.243.092l-.007-.092V9.619c0-.345.28-.625.625-.625m2.996 0L17.622 9a.625.625 0 0 1 .088 1.243l-.092.007-1.371-.005v1.753L17.37 12c.314 0 .574.232.618.533l.007.092a.625.625 0 0 1-.533.619l-.092.006h-1.123v1.115a.625.625 0 0 1-.532.618l-.092.007a.625.625 0 0 1-.619-.533l-.006-.092V9.617A.625.625 0 0 1 15.532 9z"/></svg>