<svg xmlns="http://www.w3.org/2000/svg" width="24" height="24" fill="none"><path fill="#04071E" d="M12.305 21.595a9.6 9.6 0 1 1 9.29-9.29 6.6 6.6 0 0 0-1.209-.792A8.4 8.4 0 0 0 19.848 9h-3.28q.141.883.198 1.83a6.6 6.6 0 0 0-1.19.225A17 17 0 0 0 15.353 9H8.647c-.159.93-.247 1.94-.247 3s.088 2.07.247 3h2.603q-.226.577-.341 1.2H8.903c.183.708.41 1.351.67 1.91.577 1.235 1.251 1.937 1.895 2.186.228.466.51.902.837 1.3M14.426 5.89C13.688 4.308 12.788 3.6 12 3.6s-1.688.708-2.426 2.29c-.261.559-.488 1.202-.67 1.91h6.193a11 11 0 0 0-.67-1.91M7.667 7.8c.211-.892.488-1.707.82-2.418.223-.479.48-.927.77-1.324A8.43 8.43 0 0 0 4.724 7.8zM7.2 12c0-1.045.08-2.054.231-3h-3.28a8.4 8.4 0 0 0-.551 3 8.4 8.4 0 0 0 .552 3h3.28a19 19 0 0 1-.232-3m1.286 6.618a12.6 12.6 0 0 1-.819-2.418H4.724a8.43 8.43 0 0 0 4.533 3.742 8 8 0 0 1-.77-1.324M19.276 7.8a8.43 8.43 0 0 0-4.533-3.742c.29.397.547.845.77 1.324.332.711.609 1.526.82 2.418zM12 17.4a5.4 5.4 0 1 0 10.8 0 5.4 5.4 0 0 0-10.8 0m2.885 3.364 5.879-5.88a4.2 4.2 0 0 1-5.88 5.88m-.849-.849a4.2 4.2 0 0 1 5.88-5.88z"/><path fill="#04071E" fill-rule="evenodd" d="M12 2.55a9.45 9.45 0 0 0 0 18.9 7 7 0 0 1-.642-1.037c-.677-.286-1.352-1.023-1.92-2.24a11.3 11.3 0 0 1-.68-1.935l-.048-.188h2.075q.094-.463.25-.9H8.52l-.021-.125c-.161-.938-.25-1.957-.25-3.025s.089-2.087.25-3.025l.02-.125h6.96l.02.125q.155.9.216 1.887.436-.112.891-.166-.057-.864-.186-1.672l-.028-.174h3.559l.036.096c.297.777.484 1.607.543 2.472q.484.255.919.582A9.45 9.45 0 0 0 12 2.55M2.25 12c0-5.385 4.365-9.75 9.75-9.75s9.75 4.365 9.75 9.75q0 .156-.005.31l-.01.305-.235-.195q-.546-.45-1.182-.774l-.077-.039-.005-.086a8.2 8.2 0 0 0-.492-2.371h-3q.12.81.172 1.671l.008.145-.144.013q-.6.058-1.162.22l-.182.053-.01-.19a17 17 0 0 0-.2-1.912H8.774A18 18 0 0 0 8.55 12c0 1.005.08 1.963.224 2.85h2.696l-.08.205a6.4 6.4 0 0 0-.334 1.172l-.022.123H9.098c.172.627.378 1.197.612 1.697.569 1.219 1.221 1.88 1.812 2.109l.054.021.026.053c.223.456.499.882.818 1.27l.195.236-.306.01a10 10 0 0 1-.309.004c-5.385 0-9.75-4.365-9.75-9.75m7.188-6.174C10.182 4.232 11.119 3.45 12 3.45s1.818.782 2.562 2.376c.266.57.495 1.22.68 1.937l.048.187H8.71l.048-.187c.185-.716.415-1.368.68-1.937M12 3.75c-.696 0-1.558.634-2.29 2.203-.234.5-.44 1.07-.612 1.697h5.804a11 11 0 0 0-.612-1.697C13.558 4.384 12.696 3.75 12 3.75m2.34.01.452.156a8.58 8.58 0 0 1 4.614 3.809l.13.225h-3.322l-.027-.115a12.5 12.5 0 0 0-.81-2.39 8 8 0 0 0-.755-1.299zm-4.68 0-.282.386a8 8 0 0 0-.756 1.3c-.326.7-.6 1.505-.809 2.389l-.027.115H4.464l.13-.225a8.58 8.58 0 0 1 4.614-3.809zm5.472.605q.284.452.518.954c.322.69.592 1.476.801 2.331h2.56a8.28 8.28 0 0 0-3.879-3.285M4.99 7.65h2.56c.21-.855.48-1.64.802-2.331q.233-.502.517-.954a8.3 8.3 0 0 0-3.88 3.285m-.94 1.2h3.558l-.028.174C7.43 9.962 7.35 10.963 7.35 12s.08 2.039.23 2.976l.027.174H4.048l-.037-.096A8.5 8.5 0 0 1 3.45 12a8.5 8.5 0 0 1 .561-3.054zm.206.3A8.2 8.2 0 0 0 3.75 12c0 1.002.179 1.962.505 2.85h3.001A19.4 19.4 0 0 1 7.05 12c0-.989.072-1.947.206-2.85zm7.595 8.25a5.55 5.55 0 1 1 11.1 0 5.55 5.55 0 0 1-11.1 0m5.55-5.25a5.25 5.25 0 1 0 0 10.5 5.25 5.25 0 0 0 0-10.5m0 1.2a4.05 4.05 0 0 0-3.345 6.334l5.63-5.629a4.03 4.03 0 0 0-2.285-.705m-4.35 4.05a4.35 4.35 0 0 1 6.955-3.484l.139.104-6.124 6.124-.104-.139a4.33 4.33 0 0 1-.866-2.605m7.73-2.744.104.139a4.35 4.35 0 0 1-6.09 6.09l-.138-.105zm-5.664 6.089a4.05 4.05 0 0 0 5.63-5.63zM4.464 16.05h3.322l.027.116c.209.883.483 1.688.81 2.388.22.472.472.912.755 1.3l.283.386-.453-.156a8.58 8.58 0 0 1-4.614-3.809zm.525.3a8.28 8.28 0 0 0 3.879 3.285q-.285-.452-.517-.954a12.6 12.6 0 0 1-.802-2.331z" clip-rule="evenodd"/></svg>