<svg xmlns="http://www.w3.org/2000/svg" width="24" height="24" fill="none"><path fill="#04071E" d="M3.441 9.956a4.926 4.926 0 0 0 6.233 7.57l4.256 4.257a.773.773 0 0 0 1.169-1.007l-.075-.086-4.218-4.219a4.926 4.926 0 0 0-7.365-6.515m8.585-7.958c-4.756 0-8.736 3.32-9.751 7.767q.21-.27.459-.516A5.9 5.9 0 0 1 4.51 8.025 8.53 8.53 0 0 1 8.906 4.09l-.107.174c-.538.894-.971 2.012-1.275 3.28q.75.075 1.465.34c.632-2.628 1.823-4.385 3.037-4.385l.115.006c1.266.115 2.488 2.117 3.056 4.996l-4.998-.001a6 6 0 0 1 1.55 1.499l3.674.001A19 19 0 0 1 15.287 15h-2.645a6 6 0 0 1-.299.841l-.129.272-.122.23.158.156h2.715c-.203.75-.451 1.418-.732 1.985l1.105 1.108c.492-.858.892-1.909 1.18-3.091l2.722-.001a8.54 8.54 0 0 1-3.734 3.259l.225.224.125.14c.22.295.344.624.378.953A10 10 0 0 0 22.027 12c0-5.524-4.478-10.002-10.001-10.002M9.314 11.05a3.38 3.38 0 1 1-4.78 4.78 3.38 3.38 0 0 1 4.78-4.78M16.932 10h3.358l.008.03c.15.632.23 1.292.23 1.97a8.5 8.5 0 0 1-.545 3h-3.174c.143-.948.218-1.957.218-3q0-1.028-.095-2m-1.787-5.91.023.008A8.53 8.53 0 0 1 19.776 8.5h-3.049c-.313-1.753-.86-3.279-1.582-4.41"/></svg>