<svg xmlns="http://www.w3.org/2000/svg" width="24" height="24" fill="none"><path fill="#04071E" d="M12 2c5.524 0 10.002 4.478 10.002 10.002q0 .394-.03.78a6.5 6.5 0 0 0-1.475-1.051 8.5 8.5 0 0 0-.232-1.73h-3.358q.048.502.072 1.02a6.5 6.5 0 0 0-1.49.296q-.023-.676-.092-1.316H8.603a19 19 0 0 0 .135 5h2.76q-.299.714-.422 1.5H9.061c.599 2.217 1.603 3.737 2.657 3.97.283.552.643 1.057 1.066 1.502q-.388.03-.784.03C6.476 22.003 2 17.525 2 12.002 1.999 6.478 6.476 2 12 2M7.508 16.502H4.786a8.53 8.53 0 0 0 4.094 3.41c-.522-.82-.953-1.846-1.27-3.015zM7.094 10H3.736l-.005.017a8.5 8.5 0 0 0-.232 1.984c0 1.056.192 2.067.544 3h3.173a20 20 0 0 1-.217-3c0-.684.032-1.354.095-2.001M8.88 4.09l-.023.008A8.53 8.53 0 0 0 4.25 8.501h3.048c.314-1.752.86-3.278 1.583-4.41m3.12-.591-.117.005c-1.265.116-2.487 2.118-3.055 4.996h6.342c-.566-2.87-1.783-4.869-3.045-4.995zm3.12.59.106.175c.67 1.112 1.177 2.572 1.475 4.237h3.048a8.53 8.53 0 0 0-4.339-4.29zM12 17.5a5.5 5.5 0 1 0 11 0 5.5 5.5 0 0 0-11 0m6.646-2.146a.5.5 0 0 1 .708-.708l1.5 1.5a.5.5 0 0 1 0 .708l-1.5 1.5a.5.5 0 0 1-.708-.708l.647-.646H17.25A2.25 2.25 0 0 0 15 19.25v.25a.5.5 0 0 1-1 0v-.25A3.25 3.25 0 0 1 17.25 16h2.043z"/></svg>