<svg xmlns="http://www.w3.org/2000/svg" width="24" height="24" fill="none"><path fill="#04071E" d="M2.4 3.6a1.2 1.2 0 0 1 1.2-1.2h6a1.2 1.2 0 0 1 1.2 1.2V6a1.2 1.2 0 0 1-1.2 1.2h-6A1.2 1.2 0 0 1 2.4 6zm7.2 0h-6V6h6zm-7.2 7.2a1.2 1.2 0 0 1 1.2-1.2h6a1.2 1.2 0 0 1 1.2 1.2v2.4a1.2 1.2 0 0 1-1.2 1.2h-6a1.2 1.2 0 0 1-1.2-1.2zm7.2 0h-6v2.4h6zm-6 6A1.2 1.2 0 0 0 2.4 18v2.4a1.2 1.2 0 0 0 1.2 1.2h6a1.2 1.2 0 0 0 1.2-1.2V18a1.2 1.2 0 0 0-1.2-1.2zm0 1.2h6v2.4h-6zm9.6-14.4a1.2 1.2 0 0 1 1.2-1.2h6a1.2 1.2 0 0 1 1.2 1.2V6a1.2 1.2 0 0 1-1.2 1.2h-6A1.2 1.2 0 0 1 13.2 6zm7.2 0h-6V6h6zm-6 6a1.2 1.2 0 0 0-1.2 1.2v2.4a1.2 1.2 0 0 0 1.2 1.2h6a1.2 1.2 0 0 0 1.2-1.2v-2.4a1.2 1.2 0 0 0-1.2-1.2zm0 1.2h6v2.4h-6z"/><path fill="#04071E" fill-rule="evenodd" d="M3.6 2.55c-.58 0-1.05.47-1.05 1.05V6c0 .58.47 1.05 1.05 1.05h6c.58 0 1.05-.47 1.05-1.05V3.6c0-.58-.47-1.05-1.05-1.05zM2.25 3.6c0-.746.604-1.35 1.35-1.35h6c.746 0 1.35.604 1.35 1.35V6A1.35 1.35 0 0 1 9.6 7.35h-6A1.35 1.35 0 0 1 2.25 6zM14.4 2.55c-.58 0-1.05.47-1.05 1.05V6c0 .58.47 1.05 1.05 1.05h6c.58 0 1.05-.47 1.05-1.05V3.6c0-.58-.47-1.05-1.05-1.05zM13.05 3.6c0-.746.604-1.35 1.35-1.35h6c.746 0 1.35.604 1.35 1.35V6a1.35 1.35 0 0 1-1.35 1.35h-6A1.35 1.35 0 0 1 13.05 6zm-9.6-.15h6.3v2.7h-6.3zm.3.3v2.1h5.7v-2.1zm10.5-.3h6.3v2.7h-6.3zm.3.3v2.1h5.7v-2.1zm-10.95 6c-.58 0-1.05.47-1.05 1.05v2.4c0 .58.47 1.05 1.05 1.05h6c.58 0 1.05-.47 1.05-1.05v-2.4c0-.58-.47-1.05-1.05-1.05zM2.25 10.8c0-.746.604-1.35 1.35-1.35h6c.746 0 1.35.604 1.35 1.35v2.4a1.35 1.35 0 0 1-1.35 1.35h-6a1.35 1.35 0 0 1-1.35-1.35zm10.8 0c0-.746.604-1.35 1.35-1.35h6c.746 0 1.35.604 1.35 1.35v2.4a1.35 1.35 0 0 1-1.35 1.35h-6a1.35 1.35 0 0 1-1.35-1.35zm1.35-1.05c-.58 0-1.05.47-1.05 1.05v2.4c0 .58.47 1.05 1.05 1.05h6c.58 0 1.05-.47 1.05-1.05v-2.4c0-.58-.47-1.05-1.05-1.05zm-10.95.9h6.3v2.7h-6.3zm.3.3v2.1h5.7v-2.1zm10.5-.3h6.3v2.7h-6.3zm.3.3v2.1h5.7v-2.1zM2.25 18c0-.746.604-1.35 1.35-1.35h6c.746 0 1.35.604 1.35 1.35v2.4a1.35 1.35 0 0 1-1.35 1.35h-6a1.35 1.35 0 0 1-1.35-1.35zm1.35-1.05c-.58 0-1.05.47-1.05 1.05v2.4c0 .58.47 1.05 1.05 1.05h6c.58 0 1.05-.47 1.05-1.05V18c0-.58-.47-1.05-1.05-1.05zm-.15.9h6.3v2.7h-6.3zm.3.3v2.1h5.7v-2.1z" clip-rule="evenodd"/></svg>