<svg xmlns="http://www.w3.org/2000/svg" width="24" height="24" fill="none"><path fill="#04071E" d="M12.002 8.941V4c0-.276.209-.5.5-.5.286 0 .498.228.498.5v5.94l1.014 1.014a.75.75 0 0 0 .486-.702V5.252c0-.278.213-.504.5-.504.281 0 .496.226.496.504v5.25a.75.75 0 0 0 1.5 0v-3.5c0-.27.214-.5.503-.5a.5.5 0 0 1 .501.5v7.752l-.003.182 1.336 1.336a7.5 7.5 0 0 0 .167-1.518V7.002c0-1.04-.832-2-2.001-2q-.27.001-.512.064C16.897 4.104 16.11 3.25 15 3.25q-.326.001-.612.092A1.98 1.98 0 0 0 12.503 2c-.92 0-1.628.583-1.89 1.342a2 2 0 0 0-.6-.093c-1.02-.007-1.847.775-1.99 1.713L9.5 6.439V5.252c0-.26.242-.505.504-.504a.493.493 0 0 1 .498.478V7.44z"/><path fill="#04071E" fill-rule="evenodd" d="M8 9.06v2.2a4.5 4.5 0 0 0-1.368-.496c-.75-.131-1.617-.086-2.333.283C3.531 11.444 3 12.19 3 13.251c0 .235.11.457.3.599l1.957 1.472 2.138 2.135c.82.82 1.503 1.765 2.021 2.802A3.15 3.15 0 0 0 12.233 22h2.728c1.041 0 2.064-.504 2.62-1.456.202-.344.433-.765.665-1.238l2.724 2.724a.75.75 0 0 0 1.06-1.06L3.53 2.47a.75.75 0 1 0-1.06 1.06zm9.118 9.119L9.5 10.56v2.19a.75.75 0 0 1-1.295.515v-.001l-.004-.003-.022-.022-.102-.096a4 4 0 0 0-.401-.32c-.352-.25-.81-.496-1.303-.582-.537-.095-1.047-.037-1.385.138a.82.82 0 0 0-.446.528l1.659 1.247a1 1 0 0 1 .08.068l2.174 2.173a12.3 12.3 0 0 1 2.303 3.193c.28.559.85.911 1.475.911h2.728c.571 0 1.068-.272 1.325-.713.265-.453.561-1.005.832-1.608" clip-rule="evenodd"/></svg>