<svg xmlns="http://www.w3.org/2000/svg" width="24" height="24" fill="none"><path fill="#04071E" d="m17.4 3.603-.755-.59a2.873 2.873 0 0 0-3.892 4.199l4.203 4.597a.6.6 0 0 0 .886 0l4.204-4.598a2.873 2.873 0 0 0-3.892-4.2zm1.656 12.105-.99-2.632c.244-.097.471-.25.662-.458l.306-.335 1.126 2.993a3.6 3.6 0 0 1-.96 3.924l-1.464 1.32a3.9 3.9 0 0 1-2.664.984 4.8 4.8 0 0 1-1.8-.36 22.1 22.1 0 0 0-8.22-1.488 1.45 1.45 0 0 1-1.296-.72 1.2 1.2 0 0 1 0-1.2 5.04 5.04 0 0 1 3.3-2.04l-4.152-4.14a1.873 1.873 0 0 1 0-2.652c.164-.16.355-.29.564-.384A1.872 1.872 0 0 1 5.46 5.472c.083-.287.24-.548.456-.756a1.86 1.86 0 0 1 2.64 0c.094-.213.223-.408.384-.576a1.9 1.9 0 0 1 2.142-.356A4 4 0 0 0 10.809 5l-.01-.009A.713.713 0 0 0 9.793 6l.84.78 1.588 1.627 1.502 1.642a.58.58 0 0 1-.162.571.576.576 0 0 1-.84 0l-3-2.988-.84-.84-1.2-1.272a.696.696 0 0 0-.96 0 .684.684 0 0 0 0 .96l3.3 3.3a.594.594 0 1 1-.84.84L6.948 8.4l-1.68-1.68a.672.672 0 0 0-1.145.48c0 .18.07.352.197.48l1.284 1.272L8.22 11.58a.594.594 0 1 1-.84.84L6 11.052 4.752 9.804a.67.67 0 0 0-.948 0 .62.62 0 0 0-.204.468.67.67 0 0 0 .204.528l5.028 4.98A.6.6 0 0 1 8.4 16.8s-2.58 0-3.588 1.62c0 .048.096.132.24.132a.7.7 0 0 1 .168 0c2.912-.004 5.8.53 8.52 1.572a3.01 3.01 0 0 0 3.192-.396l1.5-1.38a2.4 2.4 0 0 0 .624-2.64m-7.388 1.028c.476-.238 1.247-.375 2.033-.244.773.129 1.51.507 2 1.24a.6.6 0 1 0 .998-.665c-.71-1.066-1.773-1.587-2.8-1.759-1.014-.169-2.043-.006-2.767.354a.6.6 0 0 0 .536 1.074"/><path fill="#04071E" fill-rule="evenodd" d="M18.092 2.933A2.973 2.973 0 0 1 22.12 7.28l-4.204 4.597a.7.7 0 0 1-1.033 0L12.679 7.28a2.973 2.973 0 0 1 4.028-4.345l.692.542zm4.005.615a2.773 2.773 0 0 0-3.881-.457l-.817.64-.815-.64a2.773 2.773 0 0 0-3.757 4.053l4.203 4.597a.5.5 0 0 0 .738 0l4.204-4.597c.92-1.006.972-2.53.125-3.596M9.01 4.21c-.152.16-.275.345-.364.546l-.059.135-.103-.104a1.76 1.76 0 0 0-2.498 0l-.002.001c-.203.196-.35.441-.43.712l-.029.102-.1-.036A1.772 1.772 0 0 0 3.54 8.451l.097.103-.128.057c-.198.09-.38.213-.535.364a1.77 1.77 0 0 0 0 2.51l4.291 4.279-.193.03A4.94 4.94 0 0 0 3.84 17.79a1.1 1.1 0 0 0 .002 1.096 1.35 1.35 0 0 0 1.207.67h.002a22.2 22.2 0 0 1 8.257 1.495h.002a4.7 4.7 0 0 0 1.762.353h.002a3.8 3.8 0 0 0 2.595-.958l1.464-1.32a3.5 3.5 0 0 0 .933-3.815l-1.068-2.84-.197.215a1.9 1.9 0 0 1-.607.444l.955 2.542a2.5 2.5 0 0 1-.65 2.75l-1.504 1.383a3.11 3.11 0 0 1-3.295.411 23.6 23.6 0 0 0-8.48-1.564h-.012a.6.6 0 0 0-.145 0h-.011a.42.42 0 0 1-.228-.064.3.3 0 0 1-.074-.066.17.17 0 0 1-.038-.102v-.029l.015-.024c.524-.842 1.451-1.256 2.231-1.461a6.6 6.6 0 0 1 1.41-.205H8.4a.5.5 0 0 0 .36-.85l-5.026-4.979a.77.77 0 0 1-.234-.603.72.72 0 0 1 .235-.537.77.77 0 0 1 1.087.001l1.248 1.248 1.38 1.368a.495.495 0 0 0 .699-.698L5.533 9.023 4.25 7.751a.784.784 0 0 1 0-1.101.77.77 0 0 1 1.09 0l1.68 1.68 2.231 2.22a.495.495 0 0 0 .699-.7l-3.3-3.3a.786.786 0 0 1 0-1.1l.002-.002a.796.796 0 0 1 1.098 0l.004.003L8.95 6.722l.84.84 3.002 2.99a.475.475 0 0 0 .694 0l.004-.005a.48.48 0 0 0 .14-.449l-1.484-1.622-1.585-1.624-.841-.781a.813.813 0 0 1 1.005-1.264q.056-.496.228-.97a1.8 1.8 0 0 0-1.943.373M8.399 16.9a.7.7 0 0 0 .504-1.19v-.001l-5.029-4.98a.57.57 0 0 1-.175-.45v-.008a.52.52 0 0 1 .172-.393l.003-.003a.57.57 0 0 1 .807 0l1.248 1.248 1.38 1.368a.695.695 0 0 0 .981-.982L5.675 8.882 4.39 7.609a.584.584 0 0 1 0-.818.57.57 0 0 1 .806 0l1.68 1.68 2.232 2.22a.694.694 0 0 0 .981-.982l-3.3-3.3a.585.585 0 0 1 0-.818.596.596 0 0 1 .819 0l1.198 1.27.842.842 2.999 2.987a.676.676 0 0 0 .982 0 .68.68 0 0 0 .188-.667L13.812 10l-1.518-1.66-1.59-1.63-.843-.782a.613.613 0 0 1 .868-.865l.165.165.015-.22c.027-.404.115-.805.266-1.188l.034-.086-.085-.04a2 2 0 0 0-2.254.375l-.003.002a2.1 2.1 0 0 0-.342.479 1.96 1.96 0 0 0-2.68.095 1.8 1.8 0 0 0-.45.7 1.972 1.972 0 0 0-2.089 3.143 2 2 0 0 0-.472.344v.001a1.97 1.97 0 0 0 0 2.794l4.015 4.005a5.14 5.14 0 0 0-3.175 2.046l-.005.008a1.3 1.3 0 0 0 0 1.3 1.55 1.55 0 0 0 1.385.77 22 22 0 0 1 8.18 1.48 4.9 4.9 0 0 0 1.837.368 4 4 0 0 0 2.731-1.01l1.465-1.32a3.7 3.7 0 0 0 .986-4.033l-1.182-3.146-.417.456c-.18.197-.394.34-.625.432l-.09.037 1.023 2.723a2.3 2.3 0 0 1-.598 2.531l-1.498 1.378a2.91 2.91 0 0 1-3.084.382l-.007-.003a23.8 23.8 0 0 0-8.55-1.579 1 1 0 0 0-.178 0 .2.2 0 0 1-.116-.033c.49-.742 1.334-1.124 2.078-1.32a6.4 6.4 0 0 1 1.364-.199h.026m2.689-1.327c.744-.371 1.795-.535 2.827-.363 1.049.175 2.138.708 2.867 1.802a.7.7 0 1 1-1.164.776c-.472-.706-1.182-1.072-1.933-1.197-.768-.128-1.517.007-1.973.235a.7.7 0 0 1-.624-1.254m2.794-.166c-.994-.166-2.002-.006-2.705.345a.5.5 0 1 0 .446.894c.497-.247 1.29-.387 2.095-.253.794.133 1.558.523 2.066 1.284a.5.5 0 1 0 .832-.554c-.692-1.039-1.728-1.548-2.734-1.716" clip-rule="evenodd"/></svg>