<svg xmlns="http://www.w3.org/2000/svg" width="24" height="24" fill="none"><path fill="#04071E" d="M9.909 3.7a3.88 3.88 0 0 1 4.182 0l8.064 5.169a.75.75 0 0 1 .005 1.259L19 12.193v5.557a.75.75 0 0 1-.15.45l-.001.001-.001.002-.003.004-.009.01-.015.02-.01.013-.086.101a5 5 0 0 1-.317.33c-.277.267-.69.614-1.25.958C16.037 20.329 14.339 21 12 21s-4.036-.67-5.159-1.361a7.4 7.4 0 0 1-1.25-.957 5 5 0 0 1-.316-.33 3 3 0 0 1-.124-.15L5.15 18.2a.75.75 0 0 1-.15-.45v-5.557l-2-1.307v5.364a.75.75 0 0 1-1.5 0V9.5a.75.75 0 0 1 .358-.64zm4.21 11.681a3.88 3.88 0 0 1-4.238 0L6.5 13.172v4.297q.055.058.13.13c.211.203.54.481.997.762.909.56 2.337 1.139 4.373 1.139s3.464-.58 4.373-1.139a6 6 0 0 0 1.127-.892v-4.297zm-.837-10.419c-.781-.5-1.783-.5-2.564 0L3.63 9.506l7.071 4.62c.79.515 1.809.515 2.598 0l7.07-4.62z"/></svg>