<svg xmlns="http://www.w3.org/2000/svg" width="24" height="24" fill="none"><path fill="#04071E" d="M18.75 3.5A3.25 3.25 0 0 1 22 6.75v10.503a3.25 3.25 0 0 1-3.25 3.25H5.25A3.25 3.25 0 0 1 2 17.253V6.75A3.25 3.25 0 0 1 5.25 3.5zm0 1.5H5.25A1.75 1.75 0 0 0 3.5 6.75v10.503c0 .967.784 1.75 1.75 1.75h13.5a1.75 1.75 0 0 0 1.75-1.75V6.75A1.75 1.75 0 0 0 18.75 5M8.378 8.993c.314 0 .574.231.619.533l.006.092v4.752a.625.625 0 0 1-1.243.092l-.007-.092v-1.734H6.272v1.751a.625.625 0 0 1-1.243.093l-.007-.093V9.635a.625.625 0 0 1 1.243-.092l.007.092v1.751h1.48l.001-1.768c0-.345.28-.625.625-.625m8.823.023a1.804 1.804 0 0 1 1.02 3.292l.74 1.834a.625.625 0 0 1-1.115.558l-.045-.091-.8-1.985h-.742v1.751c0 .755-1.027.826-1.22.212l-.022-.103-.008-.108-.005-4.735c0-.314.23-.574.532-.619l.093-.006zm-5.826-.01a2.625 2.625 0 0 1 2.62 2.459l.005.166v.742a2.625 2.625 0 0 1-2.459 2.62l-.166.005h-.75a.625.625 0 0 1-.619-.533L10 14.373V9.63c0-.314.23-.574.532-.618l.093-.007zm0 1.25h-.126v3.49l.126.002c.715 0 1.303-.546 1.37-1.243l.005-.132v-.742c0-.715-.545-1.302-1.242-1.369zm4.88.009v1.109h.946a.554.554 0 0 0 .09-1.101l-.09-.007z"/></svg>