<svg xmlns="http://www.w3.org/2000/svg" width="24" height="24" fill="none"><path fill="#04071E" d="M10.678 2.087a10 10 0 0 1 2.644 0 .75.75 0 0 1-.197 1.487 8.6 8.6 0 0 0-2.25 0 .75.75 0 0 1-.197-1.487m10.394 7.946a.75.75 0 0 1 .841.645 10 10 0 0 1 0 2.644.75.75 0 0 1-1.487-.197 8.6 8.6 0 0 0 0-2.25.75.75 0 0 1 .646-.842m-18.143 0c.41.054.699.43.645.842a8.6 8.6 0 0 0 0 2.25.75.75 0 0 1-1.487.197 10 10 0 0 1 0-2.644.75.75 0 0 1 .841-.645m7.104 11.039a.75.75 0 0 1 .842-.646 8.6 8.6 0 0 0 2.25 0 .75.75 0 0 1 .197 1.487 10 10 0 0 1-2.644 0 .75.75 0 0 1-.645-.841m8.042-17.016a10 10 0 0 1 1.87 1.87.75.75 0 0 1-1.19.912 8.6 8.6 0 0 0-1.593-1.592.75.75 0 0 1 .913-1.19m1.73 12.968a.75.75 0 0 1 .14 1.051 10 10 0 0 1-1.87 1.87.75.75 0 0 1-.913-1.19 8.6 8.6 0 0 0 1.592-1.592.75.75 0 0 1 1.052-.14M6.978 4.194a.75.75 0 0 1-.14 1.052 8.6 8.6 0 0 0-1.591 1.592.75.75 0 1 1-1.19-.913 10 10 0 0 1 1.869-1.87.75.75 0 0 1 1.052.14m-2.783 12.83a.75.75 0 0 1 1.052.139 8.6 8.6 0 0 0 1.592 1.592.75.75 0 1 1-.913 1.19 10 10 0 0 1-1.87-1.87.75.75 0 0 1 .14-1.051m9.328-7.18a1.153 1.153 0 0 1 1.691 1.566L12 15.11l-3.215-3.7a1.153 1.153 0 0 1 1.691-1.566l.99 1.002a.75.75 0 0 0 1.068 0zm2.824-.93a2.653 2.653 0 0 0-3.891-.124l-.456.462-.456-.462a2.653 2.653 0 0 0-3.891 3.604l3.78 4.35a.75.75 0 0 0 1.133 0l3.78-4.35a2.65 2.65 0 0 0 0-3.48"/></svg>