<svg xmlns="http://www.w3.org/2000/svg" width="24" height="24" fill="none"><path fill="#04071E" d="m12.82 5.58-.82.822-.824-.823A5.375 5.375 0 0 0 2.249 11h1.605a3.877 3.877 0 0 1 6.261-4.36l1.358 1.357a.75.75 0 0 0 1.073-.013L13.88 6.64A3.88 3.88 0 0 1 20.149 11h1.605a5.38 5.38 0 0 0-8.934-5.42m-1.35 15.496L4.894 14.5h1.963q.077 0 .152-.007L12 19.485l4.988-4.985h2.122l-6.58 6.576a.75.75 0 0 1-1.06 0M9.42 8.415a.75.75 0 0 0-1.348.014L6.382 12H2.75a.75.75 0 0 0 0 1.5h4.107a.75.75 0 0 0 .678-.43l1.234-2.606 2.56 5.121a.75.75 0 0 0 1.279.104l2.698-3.736 1.13 1.29A.75.75 0 0 0 17 13.5h4.25a.75.75 0 0 0 0-1.5h-3.91l-1.526-1.744a.75.75 0 0 0-1.172.055l-2.525 3.496z"/></svg>