<svg xmlns="http://www.w3.org/2000/svg" width="25" height="24" fill="none"><path fill="#04071E" d="m15.452 9.805 1.142 1.305a6.6 6.6 0 0 0-1.16.497l-.353-.404-.702 1.123a6.6 6.6 0 0 0-2.113 3.212.6.6 0 0 1-.82-.307L8.995 9.347l-1.483 3.488a.6.6 0 0 1-.552.365H3A.6.6 0 0 1 3 12h3.563l1.885-4.435a.6.6 0 0 1 1.106.004l2.553 6.128 2.384-3.815a.6.6 0 0 1 .96-.077m4.617-4.63a5.3 5.3 0 0 1 1.174 5.641q-.12-.016-.243-.016h-1.066a4.1 4.1 0 0 0-.718-4.78A3.967 3.967 0 0 0 13.56 6l-1.141 1.155a.6.6 0 0 1-.853 0l-1.153-1.163a3.963 3.963 0 0 0-5.647-.02C3.48 7.274 3.256 9.254 4.104 10.8H3a2 2 0 0 0-.215.013c-.765-1.898-.39-4.15 1.128-5.684 1.987-2.007 5.19-2.036 7.232-.1q.061.058.121.119l.726.732.715-.724q.064-.065.13-.127c2.038-1.922 5.236-1.87 7.232.146M5.828 14.4l5.74 5.816a.6.6 0 1 0 .854-.843l-4.974-5.04q-.236.066-.488.067zM24 17.4a5.4 5.4 0 1 1-10.8 0 5.4 5.4 0 0 1 10.8 0m-2.576-2.224a.6.6 0 0 0-.848 0L17.4 18.35l-.776-.775a.6.6 0 0 0-.848.848l1.2 1.2a.6.6 0 0 0 .848 0l3.6-3.6a.6.6 0 0 0 0-.848"/><path fill="#04071E" fill-rule="evenodd" d="M4.195 5.066c1.937-1.78 4.922-1.753 6.847.072q.06.057.117.115l.642.648.19.193.154-.155.669-.678q.062-.063.126-.123c1.979-1.865 5.084-1.816 7.022.142a5.15 5.15 0 0 1 1.181 5.375A2 2 0 0 0 21 10.65h-.826a4.25 4.25 0 0 0-.851-4.736 4.12 4.12 0 0 0-5.87-.02l-.167.17-.974.986a.45.45 0 0 1-.64 0L10.52 5.886a4.118 4.118 0 0 0-5.015-.677 4.1 4.1 0 0 0-.845.658c-1.275 1.288-1.543 3.216-.8 4.783H3q-.06 0-.116.003c-.69-1.822-.311-3.957 1.136-5.419q.086-.087.175-.168m7.054-.146c-2.101-1.992-5.398-1.962-7.442.103C2.244 6.602 1.86 8.918 2.646 10.87l.043.106.114-.013A2 2 0 0 1 3 10.95h1.358l-.122-.222c-.818-1.491-.602-3.398.637-4.65a3.8 3.8 0 0 1 4.953-.394q.254.183.48.413l1.153 1.164a.75.75 0 0 0 1.066 0l1.142-1.155a3.817 3.817 0 0 1 5.442.019 3.95 3.95 0 0 1 .692 4.605l-.116.22H21q.114 0 .223.015l.117.016.043-.11a5.45 5.45 0 0 0-1.208-5.802c-2.052-2.073-5.343-2.127-7.44-.15q-.069.065-.134.132l-.61.616-.618-.625zM8.586 7.624a.45.45 0 0 1 .83.003l2.664 6.396 2.538-4.062a.45.45 0 0 1 .72-.057l.995 1.136a7 7 0 0 0-.864.379l-.409-.467-.796 1.275a6.76 6.76 0 0 0-2.12 3.2.45.45 0 0 1-.56-.254L8.997 8.96l-1.622 3.816a.45.45 0 0 1-.414.274H3a.45.45 0 0 1 0-.9h3.662zm.417-.574a.75.75 0 0 0-.693.457L6.464 11.85H3a.75.75 0 1 0 0 1.5h3.96c.3 0 .573-.18.69-.457l1.343-3.16 2.315 5.555a.75.75 0 0 0 1.025.384l.059-.03.018-.062a6.46 6.46 0 0 1 2.065-3.138l.018-.016.608-.972.3.343.105-.058q.54-.296 1.133-.486l.218-.07-1.293-1.477a.75.75 0 0 0-1.2.096l-2.23 3.569-2.442-5.86a.75.75 0 0 0-.69-.461M13.35 17.4a5.25 5.25 0 1 1 10.5 0 5.25 5.25 0 0 1-10.5 0m5.25-5.55a5.55 5.55 0 1 0 0 11.1 5.55 5.55 0 0 0 0-11.1m-6.071 7.417-5.037-5.102-.085.024a1.7 1.7 0 0 1-.447.061H5.47l5.992 6.071a.75.75 0 0 0 1.068-1.054M6.96 14.55q.227 0 .441-.05l4.914 4.978a.45.45 0 0 1-.64.632l-5.488-5.56z" clip-rule="evenodd"/></svg>