<svg xmlns="http://www.w3.org/2000/svg" width="24" height="24" fill="none"><path fill="#04071E" d="M15.256 10.928c.143-.287.33-.528.546-.722l-.35-.401a.6.6 0 0 0-.96.077l-2.385 3.815-2.553-6.128a.6.6 0 0 0-1.106-.004L6.563 12H3a.6.6 0 1 0 0 1.2h3.96a.6.6 0 0 0 .552-.365l1.483-3.488 2.451 5.884a.6.6 0 0 0 1.063.087l2.572-4.115.024.028zM5.758 14.4l5.177 5.228q.052-.152.127-.303l.423-.847-4.09-4.131q-.21.053-.435.053zm15.485-3.584a5.3 5.3 0 0 0-1.174-5.641c-1.996-2.016-5.194-2.068-7.232-.146l-.13.127-.715.724-.726-.732-.12-.119c-2.043-1.936-5.246-1.907-7.233.1-1.518 1.534-1.893 3.786-1.128 5.684A2 2 0 0 1 3 10.8h1.104c-.848-1.547-.625-3.527.662-4.827a3.963 3.963 0 0 1 5.647.019l1.153 1.164a.6.6 0 0 0 .853 0L13.56 6a3.967 3.967 0 0 1 5.656.02 4.1 4.1 0 0 1 .718 4.78H21q.123 0 .243.016m-4.92.648-4.195 8.398a1.2 1.2 0 0 0 1.075 1.738h8.394a1.2 1.2 0 0 0 1.075-1.738l-4.2-8.398a1.201 1.201 0 0 0-2.149 0m1.675 2.33v3.603a.6.6 0 1 1-1.201 0v-3.603a.6.6 0 1 1 1.201 0m-.6 6.605a.6.6 0 1 1 0-1.2.6.6 0 0 1 0 1.2"/><path fill="#04071E" fill-rule="evenodd" d="M3.807 5.023c2.044-2.065 5.34-2.095 7.442-.103q.062.06.124.122l.619.625.608-.616q.067-.068.135-.131c2.097-1.978 5.388-1.924 7.44.15a5.45 5.45 0 0 1 1.208 5.8l-.043.11-.117-.015A2 2 0 0 0 21 10.95h-1.315l.116-.22a3.95 3.95 0 0 0-.692-4.605 3.817 3.817 0 0 0-5.442-.02m0 0-1.142 1.156a.75.75 0 0 1-1.066 0l-1.152-1.164a3.813 3.813 0 0 0-5.434-.019c-1.239 1.252-1.455 3.159-.637 4.65l.122.222H3a2 2 0 0 0-.197.012l-.114.013-.043-.106c-.786-1.95-.402-4.267 1.16-5.846m7.236.115c-1.984-1.881-5.094-1.852-7.022.096-1.447 1.462-1.826 3.597-1.136 5.42q.057-.004.116-.004h.86c-.743-1.567-.475-3.495.8-4.783a4.113 4.113 0 0 1 5.86.02l1.152 1.163a.45.45 0 0 0 .64 0l1.141-1.155a4.12 4.12 0 0 1 5.87.019 4.25 4.25 0 0 1 .85 4.736H21q.072 0 .143.005a5.15 5.15 0 0 0-1.18-5.375c-1.94-1.958-5.044-2.007-7.023-.142l-.126.124-.822.832-.833-.841zM8.31 7.507a.75.75 0 0 1 1.382.004l2.442 5.86 2.23-3.569a.75.75 0 0 1 1.2-.096l.449.512-.11.1a2.3 2.3 0 0 0-.513.677l-.251.503-.038-.044-2.465 3.944a.75.75 0 0 1-1.328-.11L8.993 9.734l-1.343 3.16a.75.75 0 0 1-.69.456H3a.75.75 0 0 1 0-1.5h3.464zm6.76 3.457.052-.103c.127-.256.288-.478.473-.665l-.256-.292a.45.45 0 0 0-.72.057l-2.539 4.062-2.665-6.396a.45.45 0 0 0-.83-.003L6.663 12.15H3a.45.45 0 1 0 0 .9h3.96a.45.45 0 0 0 .414-.274L8.996 8.96l2.589 6.213a.45.45 0 0 0 .797.066l2.678-4.287zm1.12.433c.497-.996 1.918-.996 2.416 0l4.2 8.398a1.35 1.35 0 0 1-1.209 1.955h-8.394a1.35 1.35 0 0 1-1.21-1.955zm2.148.134a1.051 1.051 0 0 0-1.88 0l-4.196 8.398a1.05 1.05 0 0 0 .94 1.52h8.395c.782 0 1.29-.821.94-1.52zm-.94 1.813a.45.45 0 0 0-.451.45v3.603a.45.45 0 0 0 .901 0v-3.603a.45.45 0 0 0-.45-.45m-.751.45a.75.75 0 1 1 1.501 0v3.603a.75.75 0 1 1-1.501 0zm-9.206.387 4.226 4.268-.47.943q-.071.142-.12.285l-.079.229-5.6-5.656H6.96q.205 0 .398-.049zm-.095.33a2 2 0 0 1-.386.039h-.842l4.762 4.81.048-.102.375-.75zm10.052 4.837a.45.45 0 1 0 0 .901.45.45 0 0 0 0-.9m-.751.45a.75.75 0 1 1 1.501 0 .75.75 0 0 1-1.501 0" clip-rule="evenodd"/></svg>