<svg xmlns="http://www.w3.org/2000/svg" width="25" height="24" fill="none"><path fill="#04071E" d="m15.452 9.805 1.142 1.305a6.6 6.6 0 0 0-1.16.497l-.353-.404-.702 1.123a6.6 6.6 0 0 0-2.113 3.212.6.6 0 0 1-.82-.307L8.995 9.347l-1.483 3.488a.6.6 0 0 1-.552.365H3A.6.6 0 0 1 3 12h3.563l1.885-4.435a.6.6 0 0 1 1.106.004l2.553 6.128 2.384-3.815a.6.6 0 0 1 .96-.077m4.617-4.63a5.3 5.3 0 0 1 1.174 5.641q-.12-.016-.243-.016h-1.066a4.1 4.1 0 0 0-.718-4.78A3.967 3.967 0 0 0 13.56 6l-1.141 1.155a.6.6 0 0 1-.853 0l-1.153-1.163a3.963 3.963 0 0 0-5.647-.02C3.48 7.274 3.256 9.254 4.104 10.8H3a2 2 0 0 0-.215.013c-.765-1.898-.39-4.15 1.128-5.684 1.987-2.007 5.19-2.036 7.232-.1q.061.058.121.119l.726.732.715-.724q.064-.065.13-.127c2.038-1.922 5.236-1.87 7.232.146M5.828 14.4l5.74 5.816a.6.6 0 1 0 .854-.843l-4.974-5.04q-.236.066-.488.067zM24 17.4a5.4 5.4 0 1 1-10.8 0 5.4 5.4 0 0 1 10.8 0m-5.4-3a.6.6 0 0 0-.6.6v2.4a.6.6 0 1 0 1.2 0V15a.6.6 0 0 0-.6-.6m0 6.15a.75.75 0 1 0 0-1.5.75.75 0 0 0 0 1.5"/><path fill="#04071E" fill-rule="evenodd" d="M11.042 5.138c-1.984-1.881-5.094-1.852-7.022.096-1.447 1.462-1.826 3.597-1.136 5.42q.057-.004.116-.004h.86c-.743-1.567-.475-3.495.8-4.783a4.113 4.113 0 0 1 5.86.02l1.152 1.163a.45.45 0 0 0 .64 0l1.141-1.155a4.12 4.12 0 0 1 5.87.019 4.25 4.25 0 0 1 .85 4.736H21q.072 0 .143.005a5.15 5.15 0 0 0-1.18-5.375c-1.94-1.958-5.044-2.007-7.023-.142q-.064.06-.126.123l-.822.833-.833-.841zm-7.235-.115c2.044-2.065 5.34-2.095 7.442-.103q.062.06.124.122l.619.625.608-.616q.067-.068.135-.131c2.097-1.978 5.388-1.924 7.44.15a5.45 5.45 0 0 1 1.208 5.8l-.043.11-.117-.015A2 2 0 0 0 21 10.95h-1.315l.116-.22a3.95 3.95 0 0 0-.692-4.605 3.817 3.817 0 0 0-5.442-.02m0 0-1.142 1.156a.75.75 0 0 1-1.066 0l-1.152-1.164a3.813 3.813 0 0 0-5.434-.019c-1.239 1.252-1.455 3.159-.637 4.65l.122.222H3a2 2 0 0 0-.197.012l-.114.013-.043-.106c-.786-1.95-.402-4.267 1.16-5.846M9.003 7.35a.45.45 0 0 0-.416.274L6.662 12.15H3a.45.45 0 1 0 0 .9h3.96a.45.45 0 0 0 .414-.274L8.996 8.96l2.589 6.213a.45.45 0 0 0 .558.254 6.76 6.76 0 0 1 2.121-3.2l.796-1.275.409.467q.416-.22.864-.379l-.994-1.136a.45.45 0 0 0-.72.057l-2.539 4.062-2.665-6.396a.45.45 0 0 0-.413-.277m-.692.157a.75.75 0 0 1 1.382.004l2.442 5.86 2.23-3.569a.75.75 0 0 1 1.2-.096l1.293 1.478-.218.07q-.593.19-1.133.485l-.105.058-.3-.343-.608.972-.018.016a6.46 6.46 0 0 0-2.065 3.138l-.018.063-.059.029a.75.75 0 0 1-1.025-.384L8.993 9.734l-1.343 3.16a.75.75 0 0 1-.69.456H3a.75.75 0 0 1 0-1.5h3.464zM18.6 12.15a5.25 5.25 0 1 0 0 10.5 5.25 5.25 0 0 0 0-10.5m-5.55 5.25a5.55 5.55 0 1 1 11.1 0 5.55 5.55 0 0 1-11.1 0m-5.558-3.235 5.037 5.102a.75.75 0 1 1-1.068 1.054L5.47 14.25H6.96q.232 0 .447-.062zm-.09.335a2 2 0 0 1-.442.05h-.773l5.488 5.56a.45.45 0 0 0 .64-.632zm10.448.5a.75.75 0 0 1 1.5 0v2.4a.75.75 0 1 1-1.5 0zm.75-.45a.45.45 0 0 0-.45.45v2.4a.45.45 0 1 0 .9 0V15a.45.45 0 0 0-.45-.45m-.9 5.25a.9.9 0 1 1 1.8 0 .9.9 0 0 1-1.8 0m.9-.6a.6.6 0 1 0 0 1.2.6.6 0 0 0 0-1.2" clip-rule="evenodd"/></svg>