<svg xmlns="http://www.w3.org/2000/svg" width="24" height="24" fill="none"><path fill="#04071E" d="M20.259 2.004a.75.75 0 0 1 .742.65l.007.101-.004 4.498a2.254 2.254 0 0 1-2.001 2.234v2.26a2.25 2.25 0 0 1-2.096 2.244l-.154.005H16.5v2.792a2.25 2.25 0 0 1-1.14 1.958l-.155.08-6.635 3.106a.75.75 0 0 1-1.061-.578l-.007-.101v-7.257H7.25A2.25 2.25 0 0 1 5.005 11.9L5 11.747V9.487a2.25 2.25 0 0 1-1.994-2.072L3 7.25V2.754a.75.75 0 0 1 1.493-.101l.007.101v4.497c0 .38.282.693.648.743l.102.007h13.501c.38 0 .695-.283.746-.65l.007-.1.004-4.497a.75.75 0 0 1 .75-.75M15 13.996H9.003v6.078l5.567-2.607a.75.75 0 0 0 .424-.571l.008-.108zM17.502 9.5H6.5v2.246c0 .38.282.694.648.744l.102.006h9.503a.75.75 0 0 0 .743-.648l.007-.102z"/></svg>