<svg xmlns="http://www.w3.org/2000/svg" width="24" height="24" fill="none"><path fill="#04071E" d="M4.2 2.4a.6.6 0 0 1 .6.6v4.8a.6.6 0 0 0 .6.6h13.2a.6.6 0 0 0 .6-.6V3a.6.6 0 1 1 1.2 0v4.8a1.8 1.8 0 0 1-1.2 1.698V10.8a2.4 2.4 0 0 1-2.4 2.4v1.2h-1.2v-1.2H8.4v6.83l2.406-1.204c.023.426.109.835.249 1.218l-2.987 1.493A.6.6 0 0 1 7.2 21v-7.8a2.4 2.4 0 0 1-2.4-2.4V9.498A1.8 1.8 0 0 1 3.6 7.8V3a.6.6 0 0 1 .6-.6M6 9.6v1.2A1.2 1.2 0 0 0 7.2 12h9.6a1.2 1.2 0 0 0 1.2-1.2V9.6zm9 6a3 3 0 1 0 0 6h.6a.6.6 0 0 0 0-1.2H15a1.8 1.8 0 1 1 0-3.6h.6a.6.6 0 0 0 0-1.2zm4.2 0a.6.6 0 1 0 0 1.2h.6a1.8 1.8 0 0 1 0 3.6h-.6a.6.6 0 1 0 0 1.2h.6a3 3 0 0 0 0-6zm-4.8 3a.6.6 0 0 1 .6-.6h4.8a.6.6 0 0 1 0 1.2H15a.6.6 0 0 1-.6-.6"/><path fill="#04071E" fill-rule="evenodd" d="M4.2 2.55a.45.45 0 0 0-.45.45v4.8c0 .718.459 1.33 1.1 1.556.06.021.1.078.1.142V10.8a2.25 2.25 0 0 0 2.25 2.25.15.15 0 0 1 .15.15V21a.45.45 0 0 0 .651.402l2.869-1.434a4.3 4.3 0 0 1-.196-.908l-2.207 1.103a.15.15 0 0 1-.217-.134V13.2a.15.15 0 0 1 .15-.15h7.2a.15.15 0 0 1 .15.15v1.05h.9V13.2a.15.15 0 0 1 .15-.15 2.25 2.25 0 0 0 2.25-2.25V9.498c0-.064.04-.12.1-.142a1.65 1.65 0 0 0 1.1-1.556V3a.45.45 0 0 0-.9 0v4.8a.75.75 0 0 1-.75.75H5.4a.75.75 0 0 1-.75-.75V3a.45.45 0 0 0-.45-.45M3.45 3a.75.75 0 0 1 1.5 0v4.8c0 .249.201.45.45.45h13.2a.45.45 0 0 0 .45-.45V3a.75.75 0 1 1 1.5 0v4.8a1.95 1.95 0 0 1-1.2 1.8v1.2a2.55 2.55 0 0 1-2.4 2.546V14.4a.15.15 0 0 1-.15.15h-1.2a.15.15 0 0 1-.15-.15v-1.05h-6.9v6.437l2.189-1.095a.15.15 0 0 1 .217.126c.021.41.104.805.24 1.174a.15.15 0 0 1-.074.186L8.135 21.67A.75.75 0 0 1 7.05 21v-7.654a2.55 2.55 0 0 1-2.4-2.546V9.6a1.95 1.95 0 0 1-1.2-1.8zm2.4 6.6A.15.15 0 0 1 6 9.45h12a.15.15 0 0 1 .15.15v1.2a1.35 1.35 0 0 1-1.35 1.35H7.2a1.35 1.35 0 0 1-1.35-1.35zm.3.15v1.05c0 .58.47 1.05 1.05 1.05h9.6c.58 0 1.05-.47 1.05-1.05V9.75zm5.7 8.85A3.15 3.15 0 0 1 15 15.45h.6a.75.75 0 0 1 0 1.5H15a1.65 1.65 0 1 0 0 3.3h.6a.75.75 0 0 1 0 1.5H15a3.15 3.15 0 0 1-3.15-3.15M15 15.75a2.85 2.85 0 1 0 0 5.7h.6a.45.45 0 0 0 0-.9H15a1.95 1.95 0 1 1 0-3.9h.6a.45.45 0 0 0 0-.9zm3.45.45a.75.75 0 0 1 .75-.75h.6a3.15 3.15 0 0 1 0 6.3h-.6a.75.75 0 1 1 0-1.5h.6a1.65 1.65 0 0 0 0-3.3h-.6a.75.75 0 0 1-.75-.75m.75-.45a.45.45 0 1 0 0 .9h.6a1.95 1.95 0 0 1 0 3.9h-.6a.45.45 0 1 0 0 .9h.6a2.85 2.85 0 0 0 0-5.7zm-4.2 2.4a.45.45 0 1 0 0 .9h4.8a.45.45 0 0 0 0-.9zm-.75.45a.75.75 0 0 1 .75-.75h4.8a.75.75 0 0 1 0 1.5H15a.75.75 0 0 1-.75-.75" clip-rule="evenodd"/></svg>