<svg xmlns="http://www.w3.org/2000/svg" width="24" height="24" fill="none"><path fill="#04071E" d="M4.5 12a7.5 7.5 0 0 0 6.803 7.468c.173.545.416 1.06.719 1.532H12a9 9 0 0 1-8.895-10.377.75.75 0 0 1 .752-.623c.46 0 .791.438.724.892A7.6 7.6 0 0 0 4.5 12m8.31 1a6.5 6.5 0 0 1 1.875-1.36.75.75 0 0 0-.435-.14H12.5V7.75a.75.75 0 0 0-1.5 0v4.5c0 .414.336.75.75.75zm8.19-.978a6.5 6.5 0 0 0-1.532-.719A7.5 7.5 0 0 0 6.901 6.5H8.25a.75.75 0 0 1 0 1.5h-3a.75.75 0 0 1-.75-.75v-3a.75.75 0 0 1 1.5 0v1.042A9 9 0 0 1 21 12zm2 5.478a5.5 5.5 0 1 1-11 0 5.5 5.5 0 0 1 11 0m-7.146-2.354a.5.5 0 0 0-.708.708l1.647 1.646-1.647 1.646a.5.5 0 0 0 .708.708l1.646-1.647 1.646 1.647a.5.5 0 0 0 .708-.708L18.207 17.5l1.647-1.646a.5.5 0 0 0-.708-.708L17.5 16.793z"/></svg>