<svg xmlns="http://www.w3.org/2000/svg" width="24" height="24" fill="none"><path fill="#04071E" d="M3.424 2.576a.6.6 0 1 0-.848.848l1.69 1.69A3.6 3.6 0 0 0 3.6 7.2v7.2A3.6 3.6 0 0 0 7.2 18h7.2c.777 0 1.497-.247 2.086-.666l1.03 1.03A4.18 4.18 0 0 1 15 19.2H6.917c.659.736 1.617 1.2 2.683 1.2H15a5.38 5.38 0 0 0 3.37-1.18l2.206 2.204a.6.6 0 0 0 .848-.848zm6.754 8.451a2.4 2.4 0 0 0-1.075.622l-3.97 3.97A2.4 2.4 0 0 1 4.8 14.4V7.2c0-.445.121-.862.332-1.22zM16.8 7.2v7.054l1.078 1.079Q18 14.885 18 14.4V7.2a3.6 3.6 0 0 0-3.6-3.6H7.2q-.485.001-.932.122L7.346 4.8H14.4a2.4 2.4 0 0 1 2.4 2.4m2.157 9.211.917.917A5.4 5.4 0 0 0 20.4 15V9.6a3.6 3.6 0 0 0-1.2-2.683V15a4.2 4.2 0 0 1-.243 1.411M13.8 9a1.2 1.2 0 1 0 0-2.4 1.2 1.2 0 0 0 0 2.4m-2.152 3.497 3.971 3.97a2.4 2.4 0 0 1-1.219.333H7.2a2.4 2.4 0 0 1-1.22-.332l3.971-3.97a1.2 1.2 0 0 1 1.697 0"/><path fill="#04071E" fill-rule="evenodd" d="M2.47 2.47a.75.75 0 0 1 1.06 0l18 18a.75.75 0 1 1-1.06 1.06l-2.112-2.111A5.53 5.53 0 0 1 15 20.55H9.6a3.74 3.74 0 0 1-2.795-1.25l-.224-.25H15a4.03 4.03 0 0 0 2.284-.705l-.816-.816a3.73 3.73 0 0 1-2.068.621H7.2a3.75 3.75 0 0 1-3.75-3.75V7.2c0-.764.229-1.475.621-2.068L2.47 3.53a.75.75 0 0 1 0-1.06m.848.212a.45.45 0 0 0-.636.636l1.78 1.78-.074.103A3.43 3.43 0 0 0 3.75 7.2v7.2a3.45 3.45 0 0 0 3.45 3.45h7.2c.745 0 1.435-.236 1.999-.638l.103-.073 1.242 1.241-.139.104A4.33 4.33 0 0 1 15 19.35H7.276c.613.56 1.429.9 2.324.9H15c1.24 0 2.379-.43 3.277-1.148l.105-.084 2.3 2.3a.45.45 0 0 0 .636-.636zm2.91.895q.466-.126.972-.127h7.2a3.75 3.75 0 0 1 3.75 3.75v7.2q-.001.505-.127.971l-.067.251-1.306-1.306V7.2a2.25 2.25 0 0 0-2.25-2.25H7.283L5.978 3.644zm.338.231.842.842H14.4a2.55 2.55 0 0 1 2.55 2.55v6.992l.842.842q.058-.308.058-.634V7.2a3.45 3.45 0 0 0-3.45-3.45H7.2q-.326 0-.634.058m-1.464 1.93 5.367 5.367-.252.067c-.369.099-.718.293-1.008.583l-4.107 4.107-.099-.167A2.54 2.54 0 0 1 4.65 14.4V7.2c0-.473.129-.916.353-1.295zm.067.492a2.24 2.24 0 0 0-.219.97v7.2c0 .348.079.676.22.97l3.827-3.827a2.5 2.5 0 0 1 .902-.583zM12.45 7.8a1.35 1.35 0 1 1 2.7 0 1.35 1.35 0 0 1-2.7 0m1.35-1.05a1.05 1.05 0 1 0 0 2.1 1.05 1.05 0 0 0 0-2.1m5.25-.169.25.224A3.74 3.74 0 0 1 20.55 9.6V15c0 .857-.194 1.668-.54 2.393l-.092.191-1.134-1.134.032-.089A4 4 0 0 0 19.05 15zm.3.695V15a4.4 4.4 0 0 1-.22 1.372l.697.697A5.2 5.2 0 0 0 20.25 15V9.6c0-.895-.34-1.71-.9-2.324m-7.808 5.327a1.05 1.05 0 0 0-1.485 0L6.23 16.431c.294.14.622.219.97.219h7.2c.348 0 .676-.079.97-.22zm-1.697-.212a1.35 1.35 0 0 1 1.91 0l4.107 4.108-.167.098a2.54 2.54 0 0 1-1.295.353H7.2c-.473 0-.916-.129-1.295-.353l-.167-.099z" clip-rule="evenodd"/></svg>