<svg xmlns="http://www.w3.org/2000/svg" width="24" height="24" fill="none"><path fill="#04071E" d="M7.2 3.6a3.6 3.6 0 0 0-3.6 3.6v9.6a3.6 3.6 0 0 0 3.6 3.6h9.6a3.6 3.6 0 0 0 3.6-3.6V7.2a3.6 3.6 0 0 0-3.6-3.6zm9.249 15.6-2.964-2.964a2.1 2.1 0 0 0-2.97 0L7.551 19.2H7.2a2.4 2.4 0 0 1-2.4-2.4V12h14.4v4.8a2.4 2.4 0 0 1-2.4 2.4zm-7.2 0 2.115-2.115a.9.9 0 0 1 1.272 0l2.116 2.115zm9.951-8.4h-3.351l-2.364-2.364a2.1 2.1 0 0 0-2.97 0L8.151 10.8H4.8V7.2a2.4 2.4 0 0 1 2.4-2.4h9.6a2.4 2.4 0 0 1 2.4 2.4zm-9.351 0 1.515-1.515a.9.9 0 0 1 1.272 0l1.516 1.515zM18 7.2a1.2 1.2 0 1 1-2.4 0 1.2 1.2 0 0 1 2.4 0m-1.2 9a1.2 1.2 0 1 0 0-2.4 1.2 1.2 0 0 0 0 2.4"/><path fill="#04071E" fill-rule="evenodd" d="M3.45 7.2A3.75 3.75 0 0 1 7.2 3.45h9.6a3.75 3.75 0 0 1 3.75 3.75v9.6a3.75 3.75 0 0 1-3.75 3.75H7.2a3.75 3.75 0 0 1-3.75-3.75zM7.2 3.75A3.45 3.45 0 0 0 3.75 7.2v9.6a3.45 3.45 0 0 0 3.45 3.45h9.6a3.45 3.45 0 0 0 3.45-3.45V7.2a3.45 3.45 0 0 0-3.45-3.45zm0 1.2A2.25 2.25 0 0 0 4.95 7.2v3.45h3.14l2.319-2.32a2.25 2.25 0 0 1 3.182 0l2.32 2.32h3.139V7.2a2.25 2.25 0 0 0-2.25-2.25zM4.65 7.2A2.55 2.55 0 0 1 7.2 4.65h9.6a2.55 2.55 0 0 1 2.55 2.55v3.75h-3.564L13.38 8.542a1.95 1.95 0 0 0-2.758 0L8.214 10.95H4.65zM16.8 6.15a1.05 1.05 0 1 0 0 2.1 1.05 1.05 0 0 0 0-2.1M15.45 7.2a1.35 1.35 0 1 1 2.7 0 1.35 1.35 0 0 1-2.7 0m-2.92 2.19a.75.75 0 0 0-1.06 0l-1.26 1.26h3.58zm-1.272-.211a1.05 1.05 0 0 1 1.485 0l1.77 1.771H9.487zm-6.608 2.67h14.7v4.95a2.55 2.55 0 0 1-2.55 2.55h-.414l-3.007-3.007a1.95 1.95 0 0 0-2.758 0L7.614 19.35H7.2a2.55 2.55 0 0 1-2.55-2.55zm.3.301v4.65a2.25 2.25 0 0 0 2.25 2.25h.29l2.919-2.92a2.25 2.25 0 0 1 3.182 0l2.92 2.92h.289a2.25 2.25 0 0 0 2.25-2.25v-4.65zM15.45 15a1.35 1.35 0 1 1 2.7 0 1.35 1.35 0 0 1-2.7 0m1.35-1.05a1.05 1.05 0 1 0 0 2.1 1.05 1.05 0 0 0 0-2.1m-4.27 3.24a.75.75 0 0 0-1.06 0l-1.86 1.86h4.78zm-1.272-.211a1.05 1.05 0 0 1 1.485 0l2.37 2.37H8.887z" clip-rule="evenodd"/></svg>