<svg xmlns="http://www.w3.org/2000/svg" width="24" height="24" fill="none"><path fill="#04071E" d="M12 2.002a3.875 3.875 0 0 0-3.875 3.876c0 2.919 1.207 6.551 1.813 8.198a2.19 2.19 0 0 0 2.064 1.424c.904 0 1.739-.543 2.063-1.419.606-1.64 1.81-5.254 1.81-8.203A3.875 3.875 0 0 0 12 2.002M9.625 5.878a2.375 2.375 0 0 1 4.75 0c0 2.654-1.111 6.043-1.717 7.684a.69.69 0 0 1-.655.438.69.69 0 0 1-.657-.441c-.607-1.652-1.721-5.058-1.721-7.681m2.376 11.124a2.501 2.501 0 1 0 0 5.002 2.501 2.501 0 0 0 0-5.003M11 19.502a1.001 1.001 0 1 1 2.002 0 1.001 1.001 0 0 1-2.002 0"/></svg>