<svg xmlns="http://www.w3.org/2000/svg" width="24" height="24" fill="none"><path fill="#04071E" d="M12.728 19.827a8.502 8.502 0 1 1 6.604-10.025q.328.335.652.58a4.3 4.3 0 0 0 1.003.57C20.702 5.685 16.34 1.5 11 1.5 5.476 1.5.998 5.978.998 11.502c0 5.523 4.478 10.001 10.002 10.001.897 0 1.766-.118 2.593-.34a7 7 0 0 1-.865-1.336"/><path fill="#04071E" d="M10.996 10a.75.75 0 0 1 .744.648l.007.102.003 5.502a.75.75 0 0 1-1.493.102l-.007-.101-.003-5.502a.75.75 0 0 1 .75-.75M11 6.503A.999.999 0 1 1 11 8.5a.999.999 0 0 1 0-1.997M20.4 12.118a5.6 5.6 0 0 1-1.2-.7 7 7 0 0 1-.86-.77.466.466 0 0 0-.679 0C16.468 11.89 15.148 12.5 13.68 12.5a.49.49 0 0 0-.48.5v3.001l.005.319q.048 1.435.529 2.58a5.8 5.8 0 0 0 1.865 2.4q.944.72 2.25 1.174a.46.46 0 0 0 .303 0c3.072-1.067 4.648-3.254 4.648-6.473v-3.001l-.01-.1a.486.486 0 0 0-.47-.4 4.864 4.864 0 0 1-1.92-.383"/></svg>