<svg xmlns="http://www.w3.org/2000/svg" width="24" height="24" fill="none"><path fill="#04071E" d="M7.2 3.6A1.2 1.2 0 0 0 6 4.8v2.4a1.2 1.2 0 0 0 1.2 1.2h9.6A1.2 1.2 0 0 0 18 7.2V4.8a1.2 1.2 0 0 0-1.2-1.2zM4.8 4.8a2.4 2.4 0 0 1 2.4-2.4h9.6a2.4 2.4 0 0 1 2.4 2.4v2.4a2.4 2.4 0 0 1-2.4 2.4H7.2a2.4 2.4 0 0 1-2.4-2.4zm2.4 15.6A1.2 1.2 0 0 1 6 19.2v-2.4a1.2 1.2 0 0 1 1.2-1.2h9.6a1.2 1.2 0 0 1 1.2 1.2v2.4a1.2 1.2 0 0 1-1.2 1.2zm-2.4-1.2a2.4 2.4 0 0 0 2.4 2.4h9.6a2.4 2.4 0 0 0 2.4-2.4v-2.4a2.4 2.4 0 0 0-2.4-2.4H7.2a2.4 2.4 0 0 0-2.4 2.4zM2.4 12a.6.6 0 0 1 .6-.6h18a.6.6 0 1 1 0 1.2H3a.6.6 0 0 1-.6-.6"/><path fill="#04071E" fill-rule="evenodd" d="M7.2 2.55A2.25 2.25 0 0 0 4.95 4.8v2.4A2.25 2.25 0 0 0 7.2 9.45h9.6a2.25 2.25 0 0 0 2.25-2.25V4.8a2.25 2.25 0 0 0-2.25-2.25zM4.65 4.8A2.55 2.55 0 0 1 7.2 2.25h9.6a2.55 2.55 0 0 1 2.55 2.55v2.4a2.55 2.55 0 0 1-2.55 2.55H7.2A2.55 2.55 0 0 1 4.65 7.2zm1.2 0c0-.746.604-1.35 1.35-1.35h9.6c.746 0 1.35.604 1.35 1.35v2.4a1.35 1.35 0 0 1-1.35 1.35H7.2A1.35 1.35 0 0 1 5.85 7.2zM7.2 3.75c-.58 0-1.05.47-1.05 1.05v2.4c0 .58.47 1.05 1.05 1.05h9.6c.58 0 1.05-.47 1.05-1.05V4.8c0-.58-.47-1.05-1.05-1.05zM3 11.55a.45.45 0 0 0 0 .9h18a.45.45 0 0 0 0-.9zm-.75.45a.75.75 0 0 1 .75-.75h18a.75.75 0 0 1 0 1.5H3a.75.75 0 0 1-.75-.75m2.4 4.8a2.55 2.55 0 0 1 2.55-2.55h9.6a2.55 2.55 0 0 1 2.55 2.55v2.4a2.55 2.55 0 0 1-2.55 2.55H7.2a2.55 2.55 0 0 1-2.55-2.55zm2.55-2.25a2.25 2.25 0 0 0-2.25 2.25v2.4a2.25 2.25 0 0 0 2.25 2.25h9.6a2.25 2.25 0 0 0 2.25-2.25v-2.4a2.25 2.25 0 0 0-2.25-2.25zm0 1.2c-.58 0-1.05.47-1.05 1.05v2.4c0 .58.47 1.05 1.05 1.05h9.6c.58 0 1.05-.47 1.05-1.05v-2.4c0-.58-.47-1.05-1.05-1.05zM5.85 16.8c0-.746.604-1.35 1.35-1.35h9.6c.746 0 1.35.604 1.35 1.35v2.4a1.35 1.35 0 0 1-1.35 1.35H7.2a1.35 1.35 0 0 1-1.35-1.35z" clip-rule="evenodd"/></svg>