<svg xmlns="http://www.w3.org/2000/svg" width="24" height="24" fill="none"><path fill="#04071E" d="M19 4.491a2.5 2.5 0 0 1-3.012 2.448l-1.28 2.117A4 4 0 0 1 16 12.058l1.296.261a2.5 2.5 0 1 1-.279 1.474l-1.319-.265a4 4 0 0 1-1.744 1.963l.495 1.512h.051a2.5 2.5 0 1 1-1.472.478l-.497-1.516a3.994 3.994 0 0 1-3.752-1.592l-1.794.847q.015.138.015.28a2.5 2.5 0 1 1-.623-1.652l1.754-.828a4 4 0 0 1 .784-3.567l-.991-1.13a2.5 2.5 0 1 1 1.164-.948l.982 1.12A4 4 0 0 1 12 8c.505 0 .989.094 1.434.265l1.245-2.06A2.5 2.5 0 1 1 19 4.492m-1.5 0a1 1 0 1 0-2 0 1 1 0 0 0 2 0M7 7a1 1 0 1 0 0-2 1 1 0 0 0 0 2m5 7.5a2.5 2.5 0 1 0 0-5 2.5 2.5 0 0 0 0 5m-6.5 1a1 1 0 1 0-2 0 1 1 0 0 0 2 0m10 4.002a1 1 0 1 0-2 0 1 1 0 0 0 2 0m4-5.002a1 1 0 1 0 0-2 1 1 0 0 0 0 2"/></svg>