<svg xmlns="http://www.w3.org/2000/svg" width="24" height="24" fill="none"><path fill="#04071E" d="M12 3.6a2.4 2.4 0 1 1 0 4.8 2.4 2.4 0 0 1 0-4.8m.6 5.95a3.601 3.601 0 1 0-1.2 0v3.65H9A1.8 1.8 0 0 0 7.2 15v.6H6A2.4 2.4 0 0 0 3.6 18v3a.6.6 0 0 0 .6.6h15.6a.6.6 0 0 0 .6-.6v-3a2.4 2.4 0 0 0-2.4-2.4h-1.2V15a1.8 1.8 0 0 0-1.8-1.8h-2.4zM9 14.4h6a.6.6 0 0 1 .6.6v.6H8.4V15a.6.6 0 0 1 .6-.6m-3 2.4h12a1.2 1.2 0 0 1 1.2 1.2v2.4H4.8V18A1.2 1.2 0 0 1 6 16.8"/><path fill="#04071E" fill-rule="evenodd" d="M8.25 6a3.75 3.75 0 1 1 4.5 3.675v3.375H15A1.95 1.95 0 0 1 16.95 15v.45H18A2.55 2.55 0 0 1 20.55 18v3a.75.75 0 0 1-.75.75H4.2a.75.75 0 0 1-.75-.75v-3A2.55 2.55 0 0 1 6 15.45h1.05V15A1.95 1.95 0 0 1 9 13.05h2.25V9.675A3.75 3.75 0 0 1 8.25 6M12 2.55a3.45 3.45 0 0 0-.575 6.852l.125.021v3.927H9A1.65 1.65 0 0 0 7.35 15v.75H6A2.25 2.25 0 0 0 3.75 18v3c0 .248.201.45.45.45h15.6a.45.45 0 0 0 .45-.45v-3A2.25 2.25 0 0 0 18 15.75h-1.35V15A1.65 1.65 0 0 0 15 13.35h-2.55V9.423l.125-.02A3.451 3.451 0 0 0 12 2.55m0 1.2a2.25 2.25 0 1 0 0 4.5 2.25 2.25 0 0 0 0-4.5M9.45 6a2.55 2.55 0 1 1 5.1 0 2.55 2.55 0 0 1-5.1 0M9 14.55a.45.45 0 0 0-.45.45v.45h6.9V15a.45.45 0 0 0-.45-.45zm-.75.45a.75.75 0 0 1 .75-.75h6a.75.75 0 0 1 .75.75v.75h-7.5zM6 16.95c-.58 0-1.05.47-1.05 1.05v2.25h14.1V18c0-.58-.47-1.05-1.05-1.05zM4.65 18c0-.746.604-1.35 1.35-1.35h12c.746 0 1.35.604 1.35 1.35v2.55H4.65z" clip-rule="evenodd"/></svg>