<svg xmlns="http://www.w3.org/2000/svg" width="24" height="24" fill="none"><path fill="#04071E" d="M18.75 15H5.25a.75.75 0 1 0 0 1.5h13.5a.75.75 0 0 0 0-1.5m-6.375-1.5a1.125 1.125 0 1 0-1.125-1.125 1.133 1.133 0 0 0 1.125 1.125m-4.5 0a1.125 1.125 0 1 0-1.125-1.125A1.133 1.133 0 0 0 7.875 13.5M6 9.375A1.125 1.125 0 1 0 4.875 10.5 1.133 1.133 0 0 0 6 9.375m15 3.6v3.9A1.133 1.133 0 0 1 19.875 18H4.125A1.133 1.133 0 0 1 3 16.875v-9.75A1.133 1.133 0 0 1 4.125 6H13.5V4.5H4.125A2.62 2.62 0 0 0 1.5 7.125v9.75A2.62 2.62 0 0 0 4.125 19.5h15.75a2.62 2.62 0 0 0 2.625-2.625V11.91a4.6 4.6 0 0 1-1.5 1.065M4.5 15.75a.75.75 0 0 0 .75.75h13.5a.75.75 0 0 0 0-1.5H5.25a.75.75 0 0 0-.75.75m6-6.375A1.125 1.125 0 1 0 9.375 10.5 1.133 1.133 0 0 0 10.5 9.375m-3.75 3a1.125 1.125 0 1 0 1.125-1.125 1.13 1.13 0 0 0-1.125 1.125m-.75-3A1.125 1.125 0 1 0 4.875 10.5 1.133 1.133 0 0 0 6 9.375m1.875 1.875A1.125 1.125 0 1 0 9 12.375a1.133 1.133 0 0 0-1.125-1.125m-3-3A1.125 1.125 0 1 0 6 9.375 1.13 1.13 0 0 0 4.875 8.25M18.75 15H5.25a.75.75 0 1 0 0 1.5h13.5a.75.75 0 0 0 0-1.5m1.5-13.5h-3A2.25 2.25 0 0 0 15 3.75v4.5a3.75 3.75 0 0 0 7.5 0v-4.5a2.25 2.25 0 0 0-2.25-2.25M21 8.25a2.25 2.25 0 1 1-4.5 0v-4.5a.75.75 0 0 1 .75-.75H18v2.25a.75.75 0 1 0 1.5 0V3h.75a.75.75 0 0 1 .75.75z"/></svg>