<svg xmlns="http://www.w3.org/2000/svg" width="24" height="24" fill="none"><path fill="#04071E" d="M3.6 8.4A2.4 2.4 0 0 1 6 6h12a2.4 2.4 0 0 1 2.4 2.4v2.289a5 5 0 0 1-.627-.576 1.6 1.6 0 0 0-.573-.396V8.4A1.2 1.2 0 0 0 18 7.2H6a1.2 1.2 0 0 0-1.2 1.2v6A1.2 1.2 0 0 0 6 15.6h7.202v.16l.005.307v.01q.013.367.052.723H6a2.4 2.4 0 0 1-2.4-2.4zm10.33 10.8a7 7 0 0 1-.446-1.2H3a.6.6 0 1 0 0 1.2zm4.671 2.4a.4.4 0 0 1-.131-.023q-1.246-.446-2.114-1.176h-.002a5.2 5.2 0 0 1-1.052-1.2q-.834-1.314-.895-3.163l-.005-.287V13.05c0-.248.188-.45.42-.45 1.285 0 2.44-.55 3.484-1.668a.4.4 0 0 1 .295-.132c.107 0 .214.044.295.132 1.044 1.118 2.2 1.668 3.484 1.668.232 0 .42.202.42.45v2.701l-.005.287q-.062 1.85-.894 3.162v.001a5.2 5.2 0 0 1-1.053 1.2h-.002q-.867.731-2.113 1.176a.4.4 0 0 1-.132.023"/><path fill="#04071E" fill-rule="evenodd" d="m20.6 11.096-.322-.249a5.4 5.4 0 0 1-.65-.598 1.4 1.4 0 0 0-.503-.346L19 9.853V8.4a1 1 0 0 0-1-1H6a1 1 0 0 0-1 1v6a1 1 0 0 0 1 1h7.402v.36l.005.302v.008q.012.36.05.708l.026.222H6a2.6 2.6 0 0 1-2.6-2.6v-6A2.6 2.6 0 0 1 6 5.8h12a2.6 2.6 0 0 1 2.6 2.6zm-7.392 4.98v-.01l-.006-.305V15.6H6a1.2 1.2 0 0 1-1.2-1.2v-6A1.2 1.2 0 0 1 6 7.2h12a1.2 1.2 0 0 1 1.2 1.2v1.317c.214.087.41.22.573.396a5.6 5.6 0 0 0 .627.576V8.4A2.4 2.4 0 0 0 18 6H6a2.4 2.4 0 0 0-2.4 2.4v6A2.4 2.4 0 0 0 6 16.8h7.259a9 9 0 0 1-.051-.723m1.041 3.324H3a.8.8 0 0 1 0-1.6h10.637l.04.148q.165.61.433 1.165zm1.976 1.153a5.4 5.4 0 0 1-1.092-1.244v-.002c-.577-.909-.885-2.002-.926-3.263v-.003l-.005-.29V13.05c0-.346.265-.65.62-.65 1.22 0 2.324-.519 3.338-1.605a.6.6 0 0 1 .44-.195h.002c.162 0 .321.068.44.195 1.014 1.086 2.119 1.605 3.338 1.605.355 0 .62.304.62.65v2.704l-.005.29c-.04 1.261-.348 2.354-.925 3.263v.002q-.444.698-1.093 1.244l-.002.001q-.9.757-2.175 1.211a.6.6 0 0 1-.198.035H18.6a.6.6 0 0 1-.199-.035q-1.275-.455-2.175-1.21zm5.675-1.352h.001q.834-1.314.894-3.163l.005-.287V13.05c0-.248-.188-.45-.42-.45-1.285 0-2.44-.55-3.484-1.668a.4.4 0 0 0-.295-.132.4.4 0 0 0-.295.132c-1.044 1.118-2.2 1.668-3.484 1.668-.232 0-.42.202-.42.45v2.701l.005.287q.062 1.85.894 3.162l.001.001q.426.672 1.052 1.2h.002q.867.731 2.114 1.176a.4.4 0 0 0 .263 0q1.245-.446 2.113-1.176h.002a5.2 5.2 0 0 0 1.052-1.2m-18.9 0A.6.6 0 0 1 3 18h10.484a7 7 0 0 0 .446 1.2z" clip-rule="evenodd"/></svg>