<svg xmlns="http://www.w3.org/2000/svg" width="24" height="24" fill="none"><path fill="#04071E" d="M13.173 7.2H18a1.2 1.2 0 0 1 1.2 1.2v6a1.2 1.2 0 0 1-1.2 1.2H6a1.2 1.2 0 0 1-1.2-1.2v-1.448a6.6 6.6 0 0 1-1.2-.472v1.92A2.4 2.4 0 0 0 6 16.8h12a2.4 2.4 0 0 0 2.4-2.4v-6A2.4 2.4 0 0 0 18 6h-4.827a6.7 6.7 0 0 1 0 1.2M3 18a.6.6 0 0 0 0 1.2h18a.6.6 0 1 0 0-1.2zm3.6-6a5.4 5.4 0 1 0 0-10.8 5.4 5.4 0 0 0 0 10.8m2.224-7.624a.6.6 0 0 1 0 .848L7.45 6.6l1.375 1.376a.6.6 0 0 1-.848.848L6.6 7.45 5.224 8.824a.6.6 0 1 1-.848-.848L5.75 6.6 4.376 5.224a.6.6 0 1 1 .848-.848L6.6 5.752l1.376-1.376a.6.6 0 0 1 .848 0"/><path fill="#04071E" fill-rule="evenodd" d="M1.05 6.6a5.55 5.55 0 1 1 11.1 0 5.55 5.55 0 0 1-11.1 0M6.6 1.35a5.25 5.25 0 1 0 0 10.5 5.25 5.25 0 0 0 0-10.5M5.118 4.482a.45.45 0 0 0-.636.636L5.964 6.6 4.482 8.082a.45.45 0 0 0 .636.636L6.6 7.236l1.482 1.482a.45.45 0 0 0 .636-.636L7.236 6.6l1.482-1.482a.45.45 0 1 0-.636-.636L6.6 5.964zM4.27 4.27a.75.75 0 0 1 1.06 0L6.6 5.54l1.27-1.27a.75.75 0 0 1 1.06 1.06L7.66 6.6l1.27 1.27a.75.75 0 1 1-1.06 1.06L6.6 7.66 5.33 8.93a.75.75 0 0 1-1.06-1.06L5.54 6.6 4.27 5.33a.75.75 0 0 1 0-1.06m8.739 1.58H18a2.55 2.55 0 0 1 2.55 2.55v6A2.55 2.55 0 0 1 18 16.95H6a2.55 2.55 0 0 1-2.55-2.55v-2.165l.218.112q.559.286 1.173.46l.109.031V14.4c0 .58.47 1.05 1.05 1.05h12c.58 0 1.05-.47 1.05-1.05v-6c0-.58-.47-1.05-1.05-1.05h-4.991l.015-.163a6.5 6.5 0 0 0 0-1.173zm.326.3a7 7 0 0 1 0 .9H18c.746 0 1.35.604 1.35 1.35v6A1.35 1.35 0 0 1 18 15.75H6a1.35 1.35 0 0 1-1.35-1.35v-1.336a7 7 0 0 1-.9-.343V14.4A2.25 2.25 0 0 0 6 16.65h12a2.25 2.25 0 0 0 2.25-2.25v-6A2.25 2.25 0 0 0 18 6.15zM2.25 18.6a.75.75 0 0 1 .75-.75h18a.75.75 0 0 1 0 1.5H3a.75.75 0 0 1-.75-.75m.75-.45a.45.45 0 0 0 0 .9h18a.45.45 0 1 0 0-.9z" clip-rule="evenodd"/></svg>