<svg xmlns="http://www.w3.org/2000/svg" width="24" height="24" fill="none"><path fill="#04071E" d="M4.8 3a.6.6 0 0 0-1.2 0v3c0 .888.483 1.664 1.2 2.079V9a1.8 1.8 0 0 0 1.8 1.8h4.8V15a.6.6 0 1 0 1.2 0v-4.2h4.8A1.8 1.8 0 0 0 19.2 9v-.921A2.4 2.4 0 0 0 20.4 6V3a.6.6 0 1 0-1.2 0v3A1.2 1.2 0 0 1 18 7.2H6A1.2 1.2 0 0 1 4.8 6zM6 8.4h12V9a.6.6 0 0 1-.6.6H6.6A.6.6 0 0 1 6 9zM6.6 16.8a.6.6 0 1 0 0 1.2h1.8a.6.6 0 1 0 0-1.2zM15 17.4a.6.6 0 0 1 .6-.6h1.8a.6.6 0 1 1 0 1.2h-1.8a.6.6 0 0 1-.6-.6M12 18a.6.6 0 1 0 0-1.2.6.6 0 0 0 0 1.2M12 19.2a.6.6 0 0 1 .6.6v2.4a.6.6 0 1 1-1.2 0v-2.4a.6.6 0 0 1 .6-.6M10.624 19.024a.6.6 0 0 0-.848-.848l-1.8 1.8a.6.6 0 0 0 .848.848zM13.376 18.176a.6.6 0 0 0 0 .848l1.8 1.8a.6.6 0 0 0 .848-.848l-1.8-1.8a.6.6 0 0 0-.848 0"/><path fill="#04071E" fill-rule="evenodd" d="M4.2 2.55a.45.45 0 0 0-.45.45v3c0 .833.452 1.56 1.125 1.95l.075.042V9c0 .911.739 1.65 1.65 1.65h4.95V15a.45.45 0 0 0 .9 0v-4.35h4.95A1.65 1.65 0 0 0 19.05 9V7.992l.075-.043A2.25 2.25 0 0 0 20.25 6V3a.45.45 0 0 0-.9 0v3A1.35 1.35 0 0 1 18 7.35H6A1.35 1.35 0 0 1 4.65 6V3a.45.45 0 0 0-.45-.45M3.45 3a.75.75 0 1 1 1.5 0v3c0 .58.47 1.05 1.05 1.05h12c.58 0 1.05-.47 1.05-1.05V3a.75.75 0 0 1 1.5 0v3c0 .913-.48 1.713-1.2 2.164V9a1.95 1.95 0 0 1-1.95 1.95h-4.65V15a.75.75 0 0 1-1.5 0v-4.05H6.6A1.95 1.95 0 0 1 4.65 9v-.836c-.72-.45-1.2-1.251-1.2-2.164zm2.4 5.25h12.3V9a.75.75 0 0 1-.75.75H6.6A.75.75 0 0 1 5.85 9zm.3.3V9c0 .249.201.45.45.45h10.8a.45.45 0 0 0 .45-.45v-.45zm.45 8.4a.45.45 0 0 0 0 .9h1.8a.45.45 0 0 0 0-.9zm-.75.45a.75.75 0 0 1 .75-.75h1.8a.75.75 0 0 1 0 1.5H6.6a.75.75 0 0 1-.75-.75m6.15-.45a.45.45 0 1 0 0 .9.45.45 0 0 0 0-.9m-.75.45a.75.75 0 1 1 1.5 0 .75.75 0 0 1-1.5 0m3.6 0a.75.75 0 0 1 .75-.75h1.8a.75.75 0 0 1 0 1.5h-1.8a.75.75 0 0 1-.75-.75m.75-.45a.45.45 0 0 0 0 .9h1.8a.45.45 0 0 0 0-.9zm-5.082 1.332a.45.45 0 0 0-.636 0l-1.8 1.8a.45.45 0 1 0 .636.636l1.8-1.8a.45.45 0 0 0 0-.636m-.848-.212a.75.75 0 1 1 1.06 1.06l-1.8 1.8a.75.75 0 0 1-1.06-1.06zm4.448.212a.45.45 0 0 0-.636.636l1.8 1.8a.45.45 0 0 0 .636-.636zm-.848-.212a.75.75 0 0 1 1.06 0l1.8 1.8a.75.75 0 1 1-1.06 1.06l-1.8-1.8a.75.75 0 0 1 0-1.06m-2.02 1.73a.75.75 0 0 1 1.5 0v2.4a.75.75 0 0 1-1.5 0zm.75-.45a.45.45 0 0 0-.45.45v2.4a.45.45 0 0 0 .9 0v-2.4a.45.45 0 0 0-.45-.45" clip-rule="evenodd"/></svg>