<svg xmlns="http://www.w3.org/2000/svg" width="24" height="24" fill="none"><path fill="#04071E" d="M9.703 2.265A10 10 0 0 1 12 2c.79 0 1.559.092 2.297.265a.75.75 0 1 1-.343 1.46A8.5 8.5 0 0 0 12 3.5c-.673 0-1.327.078-1.954.225a.75.75 0 1 1-.343-1.46m-1.93 1.47a.75.75 0 0 1-.242 1.033 8.55 8.55 0 0 0-2.763 2.763.75.75 0 1 1-1.275-.79 10.05 10.05 0 0 1 3.248-3.248.75.75 0 0 1 1.032.243m8.454 0a.75.75 0 0 1 1.032-.242 10.05 10.05 0 0 1 3.248 3.248.75.75 0 1 1-1.275.79 8.55 8.55 0 0 0-2.763-2.763.75.75 0 0 1-.242-1.032m-13.06 5.41a.75.75 0 0 1 .558.901A8.5 8.5 0 0 0 3.5 12c0 .673.078 1.327.225 1.954a.75.75 0 1 1-1.46.343A10 10 0 0 1 2 12c0-.79.092-1.559.265-2.297a.75.75 0 0 1 .902-.559m17.666 0a.75.75 0 0 1 .902.558C21.908 10.44 22 11.21 22 12s-.092 1.559-.265 2.297a.75.75 0 1 1-1.46-.343c.147-.627.225-1.28.225-1.954s-.078-1.327-.226-1.954a.75.75 0 0 1 .559-.902M3.736 16.226a.75.75 0 0 1 1.032.242 8.55 8.55 0 0 0 2.763 2.763.75.75 0 0 1-.79 1.275 10.05 10.05 0 0 1-3.248-3.248.75.75 0 0 1 .243-1.032m16.685.858a.75.75 0 1 0-1.342-.67l-.002.004-.015.029-.069.123c-.062.11-.159.271-.289.466a9.6 9.6 0 0 1-.965 1.219c-1.17-1.073-2.756-2.006-4.74-2.006-2.347 0-3.99 1.203-3.99 2.875S10.653 22 13 22c1.942 0 3.495-.75 4.658-1.645a11.7 11.7 0 0 1 1.315 2.01q.05.099.073.149l.017.035.004.009a.75.75 0 0 0 1.368-.615c-.087-.183 0-.001 0-.001v-.002l-.003-.004-.007-.015-.024-.052-.091-.184a13.199 13.199 0 0 0-1.538-2.337 11 11 0 0 0 1.525-2.032l.09-.162.024-.047.007-.014.002-.005zM13 17.75c1.433 0 2.644.652 3.616 1.512-.95.7-2.155 1.238-3.616 1.238-1.973 0-2.49-.922-2.49-1.375s.517-1.375 2.49-1.375"/></svg>