<svg xmlns="http://www.w3.org/2000/svg" width="24" height="24" fill="none"><path fill="#04071E" d="M11.778 3.643a.6.6 0 0 1 .821.558v.362l1.197-.474a1.8 1.8 0 0 0-2.46-1.561l-7.04 2.788A3 3 0 0 0 2.4 8.106v6.89a1.8 1.8 0 0 0 2.4 1.698v-1.29l-.379.15a.6.6 0 0 1-.821-.557V8.106a1.8 1.8 0 0 1 1.137-1.674zm3.6 2.4a.6.6 0 0 1 .821.559V7.2l1.2-.475v-.123a1.8 1.8 0 0 0-2.463-1.674l-7.42 2.94A2.4 2.4 0 0 0 6 10.097v7.3a1.8 1.8 0 0 0 2.463 1.673L9.6 18.62v-1.29l-1.579.625a.6.6 0 0 1-.821-.558V10.1c0-.493.3-.935.758-1.116zM20.4 9.002a.6.6 0 0 0-.821-.558l-7.2 2.851a.6.6 0 0 0-.379.558V19.8a.6.6 0 0 0 .82.558l.4-.158c.04.398.142.792.309 1.168l-.266.106A1.8 1.8 0 0 1 10.8 19.8v-7.948a1.8 1.8 0 0 1 1.137-1.673l7.2-2.852A1.8 1.8 0 0 1 21.6 9.001v3.408a3.6 3.6 0 0 0-1.2-1.127zM21 14.4a2.4 2.4 0 1 1-4.8 0 2.4 2.4 0 0 1 4.8 0m1.8 5.4c0 1.494-1.2 3-4.2 3s-4.2-1.5-4.2-3a1.8 1.8 0 0 1 1.8-1.8H21a1.8 1.8 0 0 1 1.8 1.8"/><path fill="#04071E" fill-rule="evenodd" d="M12.5 4.71v-.509a.5.5 0 0 0-.685-.465L4.774 6.525A1.7 1.7 0 0 0 3.7 8.105v6.892a.5.5 0 0 0 .684.465l.516-.205v1.508l-.067.023A1.9 1.9 0 0 1 2.3 14.997V8.106a3.1 3.1 0 0 1 1.958-2.883L11.3 2.435a1.9 1.9 0 0 1 2.596 1.648l.004.072zm3.6 2.637v-.745a.5.5 0 0 0-.685-.465l-7.42 2.939a1.1 1.1 0 0 0-.695 1.022v7.3a.5.5 0 0 0 .684.464l1.716-.68v1.506l-1.2.476a1.9 1.9 0 0 1-2.6-1.767V10.1a2.5 2.5 0 0 1 1.58-2.325l7.42-2.939a1.9 1.9 0 0 1 2.6 1.767v.19zm-2.794 12.711.014.132c.039.387.138.772.3 1.138l.042.095-.362.144a1.9 1.9 0 0 1-2.6-1.767v-7.948a1.9 1.9 0 0 1 1.2-1.766l7.2-2.852a1.9 1.9 0 0 1 2.6 1.767v3.74l-.183-.276a3.5 3.5 0 0 0-1.167-1.097l-.05-.029V9.001a.5.5 0 0 0-.684-.465l-7.2 2.851a.5.5 0 0 0-.316.465V19.8a.5.5 0 0 0 .684.465zM12.6 4.201a.6.6 0 0 0-.82-.558l-7.042 2.79A1.8 1.8 0 0 0 3.6 8.105v6.89a.6.6 0 0 0 .821.559l.379-.15v1.289a1.8 1.8 0 0 1-2.4-1.697V8.106a3 3 0 0 1 1.895-2.79l7.041-2.788a1.8 1.8 0 0 1 2.46 1.561l-1.197.474zm3.6 2.4a.6.6 0 0 0-.82-.557l-7.42 2.939a1.2 1.2 0 0 0-.759 1.115v7.3a.6.6 0 0 0 .821.557L9.6 17.33v1.291l-1.137.45A1.8 1.8 0 0 1 6 17.398V10.1a2.4 2.4 0 0 1 1.516-2.232l7.42-2.939A1.8 1.8 0 0 1 17.4 6.602v.123l-1.2.475zm-2.936 14.873A1.8 1.8 0 0 1 10.8 19.8v-7.948a1.8 1.8 0 0 1 1.137-1.673l7.2-2.852A1.8 1.8 0 0 1 21.6 9.001v3.408a3.618 3.618 0 0 0-1.2-1.128v-2.28a.6.6 0 0 0-.821-.558l-7.2 2.851a.6.6 0 0 0-.379.558V19.8a.6.6 0 0 0 .82.558l.4-.158.012.103a3.8 3.8 0 0 0 .297 1.065zM21.1 14.4a2.5 2.5 0 1 1-5 0 2.5 2.5 0 0 1 5 0m.79 7.537c-.699.582-1.774.963-3.29.963s-2.591-.379-3.289-.96A2.74 2.74 0 0 1 14.3 19.8c0-1.05.85-1.9 1.9-1.9H21c1.05 0 1.9.85 1.9 1.9a2.74 2.74 0 0 1-1.01 2.137M18.6 16.8a2.4 2.4 0 1 0 0-4.8 2.4 2.4 0 0 0 0 4.8m0 6c3 0 4.2-1.506 4.2-3A1.8 1.8 0 0 0 21 18h-4.8a1.8 1.8 0 0 0-1.8 1.8c0 1.5 1.2 3 4.2 3" clip-rule="evenodd"/></svg>