<svg xmlns="http://www.w3.org/2000/svg" width="24" height="24" fill="none"><path fill="#04071E" d="M12.6 4.201a.6.6 0 0 0-.822-.558l-7.04 2.79A1.8 1.8 0 0 0 3.6 8.105v6.89a.6.6 0 0 0 .821.559l.379-.15v1.289a1.8 1.8 0 0 1-2.4-1.697V8.106a3 3 0 0 1 1.895-2.79l7.041-2.788a1.8 1.8 0 0 1 2.46 1.561l-1.197.474zm3.6 2.4a.6.6 0 0 0-.822-.557l-7.42 2.939a1.2 1.2 0 0 0-.758 1.115v7.3a.6.6 0 0 0 .821.557L9.6 17.33v1.291l-1.137.45A1.8 1.8 0 0 1 6 17.398V10.1a2.4 2.4 0 0 1 1.516-2.232l7.42-2.939A1.8 1.8 0 0 1 17.4 6.602v.123l-1.2.475zm3.38 1.842A.6.6 0 0 1 20.4 9v7.947a.6.6 0 0 1-.38.558l-7.2 2.852A.6.6 0 0 1 12 19.8v-7.948a.6.6 0 0 1 .38-.558zM21.6 9a1.8 1.8 0 0 0-2.463-1.674l-7.2 2.852a1.8 1.8 0 0 0-1.137 1.673V19.8a1.8 1.8 0 0 0 2.463 1.674l7.2-2.852a1.8 1.8 0 0 0 1.137-1.674z"/><path fill="#04071E" fill-rule="evenodd" d="M13.636 3.99a1.65 1.65 0 0 0-2.244-1.323L4.35 5.456a2.85 2.85 0 0 0-1.801 2.65v6.89a1.65 1.65 0 0 0 2.1 1.589v-.96l-.174.069a.75.75 0 0 1-1.026-.697V8.106c0-.8.488-1.519 1.232-1.813l7.041-2.79a.75.75 0 0 1 1.026.698v.141zm-2.355-1.602a1.95 1.95 0 0 1 2.665 1.692l.006.109-1.503.595V4.2a.45.45 0 0 0-.615-.418L4.792 6.572A1.65 1.65 0 0 0 3.75 8.106v6.89c0 .319.32.536.616.42l.584-.232V16.8l-.1.035a1.95 1.95 0 0 1-2.6-1.838V8.106a3.15 3.15 0 0 1 1.99-2.93zm5.968 4.214a1.65 1.65 0 0 0-2.257-1.534l-7.42 2.939a2.25 2.25 0 0 0-1.422 2.092v7.298a1.65 1.65 0 0 0 2.258 1.534l1.042-.413v-.968l-1.374.545a.75.75 0 0 1-1.026-.698V10.1c0-.554.338-1.052.853-1.256l7.42-2.939a.75.75 0 0 1 1.026.698v.377l.9-.356zm-2.368-1.813a1.95 1.95 0 0 1 2.668 1.813v.225l-1.5.594V6.6a.45.45 0 0 0-.615-.418l-7.42 2.94a1.05 1.05 0 0 0-.664.976v7.298c0 .318.32.536.616.419l1.784-.708v1.614l-1.231.488a1.95 1.95 0 0 1-2.669-1.813V10.1a2.55 2.55 0 0 1 1.611-2.371zm4.2 2.399A1.95 1.95 0 0 1 21.75 9v7.947c0 .8-.488 1.519-1.232 1.813l-7.2 2.852A1.95 1.95 0 0 1 10.65 19.8v-7.948c0-.8.488-1.518 1.232-1.813zM21.45 9a1.65 1.65 0 0 0-2.258-1.534l-7.2 2.851a1.65 1.65 0 0 0-1.042 1.534V19.8a1.65 1.65 0 0 0 2.258 1.534l7.2-2.852a1.65 1.65 0 0 0 1.042-1.534zm-1.2 0a.45.45 0 0 0-.616-.419l-7.2 2.852a.45.45 0 0 0-.284.418V19.8c0 .318.32.535.616.418l7.2-2.851a.45.45 0 0 0 .284-.419zm-.726-.698a.75.75 0 0 1 1.026.698v7.947a.75.75 0 0 1-.474.698l-7.2 2.851a.75.75 0 0 1-1.026-.697v-7.948a.75.75 0 0 1 .474-.697z" clip-rule="evenodd"/></svg>