<svg xmlns="http://www.w3.org/2000/svg" width="24" height="24" fill="none"><path fill="#04071E" d="M12 2.001a7.25 7.25 0 0 1 7.25 7.25c0 2.097-.9 4.02-2.663 5.742a.75.75 0 0 0-.175.266l-.032.102-1.13 4.896a2.25 2.25 0 0 1-2.02 1.736l-.173.007h-2.114a2.25 2.25 0 0 1-2.147-1.577l-.045-.167-1.13-4.895a.75.75 0 0 0-.206-.368c-1.68-1.64-2.577-3.463-2.659-5.443L4.75 9.25l.004-.239A7.25 7.25 0 0 1 12 2.002M14.115 18.5H9.884l.329 1.419a.75.75 0 0 0 .627.574l.103.007h2.114a.75.75 0 0 0 .7-.482l.03-.1zM12 3.5a5.75 5.75 0 0 0-5.746 5.53l-.004.22.007.277c.076 1.564.8 3.02 2.206 4.392.264.258.46.576.571.926l.049.178L9.538 17h4.923l.458-1.977a2.25 2.25 0 0 1 .493-.969l.127-.133c1.404-1.373 2.128-2.829 2.204-4.392l.007-.278-.004-.22A5.75 5.75 0 0 0 12 3.5"/></svg>