<svg xmlns="http://www.w3.org/2000/svg" width="24" height="24" fill="none"><path fill="#04071E" d="M11.25 6.75a.75.75 0 0 1 1.5 0v1.5a.75.75 0 0 1-1.5 0zm5.03 1.466a.75.75 0 0 0-1.06 0l-1.061 1.06a.75.75 0 1 0 1.06 1.061l1.061-1.06a.75.75 0 0 0 0-1.061m-7.5 0a.75.75 0 1 0-1.06 1.06l1.06 1.061a.75.75 0 1 0 1.061-1.06zM12 2a7.25 7.25 0 0 1 7.25 7.25c0 2.096-.9 4.02-2.663 5.742a.75.75 0 0 0-.175.265l-.032.102-1.13 4.896a2.25 2.25 0 0 1-2.02 1.737l-.173.006h-2.114a2.25 2.25 0 0 1-2.147-1.576l-.045-.168-1.13-4.894a.75.75 0 0 0-.206-.368c-1.68-1.64-2.577-3.463-2.659-5.444l-.006-.298.004-.24A7.25 7.25 0 0 1 12 2.001m2.115 16.498H9.884l.329 1.419a.75.75 0 0 0 .627.574l.103.007h2.114a.75.75 0 0 0 .7-.482l.03-.099zM12 3.5a5.75 5.75 0 0 0-5.746 5.53l-.004.22.007.277c.076 1.563.8 3.019 2.206 4.391.264.258.46.577.571.927l.049.177L9.538 17h1.712V10.75a.75.75 0 0 1 1.5 0v6.249h1.711l.458-1.976a2.25 2.25 0 0 1 .493-.97l.127-.133c1.404-1.373 2.128-2.829 2.204-4.392l.007-.277-.004-.22A5.75 5.75 0 0 0 12 3.5"/></svg>