<svg xmlns="http://www.w3.org/2000/svg" width="24" height="24" fill="none"><path fill="#04071E" d="M22.8 6.6a5.4 5.4 0 1 1-10.8 0 5.4 5.4 0 0 1 10.8 0m-2.576-2.224a.6.6 0 0 0-.848 0L16.2 7.552l-.776-.776a.6.6 0 0 0-.848.848l1.2 1.2a.6.6 0 0 0 .848 0l3.6-3.6a.6.6 0 0 0 0-.848m-2.216 8.796a10 10 0 0 1-1.453 1.701.7.7 0 0 0-.174.255l-.03.098-1.124 4.7c-.221.926-1.039 1.596-2.005 1.668l-2.271.006c-.983 0-1.843-.62-2.133-1.514l-.045-.16-1.121-4.7a.7.7 0 0 0-.206-.353c-1.668-1.575-2.559-3.325-2.64-5.226L4.8 9.36l.004-.23C4.929 5.393 8.104 2.4 12 2.4q.153-.001.304.005a6.6 6.6 0 0 0-.794 1.213c-2.932.228-5.268 2.479-5.492 5.277l-.014.255L6 9.335l.005.26c.067 1.565.808 3.03 2.265 4.406.226.213.396.477.497.769l.052.178.44 1.852h5.483l.465-1.938.06-.18c.104-.258.262-.49.464-.681a10 10 0 0 0 .806-.857c.48.063.985.073 1.471.028M9.546 18l.383 1.601.031.116c.116.359.451.625.854.675l.136.008 2.183-.003c.41-.03.754-.284.89-.63l.037-.12.394-1.647z"/><path fill="#04071E" fill-rule="evenodd" d="M17.4 1.35a5.25 5.25 0 1 0 0 10.5 5.25 5.25 0 0 0 0-10.5M11.85 6.6a5.55 5.55 0 1 1 11.1 0 5.55 5.55 0 0 1-11.1 0M4.954 9.135l-.004.225.006.282c.08 1.854.948 3.568 2.593 5.122.123.116.21.264.248.428l1.122 4.696.043.155c.27.829 1.07 1.407 1.989 1.407l2.265-.006c.902-.07 1.66-.696 1.865-1.553l1.126-4.71.035-.11a.9.9 0 0 1 .21-.307q.73-.69 1.256-1.421c-.37.016-.745.003-1.109-.04q-.344.41-.765.807a1.8 1.8 0 0 0-.426.623l-.057.17-.49 2.047H9.14l-.467-1.964-.05-.171a1.8 1.8 0 0 0-.457-.705c-1.478-1.396-2.243-2.895-2.312-4.508V9.6l-.005-.267.004-.19.015-.258c.227-2.85 2.584-5.139 5.546-5.408A7 7 0 0 1 12 2.55c-3.82 0-6.923 2.933-7.046 6.585m-.3-.01C4.782 5.304 8.027 2.25 12 2.25q.156 0 .31.006l.301.012-.192.234q-.451.546-.775 1.185l-.038.075-.084.007c-2.864.222-5.136 2.418-5.354 5.138l-.014.25-.004.178.005.256c.065 1.516.783 2.945 2.218 4.3.243.23.427.515.536.83l.002.006.054.186.413 1.737h5.246l.44-1.836.064-.189a2.1 2.1 0 0 1 .5-.733q.44-.418.793-.843l.053-.064.082.01c.47.062.963.071 1.438.028l.312-.028-.173.26a10 10 0 0 1-1.475 1.727.6.6 0 0 0-.135.197l-.028.087-1.122 4.695c-.237.992-1.112 1.706-2.14 1.782l-.01.001-2.272.006c-1.045 0-1.965-.659-2.275-1.617l-.002-.006-.047-.166-1.121-4.7a.56.56 0 0 0-.163-.279c-1.69-1.595-2.604-3.38-2.687-5.329V9.65l-.006-.292zM19.27 4.27a.75.75 0 1 1 1.06 1.06l-3.6 3.6a.75.75 0 0 1-1.06 0l-1.2-1.2a.75.75 0 0 1 1.06-1.06l.67.67zm.848.212a.45.45 0 0 0-.636 0L16.2 7.764l-.882-.882a.45.45 0 1 0-.636.636l1.2 1.2a.45.45 0 0 0 .636 0l3.6-3.6a.45.45 0 0 0 0-.636M9.356 17.85h5.288l-.44 1.842-.041.129a1.18 1.18 0 0 1-1.019.726h-.01l-2.193.003-.146-.01c-.455-.055-.842-.358-.978-.777l-.002-.007-.032-.12zm.38.3.338 1.414.03.11a.87.87 0 0 0 .724.568l.127.008 2.172-.003a.88.88 0 0 0 .754-.53l.034-.11.349-1.457z" clip-rule="evenodd"/></svg>