<svg xmlns="http://www.w3.org/2000/svg" width="24" height="24" fill="none"><path fill="#04071E" d="M2.4 5.4a.6.6 0 0 1 .6-.6h18A.6.6 0 1 1 21 6H3a.6.6 0 0 1-.6-.6m0 6a.6.6 0 0 1 .6-.6h18a.6.6 0 1 1 0 1.2H3a.6.6 0 0 1-.6-.6m.6 5.4A.6.6 0 1 0 3 18h18a.6.6 0 1 0 0-1.2z"/><path fill="#04071E" fill-rule="evenodd" d="M3 4.95a.45.45 0 1 0 0 .9h18a.45.45 0 0 0 0-.9zm-.75.45A.75.75 0 0 1 3 4.65h18a.75.75 0 0 1 0 1.5H3a.75.75 0 0 1-.75-.75M3 10.95a.45.45 0 0 0 0 .9h18a.45.45 0 0 0 0-.9zm-.75.45a.75.75 0 0 1 .75-.75h18a.75.75 0 0 1 0 1.5H3a.75.75 0 0 1-.75-.75m0 6a.75.75 0 0 1 .75-.75h18a.75.75 0 0 1 0 1.5H3a.75.75 0 0 1-.75-.75m.75-.45a.45.45 0 0 0 0 .9h18a.45.45 0 0 0 0-.9z" clip-rule="evenodd"/></svg>