<svg xmlns="http://www.w3.org/2000/svg" width="24" height="24" fill="none"><path fill="#04071E" d="M3 3.6a.6.6 0 0 0 0 1.2h18a.6.6 0 1 0 0-1.2zm0 7.2A.6.6 0 1 0 3 12h9.309c.376-.455.812-.86 1.295-1.2zm0 3.6h8.048q-.165.581-.221 1.2H3a.6.6 0 0 1 0-1.2M3 18h8.048q.179.629.472 1.2H3A.6.6 0 0 1 3 18M3 7.2a.6.6 0 0 0 0 1.2h18a.6.6 0 1 0 0-1.2zm19.8 9a5.4 5.4 0 1 1-10.8 0 5.4 5.4 0 0 1 10.8 0m-5.4-3a.6.6 0 0 0-.6.6v2.4a.6.6 0 0 0 1.2 0v-2.4a.6.6 0 0 0-.6-.6m0 6.15a.75.75 0 1 0 0-1.5.75.75 0 0 0 0 1.5"/><path fill="#04071E" fill-rule="evenodd" d="M2.25 4.2A.75.75 0 0 1 3 3.45h18a.75.75 0 0 1 0 1.5H3a.75.75 0 0 1-.75-.75M3 3.75a.45.45 0 1 0 0 .9h18a.45.45 0 0 0 0-.9zM2.25 7.8A.75.75 0 0 1 3 7.05h18a.75.75 0 0 1 0 1.5H3a.75.75 0 0 1-.75-.75M3 7.35a.45.45 0 1 0 0 .9h18a.45.45 0 0 0 0-.9zm-.75 4.05a.75.75 0 0 1 .75-.75h11.078l-.387.273a6.5 6.5 0 0 0-1.267 1.172l-.045.055H3a.75.75 0 0 1-.75-.75m.75-.45a.45.45 0 1 0 0 .9h9.238q.417-.493.919-.9zm14.4 0a5.25 5.25 0 1 0 0 10.5 5.25 5.25 0 0 0 0-10.5m-5.55 5.25a5.55 5.55 0 1 1 11.1 0 5.55 5.55 0 0 1-11.1 0m4.8-2.4a.75.75 0 1 1 1.5 0v2.4a.75.75 0 0 1-1.5 0zm.75-.45a.45.45 0 0 0-.45.45v2.4a.45.45 0 0 0 .9 0v-2.4a.45.45 0 0 0-.45-.45M3 14.55a.45.45 0 1 0 0 .9h7.691q.052-.46.162-.9zm-.75.45a.75.75 0 0 1 .75-.75h8.247l-.054.19q-.161.569-.217 1.173l-.012.137H3a.75.75 0 0 1-.75-.75m14.25 3.6a.9.9 0 1 1 1.8 0 .9.9 0 0 1-1.8 0m.9-.6a.6.6 0 1 0 0 1.2.6.6 0 0 0 0-1.2M3 18.15a.45.45 0 1 0 0 .9h8.28q-.203-.435-.344-.9zm-.75.45a.75.75 0 0 1 .75-.75h8.162l.03.11q.175.613.461 1.172l.112.218H3a.75.75 0 0 1-.75-.75" clip-rule="evenodd"/></svg>