<svg xmlns="http://www.w3.org/2000/svg" width="24" height="24" fill="none"><path fill="#04071E" d="M3 3.6a.6.6 0 0 0 0 1.2h18a.6.6 0 1 0 0-1.2zm0 4.8h18a.6.6 0 1 1 0 1.2H3a.6.6 0 0 1 0-1.2m-.6 5.4a.6.6 0 0 1 .6-.6h18a.6.6 0 1 1 0 1.2H3a.6.6 0 0 1-.6-.6M3 18a.6.6 0 1 0 0 1.2h18a.6.6 0 0 0 0-1.2z"/><path fill="#04071E" fill-rule="evenodd" d="M2.25 4.2A.75.75 0 0 1 3 3.45h18a.75.75 0 0 1 0 1.5H3a.75.75 0 0 1-.75-.75M3 3.75a.45.45 0 1 0 0 .9h18a.45.45 0 0 0 0-.9zm0 4.8a.45.45 0 1 0 0 .9h18a.45.45 0 0 0 0-.9zM2.25 9A.75.75 0 0 1 3 8.25h18a.75.75 0 0 1 0 1.5H3A.75.75 0 0 1 2.25 9M3 13.35a.45.45 0 1 0 0 .9h18a.45.45 0 0 0 0-.9zm-.75.45a.75.75 0 0 1 .75-.75h18a.75.75 0 1 1 0 1.5H3a.75.75 0 0 1-.75-.75m0 4.8a.75.75 0 0 1 .75-.75h18a.75.75 0 1 1 0 1.5H3a.75.75 0 0 1-.75-.75m.75-.45a.45.45 0 1 0 0 .9h18a.45.45 0 0 0 0-.9z" clip-rule="evenodd"/></svg>