<svg xmlns="http://www.w3.org/2000/svg" width="25" height="24" fill="none"><path fill="#04071E" d="M15 12a5.38 5.38 0 0 0 3.37-1.18l4.606 4.604a.6.6 0 1 0 .848-.848L19.22 9.97A5.4 5.4 0 1 0 15 12m0-9.6a4.2 4.2 0 1 1 0 8.4 4.2 4.2 0 0 1 0-8.4m.024 10.8h4.03l1.2 1.2H3a.6.6 0 1 1 0-1.2h12.024M3 3.6h6.12q-.293.572-.472 1.2H3a.6.6 0 0 1 0-1.2m6.12 6a6.6 6.6 0 0 1-.472-1.2H3a.6.6 0 0 0 0 1.2zm-6.72 9A.6.6 0 0 1 3 18h18a.6.6 0 1 1 0 1.2H3a.6.6 0 0 1-.6-.6"/><path fill="#04071E" fill-rule="evenodd" d="M15.024 13.1h4.03a.1.1 0 0 1 .071.03l1.2 1.2a.1.1 0 0 1-.07.17H3a.7.7 0 1 1 0-1.4h12.024m-.024.1H3a.6.6 0 1 0 0 1.2h17.255l-1.2-1.2H15M9.205 3.548a.1.1 0 0 1 .004.098q-.289.563-.464 1.181a.1.1 0 0 1-.097.073H3a.7.7 0 1 1 0-1.4h6.12a.1.1 0 0 1 .085.048m0 6.104a.1.1 0 0 1-.085.048H3a.7.7 0 1 1 0-1.4h5.648a.1.1 0 0 1 .097.073q.175.619.464 1.182a.1.1 0 0 1-.004.097m9.158 1.3a5.5 5.5 0 1 1 .99-.99l4.542 4.543a.7.7 0 0 1-.99.99zm.008-.133a5.4 5.4 0 1 1 .849-.849l4.604 4.606a.6.6 0 0 1-.848.848zM19.1 6.6a4.1 4.1 0 1 0-8.2 0 4.1 4.1 0 0 0 8.2 0M9.07 3.7q-.258.526-.422 1.1H3a.6.6 0 0 1 0-1.2h6.12zM3 9.6a.6.6 0 0 1 0-1.2h5.648a6.6 6.6 0 0 0 .472 1.2zm-.7 9a.7.7 0 0 1 .7-.7h18a.7.7 0 1 1 0 1.4H3a.7.7 0 0 1-.7-.7m16.9-12a4.2 4.2 0 1 0-8.4 0 4.2 4.2 0 0 0 8.4 0M3 18a.6.6 0 1 0 0 1.2h18a.6.6 0 1 0 0-1.2z" clip-rule="evenodd"/></svg>