<svg xmlns="http://www.w3.org/2000/svg" width="24" height="24" fill="none"><path fill="#04071E" d="M9.6 4.8a.6.6 0 0 1 .108 1.19L9.6 6H7.2a3.6 3.6 0 0 0-.237 7.192l.237.008h2.4a.6.6 0 0 1 .108 1.19l-.108.01H7.2a4.8 4.8 0 0 1-.263-9.593L7.2 4.8zm7.2 0a4.8 4.8 0 0 1 4.176 7.168c-.252-.327-.57-.6-.935-.8a3.6 3.6 0 0 0-3.005-5.16L16.8 6h-2.4a.6.6 0 0 1-.108-1.19l.108-.01zM7.2 9h9.6a.6.6 0 0 1 .108 1.19l-.108.01H7.2a.6.6 0 0 1-.108-1.19zm7.2 5.4v-.6a1.8 1.8 0 0 1 1.8-1.8h2.4a1.8 1.8 0 0 1 1.8 1.8v.6h.6a1.8 1.8 0 0 1 1.8 1.8V18h-2.4v-.6a.6.6 0 1 0-1.2 0v.6h-3.6v-.6a.6.6 0 1 0-1.2 0v.6H12v-1.8a1.8 1.8 0 0 1 1.8-1.8zm1.2-.6v.6h3.6v-.6a.6.6 0 0 0-.6-.6h-2.4a.6.6 0 0 0-.6.6m4.8 6v-.6h2.4V21a1.8 1.8 0 0 1-1.8 1.8h-7.2A1.8 1.8 0 0 1 12 21v-1.8h2.4v.6a.6.6 0 1 0 1.2 0v-.6h3.6v.6a.6.6 0 1 0 1.2 0"/><path fill="#04071E" fill-rule="evenodd" d="M14.4 4.65h2.4a4.95 4.95 0 0 1 4.307 7.392l-.112.196-.138-.178c-.24-.31-.542-.57-.888-.76l-.125-.069.062-.128a3.45 3.45 0 0 0-2.877-4.945l-.231-.008H14.4a.75.75 0 0 1-.135-1.488l.014-.002zm-7.2 0h2.4a.75.75 0 0 1 .135 1.488l-.014.002-.121.01H7.2a3.45 3.45 0 0 0-.23 6.892l.232.008H9.6a.75.75 0 0 1 .135 1.488l-.014.002-.121.01H7.2a4.95 4.95 0 0 1-.271-9.893h.004zm.002.3-.26.007A4.65 4.65 0 0 0 7.2 14.25h2.393l.094-.008a.45.45 0 0 0-.087-.892H7.195l-.241-.008A3.75 3.75 0 0 1 7.2 5.85h2.393l.094-.009A.45.45 0 0 0 9.6 4.95zm7.205 0-.094.008a.45.45 0 0 0 .087.892h2.405l.241.008a3.75 3.75 0 0 1 3.189 5.249c.267.162.507.363.714.594A4.65 4.65 0 0 0 16.8 4.95zM7.2 8.85h9.6a.75.75 0 0 1 .135 1.488l-.014.002-.121.01H7.2a.75.75 0 0 1-.135-1.488l.014-.002zm.007.3-.094.008a.45.45 0 0 0 .087.892h9.593l.094-.009a.45.45 0 0 0-.087-.891zm8.993 3a1.65 1.65 0 0 0-1.65 1.65v.75h-.75a1.65 1.65 0 0 0-1.65 1.65v1.65h2.1v-.45a.75.75 0 0 1 1.5 0v.45h3.3v-.45a.75.75 0 0 1 1.5 0v.45h2.1V16.2A1.65 1.65 0 0 0 21 14.55h-.75v-.75a1.65 1.65 0 0 0-1.65-1.65zm-1.95 1.65a1.95 1.95 0 0 1 1.95-1.95h2.4a1.95 1.95 0 0 1 1.95 1.95v.45H21a1.95 1.95 0 0 1 1.95 1.95v1.95h-2.7v-.75a.45.45 0 0 0-.9 0v.75h-3.9v-.75a.45.45 0 0 0-.9 0v.75h-2.7V16.2a1.95 1.95 0 0 1 1.95-1.95h.45zm1.2 0a.75.75 0 0 1 .75-.75h2.4a.75.75 0 0 1 .75.75v.75h-3.9zm.75-.45a.45.45 0 0 0-.45.45v.45h3.3v-.45a.45.45 0 0 0-.45-.45zm-4.35 5.7h2.7v.75a.45.45 0 0 0 .9 0v-.75h3.9v.75a.45.45 0 0 0 .9 0v-.75h2.7V21A1.95 1.95 0 0 1 21 22.95h-7.2A1.95 1.95 0 0 1 11.85 21zm.3.3V21c0 .911.739 1.65 1.65 1.65H21A1.65 1.65 0 0 0 22.65 21v-1.65h-2.1v.45a.75.75 0 0 1-1.5 0v-.45h-3.3v.45a.75.75 0 0 1-1.5 0v-.45z" clip-rule="evenodd"/></svg>