<svg xmlns="http://www.w3.org/2000/svg" width="24" height="24" fill="none"><path fill="#04071E" d="M6 3.6A2.4 2.4 0 0 0 3.6 6v1.2c0 .717.314 1.36.812 1.8a2.4 2.4 0 0 0-.812 1.8v2.4c0 .717.314 1.36.812 1.8a2.4 2.4 0 0 0-.812 1.8V18A2.4 2.4 0 0 0 6 20.4h12a2.4 2.4 0 0 0 2.4-2.4v-1.2c0-.717-.314-1.36-.813-1.8.499-.44.813-1.083.813-1.8v-2.4c0-.717-.314-1.36-.813-1.8.499-.44.813-1.083.813-1.8V6A2.4 2.4 0 0 0 18 3.6zM4.8 16.8A1.2 1.2 0 0 1 6 15.6h2.4v3.6H6A1.2 1.2 0 0 1 4.8 18zm4.8 2.4v-3.6H18a1.2 1.2 0 0 1 1.2 1.2V18a1.2 1.2 0 0 1-1.2 1.2zm0-4.8V9.6H18a1.2 1.2 0 0 1 1.2 1.2v2.4a1.2 1.2 0 0 1-1.2 1.2zM8.4 9.6v4.8H6a1.2 1.2 0 0 1-1.2-1.2v-2.4A1.2 1.2 0 0 1 6 9.6zm0-1.2H6a1.2 1.2 0 0 1-1.2-1.2V6A1.2 1.2 0 0 1 6 4.8h2.4zm1.2 0V4.8H18A1.2 1.2 0 0 1 19.2 6v1.2A1.2 1.2 0 0 1 18 8.4z"/><path fill="#04071E" fill-rule="evenodd" d="M3.45 6A2.55 2.55 0 0 1 6 3.45h12A2.55 2.55 0 0 1 20.55 6v1.2c0 .703-.284 1.339-.744 1.8.46.461.744 1.097.744 1.8v2.4c0 .703-.284 1.339-.744 1.8.46.461.744 1.097.744 1.8V18A2.55 2.55 0 0 1 18 20.55H6A2.55 2.55 0 0 1 3.45 18v-1.2c0-.703.284-1.339.744-1.8a2.54 2.54 0 0 1-.744-1.8v-2.4c0-.703.284-1.339.744-1.8a2.54 2.54 0 0 1-.744-1.8zM6 3.75A2.25 2.25 0 0 0 3.75 6v1.2c0 .672.294 1.275.762 1.687L4.639 9l-.127.112A2.24 2.24 0 0 0 3.75 10.8v2.4c0 .672.294 1.275.762 1.688l.127.112-.127.112A2.24 2.24 0 0 0 3.75 16.8V18A2.25 2.25 0 0 0 6 20.25h12A2.25 2.25 0 0 0 20.25 18v-1.2c0-.672-.294-1.275-.762-1.688L19.361 15l.127-.113a2.25 2.25 0 0 0 .762-1.687v-2.4c0-.672-.294-1.275-.762-1.688L19.361 9l.127-.113A2.24 2.24 0 0 0 20.25 7.2V6A2.25 2.25 0 0 0 18 3.75zm0 1.2c-.58 0-1.05.47-1.05 1.05v1.2c0 .58.47 1.05 1.05 1.05h2.25v-3.3zM4.65 6c0-.746.604-1.35 1.35-1.35h2.55v3.9H6A1.35 1.35 0 0 1 4.65 7.2zm4.8-1.35H18c.745 0 1.35.604 1.35 1.35v1.2A1.35 1.35 0 0 1 18 8.55H9.45zm.3.3v3.3H18c.58 0 1.05-.47 1.05-1.05V6c0-.58-.47-1.05-1.05-1.05zM6 9.75c-.58 0-1.05.47-1.05 1.05v2.4c0 .58.47 1.05 1.05 1.05h2.25v-4.5zM4.65 10.8c0-.746.604-1.35 1.35-1.35h2.55v5.1H6a1.35 1.35 0 0 1-1.35-1.35zm4.8-1.35H18c.745 0 1.35.604 1.35 1.35v2.4A1.35 1.35 0 0 1 18 14.55H9.45zm.3.3v4.5H18c.58 0 1.05-.47 1.05-1.05v-2.4c0-.58-.47-1.05-1.05-1.05zm-3.75 6c-.58 0-1.05.47-1.05 1.05V18c0 .58.47 1.05 1.05 1.05h2.25v-3.3zM4.65 16.8c0-.746.604-1.35 1.35-1.35h2.55v3.9H6A1.35 1.35 0 0 1 4.65 18zm4.8-1.35H18c.745 0 1.35.604 1.35 1.35V18A1.35 1.35 0 0 1 18 19.35H9.45zm.3.3v3.3H18c.58 0 1.05-.47 1.05-1.05v-1.2c0-.58-.47-1.05-1.05-1.05z" clip-rule="evenodd"/></svg>