<svg xmlns="http://www.w3.org/2000/svg" width="24" height="24" fill="none"><path fill="#04071E" d="M6 3.6A2.4 2.4 0 0 0 3.6 6v1.2A2.4 2.4 0 0 0 6 9.6h.321A2.4 2.4 0 0 0 6 10.8v2.4a2.4 2.4 0 0 0 2.4 2.4h.321a2.4 2.4 0 0 0-.321 1.2V18a2.4 2.4 0 0 0 2.4 2.4H18a2.4 2.4 0 0 0 2.4-2.4v-1.2c0-.717-.314-1.36-.813-1.8.499-.44.813-1.083.813-1.8v-2.4c0-.717-.314-1.36-.813-1.8.499-.44.813-1.083.813-1.8V6A2.4 2.4 0 0 0 18 3.6zm12 10.8h-6V9.6h6a1.2 1.2 0 0 1 1.2 1.2v2.4a1.2 1.2 0 0 1-1.2 1.2m-7.2-4.8v4.8H8.4a1.2 1.2 0 0 1-1.2-1.2v-2.4a1.2 1.2 0 0 1 1.2-1.2zm-1.2 7.2a1.2 1.2 0 0 1 1.2-1.2h2.4v3.6h-2.4A1.2 1.2 0 0 1 9.6 18zm4.8 2.4v-3.6H18a1.2 1.2 0 0 1 1.2 1.2V18a1.2 1.2 0 0 1-1.2 1.2zM9.6 8.4V4.8H18A1.2 1.2 0 0 1 19.2 6v1.2A1.2 1.2 0 0 1 18 8.4zm-1.2 0H6a1.2 1.2 0 0 1-1.2-1.2V6A1.2 1.2 0 0 1 6 4.8h2.4z"/><path fill="#04071E" fill-rule="evenodd" d="M3.45 6A2.55 2.55 0 0 1 6 3.45h12A2.55 2.55 0 0 1 20.55 6v1.2c0 .703-.284 1.339-.744 1.8.46.461.744 1.097.744 1.8v2.4c0 .703-.284 1.339-.744 1.8.46.461.744 1.097.744 1.8V18A2.55 2.55 0 0 1 18 20.55h-7.2A2.55 2.55 0 0 1 8.25 18v-1.2c0-.374.08-.73.226-1.05H8.4a2.55 2.55 0 0 1-2.55-2.55v-2.4c0-.374.08-.73.226-1.05H6A2.55 2.55 0 0 1 3.45 7.2zM6 3.75A2.25 2.25 0 0 0 3.75 6v1.2A2.25 2.25 0 0 0 6 9.45h.581l-.13.225c-.191.33-.301.715-.301 1.125v2.4a2.25 2.25 0 0 0 2.25 2.25h.581l-.13.225c-.191.33-.301.715-.301 1.125V18a2.25 2.25 0 0 0 2.25 2.25H18A2.25 2.25 0 0 0 20.25 18v-1.2c0-.672-.294-1.275-.762-1.688L19.361 15l.127-.113a2.25 2.25 0 0 0 .762-1.687v-2.4c0-.672-.294-1.275-.762-1.688L19.361 9l.127-.113A2.24 2.24 0 0 0 20.25 7.2V6A2.25 2.25 0 0 0 18 3.75zm0 1.2c-.58 0-1.05.47-1.05 1.05v1.2c0 .58.47 1.05 1.05 1.05h2.25v-3.3zM4.65 6c0-.746.604-1.35 1.35-1.35h2.55v3.9H6A1.35 1.35 0 0 1 4.65 7.2zm4.8-1.35H18c.745 0 1.35.604 1.35 1.35v1.2A1.35 1.35 0 0 1 18 8.55H9.45zm.3.3v3.3H18c.58 0 1.05-.47 1.05-1.05V6c0-.58-.47-1.05-1.05-1.05zM8.4 9.75c-.58 0-1.05.47-1.05 1.05v2.4c0 .58.47 1.05 1.05 1.05h2.25v-4.5zM7.05 10.8c0-.746.604-1.35 1.35-1.35h2.55v5.1H8.4a1.35 1.35 0 0 1-1.35-1.35zm4.8-1.35H18c.745 0 1.35.604 1.35 1.35v2.4A1.35 1.35 0 0 1 18 14.55h-6.15zm.3.3v4.5H18c.58 0 1.05-.47 1.05-1.05v-2.4c0-.58-.47-1.05-1.05-1.05zm-1.35 6c-.58 0-1.05.47-1.05 1.05V18c0 .58.47 1.05 1.05 1.05h2.25v-3.3zM9.45 16.8c0-.746.604-1.35 1.35-1.35h2.55v3.9H10.8A1.35 1.35 0 0 1 9.45 18zm4.8-1.35H18c.745 0 1.35.604 1.35 1.35V18A1.35 1.35 0 0 1 18 19.35h-3.75zm.3.3v3.3H18c.58 0 1.05-.47 1.05-1.05v-1.2c0-.58-.47-1.05-1.05-1.05z" clip-rule="evenodd"/></svg>