<svg xmlns="http://www.w3.org/2000/svg" width="24" height="24" fill="none"><path fill="#04071E" d="M5.99 4.929a.75.75 0 0 1 0 1.06 8.5 8.5 0 0 0 0 12.021.75.75 0 1 1-1.061 1.061c-3.905-3.905-3.905-10.237 0-14.142a.75.75 0 0 1 1.06 0m13.081 0c3.905 3.905 3.905 10.237 0 14.142a.75.75 0 0 1-1.06-1.06 8.5 8.5 0 0 0 0-12.021.75.75 0 1 1 1.06-1.061M8.818 7.757a.75.75 0 0 1 0 1.061 4.5 4.5 0 0 0 0 6.364.75.75 0 0 1-1.06 1.06 6 6 0 0 1 0-8.485.75.75 0 0 1 1.06 0m7.425 0a6 6 0 0 1 0 8.486.75.75 0 1 1-1.061-1.061 4.5 4.5 0 0 0 0-6.364.75.75 0 0 1 1.06-1.06M12 10.5a1.5 1.5 0 1 1 0 3 1.5 1.5 0 0 1 0-3"/></svg>