<svg xmlns="http://www.w3.org/2000/svg" width="24" height="24" fill="none"><path fill="#04071E" d="M5.843 4.568a8.707 8.707 0 0 1 12.314 12.314l-1.187 1.174q-1.312 1.288-3.406 3.312a2.25 2.25 0 0 1-3.128 0l-3.491-3.396q-.658-.646-1.102-1.09a8.707 8.707 0 0 1 0-12.314M17.096 5.63A7.207 7.207 0 1 0 6.904 15.822l1.487 1.467q1.228 1.203 3.088 3.001a.75.75 0 0 0 1.043 0l3.394-3.301q.705-.69 1.18-1.167a7.207 7.207 0 0 0 0-10.193M12 7.999a3.002 3.002 0 1 1 0 6.003A3.002 3.002 0 0 1 12 8m0 1.5a1.502 1.502 0 1 0 0 3.003 1.502 1.502 0 0 0 0-3.003"/></svg>