<svg xmlns="http://www.w3.org/2000/svg" width="24" height="24" fill="none"><path fill="#04071E" d="M17.94 4.861a8.406 8.406 0 0 1 0 11.885l-1.353 1.337-2.924 2.844a2.39 2.39 0 0 1-3.167.141l-.16-.141-2.45-2.382-1.826-1.799a8.406 8.406 0 0 1 0-11.885 8.397 8.397 0 0 1 11.88 0m-.846.846a7.2 7.2 0 0 0-10.188 0 7.21 7.21 0 0 0-.21 9.973l.21.22.686.68 3.577 3.487.111.096a1.196 1.196 0 0 0 1.44 0l.112-.096 2.676-2.602 1.586-1.565.21-.22a7.21 7.21 0 0 0-.21-9.973m-5.27 1.917a.6.6 0 0 0-.848-.848l-3 3a.6.6 0 0 0 0 .848l3 3a.6.6 0 1 0 .848-.848L9.848 10.8H15.6a.6.6 0 0 0 0-1.2H9.848z"/><path fill="#04071E" fill-rule="evenodd" d="M17.834 4.967a8.247 8.247 0 0 0-11.668 0 8.256 8.256 0 0 0 0 11.673l1.824 1.797 2.449 2.38.154.136c.871.705 2.146.66 2.966-.134l2.922-2.843h.001l1.352-1.336a8.257 8.257 0 0 0 0-11.673m-.846.846a7.05 7.05 0 0 0-9.976 0 7.06 7.06 0 0 0-.208 9.764l.209.218.683.678h.001l3.573 3.483.104.09c.37.277.882.277 1.252 0l.105-.09 2.672-2.598 1.584-1.563.209-.218a7.06 7.06 0 0 0-.208-9.764m-6.118.857a.75.75 0 0 1 1.06 1.06l-1.72 1.72h5.39a.75.75 0 0 1 0 1.5h-5.39l1.72 1.72a.75.75 0 1 1-1.06 1.06l-3-3a.75.75 0 0 1 0-1.06zm.848.212a.45.45 0 0 0-.636 0l-3 3a.45.45 0 0 0 0 .636l3 3a.45.45 0 1 0 .636-.636l-1.976-1.976a.15.15 0 0 1 .106-.256H15.6a.45.45 0 0 0 0-.9H9.848a.15.15 0 0 1-.106-.256l1.976-1.976a.45.45 0 0 0 0-.636" clip-rule="evenodd"/></svg>