<svg xmlns="http://www.w3.org/2000/svg" width="24" height="24" fill="none"><path fill="#04071E" d="M20.4 17.4v-4.92q.646-.33 1.2-.789V17.4a3 3 0 0 1-3 3H5.4a3 3 0 0 1-3-3V7.8a3 3 0 0 1 3-3h5.648a6.6 6.6 0 0 0-.221 1.2H5.4a1.8 1.8 0 0 0-1.8 1.8v.362l8.4 4.942 1.73-1.018q.586.393 1.25.656l-2.676 1.575a.6.6 0 0 1-.511.046l-.097-.046L3.6 9.556V17.4a1.8 1.8 0 0 0 1.8 1.8h13.2a1.8 1.8 0 0 0 1.8-1.8m-3-5.4a5.4 5.4 0 1 1 0-10.8 5.4 5.4 0 0 1 0 10.8m-2.824-4.976 2.4 2.4.002.003a.6.6 0 0 0 .418.173h.008a.6.6 0 0 0 .42-.176l2.4-2.4a.6.6 0 0 0-.848-.848L18 7.55V4.2a.6.6 0 0 0-1.2 0v3.351l-1.376-1.375a.6.6 0 1 0-.848.848"/><path fill="#04071E" fill-rule="evenodd" d="m20.2 12.358.109-.056q.625-.321 1.164-.765l.327-.27V17.4a3.2 3.2 0 0 1-3.2 3.2H5.4a3.2 3.2 0 0 1-3.2-3.2V7.8a3.2 3.2 0 0 1 3.2-3.2h5.913l-.072.254a6.4 6.4 0 0 0-.215 1.164l-.016.182H5.4a1.6 1.6 0 0 0-1.6 1.6v.248l8.2 4.824 1.736-1.022.105.07q.568.381 1.213.636l.381.15-3.03 1.784a.8.8 0 0 1-.681.06l-.008-.002-.114-.054L3.8 9.905V17.4A1.6 1.6 0 0 0 5.4 19h13.2a1.6 1.6 0 0 0 1.6-1.6zM3.6 9.556l8.096 4.761.097.046a.6.6 0 0 0 .511-.046l2.676-1.575a6.6 6.6 0 0 1-1.25-.656L12 13.104 3.6 8.162V7.8A1.8 1.8 0 0 1 5.4 6h5.427a6.6 6.6 0 0 1 .221-1.2H5.4a3 3 0 0 0-3 3v9.6a3 3 0 0 0 3 3h13.2a3 3 0 0 0 3-3v-5.709a6.61 6.61 0 0 1-1.2.789v4.92a1.8 1.8 0 0 1-1.8 1.8H5.4a1.8 1.8 0 0 1-1.8-1.8zM18 4.2a.6.6 0 0 0-1.2 0v3.351l-1.376-1.375a.6.6 0 1 0-.848.848l2.4 2.4.002.003a.6.6 0 0 0 .418.173h.008a.6.6 0 0 0 .42-.176l2.4-2.4a.6.6 0 0 0-.848-.848L18 7.55zm-.598 5.2a.4.4 0 0 0 .28-.117l2.4-2.4a.4.4 0 0 0-.565-.566L17.8 8.034V4.2a.4.4 0 1 0-.8 0v3.834l-1.717-1.717a.4.4 0 0 0-.566.566l2.4 2.4.002.002a.4.4 0 0 0 .278.115h.005m-.002 2.8a5.6 5.6 0 1 1 0-11.2 5.6 5.6 0 0 1 0 11.2M12 6.6a5.4 5.4 0 1 0 10.8 0 5.4 5.4 0 0 0-10.8 0" clip-rule="evenodd"/></svg>