<svg xmlns="http://www.w3.org/2000/svg" width="24" height="24" fill="none"><path fill="#04071E" d="M21.6 3.15a4.9 4.9 0 0 1-1.2-.333q-1.09-.458-2.06-1.47a.467.467 0 0 0-.679 0C16.468 2.588 15.148 3.2 13.68 3.2a.49.49 0 0 0-.48.5v3.001l.005.319c.05 1.496.455 2.76 1.207 3.78q.495.67 1.187 1.2.944.72 2.25 1.174a.46.46 0 0 0 .303 0C21.224 12.108 22.8 9.92 22.8 6.701v-3l-.01-.102a.485.485 0 0 0-.47-.399 5 5 0 0 1-.72-.05M12 4.8H5.4a3 3 0 0 0-3 3v9.6a3 3 0 0 0 3 3h13.2a3 3 0 0 0 3-3v-4.837a8 8 0 0 1-1.2.886V17.4a1.8 1.8 0 0 1-1.8 1.8H5.4a1.8 1.8 0 0 1-1.8-1.8V9.556l8.096 4.761.097.046a.6.6 0 0 0 .511-.046l2.46-1.447a7 7 0 0 1-.91-.857L12 13.103l-8.4-4.94V7.8A1.8 1.8 0 0 1 5.4 6H12z"/><path fill="#04071E" fill-rule="evenodd" d="M17.553 1.243a.617.617 0 0 1 .896 0q.952.993 2.01 1.435a4.7 4.7 0 0 0 1.861.372c.31 0 .56.228.617.52l.002.008.011.115V6.7c0 1.634-.4 3.018-1.2 4.131s-1.99 1.943-3.549 2.484a.6.6 0 0 1-.402 0q-1.326-.46-2.29-1.197a6.1 6.1 0 0 1-1.218-1.23c-.772-1.049-1.185-2.343-1.236-3.864v-.003l-.005-.32V3.7a.64.64 0 0 1 .63-.65c1.42 0 2.703-.589 3.873-1.807m.68.208a.317.317 0 0 0-.463 0c-1.217 1.266-2.574 1.899-4.09 1.899a.34.34 0 0 0-.33.35v3l.005.316c.05 1.471.447 2.704 1.178 3.695q.48.652 1.157 1.17.921.704 2.207 1.152a.3.3 0 0 0 .206 0c1.513-.526 2.647-1.323 3.403-2.376s1.144-2.372 1.144-3.956V3.707l-.008-.085a.335.335 0 0 0-.322-.272q-.377 0-.741-.052a5 5 0 0 1-1.237-.343q-1.123-.473-2.11-1.504M2.25 7.8A3.15 3.15 0 0 1 5.4 4.649h6.75v1.5H5.4A1.65 1.65 0 0 0 3.75 7.8v.277L12 12.93l1.883-1.108.082.092a7 7 0 0 0 .892.838l.171.136-2.648 1.559a.75.75 0 0 1-.639.057l-.012-.005-.11-.052-7.869-4.63V17.4c0 .911.739 1.65 1.65 1.65h13.2a1.65 1.65 0 0 0 1.65-1.65v-4.035l.073-.044q.641-.387 1.177-.87l.25-.225V17.4a3.15 3.15 0 0 1-3.15 3.15H5.4a3.15 3.15 0 0 1-3.15-3.15zM5.4 4.949A2.85 2.85 0 0 0 2.55 7.8v9.6a2.85 2.85 0 0 0 2.85 2.85h13.2a2.85 2.85 0 0 0 2.85-2.85v-4.51a8 8 0 0 1-.9.643V17.4a1.95 1.95 0 0 1-1.95 1.95H5.4a1.95 1.95 0 0 1-1.95-1.95V9.293l8.316 4.892.085.04a.45.45 0 0 0 .377-.037l2.274-1.338a7 7 0 0 1-.678-.645L12 13.278l-8.55-5.03V7.8A1.95 1.95 0 0 1 5.4 5.85h6.45v-.9z" clip-rule="evenodd"/></svg>