<svg xmlns="http://www.w3.org/2000/svg" width="24" height="24" fill="none"><path fill="#04071E" d="M9.627 6H7.2a2.4 2.4 0 0 0-2.4 2.4v4.8H9a.6.6 0 0 1 .6.6v.014l.004.072c.005.066.015.165.035.284.04.242.12.556.273.862.152.303.37.59.686.8.313.209.757.368 1.402.368s1.089-.16 1.402-.368c.316-.21.535-.497.686-.8a3 3 0 0 0 .203-.538 3.4 3.4 0 0 0 .109-.68v-.015a.6.6 0 0 1 .6-.599h4.2v-.72a6.6 6.6 0 0 0 1.2-.789V18a3.6 3.6 0 0 1-3.6 3.6H7.2A3.6 3.6 0 0 1 3.6 18V8.4a3.6 3.6 0 0 1 3.6-3.6h2.648q-.165.581-.221 1.2M8.46 14.4H4.8V18a2.4 2.4 0 0 0 2.4 2.4h9.6a2.4 2.4 0 0 0 2.4-2.4v-3.6h-3.66c-.056.317-.164.74-.378 1.168-.223.447-.568.91-1.095 1.262-.53.355-1.212.57-2.067.57s-1.536-.215-2.067-.57a3.23 3.23 0 0 1-1.095-1.262 4.3 4.3 0 0 1-.377-1.168M16.2 12a5.4 5.4 0 1 0 0-10.8 5.4 5.4 0 0 0 0 10.8m-2.824-4.976a.6.6 0 1 1 .848-.848L15.6 7.55V4.2a.6.6 0 1 1 1.2 0v3.351l1.376-1.375a.6.6 0 0 1 .848.848l-2.4 2.4a.6.6 0 0 1-.42.176h-.008a.6.6 0 0 1-.418-.173l-.003-.003z"/><path fill="#04071E" fill-rule="evenodd" d="M9.828 6.22H7.2A2.18 2.18 0 0 0 5.02 8.4v4.58H9a.82.82 0 0 1 .82.816v.01l.004.064a2.869 2.869 0 0 0 .285 1.063c.138.278.334.53.611.716.273.182.673.331 1.28.331s1.007-.15 1.28-.331c.277-.185.473-.438.612-.716.083-.166.143-.337.186-.496a3 3 0 0 0 .102-.63v-.011a.82.82 0 0 1 .82-.816h3.98v-.634l.12-.062a6.4 6.4 0 0 0 1.16-.762l.36-.298V18a3.82 3.82 0 0 1-3.82 3.82H7.2A3.82 3.82 0 0 1 3.38 18V8.4A3.82 3.82 0 0 1 7.2 4.58h2.94l-.08.28a6.4 6.4 0 0 0-.214 1.16zM19.2 13.2H15a.6.6 0 0 0-.6.599v.015l-.004.072a3 3 0 0 1-.105.608 3 3 0 0 1-.203.538c-.151.303-.37.59-.686.8-.313.209-.757.368-1.402.368s-1.089-.16-1.402-.368a2.03 2.03 0 0 1-.686-.8 3.1 3.1 0 0 1-.312-1.218v-.015A.6.6 0 0 0 9 13.2H4.8V8.4A2.4 2.4 0 0 1 7.2 6h2.427a6.6 6.6 0 0 1 .221-1.2H7.2a3.6 3.6 0 0 0-3.6 3.6V18a3.6 3.6 0 0 0 3.6 3.6h9.6a3.6 3.6 0 0 0 3.6-3.6v-6.309a6.587 6.587 0 0 1-1.2.789zM8.838 15.568a4.3 4.3 0 0 1-.377-1.168H4.8V18a2.4 2.4 0 0 0 2.4 2.4h9.6a2.4 2.4 0 0 0 2.4-2.4v-3.6h-3.66c-.056.317-.164.74-.378 1.168-.223.447-.568.91-1.095 1.262-.53.355-1.212.57-2.067.57s-1.536-.215-2.067-.57a3.23 3.23 0 0 1-1.095-1.262m6.883-.948a4.4 4.4 0 0 1-.363 1.047c-.236.472-.603.97-1.169 1.347-.57.38-1.296.606-2.189.606s-1.618-.226-2.19-.607a3.45 3.45 0 0 1-1.168-1.346 4.4 4.4 0 0 1-.363-1.047H5.02V18a2.18 2.18 0 0 0 2.18 2.18h9.6A2.18 2.18 0 0 0 18.98 18v-3.38zm.099-6.537L14.069 6.33a.38.38 0 1 0-.538.538l2.4 2.399.002.002a.38.38 0 0 0 .264.11h.005a.38.38 0 0 0 .267-.111l2.4-2.4a.38.38 0 1 0-.538-.538L16.58 8.083V4.2a.38.38 0 1 0-.76 0zm.384 1.517h-.008a.6.6 0 0 1-.418-.173l-.003-.003-2.4-2.4a.6.6 0 1 1 .85-.848L15.6 7.55V4.2a.6.6 0 1 1 1.2 0v3.351l1.376-1.375a.6.6 0 0 1 .848.848l-2.4 2.4a.6.6 0 0 1-.42.176m5.616-3a5.62 5.62 0 1 1-11.24 0 5.62 5.62 0 0 1 11.24 0m-.22 0a5.4 5.4 0 1 1-10.8 0 5.4 5.4 0 0 1 10.8 0" clip-rule="evenodd"/></svg>