<svg xmlns="http://www.w3.org/2000/svg" width="24" height="24" fill="none"><path fill="#04071E" d="M20.4 17.4v-4.92q.647-.33 1.2-.789V17.4a3 3 0 0 1-3 3H5.4a3 3 0 0 1-3-3V7.8a3 3 0 0 1 3-3h5.648a6.6 6.6 0 0 0-.221 1.2H5.4a1.8 1.8 0 0 0-1.8 1.8v.362l8.4 4.942 1.73-1.018q.586.393 1.25.656l-2.676 1.575a.6.6 0 0 1-.511.046l-.097-.046L3.6 9.556V17.4a1.8 1.8 0 0 0 1.8 1.8h13.2a1.8 1.8 0 0 0 1.8-1.8m-3-5.4a5.4 5.4 0 1 0 0-10.8 5.4 5.4 0 0 0 0 10.8m-1.2-7.8V9A.6.6 0 1 1 15 9V4.2a.6.6 0 1 1 1.2 0m3.6 0V9a.6.6 0 1 1-1.2 0V4.2a.6.6 0 1 1 1.2 0"/><path fill="#04071E" fill-rule="evenodd" d="M11.85 6.6a5.55 5.55 0 1 1 11.1 0 5.55 5.55 0 0 1-11.1 0m5.55-5.25a5.25 5.25 0 1 0 0 10.5 5.25 5.25 0 0 0 0-10.5m-1.8 2.4a.45.45 0 0 0-.45.45V9a.45.45 0 0 0 .9 0V4.2a.45.45 0 0 0-.45-.45m-.75.45a.75.75 0 0 1 1.5 0V9a.75.75 0 0 1-1.5 0zm4.35-.45a.45.45 0 0 0-.45.45V9a.45.45 0 0 0 .9 0V4.2a.45.45 0 0 0-.45-.45m-.75.45a.75.75 0 0 1 1.5 0V9a.75.75 0 0 1-1.5 0zM5.4 4.95A2.85 2.85 0 0 0 2.55 7.8v9.6a2.85 2.85 0 0 0 2.85 2.85h13.2a2.85 2.85 0 0 0 2.85-2.85V12a7 7 0 0 1-.9.572V17.4a1.95 1.95 0 0 1-1.95 1.95H5.4a1.95 1.95 0 0 1-1.95-1.95V9.293l8.316 4.892.085.04a.45.45 0 0 0 .377-.037l2.419-1.423a7 7 0 0 1-.922-.502L12 13.278l-8.55-5.03V7.8A1.95 1.95 0 0 1 5.4 5.85h5.291q.052-.46.162-.9zM2.25 7.8A3.15 3.15 0 0 1 5.4 4.65h5.847l-.054.19q-.161.568-.217 1.174l-.012.136H5.4A1.65 1.65 0 0 0 3.75 7.8v.277L12 12.93l1.735-1.02.078.052c.38.255.79.47 1.222.64l.287.114-2.942 1.73a.75.75 0 0 1-.639.058l-.012-.005-.11-.052-7.869-4.63V17.4c0 .911.739 1.65 1.65 1.65h13.2a1.65 1.65 0 0 0 1.65-1.65v-5.011l.082-.042q.631-.324 1.172-.771l.246-.203V17.4a3.15 3.15 0 0 1-3.15 3.15H5.4a3.15 3.15 0 0 1-3.15-3.15z" clip-rule="evenodd"/></svg>