<svg xmlns="http://www.w3.org/2000/svg" width="24" height="24" fill="none"><path fill="#04071E" d="M17.4 8.4a3 3 0 1 0 0-6 3 3 0 0 0 0 6m-3.796-4.8H5.4a3 3 0 0 0-3 3V15a3 3 0 0 0 3 3h10.8a3 3 0 0 0 3-3V9.196a4.2 4.2 0 0 1-1.2.361V15a1.8 1.8 0 0 1-1.8 1.8H5.4A1.8 1.8 0 0 1 3.6 15V8.356l6.896 3.561.097.046a.6.6 0 0 0 .511-.046l4.926-2.546a4.2 4.2 0 0 1-1.286-.717l-3.944 2.05-7.2-3.742V6.6a1.8 1.8 0 0 1 1.8-1.8h7.842a4.2 4.2 0 0 1 .362-1.2M7.8 20.4a3 3 0 0 1-2.4-1.2h10.8a4.2 4.2 0 0 0 4.2-4.2V9a3 3 0 0 1 1.2 2.4V15a5.4 5.4 0 0 1-5.4 5.4z"/><path fill="#04071E" fill-rule="evenodd" d="M14.25 5.4a3.15 3.15 0 1 1 6.3 0 3.15 3.15 0 0 1-6.3 0m3.15-2.85a2.85 2.85 0 1 0 0 5.7 2.85 2.85 0 0 0 0-5.7M2.25 6.6A3.15 3.15 0 0 1 5.4 3.45h8.442l-.102.214c-.171.36-.29.749-.349 1.157l-.018.129H5.4A1.65 1.65 0 0 0 3.75 6.6v.271l7.05 3.664 3.962-2.06.077.063c.366.298.784.535 1.24.692l.33.114-5.232 2.705a.75.75 0 0 1-.636.055l-.012-.005-.102-.049L3.75 8.603V15c0 .911.739 1.65 1.65 1.65h10.8A1.65 1.65 0 0 0 17.85 15V9.427l.129-.018a4 4 0 0 0 1.157-.349l.214-.101V15a3.15 3.15 0 0 1-3.15 3.15H5.4A3.15 3.15 0 0 1 2.25 15zM5.4 3.75A2.85 2.85 0 0 0 2.55 6.6V15a2.85 2.85 0 0 0 2.85 2.85h10.8A2.85 2.85 0 0 0 19.05 15V9.426a4.3 4.3 0 0 1-.9.26V15a1.95 1.95 0 0 1-1.95 1.95H5.4A1.95 1.95 0 0 1 3.45 15V8.11l7.112 3.673.089.042a.45.45 0 0 0 .377-.037l.007-.004 4.631-2.393a4.4 4.4 0 0 1-.94-.56L10.8 10.874l-7.35-3.82V6.6A1.95 1.95 0 0 1 5.4 4.65h7.714q.084-.47.26-.9zM20.25 8.7l.24.18a3.15 3.15 0 0 1 1.26 2.52V15a5.55 5.55 0 0 1-5.55 5.55H7.8a3.15 3.15 0 0 1-2.52-1.26l-.18-.24h11.1A4.05 4.05 0 0 0 20.25 15zm.3.622V15a4.35 4.35 0 0 1-4.35 4.35H5.722c.52.554 1.258.9 2.078.9h8.4c2.9 0 5.25-2.35 5.25-5.25v-3.6c0-.82-.346-1.558-.9-2.078" clip-rule="evenodd"/></svg>