<svg xmlns="http://www.w3.org/2000/svg" width="24" height="24" fill="none"><path fill="#04071E" d="M20.4 17.4v-4.92q.647-.33 1.2-.789v5.71a3 3 0 0 1-3 3H5.4a3 3 0 0 1-3-3V7.8a3 3 0 0 1 3-3h5.648q-.165.58-.221 1.2H5.4a1.8 1.8 0 0 0-1.8 1.8v.361l8.4 4.942 1.73-1.018q.586.393 1.25.656l-2.676 1.575a.6.6 0 0 1-.511.046l-.097-.046L3.6 9.556V17.4a1.8 1.8 0 0 0 1.8 1.8h13.2a1.8 1.8 0 0 0 1.8-1.8M12.762 5.904A2.4 2.4 0 0 0 14.48 2.93l-.188-.668q.459-.353.987-.597l.405.43a2.4 2.4 0 0 0 3.491.002l.39-.413q.537.255 1.001.622l-.151.507a2.4 2.4 0 0 0 1.747 3.022l.419.1a5.6 5.6 0 0 1 .012 1.22l-.552.14a2.4 2.4 0 0 0-1.717 2.974l.187.668a5.2 5.2 0 0 1-.986.597l-.405-.43a2.4 2.4 0 0 0-3.491-.001l-.39.413a5.2 5.2 0 0 1-1.002-.622l.152-.507a2.4 2.4 0 0 0-1.748-3.023l-.42-.099a5.7 5.7 0 0 1-.011-1.22zm5.839.696a1.2 1.2 0 1 0-2.4 0 1.2 1.2 0 0 0 2.4 0"/><path fill="#04071E" fill-rule="evenodd" d="m15.313 1.484.479.508a2.25 2.25 0 0 0 3.273.002l.464-.492.099.046c.367.174.713.39 1.03.64l.08.063-.18.605a2.25 2.25 0 0 0 1.638 2.833l.52.123.013.105a5.8 5.8 0 0 1 .012 1.252l-.01.105-.654.167a2.25 2.25 0 0 0-1.61 2.788l.215.765-.08.062a5.3 5.3 0 0 1-1.015.614l-.098.046-.48-.508a2.25 2.25 0 0 0-3.272-.002l-.465.492-.098-.047a5.3 5.3 0 0 1-1.031-.639l-.08-.063.18-.605a2.25 2.25 0 0 0-1.637-2.834l-.522-.123-.012-.104a5.8 5.8 0 0 1-.012-1.252l.01-.105.655-.167a2.25 2.25 0 0 0 1.61-2.788l-.215-.766.08-.062a5.3 5.3 0 0 1 1.015-.614zm-.85.836.16.57A2.55 2.55 0 0 1 12.8 6.05l-.45.114a5.5 5.5 0 0 0 .01.98l.316.074a2.55 2.55 0 0 1 1.856 3.212l-.122.409q.374.283.795.494l.314-.333a2.55 2.55 0 0 1 3.71.002l.33.35q.412-.202.78-.473l-.16-.57a2.55 2.55 0 0 1 1.824-3.159l.45-.115a5.5 5.5 0 0 0-.01-.98l-.315-.074A2.55 2.55 0 0 1 20.27 2.77l.122-.409a5 5 0 0 0-.795-.494l-.314.333a2.55 2.55 0 0 1-3.71-.002l-.33-.35a5 5 0 0 0-.78.472M5.4 4.95A2.85 2.85 0 0 0 2.55 7.8v9.6a2.85 2.85 0 0 0 2.85 2.85h13.2a2.85 2.85 0 0 0 2.85-2.85V12a7 7 0 0 1-.9.572V17.4a1.95 1.95 0 0 1-1.95 1.95H5.4a1.95 1.95 0 0 1-1.95-1.95V9.293l8.316 4.892.085.04a.45.45 0 0 0 .377-.037l2.419-1.423a7 7 0 0 1-.922-.502L12 13.278l-8.55-5.03V7.8A1.95 1.95 0 0 1 5.4 5.85h5.291q.052-.46.162-.9zM2.25 7.8A3.15 3.15 0 0 1 5.4 4.65h5.847l-.054.19q-.161.568-.217 1.174l-.012.136H5.4A1.65 1.65 0 0 0 3.75 7.8v.277L12 12.93l1.735-1.02.078.052c.38.255.79.47 1.222.64l.287.114-2.942 1.73a.75.75 0 0 1-.639.058l-.012-.005-.11-.052-7.869-4.63V17.4c0 .911.739 1.65 1.65 1.65h13.2a1.65 1.65 0 0 0 1.65-1.65V12.39l.082-.042q.631-.324 1.172-.771l.246-.203V17.4a3.15 3.15 0 0 1-3.15 3.15H5.4a3.15 3.15 0 0 1-3.15-3.15zm13.8-1.2a1.35 1.35 0 1 1 2.7 0 1.35 1.35 0 0 1-2.7 0m1.35-1.05a1.05 1.05 0 1 0 0 2.1 1.05 1.05 0 0 0 0-2.1" clip-rule="evenodd"/></svg>