<svg xmlns="http://www.w3.org/2000/svg" width="24" height="24" fill="none"><path fill="#04071E" d="M20.4 17.4v-4.92q.646-.33 1.2-.789V17.4a3 3 0 0 1-3 3H5.4a3 3 0 0 1-3-3V7.8a3 3 0 0 1 3-3h5.648a6.6 6.6 0 0 0-.221 1.2H5.4a1.8 1.8 0 0 0-1.8 1.8v.362l8.4 4.942 1.73-1.018q.586.393 1.25.656l-2.676 1.575a.6.6 0 0 1-.511.046l-.097-.046L3.6 9.556V17.4a1.8 1.8 0 0 0 1.8 1.8h13.2a1.8 1.8 0 0 0 1.8-1.8M12 6.6a5.4 5.4 0 1 0 10.8 0 5.4 5.4 0 0 0-10.8 0m6.476-3.124a.6.6 0 0 1 .848 0l2.1 2.1a.6.6 0 0 1 .003.846l-2.103 2.102a.6.6 0 1 1-.848-.848L19.55 6.6H17.7a2.1 2.1 0 0 0-2.1 2.1V9a.6.6 0 1 1-1.2 0v-.3a3.3 3.3 0 0 1 3.3-3.3h1.851l-1.075-1.076a.6.6 0 0 1 0-.848"/><path fill="#04071E" fill-rule="evenodd" d="m20.2 12.358.109-.056q.625-.321 1.164-.765l.327-.27V17.4a3.2 3.2 0 0 1-3.2 3.2H5.4a3.2 3.2 0 0 1-3.2-3.2V7.8a3.2 3.2 0 0 1 3.2-3.2h5.913l-.072.254a6.4 6.4 0 0 0-.215 1.164l-.016.182H5.4a1.6 1.6 0 0 0-1.6 1.6v.248l8.2 4.824 1.736-1.022.105.07q.568.381 1.213.636l.381.15-3.03 1.784a.8.8 0 0 1-.681.06l-.008-.002-.114-.054L3.8 9.905V17.4A1.6 1.6 0 0 0 5.4 19h13.2a1.6 1.6 0 0 0 1.6-1.6zM3.6 9.556l8.096 4.761.097.046a.6.6 0 0 0 .511-.046l2.676-1.575a6.6 6.6 0 0 1-1.25-.656L12 13.104 3.6 8.162V7.8A1.8 1.8 0 0 1 5.4 6h5.427a6.6 6.6 0 0 1 .221-1.2H5.4a3 3 0 0 0-3 3v9.6a3 3 0 0 0 3 3h13.2a3 3 0 0 0 3-3v-5.709a6.61 6.61 0 0 1-1.2.789v4.92a1.8 1.8 0 0 1-1.8 1.8H5.4a1.8 1.8 0 0 1-1.8-1.8zm17.77-3.71a.4.4 0 0 0-.087-.129l-2.1-2.1a.4.4 0 0 0-.566.566L20.034 5.6H17.7a3.1 3.1 0 0 0-3.1 3.1V9a.4.4 0 0 0 .8 0v-.3a2.3 2.3 0 0 1 2.3-2.3h2.334l-1.417 1.417a.4.4 0 0 0 .566.566l2.102-2.102a.4.4 0 0 0 .085-.434m.057.576a.6.6 0 0 0-.003-.846l-2.1-2.1a.6.6 0 1 0-.848.848L19.55 5.4H17.7a3.3 3.3 0 0 0-3.3 3.3V9a.6.6 0 1 0 1.2 0v-.3c0-1.16.94-2.1 2.1-2.1h1.851l-1.075 1.076a.6.6 0 0 0 .848.848zM17.4 12.2a5.6 5.6 0 1 1 0-11.2 5.6 5.6 0 0 1 0 11.2m0-.2a5.4 5.4 0 1 1 0-10.8 5.4 5.4 0 0 1 0 10.8" clip-rule="evenodd"/></svg>