<svg xmlns="http://www.w3.org/2000/svg" width="24" height="24" fill="none"><path fill="#04071E" d="m9.203 3.999.047-.001h.046l.067.008.016.004q.129.02.252.092l.051.033 5.07 3.566 5.068-3.562a.75.75 0 0 1 1.174.509l.007.104v10.633a.75.75 0 0 1-.238.548l-.08.065-5.5 3.867a.74.74 0 0 1-.828.023L9.25 16.297 4.18 19.86a.75.75 0 0 1-1.174-.509l-.007-.104V8.615a.75.75 0 0 1 .238-.548l.08-.065 5.5-3.867a.8.8 0 0 1 .2-.1l.122-.029zm10.298 2.197-4 2.812v8.8l4-2.813zM8.5 6.193l-4 2.812v8.799l4-2.812zm1.502 0v8.799l4 2.812v-8.8z"/></svg>