<svg xmlns="http://www.w3.org/2000/svg" width="24" height="24" fill="none"><path fill="#04071E" d="M19.2 5.4a.6.6 0 1 0-1.2 0V15.95l-1.376-1.375a.6.6 0 0 0-.848.848l2.4 2.4a.6.6 0 0 0 .848 0l2.4-2.4a.6.6 0 0 0-.848-.848L19.2 15.95zM2.785 4.84a.6.6 0 0 1 .661.159L8.4 10.503l4.954-5.504a.6.6 0 0 1 1.046.4v12a.6.6 0 1 1-1.2 0V6.965L8.846 11.8a.6.6 0 0 1-.892 0L3.6 6.964V17.4a.6.6 0 1 1-1.2 0v-12a.6.6 0 0 1 .385-.56"/><path fill="#04071E" fill-rule="evenodd" d="M3.334 5.099a.45.45 0 0 0-.784.3v12a.45.45 0 1 0 .9 0V6.965a.15.15 0 0 1 .261-.1L8.066 11.7a.45.45 0 0 0 .668 0l4.355-4.838a.15.15 0 0 1 .261.1V17.4a.45.45 0 1 0 .9 0v-12a.45.45 0 0 0-.784-.301L8.51 10.603a.15.15 0 0 1-.222 0zm-.603-.4a.75.75 0 0 1 .826.2l4.843 5.38 4.842-5.38a.75.75 0 0 1 1.308.5v12a.75.75 0 0 1-1.5 0V7.355l-4.093 4.548a.75.75 0 0 1-1.114 0L3.75 7.354V17.4a.75.75 0 0 1-1.5 0v-12a.75.75 0 0 1 .481-.7m15.119.7a.75.75 0 0 1 1.5 0v10.19l1.12-1.12a.75.75 0 1 1 1.06 1.061l-2.4 2.4a.75.75 0 0 1-1.06 0l-2.4-2.4a.75.75 0 1 1 1.06-1.06l1.12 1.12zm.75-.45a.45.45 0 0 0-.45.45v10.552a.15.15 0 0 1-.256.106l-1.376-1.375a.45.45 0 0 0-.636.636l2.4 2.4a.45.45 0 0 0 .636 0l2.4-2.4a.45.45 0 0 0-.636-.636l-1.376 1.375a.15.15 0 0 1-.256-.106V5.4a.45.45 0 0 0-.45-.45" clip-rule="evenodd"/></svg>