<svg xmlns="http://www.w3.org/2000/svg" width="24" height="24" fill="none"><path fill="#04071E" d="M17.212 2.237a.75.75 0 0 0-1.423-.474l-.75 2.249a.75.75 0 0 0 1.423.474zm4.568-.017a.75.75 0 0 1 0 1.06l-2.5 2.5a.75.75 0 1 1-1.06-1.06l2.5-2.5a.75.75 0 0 1 1.06 0M9.076 4.318a2.325 2.325 0 0 1 3.795-.577l7.006 7.506a2.325 2.325 0 0 1-.758 3.712l-3.42 1.515a4 4 0 0 1-7.314 3.24l-1.417.629a1.8 1.8 0 0 1-1.964-.337L3.565 18.65a1.8 1.8 0 0 1-.387-2.091zm.682 14.789a2.5 2.5 0 0 0 4.569-2.025zm2.016-14.343a.825.825 0 0 0-1.346.205L4.53 17.21a.3.3 0 0 0 .064.35l1.439 1.356a.3.3 0 0 0 .327.056l12.151-5.383a.825.825 0 0 0 .27-1.318zM19 8.25a.75.75 0 0 1 .75-.75h2a.75.75 0 0 1 0 1.5h-2a.75.75 0 0 1-.75-.75"/></svg>