<svg xmlns="http://www.w3.org/2000/svg" width="24" height="24" fill="none"><path fill="#04071E" d="M21.621 6.88a3 3 0 0 0-2.12-.88V3.75a.75.75 0 1 0-1.5 0V6h-3V3.75a.75.75 0 1 0-1.5 0V6h-3V3.75a.75.75 0 1 0-1.5 0V6H6V3.75a.75.75 0 0 0-1.5 0V6a3 3 0 0 0-3 3v6a3 3 0 0 0 3 3v2.25a.75.75 0 1 0 1.5 0V18h3v2.25a.75.75 0 1 0 1.5 0V18h3v2.25a.75.75 0 1 0 1.5 0V18h3v2.25a.75.75 0 1 0 1.5 0V18a3 3 0 0 0 3-3V9a3 3 0 0 0-.88-2.12m-.62 8.12a1.5 1.5 0 0 1-1.5 1.5h-15A1.5 1.5 0 0 1 3 15V9a1.5 1.5 0 0 1 1.5-1.5h15A1.5 1.5 0 0 1 21 9zm-2.25-6H5.25a.75.75 0 0 0-.75.75v4.5a.75.75 0 0 0 .75.75h13.5a.75.75 0 0 0 .75-.75v-4.5a.75.75 0 0 0-.75-.75M18 13.5H6v-3h12z"/><path fill="#04071E" fill-rule="evenodd" d="M4.614 3.114a.9.9 0 0 1 1.536.636v2.1h2.7v-2.1a.9.9 0 1 1 1.8 0v2.1h2.7v-2.1a.9.9 0 1 1 1.8 0v2.1h2.7v-2.1a.9.9 0 1 1 1.8 0v2.104a3.15 3.15 0 0 1 3 3.146v6a3.15 3.15 0 0 1-3 3.146v2.104a.9.9 0 1 1-1.8 0v-2.1h-2.7v2.1a.9.9 0 1 1-1.8 0v-2.1h-2.7v2.1a.9.9 0 1 1-1.8 0v-2.1h-2.7v2.1a.9.9 0 0 1-1.8 0v-2.104a3.15 3.15 0 0 1-3-3.146V9a3.15 3.15 0 0 1 3-3.146V3.75a.9.9 0 0 1 .264-.636m.636.036a.6.6 0 0 0-.6.6v2.4H4.5A2.85 2.85 0 0 0 1.65 9v6a2.85 2.85 0 0 0 2.85 2.85h.15v2.4a.6.6 0 0 0 1.2 0v-2.4h3.3v2.4a.6.6 0 0 0 1.2 0v-2.4h3.3v2.4a.6.6 0 0 0 1.2 0v-2.4h3.3v2.4a.6.6 0 0 0 1.2 0v-2.4h.15A2.85 2.85 0 0 0 22.35 15V9a2.85 2.85 0 0 0-2.85-2.85h-.15v-2.4a.6.6 0 1 0-1.2 0v2.4h-3.3v-2.4a.6.6 0 1 0-1.2 0v2.4h-3.3v-2.4a.6.6 0 1 0-1.2 0v2.4h-3.3v-2.4a.6.6 0 0 0-.6-.6m-.75 4.5A1.35 1.35 0 0 0 3.15 9v6a1.35 1.35 0 0 0 1.35 1.35h15A1.35 1.35 0 0 0 20.85 15V9a1.35 1.35 0 0 0-1.35-1.35zm-1.167.183c.31-.31.73-.483 1.167-.483h15A1.65 1.65 0 0 1 21.15 9v6a1.65 1.65 0 0 1-1.65 1.65h-15A1.65 1.65 0 0 1 2.85 15V9c0-.438.174-.857.483-1.167m1.28 1.28a.9.9 0 0 1 .637-.263h13.5a.9.9 0 0 1 .9.9v4.5a.9.9 0 0 1-.9.9H5.25a.9.9 0 0 1-.9-.9v-4.5a.9.9 0 0 1 .264-.636m.637.037a.6.6 0 0 0-.6.6v4.5a.6.6 0 0 0 .6.6h13.5a.6.6 0 0 0 .6-.6v-4.5a.6.6 0 0 0-.6-.6zm.6 1.2h12.3v3.3H5.85zm.3.3v2.7h11.7v-2.7z" clip-rule="evenodd"/></svg>