<svg xmlns="http://www.w3.org/2000/svg" width="24" height="24" fill="none"><path fill="#04071E" d="M5.4 3.6a1.8 1.8 0 0 0-1.8 1.8v13.2a1.8 1.8 0 0 0 1.8 1.8h2.4a.6.6 0 1 1 0 1.2H5.4a3 3 0 0 1-3-3V5.4a3 3 0 0 1 3-3h2.4a.6.6 0 0 1 0 1.2zm13.2 16.8a1.8 1.8 0 0 0 1.8-1.8V5.4a1.8 1.8 0 0 0-1.8-1.8h-2.4a.6.6 0 1 1 0-1.2h2.4a3 3 0 0 1 3 3v13.2a3 3 0 0 1-3 3h-2.4a.6.6 0 1 1 0-1.2zM13.8 12a1.8 1.8 0 1 0-3.6 0 1.8 1.8 0 0 0 3.6 0M12 9c.675 0 1.299.223 1.8.6a.6.6 0 0 1 1.2 0v3.3a.9.9 0 1 0 1.8 0V12a4.8 4.8 0 1 0-5.086 4.792l-.005.008.031-.007q.13.007.26.007c.54 0 1.112-.101 1.633-.273.358-.119.767.13.767.508a.66.66 0 0 1-.434.635A6 6 0 1 1 18 12v.9a2.1 2.1 0 0 1-3.838 1.18A3 3 0 1 1 12 9"/><path fill="#04071E" fill-rule="evenodd" d="M5.4 2.55A2.85 2.85 0 0 0 2.55 5.4v13.2a2.85 2.85 0 0 0 2.85 2.85h2.4a.45.45 0 0 0 0-.9H5.4a1.95 1.95 0 0 1-1.95-1.95V5.4A1.95 1.95 0 0 1 5.4 3.45h2.4a.45.45 0 1 0 0-.9zM2.25 5.4A3.15 3.15 0 0 1 5.4 2.25h2.4a.75.75 0 0 1 0 1.5H5.4A1.65 1.65 0 0 0 3.75 5.4v13.2c0 .911.739 1.65 1.65 1.65h2.4a.75.75 0 0 1 0 1.5H5.4a3.15 3.15 0 0 1-3.15-3.15zM16.2 2.55a.45.45 0 0 0 0 .9h2.4a1.95 1.95 0 0 1 1.95 1.95v13.2a1.95 1.95 0 0 1-1.95 1.95h-2.4a.45.45 0 0 0 0 .9h2.4a2.85 2.85 0 0 0 2.85-2.85V5.4a2.85 2.85 0 0 0-2.85-2.85zm-.75.45a.75.75 0 0 1 .75-.75h2.4a3.15 3.15 0 0 1 3.15 3.15v13.2a3.15 3.15 0 0 1-3.15 3.15h-2.4a.75.75 0 0 1 0-1.5h2.4a1.65 1.65 0 0 0 1.65-1.65V5.4a1.65 1.65 0 0 0-1.65-1.65h-2.4a.75.75 0 0 1-.75-.75M12 6.15a5.85 5.85 0 1 0 1.917 11.379c.2-.07.333-.268.333-.494 0-.257-.291-.458-.57-.366a5.5 5.5 0 0 1-1.68.281q-.124 0-.247-.006l-.339.076.055-.098A4.95 4.95 0 1 1 16.95 12v.9a1.05 1.05 0 1 1-2.1 0V9.6a.45.45 0 0 0-.9 0v.3l-.24-.18a2.85 2.85 0 1 0 .344 4.256l.128-.134.104.153A1.95 1.95 0 0 0 17.85 12.9V12A5.85 5.85 0 0 0 12 6.15m-.265 10.493h.013q.125.007.252.007c.522 0 1.078-.098 1.586-.266.437-.144.964.154.964.65 0 .34-.2.662-.535.778A6.15 6.15 0 1 1 18.15 12v.9a2.25 2.25 0 0 1-4.006 1.407 3.15 3.15 0 1 1-.45-4.963.75.75 0 0 1 1.456.256v3.3a.75.75 0 0 0 1.5 0V12a4.65 4.65 0 1 0-4.927 4.642zM10.05 12a1.95 1.95 0 1 1 3.9 0 1.95 1.95 0 0 1-3.9 0M12 10.35a1.65 1.65 0 1 0 0 3.3 1.65 1.65 0 0 0 0-3.3" clip-rule="evenodd"/></svg>