<svg xmlns="http://www.w3.org/2000/svg" width="24" height="24" fill="none"><path fill="#04071E" d="M12 6.6a5.4 5.4 0 1 1-10.8 0 5.4 5.4 0 0 1 10.8 0M6.175 9.424l.003.003a.6.6 0 0 0 .418.173h.008a.6.6 0 0 0 .42-.176l2.4-2.4a.6.6 0 1 0-.848-.848L7.2 7.55V4.2a.6.6 0 0 0-1.2 0v3.351L4.624 6.176a.6.6 0 1 0-.848.848zm9.425.229c-.651-.717-1.55-1.164-2.652-1.241a6.6 6.6 0 0 1-.469 1.19L12.6 9.6c1.891 0 3 1.405 3 3.6 0 2.156-1.159 3.6-3 3.6s-3-1.444-3-3.6q0-.39.046-.743-.59.307-1.242.493a7 7 0 0 0-.004.25c0 2.768 1.63 4.8 4.2 4.8 1.538 0 2.74-.729 3.455-1.908.576 1.57 1.673 2.508 3.145 2.508 2.23 0 3.6-2.153 3.6-5.4a9.6 9.6 0 0 0-10.307-9.574q.285.56.46 1.178.123-.004.247-.004a8.4 8.4 0 0 1 8.4 8.4c0 2.667-.976 4.2-2.4 4.2s-2.4-1.533-2.4-4.2V9l-.01-.108A.6.6 0 0 0 15.6 9zm-11.974 2.84a6.6 6.6 0 0 0 1.178.46L4.8 13.2a8.4 8.4 0 0 0 11.26 7.9.6.6 0 1 1 .408 1.13c-1.039.375-2.14.57-3.268.57a9.6 9.6 0 0 1-9.574-10.307"/><path fill="#04071E" fill-rule="evenodd" d="M7.2 4.2a.6.6 0 0 0-1.2 0v3.351L4.624 6.176a.6.6 0 1 0-.848.848l2.4 2.4.002.003a.6.6 0 0 0 .418.173h.008a.6.6 0 0 0 .42-.176l2.4-2.4a.6.6 0 1 0-.848-.848L7.2 7.55zm-.598 5.2a.4.4 0 0 0 .28-.117l2.4-2.4a.4.4 0 1 0-.565-.566L7 8.034V4.2a.4.4 0 0 0-.8 0v3.834L4.483 6.317a.4.4 0 1 0-.566.566l2.4 2.399.002.003a.4.4 0 0 0 .278.115h.005m6.346-.988c.994.07 1.822.44 2.452 1.036q.104.099.2.205V9a.6.6 0 0 1 1.19-.108L16.8 9v4.2c0 2.667.976 4.2 2.4 4.2 1.425 0 2.4-1.533 2.4-4.2a8.4 8.4 0 0 0-8.647-8.396 6.6 6.6 0 0 0-.46-1.178A10 10 0 0 1 13.2 3.6a9.6 9.6 0 0 1 9.6 9.6c0 3.247-1.37 5.4-3.6 5.4-1.398 0-2.458-.846-3.054-2.277a6 6 0 0 1-.09-.231q-.066.106-.135.208c-.727 1.057-1.875 1.7-3.321 1.7-2.57 0-4.2-2.032-4.2-4.8q0-.126.004-.25a6.6 6.6 0 0 0 1.242-.493 5.4 5.4 0 0 0-.046.743c0 2.156 1.159 3.6 3 3.6s3-1.444 3-3.6c0-2.155-1.069-3.548-2.897-3.599a4 4 0 0 0-.224 0 6.6 6.6 0 0 0 .47-1.189m3.064 8.105c-.767 1.049-1.947 1.683-3.412 1.683-1.341 0-2.448-.532-3.216-1.432C8.62 15.87 8.2 14.622 8.2 13.2q0-.13.004-.256l.005-.146.14-.04q.633-.18 1.204-.479l.34-.177-.049.38a6 6 0 0 0-.044.718c0 1.044.28 1.895.764 2.481.48.583 1.172.919 2.036.919s1.556-.336 2.036-.919c.484-.586.764-1.437.764-2.481 0-1.066-.27-1.917-.745-2.496-.472-.575-1.163-.904-2.055-.904q-.057 0-.114.002l-.34.01.155-.301q.281-.55.455-1.154l.044-.156.162.012c.968.067 1.792.409 2.438.966V9a.8.8 0 0 1 1.587-.144l.002.01.011.125V13.2c0 1.313.24 2.324.638 2.999.394.668.934 1.001 1.562 1.001s1.168-.333 1.562-1.001c.397-.675.638-1.686.638-2.999a8.2 8.2 0 0 0-8.442-8.197l-.156.005-.042-.15a6.4 6.4 0 0 0-.445-1.142l-.136-.268.3-.022q.357-.026.721-.026c5.412 0 9.8 4.388 9.8 9.8 0 1.648-.347 3.04-.997 4.028-.654.994-1.613 1.572-2.803 1.572-1.459 0-2.56-.866-3.188-2.283M3.448 12.18l.268.136q.544.276 1.142.445l.15.043-.005.155Q5 13.078 5 13.2a8.2 8.2 0 0 0 10.992 7.713.8.8 0 0 1 .544 1.504A9.8 9.8 0 0 1 13.2 23c-5.412 0-9.8-4.388-9.8-9.8q0-.364.026-.721zM12.2 6.6A5.6 5.6 0 1 1 1 6.6a5.6 5.6 0 0 1 11.2 0m-8.574 5.893a10 10 0 0 0-.026.707 9.6 9.6 0 0 0 12.868 9.03.6.6 0 1 0-.408-1.13 8.4 8.4 0 0 1-11.256-8.148 6.5 6.5 0 0 1-1.178-.459M6.6 12a5.4 5.4 0 1 0 0-10.8 5.4 5.4 0 0 0 0 10.8" clip-rule="evenodd"/></svg>