<svg xmlns="http://www.w3.org/2000/svg" width="24" height="24" fill="none"><path fill="#04071E" d="m19.729 3.917.05.16.552 1.922a.75.75 0 0 1-.418.893l-.096.035L9.09 10.002h11.159a.75.75 0 0 1 .743.65l.007.1v8.499a2.75 2.75 0 0 1-2.583 2.745L18.25 22h-12.5a2.75 2.75 0 0 1-2.744-2.582L3 19.25v-8.392l-.522-1.821a2.75 2.75 0 0 1 1.726-3.35l.16-.052 12.014-3.445a2.75 2.75 0 0 1 3.35 1.726m-.231 7.585H4.5v7.749c0 .604.428 1.108.998 1.224l.124.02.128.006h12.499a1.25 1.25 0 0 0 1.243-1.122l.007-.128zM6.272 6.649l-1.495.43a1.25 1.25 0 0 0-.886 1.42l.029.125.344 1.201.295-.085zm4.757-1.363-2.718.779-1.713 3.09 2.717-.778zm4.757-1.365-2.717.78-1.714 3.09 2.717-.778zm1.847-.233-1.52 2.74 2.568-.737-.343-1.2a1.25 1.25 0 0 0-.705-.803"/></svg>