<svg xmlns="http://www.w3.org/2000/svg" width="24" height="24" fill="none"><path fill="#04071E" d="M17.642 2.67A1.2 1.2 0 0 1 19.2 3.817v7.233a6.6 6.6 0 0 0-1.2-.222v-3.41L9.6 10.04v8.56A3 3 0 1 1 8.4 16.2V6.44a1.2 1.2 0 0 1 .842-1.145zM9.6 8.785 18 6.159V3.816L9.6 6.441zm-3 8.016a1.8 1.8 0 1 0 0 3.6 1.8 1.8 0 0 0 0-3.6m16.2.6a5.4 5.4 0 1 1-10.8 0 5.4 5.4 0 0 1 10.8 0m-2.717-.523-3.593-1.98a.6.6 0 0 0-.89.525v3.96a.6.6 0 0 0 .89.526l3.593-1.98a.6.6 0 0 0 0-1.05"/><path fill="#04071E" fill-rule="evenodd" d="M19.05 3.816a1.05 1.05 0 0 0-1.363-1.002l-8.4 2.625a1.05 1.05 0 0 0-.737 1.002v10.06l-.24-.181a2.85 2.85 0 1 0 1.14 2.28V9.931l8.7-2.719v3.48q.46.05.9.161zm-1.453-1.288a1.35 1.35 0 0 1 1.753 1.288v7.43l-.19-.053a6.4 6.4 0 0 0-1.173-.216l-.137-.013V7.62l-8.1 2.532V18.6a3.15 3.15 0 1 1-1.5-2.684V6.441c0-.59.384-1.112.948-1.288zm.553 1.084V6.27l-8.7 2.72V6.33zm-8.4 2.94V8.58l8.1-2.531V4.02zm7.65 5.598a5.25 5.25 0 1 0 0 10.5 5.25 5.25 0 0 0 0-10.5m-5.55 5.25a5.55 5.55 0 1 1 11.1 0 5.55 5.55 0 0 1-11.1 0m3.6-1.977a.75.75 0 0 1 1.112-.657l3.593 1.98a.75.75 0 0 1 0 1.314l-3.593 1.98a.75.75 0 0 1-1.112-.657zm.967-.395a.45.45 0 0 0-.667.394v3.96c0 .343.367.56.667.395l3.593-1.98a.45.45 0 0 0 0-.788zM4.65 18.6a1.95 1.95 0 1 1 3.9 0 1.95 1.95 0 0 1-3.9 0m1.95-1.65a1.65 1.65 0 1 0 0 3.3 1.65 1.65 0 0 0 0-3.3" clip-rule="evenodd"/></svg>