<svg xmlns="http://www.w3.org/2000/svg" width="24" height="24" fill="none"><path fill="#04071E" d="M2 6a.6.6 0 0 0 0 1.2h18A.6.6 0 1 0 20 6zm0 6a.6.6 0 1 0 0 1.2h10.509c.376-.455.811-.86 1.295-1.2zm9.248 7.2a6.6 6.6 0 0 1-.221-1.2H2a.6.6 0 1 0 0 1.2zM23 17.4a5.4 5.4 0 1 1-10.8 0 5.4 5.4 0 0 1 10.8 0m-2.744-.524-3.565-1.98a.6.6 0 0 0-.891.524v3.96a.6.6 0 0 0 .891.525l3.565-1.98a.6.6 0 0 0 0-1.05"/><path fill="#04071E" fill-rule="evenodd" d="M1.25 6.6A.75.75 0 0 1 2 5.85h18a.75.75 0 0 1 0 1.5H2a.75.75 0 0 1-.75-.75M2 6.15a.45.45 0 1 0 0 .9h18a.45.45 0 0 0 0-.9zm-.75 6.45a.75.75 0 0 1 .75-.75h12.278l-.387.273a6.5 6.5 0 0 0-1.267 1.173l-.045.054H2a.75.75 0 0 1-.75-.75m.75-.45a.45.45 0 0 0 0 .9h10.438q.417-.493.919-.9zm15.6 0a5.25 5.25 0 1 0 0 10.5 5.25 5.25 0 0 0 0-10.5m-5.55 5.25a5.55 5.55 0 1 1 11.1 0 5.55 5.55 0 0 1-11.1 0m3.6-1.98a.75.75 0 0 1 1.114-.656l3.565 1.98a.75.75 0 0 1 0 1.312l-3.565 1.98a.75.75 0 0 1-1.114-.656zm.969-.394a.45.45 0 0 0-.669.394v3.96c0 .344.369.56.669.394l3.564-1.98a.45.45 0 0 0 0-.787zM1.25 18.6a.75.75 0 0 1 .75-.75h9.164l.012.137q.056.604.217 1.172l.054.191H2a.75.75 0 0 1-.75-.75m.75-.45a.45.45 0 0 0 0 .9h9.053a7 7 0 0 1-.162-.9z" clip-rule="evenodd"/></svg>