<svg xmlns="http://www.w3.org/2000/svg" width="24" height="24" fill="none"><path fill="#04071E" d="M2 5a.6.6 0 0 0 0 1.2h18A.6.6 0 1 0 20 5zm0 6a.6.6 0 1 0 0 1.2h12.235a5.4 5.4 0 0 1 1.587-.878q.026-.165.081-.322zm9.432 6.57a1.8 1.8 0 0 1-.329-.57H2a.6.6 0 1 0 0 1.2h10.53l-.008-.022a1.8 1.8 0 0 1-1.09-.608m6.168.03a1.2 1.2 0 1 0 0-2.401 1.2 1.2 0 0 0 0 2.401m4.8-1.8h-.661a4.185 4.185 0 0 0-3.539-3.539v-.66a.6.6 0 0 0-1.2 0v.66a4.185 4.185 0 0 0-3.539 3.54H12.8a.6.6 0 0 0 0 1.2h.661A4.185 4.185 0 0 0 17 20.538v.661a.6.6 0 0 0 1.2 0v-.661A4.185 4.185 0 0 0 21.739 17h.661a.6.6 0 0 0 0-1.2m-2.678 2.722a3 3 0 1 1-4.244-4.243 3 3 0 0 1 4.244 4.243"/><path fill="#04071E" fill-rule="evenodd" d="M1.25 5.6A.75.75 0 0 1 2 4.85h18a.75.75 0 0 1 0 1.5H2a.75.75 0 0 1-.75-.75M2 5.15a.45.45 0 1 0 0 .9h18a.45.45 0 0 0 0-.9zm-.75 6.45a.75.75 0 0 1 .75-.75h14.115l-.07.2a1.7 1.7 0 0 0-.075.295l-.014.088-.085.03a5.2 5.2 0 0 0-1.543.854l-.04.033H2a.75.75 0 0 1-.75-.75m.75-.45a.45.45 0 0 0 0 .9h12.182a5.5 5.5 0 0 1 1.508-.84l.013-.06zm15.07-.08a.75.75 0 0 1 1.28.53v.534a4.33 4.33 0 0 1 3.517 3.516h.533a.75.75 0 1 1 0 1.5h-.533a4.33 4.33 0 0 1-3.517 3.517v.533a.75.75 0 1 1-1.5 0v-.533a4.33 4.33 0 0 1-3.517-3.517H12.8a.75.75 0 1 1 0-1.5h.533a4.33 4.33 0 0 1 3.517-3.517V11.6a.75.75 0 0 1 .22-.53m.53.08a.45.45 0 0 0-.45.45v.791l-.128.019a4.03 4.03 0 0 0-3.412 3.412l-.019.128H12.8a.45.45 0 0 0 0 .9h.791l.019.128a4.03 4.03 0 0 0 3.412 3.412l.128.02v.79a.45.45 0 0 0 .9 0v-.79l.128-.02a4.03 4.03 0 0 0 3.412-3.411l.019-.129h.791a.45.45 0 0 0 0-.9h-.791l-.019-.128a4.03 4.03 0 0 0-3.412-3.412l-.128-.019v-.79a.45.45 0 0 0-.45-.45m.555 2.455a2.85 2.85 0 1 0-1.11 5.591 2.85 2.85 0 0 0 1.11-5.59m-2.04.018a3.15 3.15 0 1 1 2.97 5.554 3.15 3.15 0 0 1-2.97-5.554m.968 1.53a1.35 1.35 0 1 1 1.034 2.494 1.35 1.35 0 0 1-1.034-2.494m.722.217a1.05 1.05 0 1 0-.41 2.061 1.05 1.05 0 0 0 .41-2.06M1.25 17.6a.75.75 0 0 1 .75-.75h9.21l.034.1a1.65 1.65 0 0 0 1.301 1.08l.089.014.107.306H2a.75.75 0 0 1-.75-.75m.75-.45a.45.45 0 0 0 0 .9h9.761a1.95 1.95 0 0 1-.76-.9z" clip-rule="evenodd"/></svg>