<svg xmlns="http://www.w3.org/2000/svg" width="24" height="24" fill="none"><g fill="#04071E" clip-path="url(#a)"><path d="M6 9.75v4.5a.75.75 0 1 1-1.5 0v-4.5a.75.75 0 1 1 1.5 0M9.75 9a.75.75 0 0 0-.75.75v4.5a.75.75 0 1 0 1.5 0v-4.5A.75.75 0 0 0 9.75 9m4.5 0a.75.75 0 0 0-.75.75v4.5a.75.75 0 1 0 1.5 0v-4.5a.75.75 0 0 0-.75-.75m4.5 0a.75.75 0 0 0-.75.75v4.5a.75.75 0 1 0 1.5 0v-4.5a.75.75 0 0 0-.75-.75m3.75-.75v7.5A2.25 2.25 0 0 1 20.25 18h-.75v2.25a.75.75 0 0 1-.75.75h-9a.75.75 0 0 1-.75-.75V18H3v2.25a.75.75 0 1 1-1.5 0V4.5H.75a.75.75 0 0 1 0-1.5h.75A1.5 1.5 0 0 1 3 4.5V6h17.25a2.25 2.25 0 0 1 2.25 2.25m-12 11.25h3V18h-3zM18 18h-3v1.5h3zm3-9.75a.75.75 0 0 0-.75-.75H3v9h17.25a.75.75 0 0 0 .75-.75z"/><path fill-rule="evenodd" d="M.75 3.15a.6.6 0 1 0 0 1.2h.9v15.9a.6.6 0 0 0 1.2 0v-2.4h6.3v2.4a.6.6 0 0 0 .6.6h9a.6.6 0 0 0 .6-.6v-2.4h.9a2.1 2.1 0 0 0 2.1-2.1v-7.5a2.1 2.1 0 0 0-2.1-2.1H2.85V4.5A1.35 1.35 0 0 0 1.5 3.15zm-.636-.036A.9.9 0 0 1 .75 2.85h.75A1.65 1.65 0 0 1 3.15 4.5v1.35h17.1a2.4 2.4 0 0 1 2.4 2.4v7.5a2.4 2.4 0 0 1-2.4 2.4h-.6v2.1a.9.9 0 0 1-.9.9h-9a.9.9 0 0 1-.9-.9v-2.1h-5.7v2.1a.9.9 0 0 1-1.8 0V4.65h-.6a.9.9 0 0 1-.636-1.536M2.85 7.35h17.4a.9.9 0 0 1 .9.9v7.5a.9.9 0 0 1-.9.9H2.85zm.3.3v8.7h17.1a.6.6 0 0 0 .6-.6v-7.5a.6.6 0 0 0-.6-.6zm2.1 1.5a.6.6 0 0 0-.6.6v4.5a.6.6 0 0 0 1.2 0v-4.5a.6.6 0 0 0-.6-.6m-.636-.036a.9.9 0 0 1 1.536.636v4.5a.9.9 0 0 1-1.8 0v-4.5a.9.9 0 0 1 .264-.636m4.5 0a.9.9 0 0 1 1.536.636v4.5a.9.9 0 1 1-1.8 0v-4.5a.9.9 0 0 1 .264-.636m.636.036a.6.6 0 0 0-.6.6v4.5a.6.6 0 0 0 1.2 0v-4.5a.6.6 0 0 0-.6-.6m3.864-.036a.9.9 0 0 1 1.536.636v4.5a.9.9 0 1 1-1.8 0v-4.5a.9.9 0 0 1 .264-.636m.636.036a.6.6 0 0 0-.6.6v4.5a.6.6 0 0 0 1.2 0v-4.5a.6.6 0 0 0-.6-.6m3.864-.036a.9.9 0 0 1 1.536.636v4.5a.9.9 0 1 1-1.8 0v-4.5a.9.9 0 0 1 .264-.636m.636.036a.6.6 0 0 0-.6.6v4.5a.6.6 0 0 0 1.2 0v-4.5a.6.6 0 0 0-.6-.6m-8.4 8.7h3.3v1.8h-3.3zm.3.3v1.2h2.7v-1.2zm4.2-.3h3.3v1.8h-3.3zm.3.3v1.2h2.7v-1.2z" clip-rule="evenodd"/></g><defs><clipPath id="a"><path fill="#fff" d="M0 0h24v24H0z"/></clipPath></defs></svg>