<svg xmlns="http://www.w3.org/2000/svg" width="24" height="24" fill="none"><path fill="#04071E" d="M3.6 10.821V16.8l.006.211A3.6 3.6 0 0 0 7.2 20.4h5.254l.211-.01a2.4 2.4 0 0 0 1.487-.693l5.545-5.546.143-.155a2.4 2.4 0 0 0 .56-1.542V7.2l-.006-.212A3.6 3.6 0 0 0 16.8 3.6h-5.445c.305.36.5.772.588 1.2H16.8l.18.006A2.4 2.4 0 0 1 19.2 7.2V12h-3.6l-.211.006A3.6 3.6 0 0 0 12 15.6v3.6H7.2l-.18-.007A2.4 2.4 0 0 1 4.8 16.8v-5.028a2.2 2.2 0 0 1-.738-.489zm12 2.379 3.339.002q-.042.053-.09.1l-5.546 5.546-.103.09V15.6l.007-.18A2.4 2.4 0 0 1 15.6 13.2m-5.354-9.136L7.933 1.752a1.8 1.8 0 0 0-2.89.485L4.08 4.213a1.2 1.2 0 0 1-.687.609l-1.322.456a1.2 1.2 0 0 0-.457 1.983L2.75 8.398 1.2 9.95v.848h.849l1.55-1.551 1.138 1.137a1.2 1.2 0 0 0 1.982-.457l.457-1.322a1.2 1.2 0 0 1 .609-.687l1.976-.963a1.8 1.8 0 0 0 .485-2.89"/><path fill="#04071E" fill-rule="evenodd" d="M4.908 2.17a1.95 1.95 0 0 1 3.131-.524l2.313 2.312a1.95 1.95 0 0 1-.525 3.132l-1.976.963a1.05 1.05 0 0 0-.533.601L6.86 9.976a1.35 1.35 0 0 1-2.23.514L3.6 9.459l-1.49 1.489H1.05v-1.06l1.489-1.49-1.031-1.03a1.35 1.35 0 0 1 .514-2.231l1.322-.457c.263-.091.479-.283.6-.533zm2.92-.312a1.65 1.65 0 0 0-2.65.444L4.213 4.28a1.35 1.35 0 0 1-.772.684L2.12 5.42a1.05 1.05 0 0 0-.4 1.735l1.243 1.243-1.613 1.614v.636h.637L3.6 9.035l1.243 1.243a1.05 1.05 0 0 0 1.735-.4l.456-1.322a1.35 1.35 0 0 1 .685-.773l1.977-.962a1.65 1.65 0 0 0 .444-2.65zM11.03 3.45H16.8a3.75 3.75 0 0 1 3.744 3.53v.004l.006.216v5.254a2.55 2.55 0 0 1-.595 1.638l-.005.005-.147.16-5.546 5.546a2.55 2.55 0 0 1-1.578.737h-.007l-.218.01H7.2a3.75 3.75 0 0 1-3.744-3.53v-.004L3.45 16.8v-6.34l.718.717c.207.207.44.357.687.455l.095.038v5.13a2.25 2.25 0 0 0 2.08 2.244l.173.006h4.647V15.6a3.75 3.75 0 0 1 3.53-3.744h.004l.216-.006h3.45V7.2a2.25 2.25 0 0 0-2.08-2.244l-.173-.006h-4.976l-.025-.12a2.54 2.54 0 0 0-.555-1.133zm.627.3c.19.28.325.586.404.9h4.743l.185.007A2.55 2.55 0 0 1 19.35 7.2v4.95h-3.748l-.207.006A3.45 3.45 0 0 0 12.15 15.6v3.75H7.194l-.184-.007A2.55 2.55 0 0 1 4.65 16.8v-4.93a2.3 2.3 0 0 1-.694-.48l-.206-.206v5.614l.006.207A3.45 3.45 0 0 0 7.2 20.25h5.251l.204-.01a2.25 2.25 0 0 0 1.39-.65l5.544-5.542.138-.151a2.25 2.25 0 0 0 .523-1.443V7.202l-.006-.207A3.45 3.45 0 0 0 16.8 3.75zm1.698 11.68-.006.173v2.986l5.238-5.238-2.988-.001a2.25 2.25 0 0 0-2.244 2.08m-.299-.02a2.55 2.55 0 0 1 2.543-2.36l3.65.002-.194.243q-.047.06-.101.114L13.4 18.962l-.351.302v-3.67z" clip-rule="evenodd"/></svg>