<svg xmlns="http://www.w3.org/2000/svg" width="24" height="24" fill="none"><path fill="#04071E" d="M1.2 6.6c0-2.982 2.419-5.4 5.402-5.4a5.4 5.4 0 1 1 0 10.8A5.4 5.4 0 0 1 1.2 6.6m7.679 1.076L7.802 8.75V6.9a3.3 3.3 0 0 0-3.3-3.3h-.3a.6.6 0 1 0 0 1.2h.3c1.16 0 2.1.94 2.1 2.1v1.851L5.526 7.676a.6.6 0 0 0-.849.848l2.103 2.103a.6.6 0 0 0 .847-.003l2.1-2.1a.6.6 0 1 0-.848-.848m-5.285 4.803q.572.292 1.2.472V19.2a1.2 1.2 0 0 0 1.2 1.2h9.604a1.2 1.2 0 0 0 1.2-1.2V4.8a1.2 1.2 0 0 0-1.2-1.2h-3.117a6.6 6.6 0 0 0-.79-1.2h3.907A2.4 2.4 0 0 1 18 4.8v14.4a2.4 2.4 0 0 1-2.4 2.4H5.994a2.4 2.4 0 0 1-2.401-2.4zM19.2 7.2h.6a.6.6 0 0 1 .6.6v1.8a.6.6 0 0 1-.6.6h-.6zm.6 4.2h-.6v3h.6a.6.6 0 0 0 .6-.6V12a.6.6 0 0 0-.6-.6m-.6 4.2h.6a.6.6 0 0 1 .6.6V18a.6.6 0 0 1-.6.6h-.6z"/><path fill="#04071E" fill-rule="evenodd" d="M8.879 7.676 7.802 8.75V6.9a3.3 3.3 0 0 0-3.3-3.3h-.3a.6.6 0 1 0 0 1.2h.3c1.16 0 2.1.94 2.1 2.1v1.851L5.526 7.676a.6.6 0 0 0-.849.848l2.103 2.103a.6.6 0 0 0 .847-.003l2.1-2.1a.6.6 0 1 0-.848-.848M7.602 6.9a3.1 3.1 0 0 0-3.1-3.1h-.3a.4.4 0 1 0 0 .8h.3a2.3 2.3 0 0 1 2.3 2.3v2.334L5.384 7.817a.4.4 0 0 0-.566.566l2.103 2.102a.4.4 0 0 0 .564-.002l2.101-2.1a.4.4 0 1 0-.566-.566L7.602 9.234z" clip-rule="evenodd"/><path fill="#04071E" fill-rule="evenodd" d="m3.685 12.3-.291-.149V19.2a2.6 2.6 0 0 0 2.6 2.6h9.604a2.6 2.6 0 0 0 2.601-2.6V4.8a2.6 2.6 0 0 0-2.6-2.6h-4.332l.27.327q.445.539.766 1.164l.056.109h3.24a1 1 0 0 1 1 1v14.4a1 1 0 0 1-1 1H5.994a1 1 0 0 1-1-1v-6.4l-.146-.042a6.4 6.4 0 0 1-1.164-.457M19.8 7H19v3.4h.8a.8.8 0 0 0 .8-.8V7.8a.8.8 0 0 0-.8-.8m0 4.2H19v3.4h.8a.8.8 0 0 0 .8-.8V12a.8.8 0 0 0-.8-.8m0 4.2H19v3.4h.8a.8.8 0 0 0 .8-.8v-1.8a.8.8 0 0 0-.8-.8M6.602 1a5.601 5.601 0 1 0 0 11.2 5.6 5.6 0 1 0 0-11.2M3.594 19.2v-6.721a6.5 6.5 0 0 0 1.2.472V19.2a1.2 1.2 0 0 0 1.2 1.2h9.604a1.2 1.2 0 0 0 1.2-1.2V4.8a1.2 1.2 0 0 0-1.2-1.2h-3.117a6.6 6.6 0 0 0-.79-1.2h3.907A2.4 2.4 0 0 1 18 4.8v14.4a2.4 2.4 0 0 1-2.4 2.4H5.994a2.4 2.4 0 0 1-2.401-2.4M19.8 11.4h-.6v3h.6a.6.6 0 0 0 .6-.6V12a.6.6 0 0 0-.6-.6M1.2 6.6c0-2.982 2.419-5.4 5.402-5.4a5.4 5.4 0 1 1 0 10.8A5.4 5.4 0 0 1 1.2 6.6m18 3.6v-3h.6a.6.6 0 0 1 .6.6v1.8a.6.6 0 0 1-.6.6zm0 8.4v-3h.6a.6.6 0 0 1 .6.6V18a.6.6 0 0 1-.6.6z" clip-rule="evenodd"/></svg>