<svg xmlns="http://www.w3.org/2000/svg" width="24" height="24" fill="none"><path fill="#04071E" d="M8.4 9a.6.6 0 0 1 .6-.6h6a.6.6 0 1 1 0 1.2H9a.6.6 0 0 1-.6-.6m.6 3a.6.6 0 1 0 0 1.2h6a.6.6 0 1 0 0-1.2zm-.6 4.2a.6.6 0 0 1 .6-.6h2.4a.6.6 0 1 1 0 1.2H9a.6.6 0 0 1-.6-.6M7.2 3a.6.6 0 0 1 1.2 0v.6h3V3a.6.6 0 0 1 1.2 0v.6h3V3a.6.6 0 0 1 1.2 0v.6h.6a1.8 1.8 0 0 1 1.8 1.8v5.678a3.4 3.4 0 0 0-1.078.73l-.122.123V5.4a.6.6 0 0 0-.6-.6H6.6a.6.6 0 0 0-.6.6v14.4a.6.6 0 0 0 .6.6h4.465l-.196.784q-.053.211-.066.416H6.6a1.8 1.8 0 0 1-1.8-1.8V5.4a1.8 1.8 0 0 1 1.8-1.8h.6zm11.771 9.657-5.795 5.796a2.64 2.64 0 0 0-.694 1.224l-.45 1.798a1.067 1.067 0 0 0 1.295 1.294l1.798-.45a2.64 2.64 0 0 0 1.224-.693l5.796-5.795a2.244 2.244 0 0 0-3.174-3.174"/><path fill="#04071E" fill-rule="evenodd" d="M7.8 2.55a.45.45 0 0 0-.45.45v.75H6.6A1.65 1.65 0 0 0 4.95 5.4v14.4c0 .911.739 1.65 1.65 1.65h4.067q.018-.15.056-.302l.15-.598H6.6a.75.75 0 0 1-.75-.75V5.4a.75.75 0 0 1 .75-.75h10.8a.75.75 0 0 1 .75.75v6.176c.275-.249.579-.447.9-.596V5.4a1.65 1.65 0 0 0-1.65-1.65h-.75V3a.45.45 0 1 0-.9 0v.75h-3.3V3a.45.45 0 1 0-.9 0v.75h-3.3V3a.45.45 0 0 0-.45-.45M7.05 3a.75.75 0 0 1 1.5 0v.45h2.7V3a.75.75 0 0 1 1.5 0v.45h2.7V3a.75.75 0 0 1 1.5 0v.45h.45a1.95 1.95 0 0 1 1.95 1.95v5.777l-.09.039c-.375.16-.726.393-1.032.699l-.378.378V5.4a.45.45 0 0 0-.45-.45H6.6a.45.45 0 0 0-.45.45v14.4c0 .248.201.45.45.45h4.657l-.243.97a2 2 0 0 0-.06.39l-.01.14H6.6a1.95 1.95 0 0 1-1.95-1.95V5.4A1.95 1.95 0 0 1 6.6 3.45h.45zM9 8.55a.45.45 0 0 0 0 .9h6a.45.45 0 1 0 0-.9zM8.25 9A.75.75 0 0 1 9 8.25h6a.75.75 0 0 1 0 1.5H9A.75.75 0 0 1 8.25 9m10.615 3.551a2.394 2.394 0 0 1 3.386 3.386l-5.795 5.796c-.357.357-.805.61-1.295.732l-1.797.45a1.217 1.217 0 0 1-1.477-1.476l.45-1.798c.122-.49.376-.937.733-1.294zm3.174.212a2.094 2.094 0 0 0-2.962 0l-5.795 5.796a2.5 2.5 0 0 0-.654 1.155l-.45 1.797a.917.917 0 0 0 1.113 1.113l1.797-.45c.438-.109.837-.335 1.155-.654l5.796-5.795a2.094 2.094 0 0 0 0-2.962M8.25 12.6a.75.75 0 0 1 .75-.75h6a.75.75 0 0 1 0 1.5H9a.75.75 0 0 1-.75-.75m.75-.45a.45.45 0 0 0 0 .9h6a.45.45 0 1 0 0-.9zm0 3.6a.45.45 0 0 0 0 .9h2.4a.45.45 0 1 0 0-.9zm-.75.45a.75.75 0 0 1 .75-.75h2.4a.75.75 0 0 1 0 1.5H9a.75.75 0 0 1-.75-.75" clip-rule="evenodd"/></svg>