<svg xmlns="http://www.w3.org/2000/svg" width="24" height="24" fill="none"><path fill="#04071E" d="M6.6 6a.6.6 0 0 0-.6.6V9a.6.6 0 0 0 .6.6H15a.6.6 0 0 0 .6-.6V6.6A.6.6 0 0 0 15 6zm.6 2.4V7.2h7.2v1.2zM3.6 4.8A2.4 2.4 0 0 1 6 2.4h9.6A2.4 2.4 0 0 1 18 4.8v14.4a2.4 2.4 0 0 1-2.4 2.4h-3.745c.333-.38.61-.78.824-1.177l.012-.023H15.6a1.2 1.2 0 0 0 1.2-1.2V4.8a1.2 1.2 0 0 0-1.2-1.2H6a1.2 1.2 0 0 0-1.2 1.2v8.636a7 7 0 0 0-1.2.447zm15.6 2.4h.6a.6.6 0 0 1 .6.6v1.8a.6.6 0 0 1-.6.6h-.6zm.6 4.2h-.6v3h.6a.6.6 0 0 0 .6-.6V12a.6.6 0 0 0-.6-.6m-.6 4.2h.6a.6.6 0 0 1 .6.6V18a.6.6 0 0 1-.6.6h-.6zm-18 3c0-1.418 2.083-4.2 5.4-4.2 3.313 0 5.4 2.76 5.4 4.2 0 1.418-2.087 4.2-5.4 4.2s-5.4-2.76-5.4-4.2m3.733 2.494a3 3 0 1 0 3.334-4.988 3 3 0 0 0-3.334 4.988M8.097 19.6a1.8 1.8 0 1 0-2.993-2 1.8 1.8 0 0 0 2.993 2"/><path fill="#04071E" fill-rule="evenodd" d="M6 2.55A2.25 2.25 0 0 0 3.75 4.8v8.849q.429-.191.9-.327V4.8c0-.746.604-1.35 1.35-1.35h9.6c.746 0 1.35.604 1.35 1.35v14.4a1.35 1.35 0 0 1-1.35 1.35h-2.82c-.167.303-.37.606-.604.9H15.6a2.25 2.25 0 0 0 2.25-2.25V4.8a2.25 2.25 0 0 0-2.25-2.25zM3.45 4.8A2.55 2.55 0 0 1 6 2.25h9.6a2.55 2.55 0 0 1 2.55 2.55v14.4a2.55 2.55 0 0 1-2.55 2.55h-4.076l.219-.249c.325-.371.596-.761.804-1.149l.054-.102H15.6c.58 0 1.05-.47 1.05-1.05V4.8c0-.58-.47-1.05-1.05-1.05H6c-.58 0-1.05.47-1.05 1.05v8.751l-.11.03a6.7 6.7 0 0 0-1.175.437l-.215.104zm2.4 1.8a.75.75 0 0 1 .75-.75H15a.75.75 0 0 1 .75.75V9a.75.75 0 0 1-.75.75H6.6A.75.75 0 0 1 5.85 9zm.75-.45a.45.45 0 0 0-.45.45V9c0 .249.202.45.45.45H15a.45.45 0 0 0 .45-.45V6.6a.45.45 0 0 0-.45-.45zm.45.9h7.5v1.5h-7.5zm.3.3v.9h6.9v-.9zm11.7-.3h.75a.75.75 0 0 1 .75.75v1.8a.75.75 0 0 1-.75.75h-.75zm.3.3v2.7h.45a.45.45 0 0 0 .45-.45V7.8a.45.45 0 0 0-.45-.45zm-.3 3.9h.75a.75.75 0 0 1 .75.75v1.8a.75.75 0 0 1-.75.75h-.75zm.3.3v2.7h.45a.45.45 0 0 0 .45-.45V12a.45.45 0 0 0-.45-.45zM1.71 17.416c-.24.448-.36.863-.36 1.184 0 .662.49 1.675 1.41 2.53a5.6 5.6 0 0 0 3.84 1.52 5.6 5.6 0 0 0 3.84-1.528c.457-.425.81-.893 1.05-1.338.24-.448.36-.863.36-1.184 0-.662-.49-1.675-1.41-2.53a5.601 5.601 0 0 0-7.682.008c-.456.425-.81.893-1.048 1.338m.844-1.558a5.9 5.9 0 0 1 8.09-.008c.953.885 1.506 1.972 1.506 2.75 0 .388-.141.852-.396 1.326s-.63.969-1.11 1.416A5.9 5.9 0 0 1 6.6 22.95a5.9 5.9 0 0 1-4.045-1.6c-.952-.885-1.505-1.972-1.505-2.75 0-.388.141-.852.395-1.326.255-.475.63-.969 1.109-1.416m3.432-.348a3.15 3.15 0 1 1 1.228 6.18 3.15 3.15 0 0 1-1.228-6.18m1.705.457a2.85 2.85 0 1 0-2.181 5.266 2.85 2.85 0 0 0 2.18-5.266m11.359-.517h.75a.75.75 0 0 1 .75.75V18a.75.75 0 0 1-.75.75h-.75zm.3.3v2.7h.45a.45.45 0 0 0 .45-.45v-1.8a.45.45 0 0 0-.45-.45zM5.517 16.979a1.95 1.95 0 1 1 2.167 3.243 1.95 1.95 0 0 1-2.167-3.243M6.6 16.95a1.65 1.65 0 1 0 0 3.3 1.65 1.65 0 0 0 0-3.3" clip-rule="evenodd"/></svg>