<svg xmlns="http://www.w3.org/2000/svg" width="24" height="24" fill="none"><path fill="#04071E" d="M2.4 12a3.6 3.6 0 0 0 7.152.6H11.4v3.6a1.8 1.8 0 0 0 1.8 1.8h1.25a3.602 3.602 0 1 0 0-1.2H13.2a.6.6 0 0 1-.6-.6V7.8a.6.6 0 0 1 .6-.6h1.25a3.602 3.602 0 1 0 0-1.2H13.2a1.8 1.8 0 0 0-1.8 1.8v3.6H9.552A3.602 3.602 0 0 0 2.4 12M6 14.4a2.4 2.4 0 1 1 0-4.802A2.4 2.4 0 0 1 6 14.4m12 5.4a2.4 2.4 0 1 1 0-4.802 2.4 2.4 0 0 1 0 4.801M15.6 6.597a2.4 2.4 0 1 1 4.802 0 2.4 2.4 0 0 1-4.802 0"/><path fill="#04071E" fill-rule="evenodd" d="M14.325 5.85a3.752 3.752 0 1 1 0 1.5H13.2a.45.45 0 0 0-.45.45v8.4c0 .248.201.45.45.45h1.125a3.752 3.752 0 1 1 0 1.5H13.2a1.95 1.95 0 0 1-1.95-1.95v-3.45H9.677a3.752 3.752 0 1 1 0-1.5h1.573V7.8a1.95 1.95 0 0 1 1.95-1.95zM18 3.147a3.45 3.45 0 0 0-3.403 2.876l-.021.125H13.2a1.65 1.65 0 0 0-1.65 1.65v3.75H9.425l-.021-.125a3.452 3.452 0 1 0 0 1.15l.02-.125h2.126v3.75c0 .911.739 1.65 1.65 1.65h1.377l.02.125a3.452 3.452 0 1 0 0-1.15l-.02.125H13.2a.75.75 0 0 1-.75-.75V7.8a.75.75 0 0 1 .75-.75h1.377l.02.125a3.452 3.452 0 1 0 3.404-4.026m0 1.2a2.25 2.25 0 1 0 0 4.501 2.25 2.25 0 0 0 0-4.501m-2.551 2.25a2.55 2.55 0 1 1 5.102 0 2.55 2.55 0 0 1-5.102 0M6 9.748a2.25 2.25 0 1 0 0 4.502 2.25 2.25 0 0 0 0-4.501M3.45 12a2.55 2.55 0 1 1 5.102 0 2.55 2.55 0 0 1-5.102 0M18 15.148a2.25 2.25 0 1 0 0 4.501 2.25 2.25 0 0 0 0-4.501m-2.55 2.25a2.55 2.55 0 1 1 5.101 0 2.55 2.55 0 0 1-5.101 0" clip-rule="evenodd"/></svg>