<svg xmlns="http://www.w3.org/2000/svg" width="24" height="24" fill="none"><path fill="#04071E" d="m12.6 13.409 1.049-1.198a.6.6 0 1 1 .903.79l-2.1 2.4a.6.6 0 0 1-.903 0l-2.1-2.4a.6.6 0 0 1 .903-.79l1.048 1.198V8.994a.6.6 0 1 1 1.2 0zm-7.8-8.61a2.4 2.4 0 0 0-2.4 2.4v9.6a2.4 2.4 0 0 0 2.4 2.4h14.4a2.4 2.4 0 0 0 2.4-2.4V7.2a2.4 2.4 0 0 0-2.4-2.4zM3.6 7.2A1.2 1.2 0 0 1 4.8 6h14.4a1.2 1.2 0 0 1 1.2 1.2v6h-4.6a1.8 1.8 0 0 1-.345.592l-.533.609H20.4v2.4a1.2 1.2 0 0 1-1.2 1.2H4.8a1.2 1.2 0 0 1-1.2-1.2v-2.4h5.478l-.533-.609A1.8 1.8 0 0 1 8.2 13.2H3.6z"/><path fill="#04071E" fill-rule="evenodd" d="M2.25 7.2A2.55 2.55 0 0 1 4.8 4.65h14.4a2.55 2.55 0 0 1 2.55 2.55v9.6a2.55 2.55 0 0 1-2.55 2.55H4.8a2.55 2.55 0 0 1-2.55-2.55zM4.8 4.95A2.25 2.25 0 0 0 2.55 7.2v9.6a2.25 2.25 0 0 0 2.25 2.25h14.4a2.25 2.25 0 0 0 2.25-2.25V7.2a2.25 2.25 0 0 0-2.25-2.25zm0 1.2c-.58 0-1.05.47-1.05 1.05v5.85h4.557l.035.1c.068.194.173.378.316.542l.75.858H3.75v2.25c0 .58.47 1.05 1.05 1.05h14.4c.58 0 1.05-.47 1.05-1.05v-2.25h-5.659l.75-.858c.144-.164.25-.348.317-.542l.035-.1h4.557V7.2c0-.58-.47-1.05-1.05-1.05zM3.45 7.2c0-.746.604-1.35 1.35-1.35h14.4c.746 0 1.35.604 1.35 1.35v6.15h-4.647c-.08.192-.191.375-.335.54l-.316.36h5.298v2.55a1.35 1.35 0 0 1-1.35 1.35H4.8a1.35 1.35 0 0 1-1.35-1.35v-2.55h5.298l-.316-.36a2 2 0 0 1-.335-.54H3.45zM12 8.544a.45.45 0 0 0-.45.45v4.814l-1.311-1.499a.45.45 0 0 0-.678.593l2.1 2.4a.45.45 0 0 0 .678 0l2.1-2.4a.45.45 0 0 0-.678-.593l-1.311 1.5V8.993a.45.45 0 0 0-.45-.45m-.75.45a.75.75 0 0 1 1.5 0v4.016l.786-.898a.75.75 0 0 1 1.128.988l-2.1 2.4a.75.75 0 0 1-1.128 0l-2.1-2.4a.75.75 0 1 1 1.128-.988l.786.898z" clip-rule="evenodd"/></svg>