<svg xmlns="http://www.w3.org/2000/svg" width="24" height="24" fill="none"><path fill="#04071E" d="m12.6 13.409 1.049-1.198a.6.6 0 1 1 .903.79l-2.1 2.4a.6.6 0 0 1-.903 0l-2.1-2.4a.6.6 0 0 1 .903-.79l1.048 1.198V8.994a.6.6 0 1 1 1.2 0zm-7.8 5.79a2.4 2.4 0 0 1-2.4-2.4V7.2a2.4 2.4 0 0 1 2.4-2.4h14.4a2.4 2.4 0 0 1 2.4 2.4v9.6a2.4 2.4 0 0 1-2.4 2.4zm-1.2-2.4A1.2 1.2 0 0 0 4.8 18h14.4a1.2 1.2 0 0 0 1.2-1.2v-6h-6.6V9.6h6.6V7.2A1.2 1.2 0 0 0 19.2 6H4.8a1.2 1.2 0 0 0-1.2 1.2v2.4h6.6v1.2H3.6z"/><path fill="#04071E" fill-rule="evenodd" d="M4.8 4.95A2.25 2.25 0 0 0 2.55 7.2v9.6a2.25 2.25 0 0 0 2.25 2.25h14.4a2.25 2.25 0 0 0 2.25-2.25V7.2a2.25 2.25 0 0 0-2.25-2.25zM2.25 7.2A2.55 2.55 0 0 1 4.8 4.65h14.4a2.55 2.55 0 0 1 2.55 2.55v9.6a2.55 2.55 0 0 1-2.55 2.55H4.8a2.55 2.55 0 0 1-2.55-2.55zm1.2 0c0-.746.604-1.35 1.35-1.35h14.4c.746 0 1.35.604 1.35 1.35v2.55h-6.6v.9h6.6v6.15a1.35 1.35 0 0 1-1.35 1.35H4.8a1.35 1.35 0 0 1-1.35-1.35v-6.15h6.6v-.9h-6.6zM4.8 6.15c-.58 0-1.05.47-1.05 1.05v2.25h6.6v1.5h-6.6v5.85c0 .58.47 1.05 1.05 1.05h14.4c.58 0 1.05-.47 1.05-1.05v-5.85h-6.6v-1.5h6.6V7.2c0-.58-.47-1.05-1.05-1.05zM12 8.544a.45.45 0 0 0-.45.45v4.814l-1.311-1.499a.45.45 0 0 0-.678.593l2.1 2.4a.45.45 0 0 0 .678 0l2.1-2.4a.45.45 0 0 0-.678-.593l-1.311 1.5V8.993a.45.45 0 0 0-.45-.45m-.75.45a.75.75 0 0 1 1.5 0v4.016l.786-.898a.75.75 0 0 1 1.128.988l-2.1 2.4a.75.75 0 0 1-1.128 0l-2.1-2.4a.75.75 0 1 1 1.128-.988l.786.898z" clip-rule="evenodd"/></svg>