<svg xmlns="http://www.w3.org/2000/svg" width="24" height="24" fill="none"><path fill="#04071E" d="M3.6 2.4a2.4 2.4 0 0 0-2.4 2.4v4.8A2.4 2.4 0 0 0 3.6 12h9.6a2.4 2.4 0 0 0 2.4-2.4V4.8a2.4 2.4 0 0 0-2.4-2.4zM2.4 4.8a1.2 1.2 0 0 1 1.2-1.2h9.6a1.2 1.2 0 0 1 1.2 1.2v4.8a1.2 1.2 0 0 1-1.2 1.2H3.6a1.2 1.2 0 0 1-1.2-1.2zm1.2 12v-3.6h1.2v3.6A1.2 1.2 0 0 0 6 18h14.4a1.2 1.2 0 0 0 1.2-1.2V7.2A1.2 1.2 0 0 0 20.4 6h-3.6V4.8h3.6a2.4 2.4 0 0 1 2.4 2.4v9.6a2.4 2.4 0 0 1-2.4 2.4H6a2.4 2.4 0 0 1-2.4-2.4"/><path fill="#04071E" fill-rule="evenodd" d="M1.05 4.8A2.55 2.55 0 0 1 3.6 2.25h9.6a2.55 2.55 0 0 1 2.55 2.55v4.8a2.55 2.55 0 0 1-2.55 2.55H3.6A2.55 2.55 0 0 1 1.05 9.6zM3.6 2.55A2.25 2.25 0 0 0 1.35 4.8v4.8a2.25 2.25 0 0 0 2.25 2.25h9.6a2.25 2.25 0 0 0 2.25-2.25V4.8a2.25 2.25 0 0 0-2.25-2.25zm0 1.2c-.58 0-1.05.47-1.05 1.05v4.8c0 .58.47 1.05 1.05 1.05h9.6c.58 0 1.05-.47 1.05-1.05V4.8c0-.58-.47-1.05-1.05-1.05zM2.25 4.8c0-.746.604-1.35 1.35-1.35h9.6c.746 0 1.35.604 1.35 1.35v4.8a1.35 1.35 0 0 1-1.35 1.35H3.6A1.35 1.35 0 0 1 2.25 9.6zm14.4-.15h3.75a2.55 2.55 0 0 1 2.55 2.55v9.6a2.55 2.55 0 0 1-2.55 2.55H6a2.55 2.55 0 0 1-2.55-2.55v-3.75h1.5v3.75c0 .58.47 1.05 1.05 1.05h14.4c.58 0 1.05-.47 1.05-1.05V7.2c0-.58-.47-1.05-1.05-1.05h-3.75zm.3.3v.9h3.45c.746 0 1.35.604 1.35 1.35v9.6a1.35 1.35 0 0 1-1.35 1.35H6a1.35 1.35 0 0 1-1.35-1.35v-3.45h-.9v3.45A2.25 2.25 0 0 0 6 19.05h14.4a2.25 2.25 0 0 0 2.25-2.25V7.2a2.25 2.25 0 0 0-2.25-2.25z" clip-rule="evenodd"/></svg>