<svg xmlns="http://www.w3.org/2000/svg" width="24" height="24" fill="none"><path fill="#04071E" d="M6 3.6a3.6 3.6 0 0 0-3.6 3.6v8.4A3.6 3.6 0 0 0 6 19.2h12a3.6 3.6 0 0 0 3.6-3.6V7.2A3.6 3.6 0 0 0 18 3.6zM3.6 7.2A2.4 2.4 0 0 1 6 4.8h12a2.4 2.4 0 0 1 2.4 2.4v6H3.6zm0 7.2h16.8v1.2A2.4 2.4 0 0 1 18 18H6a2.4 2.4 0 0 1-2.4-2.4z"/><path fill="#04071E" fill-rule="evenodd" d="M2.25 7.2A3.75 3.75 0 0 1 6 3.45h12a3.75 3.75 0 0 1 3.75 3.75v8.4A3.75 3.75 0 0 1 18 19.35H6a3.75 3.75 0 0 1-3.75-3.75zM6 3.75A3.45 3.45 0 0 0 2.55 7.2v8.4A3.45 3.45 0 0 0 6 19.05h12a3.45 3.45 0 0 0 3.45-3.45V7.2A3.45 3.45 0 0 0 18 3.75zm0 1.2A2.25 2.25 0 0 0 3.75 7.2v5.85h16.5V7.2A2.25 2.25 0 0 0 18 4.95zM3.45 7.2A2.55 2.55 0 0 1 6 4.65h12a2.55 2.55 0 0 1 2.55 2.55v6.15H3.45zm0 7.05h17.1v1.35A2.55 2.55 0 0 1 18 18.15H6a2.55 2.55 0 0 1-2.55-2.55zm.3.3v1.05A2.25 2.25 0 0 0 6 17.85h12a2.25 2.25 0 0 0 2.25-2.25v-1.05z" clip-rule="evenodd"/></svg>