<svg xmlns="http://www.w3.org/2000/svg" width="24" height="24" fill="none"><path fill="#04071E" d="M21.6 7.2A3.6 3.6 0 0 0 18 3.6H6a3.6 3.6 0 0 0-3.6 3.6v8.4A3.6 3.6 0 0 0 6 19.2h5.048a6.6 6.6 0 0 1-.221-1.2H6a2.4 2.4 0 0 1-2.4-2.4V7.2A2.4 2.4 0 0 1 6 4.8h7.8v7.067a6.6 6.6 0 0 1 1.2-.617V4.8h3a2.4 2.4 0 0 1 2.4 2.4v4.32q.647.33 1.2.789zm1.2 10.2a5.4 5.4 0 1 1-10.8 0 5.4 5.4 0 0 1 10.8 0M18 15a.6.6 0 1 0-1.2 0v1.8H15a.6.6 0 1 0 0 1.2h1.8v1.8a.6.6 0 0 0 1.2 0V18h1.8a.6.6 0 0 0 0-1.2H18z"/><path fill="#04071E" fill-rule="evenodd" d="M2.25 7.2A3.75 3.75 0 0 1 6 3.45h12a3.75 3.75 0 0 1 3.75 3.75v5.427l-.245-.203a6.5 6.5 0 0 0-1.173-.77l-.082-.043V7.2A2.25 2.25 0 0 0 18 4.95h-2.85v6.402l-.095.038a6.4 6.4 0 0 0-1.173.603l-.232.151V4.95H6A2.25 2.25 0 0 0 3.75 7.2v8.4A2.25 2.25 0 0 0 6 17.85h4.964l.012.136q.056.605.217 1.173l.054.191H6a3.75 3.75 0 0 1-3.75-3.75zM6 3.75A3.45 3.45 0 0 0 2.55 7.2v8.4A3.45 3.45 0 0 0 6 19.05h4.853a7 7 0 0 1-.162-.9H6a2.55 2.55 0 0 1-2.55-2.55V7.2A2.55 2.55 0 0 1 6 4.65h7.95v6.947q.431-.256.9-.449V4.65H18a2.55 2.55 0 0 1 2.55 2.55v4.228q.474.251.9.571V7.2A3.45 3.45 0 0 0 18 3.751zm11.4 8.4a5.25 5.25 0 1 0 0 10.5 5.25 5.25 0 0 0 0-10.5m-5.55 5.25a5.55 5.55 0 1 1 11.1 0 5.55 5.55 0 0 1-11.1 0m4.8-2.4a.75.75 0 1 1 1.5 0v1.65h1.65a.75.75 0 1 1 0 1.5h-1.65v1.65a.75.75 0 0 1-1.5 0v-1.65H15a.75.75 0 0 1 0-1.5h1.65zm.75-.45a.45.45 0 0 0-.45.45v1.95H15a.45.45 0 1 0 0 .9h1.95v1.95a.45.45 0 0 0 .9 0v-1.95h1.95a.45.45 0 0 0 0-.9h-1.95V15a.45.45 0 0 0-.45-.45" clip-rule="evenodd"/></svg>