<svg xmlns="http://www.w3.org/2000/svg" width="24" height="24" fill="none"><path fill="#04071E" d="m12.6 10.59 1.049 1.2a.6.6 0 1 0 .903-.791l-2.1-2.4a.6.6 0 0 0-.903 0l-2.1 2.4a.6.6 0 0 0 .903.79l1.048-1.198v4.415a.6.6 0 0 0 1.2 0zM4.8 19.2a2.4 2.4 0 0 1-2.4-2.4V7.2a2.4 2.4 0 0 1 2.4-2.4h14.4a2.4 2.4 0 0 1 2.4 2.4v9.6a2.4 2.4 0 0 1-2.4 2.4zm-1.2-2.4A1.2 1.2 0 0 0 4.8 18h14.4a1.2 1.2 0 0 0 1.2-1.2v-6h-4.6a1.8 1.8 0 0 0-.345-.591l-.533-.61H20.4V7.2A1.2 1.2 0 0 0 19.2 6H4.8a1.2 1.2 0 0 0-1.2 1.2v2.4h5.478l-.533.61c-.156.178-.27.38-.345.59H3.6z"/><path fill="#04071E" fill-rule="evenodd" d="M4.8 4.95A2.25 2.25 0 0 0 2.55 7.2v9.6a2.25 2.25 0 0 0 2.25 2.25h14.4a2.25 2.25 0 0 0 2.25-2.25V7.2a2.25 2.25 0 0 0-2.25-2.25zM2.25 7.2A2.55 2.55 0 0 1 4.8 4.65h14.4a2.55 2.55 0 0 1 2.55 2.55v9.6a2.55 2.55 0 0 1-2.55 2.55H4.8a2.55 2.55 0 0 1-2.55-2.55zm1.2 0c0-.746.604-1.35 1.35-1.35h14.4c.746 0 1.35.604 1.35 1.35v2.55h-5.298l.316.36c.144.165.256.348.335.54h4.647v6.15a1.35 1.35 0 0 1-1.35 1.35H4.8a1.35 1.35 0 0 1-1.35-1.35v-6.15h4.647c.08-.192.191-.375.335-.54l.316-.36H3.45zM4.8 6.15c-.58 0-1.05.47-1.05 1.05v2.25h5.659l-.75.857a1.6 1.6 0 0 0-.317.542l-.035.1H3.75v5.85c0 .58.47 1.05 1.05 1.05h14.4c.58 0 1.05-.47 1.05-1.05v-5.85h-4.557l-.035-.1a1.6 1.6 0 0 0-.316-.542l-.75-.857h5.658V7.2c0-.58-.47-1.05-1.05-1.05zm6.636 2.35a.75.75 0 0 1 1.128 0l2.1 2.4a.75.75 0 1 1-1.128.988l-.786-.898v4.016a.75.75 0 0 1-1.5 0V10.99l-.786.898a.75.75 0 0 1-1.128-.988zm.564.044a.45.45 0 0 0-.339.154l-2.1 2.4a.45.45 0 0 0 .678.592l1.311-1.498v4.814a.45.45 0 0 0 .9 0v-4.814l1.311 1.498a.45.45 0 0 0 .678-.592l-2.1-2.4A.45.45 0 0 0 12 8.544" clip-rule="evenodd"/></svg>