<svg xmlns="http://www.w3.org/2000/svg" width="24" height="24" fill="none"><path fill="#04071E" d="m8.185 12.6 1.198 1.048a.6.6 0 1 1-.79.904l-2.4-2.1a.6.6 0 0 1 0-.904l2.4-2.1a.6.6 0 1 1 .79.903L8.185 11.4H12.6a.6.6 0 1 1 0 1.2zM21.6 16.8a2.4 2.4 0 0 1-2.4 2.4H4.8a2.4 2.4 0 0 1-2.4-2.4V7.2a2.4 2.4 0 0 1 2.4-2.4h14.4a2.4 2.4 0 0 1 2.4 2.4zM19.2 18a1.2 1.2 0 0 0 1.2-1.2V7.2A1.2 1.2 0 0 0 19.2 6h-3.6v12zm-4.8 0V6H4.8a1.2 1.2 0 0 0-1.2 1.2v9.6A1.2 1.2 0 0 0 4.8 18z"/><path fill="#04071E" fill-rule="evenodd" d="M4.8 4.95A2.25 2.25 0 0 0 2.55 7.2v9.6a2.25 2.25 0 0 0 2.25 2.25h14.4a2.25 2.25 0 0 0 2.25-2.25V7.2a2.25 2.25 0 0 0-2.25-2.25zM2.25 7.2A2.55 2.55 0 0 1 4.8 4.65h14.4a2.55 2.55 0 0 1 2.55 2.55v9.6a2.55 2.55 0 0 1-2.55 2.55H4.8a2.55 2.55 0 0 1-2.55-2.55zm1.2 0c0-.746.604-1.35 1.35-1.35h9.6a.15.15 0 0 1 .15.15v12a.15.15 0 0 1-.15.15H4.8a1.35 1.35 0 0 1-1.35-1.35zM4.8 6.15c-.58 0-1.05.47-1.05 1.05v9.6c0 .58.47 1.05 1.05 1.05h9.45V6.15zM15.45 6a.15.15 0 0 1 .15-.15h3.6c.746 0 1.35.604 1.35 1.35v9.6a1.35 1.35 0 0 1-1.35 1.35h-3.6a.15.15 0 0 1-.15-.15zm.3.15v11.7h3.45c.58 0 1.05-.47 1.05-1.05V7.2c0-.58-.47-1.05-1.05-1.05zM9.327 9.604a.45.45 0 0 0-.635-.043l-2.4 2.1a.45.45 0 0 0 0 .678l2.4 2.1a.45.45 0 0 0 .593-.678l-1.199-1.048a.15.15 0 0 1 .1-.263H12.6a.45.45 0 0 0 0-.9H8.185a.15.15 0 0 1-.099-.263l1.199-1.048a.45.45 0 0 0 .042-.635m-.833-.269a.75.75 0 0 1 .988 1.13l-.898.785H12.6a.75.75 0 0 1 0 1.5H8.584l.898.786a.75.75 0 1 1-.988 1.128l-2.4-2.1a.75.75 0 0 1 0-1.129z" clip-rule="evenodd"/></svg>