<svg xmlns="http://www.w3.org/2000/svg" width="24" height="24" fill="none"><path fill="#04071E" d="m12.6 10.59 1.049 1.2a.6.6 0 1 0 .903-.791l-2.1-2.4a.6.6 0 0 0-.903 0l-2.1 2.4a.6.6 0 0 0 .903.79l1.048-1.198v4.415a.6.6 0 0 0 1.2 0zM4.8 4.8a2.4 2.4 0 0 0-2.4 2.4v9.6a2.4 2.4 0 0 0 2.4 2.4h14.4a2.4 2.4 0 0 0 2.4-2.4V7.2a2.4 2.4 0 0 0-2.4-2.4zM3.6 7.2A1.2 1.2 0 0 1 4.8 6h14.4a1.2 1.2 0 0 1 1.2 1.2v6h-6.6v1.2h6.6v2.4a1.2 1.2 0 0 1-1.2 1.2H4.8a1.2 1.2 0 0 1-1.2-1.2v-2.4h6.6v-1.2H3.6z"/><path fill="#04071E" fill-rule="evenodd" d="M2.25 7.2A2.55 2.55 0 0 1 4.8 4.65h14.4a2.55 2.55 0 0 1 2.55 2.55v9.6a2.55 2.55 0 0 1-2.55 2.55H4.8a2.55 2.55 0 0 1-2.55-2.55zM4.8 4.95A2.25 2.25 0 0 0 2.55 7.2v9.6a2.25 2.25 0 0 0 2.25 2.25h14.4a2.25 2.25 0 0 0 2.25-2.25V7.2a2.25 2.25 0 0 0-2.25-2.25zm0 1.2c-.58 0-1.05.47-1.05 1.05v5.85h6.6v1.5h-6.6v2.25c0 .58.47 1.05 1.05 1.05h14.4c.58 0 1.05-.47 1.05-1.05v-2.25h-6.6v-1.5h6.6V7.2c0-.58-.47-1.05-1.05-1.05zM3.45 7.2c0-.746.604-1.35 1.35-1.35h14.4c.746 0 1.35.604 1.35 1.35v6.15h-6.6v.9h6.6v2.55a1.35 1.35 0 0 1-1.35 1.35H4.8a1.35 1.35 0 0 1-1.35-1.35v-2.55h6.6v-.9h-6.6zm7.986 1.3a.75.75 0 0 1 1.128 0l2.1 2.4a.75.75 0 1 1-1.128.988l-.786-.898v4.016a.75.75 0 0 1-1.5 0V10.99l-.786.898a.75.75 0 0 1-1.128-.988zm.564.044a.45.45 0 0 0-.339.154l-2.1 2.4a.45.45 0 0 0 .678.592l1.311-1.498v4.814a.45.45 0 0 0 .9 0v-4.814l1.311 1.498a.45.45 0 0 0 .678-.592l-2.1-2.4A.45.45 0 0 0 12 8.544" clip-rule="evenodd"/></svg>