<svg xmlns="http://www.w3.org/2000/svg" width="24" height="24" fill="none"><path fill="#04071E" d="M6 19.2a3.6 3.6 0 0 1-3.6-3.6V7.2A3.6 3.6 0 0 1 6 3.6h12a3.6 3.6 0 0 1 3.6 3.6v8.4a3.6 3.6 0 0 1-3.6 3.6zm-2.4-3.6A2.4 2.4 0 0 0 6 18h12a2.4 2.4 0 0 0 2.4-2.4v-6H3.6zm0-7.2h16.8V7.2A2.4 2.4 0 0 0 18 4.8H6a2.4 2.4 0 0 0-2.4 2.4z"/><path fill="#04071E" fill-rule="evenodd" d="M2.25 15.6A3.75 3.75 0 0 0 6 19.35h12a3.75 3.75 0 0 0 3.75-3.75V7.2A3.75 3.75 0 0 0 18 3.45H6A3.75 3.75 0 0 0 2.25 7.2zM6 19.05a3.45 3.45 0 0 1-3.45-3.45V7.2A3.45 3.45 0 0 1 6 3.75h12a3.45 3.45 0 0 1 3.45 3.45v8.4A3.45 3.45 0 0 1 18 19.05zm0-1.2a2.25 2.25 0 0 1-2.25-2.25V9.75h16.5v5.85A2.25 2.25 0 0 1 18 17.85zM3.45 15.6A2.55 2.55 0 0 0 6 18.15h12a2.55 2.55 0 0 0 2.55-2.55V9.45H3.45zm0-7.05h17.1V7.2A2.55 2.55 0 0 0 18 4.65H6A2.55 2.55 0 0 0 3.45 7.2zm.3-.3V7.2A2.25 2.25 0 0 1 6 4.95h12a2.25 2.25 0 0 1 2.25 2.25v1.05z" clip-rule="evenodd"/></svg>