<svg xmlns="http://www.w3.org/2000/svg" width="24" height="24" fill="none"><path fill="#04071E" d="M12 12.75a.75.75 0 1 0 0-1.5.75.75 0 0 0 0 1.5M10.25 12a.75.75 0 1 1-1.5 0 .75.75 0 0 1 1.5 0m4.25.75a.75.75 0 1 0 0-1.5.75.75 0 0 0 0 1.5m-1.75 1.75a.75.75 0 1 1-1.5 0 .75.75 0 0 1 1.5 0M12 10.25a.75.75 0 1 0 0-1.5.75.75 0 0 0 0 1.5m-8.762 8.048a3.25 3.25 0 0 1 0-4.596L13.702 3.238a3.25 3.25 0 0 1 4.596 0l2.465 2.464a3.25 3.25 0 0 1 0 4.596L10.298 20.763a3.25 3.25 0 0 1-4.596 0zm1.06-3.535a1.75 1.75 0 0 0 0 2.475l2.465 2.464a1.75 1.75 0 0 0 2.475 0L10.939 18 6 13.061zM16.94 12 12 7.061 7.062 12 12 16.94zM18 10.94l1.703-1.702a1.75 1.75 0 0 0 0-2.475l-2.465-2.465a1.75 1.75 0 0 0-2.474 0L13.06 6zm-7.767-5.647-.995-.995a1.75 1.75 0 0 0-2.475 0L4.298 6.763a1.75 1.75 0 0 0 0 2.475l.995.995-1.06 1.06-.996-.995a3.25 3.25 0 0 1 0-4.596l2.465-2.464a3.25 3.25 0 0 1 4.596 0l.995.995zm2.475 14.475.995.995a3.25 3.25 0 0 0 4.596 0l2.464-2.465a3.25 3.25 0 0 0 0-4.596l-.994-.995-1.061 1.061.995.995a1.75 1.75 0 0 1 0 2.475l-2.465 2.464a1.75 1.75 0 0 1-2.475 0l-.994-.995z"/></svg>