<svg xmlns="http://www.w3.org/2000/svg" width="24" height="24" fill="none"><path fill="#04071E" d="M3.6 4.449 2.576 3.424a.6.6 0 1 1 .848-.848l18 18a.6.6 0 0 1-.848.848l-.54-.54c-.328.435-.85.716-1.436.716h-2.4a1.8 1.8 0 0 1-1.8-1.8v-4.552l-4.8-4.8V19.8a1.8 1.8 0 0 1-1.8 1.8H5.4a1.8 1.8 0 0 1-1.8-1.8zm4.8 4.8-3.6-3.6V19.8a.6.6 0 0 0 .6.6h2.4a.6.6 0 0 0 .6-.6zm7.2 7.2V19.8a.6.6 0 0 0 .6.6h2.4a.6.6 0 0 0 .562-.39zM8.4 4.2v1.654l1.2 1.2V4.2a1.8 1.8 0 0 0-1.8-1.8H5.4q-.21 0-.408.046L6.146 3.6H7.8a.6.6 0 0 1 .6.6m6 7.654 1.2 1.2V4.2a.6.6 0 0 1 .6-.6h2.4a.6.6 0 0 1 .6.6v12.454l1.2 1.2V4.2a1.8 1.8 0 0 0-1.8-1.8h-2.4a1.8 1.8 0 0 0-1.8 1.8z"/><path fill="#04071E" fill-rule="evenodd" d="M4.958 2.3q.213-.05.442-.05h2.4A1.95 1.95 0 0 1 9.75 4.2v3.217l-1.5-1.5V4.2a.45.45 0 0 0-.45-.45H6.083L4.695 2.361zm.352.252.898.898H7.8a.75.75 0 0 1 .75.75v1.592l.9.9V4.2A1.65 1.65 0 0 0 7.8 2.55H5.4q-.045 0-.09.002M14.25 4.2a1.95 1.95 0 0 1 1.95-1.95h2.4a1.95 1.95 0 0 1 1.95 1.95v14.017l-1.5-1.5V4.2a.45.45 0 0 0-.45-.45h-2.4a.45.45 0 0 0-.45.45v9.217l-1.5-1.5zm1.95-1.65a1.65 1.65 0 0 0-1.65 1.65v7.592l.9.9V4.2a.75.75 0 0 1 .75-.75h2.4a.75.75 0 0 1 .75.75v12.392l.9.9V4.2a1.65 1.65 0 0 0-1.65-1.65zm-12.882.132a.45.45 0 0 0-.636.636L3.75 4.386V19.8c0 .911.739 1.65 1.65 1.65h2.4a1.65 1.65 0 0 0 1.65-1.65v-9.714l5.1 5.1V19.8c0 .911.739 1.65 1.65 1.65h2.4c.538 0 1.015-.257 1.317-.656l.104-.137.66.661a.45.45 0 0 0 .637-.636zM2.47 2.47a.75.75 0 0 1 1.06 0l18 18a.75.75 0 1 1-1.06 1.06l-.423-.423a1.95 1.95 0 0 1-1.447.643h-2.4a1.95 1.95 0 0 1-1.95-1.95v-4.49l-4.5-4.5v8.99a1.95 1.95 0 0 1-1.95 1.95H5.4a1.95 1.95 0 0 1-1.95-1.95V4.51l-.98-.98a.75.75 0 0 1 0-1.06m2.18 2.816 3.9 3.9V19.8a.75.75 0 0 1-.75.75H5.4a.75.75 0 0 1-.75-.75zm.3.725V19.8c0 .248.201.45.45.45h2.4a.45.45 0 0 0 .45-.45V9.31zm10.5 10.075 3.886 3.887-.034.09a.75.75 0 0 1-.702.487h-2.4a.75.75 0 0 1-.75-.75zm.3.725V19.8c0 .248.201.45.45.45h2.4c.16 0 .3-.083.38-.21z" clip-rule="evenodd"/></svg>