<svg xmlns="http://www.w3.org/2000/svg" width="24" height="24" fill="none"><path fill="#04071E" d="M5.4 2.4a1.8 1.8 0 0 0-1.8 1.8v15.6a1.8 1.8 0 0 0 1.8 1.8h2.4a1.8 1.8 0 0 0 1.8-1.8V4.2a1.8 1.8 0 0 0-1.8-1.8zm0 1.2h2.4a.6.6 0 0 1 .6.6v15.6a.6.6 0 0 1-.6.6H5.4a.6.6 0 0 1-.6-.6V4.2a.6.6 0 0 1 .6-.6m10.8-1.2a1.8 1.8 0 0 0-1.8 1.8v7.32q.572-.293 1.2-.472V4.2a.6.6 0 0 1 .6-.6h2.4a.6.6 0 0 1 .6.6v6.848q.628.179 1.2.472V4.2a1.8 1.8 0 0 0-1.8-1.8zm-1.722 11.33a2.4 2.4 0 0 1-1.717 2.974l-.553.141a5.6 5.6 0 0 0 .012 1.22l.42.1a2.4 2.4 0 0 1 1.747 3.022l-.152.507q.465.367 1.002.622l.39-.413a2.4 2.4 0 0 1 3.491.002l.405.43q.527-.245.986-.598l-.187-.668a2.4 2.4 0 0 1 1.717-2.973l.552-.142a5.7 5.7 0 0 0-.012-1.22l-.418-.099a2.4 2.4 0 0 1-1.748-3.022l.152-.507a5.2 5.2 0 0 0-1.002-.622l-.39.413a2.4 2.4 0 0 1-3.491-.002l-.405-.43q-.527.245-.986.597zM17.4 18.6a1.2 1.2 0 1 1 0-2.4 1.2 1.2 0 0 1 0 2.4"/><path fill="#04071E" fill-rule="evenodd" d="M3.45 4.2A1.95 1.95 0 0 1 5.4 2.25h2.4A1.95 1.95 0 0 1 9.75 4.2v15.6a1.95 1.95 0 0 1-1.95 1.95H5.4a1.95 1.95 0 0 1-1.95-1.95zM5.4 2.55A1.65 1.65 0 0 0 3.75 4.2v15.6c0 .911.739 1.65 1.65 1.65h2.4a1.65 1.65 0 0 0 1.65-1.65V4.2A1.65 1.65 0 0 0 7.8 2.55zm8.85 1.65a1.95 1.95 0 0 1 1.95-1.95h2.4a1.95 1.95 0 0 1 1.95 1.95v7.565l-.218-.112a6.4 6.4 0 0 0-1.173-.46l-.109-.031V4.2a.45.45 0 0 0-.45-.45h-2.4a.45.45 0 0 0-.45.45v6.962l-.11.03q-.613.175-1.172.461l-.218.112zm1.95-1.65a1.65 1.65 0 0 0-1.65 1.65v7.08q.435-.203.9-.344V4.2a.75.75 0 0 1 .75-.75h2.4a.75.75 0 0 1 .75.75v6.736q.465.14.9.343V4.2a1.65 1.65 0 0 0-1.65-1.65zM5.4 3.75a.45.45 0 0 0-.45.45v15.6c0 .248.201.45.45.45h2.4a.45.45 0 0 0 .45-.45V4.2a.45.45 0 0 0-.45-.45zm-.75.45a.75.75 0 0 1 .75-.75h2.4a.75.75 0 0 1 .75.75v15.6a.75.75 0 0 1-.75.75H5.4a.75.75 0 0 1-.75-.75zm10.662 8.084.48.508a2.25 2.25 0 0 0 3.272.002l.465-.492.098.047q.553.26 1.03.64l.08.062-.18.605a2.25 2.25 0 0 0 1.638 2.833l.521.124.012.104a5.8 5.8 0 0 1 .013 1.252l-.01.105-.655.167a2.25 2.25 0 0 0-1.61 2.788l.215.765-.08.062a5.3 5.3 0 0 1-1.015.614l-.098.046-.479-.508a2.25 2.25 0 0 0-3.273-.002l-.465.492-.098-.047a5.3 5.3 0 0 1-1.03-.639l-.08-.063.18-.605a2.25 2.25 0 0 0-1.638-2.834l-.521-.123-.013-.104a5.8 5.8 0 0 1-.012-1.252l.01-.105.655-.167a2.25 2.25 0 0 0 1.61-2.788l-.215-.766.08-.062a5.3 5.3 0 0 1 1.015-.614zm-.85.836.16.57a2.55 2.55 0 0 1-1.823 3.16l-.45.114a5.5 5.5 0 0 0 .009.98l.316.074a2.55 2.55 0 0 1 1.857 3.212l-.123.409q.375.283.795.494l.315-.333a2.55 2.55 0 0 1 3.71.002l.33.35q.412-.201.78-.473l-.16-.57a2.55 2.55 0 0 1 1.824-3.159l.45-.115a5.6 5.6 0 0 0-.01-.979l-.316-.075a2.55 2.55 0 0 1-1.856-3.211l.122-.409a5 5 0 0 0-.796-.494l-.314.333a2.55 2.55 0 0 1-3.71-.002l-.33-.35a5 5 0 0 0-.78.473m2.938 3.23a1.05 1.05 0 1 0 0 2.1 1.05 1.05 0 0 0 0-2.1m-1.35 1.05a1.35 1.35 0 1 1 2.7 0 1.35 1.35 0 0 1-2.7 0" clip-rule="evenodd"/></svg>