<svg xmlns="http://www.w3.org/2000/svg" width="24" height="24" fill="none"><path fill="#04071E" d="M20.952 3.047a3.58 3.58 0 0 0-5.06 0L3.94 15a3.1 3.1 0 0 0-.825 1.476L2.02 21.078a.75.75 0 0 0 .904.903l4.601-1.095a3.1 3.1 0 0 0 1.477-.826L19 10.061a1.75 1.75 0 0 1-.006 2.47l-1.783 1.783a.75.75 0 0 0 1.06 1.06l1.784-1.783A3.25 3.25 0 0 0 20.06 9l.892-.892a3.58 3.58 0 0 0 0-5.06m-4 1.061a2.078 2.078 0 1 1 2.94 2.94l-11.95 11.95c-.211.211-.475.359-.764.427l-3.416.814.813-3.416c.069-.29.217-.553.427-.763z"/></svg>