<svg xmlns="http://www.w3.org/2000/svg" width="24" height="24" fill="none"><path fill="#04071E" d="M15.891 3.048a3.578 3.578 0 1 1 5.061 5.06l-3.045 3.045a6.5 6.5 0 0 0-1.994-.127l3.978-3.979a2.078 2.078 0 0 0-2.94-2.939L5.002 16.06c-.21.21-.357.474-.426.763l-.813 3.416 3.416-.814c.289-.068.553-.216.763-.426l2.085-2.085a6.6 6.6 0 0 0 .127 1.994L9.002 20.06a3.1 3.1 0 0 1-1.477.826L2.924 21.98a.75.75 0 0 1-.904-.903l1.096-4.602c.133-.559.419-1.07.825-1.476zM22 17.5a5.5 5.5 0 1 0-11 0 5.5 5.5 0 0 0 11 0m-9.5 0a4 4 0 0 1 6.248-3.309l-5.557 5.557A4 4 0 0 1 12.5 17.5m4 4a4 4 0 0 1-2.248-.691l5.557-5.557A4 4 0 0 1 16.5 21.5"/></svg>