<svg xmlns="http://www.w3.org/2000/svg" width="24" height="24" fill="none"><path fill="#04071E" d="M10.07 1.978a3 3 0 0 1 4.043.012l6.517 5.977a3 3 0 0 1 .816 3.168l-2.432 7.222A3 3 0 0 1 16.17 20.4H7.979a3 3 0 0 1-2.821-1.98l-2.58-7.138a3 3 0 0 1 .807-3.241zm3.232.896a1.8 1.8 0 0 0-2.426-.007L4.191 8.93a1.8 1.8 0 0 0-.484 1.945l2.58 7.137A1.8 1.8 0 0 0 7.978 19.2h8.192a1.8 1.8 0 0 0 1.706-1.226l2.431-7.222a1.8 1.8 0 0 0-.489-1.9z"/><path fill="#04071E" fill-rule="evenodd" d="M14.012 2.1a2.85 2.85 0 0 0-3.841-.01L3.486 8.151a2.85 2.85 0 0 0-.766 3.08l2.579 7.136a2.85 2.85 0 0 0 2.68 1.882h8.192a2.85 2.85 0 0 0 2.7-1.94l2.432-7.223a2.85 2.85 0 0 0-.774-3.01zm-4.043-.233a3.15 3.15 0 0 1 4.246.012l6.517 5.977a3.15 3.15 0 0 1 .856 3.327l-2.432 7.222a3.15 3.15 0 0 1-2.985 2.145H7.979a3.15 3.15 0 0 1-2.962-2.08l-2.58-7.136a3.15 3.15 0 0 1 .847-3.404zm.807.889a1.95 1.95 0 0 1 2.627.007l6.518 5.978a1.95 1.95 0 0 1 .53 2.059l-2.432 7.222a1.95 1.95 0 0 1-1.848 1.328H7.979a1.95 1.95 0 0 1-1.834-1.288l-2.579-7.136a1.95 1.95 0 0 1 .524-2.108zm2.425.229a1.65 1.65 0 0 0-2.224-.007L4.292 9.041a1.65 1.65 0 0 0-.444 1.783l2.58 7.137a1.65 1.65 0 0 0 1.551 1.089h8.192a1.65 1.65 0 0 0 1.563-1.124l2.432-7.222a1.65 1.65 0 0 0-.448-1.742z" clip-rule="evenodd"/></svg>