<svg xmlns="http://www.w3.org/2000/svg" width="24" height="24" fill="none"><path fill="#04071E" d="M8.1 4.2a2.7 2.7 0 1 0 0 5.4 2.7 2.7 0 0 0 0-5.4M4.2 6.9a3.9 3.9 0 1 1 7.8 0 3.9 3.9 0 0 1-7.8 0m13.2 3.9a3 3 0 1 1 0-6 3 3 0 0 1 0 6m-3.912 1.717A2.4 2.4 0 0 0 12 12H4.2a2.4 2.4 0 0 0-2.4 2.4v.1a2 2 0 0 0 .014.211 4.739 4.739 0 0 0 .805 2.167c.841 1.218 2.465 2.322 5.48 2.322 1.065 0 1.956-.137 2.7-.369v-1.27c-.676.265-1.555.44-2.7.44-2.683 0-3.91-.96-4.493-1.805a3.54 3.54 0 0 1-.598-1.603l-.007-.1-.001-.02V14.4a1.2 1.2 0 0 1 1.2-1.2H12c.254 0 .49.08.684.214q.272-.108.566-.164.073-.387.238-.733M17.4 6a1.8 1.8 0 1 0 0 3.6 1.8 1.8 0 0 0 0-3.6m-3 8.4v-.6a1.8 1.8 0 0 1 1.8-1.8h2.4a1.8 1.8 0 0 1 1.8 1.8v.6h.6a1.8 1.8 0 0 1 1.8 1.8V18h-2.4v-.6a.6.6 0 1 0-1.2 0v.6h-3.6v-.6a.6.6 0 1 0-1.2 0v.6H12v-1.8a1.8 1.8 0 0 1 1.8-1.8zm1.2-.6v.6h3.6v-.6a.6.6 0 0 0-.6-.6h-2.4a.6.6 0 0 0-.6.6m4.8 5.4h2.4V21a1.8 1.8 0 0 1-1.8 1.8h-7.2A1.8 1.8 0 0 1 12 21v-1.8h2.4v.6a.6.6 0 1 0 1.2 0v-.6h3.6v.6a.6.6 0 1 0 1.2 0z"/><path fill="#04071E" fill-rule="evenodd" d="M8.1 3.15a3.75 3.75 0 1 0 0 7.5 3.75 3.75 0 0 0 0-7.5M4.05 6.9a4.05 4.05 0 1 1 8.1 0 4.05 4.05 0 0 1-8.1 0m1.2 0a2.85 2.85 0 1 1 5.7 0 2.85 2.85 0 0 1-5.7 0M8.1 4.35a2.55 2.55 0 1 0 0 5.1 2.55 2.55 0 0 0 0-5.1m9.3.6a2.85 2.85 0 1 0 0 5.7 2.85 2.85 0 0 0 0-5.7M14.25 7.8a3.15 3.15 0 1 1 6.3 0 3.15 3.15 0 0 1-6.3 0m1.2 0a1.95 1.95 0 1 1 3.9 0 1.95 1.95 0 0 1-3.9 0m1.95-1.65a1.65 1.65 0 1 0 0 3.3 1.65 1.65 0 0 0 0-3.3M1.65 14.4a2.55 2.55 0 0 1 2.55-2.55H12a2.54 2.54 0 0 1 1.58.549l.094.074-.05.108q-.157.328-.226.697l-.02.101-.1.019a3 3 0 0 0-.538.156l-.075.03-.066-.046a1.04 1.04 0 0 0-.6-.188H4.2c-.579 0-1.05.47-1.05 1.05v.07l.002.017q0 .028.006.092a3.388 3.388 0 0 0 .572 1.533c.552.798 1.728 1.738 4.37 1.738 1.13 0 1.99-.172 2.646-.429l.205-.08v1.6l-.106.033c-.76.237-1.667.376-2.744.376-3.057 0-4.731-1.122-5.605-2.386a4.9 4.9 0 0 1-.83-2.238 3 3 0 0 1-.015-.222V14.4m2.55-2.25a2.25 2.25 0 0 0-2.25 2.25v.097a2 2 0 0 0 .013.2 4.588 4.588 0 0 0 .779 2.097c.81 1.17 2.383 2.256 5.358 2.256 1.001 0 1.843-.123 2.55-.33v-.944c-.666.23-1.502.374-2.55.374-2.726 0-4.001-.977-4.617-1.868a3.7 3.7 0 0 1-.624-1.674l-.008-.107v-.002l-.001-.022V14.4c0-.745.604-1.35 1.35-1.35H12c.257 0 .497.072.702.197q.205-.075.42-.124a3 3 0 0 1 .18-.558A2.24 2.24 0 0 0 12 12.15zm12 0a1.65 1.65 0 0 0-1.65 1.65v.75h-.75a1.65 1.65 0 0 0-1.65 1.65v1.65h2.1v-.45a.75.75 0 0 1 1.5 0v.45h3.3v-.45a.75.75 0 0 1 1.5 0v.45h2.1V16.2A1.65 1.65 0 0 0 21 14.55h-.75v-.75a1.65 1.65 0 0 0-1.65-1.65zm-1.95 1.65a1.95 1.95 0 0 1 1.95-1.95h2.4a1.95 1.95 0 0 1 1.95 1.95v.45H21a1.95 1.95 0 0 1 1.95 1.95v1.95h-2.7v-.75a.45.45 0 0 0-.9 0v.75h-3.9v-.75a.45.45 0 0 0-.9 0v.75h-2.7V16.2a1.95 1.95 0 0 1 1.95-1.95h.45zm1.2 0a.75.75 0 0 1 .75-.75h2.4a.75.75 0 0 1 .75.75v.75h-3.9zm.75-.45a.45.45 0 0 0-.45.45v.45h3.3v-.45a.45.45 0 0 0-.45-.45zm-4.35 5.7h2.7v.75a.45.45 0 0 0 .9 0v-.75h3.9v.75a.45.45 0 0 0 .9 0v-.75h2.7V21A1.95 1.95 0 0 1 21 22.95h-7.2A1.95 1.95 0 0 1 11.85 21zm.3.3V21c0 .911.739 1.65 1.65 1.65H21A1.65 1.65 0 0 0 22.65 21v-1.65h-2.1v.45a.75.75 0 0 1-1.5 0v-.45h-3.3v.45a.75.75 0 0 1-1.5 0v-.45z" clip-rule="evenodd"/></svg>