<svg xmlns="http://www.w3.org/2000/svg" width="24" height="24" fill="none"><path fill="#04071E" d="M16.336 11a1.75 1.75 0 0 0-1.582-1H9.252a1.75 1.75 0 0 0-1.75 1.75v4.749A4.5 4.5 0 0 0 11 20.888v-1.56A3 3 0 0 1 9.002 16.5V11.75a.25.25 0 0 1 .25-.25h4.916c.448-.315.993-.5 1.582-.5zM22 13.738A2.75 2.75 0 0 0 19.25 11H17.4a2.7 2.7 0 0 0-.525-1h3.375c.966 0 1.75.784 1.75 1.75zM7.131 10H3.75A1.75 1.75 0 0 0 2 11.75v3.249a4 4 0 0 0 5.035 3.865 5.4 5.4 0 0 1-.453-1.432A2.501 2.501 0 0 1 3.5 15V11.75a.25.25 0 0 1 .25-.25h2.763a2.74 2.74 0 0 1 .618-1.5"/><path fill="#04071E" fill-rule="evenodd" d="M15 6a3 3 0 1 0-6 0 3 3 0 0 0 6 0m-4.5 0a1.5 1.5 0 1 1 3 0 1.5 1.5 0 0 1-3 0M21 6.5a2.5 2.5 0 1 0-5 0 2.5 2.5 0 0 0 5 0m-3.5 0a1 1 0 1 1 2 0 1 1 0 0 1-2 0M8 6.5a2.5 2.5 0 1 0-5 0 2.5 2.5 0 0 0 5 0m-3.5 0a1 1 0 1 1 2 0 1 1 0 0 1-2 0M14 14.75h-.5a1.5 1.5 0 0 0-1.5 1.5V18h3v-.5a.5.5 0 0 1 1 0v.5h3v-.5a.5.5 0 0 1 1 0v.5h3v-1.75a1.5 1.5 0 0 0-1.5-1.5H21v-1A1.75 1.75 0 0 0 19.25 12h-3.5A1.75 1.75 0 0 0 14 13.75zm1.5-1a.25.25 0 0 1 .25-.25h3.5a.25.25 0 0 1 .25.25v1h-4z" clip-rule="evenodd"/><path fill="#04071E" d="M19 19v.5a.5.5 0 0 0 1 0V19h3v2.5a1.5 1.5 0 0 1-1.5 1.5h-8a1.5 1.5 0 0 1-1.5-1.5V19h3v.5a.5.5 0 0 0 1 0V19z"/></svg>