<svg xmlns="http://www.w3.org/2000/svg" width="24" height="24" fill="none"><path fill="#04071E" d="M8.143 3.428a3.857 3.857 0 1 0 0 7.715 3.857 3.857 0 0 0 0-7.715M5.57 7.286a2.571 2.571 0 1 1 5.143 0 2.571 2.571 0 0 1-5.142 0m11.572-2.143a3 3 0 1 0 0 6 3 3 0 0 0 0-6m-1.714 3a1.714 1.714 0 1 1 3.428 0 1.714 1.714 0 0 1-3.428 0M3.643 12.857a1.93 1.93 0 0 0-1.929 1.929v.455a2 2 0 0 0 .015.207c.014.131.042.312.095.525.106.425.319.99.742 1.556.87 1.159 2.527 2.185 5.577 2.185 1.312 0 2.367-.19 3.212-.499a6.4 6.4 0 0 1-.203-1.301c-.716.304-1.688.514-3.01.514-2.735 0-3.97-.902-4.547-1.671-.3-.4-.45-.799-.524-1.096a2.6 2.6 0 0 1-.07-.436v-.439c0-.355.287-.643.642-.643h8.49c.283-.448.62-.859 1-1.223a2 2 0 0 0-.49-.063zM12 17.571a5.571 5.571 0 1 0 11.143 0 5.571 5.571 0 0 0-11.143 0m4.585-3.498a3.43 3.43 0 0 1 3.986 1.624V15a.429.429 0 0 1 .858 0v1.714a.43.43 0 0 1-.429.429h-1.714a.429.429 0 0 1 0-.857h.623a2.57 2.57 0 0 0-4.156-.747.429.429 0 0 1-.606-.606c.401-.401.895-.696 1.438-.86m1.973 6.996a3.43 3.43 0 0 1-3.986-1.624v.698a.429.429 0 0 1-.858 0v-1.715c0-.236.192-.428.429-.428h1.714a.429.429 0 0 1 0 .857h-.623a2.57 2.57 0 0 0 4.156.747.429.429 0 1 1 .606.606c-.401.4-.895.696-1.438.86"/></svg>