<svg xmlns="http://www.w3.org/2000/svg" width="24" height="24" fill="none"><path fill="#04071E" d="M12 2.4a4.8 4.8 0 1 0 0 9.6 4.8 4.8 0 0 0 0-9.6M8.4 7.2a3.6 3.6 0 1 1 7.2 0 3.6 3.6 0 0 1-7.2 0m-2.39 6a2.4 2.4 0 0 0-2.41 2.4c0 2.03 1 3.56 2.562 4.556C7.701 21.136 9.775 21.6 12 21.6q.435 0 .862-.024a2.4 2.4 0 0 1-1.757-1.204c-1.709-.108-3.2-.528-4.298-1.228C5.547 18.34 4.8 17.171 4.8 15.6c0-.664.538-1.2 1.21-1.2h4.79c0-.437.117-.847.321-1.2zM12 14.4a1.2 1.2 0 0 1 1.2-1.2h8.4a1.2 1.2 0 0 1 1.2 1.2v4.8a1.2 1.2 0 0 1-1.2 1.2h-2.4v1.2h.6a.6.6 0 1 1 0 1.2H15a.6.6 0 1 1 0-1.2h.6v-1.2h-2.4a1.2 1.2 0 0 1-1.2-1.2z"/><path fill="#04071E" fill-rule="evenodd" d="M7.05 7.2a4.95 4.95 0 1 1 9.9 0 4.95 4.95 0 0 1-9.9 0M12 2.55a4.65 4.65 0 1 0 0 9.3 4.65 4.65 0 0 0 0-9.3m0 1.2a3.45 3.45 0 1 0 0 6.9 3.45 3.45 0 0 0 0-6.9M8.25 7.2a3.75 3.75 0 1 1 7.5 0 3.75 3.75 0 0 1-7.5 0m-4.8 8.4c0-1.42 1.152-2.55 2.56-2.55h5.371l-.13.225c-.191.33-.3.715-.3 1.125v.15H6.01c-.591 0-1.06.47-1.06 1.05 0 1.513.714 2.638 1.937 3.418 1.07.682 2.535 1.098 4.227 1.204l.081.006.04.07c.336.6.939 1.03 1.646 1.13l-.012.298a16 16 0 0 1-.87.024c-2.243 0-4.348-.466-5.918-1.468-1.6-1.02-2.632-2.595-2.632-4.682m2.56-2.25c-1.244 0-2.26.998-2.26 2.25 0 1.972.968 3.457 2.493 4.43 1.506.96 3.549 1.42 5.756 1.42a2.56 2.56 0 0 1-.983-.933c-1.693-.117-3.182-.54-4.29-1.246-1.298-.828-2.076-2.043-2.076-3.671 0-.748.606-1.35 1.36-1.35h4.645c.018-.32.095-.623.22-.9zm7.19 0c-.58 0-1.05.47-1.05 1.05v4.8c0 .58.47 1.05 1.05 1.05h2.55v1.5H15a.45.45 0 0 0 0 .9h4.8a.45.45 0 0 0 0-.9h-.75v-1.5h2.55c.58 0 1.05-.47 1.05-1.05v-4.8c0-.58-.47-1.05-1.05-1.05zm-1.35 1.05c0-.746.605-1.35 1.35-1.35h8.4c.746 0 1.35.604 1.35 1.35v4.8a1.35 1.35 0 0 1-1.35 1.35h-2.25v.9h.45a.75.75 0 0 1 0 1.5H15a.75.75 0 0 1 0-1.5h.45v-.9H13.2a1.35 1.35 0 0 1-1.35-1.35z" clip-rule="evenodd"/></svg>