<svg xmlns="http://www.w3.org/2000/svg" width="24" height="24" fill="none"><path fill="#04071E" d="M12 2.4a4.8 4.8 0 1 0 0 9.6 4.8 4.8 0 0 0 0-9.6M8.4 7.2a3.6 3.6 0 1 1 7.2 0 3.6 3.6 0 0 1-7.2 0m-2.39 6a2.4 2.4 0 0 0-2.41 2.4c0 2.03 1 3.56 2.562 4.556 1.258.802 2.874 1.258 4.638 1.398V20.35c-1.58-.137-2.961-.548-3.993-1.206C5.547 18.34 4.8 17.171 4.8 15.6c0-.664.538-1.2 1.21-1.2h8.528q.096-.38.26-.742.109-.236.239-.458zm6.168 9.422q.18.178.422.178H15a.7.7 0 0 0 .328-.084.44.44 0 0 0 .178-.207q.057-.13.075-.28.02-.15.02-.31V21.6a13 13 0 0 0 .674-.028q.244-.02.366-.14a.55.55 0 0 0 .14-.357 9 9 0 0 0 .02-.675h.6a.55.55 0 0 0 .318-.084.6.6 0 0 0 .187-.207.8.8 0 0 0 .085-.28q.018-.16.019-.329a4 4 0 0 1-.01-.272v-.234q.31.112.628.16.319.046.647.046.75-.01 1.378-.29.629-.281 1.116-.788t.76-1.153q.27-.647.271-1.369 0-.75-.281-1.406a3.6 3.6 0 0 0-.769-1.144 3.6 3.6 0 0 0-1.144-.769A3.5 3.5 0 0 0 19.2 12a3.9 3.9 0 0 0-1.378.281 3.5 3.5 0 0 0-1.144.75q-.495.487-.787 1.125-.29.637-.29 1.369 0 .44.102.928l-3.525 3.525A.58.58 0 0 0 12 20.4v1.8q0 .244.178.422m8.56-8.56A.87.87 0 0 1 21 14.7q0 .375-.262.638a.87.87 0 0 1-.638.262.87.87 0 0 1-.637-.262.87.87 0 0 1-.263-.638q0-.375.263-.637a.87.87 0 0 1 .637-.263q.375 0 .638.262"/><path fill="#04071E" fill-rule="evenodd" d="M7.05 7.2a4.95 4.95 0 1 1 9.9 0 4.95 4.95 0 0 1-9.9 0M12 2.55a4.65 4.65 0 1 0 0 9.3 4.65 4.65 0 0 0 0-9.3m0 1.2a3.45 3.45 0 1 0 0 6.9 3.45 3.45 0 0 0 0-6.9M8.25 7.2a3.75 3.75 0 1 1 7.5 0 3.75 3.75 0 0 1-7.5 0m10.95 4.65q.78 0 1.466.293.681.293 1.19.8.51.51.8 1.192.295.686.294 1.465 0 .751-.283 1.427a3.9 3.9 0 0 1-.79 1.199 3.7 3.7 0 0 1-1.162.82q-.66.295-1.438.304h-.002q-.34 0-.668-.049a3 3 0 0 1-.457-.1v.027q0 .126.01.262v.01q0 .177-.02.346a.9.9 0 0 1-.102.334.74.74 0 0 1-.234.259.7.7 0 0 1-.404.111h-.45a8 8 0 0 1-.019.537.7.7 0 0 1-.184.45c-.116.116-.277.17-.46.184q-.206.017-.537.025v.173q0 .168-.02.328-.02.17-.086.322a.6.6 0 0 1-.237.274.83.83 0 0 1-.4.107H12.6a.73.73 0 0 1-.528-.222.73.73 0 0 1-.222-.528v-1.8q.001-.308.222-.528l3.468-3.468a4.6 4.6 0 0 1-.09-.879q0-.763.304-1.431.303-.663.82-1.17a3.6 3.6 0 0 1 1.192-.782q.673-.273 1.43-.292zm.002.3q-.704.019-1.324.27a3.3 3.3 0 0 0-1.095.718 3.6 3.6 0 0 0-.756 1.08q-.276.607-.277 1.307 0 .423.1.897a.15.15 0 0 1-.04.137l-3.526 3.525a.43.43 0 0 0-.134.316v1.8q-.001.18.134.316a.43.43 0 0 0 .316.134h2.397a.54.54 0 0 0 .253-.062.3.3 0 0 0 .119-.138 1 1 0 0 0 .064-.24 2 2 0 0 0 .017-.291V21.6a.15.15 0 0 1 .147-.15q.429-.009.667-.028c.141-.01.224-.05.27-.097.049-.048.087-.128.098-.262q.018-.224.018-.663a.15.15 0 0 1 .15-.15h.6c.11 0 .184-.024.234-.058a.44.44 0 0 0 .14-.154.6.6 0 0 0 .068-.227q.016-.148.018-.306a4 4 0 0 1-.01-.277v-.234a.15.15 0 0 1 .201-.141q.296.107.6.152.306.045.623.045.721-.01 1.318-.277.6-.27 1.069-.755.468-.486.729-1.107.26-.62.26-1.311 0-.72-.269-1.347a3.5 3.5 0 0 0-.737-1.097 3.5 3.5 0 0 0-1.097-.737 3.4 3.4 0 0 0-1.345-.269M3.45 15.6c0-1.42 1.152-2.55 2.56-2.55h9.027a.15.15 0 0 1 .13.226 5 5 0 0 0-.232.445q-.159.349-.252.716a.15.15 0 0 1-.145.113H6.011c-.591 0-1.06.47-1.06 1.05 0 1.513.714 2.638 1.937 3.418 1.005.64 2.36 1.047 3.926 1.182a.15.15 0 0 1 .137.154v1.2a.15.15 0 0 1-.163.149c-1.78-.14-3.422-.602-4.706-1.42-1.6-1.021-2.632-2.596-2.632-4.683m2.56-2.25c-1.244 0-2.26.998-2.26 2.25 0 1.972.968 3.457 2.493 4.43 1.193.76 2.723 1.207 4.407 1.36v-.904c-1.541-.15-2.896-.56-3.923-1.215-1.299-.828-2.077-2.043-2.077-3.671 0-.748.606-1.35 1.36-1.35h8.413a4.5 4.5 0 0 1 .36-.9zm14.09.6a.72.72 0 0 0-.531.219.72.72 0 0 0-.219.531q0 .314.219.531c.146.147.32.219.531.219q.313 0 .532-.219a.72.72 0 0 0 .218-.531.72.72 0 0 0-.218-.531.72.72 0 0 0-.532-.219m-.743.006c.203-.203.454-.306.743-.306q.436 0 .744.306c.203.204.306.455.306.744q0 .437-.306.744a1.02 1.02 0 0 1-.744.306q-.437 0-.743-.306a1.02 1.02 0 0 1-.307-.744q0-.436.307-.744" clip-rule="evenodd"/></svg>