<svg xmlns="http://www.w3.org/2000/svg" width="24" height="24" fill="none"><path fill="#04071E" d="M20 16.246a2.25 2.25 0 0 0-2.25-2.249H6.25A2.25 2.25 0 0 0 4 16.246v.578c0 .892.319 1.756.898 2.435 1.567 1.834 3.953 2.74 7.099 2.74 3.145 0 5.532-.906 7.101-2.74A3.75 3.75 0 0 0 20 16.822zm-13.751-.749H17.75c.413 0 .749.335.749.749v.575a2.25 2.25 0 0 1-.541 1.463c-1.257 1.468-3.224 2.214-5.962 2.214-2.739 0-4.705-.746-5.958-2.213a2.25 2.25 0 0 1-.539-1.461v-.578c0-.414.335-.749.749-.749m10.748-8.495a5 5 0 0 0-9.025-2.967A.8.8 0 0 0 7.748 4H5.25a.75.75 0 0 0-.75.75v5.5A2.75 2.75 0 0 0 7.25 13h.25v-.005h.01a.998.998 0 1 0-.786-1.611A1.25 1.25 0 0 1 6 10.249V10h.748c.38 0 .733-.122 1.02-.328A5 5 0 0 0 16.997 7m-10-.106a5 5 0 0 0 0 .212v1.14a.25.25 0 0 1-.25.25H6V5.5h.998zm1.5.194v-.177a3.5 3.5 0 1 1 0 .177"/></svg>