<svg xmlns="http://www.w3.org/2000/svg" width="24" height="24" fill="none"><path fill="#04071E" d="M7.2 7.2a4.8 4.8 0 0 1 9.6 0c0 2.638-2.18 4.8-4.8 4.8a4.8 4.8 0 0 1-4.8-4.8m6.271 6h-7.46A2.4 2.4 0 0 0 3.6 15.6c0 2.03 1 3.56 2.562 4.556.973.62 2.162 1.034 3.467 1.254a3 3 0 0 1 .075-1.205c-1.125-.202-2.112-.56-2.897-1.06C5.547 18.34 4.8 17.17 4.8 15.6c0-.664.537-1.2 1.21-1.2h7.183c.047-.407.14-.81.278-1.2M12 3.6a3.6 3.6 0 1 0 0 7.2 3.6 3.6 0 0 0 0-7.2m7.07 7.229c.44.05.566.577.252.89l-1.17 1.17a1.809 1.809 0 1 0 2.559 2.559l1.17-1.17c.313-.314.84-.188.89.252a4.222 4.222 0 0 1-5.611 4.468l-3.272 3.272a1.809 1.809 0 1 1-2.558-2.558l3.272-3.272a4.222 4.222 0 0 1 4.468-5.611"/><path fill="#04071E" fill-rule="evenodd" d="M13.716 13.027a.3.3 0 0 1 .038.274 5 5 0 0 0-.263 1.133.3.3 0 0 1-.298.266H6.01c-.509 0-.91.404-.91.9 0 1.456.684 2.536 1.868 3.291.745.475 1.693.822 2.789 1.019a.3.3 0 0 1 .236.373 2.7 2.7 0 0 0-.067 1.086.3.3 0 0 1-.347.337c-1.335-.225-2.563-.65-3.578-1.297C4.362 19.365 3.3 17.744 3.3 15.6c0-1.504 1.22-2.7 2.71-2.7h7.461a.3.3 0 0 1 .245.127M11.33 22.27a1.81 1.81 0 0 1 0-2.558l3.272-3.272a4.222 4.222 0 0 1 4.468-5.611c.44.05.566.577.252.89l-1.17 1.17a1.809 1.809 0 1 0 2.559 2.559l1.17-1.17c.313-.314.84-.188.89.252a4.222 4.222 0 0 1-5.611 4.468l-3.272 3.272a1.81 1.81 0 0 1-2.558 0m5.911-2.929a4.52 4.52 0 0 0 5.828-4.846.76.76 0 0 0-.567-.663.87.87 0 0 0-.833.233l-1.17 1.17a1.51 1.51 0 0 1-2.135-2.134l1.17-1.17a.87.87 0 0 0 .234-.833.76.76 0 0 0-.664-.567 4.52 4.52 0 0 0-4.846 5.828l-3.14 3.14a2.11 2.11 0 0 0 2.982 2.983zM6.9 7.201a5.1 5.1 0 0 1 10.2 0c0 2.803-2.314 5.1-5.1 5.1a5.1 5.1 0 0 1-5.1-5.1m2.42 14.153c-1.184-.23-2.262-.627-3.158-1.198C4.599 19.16 3.6 17.63 3.6 15.6c0-1.336 1.084-2.4 2.41-2.4h7.461a5.5 5.5 0 0 0-.278 1.2H6.01c-.673 0-1.21.536-1.21 1.2 0 1.57.747 2.74 2.007 3.544.716.457 1.6.794 2.602 1.004q.145.03.295.057a3 3 0 0 0-.075 1.205zM12 3.9a3.3 3.3 0 1 0 0 6.6 3.3 3.3 0 0 0 0-6.6m0-1.5a4.8 4.8 0 0 0 0 9.6c2.62 0 4.8-2.162 4.8-4.8A4.8 4.8 0 0 0 12 2.4M8.4 7.2a3.6 3.6 0 1 1 7.2 0 3.6 3.6 0 0 1-7.2 0" clip-rule="evenodd"/></svg>