<svg xmlns="http://www.w3.org/2000/svg" width="24" height="24" fill="none"><path fill="#04071E" d="M10.8 2.4a4.8 4.8 0 1 0 0 9.6 4.8 4.8 0 0 0 0-9.6M7.2 7.2a3.6 3.6 0 1 1 7.2 0 3.6 3.6 0 0 1-7.2 0m-2.39 6a2.4 2.4 0 0 0-2.41 2.4c0 2.03 1 3.56 2.562 4.556C6.5 21.136 8.574 21.6 10.8 21.6q.74 0 1.453-.069a6.6 6.6 0 0 1-.742-1.148q-.35.017-.711.017c-2.082 0-3.908-.437-5.193-1.256C4.347 18.34 3.6 17.171 3.6 15.6c0-.664.537-1.2 1.21-1.2h6.71q.33-.646.789-1.2zm7.952 3.504a2.4 2.4 0 0 0 1.717-2.974l-.188-.668q.459-.353.987-.597l.405.43a2.4 2.4 0 0 0 3.491.002l.39-.413q.537.255 1.001.622l-.151.507a2.4 2.4 0 0 0 1.747 3.022l.419.1a5.6 5.6 0 0 1 .012 1.22l-.552.14a2.4 2.4 0 0 0-1.717 2.974l.187.668a5.2 5.2 0 0 1-.986.597l-.405-.43a2.4 2.4 0 0 0-3.491-.001l-.39.413a5.2 5.2 0 0 1-1.002-.622l.152-.507a2.4 2.4 0 0 0-1.748-3.023l-.42-.1a5.7 5.7 0 0 1-.011-1.219zm5.839.696a1.2 1.2 0 1 0-2.4 0 1.2 1.2 0 0 0 2.4 0"/><path fill="#04071E" fill-rule="evenodd" d="M5.85 7.2a4.95 4.95 0 1 1 9.9 0 4.95 4.95 0 0 1-9.9 0m4.95-4.65a4.65 4.65 0 1 0 0 9.3 4.65 4.65 0 0 0 0-9.3m0 1.2a3.45 3.45 0 1 0 0 6.9 3.45 3.45 0 0 0 0-6.9M7.05 7.2a3.75 3.75 0 1 1 7.5 0 3.75 3.75 0 0 1-7.5 0m8.263 5.084.479.508a2.25 2.25 0 0 0 3.273.002l.464-.492.099.046c.367.174.713.39 1.03.64l.08.063-.18.604a2.25 2.25 0 0 0 1.638 2.834l.52.123.013.105a5.8 5.8 0 0 1 .012 1.252l-.01.105-.654.167a2.25 2.25 0 0 0-1.61 2.788l.215.765-.08.062a5.3 5.3 0 0 1-1.015.614l-.098.046-.48-.508a2.25 2.25 0 0 0-3.272-.002l-.465.492-.098-.047a5.3 5.3 0 0 1-1.031-.64l-.08-.062.18-.605a2.25 2.25 0 0 0-1.637-2.834l-.522-.123-.012-.104a5.8 5.8 0 0 1-.012-1.252l.01-.105.655-.167a2.25 2.25 0 0 0 1.61-2.788l-.215-.766.08-.062a5.3 5.3 0 0 1 1.015-.614zm-.85.836.16.57a2.55 2.55 0 0 1-1.824 3.16l-.45.114a5.5 5.5 0 0 0 .01.98l.316.074a2.55 2.55 0 0 1 1.856 3.212l-.122.409q.374.283.795.494l.314-.333a2.55 2.55 0 0 1 3.71.002l.33.35a5 5 0 0 0 .78-.473l-.16-.57a2.55 2.55 0 0 1 1.824-3.159l.45-.115a5.5 5.5 0 0 0-.01-.98l-.315-.074a2.55 2.55 0 0 1-1.857-3.211l.122-.409a5 5 0 0 0-.795-.494l-.314.333a2.55 2.55 0 0 1-3.71-.002l-.33-.35a5 5 0 0 0-.78.472M2.25 15.6c0-1.42 1.152-2.55 2.56-2.55h7.817l-.203.245c-.297.36-.556.754-.77 1.173l-.043.082h-6.8c-.592 0-1.061.47-1.061 1.05 0 1.513.715 2.638 1.938 3.418 1.253.799 3.048 1.232 5.112 1.232q.358 0 .703-.017l.098-.005.044.087q.305.601.725 1.122l.173.217-.276.026q-.72.07-1.467.07c-2.244 0-4.349-.466-5.919-1.468-1.6-1.02-2.631-2.595-2.631-4.682m2.56-2.25c-1.245 0-2.26.998-2.26 2.25 0 1.972.968 3.457 2.493 4.43 1.506.96 3.55 1.42 5.757 1.42q.593 0 1.166-.044a7 7 0 0 1-.544-.87q-.307.015-.622.014c-2.1 0-3.957-.44-5.273-1.28-1.299-.827-2.077-2.042-2.077-3.67 0-.748.606-1.35 1.36-1.35h6.619a7 7 0 0 1 .57-.9zm11.24 4.05a1.35 1.35 0 1 1 2.7 0 1.35 1.35 0 0 1-2.7 0m1.35-1.05a1.05 1.05 0 1 0 0 2.1 1.05 1.05 0 0 0 0-2.1" clip-rule="evenodd"/></svg>