<svg xmlns="http://www.w3.org/2000/svg" width="24" height="24" fill="none"><path fill="#04071E" d="M14 15.5V14H4.252a2.25 2.25 0 0 0-2.249 2.249v.578c0 .892.319 1.756.899 2.435 1.566 1.834 3.952 2.74 7.098 2.74q2.267 0 4-.63v-1.62c-1.082.498-2.411.75-4 .75-2.738 0-4.704-.747-5.958-2.214a2.25 2.25 0 0 1-.539-1.462v-.577c0-.414.336-.75.75-.75zM10 2.005a5 5 0 1 1 0 10 5 5 0 0 1 0-10m0 1.5a3.5 3.5 0 1 0 0 7 3.5 3.5 0 0 0 0-7M21.254 10c.967 0 1.75.784 1.75 1.75v9.5a1.75 1.75 0 0 1-1.75 1.75H16.75A1.75 1.75 0 0 1 15 21.25v-9.5c0-.966.784-1.75 1.75-1.75zm-2.002 8.997h-.5l-.102.007a.75.75 0 0 0 .102 1.493h.5l.102-.007a.75.75 0 0 0-.102-1.493"/></svg>