<svg xmlns="http://www.w3.org/2000/svg" width="24" height="24" fill="none"><path fill="#04071E" d="M17.754 14a2.25 2.25 0 0 1 2.249 2.249v.575c0 .894-.32 1.76-.901 2.439C17.532 21.096 15.145 22 12 22s-5.532-.905-7.098-2.74a3.75 3.75 0 0 1-.899-2.434v-.578a2.25 2.25 0 0 1 2.25-2.25zm0 1.5H6.252a.75.75 0 0 0-.749.749v.578c0 .535.192 1.053.54 1.46 1.253 1.468 3.219 2.214 5.957 2.214s4.706-.746 5.962-2.214a2.25 2.25 0 0 0 .54-1.463v-.575a.75.75 0 0 0-.748-.75M12 2.005a5 5 0 1 1 0 10 5 5 0 0 1 0-10m0 1.5a3.5 3.5 0 1 0 0 7 3.5 3.5 0 0 0 0-7"/></svg>