<svg xmlns="http://www.w3.org/2000/svg" width="24" height="24" fill="none"><path fill="#04071E" d="M14.013 6.803c.383-.548.612-1.21.612-1.928A3.38 3.38 0 0 0 11.25 1.5a3.38 3.38 0 0 0-3.375 3.375c0 .717.228 1.38.612 1.928A3 3 0 0 0 6 9.75v4.5c0 .827.672 1.5 1.5 1.5v4.5c0 1.24 1.01 2.25 2.25 2.25h3c1.24 0 2.25-1.01 2.25-2.25v-4.5c.828 0 1.5-.673 1.5-1.5v-4.5a3 3 0 0 0-2.487-2.947M11.25 3c1.034 0 1.875.842 1.875 1.875A1.88 1.88 0 0 1 11.25 6.75a1.88 1.88 0 0 1-1.875-1.875C9.375 3.842 10.217 3 11.25 3M15 14.25h-1.5v6c0 .414-.337.75-.75.75H12v-4.5a.75.75 0 0 0-1.5 0V21h-.75a.75.75 0 0 1-.75-.75v-6H7.5v-4.5c0-.826.672-1.5 1.5-1.5h4.5c.828 0 1.5.674 1.5 1.5z"/><path fill="#04071E" fill-rule="evenodd" d="M7.725 4.875A3.53 3.53 0 0 1 11.25 1.35a3.53 3.53 0 0 1 3.525 3.525c0 .67-.191 1.294-.516 1.826a3.146 3.146 0 0 1 2.391 3.05v4.5c0 .858-.66 1.566-1.5 1.642v4.357c0 1.323-1.077 2.4-2.4 2.4h-3a2.403 2.403 0 0 1-2.4-2.4v-4.357a1.65 1.65 0 0 1-1.5-1.643v-4.5a3.15 3.15 0 0 1 2.391-3.049 3.5 3.5 0 0 1-.516-1.826M11.25 1.65a3.23 3.23 0 0 0-3.225 3.225c0 .685.218 1.318.585 1.841l.135.194-.232.04a2.85 2.85 0 0 0-2.363 2.8v4.5c0 .744.605 1.35 1.35 1.35h.15v4.65c0 1.158.942 2.1 2.1 2.1h3c1.158 0 2.1-.942 2.1-2.1V15.6H15c.745 0 1.35-.606 1.35-1.35v-4.5a2.85 2.85 0 0 0-2.363-2.8l-.232-.04.135-.193a3.2 3.2 0 0 0 .585-1.842A3.23 3.23 0 0 0 11.25 1.65m0 1.5c-.95 0-1.725.774-1.725 1.725 0 .95.774 1.725 1.725 1.725.95 0 1.725-.774 1.725-1.725 0-.95-.774-1.725-1.725-1.725M9.225 4.875c0-1.116.909-2.025 2.025-2.025s2.025.909 2.025 2.025A2.03 2.03 0 0 1 11.25 6.9a2.03 2.03 0 0 1-2.025-2.025M9 8.4c-.745 0-1.35.606-1.35 1.35v4.35h1.5v6.15c0 .331.27.6.6.6h.6V16.5a.9.9 0 0 1 1.8 0v4.35h.6c.33 0 .6-.269.6-.6V14.1h1.5V9.75c0-.744-.605-1.35-1.35-1.35zM7.35 9.75c0-.91.74-1.65 1.65-1.65h4.5c.911 0 1.65.74 1.65 1.65v4.65h-1.5v5.85c0 .497-.405.9-.9.9h-.9V16.5a.6.6 0 0 0-1.2 0v4.65h-.9a.9.9 0 0 1-.9-.9V14.4h-1.5z" clip-rule="evenodd"/></svg>