<svg xmlns="http://www.w3.org/2000/svg" width="24" height="24" fill="none"><path fill="#04071E" d="M11.314 15.5a6.5 6.5 0 0 1 .708-1.5h-7.77a2.25 2.25 0 0 0-2.248 2.249v.578c0 .892.318 1.756.898 2.435 1.566 1.834 3.952 2.74 7.098 2.74q1.397 0 2.593-.24a6.5 6.5 0 0 1-.914-1.367q-.785.105-1.679.106c-2.738 0-4.704-.746-5.957-2.213a2.25 2.25 0 0 1-.54-1.462v-.577c0-.414.336-.75.75-.75zM10 2.005a5 5 0 1 1 0 10 5 5 0 0 1 0-10m0 1.5a3.5 3.5 0 1 0 0 7 3.5 3.5 0 0 0 0-7M17.5 12a5.5 5.5 0 1 1 0 11 5.5 5.5 0 0 1 0-11m2 5.5h-2V15a.5.5 0 0 0-1 0v3a.5.5 0 0 0 .5.5h2.5a.5.5 0 0 0 0-1"/></svg>