<svg xmlns="http://www.w3.org/2000/svg" width="24" height="24" fill="none"><path fill="#04071E" d="M17.5 12a5.5 5.5 0 1 1 0 11 5.5 5.5 0 0 1 0-11m-5.478 2a6.5 6.5 0 0 0-.709 1.5h-7.06a.75.75 0 0 0-.75.75v.907c0 .656.286 1.279.784 1.706C5.545 19.945 7.44 20.501 10 20.501q.898 0 1.688-.09c.249.5.563.963.929 1.38Q11.414 22 10 22c-2.89 0-5.128-.657-6.691-2a3.75 3.75 0 0 1-1.306-2.844v-.907A2.25 2.25 0 0 1 4.253 14zm3.07.966-.068.058-.058.07a.5.5 0 0 0 0 .568l.058.07 1.77 1.769-1.768 1.766-.058.07a.5.5 0 0 0 0 .568l.058.07.07.057a.5.5 0 0 0 .568 0l.07-.057 1.766-1.767 1.77 1.769.069.058a.5.5 0 0 0 .568 0l.07-.058.057-.07a.5.5 0 0 0 0-.568l-.058-.07-1.769-1.768 1.772-1.77.058-.069a.5.5 0 0 0 0-.569l-.058-.069-.07-.058a.5.5 0 0 0-.568 0l-.069.058-1.772 1.77-1.77-1.77-.069-.058a.5.5 0 0 0-.492-.043zM10 2.005a5 5 0 1 1 0 10 5 5 0 0 1 0-10m0 1.5a3.5 3.5 0 1 0 0 7 3.5 3.5 0 0 0 0-7"/></svg>