<svg xmlns="http://www.w3.org/2000/svg" width="24" height="24" fill="none"><path fill="#04071E" d="M12 2.4a4.8 4.8 0 1 0 0 9.6 4.8 4.8 0 0 0 0-9.6M8.4 7.2a3.6 3.6 0 1 1 7.2 0 3.6 3.6 0 0 1-7.2 0m-2.39 6a2.4 2.4 0 0 0-2.41 2.4c0 2.03 1 3.56 2.562 4.556C7.7 21.136 9.774 21.6 12 21.6c1.274 0 2.498-.152 3.6-.465V19.88c-1.046.342-2.271.52-3.6.52-2.082 0-3.908-.437-5.193-1.256C5.547 18.341 4.8 17.171 4.8 15.6c0-.664.537-1.2 1.21-1.2h8.54a4.8 4.8 0 0 1 .492-1.2zm13.19 6a3.6 3.6 0 1 0 0-7.2 3.6 3.6 0 0 0 0 7.2m0 1.2c.874 0 1.694-.235 2.4-.643v2.742a.3.3 0 0 1-.454.258L19.2 21.6l-1.947 1.158a.3.3 0 0 1-.453-.258v-2.742a4.8 4.8 0 0 0 2.4.642"/><path fill="#04071E" fill-rule="evenodd" d="m15.9 21.361-.218.062c-1.133.323-2.386.477-3.682.477-2.262 0-4.398-.47-6-1.491-1.638-1.044-2.7-2.665-2.7-4.809 0-1.504 1.22-2.7 2.71-2.7h9.552l-.26.45a4.5 4.5 0 0 0-.46 1.125l-.059.225H6.01c-.509 0-.91.404-.91.9 0 1.456.684 2.536 1.868 3.291 1.222.779 2.986 1.21 5.032 1.21 1.303 0 2.496-.176 3.507-.506l.393-.128zm6-2.124v3.262a.6.6 0 0 1-.907.516L19.2 21.948l-1.793 1.067a.6.6 0 0 1-.907-.516v-3.262l.45.26c.662.383 1.43.602 2.25.602s1.588-.219 2.25-.602zm-2.7 2.362 1.946 1.158a.3.3 0 0 0 .454-.258v-2.742q-.147.085-.3.16a4.8 4.8 0 0 1-2.1.482 4.8 4.8 0 0 1-2.4-.642v2.742a.3.3 0 0 0 .453.258zM6.9 7.2a5.1 5.1 0 1 1 10.2 0 5.1 5.1 0 0 1-10.2 0M12 3.9a3.3 3.3 0 1 0 0 6.6 3.3 3.3 0 0 0 0-6.6m3.6 17.235c-1.102.313-2.326.465-3.6.465-2.226 0-4.3-.463-5.838-1.444C4.599 19.16 3.6 17.63 3.6 15.6c0-1.336 1.084-2.4 2.41-2.4h9.032a4.8 4.8 0 0 0-.491 1.2H6.01c-.674 0-1.211.536-1.211 1.2 0 1.57.747 2.74 2.007 3.544 1.285.82 3.11 1.256 5.193 1.256 1.204 0 2.322-.146 3.3-.427q.152-.044.3-.093zm7.5-5.536a3.9 3.9 0 1 1-7.8 0 3.9 3.9 0 0 1 7.8 0M7.2 7.2a4.8 4.8 0 1 1 9.6 0 4.8 4.8 0 0 1-9.6 0M12 3.6a3.6 3.6 0 1 0 0 7.2 3.6 3.6 0 0 0 0-7.2m10.8 12a3.6 3.6 0 1 1-7.2-.001 3.6 3.6 0 0 1 7.2 0" clip-rule="evenodd"/></svg>