<svg xmlns="http://www.w3.org/2000/svg" width="24" height="24" fill="none"><path fill="#04071E" d="M11.91 13.999h7.843a2.25 2.25 0 0 1 2.25 2.25v.906A3.75 3.75 0 0 1 20.696 20C19.13 21.344 16.89 22.001 14 22.001L13.821 22c.234-.47.242-1.024.026-1.501L14 20.5c2.56 0 4.458-.556 5.719-1.639a2.25 2.25 0 0 0 .784-1.707v-.905a.75.75 0 0 0-.75-.75h-7.776a5.6 5.6 0 0 0-.068-1.501M6.5 10.5a4.5 4.5 0 0 1 3.46 7.376l2.823 2.815a.75.75 0 0 1-.975 1.134l-.085-.072-2.903-2.896A4.5 4.5 0 1 1 6.5 10.5m0 1.5a3 3 0 1 0 0 6 3 3 0 0 0 0-6M14 2.005a5 5 0 1 1 0 10 5 5 0 0 1 0-10m0 1.5a3.5 3.5 0 1 0 0 7 3.5 3.5 0 0 0 0-7"/></svg>