<svg xmlns="http://www.w3.org/2000/svg" width="24" height="24" fill="none"><path fill="#04071E" d="M17.5 12a5.5 5.5 0 1 1 0 11 5.5 5.5 0 0 1 0-11m-5.478 2a6.5 6.5 0 0 0-.709 1.5h-7.06a.75.75 0 0 0-.75.75v.907c0 .656.286 1.279.784 1.706C5.545 19.945 7.44 20.501 10 20.501q.898 0 1.688-.09c.249.5.563.963.929 1.38Q11.414 22 10 22c-2.89 0-5.128-.657-6.691-2a3.75 3.75 0 0 1-1.306-2.844v-.907A2.25 2.25 0 0 1 4.253 14zm4.697.589-.07.057-2.515 2.517-.04.05-.035.058-.032.078-.012.043-.011.086.004.088.019.085.032.078.024.042.051.066 2.516 2.517a.5.5 0 0 0 .765-.638l-.058-.07L15.711 18H20.5a.5.5 0 0 0 .492-.41L21 17.5a.5.5 0 0 0-.41-.492L20.5 17h-4.79l1.647-1.646a.5.5 0 0 0 .058-.638l-.058-.07a.5.5 0 0 0-.638-.057M10 2.005a5 5 0 1 1 0 10 5 5 0 0 1 0-10m0 1.5a3.5 3.5 0 1 0 0 7 3.5 3.5 0 0 0 0-7"/></svg>