<svg xmlns="http://www.w3.org/2000/svg" width="24" height="24" fill="none"><path fill="#04071E" d="M16.2 7.2a1.8 1.8 0 1 1 0-3.6 1.8 1.8 0 0 1 0 3.6m1.592.743A3 3 0 1 0 13.2 5.4H9.6a3 3 0 0 0-3 3v2.1a2.1 2.1 0 0 0 1.169 1.883l-.818.817H3.3a2.1 2.1 0 0 0 0 4.2h3.523a3.53 3.53 0 0 0 2.118-.706l1.202-.902L12 17.648V19.5a2.1 2.1 0 1 0 4.2 0v-3.9a.6.6 0 0 0-.176-.424L14.048 13.2l.952-.951.116.116c.535.534 1.26.835 2.017.835H20.7a2.1 2.1 0 1 0 0-4.2h-1.852zm-1.259.439 1.642 1.642a.6.6 0 0 0 .425.176h2.1a.9.9 0 1 1 0 1.8h-3.567c-.438 0-.859-.174-1.168-.484l-.54-.54a.6.6 0 0 0-.85 0l-1.8 1.8a.6.6 0 0 0 0 .848L15 15.848V19.5a.9.9 0 1 1-1.8 0v-2.1a.6.6 0 0 0-.176-.424l-2.4-2.4a.6.6 0 0 0-.784-.056L8.22 15.734a2.33 2.33 0 0 1-1.398.466H3.3a.9.9 0 1 1 0-1.8h3.9a.6.6 0 0 0 .424-.176l1.727-1.727A2.1 2.1 0 0 0 10.8 10.5v-.9H12a.6.6 0 1 0 0-1.2h-1.8a.6.6 0 0 0-.6.6v1.5a.9.9 0 1 1-1.8 0V8.4a1.8 1.8 0 0 1 1.8-1.8h3.85a3 3 0 0 0 3.083 1.782"/><path fill="#04071E" fill-rule="evenodd" d="M16.2 2.55a2.85 2.85 0 0 0-2.85 2.85.15.15 0 0 1-.15.15H9.6A2.85 2.85 0 0 0 6.75 8.4v2.1c0 .766.442 1.43 1.085 1.748a.15.15 0 0 1 .04.24l-.818.818a.15.15 0 0 1-.106.044H3.3a1.95 1.95 0 1 0 0 3.9h3.523a3.38 3.38 0 0 0 2.028-.676l1.202-.902a.15.15 0 0 1 .197.014l1.856 1.857a.15.15 0 0 1 .044.105V19.5a1.95 1.95 0 1 0 3.9 0v-3.9a.45.45 0 0 0-.132-.318l-1.976-1.976a.15.15 0 0 1 0-.212l.952-.951a.15.15 0 0 1 .212 0l.116.116a2.7 2.7 0 0 0 1.91.791H20.7a1.95 1.95 0 1 0 0-3.9h-1.852a.15.15 0 0 1-.106-.044L17.686 8.05a.15.15 0 0 1 .026-.233A2.85 2.85 0 0 0 16.2 2.55m-3.147 2.7a3.15 3.15 0 1 1 4.974 2.716l.883.884h1.79a2.25 2.25 0 0 1 0 4.5h-3.567c-.797 0-1.56-.316-2.123-.88l-.01-.01-.74.74 1.87 1.87c.14.14.22.331.22.53v3.9a2.25 2.25 0 0 1-4.5 0v-1.79l-1.72-1.72-1.099.824a3.68 3.68 0 0 1-2.208.736H3.3a2.25 2.25 0 0 1 0-4.5h3.59l.632-.633A2.25 2.25 0 0 1 6.45 10.5V8.4A3.15 3.15 0 0 1 9.6 5.25zm3.147-1.5a1.65 1.65 0 1 0 0 3.3 1.65 1.65 0 0 0 0-3.3M14.25 5.4a1.95 1.95 0 1 1 3.9 0 1.95 1.95 0 0 1-3.9 0m-6.6 3A1.95 1.95 0 0 1 9.6 6.45h3.85a.15.15 0 0 1 .137.09 2.85 2.85 0 0 0 2.93 1.693.15.15 0 0 1 .122.043l1.643 1.642a.45.45 0 0 0 .318.132h2.1a1.05 1.05 0 1 1 0 2.1h-3.567c-.478 0-.937-.19-1.275-.528l-.54-.54a.45.45 0 0 0-.636 0l-1.8 1.8a.45.45 0 0 0 0 .636l2.224 2.224a.15.15 0 0 1 .044.106V19.5a1.05 1.05 0 1 1-2.1 0v-2.1a.45.45 0 0 0-.132-.318l-2.4-2.4a.45.45 0 0 0-.588-.042L8.31 15.854a2.48 2.48 0 0 1-1.488.496H3.3a1.05 1.05 0 0 1 0-2.1h3.9a.45.45 0 0 0 .318-.132l1.727-1.727a.15.15 0 0 1 .06-.037A1.95 1.95 0 0 0 10.65 10.5v-.9a.15.15 0 0 1 .15-.15H12a.45.45 0 0 0 0-.9h-1.8a.45.45 0 0 0-.45.45v1.5a1.05 1.05 0 1 1-2.1 0zM9.6 6.75A1.65 1.65 0 0 0 7.95 8.4v2.1a.75.75 0 0 0 1.5 0V9a.75.75 0 0 1 .75-.75H12a.75.75 0 0 1 0 1.5h-1.05v.75a2.25 2.25 0 0 1-1.517 2.128L7.73 14.33a.75.75 0 0 1-.53.22H3.3a.75.75 0 0 0 0 1.5h3.523c.472 0 .93-.153 1.308-.436L9.75 14.4a.75.75 0 0 1 .98.07l2.4 2.4c.14.14.22.331.22.53v2.1a.75.75 0 0 0 1.5 0v-3.59l-2.18-2.18a.75.75 0 0 1 0-1.06l1.8-1.8a.75.75 0 0 1 1.06 0l.54.54c.282.282.664.44 1.063.44H20.7a.75.75 0 0 0 0-1.5h-2.1a.75.75 0 0 1-.53-.22l-1.593-1.592a3.15 3.15 0 0 1-3.124-1.788z" clip-rule="evenodd"/></svg>