<svg xmlns="http://www.w3.org/2000/svg" width="24" height="24" fill="none"><path fill="#04071E" d="M7.2 7.2a4.8 4.8 0 1 1 9.6 0 4.8 4.8 0 0 1-9.6 0M12 3.6a3.6 3.6 0 1 0 0 7.2 3.6 3.6 0 0 0 0-7.2m-8.4 12c0-1.336 1.084-2.4 2.41-2.4h8.092l-.5 1.2H6.011c-.673 0-1.21.536-1.21 1.2 0 1.57.746 2.74 2.006 3.544C8.092 19.964 9.918 20.4 12 20.4h2.365l-.263 1.052c-.676.1-1.38.148-2.102.148-2.226 0-4.3-.463-5.838-1.444C4.6 19.16 3.6 17.629 3.6 15.6m11.535 3.6a.6.6 0 0 1 .582.745l-.522 2.086c-.145.58.555.992.992.584l5.847-5.457c.597-.557.203-1.558-.614-1.558h-.484a.6.6 0 0 1-.57-.79l.674-2.02a.6.6 0 0 0-.57-.79h-4.167a.6.6 0 0 0-.554.37l-2.5 6a.6.6 0 0 0 .554.83z"/><path fill="#04071E" fill-rule="evenodd" d="M12 2.55a4.65 4.65 0 1 0 0 9.3 4.65 4.65 0 0 0 0-9.3M7.05 7.2a4.95 4.95 0 1 1 9.9 0 4.95 4.95 0 0 1-9.9 0m1.2 0a3.75 3.75 0 1 1 7.5 0 3.75 3.75 0 0 1-7.5 0M12 3.75a3.45 3.45 0 1 0 0 6.9 3.45 3.45 0 0 0 0-6.9m3.61 8.562a.75.75 0 0 1 .693-.462h4.168a.75.75 0 0 1 .711.987l-.673 2.02a.45.45 0 0 0 .427.593h.484c.953 0 1.413 1.167.716 1.818l-5.847 5.457c-.546.51-1.42-.006-1.24-.73l.522-2.086a.45.45 0 0 0-.436-.559h-1.332a.75.75 0 0 1-.692-1.039zm.693-.162a.45.45 0 0 0-.415.277l-2.5 6a.45.45 0 0 0 .415.623h1.332a.75.75 0 0 1 .727.932l-.521 2.085c-.109.435.416.744.743.439l5.848-5.458a.75.75 0 0 0-.512-1.298h-.484a.75.75 0 0 1-.712-.987l.674-2.02a.45.45 0 0 0-.427-.593zm-10.292 1.2c-1.245 0-2.26.998-2.26 2.25 0 1.972.967 3.457 2.492 4.43 1.506.96 3.55 1.42 5.757 1.42.68 0 1.343-.043 1.981-.132l.192-.768H12c-2.1 0-3.957-.44-5.273-1.28-1.299-.827-2.077-2.042-2.077-3.67 0-.748.606-1.35 1.36-1.35h7.492l.375-.9zM3.45 15.6c0-1.42 1.151-2.55 2.56-2.55h8.316l-.625 1.5H6.011c-.591 0-1.06.47-1.06 1.05 0 1.513.714 2.638 1.937 3.418 1.253.799 3.048 1.232 5.112 1.232h2.557l-.334 1.336-.1.015c-.683.1-1.395.149-2.123.149-2.243 0-4.348-.466-5.918-1.468-1.6-1.02-2.632-2.595-2.632-4.682" clip-rule="evenodd"/></svg>