<svg xmlns="http://www.w3.org/2000/svg" width="24" height="24" fill="none"><path fill="#04071E" d="M17.5 12a5.5 5.5 0 1 1 0 11 5.5 5.5 0 0 1 0-11m-5.477 2a6.5 6.5 0 0 0-.709 1.5H4.253a.75.75 0 0 0-.75.749v.578c0 .535.192 1.053.54 1.46 1.253 1.468 3.22 2.214 5.957 2.214q.896 0 1.68-.106c.246.495.553.954.912 1.367q-1.193.24-2.592.24c-3.145 0-5.532-.906-7.098-2.74a3.75 3.75 0 0 1-.898-2.436v-.577a2.25 2.25 0 0 1 2.249-2.25zm5.477 0-.09.008a.5.5 0 0 0-.402.402L17 14.5V17h-2.496l-.09.008a.5.5 0 0 0-.402.402l-.008.09.008.09a.5.5 0 0 0 .402.402l.09.008H17L17 20.5l.008.09a.5.5 0 0 0 .402.402l.09.008.09-.008a.5.5 0 0 0 .402-.402L18 20.5V18h2.504l.09-.008a.5.5 0 0 0 .402-.402l.008-.09-.008-.09a.5.5 0 0 0-.402-.402l-.09-.008H18L18 14.5l-.008-.09a.5.5 0 0 0-.402-.402zM10 2.005a5 5 0 1 1 0 10 5 5 0 0 1 0-10m0 1.5a3.5 3.5 0 1 0 0 7 3.5 3.5 0 0 0 0-7"/></svg>