<svg xmlns="http://www.w3.org/2000/svg" width="24" height="24" fill="none"><path fill="#04071E" d="M17.5 12a5.5 5.5 0 1 1 0 11 5.5 5.5 0 0 1 0-11m0 7.751a.625.625 0 1 0 0 1.249.625.625 0 0 0 0-1.249m0-5.877c-1.048 0-1.864.817-1.854 1.954a.5.5 0 0 0 1-.01c-.005-.578.36-.944.854-.944.472 0 .853.392.853.95 0 .192-.055.342-.224.561l-.094.116-.099.113-.265.29-.136.157c-.384.457-.535.793-.535 1.31a.5.5 0 0 0 1 0c0-.203.058-.358.239-.59l.085-.104.1-.115.266-.29.135-.156c.378-.45.528-.783.528-1.292 0-1.104-.822-1.95-1.853-1.95M12.022 14a6.5 6.5 0 0 0-.709 1.5h-7.06a.75.75 0 0 0-.75.75v.578c0 .535.192 1.053.54 1.46 1.253 1.468 3.219 2.214 5.957 2.214q.894 0 1.68-.106c.245.495.553.954.912 1.367q-1.194.24-2.592.24c-3.146 0-5.532-.906-7.098-2.74a3.75 3.75 0 0 1-.899-2.436v-.577a2.25 2.25 0 0 1 2.25-2.25zM10 2.005a5 5 0 1 1 0 10 5 5 0 0 1 0-10m0 1.5a3.5 3.5 0 1 0 0 7 3.5 3.5 0 0 0 0-7"/></svg>