<svg xmlns="http://www.w3.org/2000/svg" width="24" height="24" fill="none"><path fill="#04071E" d="M22.8 6.6a5.4 5.4 0 1 1-10.8 0 5.4 5.4 0 0 1 10.8 0M18 4.2a.6.6 0 1 0-1.2 0V6H15a.6.6 0 1 0 0 1.2h1.8V9A.6.6 0 1 0 18 9V7.2h1.8a.6.6 0 1 0 0-1.2H18zm2.4 9v-.72q.647-.33 1.2-.789V13.2a2.4 2.4 0 0 1-2.4 2.4h-3.6V18h1.8a.6.6 0 0 1 0 1.2h-6.6V18h3.6v-2.4h-3.6v-1.2h8.4a1.2 1.2 0 0 0 1.2-1.2M12.309 2.4q-.459.554-.79 1.2H7.2A1.2 1.2 0 0 0 6 4.8v3.6H4.8V4.8a2.4 2.4 0 0 1 2.4-2.4zM4.8 18.6a.6.6 0 0 1 .6-.6h1.2a.6.6 0 0 1 0 1.2H5.4a.6.6 0 0 1-.6-.6m-2.4-7.2a1.8 1.8 0 0 1 1.8-1.8h3.6a1.8 1.8 0 0 1 1.8 1.8v8.4a1.8 1.8 0 0 1-1.8 1.8H4.2a1.8 1.8 0 0 1-1.8-1.8zm1.8-.6a.6.6 0 0 0-.6.6v8.4a.6.6 0 0 0 .6.6h3.6a.6.6 0 0 0 .6-.6v-8.4a.6.6 0 0 0-.6-.6z"/><path fill="#04071E" fill-rule="evenodd" d="M17.4 1.35a5.25 5.25 0 1 0 0 10.5 5.25 5.25 0 0 0 0-10.5M11.85 6.6a5.55 5.55 0 1 1 11.1 0 5.55 5.55 0 0 1-11.1 0M7.2 2.55A2.25 2.25 0 0 0 4.95 4.8v3.45h.9V4.8c0-.746.604-1.35 1.35-1.35h4.229q.25-.474.57-.9zM4.65 4.8A2.55 2.55 0 0 1 7.2 2.25h5.427l-.203.246a6.5 6.5 0 0 0-.77 1.172l-.043.082H7.2c-.58 0-1.05.47-1.05 1.05v3.75h-1.5zm12-.6a.75.75 0 0 1 1.5 0v1.65h1.65a.75.75 0 0 1 0 1.5h-1.65V9a.75.75 0 0 1-1.5 0V7.35H15a.75.75 0 0 1 0-1.5h1.65zm.75-.45a.45.45 0 0 0-.45.45v1.95H15a.45.45 0 0 0 0 .9h1.95V9a.45.45 0 0 0 .9 0V7.05h1.95a.45.45 0 0 0 0-.9h-1.95V4.2a.45.45 0 0 0-.45-.45m-13.2 6a1.65 1.65 0 0 0-1.65 1.65v8.4c0 .911.739 1.65 1.65 1.65h3.6a1.65 1.65 0 0 0 1.65-1.65v-8.4A1.65 1.65 0 0 0 7.8 9.75zM2.25 11.4A1.95 1.95 0 0 1 4.2 9.45h3.6a1.95 1.95 0 0 1 1.95 1.95v8.4a1.95 1.95 0 0 1-1.95 1.95H4.2a1.95 1.95 0 0 1-1.95-1.95zm1.2 0a.75.75 0 0 1 .75-.75h3.6a.75.75 0 0 1 .75.75v8.4a.75.75 0 0 1-.75.75H4.2a.75.75 0 0 1-.75-.75zm.75-.45a.45.45 0 0 0-.45.45v8.4c0 .249.201.45.45.45h3.6a.45.45 0 0 0 .45-.45v-8.4a.45.45 0 0 0-.45-.45zm17.55.423V13.2a2.55 2.55 0 0 1-2.55 2.55h-3.45v2.1h1.65a.75.75 0 0 1 0 1.5h-6.75v-1.5h3.6v-2.1h-3.6v-1.5h8.55c.58 0 1.05-.47 1.05-1.05v-.811l.082-.042q.631-.324 1.172-.771zm-1.2 1.199v.628a1.35 1.35 0 0 1-1.35 1.35h-8.25v.9h3.6v2.7h-3.6v.9h6.45a.45.45 0 1 0 0-.9h-1.95v-2.7h3.75a2.25 2.25 0 0 0 2.25-2.25V12a7 7 0 0 1-.9.572M5.4 18.15a.45.45 0 0 0 0 .9h1.2a.45.45 0 1 0 0-.9zm-.75.45a.75.75 0 0 1 .75-.75h1.2a.75.75 0 0 1 0 1.5H5.4a.75.75 0 0 1-.75-.75" clip-rule="evenodd"/></svg>