<svg xmlns="http://www.w3.org/2000/svg" width="24" height="24" fill="none"><path fill="#04071E" d="M21.6 6.6a5.4 5.4 0 1 1-10.8 0 5.4 5.4 0 0 1 10.8 0m-2.576-2.224a.6.6 0 0 0-.848 0L15 7.552l-.776-.776a.6.6 0 0 0-.848.848l1.2 1.2a.6.6 0 0 0 .848 0l3.6-3.6a.6.6 0 0 0 0-.848M11.11 2.4H7.8A1.8 1.8 0 0 0 6 4.2v15.6a1.8 1.8 0 0 0 1.8 1.8h8.4a1.8 1.8 0 0 0 1.8-1.8v-6.848a6.6 6.6 0 0 1-1.2.221V19.8a.6.6 0 0 1-.6.6H7.8a.6.6 0 0 1-.6-.6V4.2a.6.6 0 0 1 .6-.6h2.52q.33-.646.789-1.2M9.6 17.4a.6.6 0 0 1 .6-.6h3.6a.6.6 0 0 1 0 1.2h-3.6a.6.6 0 0 1-.6-.6"/><path fill="#04071E" fill-rule="evenodd" d="M16.2 1.35a5.25 5.25 0 1 0 0 10.5 5.25 5.25 0 0 0 0-10.5M10.65 6.6a5.55 5.55 0 1 1 11.1 0 5.55 5.55 0 0 1-11.1 0m-4.8-2.4A1.95 1.95 0 0 1 7.8 2.25h3.627l-.203.246q-.447.542-.77 1.172l-.043.082h-2.61a.45.45 0 0 0-.45.45v15.6c0 .249.2.45.45.45h8.4a.45.45 0 0 0 .45-.45v-6.764l.136-.012q.604-.055 1.172-.217l.191-.054V19.8a1.95 1.95 0 0 1-1.95 1.95H7.8a1.95 1.95 0 0 1-1.95-1.95zM7.8 2.55A1.65 1.65 0 0 0 6.15 4.2v15.6c0 .911.739 1.65 1.65 1.65h8.4a1.65 1.65 0 0 0 1.65-1.65v-6.653a7 7 0 0 1-.9.162V19.8a.75.75 0 0 1-.75.75H7.8a.75.75 0 0 1-.75-.75V4.2a.75.75 0 0 1 .75-.75h2.429q.251-.474.57-.9zm10.27 1.72a.75.75 0 1 1 1.06 1.06l-3.6 3.6a.75.75 0 0 1-1.06 0l-1.2-1.2a.75.75 0 0 1 1.06-1.06l.67.67zm.848.212a.45.45 0 0 0-.636 0L15 7.764l-.882-.882a.45.45 0 1 0-.636.636l1.2 1.2a.45.45 0 0 0 .636 0l3.6-3.6a.45.45 0 0 0 0-.636M10.2 16.95a.45.45 0 0 0 0 .9h3.6a.45.45 0 1 0 0-.9zm-.75.45a.75.75 0 0 1 .75-.75h3.6a.75.75 0 0 1 0 1.5h-3.6a.75.75 0 0 1-.75-.75" clip-rule="evenodd"/></svg>