<svg xmlns="http://www.w3.org/2000/svg" width="24" height="24" fill="none"><path fill="#04071E" d="M17.493 1.727a1.8 1.8 0 0 1 2.546 0l2.234 2.234a1.8 1.8 0 0 1 0 2.546l-6.166 6.166a1.8 1.8 0 0 1-2.545 0l-2.235-2.235a1.8 1.8 0 0 1 0-2.545zm-5.317 7.014a.6.6 0 0 0 0 .849l2.234 2.234a.6.6 0 0 0 .849 0l1.547-1.547-3.083-3.083zm2.862-6.255A2.4 2.4 0 0 0 14.4 2.4H7.2a2.4 2.4 0 0 0-2.4 2.4v14.4a2.4 2.4 0 0 0 2.4 2.4h7.2a2.4 2.4 0 0 0 2.4-2.4v-5.533c-.356.31-.768.52-1.2.634V19.2a1.2 1.2 0 0 1-1.2 1.2H7.2A1.2 1.2 0 0 1 6 19.2V4.8a1.2 1.2 0 0 1 1.2-1.2h6.724zM9 17.4a.6.6 0 0 1 .6-.6H12a.6.6 0 1 1 0 1.2H9.6a.6.6 0 0 1-.6-.6"/><path fill="#04071E" fill-rule="evenodd" d="M15.615 2.333 14.048 3.9H7.2a.9.9 0 0 0-.9.9v14.4a.9.9 0 0 0 .9.9h7.2a.9.9 0 0 0 .9-.9v-5.13l.224-.059a2.7 2.7 0 0 0 1.08-.57l.496-.432v6.19a2.7 2.7 0 0 1-2.7 2.7H7.2a2.7 2.7 0 0 1-2.7-2.7V4.8a2.7 2.7 0 0 1 2.7-2.7h7.2q.374.001.717.097zm1.666-.818a2.1 2.1 0 0 1 2.97 0l2.234 2.234a2.1 2.1 0 0 1 0 2.97l-6.166 6.166a2.1 2.1 0 0 1-2.97 0l-2.234-2.234a2.1 2.1 0 0 1 0-2.97zm-4.893 7.439a.3.3 0 0 0 0 .424l2.234 2.234a.3.3 0 0 0 .425 0l1.335-1.335-2.659-2.659zm-.212-.213a.6.6 0 0 0 0 .849l2.234 2.234a.6.6 0 0 0 .849 0l1.547-1.547-3.083-3.083zm2.507-6.325A2 2 0 0 0 14.4 2.4H7.2a2.4 2.4 0 0 0-2.4 2.4v14.4a2.4 2.4 0 0 0 2.4 2.4h7.2a2.4 2.4 0 0 0 2.4-2.4v-5.533a3 3 0 0 1-1.2.634V19.2a1.2 1.2 0 0 1-1.2 1.2H7.2A1.2 1.2 0 0 1 6 19.2V4.8a1.2 1.2 0 0 1 1.2-1.2h6.724l1.114-1.114a2.4 2.4 0 0 0-.355-.07M8.7 17.4a.9.9 0 0 1 .9-.9H12a.9.9 0 1 1 0 1.8H9.6a.9.9 0 0 1-.9-.9M20.039 1.727a1.8 1.8 0 0 0-2.546 0l-6.166 6.166a1.8 1.8 0 0 0 0 2.545l2.235 2.235a1.8 1.8 0 0 0 2.545 0l6.166-6.166a1.8 1.8 0 0 0 0-2.546zM9.6 16.8a.6.6 0 1 0 0 1.2H12a.6.6 0 1 0 0-1.2z" clip-rule="evenodd"/></svg>