<svg xmlns="http://www.w3.org/2000/svg" width="24" height="24" fill="none"><path fill="#04071E" d="M2.4 6.6a1.8 1.8 0 0 1 3.6 0v.6h12v-.6a1.8 1.8 0 0 1 3.6 0v5.709a6.6 6.6 0 0 0-1.2-.79V6.6a.6.6 0 1 0-1.2 0v4.45a6.6 6.6 0 0 0-1.2-.222V8.4H6v7.2h5.048q-.165.581-.221 1.2H6v.6a1.8 1.8 0 0 1-3.6 0zm2.4 0a.6.6 0 0 0-1.2 0v10.8a.6.6 0 1 0 1.2 0zm18 10.8a5.4 5.4 0 1 1-10.8 0 5.4 5.4 0 0 1 10.8 0M18 15a.6.6 0 1 0-1.2 0v1.8H15a.6.6 0 1 0 0 1.2h1.8v1.8a.6.6 0 1 0 1.2 0V18h1.8a.6.6 0 1 0 0-1.2H18z"/><path fill="#04071E" fill-rule="evenodd" d="M4.2 4.95A1.65 1.65 0 0 0 2.55 6.6v10.8a1.65 1.65 0 1 0 3.3 0v-.75h4.841q.052-.46.162-.9H5.85v-7.5h12.3v2.441q.46.051.9.162V6.6a.75.75 0 0 1 1.5 0v4.829q.474.25.9.57V6.6a1.65 1.65 0 1 0-3.3 0v.75H5.85V6.6A1.65 1.65 0 0 0 4.2 4.95M2.25 6.6a1.95 1.95 0 0 1 3.9 0v.45h11.7V6.6a1.95 1.95 0 1 1 3.9 0v6.027l-.245-.203a6.5 6.5 0 0 0-1.173-.77l-.082-.043V6.6a.45.45 0 0 0-.9 0v4.647l-.19-.054a6.4 6.4 0 0 0-1.174-.217l-.136-.012V8.55H6.15v6.9h5.097l-.054.19q-.161.569-.217 1.173l-.012.137H6.15v.45a1.95 1.95 0 1 1-3.9 0zm1.2 0a.75.75 0 0 1 1.5 0v10.8a.75.75 0 0 1-1.5 0zm.75-.45a.45.45 0 0 0-.45.45v10.8a.45.45 0 0 0 .9 0V6.6a.45.45 0 0 0-.45-.45m13.2 6a5.25 5.25 0 1 0 0 10.5 5.25 5.25 0 0 0 0-10.5m-5.55 5.25a5.55 5.55 0 1 1 11.1 0 5.55 5.55 0 0 1-11.1 0m4.8-2.4a.75.75 0 0 1 1.5 0v1.65h1.65a.75.75 0 0 1 0 1.5h-1.65v1.65a.75.75 0 0 1-1.5 0v-1.65H15a.75.75 0 0 1 0-1.5h1.65zm.75-.45a.45.45 0 0 0-.45.45v1.95H15a.45.45 0 0 0 0 .9h1.95v1.95a.45.45 0 0 0 .9 0v-1.95h1.95a.45.45 0 0 0 0-.9h-1.95V15a.45.45 0 0 0-.45-.45" clip-rule="evenodd"/></svg>