<svg xmlns="http://www.w3.org/2000/svg" width="24" height="24" fill="none"><path fill="#04071E" d="M13.176 7.2a6.6 6.6 0 0 1-.222 1.2h5.044v7.2H5.992v-2.428a6.6 6.6 0 0 1-1.2-.223V17.4a.6.6 0 0 1-1.201 0v-4.923a6.6 6.6 0 0 1-1.2-.792V17.4a1.8 1.8 0 0 0 3.601 0v-.6h12.006v.6a1.8 1.8 0 0 0 3.602 0V6.6a1.8 1.8 0 0 0-3.602 0v.6zM19.799 6a.6.6 0 0 1 .6.6v10.8a.6.6 0 0 1-1.2 0V6.6a.6.6 0 0 1 .6-.6M6.603 1.2A5.4 5.4 0 0 0 1.2 6.6c0 2.982 2.42 5.4 5.403 5.4a5.4 5.4 0 0 0 5.403-5.4c0-2.982-2.42-5.4-5.403-5.4m3.126 6.476a.6.6 0 0 1 0 .848l-2.101 2.1a.6.6 0 0 1-.847.003L4.678 8.524a.6.6 0 1 1 .849-.848L6.603 8.75V6.9a2.1 2.1 0 0 0-2.101-2.1h-.3a.6.6 0 1 1 0-1.2h.3a3.3 3.3 0 0 1 3.302 3.3V8.75L8.88 7.676a.6.6 0 0 1 .849 0"/></svg>