<svg xmlns="http://www.w3.org/2000/svg" width="24" height="24" fill="none"><path fill="#04071E" d="m8.317 3.259.001.002.003.003.009.01.031.037q.04.047.113.137c.096.118.233.29.399.511.332.442.783 1.079 1.267 1.868A22.3 22.3 0 0 1 12 9.6a22.3 22.3 0 0 1 1.86-3.773c.484-.79.935-1.426 1.267-1.868a18 18 0 0 1 .512-.648l.031-.037.009-.01.003-.003V3.26A.751.751 0 0 1 17 3.75v6.556a9.3 9.3 0 0 1 1.138-1.812c.472-.577.915-.935 1.261-1.155.173-.11.32-.183.432-.232a2 2 0 0 1 .189-.071l.018-.005.008-.003h.003l.002-.001h.002A.75.75 0 0 1 21 7.75v10A3.25 3.25 0 0 1 17.75 21H6.25A3.25 3.25 0 0 1 3 17.75v-10a.75.75 0 0 1 .947-.724h.002l.002.001.003.001.008.003.018.005a1.4 1.4 0 0 1 .19.071c.111.05.258.123.43.232.347.22.79.578 1.262 1.155.374.458.764 1.049 1.138 1.812V3.75a.75.75 0 0 1 1.317-.491M4.5 9.212v8.538c0 .966.784 1.75 1.75 1.75h11.5a1.75 1.75 0 0 0 1.75-1.75V9.212q-.098.105-.2.232c-.745.909-1.704 2.657-2.312 5.943a.75.75 0 0 1-1.488-.137V6.04a23 23 0 0 0-.36.57c-.913 1.49-1.93 3.533-2.406 5.795a.75.75 0 0 1-1.468 0C10.79 10.143 9.773 8.1 8.86 6.61q-.184-.3-.36-.57v9.21a.75.75 0 0 1-1.487.137C6.404 12.1 5.445 10.353 4.7 9.444a5 5 0 0 0-.201-.232"/></svg>