<svg xmlns="http://www.w3.org/2000/svg" width="24" height="24" fill="none"><path fill="#04071E" d="M11.815 3.641a1.2 1.2 0 0 0-1.47.849L6.942 17.148c-.172.64.207 1.298.847 1.47l6.5 1.742a1.2 1.2 0 0 0 1.47-.849l3.404-12.659a1.2 1.2 0 0 0-.848-1.47zm-2.63.538a2.4 2.4 0 0 1 2.942-1.697l6.5 1.742a2.4 2.4 0 0 1 1.695 2.939l-3.403 12.659a2.4 2.4 0 0 1-2.942 1.696l-6.5-1.741a2.4 2.4 0 0 1-1.694-2.94zM14.399 8.4a1.2 1.2 0 1 0 0-2.4 1.2 1.2 0 0 0 0 2.4m-1.5 8.4a1.2 1.2 0 1 1-2.4 0 1.2 1.2 0 0 1 2.4 0M8.585 2.4h-.183a2.4 2.4 0 0 0-1.326.4A2.4 2.4 0 0 0 6 4.8l-.005 6.627 1.204-4.478.001-2.148c0-.554.377-1.022.888-1.16l.095-.352a3 3 0 0 1 .402-.889m-3.74 1.266a3 3 0 0 0-.048.533v.765a1.2 1.2 0 0 0-.556 1.348l.553 2.071-.004 4.637-1.708-6.397a2.4 2.4 0 0 1 1.698-2.94z"/><path fill="#04071E" fill-rule="evenodd" d="M12.088 2.627a2.25 2.25 0 0 0-2.758 1.59l-3.403 12.66a2.25 2.25 0 0 0 1.59 2.755l6.5 1.741c1.2.322 2.434-.39 2.757-1.59l3.403-12.66a2.25 2.25 0 0 0-1.59-2.754zM9.041 4.14a2.55 2.55 0 0 1 3.125-1.802l6.5 1.741a2.55 2.55 0 0 1 1.8 3.123L17.064 19.86a2.55 2.55 0 0 1-3.125 1.802l-6.5-1.741a2.55 2.55 0 0 1-1.8-3.123zM7.393 2.458c.31-.134.651-.208 1.01-.208h.462l-.155.233a2.8 2.8 0 0 0-.382.845l-.118.436-.083.022c-.447.12-.776.53-.777 1.015L7.35 6.97l-1.21 4.497-.294-.04L5.85 4.8a2.55 2.55 0 0 1 1.543-2.342m.925.094a2.24 2.24 0 0 0-1.16.372A2.25 2.25 0 0 0 6.15 4.8l-.004 5.488.903-3.358.001-2.128c0-.593.383-1.097.915-1.279l.073-.272a3.2 3.2 0 0 1 .28-.698M10.2 4.45a1.35 1.35 0 0 1 1.654-.955l6.5 1.742c.72.193 1.147.933.953 1.653l-3.403 12.66a1.35 1.35 0 0 1-1.654.953l-6.5-1.741a1.35 1.35 0 0 1-.953-1.654zm1.577-.665a1.05 1.05 0 0 0-1.287.743L7.086 17.187c-.15.56.182 1.136.742 1.286l6.5 1.742c.56.15 1.136-.183 1.287-.743l3.403-12.659a1.05 1.05 0 0 0-.742-1.285zM5.035 3.46l-.042.232q-.046.248-.046.507v.852l-.075.043c-.4.232-.611.712-.486 1.18l.558 2.09-.004 4.656-.295.039-1.708-6.397a2.55 2.55 0 0 1 1.805-3.124zm-.371.415a2.253 2.253 0 0 0-1.438 2.71l1.415 5.295.003-3.477-.548-2.052a1.35 1.35 0 0 1 .55-1.47l.001-.682q0-.164.017-.324M13.048 7.2a1.35 1.35 0 1 1 2.7 0 1.35 1.35 0 0 1-2.7 0m1.35-1.05a1.05 1.05 0 1 0 0 2.1 1.05 1.05 0 0 0 0-2.1m-2.7 9.6a1.05 1.05 0 1 0 0 2.1 1.05 1.05 0 0 0 0-2.1m-1.35 1.05a1.35 1.35 0 1 1 2.7 0 1.35 1.35 0 0 1-2.7 0" clip-rule="evenodd"/></svg>