<svg xmlns="http://www.w3.org/2000/svg" width="24" height="24" fill="none"><path fill="#04071E" d="M20.665 10.424c1.242.684 1.242 2.468 0 3.152l-6.275 3.451a6.6 6.6 0 0 0-.194-1.262l5.89-3.24a.6.6 0 0 0 0-1.05L8.09 4.875a.6.6 0 0 0-.89.526v5.426a6.6 6.6 0 0 0-1.2.221V5.401C6 4.033 7.47 3.166 8.67 3.825zM4.879 13.73a2.4 2.4 0 0 1-1.717 2.974l-.553.141a5.7 5.7 0 0 0 .012 1.22l.42.099a2.4 2.4 0 0 1 1.747 3.023l-.152.507q.464.367 1.002.622l.39-.413a2.4 2.4 0 0 1 3.491.002l.405.429q.527-.244.986-.597l-.187-.668a2.4 2.4 0 0 1 1.717-2.974l.552-.14a5.6 5.6 0 0 0-.012-1.22l-.419-.1a2.4 2.4 0 0 1-1.747-3.023l.151-.506a5.2 5.2 0 0 0-1.001-.622l-.39.412a2.4 2.4 0 0 1-3.491-.001l-.405-.43q-.528.245-.987.597zM7.8 18.6a1.2 1.2 0 1 1 0-2.4 1.2 1.2 0 0 1 0 2.4"/><path fill="#04071E" fill-rule="evenodd" d="M8.596 3.957c-1.1-.605-2.446.19-2.446 1.444v5.452q.44-.11.9-.162v-5.29a.75.75 0 0 1 1.112-.657l11.997 6.6a.75.75 0 0 1 0 1.313l-5.79 3.184q.11.46.154.942l6.07-3.339c1.139-.626 1.139-2.262 0-2.888zM5.85 5.4c0-1.483 1.591-2.422 2.89-1.707l11.997 6.599c1.346.74 1.346 2.673 0 3.414l-6.483 3.566-.014-.238a6.5 6.5 0 0 0-.189-1.233l-.029-.112 5.992-3.296a.45.45 0 0 0 0-.788L8.018 5.007a.45.45 0 0 0-.668.394v5.563l-.136.012q-.605.055-1.173.217l-.19.054zm-.137 6.883.479.508a2.25 2.25 0 0 0 3.273.002l.464-.492.099.046c.367.174.713.39 1.03.64l.08.063-.18.604a2.25 2.25 0 0 0 1.638 2.834l.52.123.013.105a5.8 5.8 0 0 1 .012 1.252l-.01.104-.654.168a2.25 2.25 0 0 0-1.61 2.787l.215.766-.08.062a5.3 5.3 0 0 1-1.015.614l-.098.046-.48-.509a2.25 2.25 0 0 0-3.272-.001l-.465.492-.098-.047a5.3 5.3 0 0 1-1.031-.64l-.08-.062.18-.605a2.25 2.25 0 0 0-1.637-2.834l-.522-.123-.012-.105a5.8 5.8 0 0 1-.012-1.252l.01-.104.655-.168a2.25 2.25 0 0 0 1.61-2.787l-.215-.766.08-.062a5.3 5.3 0 0 1 1.015-.614zm-.85.836.16.57A2.55 2.55 0 0 1 3.2 16.85l-.45.114a5.5 5.5 0 0 0 .01.98l.316.074A2.55 2.55 0 0 1 4.93 21.23l-.122.409q.374.283.795.494l.315-.333a2.55 2.55 0 0 1 3.71.002l.33.35q.41-.202.779-.473l-.16-.57a2.55 2.55 0 0 1 1.824-3.159l.45-.115a5.5 5.5 0 0 0-.01-.98l-.315-.074a2.55 2.55 0 0 1-1.857-3.211l.122-.409a5 5 0 0 0-.795-.494l-.314.332a2.55 2.55 0 0 1-3.71-.001l-.33-.35a5 5 0 0 0-.78.472M7.8 16.35a1.05 1.05 0 1 0 0 2.1 1.05 1.05 0 0 0 0-2.1M6.45 17.4a1.35 1.35 0 1 1 2.7 0 1.35 1.35 0 0 1-2.7 0" clip-rule="evenodd"/></svg>