<svg xmlns="http://www.w3.org/2000/svg" width="24" height="24" fill="none"><path fill="#04071E" d="M6.66 18.841a2.25 2.25 0 0 0 1.902.635 2.3 2.3 0 0 0 .79-.268l.05-.028 11.95-6.722a2.25 2.25 0 0 0 0-3.917L9.339 1.782A2.28 2.28 0 0 0 6 3.75v13.5c0 .597.237 1.169.66 1.591M7.72 3.22a.75.75 0 0 1 .898-.123l12 6.75a.75.75 0 0 1 0 1.306l-11.985 6.74A.737.737 0 0 1 7.5 17.25V3.75a.75.75 0 0 1 .22-.53m9.92 13.04 1.83-1.02a3 3 0 0 1 .03.375 2.27 2.27 0 0 1-1.14 1.965l-7.62 4.29a5.4 5.4 0 0 1-2.49.63 4.6 4.6 0 0 1-1.365-.195A5 5 0 0 1 4.5 20.91 5.2 5.2 0 0 1 3 17.25V8.865A2.22 2.22 0 0 1 4.5 6.78v10.47a3.77 3.77 0 0 0 5.55 3.285l7.566-4.255.01-.005a.015.015 0 0 0 .014-.015"/><path fill="#04071E" fill-rule="evenodd" d="m17.54 16.208.06-.033h.025a.08.08 0 0 0-.06.025.09.09 0 0 0-.025.06zm-9.945 1.425a.74.74 0 0 1-.095-.383V3.75a.75.75 0 0 1 1.118-.653l12 6.75a.75.75 0 0 1 0 1.306l-11.985 6.74a.737.737 0 0 1-1.038-.26M8.57 3.185a.65.65 0 0 0-.969.565v13.503a.638.638 0 0 0 .98.556l.004-.003 11.985-6.74a.65.65 0 0 0 0-1.132zm-4.036 3.69-.033.011V6.78zM4.5 6.78l-.1.037V6.78z" clip-rule="evenodd"/><path fill="#04071E" d="M3 17.25V8.865a2.22 2.22 0 0 1 1.4-2.048V6.78h.1l.033.095-.033.011V17.25h.1V6.64l-.132.045A2.325 2.325 0 0 0 2.9 8.865v8.385z"/><path fill="#04071E" d="m17.64 16.26 1.83-1.02.014.103v.004q.015.133.016.268a2.27 2.27 0 0 1-1.14 1.965l-7.62 4.29a5.4 5.4 0 0 1-2.49.63 4.6 4.6 0 0 1-1.365-.195A5 5 0 0 1 4.5 20.91 5.2 5.2 0 0 1 3 17.25h-.1a5.3 5.3 0 0 0 1.529 3.73 5.1 5.1 0 0 0 2.43 1.421c.451.136.92.203 1.392.199a5.5 5.5 0 0 0 2.536-.642l7.623-4.291a2.37 2.37 0 0 0 1.19-2.052v-.002a3 3 0 0 0-.03-.387l-.021-.144-2.009 1.12v.006l.06-.033h.025a.08.08 0 0 0-.06.025.09.09 0 0 0-.025.06v-.052l-.471.266-7.066 3.973.047.088 7.566-4.255.01-.005a.015.015 0 0 0 .014-.015"/><path fill="#04071E" d="M4.5 17.25a3.77 3.77 0 0 0 5.55 3.285l-.049-.087h.001A3.67 3.67 0 0 1 4.6 17.25z"/><path fill="#04071E" fill-rule="evenodd" d="M5.9 17.25a2.35 2.35 0 0 0 2.35 2.35c.404-.003.8-.108 1.152-.305l.548-.309 11.452-6.442a2.35 2.35 0 0 0 0-4.09L9.387 1.694h-.003A2.38 2.38 0 0 0 5.9 3.747zm2.35 2.25A2.25 2.25 0 0 1 6 17.25V3.75a2.278 2.278 0 0 1 3.338-1.968l12.015 6.759a2.25 2.25 0 0 1 0 3.916L9.403 19.18l-.05.027a2.3 2.3 0 0 1-1.103.293" clip-rule="evenodd"/></svg>