<svg xmlns="http://www.w3.org/2000/svg" width="24" height="24" fill="none"><path fill="#04071E" d="M21.556 2.77a.6.6 0 0 0-.983-.19l-3.24 3.24a4.843 4.843 0 0 0-6.399.398l-.733.734a1.26 1.26 0 0 0 0 1.782l3.329 3.32q.498-.363 1.06-.628l-3.167-3.168a.59.59 0 0 1 0-.831l.36-.36a3.64 3.64 0 0 1 5.144-.007l.007.013.008.007a3.64 3.64 0 0 1 .863 3.732q.623.039 1.209.187a4.84 4.84 0 0 0-.828-4.334l3.24-3.24a.6.6 0 0 0 .13-.655M8.735 10.2l3.323 3.323a6.6 6.6 0 0 0-.63 1.062l-3.163-3.163a.59.59 0 0 0-.83 0l-.36.36a3.643 3.643 0 0 0-.007 5.144l.007.007.006.007a3.63 3.63 0 0 0 3.732.872q.038.616.184 1.195a4.84 4.84 0 0 1-4.328-.827l-3.24 3.24a.6.6 0 1 1-.853-.845l3.24-3.24a4.836 4.836 0 0 1 .399-6.398l.36-.36.378-.377a1.26 1.26 0 0 1 1.782 0M20.4 21.89a5.4 5.4 0 1 1-6-8.98 5.4 5.4 0 0 1 6 8.98m-2.576-7.314A.6.6 0 0 0 16.8 15v1.8H15a.6.6 0 0 0 0 1.2h1.8v1.8a.6.6 0 0 0 1.2 0V18h1.8a.6.6 0 0 0 0-1.2H18V15a.6.6 0 0 0-.176-.424"/><path fill="#04071E" fill-rule="evenodd" d="M20.998 2.25a.75.75 0 0 1 .534.219m0 1.062-3.148 3.147a4.99 4.99 0 0 1 .773 4.363l-.04.138-.14-.035a6.4 6.4 0 0 0-1.18-.182l-.197-.012.063-.186a3.49 3.49 0 0 0-.828-3.578l-.022-.022-.007-.013a3.49 3.49 0 0 0-4.917.022l-.36.36a.44.44 0 0 0 0 .62l3.318 3.318-.193.09a6.5 6.5 0 0 0-1.036.614l-.104.075-3.419-3.41a1.41 1.41 0 0 1 0-1.994l.733-.734a4.99 4.99 0 0 1 6.491-.49l3.146-3.147a.75.75 0 0 1 .532-.225m.176.333a.45.45 0 0 0-.493.102l-.001.001-3.334 3.334-.104-.082a4.693 4.693 0 0 0-6.2.386l-.734.734a1.11 1.11 0 0 0 0 1.57l3.239 3.23a7 7 0 0 1 .79-.474l-3.02-3.02a.74.74 0 0 1 0-1.043l.36-.36a3.79 3.79 0 0 1 5.357-.008l.015.016.008.013a3.8 3.8 0 0 1 .948 3.695q.462.041.904.142a4.68 4.68 0 0 0-.84-4.062l-.082-.104 3.334-3.334a.45.45 0 0 0-.147-.736M7.843 9.981a1.1 1.1 0 0 0-.784.325l-.378.377-.36.36a4.687 4.687 0 0 0-.386 6.2l.081.105-3.334 3.333a.45.45 0 1 0 .64.634l.001-.001 3.334-3.334.105.082a4.7 4.7 0 0 0 4.056.839 7 7 0 0 1-.14-.89 3.78 3.78 0 0 1-3.703-.964l-.01-.01v-.002l-.003-.003a3.794 3.794 0 0 1 .007-5.356l.36-.36a.74.74 0 0 1 1.042 0l3.016 3.015q.211-.413.475-.791L8.63 10.306a1.1 1.1 0 0 0-.785-.325m-.539-.193a1.41 1.41 0 0 1 1.537.306l3.414 3.414-.076.104a6.5 6.5 0 0 0-.615 1.037l-.09.193-3.314-3.314a.44.44 0 0 0-.619 0l-.36.36a3.493 3.493 0 0 0-.007 4.932l.017.017v.002a3.48 3.48 0 0 0 3.574.831l.185-.062.012.195q.038.6.18 1.168l.036.14-.139.04a5 5 0 0 1-4.356-.773l-3.146 3.147a.755.755 0 0 1-.822.17.75.75 0 0 1-.245-1.226l3.148-3.147a4.986 4.986 0 0 1 .49-6.491l.36-.36.379-.377a1.4 1.4 0 0 1 .457-.306m11.12 2.463a5.25 5.25 0 1 0-2.048 10.299 5.25 5.25 0 0 0 2.048-10.299m-3.148.022a5.55 5.55 0 1 1 4.248 10.255 5.55 5.55 0 0 1-4.248-10.255m1.594 2.197a.75.75 0 0 1 1.28.53v1.65h1.65a.75.75 0 1 1 0 1.5h-1.65v1.65a.75.75 0 1 1-1.5 0v-1.65H15a.75.75 0 1 1 0-1.5h1.65V15a.75.75 0 0 1 .22-.53m.53.08a.45.45 0 0 0-.45.45v1.95H15a.45.45 0 0 0 0 .9h1.95v1.95a.45.45 0 0 0 .9 0v-1.95h1.95a.45.45 0 0 0 0-.9h-1.95V15a.45.45 0 0 0-.45-.45" clip-rule="evenodd"/></svg>