<svg xmlns="http://www.w3.org/2000/svg" width="24" height="24" fill="none"><path fill="#04071E" d="M21.424 3.424a.6.6 0 1 0-.848-.848l-3.202 3.202a4.844 4.844 0 0 0-6.399.398l-.36.36a1.79 1.79 0 0 0 0 2.528l2.958 2.958q.505-.36 1.075-.623l-3.184-3.183a.59.59 0 0 1 0-.832l.36-.36a3.643 3.643 0 0 1 6.01 3.79q.62.041 1.201.19a4.85 4.85 0 0 0-.813-4.378zm-12.36 7.192 2.958 2.957q-.36.505-.623 1.075l-3.183-3.184a.59.59 0 0 0-.831 0l-.36.36a3.643 3.643 0 0 0 3.79 6.011q.04.619.19 1.2a4.85 4.85 0 0 1-4.379-.813l-3.202 3.202a.6.6 0 1 1-.848-.848l3.202-3.202a4.843 4.843 0 0 1 .398-6.398l.36-.36a1.79 1.79 0 0 1 2.529 0M22.8 17.4a5.4 5.4 0 1 1-10.8 0 5.4 5.4 0 0 1 10.8 0m-2.576-2.224a.6.6 0 0 0-.848 0L16.2 18.352l-.776-.776a.6.6 0 0 0-.848.848l1.2 1.2a.6.6 0 0 0 .848 0l3.6-3.6a.6.6 0 0 0 0-.848"/><path fill="#04071E" fill-rule="evenodd" d="M20.47 2.47a.75.75 0 1 1 1.06 1.06l-3.11 3.11a5 5 0 0 1 .759 4.408l-.042.137-.139-.036a6.4 6.4 0 0 0-1.173-.185l-.197-.013.065-.187A3.493 3.493 0 0 0 11.93 7.13l-.36.36a.44.44 0 0 0 0 .62l3.336 3.336-.196.09a6.5 6.5 0 0 0-1.05.608l-.103.074-3.048-3.048a1.94 1.94 0 0 1 0-2.74l.36-.36a4.994 4.994 0 0 1 6.491-.49zm.848.212a.45.45 0 0 0-.636 0l-3.296 3.296-.104-.082a4.694 4.694 0 0 0-6.2.386l-.36.36c-.64.64-.64 1.677 0 2.316l2.868 2.87q.383-.264.802-.472l-3.034-3.034a.74.74 0 0 1 0-1.044l.36-.36a3.793 3.793 0 0 1 6.318 3.762q.457.043.894.144a4.7 4.7 0 0 0-.826-4.105l-.082-.105 3.296-3.296a.45.45 0 0 0 0-.636m-12.36 8.04a1.64 1.64 0 0 0-2.316 0l-.36.36a4.694 4.694 0 0 0-.386 6.2l.082.104-3.296 3.296a.45.45 0 0 0 .636.636l3.296-3.296.104.082a4.7 4.7 0 0 0 4.106.827 7 7 0 0 1-.144-.894 3.793 3.793 0 0 1-3.761-6.318l.36-.36a.74.74 0 0 1 1.043 0l3.034 3.033q.208-.419.471-.802zM6.43 10.51a1.94 1.94 0 0 1 2.74 0l3.048 3.047-.074.103a6.5 6.5 0 0 0-.608 1.05l-.09.196L8.11 11.57a.44.44 0 0 0-.62 0l-.36.36a3.493 3.493 0 0 0 3.634 5.764l.187-.066.013.198q.04.604.186 1.173l.035.139-.137.041a5 5 0 0 1-4.408-.758l-3.11 3.11a.75.75 0 0 1-1.06-1.061l3.11-3.11a4.994 4.994 0 0 1 .49-6.49zm10.97 1.64a5.25 5.25 0 1 0 0 10.5 5.25 5.25 0 0 0 0-10.5m-5.55 5.25a5.55 5.55 0 1 1 11.1 0 5.55 5.55 0 0 1-11.1 0m7.42-2.33a.75.75 0 1 1 1.06 1.06l-3.6 3.6a.75.75 0 0 1-1.06 0l-1.2-1.2a.75.75 0 1 1 1.06-1.06l.67.67zm.848.212a.45.45 0 0 0-.636 0L16.2 18.564l-.882-.882a.45.45 0 0 0-.636.636l1.2 1.2a.45.45 0 0 0 .636 0l3.6-3.6a.45.45 0 0 0 0-.636" clip-rule="evenodd"/></svg>