<svg xmlns="http://www.w3.org/2000/svg" width="24" height="24" fill="none"><path fill="#04071E" d="M21.6 12q0 .102-.002.204A3.6 3.6 0 0 0 20.4 12a8.37 8.37 0 0 0-2.051-5.5L6.499 18.349a8.37 8.37 0 0 0 4.301 1.966v.085c0 .401.066.787.187 1.147C6.16 21.041 2.4 16.96 2.4 12a9.6 9.6 0 0 1 19.2 0M5.651 17.5l11.85-11.849a8.4 8.4 0 0 0-11.85 11.85m8.749-4.3a2.4 2.4 0 0 0-2.4 2.4v4.8a2.4 2.4 0 0 0 2.4 2.4h6a2.4 2.4 0 0 0 2.4-2.4v-4.8a2.4 2.4 0 0 0-2.4-2.4zm.6 6h4.8a.6.6 0 0 1 0 1.2H15a.6.6 0 0 1 0-1.2m-.6-3a.6.6 0 0 1 .6-.6h4.8a.6.6 0 0 1 0 1.2H15a.6.6 0 0 1-.6-.6"/><path fill="#04071E" fill-rule="evenodd" d="M12 2.55A9.45 9.45 0 0 0 2.55 12c0 4.805 3.586 8.772 8.227 9.372a3.8 3.8 0 0 1-.127-.928 8.5 8.5 0 0 1-4.249-1.982l-.121-.105L18.357 6.28l.105.121a8.52 8.52 0 0 1 2.087 5.452q.468.019.901.146A9.45 9.45 0 0 0 12 2.55M2.25 12c0-5.385 4.365-9.75 9.75-9.75s9.75 4.365 9.75 9.75q0 .104-.002.207l-.005.207-.195-.069a3.5 3.5 0 0 0-1.148-.195h-.15V12a8.22 8.22 0 0 0-1.91-5.28L6.72 18.34a8.2 8.2 0 0 0 4.101 1.826l.129.019v.215c0 .385.063.754.179 1.1l.074.22-.232-.024C6.07 21.182 2.25 17.037 2.25 12m1.2 0a8.55 8.55 0 0 1 14.149-6.462l.121.105L5.643 17.72l-.105-.121A8.52 8.52 0 0 1 3.45 12M12 3.75a8.25 8.25 0 0 0-6.34 13.53L17.28 5.66A8.22 8.22 0 0 0 12 3.75m-.15 11.85a2.55 2.55 0 0 1 2.55-2.55h6a2.55 2.55 0 0 1 2.55 2.55v4.8a2.55 2.55 0 0 1-2.55 2.55h-6a2.55 2.55 0 0 1-2.55-2.55zm2.55-2.25a2.25 2.25 0 0 0-2.25 2.25v4.8a2.25 2.25 0 0 0 2.25 2.25h6a2.25 2.25 0 0 0 2.25-2.25v-4.8a2.25 2.25 0 0 0-2.25-2.25zm.6 2.4a.45.45 0 0 0 0 .9h4.8a.45.45 0 0 0 0-.9zm-.75.45a.75.75 0 0 1 .75-.75h4.8a.75.75 0 0 1 0 1.5H15a.75.75 0 0 1-.75-.75m.75 3.15a.45.45 0 0 0 0 .9h4.8a.45.45 0 0 0 0-.9zm-.75.45a.75.75 0 0 1 .75-.75h4.8a.75.75 0 0 1 0 1.5H15a.75.75 0 0 1-.75-.75" clip-rule="evenodd"/></svg>