<svg xmlns="http://www.w3.org/2000/svg" width="24" height="24" fill="none"><path fill="#04071E" d="m13.732 17.732-1.025-1.025 1.06-1.06 1.026 1.025a1 1 0 0 0 1.414 0l3.964-3.965a1 1 0 0 0 0-1.414l-3.964-3.964a1 1 0 0 0-1.415 0l-1.025 1.025-1.06-1.061 1.025-1.025a2.5 2.5 0 0 1 3.535 0l3.965 3.964a2.5 2.5 0 0 1 0 3.536l-3.965 3.964a2.5 2.5 0 0 1-3.535 0m-7-11.464-3.965 3.964a2.5 2.5 0 0 0 0 3.536l3.965 3.964a2.5 2.5 0 0 0 3.535 0l3.965-3.964a2.5 2.5 0 0 0 0-3.536l-3.965-3.964a2.5 2.5 0 0 0-3.535 0m-2.904 5.025 3.965-3.964a1 1 0 0 1 1.414 0l3.964 3.964a1 1 0 0 1 0 1.414l-3.964 3.965a1 1 0 0 1-1.414 0l-3.965-3.965a1 1 0 0 1 0-1.414"/></svg>