<svg xmlns="http://www.w3.org/2000/svg" width="24" height="24" fill="none"><path fill="#04071E" d="M13 2.004a3 3 0 0 1 2.994 2.82l.005.175h2.251c.868 0 1.587.632 1.726 1.46l.019.148.005.143v3.751h-1.998a1.5 1.5 0 0 0-1.48 1.24l-.015.131-.005.13a1.5 1.5 0 0 0 1.239 1.48l.132.014.129.005H20v3.752a1.75 1.75 0 0 1-1.606 1.744l-.144.006-2.25-.001-.005.173a3 3 0 0 1-2.638 2.802l-.18.016-.177.005a3 3 0 0 1-2.995-2.82L10 19.002H7.75a1.75 1.75 0 0 1-1.725-1.458l-.019-.148L6 17.253V15l-.164-.005a3 3 0 0 1-2.802-2.638l-.016-.18L3.013 12a3 3 0 0 1 2.823-2.995L6 9.001 6 6.75c0-.867.631-1.587 1.459-1.726l.148-.018L7.75 5 10 4.999l.005-.171a3 3 0 0 1 2.639-2.803l.18-.016zm0 1.5a1.5 1.5 0 0 0-1.493 1.356l-.007.145-.001 1.494H7.75a.25.25 0 0 0-.243.194L7.5 6.75v3.751H6.013a1.5 1.5 0 0 0-.145 2.993l.145.007H7.5v3.752a.25.25 0 0 0 .193.243l.057.007H11.5l.001 1.495a1.5 1.5 0 0 0 2.994.145L14.5 19l-.001-1.497h3.751a.25.25 0 0 0 .244-.192l.006-.057V15h-.523l-.18-.006a3.003 3.003 0 0 1-2.79-2.84l-.005-.178.007-.18a3 3 0 0 1 2.818-2.79l.175-.005h.497L18.5 6.75a.25.25 0 0 0-.13-.22l-.062-.023-.058-.007-3.751-.001.001-1.495a1.5 1.5 0 0 0-1.5-1.5"/></svg>