<svg xmlns="http://www.w3.org/2000/svg" width="24" height="24" fill="none"><path fill="#04071E" d="M6 17.402v-2.144q.318.135.653.25c.177.062.362.092.547.092v1.802a.6.6 0 0 0 .6.6h3.598l.002.898a1.5 1.5 0 0 0 3 .002l-.002-.9H18.6a.6.6 0 0 0 .6-.6l-.001-2.704-.926.002-.196-.009a2.705 2.705 0 0 1-2.48-2.715l.01-.197a2.7 2.7 0 0 1 2.69-2.479L19.2 9.3V6.602a.6.6 0 0 0-.492-.59l-.108-.01h-3.602V5.1a1.5 1.5 0 0 0-2.215-1.318 1.66 1.66 0 0 0-1.204-.58 2.7 2.7 0 0 1 1.735-.796l.184-.006a2.7 2.7 0 0 1 2.676 2.334l.006.067h2.42a1.8 1.8 0 0 1 1.792 1.628l.009.173-.002 3.896-2.1.002c-.783 0-1.433.602-1.494 1.352l-.007.148c0 .783.602 1.432 1.352 1.494l.148.006 2.102-.002v3.904a1.8 1.8 0 0 1-1.8 1.8h-3.018l-.006.064a2.7 2.7 0 0 1-2.49 2.328l-.186.006a2.7 2.7 0 0 1-2.675-2.332l-.007-.067H7.8a1.8 1.8 0 0 1-1.792-1.626zM9.6 4.017a4.9 4.9 0 0 0 1.92.383c.232 0 .425.172.47.4l.01.1v3.001c0 3.219-1.576 5.407-4.648 6.473a.46.46 0 0 1-.304 0Q5.743 13.92 4.799 13.2A6 6 0 0 1 3.612 12c-.752-1.02-1.157-2.283-1.207-3.78L2.4 7.9v-3c0-.277.215-.5.48-.5 1.468 0 2.788-.612 3.981-1.855a.467.467 0 0 1 .68 0Q8.51 3.56 9.6 4.017"/><path fill="#04071E" fill-rule="evenodd" d="M5.9 17.402v-2.295l.139.059q.314.132.647.248.251.086.514.086h.1v1.902a.5.5 0 0 0 .5.5h3.698l.003.998a1.4 1.4 0 0 0 2.8.002l-.004-1h4.304a.5.5 0 0 0 .5-.5l-.001-2.604-.83.002-.2-.01a2.805 2.805 0 0 1-2.571-2.814v-.004l.009-.2a2.8 2.8 0 0 1 2.79-2.572m0 0L19.1 9.2V6.602a.5.5 0 0 0-.405-.491l-.1-.01h-3.697v-1a1.4 1.4 0 0 0-2.067-1.232l-.071.039-.053-.061a1.56 1.56 0 0 0-1.132-.546l-.228-.008.161-.162a2.8 2.8 0 0 1 1.799-.824h.003l.188-.007a2.8 2.8 0 0 1 2.772 2.401h2.33a1.9 1.9 0 0 1 1.892 1.718v.005l.009.178-.002 3.996-2.2.002c-.731 0-1.336.562-1.394 1.258l-.007.144c.002.73.563 1.334 1.259 1.392l.143.006 2.2-.002v4.004a1.9 1.9 0 0 1-1.9 1.9h-2.928a2.8 2.8 0 0 1-2.58 2.392h-.003l-.189.006a2.8 2.8 0 0 1-2.771-2.399H7.8a1.9 1.9 0 0 1-1.892-1.716v-.005l-.008-.178m4.317 1.8.007.066A2.7 2.7 0 0 0 12.9 21.6l.185-.006a2.7 2.7 0 0 0 2.49-2.328l.007-.065H18.6a1.8 1.8 0 0 0 1.8-1.8v-3.903l-2.102.002-.148-.006c-.75-.062-1.352-.711-1.352-1.494l.007-.148c.061-.75.71-1.352 1.493-1.352l2.102-.002V6.602l-.008-.173a1.8 1.8 0 0 0-1.791-1.627h-2.42l-.007-.068A2.7 2.7 0 0 0 13.498 2.4l-.184.006a2.7 2.7 0 0 0-1.735.795q.068.003.133.01c.435.05.808.265 1.07.57A1.5 1.5 0 0 1 14.999 5.1v.901H18.6l.108.01a.6.6 0 0 1 .493.59L19.2 9.3l-.902.001a2.7 2.7 0 0 0-2.69 2.48l-.01.196a2.705 2.705 0 0 0 2.48 2.715l.196.009.926-.002v2.704a.6.6 0 0 1-.6.6h-4.202l.002.9a1.5 1.5 0 0 1-3-.002l-.002-.899H7.8a.6.6 0 0 1-.6-.6v-1.8h-.002q-.278-.002-.545-.093a11 11 0 0 1-.653-.25v2.144l.009.173A1.8 1.8 0 0 0 7.8 19.202zM12.09 4.79l.01.11v3.001c0 1.626-.398 3-1.19 4.102-.793 1.103-1.974 1.927-3.526 2.466a.56.56 0 0 1-.369 0q-1.32-.458-2.277-1.19a6 6 0 0 1-1.206-1.22c-.766-1.039-1.176-2.323-1.227-3.836v-.002l-.005-.32v-3c0-.328.256-.6.58-.6 1.436 0 2.731-.597 3.91-1.824a.567.567 0 0 1 .822 0q.959 1 2.027 1.447a4.8 4.8 0 0 0 1.88.376c.284 0 .516.209.57.48zm-1.29-.44a4.9 4.9 0 0 1-1.2-.333q-1.09-.458-2.06-1.47a.467.467 0 0 0-.679 0C5.668 3.788 4.348 4.4 2.88 4.4a.49.49 0 0 0-.48.5v3.001l.005.319c.05 1.497.455 2.76 1.207 3.78q.495.67 1.187 1.2.943.72 2.249 1.174a.46.46 0 0 0 .304 0C10.424 13.308 12 11.12 12 7.901v-3l-.01-.102a.486.486 0 0 0-.47-.399 5 5 0 0 1-.72-.05" clip-rule="evenodd"/></svg>