<svg xmlns="http://www.w3.org/2000/svg" width="24" height="24" fill="none"><path fill="#04071E" d="M20.65 1.548a1.2 1.2 0 0 0-1.697 0l-1.804 1.804a1.2 1.2 0 0 0 0 1.697l1.804 1.803a1.2 1.2 0 0 0 1.697 0l1.803-1.803a1.2 1.2 0 0 0 0-1.697zM17.998 4.2 19.8 2.397 21.605 4.2 19.8 6.004zm-2.4-.6H6.6a3 3 0 0 0-3 3v10.8a3 3 0 0 0 3 3h10.8a3 3 0 0 0 3-3v-9h-4.802zM6.427 19.192A1.8 1.8 0 0 1 4.8 17.4v-1.8h3.6v3.6H6.6zM9.6 15.6h4.8v3.6H9.6zm9.592 1.973A1.8 1.8 0 0 1 17.4 19.2h-1.8v-3.6h3.6v1.8zM9.6 9.6h4.8v4.8H9.6zm6 4.8V9.6h3.6v4.8zm-6-9.6h4.8v3.6H9.6zm-3 0h1.8v3.6H4.8V6.6l.008-.173A1.8 1.8 0 0 1 6.6 4.8m-1.8 9.6V9.6h3.6v4.8z"/><path fill="#04071E" fill-rule="evenodd" d="M18.847 1.442a1.35 1.35 0 0 1 1.909 0l1.803 1.804a1.35 1.35 0 0 1 0 1.909l-1.803 1.803a1.35 1.35 0 0 1-1.91 0l-1.803-1.803a1.35 1.35 0 0 1 0-1.91zm1.697.212a1.05 1.05 0 0 0-1.485 0l-1.804 1.804a1.05 1.05 0 0 0 0 1.485l1.804 1.803c.41.41 1.075.41 1.485 0l1.803-1.803a1.05 1.05 0 0 0 0-1.485zm-.849.637a.15.15 0 0 1 .212 0l1.804 1.803a.15.15 0 0 1 0 .212L19.907 6.11a.15.15 0 0 1-.212 0l-1.803-1.804a.15.15 0 0 1 0-.212zM18.21 4.2l1.591 1.59 1.592-1.59L19.8 2.608zM3.45 6.6A3.15 3.15 0 0 1 6.6 3.45h8.998a.15.15 0 0 1 .15.15v4.65H20.4a.15.15 0 0 1 .15.15v9a3.15 3.15 0 0 1-3.15 3.15H6.6a3.15 3.15 0 0 1-3.15-3.15zM6.6 3.75A2.85 2.85 0 0 0 3.75 6.6v10.8a2.85 2.85 0 0 0 2.85 2.85h10.8a2.85 2.85 0 0 0 2.85-2.85V8.55h-4.652a.15.15 0 0 1-.15-.15V3.75zM4.958 6.437l-.008.166V8.25h3.3v-3.3H6.6a1.65 1.65 0 0 0-1.642 1.487m-.299-.026A1.95 1.95 0 0 1 6.6 4.65h1.8a.15.15 0 0 1 .15.15v3.6a.15.15 0 0 1-.15.15H4.8a.15.15 0 0 1-.15-.15V6.593zM9.45 4.8a.15.15 0 0 1 .15-.15h4.8a.15.15 0 0 1 .15.15v3.6a.15.15 0 0 1-.15.15H9.6a.15.15 0 0 1-.15-.15zm.3.15v3.3h4.5v-3.3zM4.65 9.6a.15.15 0 0 1 .15-.15h3.6a.15.15 0 0 1 .15.15v4.8a.15.15 0 0 1-.15.15H4.8a.15.15 0 0 1-.15-.15zm.3.15v4.5h3.3v-4.5zm4.5-.15a.15.15 0 0 1 .15-.15h4.8a.15.15 0 0 1 .15.15v4.8a.15.15 0 0 1-.15.15H9.6a.15.15 0 0 1-.15-.15zm.3.15v4.5h4.5v-4.5zm5.7-.15a.15.15 0 0 1 .15-.15h3.6a.15.15 0 0 1 .15.15v4.8a.15.15 0 0 1-.15.15h-3.6a.15.15 0 0 1-.15-.15zm.3.15v4.5h3.3v-4.5zM4.65 15.6a.15.15 0 0 1 .15-.15h3.6a.15.15 0 0 1 .15.15v3.6a.15.15 0 0 1-.15.15H6.593l-.18-.009a1.95 1.95 0 0 1-1.763-1.94zm.3.15v1.65c0 .857.653 1.56 1.488 1.642l.166.008H8.25v-3.3zm4.5-.15a.15.15 0 0 1 .15-.15h4.8a.15.15 0 0 1 .15.15v3.6a.15.15 0 0 1-.15.15H9.6a.15.15 0 0 1-.15-.15zm.3.15v3.3h4.5v-3.3zm5.7-.15a.15.15 0 0 1 .15-.15h3.6a.15.15 0 0 1 .15.15v1.807l-.009.18a1.95 1.95 0 0 1-1.94 1.763h-1.8a.15.15 0 0 1-.15-.15zm.3.15v3.3h1.65a1.65 1.65 0 0 0 1.642-1.487l.008-.166V15.75z" clip-rule="evenodd"/></svg>