<svg xmlns="http://www.w3.org/2000/svg" width="24" height="24" fill="none"><path fill="#04071E" d="M15.75 5a.75.75 0 0 1 .75.75V7h1.25a.75.75 0 0 1 0 1.5H16.5v1.25a.75.75 0 0 1-1.5 0V8.5h-1.25a.75.75 0 0 1 0-1.5H15V5.75a.75.75 0 0 1 .75-.75"/><path fill="#04071E" fill-rule="evenodd" d="M10.695 5.466a.75.75 0 0 0-1.389 0l-2.25 5.503a.75.75 0 1 0 1.388.568l.424-1.036h2.262l.423 1.035a.75.75 0 1 0 1.389-.567zM9.48 9.001h1.037L10 7.733z" clip-rule="evenodd"/><path fill="#04071E" d="M6 14.25a.75.75 0 0 1 .75-.75h10.5a.75.75 0 0 1 0 1.5H6.75a.75.75 0 0 1-.75-.75M6.75 17a.75.75 0 0 0 0 1.5h10.5a.75.75 0 0 0 0-1.5z"/><path fill="#04071E" fill-rule="evenodd" d="M3 5.7A2.7 2.7 0 0 1 5.7 3h12.6A2.7 2.7 0 0 1 21 5.7v12.6a2.7 2.7 0 0 1-2.7 2.7H5.7A2.7 2.7 0 0 1 3 18.3zm2.7-1.2h12.6a1.2 1.2 0 0 1 1.2 1.2v12.6a1.2 1.2 0 0 1-1.2 1.2H5.7a1.2 1.2 0 0 1-1.2-1.2V5.7a1.2 1.2 0 0 1 1.2-1.2" clip-rule="evenodd"/></svg>