<svg xmlns="http://www.w3.org/2000/svg" width="24" height="24" fill="none"><path fill="#04071E" d="m17.396 4.058-.866.866a8.4 8.4 0 1 0 1.41 13.016.6.6 0 0 1 .848.848A9.6 9.6 0 0 1 5.212 5.212c3.314-3.314 8.448-3.699 12.184-1.154M13.875 7.58l.9-.901a6 6 0 1 0 1.467 9.564.6.6 0 1 0-.848-.849 4.8 4.8 0 1 1-1.52-7.814m5.15-2.604a.6.6 0 0 1 0 .848l-5.866 5.865A1.202 1.202 0 0 1 12 13.2a1.2 1.2 0 1 1 .31-2.36l5.866-5.864a.6.6 0 0 1 .848 0M20.4 16.2a.6.6 0 1 1-1.2 0 .6.6 0 0 1 1.2 0m-.6-7.8a.6.6 0 1 0 0-1.2.6.6 0 0 0 0 1.2m1.8 5.1a.6.6 0 1 1-1.2 0 .6.6 0 0 1 1.2 0m-.6-2.4a.6.6 0 1 0 0-1.2.6.6 0 0 0 0 1.2m-3 2.4a.6.6 0 1 1-1.2 0 .6.6 0 0 1 1.2 0m-.6-2.4a.6.6 0 1 0 0-1.2.6.6 0 0 0 0 1.2"/><path fill="#04071E" fill-rule="evenodd" d="M17.16 4.081a9.45 9.45 0 0 0-11.843 14.6 9.45 9.45 0 0 0 13.365.001.45.45 0 1 0-.636-.636 8.55 8.55 0 1 1-1.537-13.313zM5.107 5.106c3.366-3.366 8.58-3.757 12.375-1.172l.15.102-1.08 1.08-.102-.066a8.25 8.25 0 1 0 1.384 12.783.75.75 0 0 1 1.061 1.061c-3.807 3.808-9.98 3.808-13.788 0s-3.808-9.98 0-13.788m13.812-.024a.45.45 0 0 0-.636 0l-5.926 5.926-.084-.022a1.05 1.05 0 1 0 .742.742l-.022-.084 5.926-5.926a.45.45 0 0 0 0-.636m-.848-.212a.75.75 0 1 1 1.06 1.06l-5.806 5.806q.026.129.026.264a1.35 1.35 0 1 1-1.086-1.324zM7.65 7.65a6.15 6.15 0 0 1 7.194-1.105l.181.094-1.117 1.117-.093-.04a4.652 4.652 0 0 0-5.104 7.571 4.65 4.65 0 0 0 6.576 0 .75.75 0 0 1 1.06 1.06 6.15 6.15 0 0 1-8.697-8.697m6.871-.931a5.85 5.85 0 1 0 1.614 9.417.45.45 0 0 0-.636-.637 4.95 4.95 0 1 1-1.66-8.097zM19.05 7.8a.75.75 0 1 1 1.5 0 .75.75 0 0 1-1.5 0m.75-.45a.45.45 0 1 0 0 .9.45.45 0 0 0 0-.9m-3.15 3.15a.75.75 0 1 1 1.5 0 .75.75 0 0 1-1.5 0m.75-.45a.45.45 0 1 0 0 .9.45.45 0 0 0 0-.9m2.85.45a.75.75 0 1 1 1.5 0 .75.75 0 0 1-1.5 0m.75-.45a.45.45 0 1 0 0 .9.45.45 0 0 0 0-.9m-3.6 3a.45.45 0 1 0 0 .9.45.45 0 0 0 0-.9m-.75.45a.75.75 0 1 1 1.5 0 .75.75 0 0 1-1.5 0m4.35-.45a.45.45 0 1 0 0 .9.45.45 0 0 0 0-.9m-.75.45a.75.75 0 1 1 1.5 0 .75.75 0 0 1-1.5 0m-.45 2.25a.45.45 0 1 0 0 .9.45.45 0 0 0 0-.9m-.75.45a.75.75 0 1 1 1.5 0 .75.75 0 0 1-1.5 0" clip-rule="evenodd"/></svg>