<svg xmlns="http://www.w3.org/2000/svg" width="24" height="24" fill="none"><path fill="#04071E" d="m17.396 4.058-.866.866a8.403 8.403 0 0 0-12.916 6.588c-.433.22-.838.487-1.21.793a9.57 9.57 0 0 1 2.808-7.093c3.314-3.314 8.448-3.699 12.184-1.154m-5.7 17.537c.305-.371.572-.776.792-1.21a8.37 8.37 0 0 0 5.452-2.445.6.6 0 0 1 .848.848 9.57 9.57 0 0 1-7.093 2.807M13.2 17.4q0 .244-.017.483a5.97 5.97 0 0 0 3.06-1.64.6.6 0 1 0-.849-.849 4.8 4.8 0 0 1-2.235 1.265q.04.364.041.741m-6.6-6.6q.376 0 .741.041a4.802 4.802 0 0 1 6.533-3.261l.902-.901a6.003 6.003 0 0 0-8.659 4.138q.24-.017.483-.017m4.253 1.552q.431.364.795.795a1.2 1.2 0 0 0 1.511-1.458l5.865-5.865a.6.6 0 0 0-.848-.848L12.31 10.84a1.202 1.202 0 0 0-1.458 1.511M20.4 16.2a.6.6 0 1 1-1.2 0 .6.6 0 0 1 1.2 0m-.6-7.8a.6.6 0 1 0 0-1.2.6.6 0 0 0 0 1.2m1.8 5.1a.6.6 0 1 1-1.2 0 .6.6 0 0 1 1.2 0m-.6-2.4a.6.6 0 1 0 0-1.2.6.6 0 0 0 0 1.2m-3 2.4a.6.6 0 1 1-1.2 0 .6.6 0 0 1 1.2 0m-.6-2.4a.6.6 0 1 0 0-1.2.6.6 0 0 0 0 1.2M12 17.4a5.4 5.4 0 1 1-10.8 0 5.4 5.4 0 0 1 10.8 0m-2.576-2.224a.6.6 0 0 0-.848 0L5.4 18.352l-.776-.776a.6.6 0 0 0-.848.848l1.2 1.2a.6.6 0 0 0 .848 0l3.6-3.6a.6.6 0 0 0 0-.848"/><path fill="#04071E" fill-rule="evenodd" d="M17.16 4.081c-3.663-2.393-8.624-1.98-11.842 1.237A9.42 9.42 0 0 0 2.55 12q.435-.327.92-.582a8.553 8.553 0 0 1 13.04-6.685zM5.107 5.106c3.366-3.366 8.58-3.757 12.375-1.172l.15.102-1.08 1.08-.102-.066a8.253 8.253 0 0 0-12.685 6.471l-.005.086-.077.04a6.5 6.5 0 0 0-1.182.773l-.235.195-.01-.306a9.72 9.72 0 0 1 2.85-7.203M18.07 4.87a.75.75 0 1 1 1.06 1.06l-5.806 5.806q.026.129.026.264a1.35 1.35 0 0 1-1.746 1.29l-.043-.012-.028-.034a6.5 6.5 0 0 0-.777-.777l-.034-.028-.013-.043a1.35 1.35 0 0 1 1.555-1.72zm.848.212a.45.45 0 0 0-.636 0l-5.926 5.926-.084-.022a1.05 1.05 0 0 0-1.288 1.282q.404.346.748.748a1.052 1.052 0 0 0 1.282-1.288l-.022-.084 5.926-5.926a.45.45 0 0 0 0-.636M7.651 7.652a6.15 6.15 0 0 1 7.194-1.106l.181.094-1.117 1.117-.093-.04a4.652 4.652 0 0 0-6.33 3.16l-.03.128-.131-.015a6.5 6.5 0 0 0-1.197-.023l-.197.014.039-.193c.23-1.15.79-2.246 1.681-3.137m6.871-.932a5.853 5.853 0 0 0-8.216 3.936 7 7 0 0 1 .923.023 4.951 4.951 0 0 1 6.61-3.276zM19.05 7.8a.75.75 0 1 1 1.5 0 .75.75 0 0 1-1.5 0m.75-.45a.45.45 0 1 0 0 .9.45.45 0 0 0 0-.9m-3.15 3.15a.75.75 0 1 1 1.5 0 .75.75 0 0 1-1.5 0m.75-.45a.45.45 0 1 0 0 .9.45.45 0 0 0 0-.9m2.85.45a.75.75 0 1 1 1.5 0 .75.75 0 0 1-1.5 0m.75-.45a.45.45 0 1 0 0 .9.45.45 0 0 0 0-.9m-14.4 2.1a5.25 5.25 0 1 0 0 10.5 5.25 5.25 0 0 0 0-10.5M1.05 17.4a5.55 5.55 0 1 1 11.1 0 5.55 5.55 0 0 1-11.1 0m16.35-4.35a.45.45 0 1 0 0 .9.45.45 0 0 0 0-.9m-.75.45a.75.75 0 1 1 1.5 0 .75.75 0 0 1-1.5 0m4.35-.45a.45.45 0 1 0 0 .9.45.45 0 0 0 0-.9m-.75.45a.75.75 0 1 1 1.5 0 .75.75 0 0 1-1.5 0M8.47 15.07a.75.75 0 0 1 1.06 1.06l-3.6 3.6a.75.75 0 0 1-1.06 0l-1.2-1.2a.75.75 0 1 1 1.06-1.06l.67.67zm.848.212a.45.45 0 0 0-.636 0L5.4 18.564l-.882-.882a.45.45 0 0 0-.636.636l1.2 1.2a.45.45 0 0 0 .636 0l3.6-3.6a.45.45 0 0 0 0-.636m5.97.006a.75.75 0 0 1 1.06 1.06 6.1 6.1 0 0 1-3.136 1.682l-.193.039.014-.197a6.5 6.5 0 0 0-.023-1.197l-.015-.13.128-.032a4.63 4.63 0 0 0 2.165-1.225m.849.212a.45.45 0 0 0-.637 0 4.9 4.9 0 0 1-2.179 1.271 7 7 0 0 1 .023.923 5.8 5.8 0 0 0 2.793-1.557.45.45 0 0 0 0-.637m3.663.25a.45.45 0 1 0 0 .9.45.45 0 0 0 0-.9m-.75.45a.75.75 0 1 1 1.5 0 .75.75 0 0 1-1.5 0m-.368 1.846a.45.45 0 0 0-.636 0 8.52 8.52 0 0 1-5.464 2.484 7 7 0 0 1-.582.92 9.42 9.42 0 0 0 6.682-2.768.45.45 0 0 0 0-.636m-.848-.212a.75.75 0 0 1 1.06 1.06 9.72 9.72 0 0 1-7.203 2.851l-.306-.01.195-.235c.299-.363.559-.76.774-1.182l.039-.077.086-.005a8.22 8.22 0 0 0 5.355-2.402" clip-rule="evenodd"/></svg>