<svg xmlns="http://www.w3.org/2000/svg" width="24" height="24" fill="none"><path fill="#04071E" d="M19.247 4.8q.469 0 .89.187.423.187.75.516.33.329.516.75.187.422.197.9V13.2q0 .637-.319 1.2a2.3 2.3 0 0 1-.881.881V17.4q0 .366-.14.694-.142.327-.385.572a1.9 1.9 0 0 1-.581.393q-.338.15-.694.14h-4.8a.58.58 0 0 1-.422-.177L12 17.644l-1.378 1.378a.58.58 0 0 1-.422.178H5.4q-.366 0-.694-.14a1.8 1.8 0 0 1-.572-.385 1.9 1.9 0 0 1-.393-.581A1.6 1.6 0 0 1 3.6 17.4V15.28a2.3 2.3 0 0 1-.872-.881 2.5 2.5 0 0 1-.328-1.2V7.153q0-.469.188-.89.186-.423.515-.75.329-.33.75-.516.422-.187.9-.197zM20.4 7.2a1.1 1.1 0 0 0-.094-.46 1.3 1.3 0 0 0-.253-.384 1.1 1.1 0 0 0-.384-.262A1.2 1.2 0 0 0 19.2 6H4.8q-.253 0-.469.094a1.2 1.2 0 0 0-.375.253 1.3 1.3 0 0 0-.262.384q-.103.225-.094.469v6q0 .253.094.469.094.214.253.384.159.168.375.253t.478.094h14.4q.253 0 .469-.094.214-.093.375-.253.16-.159.262-.384t.094-.47zm-2.4 0q.244 0 .46.094.214.094.384.253.168.159.262.384t.094.469V12q0 .253-.094.469a1.2 1.2 0 0 1-.253.375 1.3 1.3 0 0 1-.384.262q-.225.103-.469.094H6q-.253 0-.469-.094a1.3 1.3 0 0 1-.384-.253 1 1 0 0 1-.253-.375A1.5 1.5 0 0 1 4.8 12V8.4q0-.253.094-.469t.253-.375.384-.262Q5.757 7.19 6 7.2zM9 8.4H6V12h3zm4.8 3.6V8.4h-3.6V12zm1.2 0h3V8.4h-3zm4.2 3.6H4.8v1.8q0 .243.178.422.179.178.422.178h4.556l1.622-1.622A.58.58 0 0 1 12 16.2q.243 0 .422.178L14.053 18H18.6q.243 0 .422-.178a.58.58 0 0 0 .178-.422z"/><path fill="#04071E" fill-rule="evenodd" d="M4.753 4.65h14.494q.5 0 .951.2.448.2.796.547.347.348.546.795.2.45.21.958v6.05q0 .678-.338 1.274-.319.56-.862.893V17.4q0 .396-.153.753-.151.353-.416.619a2.1 2.1 0 0 1-.626.424q-.366.163-.757.154H13.8a.73.73 0 0 1-.528-.222L12 17.856l-1.272 1.272a.73.73 0 0 1-.528.222H5.4q-.396 0-.753-.153-.353-.151-.619-.416a2.1 2.1 0 0 1-.424-.626 1.7 1.7 0 0 1-.154-.757v-2.032a2.46 2.46 0 0 1-.852-.892 2.6 2.6 0 0 1-.348-1.272V7.153q0-.5.2-.952.2-.447.547-.795.348-.347.795-.546.45-.2.958-.21zm.002.3a2.2 2.2 0 0 0-.84.184q-.397.176-.706.484-.309.309-.484.705a2 2 0 0 0-.175.83v6.046q.009.598.309 1.127.298.527.816.825l.075.043v2.21q-.01.32.128.629.14.314.362.536a1.66 1.66 0 0 0 1.16.48h4.8a.43.43 0 0 0 .316-.133L12 17.43l1.484 1.485a.43.43 0 0 0 .316.134h4.804q.321.008.629-.128a1.8 1.8 0 0 0 .536-.363 1.66 1.66 0 0 0 .481-1.16v-2.205l.076-.043q.527-.3.825-.825.3-.529.299-1.126V7.155a2.2 2.2 0 0 0-.184-.841 2.3 2.3 0 0 0-.485-.705 2.3 2.3 0 0 0-.704-.485 2 2 0 0 0-.83-.174zM4.27 5.956q.247-.106.529-.106h14.4q.274 0 .526.105.254.105.436.298.178.188.282.428.105.245.106.519v5.997q.01.278-.107.534a1.5 1.5 0 0 1-.293.428q-.18.18-.421.285-.247.106-.529.106H4.795a1.6 1.6 0 0 1-.528-.104 1.2 1.2 0 0 1-.43-.29 1.5 1.5 0 0 1-.28-.428 1.3 1.3 0 0 1-.107-.528V7.203q-.01-.279.107-.534.114-.248.293-.428.18-.18.421-.285m.529.194q-.224 0-.409.081-.19.084-.329.222-.138.138-.232.34a.9.9 0 0 0-.08.401V13.2q0 .224.081.409.083.191.225.341a.9.9 0 0 0 .32.216q.188.075.427.084H19.2q.224 0 .409-.081.19-.084.329-.222t.232-.34a.9.9 0 0 0 .08-.401V7.2a1 1 0 0 0-.081-.4 1.2 1.2 0 0 0-.225-.34 1 1 0 0 0-.333-.228 1.1 1.1 0 0 0-.411-.082zm1.194 1.2a.9.9 0 0 0-.4.08q-.203.093-.341.232a1.1 1.1 0 0 0-.222.329q-.08.185-.081.409v3.597q.01.24.083.426.073.184.217.321.15.141.341.225.186.08.409.08h12.006a.9.9 0 0 0 .4-.08q.203-.092.341-.231t.222-.33q.08-.184.081-.408V8.4q0-.215-.082-.411a1 1 0 0 0-.227-.333 1.2 1.2 0 0 0-.341-.225 1 1 0 0 0-.4-.081zm.009-.3a1.2 1.2 0 0 0-.534.107 1.5 1.5 0 0 0-.428.293q-.18.18-.285.421-.106.247-.106.529v3.605q.01.285.104.528.096.247.29.43.188.176.427.28.246.107.529.107h11.997q.279.01.534-.107.248-.114.428-.293.18-.18.285-.421.106-.247.106-.53V8.4q0-.272-.105-.526a1.3 1.3 0 0 0-.298-.435 1.5 1.5 0 0 0-.428-.282A1.3 1.3 0 0 0 18 7.05zm-.153 1.2h3.3v3.9h-3.3zm.3.3v3.3h2.7v-3.3zm3.9-.3h3.9v3.9h-3.9zm.3.3v3.3h3.3v-3.3zm4.5-.3h3.3v3.9h-3.3zm.3.3v3.3h2.7v-3.3zm-10.5 6.9h14.7v1.95a.73.73 0 0 1-.222.528.73.73 0 0 1-.528.222h-4.609l-1.675-1.666A.43.43 0 0 0 12 16.35a.43.43 0 0 0-.316.134l-1.666 1.666H5.4a.73.73 0 0 1-.528-.222.73.73 0 0 1-.222-.528zm.3.3v1.65q-.001.18.134.316a.43.43 0 0 0 .316.134h4.494l1.578-1.578A.73.73 0 0 1 12 16.05q.308.002.528.222l1.587 1.578H18.6a.43.43 0 0 0 .316-.134.43.43 0 0 0 .134-.316v-1.65z" clip-rule="evenodd"/></svg>