<svg xmlns="http://www.w3.org/2000/svg" width="24" height="24" fill="none"><path fill="#04071E" d="M7.2 3.6A2.4 2.4 0 0 0 4.8 6v5.107a5.4 5.4 0 0 1 1.2-.274V6a1.2 1.2 0 0 1 1.2-1.2h8.4A1.2 1.2 0 0 1 16.8 6v13.2h-4.654l1.2 1.2H18a3.6 3.6 0 0 0 3.6-3.6v-2.4H18V6a2.4 2.4 0 0 0-2.4-2.4zM9.994 12H13.8a.6.6 0 0 0 0-1.2H9a.6.6 0 0 0-.536.33 5.4 5.4 0 0 1 1.53.87M18 19.2v-3.6h2.4v1.2a2.4 2.4 0 0 1-2.4 2.4m-9-12a.6.6 0 0 0 0 1.2h4.8a.6.6 0 1 0 0-1.2zM6.6 20.4c.943 0 1.814-.311 2.515-.836l3.06 3.06a.6.6 0 0 0 .85-.848l-3.061-3.06A4.2 4.2 0 1 0 6.6 20.4m0-1.2a3 3 0 1 1 0-6 3 3 0 0 1 0 6"/><path fill="#04071E" fill-rule="evenodd" d="M4.65 6A2.55 2.55 0 0 1 7.2 3.45h8.4A2.55 2.55 0 0 1 18.15 6v8.25h3.6v2.55A3.75 3.75 0 0 1 18 20.55h-4.716l-1.5-1.5h4.866V6c0-.58-.47-1.05-1.05-1.05H7.2c-.58 0-1.05.47-1.05 1.05v4.967l-.134.015a5.2 5.2 0 0 0-1.166.267l-.2.07zM7.2 3.75A2.25 2.25 0 0 0 4.95 6v4.9q.436-.137.9-.2V6c0-.746.604-1.35 1.35-1.35h8.4c.746 0 1.35.604 1.35 1.35v13.35h-4.442l.9.9H18a3.45 3.45 0 0 0 3.45-3.45v-2.25h-3.6V6a2.25 2.25 0 0 0-2.25-2.25zM8.25 7.8A.75.75 0 0 1 9 7.05h4.8a.75.75 0 0 1 0 1.5H9a.75.75 0 0 1-.75-.75M9 7.35a.45.45 0 1 0 0 .9h4.8a.45.45 0 0 0 0-.9zm-.67 3.713A.75.75 0 0 1 9 10.65h4.8a.75.75 0 1 1 0 1.5H9.941l-.041-.033a5.2 5.2 0 0 0-1.488-.846l-.158-.058zm.373 0c.486.198.938.465 1.344.787H13.8a.45.45 0 0 0 0-.9H9a.45.45 0 0 0-.297.112M2.25 16.2a4.35 4.35 0 1 1 7.91 2.5l2.97 2.97a.75.75 0 1 1-1.06 1.06L9.1 19.76a4.35 4.35 0 0 1-6.85-3.56m4.35-4.05a4.05 4.05 0 1 0 2.425 7.294l.105-.078 3.152 3.152a.45.45 0 0 0 .636-.636l-3.152-3.153.078-.104A4.05 4.05 0 0 0 6.6 12.15m0 1.2a2.85 2.85 0 1 0 0 5.7 2.85 2.85 0 0 0 0-5.7M3.45 16.2a3.15 3.15 0 1 1 6.3 0 3.15 3.15 0 0 1-6.3 0m14.4-.75h2.7v1.35A2.55 2.55 0 0 1 18 19.35h-.15zm.3.3v3.295a2.25 2.25 0 0 0 2.1-2.245v-1.05z" clip-rule="evenodd"/></svg>