<svg xmlns="http://www.w3.org/2000/svg" width="24" height="24" fill="none"><path fill="#04071E" d="M3.5 17.75v-6.848a1.37 1.37 0 0 1-1.283-.153l-.002-.002A1.4 1.4 0 0 1 2 10.56v7.191A2.25 2.25 0 0 0 4.25 20h15.5A2.25 2.25 0 0 0 22 17.75V6.25A2.25 2.25 0 0 0 19.75 4H4.298l.276.845v.002a.88.88 0 0 0 .563.56l.283.093h14.33a.75.75 0 0 1 .75.75v11.5a.75.75 0 0 1-.75.75H4.25a.75.75 0 0 1-.75-.75m-.839-7.995-.3-.916a1.9 1.9 0 0 0-.456-.739 1.9 1.9 0 0 0-.742-.459l-.919-.3a.364.364 0 0 1-.175-.55.36.36 0 0 1 .175-.133l.919-.3a1.89 1.89 0 0 0 1.173-1.175l.007-.023.3-.917a.364.364 0 0 1 .551-.175.36.36 0 0 1 .133.175l.3.917a1.88 1.88 0 0 0 1.198 1.198l.919.3h.018c.07.025.132.07.176.132a.37.37 0 0 1 0 .419.38.38 0 0 1-.176.133l-.918.3a1.89 1.89 0 0 0-1.2 1.197l-.3.916-.007.023a.4.4 0 0 1-.124.153.37.37 0 0 1-.419 0 .36.36 0 0 1-.133-.176m2.766.618-.535.174a.213.213 0 0 0-.1.32.2.2 0 0 0 .1.078l.535.174a1.1 1.1 0 0 1 .7.702l.174.534a.212.212 0 0 0 .32.1.22.22 0 0 0 .079-.1l.174-.534a1.1 1.1 0 0 1 .699-.7l.536-.173a.21.21 0 0 0 .139-.199.21.21 0 0 0-.141-.2h-.011l-.535-.174a1.1 1.1 0 0 1-.7-.699l-.174-.535a.22.22 0 0 0-.077-.102.22.22 0 0 0-.201-.024l-.044.024a.2.2 0 0 0-.077.1l-.174.536q-.038.119-.1.226a1.12 1.12 0 0 1-.587.472"/></svg>