<svg xmlns="http://www.w3.org/2000/svg" width="24" height="24" fill="none"><path fill="#04071E" d="M4.8 4.8a2.4 2.4 0 0 1 2.4-2.4h9.6a2.4 2.4 0 0 1 2.4 2.4v7.528l-.022-.008A1.8 1.8 0 0 0 18 10.904V4.8a1.2 1.2 0 0 0-1.2-1.2H7.2A1.2 1.2 0 0 0 6 4.8v14.4a1.2 1.2 0 0 0 1.2 1.2h5.732a5.4 5.4 0 0 0 1.103 1.2H7.2a2.4 2.4 0 0 1-2.4-2.4zm13.267 13.598a1.2 1.2 0 1 1-1.333-1.995 1.2 1.2 0 0 1 1.333 1.995m3.472-1.598h.661a.6.6 0 0 1 0 1.2h-.661A4.185 4.185 0 0 1 18 21.539v.661a.6.6 0 0 1-1.2 0v-.661A4.18 4.18 0 0 1 13.261 18H12.6a.6.6 0 1 1 0-1.2h.661a4.18 4.18 0 0 1 3.539-3.539V12.6a.6.6 0 1 1 1.2 0v.661a4.185 4.185 0 0 1 3.539 3.539m-3.845 3.586a3 3 0 1 0-.588-5.97 3 3 0 0 0 .588 5.97"/><path fill="#04071E" fill-rule="evenodd" d="m19.3 12.47-.211-.075-.01-.059a1.7 1.7 0 0 0-1.112-1.339l-.067-.023V4.8a1.1 1.1 0 0 0-1.1-1.1H7.2a1.1 1.1 0 0 0-1.1 1.1v14.4a1.1 1.1 0 0 0 1.1 1.1h5.786l.03.044a5.3 5.3 0 0 0 1.082 1.178l.222.178H7.2a2.5 2.5 0 0 1-2.5-2.5V4.8a2.5 2.5 0 0 1 2.5-2.5h9.6a2.5 2.5 0 0 1 2.5 2.5zM7.2 21.6a2.4 2.4 0 0 1-2.4-2.4V4.8a2.4 2.4 0 0 1 2.4-2.4h9.6a2.4 2.4 0 0 1 2.4 2.4v7.528l-.022-.008A1.8 1.8 0 0 0 18 10.904V4.8a1.2 1.2 0 0 0-1.2-1.2H7.2A1.2 1.2 0 0 0 6 4.8v14.4a1.2 1.2 0 0 0 1.2 1.2h5.732a5.4 5.4 0 0 0 1.103 1.2zm10.922-3.119a1.3 1.3 0 1 1-1.444-2.162 1.3 1.3 0 0 1 1.444 2.162m3.502-1.781h.576a.7.7 0 0 1 0 1.4h-.576a4.28 4.28 0 0 1-3.524 3.524v.576a.7.7 0 0 1-1.4 0v-.575a4.285 4.285 0 0 1-3.524-3.525H12.6a.7.7 0 1 1 0-1.4h.575a4.285 4.285 0 0 1 3.525-3.524V12.6a.7.7 0 1 1 1.4 0v.576a4.28 4.28 0 0 1 3.524 3.524m-.085.1A4.185 4.185 0 0 0 18 13.261V12.6a.6.6 0 0 0-1.2 0v.661a4.185 4.185 0 0 0-3.539 3.539H12.6a.6.6 0 0 0 0 1.2h.661a4.18 4.18 0 0 0 3.539 3.539v.661a.6.6 0 1 0 1.2 0v-.661A4.18 4.18 0 0 0 21.539 18h.661a.6.6 0 1 0 0-1.2zm-3.854 3.487a2.9 2.9 0 1 0-.57-5.771 2.9 2.9 0 0 0 .57 5.77M17.4 18.6a1.2 1.2 0 1 0 0-2.399 1.2 1.2 0 0 0 0 2.399m2.122.922a3 3 0 1 1-4.244-4.242 3 3 0 0 1 4.244 4.242" clip-rule="evenodd"/></svg>