<svg xmlns="http://www.w3.org/2000/svg" width="24" height="24" fill="none"><path fill="#04071E" d="M13.587 3.503c-.679-1.265-2.493-1.265-3.172 0L8.191 7.645a.6.6 0 1 1-1.057-.567l2.224-4.143c1.132-2.107 4.155-2.107 5.286 0l2.41 4.49.354-2.124a.6.6 0 0 1 1.184.198l-.6 3.6a.6.6 0 0 1-.782.47l-3.6-1.2a.6.6 0 0 1 .38-1.138l1.946.649zm4.828 7.69a.6.6 0 0 0-.26.82l2.435 4.537a1.8 1.8 0 0 1-1.586 2.651h-4.957l1.377-1.377a.6.6 0 1 0-.848-.848l-2.4 2.4a.6.6 0 0 0 0 .848l2.4 2.4a.6.6 0 1 0 .848-.848L14.05 20.4h4.954c2.269 0 3.717-2.42 2.644-4.419l-2.436-4.537a.6.6 0 0 0-.797-.253M4.996 19.2H9a.6.6 0 1 1 0 1.2H4.996c-2.268 0-3.716-2.42-2.643-4.42l2.573-4.791-2.336.78a.6.6 0 0 1-.38-1.14l3.6-1.2a.6.6 0 0 1 .76.38l1.2 3.6a.6.6 0 1 1-1.14.38l-.706-2.122L3.41 16.55a1.8 1.8 0 0 0 1.586 2.652"/><path fill="#04071E" fill-rule="evenodd" d="M14.512 3.007c-1.075-2.003-3.947-2.003-5.022 0L7.266 7.148a.45.45 0 0 0 .793.425l2.224-4.142c.736-1.37 2.7-1.37 3.436 0l2.35 4.377a.15.15 0 0 1-.18.213l-1.947-.649a.45.45 0 1 0-.284.854l3.6 1.2a.45.45 0 0 0 .586-.353l.6-3.6a.45.45 0 0 0-.888-.148l-.354 2.124a.15.15 0 0 1-.28.046zm-5.286-.142c1.188-2.214 4.362-2.214 5.55 0l2.203 4.102.281-1.69a.75.75 0 1 1 1.48.246l-.6 3.6a.75.75 0 0 1-.977.588l-3.6-1.2a.75.75 0 0 1 .474-1.423l1.588.53-2.17-4.044c-.622-1.16-2.285-1.16-2.908 0L8.323 7.716a.75.75 0 1 1-1.321-.71zM6.2 9.797a.45.45 0 0 0-.343-.025l-3.6 1.201a.45.45 0 0 0 .284.854l2.337-.78a.15.15 0 0 1 .18.214l-2.574 4.792c-1.019 1.898.356 4.198 2.511 4.198H9a.45.45 0 0 0 0-.9H4.996c-1.474 0-2.415-1.573-1.718-2.872l2.514-4.682a.15.15 0 0 1 .274.024l.707 2.121a.45.45 0 1 0 .854-.284l-1.2-3.601a.45.45 0 0 0-.226-.26m-.438-.31a.75.75 0 0 1 .949.475l1.2 3.6a.75.75 0 1 1-1.424.475l-.597-1.791-2.348 4.374a1.65 1.65 0 0 0 1.453 2.431H9a.75.75 0 0 1 0 1.5H4.996c-2.382 0-3.902-2.542-2.775-4.64l2.394-4.46-1.978.66a.75.75 0 0 1-.474-1.423zm12.585 1.571a.75.75 0 0 1 .996.316l2.436 4.537c1.126 2.099-.394 4.64-2.776 4.64h-4.592l1.118 1.119a.75.75 0 1 1-1.06 1.06l-2.4-2.4a.75.75 0 0 1 0-1.06l2.4-2.4a.75.75 0 1 1 1.06 1.06l-1.12 1.121h4.594a1.65 1.65 0 0 0 1.454-2.43l-2.435-4.537a.75.75 0 0 1 .325-1.026m.732.458a.45.45 0 1 0-.793.426l2.436 4.537c.697 1.299-.244 2.872-1.719 2.872h-4.957a.15.15 0 0 1-.106-.256l1.377-1.377a.45.45 0 0 0-.636-.636l-2.4 2.4a.45.45 0 0 0 0 .636l2.4 2.4a.45.45 0 0 0 .636-.636l-1.374-1.375a.15.15 0 0 1 .106-.256h4.954c2.155 0 3.53-2.3 2.511-4.198z" clip-rule="evenodd"/></svg>