<svg xmlns="http://www.w3.org/2000/svg" width="24" height="24" fill="none"><path fill="#04071E" d="M20.576 17.824a.6.6 0 0 0 .848-.848L14.65 10.2l6.775-6.776a.6.6 0 1 0-.848-.848l-7.2 7.2a.6.6 0 0 0 0 .848zM3.424 6.176a.6.6 0 1 0-.848.848L9.35 13.8l-6.775 6.776a.6.6 0 0 0 .848.848l7.2-7.2a.6.6 0 0 0 0-.848z"/><path fill="#04071E" fill-rule="evenodd" d="M20.47 2.47a.75.75 0 1 1 1.06 1.06l-6.67 6.67 6.67 6.67a.75.75 0 1 1-1.06 1.06l-7.2-7.2a.75.75 0 0 1 0-1.06zm.848.212a.45.45 0 0 0-.636 0l-7.2 7.2a.45.45 0 0 0 0 .636l7.2 7.2a.45.45 0 0 0 .636-.636L14.436 10.2l6.882-6.882a.45.45 0 0 0 0-.636M2.47 6.07a.75.75 0 0 1 1.06 0l7.2 7.2a.75.75 0 0 1 0 1.06l-7.2 7.2a.75.75 0 0 1-1.06-1.06l6.67-6.67-6.67-6.67a.75.75 0 0 1 0-1.06m.848.212a.45.45 0 0 0-.636.636L9.564 13.8l-6.882 6.882a.45.45 0 0 0 .636.636l7.2-7.2a.45.45 0 0 0 0-.636z" clip-rule="evenodd"/></svg>