<svg xmlns="http://www.w3.org/2000/svg" width="24" height="24" fill="none"><path fill="#04071E" d="M3.6 7.8V4.2a.6.6 0 0 1 1.2 0V5.65a9.57 9.57 0 0 1 6.488-3.223 9.6 9.6 0 0 1 3.037.258C18.504 3.723 21.6 7.5 21.6 12v.104a9.582 9.582 0 0 1-3.177 7.031 9.57 9.57 0 0 1-5.82 2.446 9.567 9.567 0 0 1-6.181-1.767 9.57 9.57 0 0 1-3.934-6.511 9.6 9.6 0 0 1-.07-1.924.6.6 0 1 1 1.197.076A8 8 0 0 0 3.6 12a8.4 8.4 0 0 0 5.77 7.98 8.4 8.4 0 0 0 3.769.342 8.4 8.4 0 0 0 2.79-.895A8.403 8.403 0 0 0 14.006 3.84a8.4 8.4 0 0 0-3.147-.163 8.4 8.4 0 0 0-1.792.448A8.43 8.43 0 0 0 5.106 7.2H7.2a.6.6 0 0 1 0 1.2h-3a.6.6 0 0 1-.6-.6"/><path fill="#04071E" fill-rule="evenodd" d="M9 9.56a1.5 1.5 0 0 1 2.174-1.34l4.848 2.44c1.101.554 1.101 2.126 0 2.68l-4.848 2.44A1.5 1.5 0 0 1 9 14.44zm1.2 0a.3.3 0 0 1 .435-.267l4.848 2.44a.3.3 0 0 1 0 .535l-4.848 2.44a.3.3 0 0 1-.435-.268z" clip-rule="evenodd"/><path stroke="#04071E" stroke-linecap="round" stroke-width=".3" d="M3.6 7.8V4.2a.6.6 0 0 1 1.2 0V5.65a9.57 9.57 0 0 1 6.488-3.223 9.6 9.6 0 0 1 3.037.258C18.504 3.723 21.6 7.5 21.6 12v.104a9.582 9.582 0 0 1-3.177 7.031 9.57 9.57 0 0 1-5.82 2.446 9.567 9.567 0 0 1-6.181-1.767 9.57 9.57 0 0 1-3.934-6.511 9.6 9.6 0 0 1-.07-1.924.6.6 0 1 1 1.197.076A8 8 0 0 0 3.6 12a8.4 8.4 0 0 0 5.77 7.98 8.4 8.4 0 0 0 3.769.342 8.4 8.4 0 0 0 2.79-.895A8.403 8.403 0 0 0 14.006 3.84a8.4 8.4 0 0 0-3.147-.163 8.4 8.4 0 0 0-1.792.448A8.43 8.43 0 0 0 5.106 7.2H7.2a.6.6 0 0 1 0 1.2h-3a.6.6 0 0 1-.6-.6Z"/><path stroke="#04071E" stroke-linecap="round" stroke-width=".3" d="M9 9.56a1.5 1.5 0 0 1 2.174-1.34l4.848 2.44c1.101.554 1.101 2.126 0 2.68l-4.848 2.44A1.5 1.5 0 0 1 9 14.44zm1.2 0a.3.3 0 0 1 .435-.267l4.848 2.44a.3.3 0 0 1 0 .535l-4.848 2.44a.3.3 0 0 1-.435-.268z" clip-rule="evenodd"/></svg>