<svg xmlns="http://www.w3.org/2000/svg" width="24" height="24" fill="none"><path fill="#04071E" d="M13.057 7.431a2.5 2.5 0 1 1 3.536 3.535 2.5 2.5 0 0 1-3.536-3.535m2.475 1.06a1 1 0 1 0-1.414 1.415 1 1 0 0 0 1.414-1.414m5.977-4.169a2.75 2.75 0 0 0-1.811-1.81l-.663-.205a6.75 6.75 0 0 0-6.773 1.673l-.996.996a3.5 3.5 0 0 0-4.57.327L5.455 6.545a.75.75 0 0 0 0 1.061l1.591 1.59-.18.18a1.75 1.75 0 0 0 0 2.476l.496.495-1.396.796a.75.75 0 0 0-.158 1.182l3.889 3.889a.75.75 0 0 0 1.181-.158l.798-1.395.497.497a1.75 1.75 0 0 0 2.475 0l.177-.177 1.59 1.59a.75.75 0 0 0 1.06 0l1.242-1.243a3.5 3.5 0 0 0 .328-4.567l.998-.998a6.75 6.75 0 0 0 1.673-6.776zm-2.256-.377c.393.122.701.43.823.823l.207.664a5.25 5.25 0 0 1-1.302 5.27l-5.395 5.396a.25.25 0 0 1-.353 0L7.926 10.79a.25.25 0 0 1 0-.354l5.397-5.396a5.25 5.25 0 0 1 5.268-1.302zm-1.289 9.896c.453.766.35 1.769-.308 2.427l-.712.712-1.06-1.06zM7.758 6.363a2 2 0 0 1 2.428-.307l-2.08 2.08-1.06-1.06zm2.818 9.199-.514.897-2.5-2.5.898-.512zM6.69 18.394a.75.75 0 1 0-1.06-1.06l-2.476 2.475a.75.75 0 1 0 1.061 1.06zM4.745 15.39a.75.75 0 0 1 0 1.06l-1.06 1.062a.75.75 0 1 1-1.061-1.061l1.06-1.06a.75.75 0 0 1 1.061 0m3.887 4.952a.75.75 0 0 0-1.06-1.06l-1.059 1.058a.75.75 0 1 0 1.06 1.06z"/></svg>