<svg xmlns="http://www.w3.org/2000/svg" width="24" height="24" fill="none"><path fill="#04071E" d="M3.6 6A2.4 2.4 0 0 1 6 3.6h10.054a2.4 2.4 0 0 1 1.698.703l1.945 1.945a2.4 2.4 0 0 1 .703 1.698v3.574a6.6 6.6 0 0 0-1.2-.472V7.946a1.2 1.2 0 0 0-.351-.849l-1.946-1.946a1.2 1.2 0 0 0-.849-.351H15.6v3a1.8 1.8 0 0 1-1.8 1.8H9a1.8 1.8 0 0 1-1.8-1.8v-3H6A1.2 1.2 0 0 0 4.8 6v12A1.2 1.2 0 0 0 6 19.2v-5.4A1.8 1.8 0 0 1 7.8 12h5.804c-.483.34-.92.745-1.295 1.2H7.8a.6.6 0 0 0-.6.6v5.4h3.849q.178.628.47 1.2H6A2.4 2.4 0 0 1 3.6 18zm4.8-1.2v3a.6.6 0 0 0 .6.6h4.8a.6.6 0 0 0 .6-.6v-3zM12 17.4a5.4 5.4 0 1 0 10.8 0 5.4 5.4 0 0 0-10.8 0m7.8-3.6a.6.6 0 0 1 .6.6v1.8a.6.6 0 0 1-.6.6H18a.6.6 0 0 1 0-1.2h.562a2.4 2.4 0 0 0-2.061-.125 2.4 2.4 0 0 0-.798.528.6.6 0 0 1-.849-.849 3.6 3.6 0 0 1 4.346-.572V14.4a.6.6 0 0 1 .6-.6m-1.051 6.638a3.6 3.6 0 0 1-3.149-.22v.182a.6.6 0 0 1-1.2 0v-1.8a.6.6 0 0 1 .6-.6h1.8a.6.6 0 1 1 0 1.2h-.562a2.4 2.4 0 0 0 1.12.3 2.4 2.4 0 0 0 1.74-.703.6.6 0 0 1 .848.848 3.6 3.6 0 0 1-1.197.793"/><path fill="#04071E" fill-rule="evenodd" d="M6 3.75A2.25 2.25 0 0 0 3.75 6v12A2.25 2.25 0 0 0 6 20.25h5.28q-.203-.435-.344-.9H7.05V13.8a.75.75 0 0 1 .75-.75h4.438q.417-.494.919-.9H7.8a1.65 1.65 0 0 0-1.65 1.65v5.55H6A1.35 1.35 0 0 1 4.65 18V6c0-.746.604-1.35 1.35-1.35h1.35V7.8c0 .911.739 1.65 1.65 1.65h4.8a1.65 1.65 0 0 0 1.65-1.65V4.65h.604c.359 0 .702.142.955.395l1.946 1.946c.253.253.395.596.395.955v2.99q.465.14.9.343V7.946a2.25 2.25 0 0 0-.659-1.591l-1.946-1.946a2.25 2.25 0 0 0-1.59-.659zM3.45 6A2.55 2.55 0 0 1 6 3.45h10.054a2.55 2.55 0 0 1 1.804.747l1.945 1.945a2.55 2.55 0 0 1 .747 1.804v3.819l-.218-.112a6.4 6.4 0 0 0-1.173-.46l-.109-.031V7.946c0-.279-.11-.546-.308-.743l-1.945-1.946a1.05 1.05 0 0 0-.743-.307h-.304V7.8a1.95 1.95 0 0 1-1.95 1.95H9A1.95 1.95 0 0 1 7.05 7.8V4.95H6c-.58 0-1.05.47-1.05 1.05v12c0 .529.391.966.9 1.04V13.8a1.95 1.95 0 0 1 1.95-1.95h6.278l-.387.273a6.5 6.5 0 0 0-1.267 1.173l-.045.054H7.8a.45.45 0 0 0-.45.45v5.25h3.812l.03.11q.175.613.461 1.172l.112.218H6A2.55 2.55 0 0 1 3.45 18zm11.1-1.35V7.8a.75.75 0 0 1-.75.75H9a.75.75 0 0 1-.75-.75V4.65zm-6 .3V7.8c0 .248.201.45.45.45h4.8a.45.45 0 0 0 .45-.45V4.95zm3.3 12.45a5.55 5.55 0 1 1 11.1 0 5.55 5.55 0 0 1-11.1 0m5.55-5.25a5.25 5.25 0 1 0 0 10.5 5.25 5.25 0 0 0 0-10.5m2.4 1.8a.45.45 0 0 0-.45.45v.442l-.225-.13a3.46 3.46 0 0 0-1.665-.461 3.45 3.45 0 0 0-2.5 1.01.45.45 0 0 0 .637.636 2.55 2.55 0 0 1 3.037-.428l-.072.281H18a.45.45 0 1 0 0 .9h1.8a.45.45 0 0 0 .45-.45v-1.8a.45.45 0 0 0-.45-.45m-.747.384a.75.75 0 0 1 1.497.066v1.8a.75.75 0 0 1-.75.75H18a.75.75 0 0 1-.219-1.468 2.26 2.26 0 0 0-1.972.627.75.75 0 0 1-1.06-1.06 3.75 3.75 0 0 1 4.304-.715M15 18.15a.45.45 0 0 0-.45.45v1.8a.45.45 0 0 0 .9 0v-.442l.225.13a3.46 3.46 0 0 0 1.665.461 3.45 3.45 0 0 0 2.5-1.01.45.45 0 0 0-.637-.636 2.55 2.55 0 0 1-3.037.428l.072-.281h.562a.45.45 0 0 0 0-.9zm-.75.45a.75.75 0 0 1 .75-.75h1.8a.75.75 0 0 1 .22 1.467 2.26 2.26 0 0 0 1.971-.626.75.75 0 0 1 1.06 1.06 3.75 3.75 0 0 1-4.304.715.75.75 0 0 1-1.497-.066z" clip-rule="evenodd"/></svg>