<svg xmlns="http://www.w3.org/2000/svg" width="24" height="24" fill="none"><path fill="#04071E" fill-rule="evenodd" d="M12 15a3 3 0 0 1 3-3h5a3 3 0 0 1 3 3v5c0 .648-.205 1.248-.555 1.738l-3.53-3.53a2 2 0 0 0-2.83 0l-3.53 3.53A3 3 0 0 1 12 20zm9 0a1 1 0 1 1-2 0 1 1 0 0 1 2 0" clip-rule="evenodd"/><path fill="#04071E" d="M13.262 22.445c.49.35 1.09.555 1.738.555h5c.648 0 1.248-.205 1.738-.555l-3.53-3.53a1 1 0 0 0-1.415 0z"/><path fill="#04071E" fill-rule="evenodd" d="M5.75 3A2.75 2.75 0 0 0 3 5.75v12.5A2.75 2.75 0 0 0 5.75 21h5.376A4 4 0 0 1 11 20v-.5H7.5v-5.25a.75.75 0 0 1 .75-.75h3.04a4 4 0 0 1 1.064-1.5H8.25A2.25 2.25 0 0 0 6 14.25v5.25h-.25c-.69 0-1.25-.56-1.25-1.25V5.75c0-.69.56-1.25 1.25-1.25H7v2.75A2.25 2.25 0 0 0 9.25 9.5h4.5A2.25 2.25 0 0 0 16 7.25V4.523c.358.06.692.23.952.49l2.035 2.035c.329.328.513.773.513 1.238V11h.5q.519.002 1 .126v-2.84a3.25 3.25 0 0 0-.952-2.299l-2.035-2.035A3.25 3.25 0 0 0 15.714 3zM8.5 7.25V4.5h6v2.75a.75.75 0 0 1-.75.75h-4.5a.75.75 0 0 1-.75-.75" clip-rule="evenodd"/></svg>