<svg xmlns="http://www.w3.org/2000/svg" width="24" height="24" fill="none"><path fill="#04071E" d="M3.6 6A2.4 2.4 0 0 1 6 3.6h10.054a2.4 2.4 0 0 1 1.698.703l1.945 1.946a2.4 2.4 0 0 1 .703 1.697V18a2.4 2.4 0 0 1-2.4 2.4h-3.454l-1.2-1.2H16.8v-5.4a.6.6 0 0 0-.6-.6h-3.909a5.4 5.4 0 0 0-1.096-1.2H16.2a1.8 1.8 0 0 1 1.8 1.8v5.4a1.2 1.2 0 0 0 1.2-1.2V7.946a1.2 1.2 0 0 0-.351-.849l-1.946-1.946a1.2 1.2 0 0 0-.849-.351H15.6v3a1.8 1.8 0 0 1-1.8 1.8H9a1.8 1.8 0 0 1-1.8-1.8v-3H6A1.2 1.2 0 0 0 4.8 6v5.709a5.4 5.4 0 0 0-1.2 1.096zm4.8-1.2v3a.6.6 0 0 0 .6.6h4.8a.6.6 0 0 0 .6-.6v-3zM12 16.2a4.18 4.18 0 0 1-.836 2.515l3.06 3.06a.6.6 0 0 1-.848.85l-3.06-3.061A4.2 4.2 0 1 1 12 16.2m-7.2 0a3 3 0 1 0 6 0 3 3 0 0 0-6 0"/><path fill="#04071E" fill-rule="evenodd" d="m14.504 20.5-1.4-1.4H16.7v-5.3a.5.5 0 0 0-.5-.5h-3.962l-.03-.044a5.3 5.3 0 0 0-1.076-1.178l-.22-.178H16.2c1.05 0 1.9.85 1.9 1.9v5.296a1.1 1.1 0 0 0 1-1.096V7.946a1.1 1.1 0 0 0-.322-.778l-1.946-1.946a1.1 1.1 0 0 0-.778-.322H15.7v2.9a1.9 1.9 0 0 1-1.9 1.9H9a1.9 1.9 0 0 1-1.9-1.9V4.9H6A1.1 1.1 0 0 0 4.9 6v5.762l-.044.03a5.3 5.3 0 0 0-1.178 1.076l-.178.22V6A2.5 2.5 0 0 1 6 3.5h10.054a2.5 2.5 0 0 1 1.768.732l1.946 1.946a2.5 2.5 0 0 1 .732 1.768V18a2.5 2.5 0 0 1-2.5 2.5zM7.2 4.8v3A1.8 1.8 0 0 0 9 9.6h4.8a1.8 1.8 0 0 0 1.8-1.8v-3h.454a1.2 1.2 0 0 1 .849.351l1.946 1.946a1.2 1.2 0 0 1 .351.849V18a1.2 1.2 0 0 1-1.2 1.2v-5.4a1.8 1.8 0 0 0-1.8-1.8h-5.005a6 6 0 0 1 .423.382q.383.384.673.818H16.2a.6.6 0 0 1 .6.6v5.4h-3.454l1.2 1.2H18a2.4 2.4 0 0 0 2.4-2.4V7.946a2.4 2.4 0 0 0-.703-1.697l-1.945-1.946a2.4 2.4 0 0 0-1.698-.703H6A2.4 2.4 0 0 0 3.6 6v6.805a6 6 0 0 1 .382-.423q.384-.383.818-.673V6A1.2 1.2 0 0 1 6 4.8zm1.3.1v2.9a.5.5 0 0 0 .5.5h4.8a.5.5 0 0 0 .5-.5V4.9zm-.1 2.9a.6.6 0 0 0 .6.6h4.8a.6.6 0 0 0 .6-.6v-3h-6zm2.895 10.905a4.3 4.3 0 1 0-.99.99l3 3a.7.7 0 0 0 .99-.99zm-.98.859 3.06 3.06a.6.6 0 0 0 .85-.848l-3.061-3.06a4.2 4.2 0 1 0-.848.849M4.9 16.2a2.9 2.9 0 1 0 5.8 0 2.9 2.9 0 0 0-5.8 0m2.9 3a3 3 0 1 1 0-6 3 3 0 0 1 0 6" clip-rule="evenodd"/></svg>