<svg xmlns="http://www.w3.org/2000/svg" width="24" height="24" fill="none"><path fill="#04071E" d="M2.897 3.746A3 3 0 0 0 2.4 5.4v2.4a.6.6 0 0 0 1.2 0V5.4c0-.278.063-.541.175-.776l7.625 7.625V16.8h-.6a.6.6 0 1 0 0 1.2h2.4a.6.6 0 1 0 0-1.2h-.6v-3.352l6.62 6.62A2.4 2.4 0 0 1 18 20.4h-1.8a.6.6 0 1 0 0 1.2H18c.777 0 1.497-.247 2.086-.666l.49.49a.6.6 0 0 0 .848-.848l-.49-.49-.866-.867L7.238 6.39 4.624 3.775l-.878-.878-.322-.321a.6.6 0 0 0-.848.848zM21.6 18q-.001.486-.122.932L20.4 17.854V16.2a.6.6 0 1 1 1.2 0zm-9-10.8v2.854l-1.2-1.2V7.2H9.746L8.546 6H16.2a.6.6 0 0 1 .6.6v1.2a.6.6 0 1 1-1.2 0v-.6zM7.8 3.6H6.146l-1.17-1.17q.207-.03.424-.03h2.4a.6.6 0 0 1 0 1.2M6 20.4A2.4 2.4 0 0 1 3.6 18v-1.8a.6.6 0 1 0-1.2 0V18A3.6 3.6 0 0 0 6 21.6h1.8a.6.6 0 1 0 0-1.2zm14.4-15a1.8 1.8 0 0 0-1.8-1.8h-2.4a.6.6 0 1 1 0-1.2h2.4a3 3 0 0 1 3 3v2.4a.6.6 0 1 1-1.2 0z"/><path fill="#04071E" fill-rule="evenodd" d="m5.31 2.551.898.899H7.8a.45.45 0 1 0 0-.9H5.4zm-.356-.27q.22-.03.446-.031h2.4a.75.75 0 0 1 0 1.5H6.083L4.657 2.323zM16.2 2.55a.45.45 0 0 0 0 .9h2.4a1.95 1.95 0 0 1 1.95 1.95v2.4a.45.45 0 0 0 .9 0V5.4a2.85 2.85 0 0 0-2.85-2.85zm-.75.45a.75.75 0 0 1 .75-.75h2.4a3.15 3.15 0 0 1 3.15 3.15v2.4a.75.75 0 0 1-1.5 0V5.4a1.65 1.65 0 0 0-1.65-1.65h-2.4a.75.75 0 0 1-.75-.75M3.53 2.47l.322.321-.059.059.059-.059 3.492 3.492L21.53 20.47a.75.75 0 1 1-1.06 1.06l-.402-.401A3.73 3.73 0 0 1 18 21.75h-1.8a.75.75 0 0 1 0-1.5H18c.348 0 .677-.079.97-.22l-6.22-6.22v2.84h.45a.75.75 0 0 1 0 1.5h-2.4a.75.75 0 0 1 0-1.5h.45v-4.34L3.83 4.89q-.079.242-.08.51v2.4a.75.75 0 1 1-1.5 0V5.4c0-.598.167-1.157.456-1.633L2.47 3.53a.75.75 0 0 1 1.06-1.06m1.046 1.354-.058.057-1.2-1.2a.45.45 0 1 0-.636.637l.408.408-.068.102c-.298.45-.472.99-.472 1.572v2.4a.45.45 0 1 0 .9 0V5.4c0-.3.068-.586.19-.84l.092-.192 7.818 7.818v4.764h-.75a.45.45 0 0 0 0 .9h2.4a.45.45 0 0 0 0-.9h-.75v-3.864l7.012 7.012-.166.099c-.38.224-.823.353-1.296.353h-1.8a.45.45 0 0 0 0 .9H18c.745 0 1.435-.236 1.999-.638l.103-.073.58.58a.45.45 0 0 0 .636-.637l-16.8-16.8zm-.748-.802s-.08-.016-.13-.078zM8.183 5.85H16.2a.75.75 0 0 1 .75.75v1.2a.75.75 0 0 1-1.5 0v-.45h-2.7v3.066l-1.5-1.5V7.35H9.683zm.725.3H16.2a.45.45 0 0 1 .45.45v1.2a.45.45 0 0 1-.9 0v-.75h-3.3v2.642l-.9-.9V7.05H9.808zM3 15.75a.45.45 0 0 0-.45.45V18A3.45 3.45 0 0 0 6 21.45h1.8a.45.45 0 0 0 0-.9H6A2.55 2.55 0 0 1 3.45 18v-1.8a.45.45 0 0 0-.45-.45m-.75.45a.75.75 0 0 1 1.5 0V18A2.25 2.25 0 0 0 6 20.25h1.8a.75.75 0 0 1 0 1.5H6A3.75 3.75 0 0 1 2.25 18zM21 15.75a.45.45 0 0 0-.45.45v1.592l.842.842q.057-.308.058-.634v-1.8a.45.45 0 0 0-.45-.45m-.75.45a.75.75 0 0 1 1.5 0V18q-.001.505-.127.971l-.067.251-1.306-1.306z" clip-rule="evenodd"/></svg>