<svg xmlns="http://www.w3.org/2000/svg" width="24" height="24" fill="none"><path fill="#04071E" d="M5.7 4.8a3.3 3.3 0 0 0-3.3 3.3v7.8a3.3 3.3 0 0 0 3.3 3.3h6.56c.09-.443.278-.851.54-1.2H5.7a2.1 2.1 0 0 1-2.1-2.1V8.1c0-1.16.94-2.1 2.1-2.1h12.6c1.16 0 2.1.94 2.1 2.1v2.182c.482.278.893.665 1.2 1.127V8.1a3.3 3.3 0 0 0-3.3-3.3zM21 14.4a2.4 2.4 0 1 1-4.8 0 2.4 2.4 0 0 1 4.8 0m1.8 5.4c0 1.494-1.2 3-4.2 3s-4.2-1.5-4.2-3a1.8 1.8 0 0 1 1.8-1.8H21a1.8 1.8 0 0 1 1.8 1.8"/><path fill="#04071E" fill-rule="evenodd" d="M12.505 19.5H5.7a3.6 3.6 0 0 1-3.6-3.6V8.1a3.6 3.6 0 0 1 3.6-3.6h12.6a3.6 3.6 0 0 1 3.6 3.6v4.302l-.55-.827a3.3 3.3 0 0 0-1.1-1.034l-.15-.086V8.1a1.8 1.8 0 0 0-1.8-1.8H5.7a1.8 1.8 0 0 0-1.8 1.8v7.8a1.8 1.8 0 0 0 1.8 1.8h7.7l-.36.48c-.236.314-.405.681-.486 1.08zm-.245-.3H5.7a3.3 3.3 0 0 1-3.3-3.3V8.1a3.3 3.3 0 0 1 3.3-3.3h12.6a3.3 3.3 0 0 1 3.3 3.3v3.31a3.6 3.6 0 0 0-1.2-1.128V8.1A2.1 2.1 0 0 0 18.3 6H5.7a2.1 2.1 0 0 0-2.1 2.1v7.8c0 1.16.94 2.1 2.1 2.1h7.1a3 3 0 0 0-.54 1.2m9.04-4.8a2.7 2.7 0 1 1-5.4 0 2.7 2.7 0 0 1 5.4 0m.717 7.69c-.744.621-1.869 1.01-3.417 1.01s-2.673-.387-3.417-1.007A2.94 2.94 0 0 1 14.1 19.8c0-1.16.94-2.1 2.1-2.1H21c1.16 0 2.1.94 2.1 2.1a2.94 2.94 0 0 1-1.083 2.29M18.6 16.8a2.4 2.4 0 1 0 0-4.8 2.4 2.4 0 0 0 0 4.8m0 6c3 0 4.2-1.506 4.2-3A1.8 1.8 0 0 0 21 18h-4.8a1.8 1.8 0 0 0-1.8 1.8c0 1.5 1.2 3 4.2 3" clip-rule="evenodd"/></svg>