<svg xmlns="http://www.w3.org/2000/svg" width="24" height="24" fill="none"><path fill="#04071E" d="M4.8 5.996a1.2 1.2 0 0 0-1.2 1.2v.6a.6.6 0 0 1-1.2 0v-.6a2.4 2.4 0 0 1 2.4-2.4h.6a.6.6 0 0 1 0 1.2zM3.6 15.605a1.2 1.2 0 0 0 1.2 1.2h.3a.6.6 0 1 1 0 1.2h-.3a2.4 2.4 0 0 1-2.4-2.4v-.6a.6.6 0 1 1 1.2 0zM3.6 10.2a.6.6 0 0 0-1.2 0v2.4a.6.6 0 1 0 1.2 0zM19.2 5.996a1.2 1.2 0 0 1 1.2 1.2v.6a.6.6 0 1 0 1.2 0v-.6a2.4 2.4 0 0 0-2.4-2.4h-.6a.6.6 0 1 0 0 1.2zM19.2 16.805a1.2 1.2 0 0 0 1.2-1.2v-.6a.6.6 0 1 1 1.2 0v.6a2.4 2.4 0 0 1-2.4 2.4h-.303a.6.6 0 1 1 0-1.2zM21 9.6a.6.6 0 0 0-.6.6v2.4a.6.6 0 1 0 1.2 0v-2.4a.6.6 0 0 0-.6-.6M7.8 4.796a.6.6 0 0 0 0 1.2h3a.6.6 0 1 0 0-1.2zM12.6 5.396a.6.6 0 0 1 .6-.6h3a.6.6 0 1 1 0 1.2h-3a.6.6 0 0 1-.6-.6M8.659 9.705a.597.597 0 0 0-.168.83l2.783 4.174-1.486 2.228a2.4 2.4 0 1 0 .113 4.493 2.4 2.4 0 0 0 .887-3.83l1.207-1.81 1.21 1.817a2.4 2.4 0 1 0 4.018 2.497 2.4 2.4 0 0 0-3.02-3.164l-1.487-2.231.003-.004-.721-1.082-.003.004-2.503-3.753a.603.603 0 0 0-.833-.169m6.34 10.695a1.2 1.2 0 1 1 0-2.4 1.2 1.2 0 0 1 0 2.4M9 20.4A1.2 1.2 0 1 1 9 18a1.2 1.2 0 0 1 0 2.4M12.719 12.542l.72 1.082 2.06-3.089a.597.597 0 0 0-.168-.83.603.603 0 0 0-.833.169z"/><path fill="#04071E" fill-rule="evenodd" d="M2.25 7.196a2.55 2.55 0 0 1 2.55-2.55h.6a.75.75 0 1 1 0 1.5h-.6c-.58 0-1.05.47-1.05 1.05v.6a.75.75 0 0 1-1.5 0zm2.55-2.25a2.25 2.25 0 0 0-2.25 2.25v.6a.45.45 0 1 0 .9 0v-.6c0-.746.604-1.35 1.35-1.35h.6a.45.45 0 1 0 0-.9zm3 0a.45.45 0 1 0 0 .9h3a.45.45 0 0 0 0-.9zm-.75.45a.75.75 0 0 1 .75-.75h3a.75.75 0 0 1 0 1.5h-3a.75.75 0 0 1-.75-.75m5.4 0a.75.75 0 0 1 .75-.75h3a.75.75 0 0 1 0 1.5h-3a.75.75 0 0 1-.75-.75m.75-.45a.45.45 0 0 0 0 .9h3a.45.45 0 0 0 0-.9zm5.4 0a.45.45 0 0 0 0 .9h.6c.746 0 1.35.604 1.35 1.35v.6a.45.45 0 0 0 .9 0v-.6a2.25 2.25 0 0 0-2.25-2.25zm-.75.45a.75.75 0 0 1 .75-.75h.6a2.55 2.55 0 0 1 2.55 2.55v.6a.75.75 0 0 1-1.5 0v-.6c0-.58-.47-1.05-1.05-1.05h-.6a.75.75 0 0 1-.75-.75M3 9.75a.45.45 0 0 0-.45.45v2.4a.45.45 0 0 0 .9 0v-2.4A.45.45 0 0 0 3 9.75m-.75.45a.75.75 0 0 1 1.5 0v2.4a.75.75 0 0 1-1.5 0zM21 9.75a.45.45 0 0 0-.45.45v2.4a.45.45 0 0 0 .9 0v-2.4a.45.45 0 0 0-.45-.45m-.75.45a.75.75 0 0 1 1.5 0v2.4a.75.75 0 0 1-1.5 0zM9.368 9.957a.453.453 0 0 0-.626-.127.447.447 0 0 0-.126.622l2.838 4.257-1.605 2.408-.11-.038a2.25 2.25 0 1 0 .106 4.212 2.25 2.25 0 0 0 .832-3.59l-.078-.087 1.396-2.094 1.4 2.1-.077.086a2.25 2.25 0 0 0 .837 3.585 2.251 2.251 0 1 0 .098-4.21l-.11.039-1.607-2.411.002-.004-.54-.811-.003.004zm2.627 3.4L9.617 9.79a.753.753 0 0 0-1.04-.21.747.747 0 0 0-.21 1.038l2.727 4.091-1.368 2.05a2.55 2.55 0 1 0 .23 4.81 2.55 2.55 0 0 0 1.02-3.98l1.019-1.528 1.023 1.535a2.55 2.55 0 1 0 1.247-.834l-1.369-2.053.003-.004-.901-1.352zm3.253-3.527a.453.453 0 0 0-.626.127L12.9 12.542l.54.811 1.935-2.901a.447.447 0 0 0-.126-.622m-.875-.04a.753.753 0 0 1 1.04-.21c.347.228.44.693.21 1.038l-2.183 3.276-.902-1.352zM2.25 15.005a.75.75 0 0 1 1.5 0v.6c0 .58.47 1.05 1.05 1.05h.3a.75.75 0 0 1 0 1.5h-.3a2.55 2.55 0 0 1-2.55-2.55zm.75-.45a.45.45 0 0 0-.45.45v.6a2.25 2.25 0 0 0 2.25 2.25h.3a.45.45 0 0 0 0-.9h-.3a1.35 1.35 0 0 1-1.35-1.35v-.6a.45.45 0 0 0-.45-.45m17.25.45a.75.75 0 0 1 1.5 0v.6a2.55 2.55 0 0 1-2.55 2.55h-.303a.75.75 0 1 1 0-1.5h.303c.58 0 1.05-.47 1.05-1.05zm.75-.45a.45.45 0 0 0-.45.45v.6a1.35 1.35 0 0 1-1.35 1.35h-.303a.45.45 0 1 0 0 .9h.303a2.25 2.25 0 0 0 2.25-2.25v-.6a.45.45 0 0 0-.45-.45M9 18.15a1.05 1.05 0 1 0 0 2.1 1.05 1.05 0 0 0 0-2.1M7.65 19.2a1.35 1.35 0 1 1 2.7 0 1.35 1.35 0 0 1-2.7 0M15 18.15a1.05 1.05 0 1 0 0 2.1 1.05 1.05 0 0 0 0-2.1m-1.35 1.05a1.35 1.35 0 1 1 2.7 0 1.35 1.35 0 0 1-2.7 0" clip-rule="evenodd"/></svg>