<svg xmlns="http://www.w3.org/2000/svg" width="24" height="24" fill="none"><path fill="#04071E" d="M10.2 3.6a6.6 6.6 0 0 1 5.072 10.824l4.952 4.952a.6.6 0 0 1-.765.918l-.083-.07-4.953-4.952c-.409.34-.86.633-1.343.868a6.6 6.6 0 0 0-.343-1.172 5.4 5.4 0 1 0-7.874-3.937q-.597.163-1.143.429A6.6 6.6 0 0 1 10.2 3.6M3.678 13.73a2.4 2.4 0 0 1-1.717 2.974l-.553.141a5.7 5.7 0 0 0 .012 1.22l.42.1a2.4 2.4 0 0 1 1.747 3.022l-.152.507q.465.367 1.002.622l.39-.413a2.4 2.4 0 0 1 3.491.002l.405.43q.527-.246.986-.598l-.187-.668a2.4 2.4 0 0 1 1.717-2.974l.552-.14a5.6 5.6 0 0 0-.012-1.22l-.418-.1a2.4 2.4 0 0 1-1.748-3.023l.152-.506a5.2 5.2 0 0 0-1.002-.622l-.39.413a2.4 2.4 0 0 1-3.491-.002l-.405-.43q-.527.245-.986.597zM6.6 18.6a1.2 1.2 0 1 1 0-2.4 1.2 1.2 0 0 1 0 2.4"/><path fill="#04071E" fill-rule="evenodd" d="M10.2 3.75a6.45 6.45 0 0 0-6.367 7.491q.419-.188.863-.319a5.55 5.55 0 1 1 8.228 4.114q.16.429.263.882.613-.321 1.14-.761l.106-.088 5.044 5.044.072.06a.45.45 0 0 0 .57-.691l-5.05-5.05.088-.105A6.45 6.45 0 0 0 10.2 3.75M3.45 10.2a6.75 6.75 0 1 1 12.024 4.213l4.856 4.857a.75.75 0 0 1-.957 1.147l-.01-.008-.094-.078-4.856-4.857q-.586.469-1.268.801l-.175.085-.038-.191a6.4 6.4 0 0 0-.334-1.146l-.05-.124.119-.063a5.25 5.25 0 1 0-7.655-3.828l.02.132-.13.035a6.4 6.4 0 0 0-1.116.42l-.176.085-.037-.192A7 7 0 0 1 3.45 10.2m1.062 2.084.479.508a2.25 2.25 0 0 0 3.273.002l.465-.492.098.046c.368.174.713.39 1.03.64l.08.063-.18.604a2.25 2.25 0 0 0 1.638 2.834l.52.123.013.105a5.8 5.8 0 0 1 .013 1.252l-.01.104-.655.168a2.25 2.25 0 0 0-1.61 2.788l.215.765-.08.062a5.3 5.3 0 0 1-1.015.614l-.098.046-.479-.509a2.25 2.25 0 0 0-3.273-.001l-.465.492-.098-.047a5.3 5.3 0 0 1-1.03-.64l-.08-.062.18-.605a2.25 2.25 0 0 0-1.638-2.834l-.521-.123-.013-.104a5.8 5.8 0 0 1-.012-1.252l.01-.105.655-.168a2.25 2.25 0 0 0 1.61-2.787l-.215-.766.08-.062a5.3 5.3 0 0 1 1.015-.614zm-.85.836.16.57A2.55 2.55 0 0 1 2 16.85l-.45.114a5.5 5.5 0 0 0 .009.98l.316.074a2.55 2.55 0 0 1 1.857 3.212l-.123.409q.375.283.795.494l.315-.333a2.55 2.55 0 0 1 3.71.002l.33.35q.412-.202.78-.473l-.16-.57a2.55 2.55 0 0 1 1.824-3.159l.45-.115a5.5 5.5 0 0 0-.01-.98l-.316-.074A2.55 2.55 0 0 1 9.47 13.57l.121-.409a5 5 0 0 0-.795-.494L8.482 13a2.55 2.55 0 0 1-3.71-.002l-.33-.35a5 5 0 0 0-.78.472M6.6 16.35a1.05 1.05 0 1 0 0 2.1 1.05 1.05 0 0 0 0-2.1M5.25 17.4a1.35 1.35 0 1 1 2.7 0 1.35 1.35 0 0 1-2.7 0" clip-rule="evenodd"/></svg>