<svg xmlns="http://www.w3.org/2000/svg" width="24" height="24" fill="none"><path fill="#04071E" d="M18 11.088v.004l-13.598-6.8 2.61 6.71h6.627a.75.75 0 0 1 .743.649l.007.101a.75.75 0 0 1-.649.744l-.101.006H7.01l-2.609 6.71 9.706-4.853c.196.528.64.936 1.19 1.082L3.334 21.423c-.583.292-1.217-.244-1.065-.847l.03-.095 3.395-8.729-3.395-8.728a.73.73 0 0 1 .105-.73.75.75 0 0 1 .931-.215l18 9a.75.75 0 0 1 .35.976A1.8 1.8 0 0 0 21.25 12h-1.427zM15.75 14.5h.75v2.695a2 2 0 0 1-.263.991l-.464.814h5.453l-.463-.811a2 2 0 0 1-.263-.992V14.5h.75a.75.75 0 1 0 0-1.5h-5.5a.75.75 0 0 0 0 1.5m-.548 5.5-1.003 1.756A1.5 1.5 0 0 0 15.502 24h5.995a1.5 1.5 0 0 0 1.302-2.244L21.797 20z"/></svg>