<svg xmlns="http://www.w3.org/2000/svg" width="24" height="24" fill="none"><path fill="#04071E" d="M7 11.5A.75.75 0 1 0 7 10a.75.75 0 0 0 0 1.5m3.25-.75a.75.75 0 1 1-1.5 0 .75.75 0 0 1 1.5 0m-2 3.25a.75.75 0 1 0 0-1.5.75.75 0 0 0 0 1.5m3.25-.75a.75.75 0 1 1-1.5 0 .75.75 0 0 1 1.5 0m1.75.75a.75.75 0 1 0 0-1.5.75.75 0 0 0 0 1.5m3.25-.75a.75.75 0 1 1-1.5 0 .75.75 0 0 1 1.5 0M12 11.5a.75.75 0 1 0 0-1.5.75.75 0 0 0 0 1.5m3.25-.75a.75.75 0 1 1-1.5 0 .75.75 0 0 1 1.5 0m1.75.75a.75.75 0 1 0 0-1.5.75.75 0 0 0 0 1.5M4.907 7a2.75 2.75 0 0 0-2.675 3.386l1.071 4.501a2.75 2.75 0 0 0 2.676 2.114h12.038a2.75 2.75 0 0 0 2.675-2.112l1.074-4.501a2.75 2.75 0 0 0-2.674-3.389zm-1.216 3.039a1.25 1.25 0 0 1 1.216-1.54h14.185a1.25 1.25 0 0 1 1.215 1.54l-1.074 4.502a1.25 1.25 0 0 1-1.216.96H5.98a1.25 1.25 0 0 1-1.216-.96z"/></svg>