<svg xmlns="http://www.w3.org/2000/svg" width="24" height="24" fill="none"><path fill="#04071E" d="m20.952 21.486-2.25-6A.75.75 0 0 0 18 15h-1.5V3.75a2.25 2.25 0 0 0-2.25-2.25h-6A2.25 2.25 0 0 0 6 3.75V15H4.5a.75.75 0 0 0-.702.486l-2.25 6A.75.75 0 0 0 2.25 22.5h18a.75.75 0 0 0 .702-1.014M7.5 3.75A.75.75 0 0 1 8.25 3h6a.75.75 0 0 1 .75.75v13.5a.75.75 0 0 1-.75.75h-6a.75.75 0 0 1-.75-.75zM3.333 21l1.688-4.5H6v.75a2.25 2.25 0 0 0 2.25 2.25h6a2.25 2.25 0 0 0 2.25-2.25v-.75h.98l1.687 4.5zM9 6.75A.75.75 0 0 1 9.75 6h3a.75.75 0 1 1 0 1.5h-3A.75.75 0 0 1 9 6.75m0 6a.75.75 0 0 1 .75-.75h3a.75.75 0 1 1 0 1.5h-3a.75.75 0 0 1-.75-.75m0 3a.75.75 0 0 1 .75-.75h3a.75.75 0 1 1 0 1.5h-3a.75.75 0 0 1-.75-.75"/></svg>