<svg xmlns="http://www.w3.org/2000/svg" width="24" height="24" fill="none"><path fill="#04071E" d="M15 10.5h.75a.75.75 0 1 1 0 1.5H15zm1.28-5.78A.75.75 0 0 1 15.75 6h-1.523a3.8 3.8 0 0 0-.727-.727V5.25a.75.75 0 0 1 .75-.75h1.5a.75.75 0 0 1 .53.22m4.682 7.793 1.5 4.5a.75.75 0 0 1-.712.987h-4.884l-.488-1.464-.008-.014q-.009-.01-.01-.022h4.35l-1-3h-.348A2.25 2.25 0 0 1 17.25 15H15v-1.5h2.25a.75.75 0 0 0 .75-.75v-9a.75.75 0 0 0-.75-.75h-4.5a.75.75 0 0 0-.75.75v.827a3.7 3.7 0 0 0-.75-.077h-.75v-.75a2.25 2.25 0 0 1 2.25-2.25h4.5a2.25 2.25 0 0 1 2.25 2.25V12h.75a.75.75 0 0 1 .712.513M7.72 9.22a.75.75 0 0 0 .53 1.28h1.5a.75.75 0 1 0 0-1.5h-1.5a.75.75 0 0 0-.53.22m2.03 7.28h-1.5a.75.75 0 1 1 0-1.5h1.5a.75.75 0 1 1 0 1.5m6.337 5.916a.75.75 0 0 0 .263-.228h.008a.75.75 0 0 0 .105-.675l-1.5-4.5a.75.75 0 0 0-.713-.513h-.75V8.25A2.25 2.25 0 0 0 11.25 6h-4.5A2.25 2.25 0 0 0 4.5 8.25v8.25h-.75a.75.75 0 0 0-.712.513l-1.5 4.5a.75.75 0 0 0 .712.987h13.5a.75.75 0 0 0 .337-.084M6.22 17.78a.75.75 0 0 1-.22-.53v-9a.75.75 0 0 1 .75-.75h4.5a.75.75 0 0 1 .75.75v9a.75.75 0 0 1-.75.75h-4.5a.75.75 0 0 1-.53-.22m7.142.22h.348l1 3H3.29l1-3h.348a2.25 2.25 0 0 0 2.112 1.5h4.5a2.25 2.25 0 0 0 2.112-1.5"/></svg>