<svg xmlns="http://www.w3.org/2000/svg" width="24" height="24" fill="none"><path fill="#04071E" d="M16.8 10.827V5.4A1.8 1.8 0 0 0 15 3.6H9a1.8 1.8 0 0 0-1.8 1.8v13.2A1.8 1.8 0 0 0 9 20.4h2.52q.33.647.789 1.2H9a3 3 0 0 1-3-3V5.4a3 3 0 0 1 3-3h6a3 3 0 0 1 3 3v5.427a6.7 6.7 0 0 0-1.2 0M9 6a.6.6 0 0 0 0 1.2h6A.6.6 0 1 0 15 6zm-.6 9a.6.6 0 0 1 .6-.6h2.52q-.293.572-.471 1.2H9a.6.6 0 0 1-.6-.6m2.4 2.4q0-.303.027-.6H9A.6.6 0 1 0 9 18h1.827a7 7 0 0 1-.027-.6m12 0a5.4 5.4 0 1 1-10.8 0 5.4 5.4 0 0 1 10.8 0m-2.744-.524-3.565-1.98a.6.6 0 0 0-.89.524v3.96a.6.6 0 0 0 .89.525l3.565-1.98a.6.6 0 0 0 0-1.05"/><path fill="#04071E" fill-rule="evenodd" d="M9 2.55A2.85 2.85 0 0 0 6.15 5.4v13.2A2.85 2.85 0 0 0 9 21.45h3a7 7 0 0 1-.571-.9H9a1.95 1.95 0 0 1-1.95-1.95V5.4A1.95 1.95 0 0 1 9 3.45h6a1.95 1.95 0 0 1 1.95 1.95v5.265a7 7 0 0 1 .9 0V5.4A2.85 2.85 0 0 0 15 2.55zM5.85 5.4A3.15 3.15 0 0 1 9 2.25h6a3.15 3.15 0 0 1 3.15 3.15v5.591l-.163-.015a6.5 6.5 0 0 0-1.173 0l-.164.015V5.4A1.65 1.65 0 0 0 15 3.75H9A1.65 1.65 0 0 0 7.35 5.4v13.2c0 .911.739 1.65 1.65 1.65h2.611l.042.082q.324.631.771 1.172l.203.246H9a3.15 3.15 0 0 1-3.15-3.15zm2.4 1.2A.75.75 0 0 1 9 5.85h6a.75.75 0 0 1 0 1.5H9a.75.75 0 0 1-.75-.75M9 6.15a.45.45 0 1 0 0 .9h6a.45.45 0 0 0 0-.9zm8.4 6a5.25 5.25 0 1 0 0 10.5 5.25 5.25 0 0 0 0-10.5m-5.55 5.25a5.55 5.55 0 1 1 11.1 0 5.55 5.55 0 0 1-11.1 0M9 14.55a.45.45 0 0 0 0 .9h1.936q.141-.465.344-.9zm-.75.45a.75.75 0 0 1 .75-.75h2.765l-.112.218q-.286.559-.46 1.173l-.031.109H9a.75.75 0 0 1-.75-.75m7.2.42a.75.75 0 0 1 1.114-.656l3.565 1.98a.75.75 0 0 1 0 1.312l-3.565 1.98a.75.75 0 0 1-1.114-.656zm.969-.394a.45.45 0 0 0-.669.394v3.96c0 .343.369.56.669.394l3.564-1.98a.45.45 0 0 0 0-.787zM8.25 17.4a.75.75 0 0 1 .75-.75h1.991l-.015.164a6.5 6.5 0 0 0 0 1.172l.015.164h-1.99a.75.75 0 0 1-.75-.75m.75-.45a.45.45 0 0 0 0 .9h1.665a7 7 0 0 1 0-.9z" clip-rule="evenodd"/></svg>