<svg xmlns="http://www.w3.org/2000/svg" width="24" height="24" fill="none"><path fill="#04071E" d="M9 6a.6.6 0 0 0 0 1.2h6A.6.6 0 1 0 15 6zm-.6 9a.6.6 0 0 1 .6-.6h6a.6.6 0 1 1 0 1.2H9a.6.6 0 0 1-.6-.6m.6 1.8A.6.6 0 1 0 9 18h6a.6.6 0 1 0 0-1.2zM6 5.4a3 3 0 0 1 3-3h6a3 3 0 0 1 3 3V6h1.2a2.4 2.4 0 0 1 2.4 2.4v8.4a2.4 2.4 0 0 1-2.4 2.4h-1.26A3 3 0 0 1 15 21.6H9a3 3 0 0 1-2.94-2.4H4.8a2.4 2.4 0 0 1-2.4-2.4V8.4A2.4 2.4 0 0 1 4.8 6H6zM18 18h1.2a1.2 1.2 0 0 0 1.2-1.2V8.4a1.2 1.2 0 0 0-1.2-1.2H18zM6 7.2H4.8a1.2 1.2 0 0 0-1.2 1.2v8.4A1.2 1.2 0 0 0 4.8 18H6zm3-3.6a1.8 1.8 0 0 0-1.8 1.8v13.2A1.8 1.8 0 0 0 9 20.4h6a1.8 1.8 0 0 0 1.8-1.8V5.4A1.8 1.8 0 0 0 15 3.6z"/><path fill="#04071E" fill-rule="evenodd" d="M9 2.55A2.85 2.85 0 0 0 6.15 5.4v.75H4.8A2.25 2.25 0 0 0 2.55 8.4v8.4a2.25 2.25 0 0 0 2.25 2.25h1.383l.024.12A2.85 2.85 0 0 0 9 21.45h6a2.85 2.85 0 0 0 2.793-2.28l.024-.12H19.2a2.25 2.25 0 0 0 2.25-2.25V8.4a2.25 2.25 0 0 0-2.25-2.25h-1.35V5.4A2.85 2.85 0 0 0 15 2.55zM5.85 5.4A3.15 3.15 0 0 1 9 2.25h6a3.15 3.15 0 0 1 3.15 3.15v.45h1.05a2.55 2.55 0 0 1 2.55 2.55v8.4a2.55 2.55 0 0 1-2.55 2.55h-1.14a3.15 3.15 0 0 1-3.06 2.4H9a3.15 3.15 0 0 1-3.06-2.4H4.8a2.55 2.55 0 0 1-2.55-2.55V8.4A2.55 2.55 0 0 1 4.8 5.85h1.05zm1.2 0A1.95 1.95 0 0 1 9 3.45h6a1.95 1.95 0 0 1 1.95 1.95v13.2A1.95 1.95 0 0 1 15 20.55H9a1.95 1.95 0 0 1-1.95-1.95zM9 3.75A1.65 1.65 0 0 0 7.35 5.4v13.2c0 .911.739 1.65 1.65 1.65h6a1.65 1.65 0 0 0 1.65-1.65V5.4A1.65 1.65 0 0 0 15 3.75zM8.25 6.6A.75.75 0 0 1 9 5.85h6a.75.75 0 0 1 0 1.5H9a.75.75 0 0 1-.75-.75M9 6.15a.45.45 0 1 0 0 .9h6a.45.45 0 0 0 0-.9zM3.45 8.4c0-.746.604-1.35 1.35-1.35h1.35v11.1H4.8a1.35 1.35 0 0 1-1.35-1.35zM4.8 7.35c-.58 0-1.05.47-1.05 1.05v8.4c0 .58.47 1.05 1.05 1.05h1.05V7.35zm13.05-.3h1.35c.746 0 1.35.604 1.35 1.35v8.4a1.35 1.35 0 0 1-1.35 1.35h-1.35zm.3.3v10.5h1.05c.58 0 1.05-.47 1.05-1.05V8.4c0-.58-.47-1.05-1.05-1.05zM9 14.55a.45.45 0 0 0 0 .9h6a.45.45 0 0 0 0-.9zm-.75.45a.75.75 0 0 1 .75-.75h6a.75.75 0 0 1 0 1.5H9a.75.75 0 0 1-.75-.75m0 2.4a.75.75 0 0 1 .75-.75h6a.75.75 0 0 1 0 1.5H9a.75.75 0 0 1-.75-.75m.75-.45a.45.45 0 0 0 0 .9h6a.45.45 0 0 0 0-.9z" clip-rule="evenodd"/></svg>