<svg xmlns="http://www.w3.org/2000/svg" width="24" height="24" fill="none"><path fill="#04071E" d="M16.851 8.946C16.502 8.659 16 7.984 16 6.35c0-1.072-.341-1.918-.88-2.562-.528-.632-1.212-1.03-1.85-1.285a7.4 7.4 0 0 0-1.732-.44A8 8 0 0 0 10.735 2h-.002c-2.266 0-3.988.62-5.278 1.597-1.282.97-2.085 2.252-2.587 3.497-.502 1.243-.716 2.475-.805 3.388-.329 3.347.401 7.27 3.188 9.435C7.259 21.477 9.955 22 12.75 22c2.575 0 4.876-.575 6.554-1.815C21.01 18.922 22 17.02 22 14.56c0-2.32-1.088-3.68-2.207-4.433a5.7 5.7 0 0 0-1.485-.705c-.481-.148-1.056-.147-1.457-.476m-10.68 9.787c-2.395-1.862-2.896-5.249-2.615-8.105.08-.822.27-1.903.702-2.972S5.351 5.557 6.36 4.793c1.262-.955 2.956-1.377 4.525-1.287.107.006.265.018.455.044.385.05.885.152 1.374.347s.936.472 1.255.853c.308.368.531.872.531 1.6 0 1.966.623 3.116 1.399 3.754a2.9 2.9 0 0 0 1.041.553c.304.087.621.104.924.198.302.094.7.253 1.093.518 2.605 1.75 1.68 5.96-.546 7.606-1.334.986-3.282 1.521-5.661 1.521-2.65 0-4.951-.503-6.579-1.767"/></svg>