<svg xmlns="http://www.w3.org/2000/svg" width="24" height="24" fill="none"><path fill="#04071E" d="M12 11.4a2.4 2.4 0 1 0 0-4.8 2.4 2.4 0 0 0 0 4.8m0 6c3 0 4.2-1.506 4.2-3a1.8 1.8 0 0 0-1.8-1.8H9.6a1.8 1.8 0 0 0-1.8 1.8c0 1.5 1.2 3 4.2 3m.333-14.9a.6.6 0 0 0-.666 0Q8.181 4.827 4.115 5.407A.6.6 0 0 0 3.6 6v5.4c0 4.67 2.769 8.077 8.185 10.16a.6.6 0 0 0 .43 0c5.417-2.083 8.185-5.49 8.185-10.16V6a.6.6 0 0 0-.515-.594q-4.064-.58-7.552-2.905M4.8 6.514a19.2 19.2 0 0 0 6.72-2.498l.48-.298.481.298a19.2 19.2 0 0 0 6.72 2.498V11.4c0 4.07-2.362 7.036-7.2 8.956-4.84-1.92-7.2-4.886-7.2-8.956z"/><path fill="#04071E" fill-rule="evenodd" d="M11.584 2.376a.75.75 0 0 1 .832 0q3.46 2.307 7.49 2.882A.75.75 0 0 1 20.55 6v5.4c0 2.367-.702 4.42-2.094 6.144-1.39 1.722-3.462 3.108-6.187 4.156a.75.75 0 0 1-.538 0c-2.725-1.048-4.796-2.434-6.186-4.156C4.153 15.82 3.45 13.767 3.45 11.4V6a.75.75 0 0 1 .644-.742q4.03-.575 7.49-2.882m.666.25a.45.45 0 0 0-.5 0Q8.236 4.969 4.138 5.555A.45.45 0 0 0 3.75 6v5.4c0 2.303.682 4.288 2.028 5.956 1.348 1.67 3.37 3.029 6.06 4.064.105.04.22.04.324 0 2.691-1.035 4.712-2.395 6.06-4.064 1.346-1.668 2.028-3.653 2.028-5.956V6a.45.45 0 0 0-.386-.445q-4.1-.586-7.614-2.93M12 3.54l.559.346v.001a19 19 0 0 0 6.666 2.479l.125.02V11.4c0 2.067-.6 3.86-1.818 5.378-1.217 1.517-3.041 2.751-5.476 3.717l-.056.022-.055-.022c-2.435-.966-4.26-2.2-5.476-3.717C5.25 15.26 4.65 13.467 4.65 11.4V6.387l.125-.021a19 19 0 0 0 6.666-2.479zm0 .353-.403.25A19.3 19.3 0 0 1 4.95 6.64v4.76c0 2.004.58 3.73 1.753 5.19 1.165 1.453 2.922 2.654 5.297 3.604 2.376-.95 4.133-2.15 5.298-3.603 1.172-1.462 1.752-3.187 1.752-5.191V6.64a19.3 19.3 0 0 1-6.646-2.496l-.002-.002zM9.45 9a2.55 2.55 0 1 1 5.1 0 2.55 2.55 0 0 1-5.1 0M12 6.75a2.25 2.25 0 1 0 0 4.5 2.25 2.25 0 0 0 0-4.5M7.65 14.4a1.95 1.95 0 0 1 1.95-1.95h4.8a1.95 1.95 0 0 1 1.95 1.95 2.79 2.79 0 0 1-1.029 2.176c-.71.592-1.797.974-3.32.974-1.525 0-2.612-.38-3.322-.972A2.79 2.79 0 0 1 7.65 14.4m1.95-1.65a1.65 1.65 0 0 0-1.65 1.65c0 .709.282 1.415.921 1.948.64.533 1.653.902 3.13.902 1.475 0 2.488-.37 3.128-.904a2.49 2.49 0 0 0 .921-1.946 1.65 1.65 0 0 0-1.65-1.65z" clip-rule="evenodd"/></svg>