<svg xmlns="http://www.w3.org/2000/svg" width="24" height="24" fill="none"><path fill="#04071E" d="M12.333 2.5a.6.6 0 0 0-.666 0Q8.181 4.827 4.115 5.407A.6.6 0 0 0 3.6 6v5.4c0 4.67 2.769 8.077 8.185 10.16a.6.6 0 0 0 .43 0q.62-.238 1.194-.5a7 7 0 0 1-.62-1.036q-.383.17-.789.332c-4.838-1.92-7.2-4.886-7.2-8.956V6.513a19.2 19.2 0 0 0 6.72-2.498l.48-.298.481.298a19.2 19.2 0 0 0 6.72 2.498v3.596l.006.008q.36.374.717.643.238.18.476.318V6a.6.6 0 0 0-.515-.594q-4.064-.58-7.552-2.905m-.284 10.397a1.7 1.7 0 0 1 1.122-1.219l2.254-2.254a.6.6 0 1 0-.85-.848L12 11.152 9.424 8.576a.6.6 0 1 0-.848.848L11.152 12l-2.576 2.576a.6.6 0 0 0 .848.848L12 12.85zm8.351-.48a5.6 5.6 0 0 1-1.2-.7 7 7 0 0 1-.86-.77.467.467 0 0 0-.678 0c-1.194 1.242-2.514 1.853-3.982 1.853a.49.49 0 0 0-.48.5v3.001l.005.319q.05 1.435.529 2.58a5.77 5.77 0 0 0 1.866 2.4q.942.72 2.248 1.174a.46.46 0 0 0 .304 0c3.073-1.067 4.648-3.254 4.648-6.473V13.3l-.01-.1a.485.485 0 0 0-.47-.4q-.366 0-.72-.05a4.9 4.9 0 0 1-1.2-.334"/><path fill="#04071E" fill-rule="evenodd" d="M11.584 2.376a.75.75 0 0 1 .832 0q3.46 2.307 7.49 2.882A.75.75 0 0 1 20.55 6v5.339l-.225-.131a5 5 0 0 1-.491-.328 6 6 0 0 1-.735-.66l-.049-.05V6.64a19.3 19.3 0 0 1-6.646-2.496l-.002-.002L12 3.893l-.403.25A19.3 19.3 0 0 1 4.95 6.64v4.76c0 2.004.58 3.73 1.753 5.19 1.165 1.453 2.922 2.654 5.297 3.604q.375-.15.728-.307l.133-.06.063.131q.26.535.606 1.014l.107.149-.166.076q-.578.263-1.202.503a.75.75 0 0 1-.538 0c-2.725-1.048-4.796-2.434-6.186-4.156C4.153 15.82 3.45 13.767 3.45 11.4V6a.75.75 0 0 1 .644-.742q4.03-.575 7.49-2.882m.666.25a.45.45 0 0 0-.5 0Q8.236 4.969 4.138 5.555A.45.45 0 0 0 3.75 6v5.4c0 2.303.682 4.288 2.028 5.956 1.348 1.67 3.37 3.029 6.06 4.064.105.04.22.04.324 0q.527-.203 1.02-.422-.256-.375-.463-.78-.324.142-.663.277l-.056.022-.055-.022c-2.435-.966-4.26-2.2-5.476-3.717C5.25 15.26 4.65 13.467 4.65 11.4V6.387l.125-.021a19 19 0 0 0 6.666-2.479l.56-.347.558.346v.001a19 19 0 0 0 6.666 2.479l.125.02v3.663q.335.342.665.592.117.09.235.167V6a.45.45 0 0 0-.386-.445q-4.1-.586-7.614-2.93M8.47 8.47a.75.75 0 0 1 1.06 0L12 10.94l2.47-2.47a.75.75 0 1 1 1.06 1.06l-2.28 2.28-.034.011a1.55 1.55 0 0 0-1.022 1.111l-.063.26-.13-.131-2.47 2.47A.75.75 0 0 1 8.47 14.47L10.94 12 8.47 9.53a.75.75 0 0 1 0-1.06m3.487 4.21-2.639 2.638a.45.45 0 0 1-.636-.636L11.364 12 8.682 9.318a.45.45 0 1 1 .636-.636L12 11.364l2.682-2.682a.45.45 0 0 1 .636.636l-2.228 2.229c-.541.185-.95.614-1.133 1.132m5.596-1.838a.617.617 0 0 1 .896.001q.411.43.842.755.567.428 1.167.68a4.7 4.7 0 0 0 1.862.372c.31 0 .56.228.618.52l.001.008.011.115V16.3c0 1.634-.4 3.018-1.2 4.131s-1.99 1.943-3.549 2.484a.6.6 0 0 1-.402 0q-1.326-.46-2.29-1.197a5.925 5.925 0 0 1-1.913-2.461q-.492-1.175-.54-2.633v-.003l-.006-.32V13.3a.64.64 0 0 1 .63-.65c1.42 0 2.703-.59 3.873-1.808m.68.209a.317.317 0 0 0-.463 0c-1.217 1.266-2.574 1.899-4.09 1.899a.34.34 0 0 0-.33.35v3l.005.316q.05 1.41.517 2.526a5.6 5.6 0 0 0 1.819 2.339q.92.704 2.207 1.152a.3.3 0 0 0 .205 0c1.513-.526 2.647-1.323 3.403-2.376s1.144-2.372 1.144-3.956v-2.994l-.008-.085a.335.335 0 0 0-.322-.272q-.376 0-.741-.052a5 5 0 0 1-1.237-.343 5.7 5.7 0 0 1-1.232-.718q-.451-.342-.878-.786" clip-rule="evenodd"/></svg>