<svg xmlns="http://www.w3.org/2000/svg" width="24" height="24" fill="none"><path fill="#04071E" d="M12.333 2.5a.6.6 0 0 0-.666 0Q8.181 4.827 4.115 5.407A.6.6 0 0 0 3.6 6v5.4c0 4.67 2.769 8.077 8.185 10.16a.6.6 0 0 0 .43 0l.047-.018a6.6 6.6 0 0 1-.888-1.447C6.958 18.173 4.8 15.292 4.8 11.4V6.513a19.2 19.2 0 0 0 6.72-2.498l.48-.298.481.298a19.2 19.2 0 0 0 6.72 2.498v4.535q.627.18 1.199.471V6a.6.6 0 0 0-.515-.594q-4.064-.58-7.552-2.905m-1.532 14.808a6.58 6.58 0 0 1 2.07-4.709H9.6a1.8 1.8 0 0 0-1.8 1.8c0 1.282.875 2.563 3 2.91M14.4 9a2.4 2.4 0 1 1-4.8 0 2.4 2.4 0 0 1 4.8 0m8.4 8.401a5.4 5.4 0 1 1-10.8 0 5.4 5.4 0 0 1 10.8 0M18 15a.6.6 0 1 0-1.2 0v1.8H15a.6.6 0 1 0 0 1.2h1.8v1.8a.6.6 0 1 0 1.2 0V18h1.8a.6.6 0 1 0 0-1.2H18z"/><path fill="#04071E" fill-rule="evenodd" d="M11.584 2.376a.75.75 0 0 1 .832 0q3.46 2.307 7.49 2.882A.75.75 0 0 1 20.55 6v5.52l-.003.243-.216-.11a6.4 6.4 0 0 0-1.172-.46l-.109-.031V6.64a19.3 19.3 0 0 1-6.646-2.496l-.002-.002L12 3.893l-.403.25A19.3 19.3 0 0 1 4.95 6.64v4.76c0 1.916.53 3.576 1.6 4.995 1.072 1.421 2.692 2.608 4.884 3.563l.053.023.024.053c.228.51.52.985.867 1.414l.13.16-.238.092a.75.75 0 0 1-.539 0c-2.725-1.048-4.796-2.434-6.186-4.156C4.153 15.82 3.45 13.767 3.45 11.4V6a.75.75 0 0 1 .644-.742q4.03-.575 7.49-2.882m.666.25a.45.45 0 0 0-.5 0Q8.236 4.969 4.138 5.555A.45.45 0 0 0 3.75 6v5.4c0 2.303.682 4.288 2.028 5.956 1.348 1.67 3.37 3.029 6.06 4.064q.08.03.162.03a6.8 6.8 0 0 1-.739-1.24c-2.198-.965-3.847-2.172-4.95-3.634-1.112-1.476-1.66-3.2-1.66-5.176V6.387l.124-.021a19 19 0 0 0 6.666-2.479l.56-.347.558.346v.001a19 19 0 0 0 6.666 2.479l.125.02v4.55q.465.14.9.343V6a.45.45 0 0 0-.386-.445q-4.1-.586-7.614-2.93M12 6.749a2.25 2.25 0 1 0 0 4.5 2.25 2.25 0 0 0 0-4.5M9.45 9a2.55 2.55 0 1 1 5.1 0 2.55 2.55 0 0 1-5.1 0m7.95 3.151a5.25 5.25 0 1 0 0 10.5 5.25 5.25 0 0 0 0-10.5m-5.55 5.25a5.55 5.55 0 1 1 11.1 0 5.55 5.55 0 0 1-11.1 0m-4.2-3a1.95 1.95 0 0 1 1.95-1.95h3.648l-.274.259a6.43 6.43 0 0 0-2.023 4.601l-.003.174-.171-.028c-1.089-.177-1.872-.596-2.383-1.15A2.77 2.77 0 0 1 7.65 14.4m1.95-1.65a1.65 1.65 0 0 0-1.65 1.65c0 .605.207 1.208.664 1.703.432.467 1.096.844 2.041 1.027a6.73 6.73 0 0 1 1.853-4.38zM16.65 15a.75.75 0 0 1 1.5 0v1.65h1.65a.75.75 0 0 1 0 1.5h-1.65v1.65a.75.75 0 0 1-1.5 0v-1.65H15a.75.75 0 0 1 0-1.5h1.65zm.75-.45a.45.45 0 0 0-.45.45v1.95H15a.45.45 0 0 0 0 .9h1.95v1.95a.45.45 0 0 0 .9 0v-1.95h1.95a.45.45 0 0 0 0-.9h-1.95V15a.45.45 0 0 0-.45-.45" clip-rule="evenodd"/></svg>