<svg xmlns="http://www.w3.org/2000/svg" width="24" height="24" fill="none"><path fill="#04071E" d="M11.314 3.527a.75.75 0 1 0-.12-1.495C6.049 2.442 2 6.748 2 12c0 5.523 4.477 10 10 10 5.249 0 9.553-4.044 9.967-9.186a.75.75 0 1 0-1.495-.12 8.5 8.5 0 1 1-9.158-9.167m6.383 1.147a.75.75 0 0 1 1.06-.046q.322.295.616.617a.75.75 0 0 1-1.105 1.013 9 9 0 0 0-.525-.524.75.75 0 0 1-.046-1.06M11.25 6a.75.75 0 0 1 .743.648L12 6.75V12h3.25a.75.75 0 0 1 .102 1.493l-.102.007h-4a.75.75 0 0 1-.743-.648l-.007-.102v-6a.75.75 0 0 1 .75-.75m2.531-3.11a.75.75 0 0 1 .925-.52q.55.156 1.074.37a.75.75 0 1 1-.567 1.388q-.444-.182-.912-.313a.75.75 0 0 1-.52-.925m7.478 5.326a.75.75 0 1 0-1.389.568 8 8 0 0 1 .315.914.75.75 0 0 0 1.444-.405 9.91 9.91 0 0 0-.37-1.078"/></svg>