<svg xmlns="http://www.w3.org/2000/svg" width="24" height="24" fill="none"><path fill="#04071E" fill-rule="evenodd" d="M7 5v2H5.5A1.5 1.5 0 0 0 4 8.5V18a4 4 0 0 0 4 4h4.81a6.5 6.5 0 0 1-1.078-1.5H8A2.5 2.5 0 0 1 5.5 18V8.5h7.51v4.3c.444-.425.95-.787 1.5-1.073V8.5h3.99v2.576c.523.081 1.026.224 1.5.422V8.5A1.5 1.5 0 0 0 18.5 7H17V5a3 3 0 0 0-5-2.236A3 3 0 0 0 7 5m4.5 0v2h-3V5a1.5 1.5 0 1 1 3 0m4 2H13V5c0-.334-.055-.656-.156-.956A1.5 1.5 0 0 1 15.5 5z" clip-rule="evenodd"/><path fill="#04071E" fill-rule="evenodd" d="M23 17.5a5.5 5.5 0 1 0-11 0 5.5 5.5 0 0 0 11 0m-9 0a.5.5 0 0 1 .5-.5h4.793l-1.647-1.646a.5.5 0 0 1 .708-.708l2.5 2.5a.5.5 0 0 1 0 .708l-2.5 2.5a.5.5 0 0 1-.708-.708L19.293 18H14.5a.5.5 0 0 1-.5-.5" clip-rule="evenodd"/></svg>