<svg xmlns="http://www.w3.org/2000/svg" width="24" height="24" fill="none"><path fill="#04071E" d="M3.6 6.6a3 3 0 0 1 3-3h10.8a3 3 0 0 1 3 3V15c0-1.286-.45-2.467-1.2-3.394V6.6a1.8 1.8 0 0 0-1.8-1.8H6.6a1.8 1.8 0 0 0-1.8 1.8v10.8a1.8 1.8 0 0 0 1.8 1.8h5.006c.927.75 2.108 1.2 3.394 1.2H6.6a3 3 0 0 1-3-3zm3.6 1.2a.6.6 0 1 1 1.2 0v8.4a.6.6 0 0 1-1.2 0zm12 7.2c0 .943-.31 1.814-.836 2.515l3.06 3.06a.6.6 0 1 1-.848.85l-3.06-3.061A4.2 4.2 0 1 1 19.2 15M18 15a3 3 0 1 0-6 0 3 3 0 0 0 6 0"/><path fill="#04071E" fill-rule="evenodd" d="M6.6 3.75A2.85 2.85 0 0 0 3.75 6.6v10.8a2.85 2.85 0 0 0 2.85 2.85h6.596a5.5 5.5 0 0 1-1.643-.9H6.6a1.95 1.95 0 0 1-1.95-1.95V6.6A1.95 1.95 0 0 1 6.6 4.65h10.8a1.95 1.95 0 0 1 1.95 1.95v4.953c.387.487.694 1.042.9 1.642V6.6a2.85 2.85 0 0 0-2.85-2.85zM20.55 15V6.6a3.15 3.15 0 0 0-3.15-3.15H6.6A3.15 3.15 0 0 0 3.45 6.6v10.8a3.15 3.15 0 0 0 3.15 3.15H15v-.3a5.23 5.23 0 0 1-3.3-1.167l-.041-.033H6.6a1.65 1.65 0 0 1-1.65-1.65V6.6c0-.911.739-1.65 1.65-1.65h10.8c.912 0 1.65.739 1.65 1.65v5.059l.034.04A5.23 5.23 0 0 1 20.25 15zM7.8 7.35a.45.45 0 0 0-.45.45v8.4a.45.45 0 0 0 .9 0V7.8a.45.45 0 0 0-.45-.45m-.75.45a.75.75 0 1 1 1.5 0v8.4a.75.75 0 0 1-1.5 0zM15 10.95a4.05 4.05 0 1 0 2.426 7.294l.104-.078 3.152 3.152a.45.45 0 1 0 .636-.636l-3.152-3.153.078-.104A4.05 4.05 0 0 0 15 10.95M10.65 15a4.35 4.35 0 1 1 7.91 2.5l2.97 2.97a.75.75 0 0 1-1.06 1.06l-2.97-2.97A4.35 4.35 0 0 1 10.65 15m1.2 0a3.15 3.15 0 1 1 6.3 0 3.15 3.15 0 0 1-6.3 0M15 12.15a2.85 2.85 0 1 0 0 5.7 2.85 2.85 0 0 0 0-5.7" clip-rule="evenodd"/></svg>