<svg xmlns="http://www.w3.org/2000/svg" width="24" height="24" fill="none"><path fill="#04071E" d="M3.6 6.6a3 3 0 0 1 3-3h10.8a3 3 0 0 1 3 3v10.8a3 3 0 0 1-3 3h-3.102a1.8 1.8 0 0 0-.425-.673l-.527-.527H17.4a1.8 1.8 0 0 0 1.8-1.8V6.6a1.8 1.8 0 0 0-1.8-1.8H6.6a1.8 1.8 0 0 0-1.8 1.8v3.307a5.4 5.4 0 0 0-1.2.602zm6.364 10.915a4.2 4.2 0 1 0-.849.849l3.06 3.06a.6.6 0 0 0 .85-.848zM6.6 18a3 3 0 1 1 0-6 3 3 0 0 1 0 6m9.6-10.8a.6.6 0 0 0-.6.6v8.4a.6.6 0 0 0 1.2 0V7.8a.6.6 0 0 0-.6-.6"/><path fill="#04071E" fill-rule="evenodd" d="M6.6 3.75A2.85 2.85 0 0 0 3.75 6.6v3.637q.427-.256.9-.435V6.6A1.95 1.95 0 0 1 6.6 4.65h10.8a1.95 1.95 0 0 1 1.95 1.95v10.8a1.95 1.95 0 0 1-1.95 1.95h-3.692l.27.271c.187.186.327.4.422.629h3a2.85 2.85 0 0 0 2.85-2.85V6.6a2.85 2.85 0 0 0-2.85-2.85zM3.45 6.6A3.15 3.15 0 0 1 6.6 3.45h10.8a3.15 3.15 0 0 1 3.15 3.15v10.8a3.15 3.15 0 0 1-3.15 3.15h-3.209l-.035-.1a1.64 1.64 0 0 0-.39-.617l-.783-.783H17.4a1.65 1.65 0 0 0 1.65-1.65V6.6a1.65 1.65 0 0 0-1.65-1.65H6.6A1.65 1.65 0 0 0 4.95 6.6v3.413l-.1.036a5.2 5.2 0 0 0-1.167.585l-.233.156zm12 1.2a.75.75 0 0 1 1.5 0v8.4a.75.75 0 0 1-1.5 0zm.75-.45a.45.45 0 0 0-.45.45v8.4a.45.45 0 0 0 .9 0V7.8a.45.45 0 0 0-.45-.45M2.25 15a4.35 4.35 0 1 1 7.91 2.5l2.97 2.97a.75.75 0 0 1-1.06 1.06L9.1 18.56A4.35 4.35 0 0 1 2.25 15m4.35-4.05a4.05 4.05 0 1 0 2.425 7.294l.104-.078 3.153 3.152a.45.45 0 1 0 .636-.636l-3.152-3.153.078-.104A4.05 4.05 0 0 0 6.6 10.95m0 1.2a2.85 2.85 0 1 0 0 5.7 2.85 2.85 0 0 0 0-5.7M3.45 15a3.15 3.15 0 1 1 6.3 0 3.15 3.15 0 0 1-6.3 0" clip-rule="evenodd"/></svg>