<svg xmlns="http://www.w3.org/2000/svg" width="24" height="24" fill="none"><path fill="#04071E" d="M8.75 15.25c.763 0 1.253-.221 1.538-.475.284-.252.406-.57.395-.875-.018-.547-.54-1.4-2.183-1.4-.719 0-1.28.217-1.661.434a3 3 0 0 0-.527.378l-.019.018a.75.75 0 0 1-1.09-1.031l.002-.002.003-.003.006-.006.016-.017.051-.05q.064-.06.176-.154c.15-.123.364-.281.642-.438a4.85 4.85 0 0 1 2.401-.63c2.209 0 3.63 1.272 3.682 2.85a2.61 2.61 0 0 1-1.02 2.15q.063.051.123.105c.612.544.923 1.288.897 2.046C12.13 19.728 10.71 21 8.5 21A4.85 4.85 0 0 1 6.1 20.37a4.5 4.5 0 0 1-.818-.593l-.05-.05-.017-.016-.006-.006-.002-.003h-.001l-.001-.002s-.465-.592.032-1.06a.75.75 0 0 1 1.056.028l.001.001.019.018q.029.028.098.086c.093.077.237.184.429.292.381.216.942.434 1.661.434 1.643 0 2.165-.854 2.183-1.4a1.11 1.11 0 0 0-.395-.876c-.285-.253-.775-.474-1.538-.474a.75.75 0 1 1 0-1.5m5.449-2.621c.554-.992 1.483-1.63 2.803-1.63s2.25.638 2.803 1.63c.522.933.697 2.147.697 3.37 0 1.225-.175 2.438-.697 3.372-.553.991-1.483 1.629-2.803 1.629s-2.25-.638-2.803-1.63c-.521-.933-.697-2.146-.697-3.37s.175-2.438.697-3.371m1.31.731c-.338.605-.507 1.516-.507 2.64 0 1.123.168 2.035.506 2.64.306.546.751.86 1.494.86s1.188-.314 1.494-.86c.338-.605.506-1.517.506-2.64s-.168-2.035-.506-2.64c-.306-.546-.751-.86-1.494-.86s-1.188.313-1.494.86M2.75 2.5a.75.75 0 0 0-.75.75v5.5c0 .414.336.75.75.75h5.5a.75.75 0 0 0 0-1.5H4.342c1.059-1.398 2.428-2.536 4.13-3.062a9.7 9.7 0 0 1 6.267.165c2.028.755 3.909 2.285 4.853 4.007a.75.75 0 1 0 1.316-.72c-1.142-2.083-3.33-3.832-5.647-4.693a11.2 11.2 0 0 0-7.233-.192C6.15 4.086 4.653 5.261 3.5 6.649V3.25a.75.75 0 0 0-.75-.75"/></svg>