<svg xmlns="http://www.w3.org/2000/svg" width="24" height="24" fill="none"><path fill="#04071E" d="M8 14a.5.5 0 0 0-.5.5v4a.5.5 0 0 0 .5.5h8a.5.5 0 0 0 .5-.5v-4a.5.5 0 0 0-.5-.5zm-2 .5a2 2 0 0 1 2-2h8a2 2 0 0 1 2 2v4a2 2 0 0 1-2 2H8a2 2 0 0 1-2-2zM1 3.75a.75.75 0 1 1 1.5 0v3.4c1.153-1.388 2.65-2.563 4.528-3.145a11.2 11.2 0 0 1 7.233.192c2.316.862 4.505 2.61 5.647 4.693a.75.75 0 0 1-1.316.72c-.944-1.722-2.825-3.252-4.854-4.007a9.7 9.7 0 0 0-6.266-.165C5.77 5.965 4.4 7.102 3.342 8.5H7.25a.75.75 0 0 1 0 1.5h-5.5A.75.75 0 0 1 1 9.25z"/></svg>