<svg xmlns="http://www.w3.org/2000/svg" width="24" height="24" fill="none"><path fill="#04071E" d="M8.244 13.004a.75.75 0 0 1 .662 1.104l-.057.089-4.622 6.302h4.017a.75.75 0 0 1 .743.649l.007.101a.75.75 0 0 1-.648.744l-.102.006H2.747a.75.75 0 0 1-.661-1.104l.057-.09 4.62-6.302H2.749a.75.75 0 0 1-.743-.648l-.007-.101a.75.75 0 0 1 .649-.744l.101-.006zM21.252 2c.599 0 .943.659.638 1.144l-.06.084-8.491 10.268h7.913a.75.75 0 0 1 .743.648l.007.102a.75.75 0 0 1-.648.743l-.102.007h-9.505a.75.75 0 0 1-.638-1.144l.06-.084L19.66 3.5h-7.912a.75.75 0 0 1-.743-.647l-.007-.102a.75.75 0 0 1 .649-.743L11.747 2z"/></svg>