<svg xmlns="http://www.w3.org/2000/svg" width="24" height="24" fill="none"><path fill="#04071E" d="M12 3.6A8.4 8.4 0 0 0 3.6 12a.6.6 0 1 1-1.2 0 9.6 9.6 0 1 1 9.6 9.6.6.6 0 1 1 0-1.2 8.4 8.4 0 1 0 0-16.8"/><path fill="#04071E" fill-rule="evenodd" d="M12 2.55A9.45 9.45 0 0 0 2.55 12a.45.45 0 0 0 .9 0A8.55 8.55 0 1 1 12 20.55a.45.45 0 0 0 0 .9 9.45 9.45 0 1 0 0-18.9M2.25 12c0-5.385 4.365-9.75 9.75-9.75s9.75 4.365 9.75 9.75-4.365 9.75-9.75 9.75a.75.75 0 0 1 0-1.5A8.25 8.25 0 1 0 3.75 12a.75.75 0 0 1-1.5 0" clip-rule="evenodd"/></svg>