<svg xmlns="http://www.w3.org/2000/svg" width="24" height="24" fill="none"><path fill="#04071E" d="M1.8 12a.6.6 0 0 1 .6-.6h18a.6.6 0 1 1 0 1.2h-18a.6.6 0 0 1-.6-.6m4.8 9a2.4 2.4 0 0 1-2.4-2.4v-4.8h1.2v4.8a1.2 1.2 0 0 0 1.2 1.2h9.6a1.2 1.2 0 0 0 1.2-1.2v-4.8h1.2v4.8a2.4 2.4 0 0 1-2.4 2.4zM5.4 5.4a1.2 1.2 0 0 1 1.2-1.2h.6a.6.6 0 0 0 0-1.2h-.6a2.4 2.4 0 0 0-2.4 2.4V6a.6.6 0 0 0 1.2 0zm12 0a1.2 1.2 0 0 0-1.2-1.2h-.6a.6.6 0 1 1 0-1.2h.6a2.4 2.4 0 0 1 2.4 2.4V6a.6.6 0 1 1-1.2 0zM9 3.6a.6.6 0 0 0 .6.6h3.6a.6.6 0 1 0 0-1.2H9.6a.6.6 0 0 0-.6.6M4.2 8.4a.6.6 0 0 1 1.2 0v1.2a.6.6 0 0 1-1.2 0zM18 7.8a.6.6 0 0 0-.6.6v1.2a.6.6 0 1 0 1.2 0V8.4a.6.6 0 0 0-.6-.6"/><path fill="#04071E" fill-rule="evenodd" d="M1.95 12c0 .248.202.45.45.45h18a.45.45 0 0 0 0-.9h-18a.45.45 0 0 0-.45.45m.45.75a.75.75 0 0 1 0-1.5h18a.75.75 0 0 1 0 1.5zm1.95 5.85a2.25 2.25 0 0 0 2.25 2.25h9.6a2.25 2.25 0 0 0 2.25-2.25v-4.65h-.9v4.65a1.35 1.35 0 0 1-1.35 1.35H6.6a1.35 1.35 0 0 1-1.35-1.35v-4.65h-.9zm2.25 2.55a2.55 2.55 0 0 1-2.55-2.55v-4.95h1.5v4.95c0 .58.47 1.05 1.05 1.05h9.6c.58 0 1.05-.47 1.05-1.05v-4.95h1.5v4.95a2.55 2.55 0 0 1-2.55 2.55zM4.35 9.6a.45.45 0 1 0 .9 0V8.4a.45.45 0 1 0-.9 0zm.45.75a.75.75 0 0 1-.75-.75V8.4a.75.75 0 0 1 1.5 0v1.2a.75.75 0 0 1-.75.75m0-3.6A.75.75 0 0 1 4.05 6v-.6A2.55 2.55 0 0 1 6.6 2.85h.6a.75.75 0 0 1 0 1.5h-.6c-.58 0-1.05.47-1.05 1.05V6a.75.75 0 0 1-.75.75M4.35 6a.45.45 0 1 0 .9 0v-.6c0-.746.605-1.35 1.35-1.35h.6a.45.45 0 1 0 0-.9h-.6A2.25 2.25 0 0 0 4.35 5.4zM9.6 4.35a.75.75 0 0 1 0-1.5h3.6a.75.75 0 0 1 0 1.5zm-.45-.75c0 .248.202.45.45.45h3.6a.45.45 0 0 0 0-.9H9.6a.45.45 0 0 0-.45.45m6 0c0 .248.202.45.45.45h.6c.746 0 1.35.604 1.35 1.35V6a.45.45 0 0 0 .9 0v-.6a2.25 2.25 0 0 0-2.25-2.25h-.6a.45.45 0 0 0-.45.45m.45.75a.75.75 0 0 1 0-1.5h.6a2.55 2.55 0 0 1 2.55 2.55V6a.75.75 0 0 1-1.5 0v-.6c0-.58-.47-1.05-1.05-1.05zm2.4 6a.75.75 0 0 1-.75-.75V8.4a.75.75 0 0 1 1.5 0v1.2a.75.75 0 0 1-.75.75m-.45-.75a.45.45 0 0 0 .9 0V8.4a.45.45 0 0 0-.9 0z" clip-rule="evenodd"/></svg>