<svg xmlns="http://www.w3.org/2000/svg" width="24" height="24" fill="none"><path fill="#04071E" d="M11.4 2.4a.6.6 0 0 1 .6.6v18a.6.6 0 1 1-1.2 0V3a.6.6 0 0 1 .6-.6m-9 4.8a2.4 2.4 0 0 1 2.4-2.4h4.8V6H4.8a1.2 1.2 0 0 0-1.2 1.2v9.6A1.2 1.2 0 0 0 4.8 18h4.8v1.2H4.8a2.4 2.4 0 0 1-2.4-2.4zM18 6a1.2 1.2 0 0 1 1.2 1.2v.6a.6.6 0 1 0 1.2 0v-.6A2.4 2.4 0 0 0 18 4.8h-.6a.6.6 0 1 0 0 1.2zm0 12a1.2 1.2 0 0 0 1.2-1.2v-.6a.6.6 0 1 1 1.2 0v.6a2.4 2.4 0 0 1-2.4 2.4h-.6a.6.6 0 1 1 0-1.2zm1.8-8.4a.6.6 0 0 0-.6.6v3.6a.6.6 0 1 0 1.2 0v-3.6a.6.6 0 0 0-.6-.6M15 4.8A.6.6 0 1 1 15 6h-1.2a.6.6 0 1 1 0-1.2zm.6 13.8a.6.6 0 0 0-.6-.6h-1.2a.6.6 0 1 0 0 1.2H15a.6.6 0 0 0 .6-.6"/><path fill="#04071E" fill-rule="evenodd" d="M11.4 2.55a.45.45 0 0 0-.45.45v18a.45.45 0 0 0 .9 0V3a.45.45 0 0 0-.45-.45m-.75.45a.75.75 0 0 1 1.5 0v18a.75.75 0 0 1-1.5 0zM4.8 4.95A2.25 2.25 0 0 0 2.55 7.2v9.6a2.25 2.25 0 0 0 2.25 2.25h4.65v-.9H4.8a1.35 1.35 0 0 1-1.35-1.35V7.2c0-.746.604-1.35 1.35-1.35h4.65v-.9zM2.25 7.2A2.55 2.55 0 0 1 4.8 4.65h4.95v1.5H4.8c-.58 0-1.05.47-1.05 1.05v9.6c0 .58.47 1.05 1.05 1.05h4.95v1.5H4.8a2.55 2.55 0 0 1-2.55-2.55zM13.8 4.95a.45.45 0 0 0 0 .9H15a.45.45 0 0 0 0-.9zm-.75.45a.75.75 0 0 1 .75-.75H15a.75.75 0 0 1 0 1.5h-1.2a.75.75 0 0 1-.75-.75m3.6 0a.75.75 0 0 1 .75-.75h.6a2.55 2.55 0 0 1 2.55 2.55v.6a.75.75 0 0 1-1.5 0v-.6c0-.58-.47-1.05-1.05-1.05h-.6a.75.75 0 0 1-.75-.75m.75-.45a.45.45 0 0 0 0 .9h.6c.746 0 1.35.604 1.35 1.35v.6a.45.45 0 0 0 .9 0v-.6A2.25 2.25 0 0 0 18 4.95zm1.65 5.25a.75.75 0 0 1 1.5 0v3.6a.75.75 0 0 1-1.5 0zm.75-.45a.45.45 0 0 0-.45.45v3.6a.45.45 0 0 0 .9 0v-3.6a.45.45 0 0 0-.45-.45m0 6a.45.45 0 0 0-.45.45v.6A1.35 1.35 0 0 1 18 18.15h-.6a.45.45 0 0 0 0 .9h.6a2.25 2.25 0 0 0 2.25-2.25v-.6a.45.45 0 0 0-.45-.45m-.75.45a.75.75 0 0 1 1.5 0v.6A2.55 2.55 0 0 1 18 19.35h-.6a.75.75 0 0 1 0-1.5h.6c.58 0 1.05-.47 1.05-1.05zm-6 2.4a.75.75 0 0 1 .75-.75H15a.75.75 0 0 1 0 1.5h-1.2a.75.75 0 0 1-.75-.75m.75-.45a.45.45 0 0 0 0 .9H15a.45.45 0 0 0 0-.9z" clip-rule="evenodd"/></svg>