<svg xmlns="http://www.w3.org/2000/svg" width="24" height="24" fill="none"><path fill="#04071E" d="M14.25 6a.75.75 0 1 0 0-1.5.75.75 0 0 0 0 1.5m2.25-2.25a.75.75 0 1 1 1.5 0 .75.75 0 0 1-1.5 0m0 3a.75.75 0 1 1 1.5 0 .75.75 0 0 1-1.5 0m3-4.5a.75.75 0 1 1 1.5 0 .75.75 0 0 1-1.5 0m0 3a.75.75 0 1 1 1.5 0 .75.75 0 0 1-1.5 0m0 3a.75.75 0 1 1 1.5 0 .75.75 0 0 1-1.5 0m-4.537 1.308a1 1 0 0 1 .019.096l.008.04q.009.027.01.056v10.125a2.626 2.626 0 0 1-2.625 2.625h-5.25A2.626 2.626 0 0 1 4.5 19.875V9.75q.001-.03.01-.057.006-.019.01-.039a1 1 0 0 1 .019-.096.75.75 0 0 1 .182-.34L7.5 6.44V3.75a.75.75 0 0 1 .75-.75h2.999a.75.75 0 0 1 .75.75v2.688l2.781 2.781a.75.75 0 0 1 .181.339M10.502 4.5h-1.5V6h1.5zm.439 3H8.562L7.062 9h5.379zM12.376 21c.622 0 1.126-.504 1.126-1.125V10.5h-7.5v9.375c0 .62.503 1.125 1.125 1.125z"/></svg>