<svg xmlns="http://www.w3.org/2000/svg" width="24" height="24" fill="none"><path fill="#04071E" d="M7.2 3.6a3.6 3.6 0 0 0-3.6 3.6v9.6a3.6 3.6 0 0 0 3.6 3.6h9.6a3.6 3.6 0 0 0 3.6-3.6V7.2a3.6 3.6 0 0 0-3.6-3.6zm12 5.717a3.6 3.6 0 0 0-2.4-.917H12A3.6 3.6 0 0 0 8.4 12v4.8c0 .922.347 1.763.917 2.4H7.2a2.4 2.4 0 0 1-2.4-2.4V7.2a2.4 2.4 0 0 1 2.4-2.4h9.6a2.4 2.4 0 0 1 2.4 2.4zM12 19.2a2.4 2.4 0 0 1-2.4-2.4V12A2.4 2.4 0 0 1 12 9.6h4.8a2.4 2.4 0 0 1 2.4 2.4v4.8a2.4 2.4 0 0 1-2.4 2.4z"/><path fill="#04071E" fill-rule="evenodd" d="M3.45 7.2A3.75 3.75 0 0 1 7.2 3.45h9.6a3.75 3.75 0 0 1 3.75 3.75v9.6a3.75 3.75 0 0 1-3.75 3.75H7.2a3.75 3.75 0 0 1-3.75-3.75zM7.2 3.75A3.45 3.45 0 0 0 3.75 7.2v9.6a3.45 3.45 0 0 0 3.45 3.45h9.6a3.45 3.45 0 0 0 3.45-3.45V7.2a3.45 3.45 0 0 0-3.45-3.45zm0 1.2A2.25 2.25 0 0 0 4.95 7.2v9.6a2.25 2.25 0 0 0 2.25 2.25H9a3.73 3.73 0 0 1-.75-2.25V12A3.75 3.75 0 0 1 12 8.25h4.8c.844 0 1.624.279 2.25.75V7.2a2.25 2.25 0 0 0-2.25-2.25zM4.65 7.2A2.55 2.55 0 0 1 7.2 4.65h9.6a2.55 2.55 0 0 1 2.55 2.55v2.117a.15.15 0 0 1-.25.111 3.44 3.44 0 0 0-2.3-.878H12A3.45 3.45 0 0 0 8.55 12v4.8c0 .884.332 1.69.879 2.3a.15.15 0 0 1-.112.25H7.2a2.55 2.55 0 0 1-2.55-2.55zM12 9.75A2.25 2.25 0 0 0 9.75 12v4.8A2.25 2.25 0 0 0 12 19.05h4.8a2.25 2.25 0 0 0 2.25-2.25V12a2.25 2.25 0 0 0-2.25-2.25zM9.45 12A2.55 2.55 0 0 1 12 9.45h4.8A2.55 2.55 0 0 1 19.35 12v4.8a2.55 2.55 0 0 1-2.55 2.55H12a2.55 2.55 0 0 1-2.55-2.55z" clip-rule="evenodd"/></svg>