<svg xmlns="http://www.w3.org/2000/svg" width="24" height="24" fill="none"><path fill="#04071E" d="M5.4 2.4a3 3 0 0 0-3 3v8.4a3 3 0 0 0 3 3h1.8v1.8a3 3 0 0 0 3 3h8.4a3 3 0 0 0 3-3v-8.4a3 3 0 0 0-3-3h-1.8V5.4a3 3 0 0 0-3-3zm-1.8 3a1.8 1.8 0 0 1 1.8-1.8h8.4a1.8 1.8 0 0 1 1.8 1.8v8.4a1.8 1.8 0 0 1-1.8 1.8H5.4a1.8 1.8 0 0 1-1.8-1.8z"/><path fill="#04071E" fill-rule="evenodd" d="M2.25 5.4A3.15 3.15 0 0 1 5.4 2.25h8.4a3.15 3.15 0 0 1 3.15 3.15v1.65h1.65a3.15 3.15 0 0 1 3.15 3.15v8.4a3.15 3.15 0 0 1-3.15 3.15h-8.4a3.15 3.15 0 0 1-3.15-3.15v-1.65H5.4a3.15 3.15 0 0 1-3.15-3.15zM5.4 2.55A2.85 2.85 0 0 0 2.55 5.4v8.4a2.85 2.85 0 0 0 2.85 2.85h1.8a.15.15 0 0 1 .15.15v1.8a2.85 2.85 0 0 0 2.85 2.85h8.4a2.85 2.85 0 0 0 2.85-2.85v-8.4a2.85 2.85 0 0 0-2.85-2.85h-1.8a.15.15 0 0 1-.15-.15V5.4a2.85 2.85 0 0 0-2.85-2.85zm0 1.2A1.65 1.65 0 0 0 3.75 5.4v8.4c0 .911.739 1.65 1.65 1.65h8.4a1.65 1.65 0 0 0 1.65-1.65V5.4a1.65 1.65 0 0 0-1.65-1.65zM3.45 5.4A1.95 1.95 0 0 1 5.4 3.45h8.4a1.95 1.95 0 0 1 1.95 1.95v8.4a1.95 1.95 0 0 1-1.95 1.95H5.4a1.95 1.95 0 0 1-1.95-1.95z" clip-rule="evenodd"/></svg>