<svg xmlns="http://www.w3.org/2000/svg" width="24" height="24" fill="none"><path fill="#04071E" stroke="#04071E" stroke-width=".3" d="M9.697 19.2H7.2a2.4 2.4 0 0 1-2.4-2.4V7.2a2.4 2.4 0 0 1 2.4-2.4h9.6a2.4 2.4 0 0 1 2.4 2.4v2.495a2.96 2.96 0 0 1 1.2.612V7.2a3.6 3.6 0 0 0-3.6-3.6H7.2a3.6 3.6 0 0 0-3.6 3.6v9.6a3.6 3.6 0 0 0 3.6 3.6h3.109a3 3 0 0 1-.612-1.2Zm1.63.56a1.8 1.8 0 0 1 0-2.547l5.88-5.88a1.8 1.8 0 0 1 2.546 0l2.514 2.52a1.8 1.8 0 0 1 0 2.546L17.059 21.6h3.037a.6.6 0 1 1 0 1.2h-4.91a1.8 1.8 0 0 1-1.346-.526zm6.734-7.584-4.32 4.32 3.36 3.36 4.32-4.32a.6.6 0 0 0 0-.85l-2.514-2.513a.6.6 0 0 0-.846.004Zm-1.8 8.53-3.36-3.36-.72.72a.6.6 0 0 0 0 .85l2.514 2.514a.6.6 0 0 0 .85 0z"/></svg>