<svg xmlns="http://www.w3.org/2000/svg" width="24" height="24" fill="none"><path fill="#04071E" d="M7.2 4.2a.6.6 0 0 0-.6-.6 3 3 0 0 0-3 3 .6.6 0 0 0 1.2 0 1.8 1.8 0 0 1 1.8-1.8.6.6 0 0 0 .6-.6m12.6 3a.6.6 0 0 0 .6-.6 3 3 0 0 0-3-3 .6.6 0 0 0 0 1.2 1.8 1.8 0 0 1 1.8 1.8.6.6 0 0 0 .6.6M4.2 16.8a.6.6 0 0 0-.6.6 3 3 0 0 0 3 3 .6.6 0 0 0 0-1.2 1.8 1.8 0 0 1-1.8-1.8.6.6 0 0 0-.6-.6m-.6-6a.6.6 0 0 1 1.2 0v2.4a.6.6 0 0 1-1.2 0zM19.8 9a.6.6 0 0 0-.6.6v1.448q.628.179 1.2.472V9.6a.6.6 0 0 0-.6-.6m-8.28 11.4a6.6 6.6 0 0 1-.472-1.2H9.6a.6.6 0 0 0 0 1.2zM10.2 4.2a.6.6 0 0 1 .6-.6h2.4a.6.6 0 0 1 0 1.2h-2.4a.6.6 0 0 1-.6-.6m7.2 18.6a5.4 5.4 0 1 0 0-10.8 5.4 5.4 0 0 0 0 10.8m-1.076-7.676L15.248 16.2H17.1a3.3 3.3 0 0 1 3.3 3.3v.3a.6.6 0 1 1-1.2 0v-.3a2.1 2.1 0 0 0-2.1-2.1h-1.852l1.076 1.076a.6.6 0 0 1-.848.848l-2.103-2.102a.6.6 0 0 1 .003-.846l2.1-2.1a.6.6 0 0 1 .848.848"/><path fill="#04071E" fill-rule="evenodd" d="M19.1 11.124V9.6a.7.7 0 0 1 1.4 0v2.083l-.145-.074a6.5 6.5 0 0 0-1.182-.464zM11.683 20.5H9.6a.7.7 0 0 1 0-1.4h1.524l.02.073q.176.619.465 1.182zm3.324-4.2 1.247-1.246a.5.5 0 0 0-.708-.708l-2.1 2.1a.5.5 0 0 0-.002.705l2.102 2.103a.5.5 0 0 0 .708-.708L15.007 17.3H17.1a2.2 2.2 0 0 1 2.2 2.2v.3a.5.5 0 0 0 1 0v-.3a3.2 3.2 0 0 0-3.2-3.2zm1.317-1.176a.6.6 0 0 0-.848-.848l-2.1 2.1a.6.6 0 0 0-.003.846l2.103 2.102a.6.6 0 0 0 .848-.848L15.248 17.4H17.1c1.16 0 2.1.94 2.1 2.1v.3a.6.6 0 1 0 1.2 0v-.3a3.3 3.3 0 0 0-3.3-3.3h-1.852zM6.6 3.5a.7.7 0 0 1 0 1.4 1.7 1.7 0 0 0-1.7 1.7.7.7 0 0 1-1.4 0 3.1 3.1 0 0 1 3.1-3.1m13.9 3.1a.7.7 0 0 1-1.4 0 1.7 1.7 0 0 0-1.7-1.7.7.7 0 0 1 0-1.4 3.1 3.1 0 0 1 3.1 3.1m-17 10.8a.7.7 0 0 1 1.4 0 1.7 1.7 0 0 0 1.7 1.7.7.7 0 0 1 0 1.4 3.1 3.1 0 0 1-3.1-3.1m0-6.6a.7.7 0 0 1 1.4 0v2.4a.7.7 0 0 1-1.4 0zm15.7.248V9.6a.6.6 0 0 1 1.2 0v1.92l-.1-.05a6.6 6.6 0 0 0-1.1-.422M9.6 20.4a.6.6 0 0 1 0-1.2h1.448a6.6 6.6 0 0 0 .472 1.2zm.5-16.2a.7.7 0 0 1 .7-.7h2.4a.7.7 0 0 1 0 1.4h-2.4a.7.7 0 0 1-.7-.7m12.8 13.2a5.5 5.5 0 1 1-11 0 5.5 5.5 0 0 1 11 0M6.6 3.6a.6.6 0 0 1 0 1.2 1.8 1.8 0 0 0-1.8 1.8.6.6 0 0 1-1.2 0 3 3 0 0 1 3-3m13.8 3a.6.6 0 0 1-1.2 0 1.8 1.8 0 0 0-1.8-1.8.6.6 0 0 1 0-1.2 3 3 0 0 1 3 3M3.6 17.4a.6.6 0 0 1 1.2 0 1.8 1.8 0 0 0 1.8 1.8.6.6 0 0 1 0 1.2 3 3 0 0 1-3-3m.6-7.2a.6.6 0 0 0-.6.6v2.4a.6.6 0 0 0 1.2 0v-2.4a.6.6 0 0 0-.6-.6m6.6-6.6a.6.6 0 0 0 0 1.2h2.4a.6.6 0 0 0 0-1.2zm12 13.8a5.4 5.4 0 1 1-10.8 0 5.4 5.4 0 0 1 10.8 0" clip-rule="evenodd"/></svg>