<svg xmlns="http://www.w3.org/2000/svg" width="24" height="24" fill="none"><path fill="#04071E" d="M7.2 3.6a3.6 3.6 0 0 0-3.6 3.6v9.6a3.6 3.6 0 0 0 3.6 3.6h4.32a6.6 6.6 0 0 1-.471-1.2H7.2a2.4 2.4 0 0 1-2.4-2.4V7.2a2.4 2.4 0 0 1 2.4-2.4h9.6a2.4 2.4 0 0 1 2.4 2.4v3.848q.63.179 1.2.472V7.2a3.6 3.6 0 0 0-3.6-3.6zm10.2 19.2a5.4 5.4 0 1 0 0-10.8 5.4 5.4 0 0 0 0 10.8m2.225-7.624a.6.6 0 0 1 0 .848L18.249 17.4l1.376 1.376a.6.6 0 1 1-.85.848L17.4 18.25l-1.375 1.375a.6.6 0 0 1-.85-.848l1.377-1.376-1.376-1.376a.6.6 0 1 1 .848-.848L17.4 16.55l1.376-1.375a.6.6 0 0 1 .849 0"/><path fill="#04071E" fill-rule="evenodd" d="M3.45 7.2A3.75 3.75 0 0 1 7.2 3.45h9.6a3.75 3.75 0 0 1 3.75 3.75v4.565l-.218-.112a6.4 6.4 0 0 0-1.173-.46l-.109-.031V7.2a2.25 2.25 0 0 0-2.25-2.25H7.2A2.25 2.25 0 0 0 4.95 7.2v9.6a2.25 2.25 0 0 0 2.25 2.25h3.962l.031.11q.175.613.46 1.172l.112.218H7.2a3.75 3.75 0 0 1-3.75-3.75zM7.2 3.75A3.45 3.45 0 0 0 3.75 7.2v9.6a3.45 3.45 0 0 0 3.45 3.45h4.08q-.203-.435-.344-.9H7.2a2.55 2.55 0 0 1-2.55-2.55V7.2A2.55 2.55 0 0 1 7.2 4.65h9.6a2.55 2.55 0 0 1 2.55 2.55v3.736q.465.14.9.343V7.2a3.45 3.45 0 0 0-3.45-3.45zm4.65 13.65a5.55 5.55 0 1 1 11.1 0 5.55 5.55 0 0 1-11.1 0m5.55-5.25a5.25 5.25 0 1 0 0 10.5 5.25 5.25 0 0 0 0-10.5m-1.482 3.132a.45.45 0 1 0-.636.636l1.482 1.482-1.482 1.482a.45.45 0 0 0 .636.636l1.482-1.482 1.482 1.482a.45.45 0 0 0 .636-.636L18.037 17.4l1.481-1.482a.45.45 0 1 0-.636-.636L17.4 16.764zm-.848-.212a.75.75 0 0 1 1.06 0l1.27 1.27 1.27-1.27a.75.75 0 1 1 1.06 1.06l-1.27 1.27 1.27 1.27a.75.75 0 0 1-1.06 1.06l-1.27-1.27-1.27 1.27a.75.75 0 1 1-1.06-1.06l1.27-1.27-1.27-1.27a.75.75 0 0 1 0-1.06" clip-rule="evenodd"/></svg>