<svg xmlns="http://www.w3.org/2000/svg" width="24" height="24" fill="none"><path fill="#04071E" d="M17.75 3A3.25 3.25 0 0 1 21 6.25v11.5A3.25 3.25 0 0 1 17.75 21h-14a.75.75 0 0 1 0-1.5h4a1.75 1.75 0 0 0 1.75-1.75V6.25A1.75 1.75 0 0 0 7.75 4.5h-4a.75.75 0 0 1 0-1.5zm-7.26 1.5c.322.505.51 1.106.51 1.75v11.5c0 .644-.187 1.245-.51 1.75h2.26a1.75 1.75 0 0 0 1.75-1.75V6.25a1.75 1.75 0 0 0-1.75-1.75zm7.26 15a1.75 1.75 0 0 0 1.75-1.75V6.25a1.75 1.75 0 0 0-1.75-1.75h-2.26c.322.505.51 1.106.51 1.75v11.5c0 .644-.187 1.245-.51 1.75z"/></svg>