<svg xmlns="http://www.w3.org/2000/svg" width="25" height="24" fill="none"><path fill="#04071E" d="M19.376 2.576a.6.6 0 0 1 .848 0l3.587 3.586a.6.6 0 0 1 0 .876l-3.587 3.586a.6.6 0 0 1-.848-.848L21.95 7.2H16.2c-2.28 0-4.2 1.92-4.2 4.2v1.2c0 3-2.4 5.4-5.4 5.4H3c-.36 0-.6-.24-.6-.6s.24-.6.6-.6h3.6c2.28 0 4.2-1.92 4.2-4.2v-1.2c0-3 2.4-5.4 5.4-5.4h5.752l-2.576-2.576a.6.6 0 0 1 0-.848M3 14.4h3c1.32 0 2.4-1.08 2.4-2.4v-1.2c0-3.96 3.24-7.2 7.2-7.2h.6c.36 0 .6-.24.6-.6s-.24-.6-.6-.6h-.6c-4.68 0-8.4 3.72-8.4 8.4V12c0 .72-.48 1.2-1.2 1.2H3c-.36 0-.6.24-.6.6s.24.6.6.6m15.12-4.8H16.8c-1.32 0-2.4 1.08-2.4 2.4v1.2c0 3.96-3.24 7.2-7.2 7.2h-.6c-.36 0-.6.24-.6.6s.24.6.6.6h.6c4.68 0 8.4-3.72 8.4-8.4V12c0-.72.48-1.2 1.2-1.2h1.32c-.12-.36-.12-.84 0-1.2"/><path fill="#04071E" fill-rule="evenodd" d="M20.118 2.682a.45.45 0 0 0-.636.636l2.576 2.576a.15.15 0 0 1-.107.256H16.2a5.23 5.23 0 0 0-5.25 5.25v1.2c0 2.363-1.987 4.35-4.35 4.35H3a.45.45 0 0 0-.329.121.45.45 0 0 0-.121.329.45.45 0 0 0 .121.329.45.45 0 0 0 .329.121h3.6a5.23 5.23 0 0 0 5.25-5.25v-1.2c0-2.363 1.987-4.35 4.35-4.35h5.752a.15.15 0 0 1 .105.256l-2.575 2.576a.45.45 0 0 0 .636.636l3.59-3.59a.45.45 0 0 0 0-.656l-.003-.004zm.212-.212 3.585 3.584a.75.75 0 0 1 0 1.092L20.33 10.73a.75.75 0 1 1-1.06-1.06l2.32-2.32H16.2c-2.197 0-4.05 1.853-4.05 4.05v1.2a5.53 5.53 0 0 1-5.55 5.55H3a.75.75 0 0 1-.541-.209.75.75 0 0 1-.209-.541.75.75 0 0 1 .209-.541A.75.75 0 0 1 3 16.65h3.6c2.197 0 4.05-1.853 4.05-4.05v-1.2a5.53 5.53 0 0 1 5.55-5.55h5.39l-2.32-2.32a.75.75 0 0 1 1.06-1.06M7.05 10.8a8.5 8.5 0 0 1 8.55-8.55h.6a.75.75 0 0 1 .541.209.75.75 0 0 1 .209.541.75.75 0 0 1-.209.541.75.75 0 0 1-.541.209h-.6c-3.877 0-7.05 3.173-7.05 7.05V12A2.557 2.557 0 0 1 6 14.55H3a.75.75 0 0 1-.541-.209.75.75 0 0 1-.209-.541.75.75 0 0 1 .209-.541A.75.75 0 0 1 3 13.05h3c.326 0 .586-.108.764-.286s.286-.438.286-.764zm8.55-8.25a8.2 8.2 0 0 0-8.25 8.25V12c0 .394-.132.734-.374.976s-.582.374-.976.374H3a.45.45 0 0 0-.329.121.45.45 0 0 0-.121.329.45.45 0 0 0 .121.329.45.45 0 0 0 .329.121h3A2.257 2.257 0 0 0 8.25 12v-1.2c0-4.043 3.307-7.35 7.35-7.35h.6a.45.45 0 0 0 .329-.121A.45.45 0 0 0 16.65 3a.45.45 0 0 0-.121-.329.45.45 0 0 0-.329-.121zM14.25 12a2.557 2.557 0 0 1 2.55-2.55h1.32a.15.15 0 0 1 .142.197c-.11.33-.11.776 0 1.106a.15.15 0 0 1-.142.197H16.8c-.326 0-.586.108-.764.286s-.286.438-.286.764v1.2a8.5 8.5 0 0 1-8.55 8.55h-.6a.75.75 0 0 1-.541-.209A.75.75 0 0 1 5.85 21a.75.75 0 0 1 .209-.541.75.75 0 0 1 .541-.209h.6c3.877 0 7.05-3.173 7.05-7.05zm2.55-2.25A2.257 2.257 0 0 0 14.55 12v1.2c0 4.043-3.307 7.35-7.35 7.35h-.6a.45.45 0 0 0-.329.121.45.45 0 0 0-.121.329.45.45 0 0 0 .121.329.45.45 0 0 0 .329.121h.6a8.2 8.2 0 0 0 8.25-8.25V12c0-.394.132-.734.374-.976s.582-.374.976-.374h1.125a2.3 2.3 0 0 1 0-.9z" clip-rule="evenodd"/></svg>