<svg xmlns="http://www.w3.org/2000/svg" width="24" height="24" fill="none"><path fill="#04071E" d="M15.6 3.6a7.2 7.2 0 0 0-7.2 7.2V12A2.4 2.4 0 0 1 6 14.4H3a.6.6 0 1 1 0-1.2h3A1.2 1.2 0 0 0 7.2 12v-1.2a8.4 8.4 0 0 1 8.4-8.4h.6a.6.6 0 1 1 0 1.2zM12 11.4a4.2 4.2 0 0 1 4.2-4.2H21A.6.6 0 1 0 21 6h-4.8a5.4 5.4 0 0 0-5.4 5.4v1.2a4.2 4.2 0 0 1-4.2 4.2H3A.6.6 0 1 0 3 18h3.6a5.4 5.4 0 0 0 5.4-5.4zm3.6.6c0-.72.48-1.2 1.2-1.2H21c.36 0 .6-.24.6-.6s-.24-.6-.6-.6h-4.2c-1.32 0-2.4 1.08-2.4 2.4v1.2c0 1.08-.24 2.04-.6 2.88.36-.24.72-.48 1.2-.48h.24c.24-.72.36-1.56.36-2.4zm-.176 9.795a.6.6 0 1 1-.848.848l-2.4-2.4a.6.6 0 0 1 0-.848l2.4-2.4a.6.6 0 0 1 .848.848l-1.375 1.376h6.703l-1.376-1.376a.6.6 0 1 1 .848-.849l2.4 2.4a.6.6 0 0 1 0 .849l-2.4 2.4a.6.6 0 0 1-.848-.849l1.375-1.375h-6.703z"/><path fill="#04071E" fill-rule="evenodd" d="M15.6 2.55a8.25 8.25 0 0 0-8.25 8.25V12A1.35 1.35 0 0 1 6 13.35H3a.45.45 0 0 0 0 .9h3A2.25 2.25 0 0 0 8.25 12v-1.2a7.35 7.35 0 0 1 7.35-7.35h.6a.45.45 0 0 0 0-.9zM7.05 10.8a8.55 8.55 0 0 1 8.55-8.55h.6a.75.75 0 0 1 0 1.5h-.6a7.05 7.05 0 0 0-7.05 7.05V12A2.55 2.55 0 0 1 6 14.55H3a.75.75 0 0 1 0-1.5h3c.58 0 1.05-.47 1.05-1.05zm3.6.6a5.55 5.55 0 0 1 5.55-5.55H21a.75.75 0 0 1 0 1.5h-4.8a4.05 4.05 0 0 0-4.05 4.05v1.2a5.55 5.55 0 0 1-5.55 5.55H3a.75.75 0 0 1 0-1.5h3.6a4.05 4.05 0 0 0 4.05-4.05zm5.55-5.25a5.25 5.25 0 0 0-5.25 5.25v1.2a4.35 4.35 0 0 1-4.35 4.35H3a.45.45 0 0 0 0 .9h3.6c2.9 0 5.25-2.35 5.25-5.25v-1.2a4.35 4.35 0 0 1 4.35-4.35H21a.45.45 0 0 0 0-.9zM14.25 12a2.557 2.557 0 0 1 2.55-2.55H21a.75.75 0 0 1 .541.209.75.75 0 0 1 .209.541.75.75 0 0 1-.209.541.75.75 0 0 1-.541.209h-4.2c-.326 0-.586.108-.764.286s-.286.438-.286.764v1.2c0 .853-.122 1.71-.368 2.447l-.034.103H15c-.428 0-.752.212-1.117.455l-.42.28.2-.464a7.1 7.1 0 0 0 .587-2.821zm2.55-2.25A2.257 2.257 0 0 0 14.55 12v1.2c0 .922-.171 1.759-.442 2.508.257-.144.546-.258.892-.258h.13c.213-.68.32-1.463.32-2.25V12c0-.394.132-.734.374-.976s.582-.374.976-.374H21a.45.45 0 0 0 .329-.121.45.45 0 0 0 .121-.329.45.45 0 0 0-.121-.329A.45.45 0 0 0 21 9.75zm3.318 7.35a.45.45 0 1 0-.636.637l1.632 1.632h-7.428l1.632-1.632a.45.45 0 1 0-.636-.636l-2.4 2.4a.45.45 0 0 0 0 .636l2.4 2.4a.45.45 0 1 0 .636-.636l-1.632-1.632h7.428L19.482 21.9a.45.45 0 1 0 .636.636l2.4-2.4a.45.45 0 0 0 0-.636zm-5.648-.212a.75.75 0 1 1 1.06 1.061l-1.12 1.12h5.98l-1.12-1.12a.75.75 0 0 1 1.06-1.06l2.4 2.4a.75.75 0 0 1 0 1.06l-2.4 2.4a.75.75 0 1 1-1.06-1.06l1.12-1.12h-5.98l1.12 1.12a.75.75 0 0 1-1.06 1.06l-2.4-2.4a.75.75 0 0 1 0-1.06z" clip-rule="evenodd"/></svg>