<svg xmlns="http://www.w3.org/2000/svg" width="25" height="24" fill="none"><path fill="#04071E" d="M9.4 10.8a7.2 7.2 0 0 1 7.2-7.2h.6a.6.6 0 1 0 0-1.2h-.6a8.4 8.4 0 0 0-8.4 8.4V12A1.2 1.2 0 0 1 7 13.2H5.92l1.196 1.197A2.4 2.4 0 0 0 9.4 12zm-7.8 6a.6.6 0 1 0 0 1.2h4.42l-2.576 2.576a.6.6 0 0 0 .849.848l3.586-3.586a.6.6 0 0 0 0-.876l-3.586-3.586a.6.6 0 1 0-.849.848L6.02 16.8zM13 12.6a5.4 5.4 0 0 1-3.778 5.152c.064-.41.015-.842-.147-1.218A4.2 4.2 0 0 0 11.8 12.6v-1.2A5.4 5.4 0 0 1 17.2 6H22a.6.6 0 1 1 0 1.2h-4.8a4.2 4.2 0 0 0-4.2 4.2zm4.8-1.8a1.2 1.2 0 0 0-1.2 1.2v1.2a8.4 8.4 0 0 1-8.4 8.4h-.6a.6.6 0 1 1 0-1.2h.6a7.2 7.2 0 0 0 7.2-7.2V12a2.4 2.4 0 0 1 2.4-2.4H22a.6.6 0 1 1 0 1.2z"/><path fill="#04071E" fill-rule="evenodd" d="M8.05 10.8a8.55 8.55 0 0 1 8.55-8.55h.6a.75.75 0 0 1 0 1.5h-.6a7.05 7.05 0 0 0-7.05 7.05V12a2.55 2.55 0 0 1-2.426 2.547.15.15 0 0 1-.114-.044l-1.197-1.197a.15.15 0 0 1 .106-.256H7c.58 0 1.05-.47 1.05-1.05zm8.55-8.25a8.25 8.25 0 0 0-8.25 8.25V12A1.35 1.35 0 0 1 7 13.35H6.28l.894.893A2.25 2.25 0 0 0 9.25 12v-1.2a7.35 7.35 0 0 1 7.35-7.35h.6a.45.45 0 0 0 0-.9zm.6 3.6a5.25 5.25 0 0 0-5.25 5.25v1.2a4.35 4.35 0 0 1-2.681 4.018c.102.292.144.607.126.917A5.25 5.25 0 0 0 12.85 12.6v-1.2a4.35 4.35 0 0 1 4.35-4.35H22a.45.45 0 0 0 0-.9zm-5.55 5.25a5.55 5.55 0 0 1 5.55-5.55H22a.75.75 0 0 1 0 1.5h-4.8a4.05 4.05 0 0 0-4.05 4.05v1.2a5.55 5.55 0 0 1-3.883 5.295.15.15 0 0 1-.193-.166c.06-.384.013-.787-.137-1.136a.15.15 0 0 1 .085-.2A4.05 4.05 0 0 0 11.65 12.6zm6.15-1.65A2.25 2.25 0 0 0 15.55 12v1.2a7.35 7.35 0 0 1-7.35 7.35h-.6a.45.45 0 0 0 0 .9h.6a8.25 8.25 0 0 0 8.25-8.25V12c0-.746.604-1.35 1.35-1.35H22a.45.45 0 0 0 0-.9zM15.25 12a2.55 2.55 0 0 1 2.55-2.55H22a.75.75 0 0 1 0 1.5h-4.2c-.58 0-1.05.47-1.05 1.05v1.2a8.55 8.55 0 0 1-8.55 8.55h-.6a.75.75 0 0 1 0-1.5h.6a7.05 7.05 0 0 0 7.05-7.05zM3.338 13.27a.75.75 0 0 1 1.06 0l3.585 3.584a.75.75 0 0 1 0 1.092L4.4 21.53a.75.75 0 0 1-1.061-1.06l2.32-2.32H1.6a.75.75 0 0 1 0-1.5h4.058l-2.32-2.32a.75.75 0 0 1 0-1.06m.849.212a.45.45 0 0 0-.637.636l2.576 2.576a.15.15 0 0 1-.106.256H1.6a.45.45 0 0 0 0 .9h4.42a.15.15 0 0 1 .106.256L3.55 20.682a.45.45 0 0 0 .637.636l3.59-3.59a.45.45 0 0 0 0-.656l-.004-.004z" clip-rule="evenodd"/></svg>