<svg xmlns="http://www.w3.org/2000/svg" width="24" height="24" fill="none"><path fill="#04071E" d="M6.6 10.2a.6.6 0 1 0 0 1.2h8.046a6.6 6.6 0 0 1 .891-.334q.062-.121.063-.266a.6.6 0 0 0-.6-.6zm12.596.848q.003-.124.004-.248a8.4 8.4 0 1 0-8.153 8.397q.175.616.46 1.178a9.6 9.6 0 1 1 8.868-8.868 6.6 6.6 0 0 0-1.179-.46M12 17.4a5.4 5.4 0 1 0 10.8 0 5.4 5.4 0 0 0-10.8 0m6.475-3.124a.6.6 0 0 1 .849 0l2.1 2.1a.6.6 0 0 1 .002.846l-2.102 2.102a.6.6 0 0 1-.849-.848l1.076-1.076H17.7a2.1 2.1 0 0 0-2.1 2.1v.3a.6.6 0 1 1-1.2 0v-.3a3.3 3.3 0 0 1 3.3-3.3h1.851l-1.076-1.076a.6.6 0 0 1 0-.848"/><path fill="#04071E" fill-rule="evenodd" d="M14.668 11.5H6.6a.7.7 0 1 1 0-1.4H15a.7.7 0 0 1 .627 1.01l-.02.04-.041.012a6.4 6.4 0 0 0-.878.329zm4.426-.377.002-.078q.004-.123.004-.245a8.3 8.3 0 1 0-8.056 8.297l.078-.003.021.075q.172.607.452 1.16l.068.134-.15.011a10 10 0 0 1-.713.026c-5.358 0-9.7-4.343-9.7-9.7s4.342-9.7 9.7-9.7 9.7 4.343 9.7 9.7q-.001.36-.026.714l-.011.15-.134-.068a6.5 6.5 0 0 0-1.16-.452zm2.368 5.486a.5.5 0 0 0-.109-.163l-2.1-2.1a.5.5 0 0 0-.707.708l1.247 1.246H17.7a3.2 3.2 0 0 0-3.2 3.2v.3a.5.5 0 0 0 1 0v-.3a2.2 2.2 0 0 1 2.2-2.2h2.093l-1.247 1.247a.5.5 0 0 0 .707.707l2.102-2.103a.5.5 0 0 0 .107-.542M17.7 16.2a3.3 3.3 0 0 0-3.3 3.3v.3a.6.6 0 1 0 1.2 0v-.3c0-1.16.94-2.1 2.1-2.1h1.851l-1.076 1.076a.6.6 0 0 0 .849.848l2.102-2.102a.6.6 0 0 0-.002-.846l-2.1-2.1a.6.6 0 0 0-.849.848l1.076 1.076zm-2.163-5.133a6.6 6.6 0 0 0-.89.333H6.6a.6.6 0 1 1 0-1.2H15a.6.6 0 0 1 .537.867m4.844.332q.018-.297.019-.599a9.6 9.6 0 1 0-8.894 9.575l-.048-.097a6.6 6.6 0 0 1-.411-1.081l-.247.003a8.4 8.4 0 1 1 8.396-8.152 6.6 6.6 0 0 1 1.178.459zM17.4 22.9a5.5 5.5 0 1 1 0-11 5.5 5.5 0 0 1 0 11m0-.1a5.4 5.4 0 1 1 0-10.8 5.4 5.4 0 0 1 0 10.8" clip-rule="evenodd"/></svg>