<svg xmlns="http://www.w3.org/2000/svg" width="24" height="24" fill="none"><path fill="#04071E" d="M6.6 10.2a.6.6 0 0 0 0 1.2h8.046a6.6 6.6 0 0 1 .892-.334q.061-.121.062-.266a.6.6 0 0 0-.6-.6zm12.596.848.004-.248a8.4 8.4 0 1 0-8.153 8.397q.174.616.46 1.177A9.6 9.6 0 1 1 10.8 1.2a9.6 9.6 0 0 1 9.574 10.307 6.6 6.6 0 0 0-1.178-.46M22.8 17.4a5.4 5.4 0 1 1-10.8 0 5.4 5.4 0 0 1 10.8 0m-6.476-3.124a.6.6 0 0 0-.849 0l-2.1 2.1a.6.6 0 0 0-.002.846l2.103 2.102a.6.6 0 0 0 .848-.848L15.248 17.4H17.1c1.16 0 2.1.94 2.1 2.1v.3a.6.6 0 1 0 1.2 0v-.3a3.3 3.3 0 0 0-3.3-3.3h-1.852l1.076-1.076a.6.6 0 0 0 0-.848"/><path fill="#04071E" fill-rule="evenodd" d="M10.8 1.35a9.45 9.45 0 1 0 .474 18.888 7 7 0 0 1-.338-.889l-.136.001a8.55 8.55 0 1 1 8.549-8.414 7 7 0 0 1 .89.338q.01-.235.01-.474a9.45 9.45 0 0 0-9.45-9.45M1.05 10.8c0-5.385 4.365-9.75 9.75-9.75s9.75 4.365 9.75 9.75q0 .361-.026.718l-.017.224-.2-.102a6.4 6.4 0 0 0-1.151-.448l-.113-.032.003-.117.004-.243a8.25 8.25 0 1 0-8.007 8.247l.117-.004.032.113c.113.4.264.786.448 1.15l.102.202-.225.016a10 10 0 0 1-.717.026c-5.385 0-9.75-4.365-9.75-9.75m4.8 0a.75.75 0 0 1 .75-.75H15a.75.75 0 0 1 .672 1.083l-.03.059-.062.018q-.45.133-.87.326l-.03.014H6.6a.75.75 0 0 1-.75-.75m.75-.45a.45.45 0 0 0 0 .9h8.014q.394-.179.813-.307A.45.45 0 0 0 15 10.35zm10.8 1.8a5.25 5.25 0 1 0 0 10.5 5.25 5.25 0 0 0 0-10.5m-5.55 5.25a5.55 5.55 0 1 1 11.1 0 5.55 5.55 0 0 1-11.1 0m3.52-3.23a.75.75 0 1 1 1.06 1.06l-.82.82h1.49a3.45 3.45 0 0 1 3.45 3.45v.3a.75.75 0 1 1-1.5 0v-.3a1.95 1.95 0 0 0-1.95-1.95h-1.49l.82.82a.75.75 0 0 1-1.06 1.06l-2.103-2.102a.749.749 0 0 1-.16-.815m3.111-2.131a.45.45 0 0 0-.636 0l-2.1 2.1a.45.45 0 0 0-.003.634l2.103 2.102a.45.45 0 1 0 .636-.636l-1.332-1.332H17.1a2.25 2.25 0 0 1 2.25 2.25v.3a.45.45 0 1 0 .9 0v-.3a3.15 3.15 0 0 0-3.15-3.15h-2.214l1.332-1.332a.45.45 0 0 0 0-.636" clip-rule="evenodd"/></svg>