<svg xmlns="http://www.w3.org/2000/svg" width="24" height="24" fill="none"><path fill="#04071E" d="M19.2 6.321V15.6a3.6 3.6 0 0 1-3.6 3.6H6.321a2.4 2.4 0 0 0 2.08 1.2h7.2a4.8 4.8 0 0 0 4.8-4.8V8.4c0-.888-.483-1.664-1.2-2.079M13.8 11.4a.6.6 0 1 0 0-1.2h-6a.6.6 0 0 0 0 1.2zm1.8-7.8A2.4 2.4 0 0 1 18 6v9.6a2.4 2.4 0 0 1-2.4 2.4H6a2.4 2.4 0 0 1-2.4-2.4V6A2.4 2.4 0 0 1 6 3.6zM16.8 6a1.2 1.2 0 0 0-1.2-1.2H6A1.2 1.2 0 0 0 4.8 6v9.6A1.2 1.2 0 0 0 6 16.8h9.6a1.2 1.2 0 0 0 1.2-1.2z"/><path fill="#04071E" fill-rule="evenodd" d="M6 3.75A2.25 2.25 0 0 0 3.75 6v9.6A2.25 2.25 0 0 0 6 17.85h9.6a2.25 2.25 0 0 0 2.25-2.25V6a2.25 2.25 0 0 0-2.25-2.25zM3.45 6A2.55 2.55 0 0 1 6 3.45h9.6A2.55 2.55 0 0 1 18.15 6v9.6a2.55 2.55 0 0 1-2.55 2.55H6a2.55 2.55 0 0 1-2.55-2.55zm1.2 0c0-.746.605-1.35 1.35-1.35h9.6c.746 0 1.35.604 1.35 1.35v9.6a1.35 1.35 0 0 1-1.35 1.35H6a1.35 1.35 0 0 1-1.35-1.35zM6 4.95c-.58 0-1.05.47-1.05 1.05v9.6c0 .58.47 1.05 1.05 1.05h9.6c.58 0 1.05-.47 1.05-1.05V6c0-.58-.47-1.05-1.05-1.05zm13.05 1.111.225.13A2.55 2.55 0 0 1 20.55 8.4v7.2a4.95 4.95 0 0 1-4.95 4.95H8.4a2.55 2.55 0 0 1-2.209-1.275l-.13-.225h9.54a3.45 3.45 0 0 0 3.45-3.45zm.3.539v9a3.75 3.75 0 0 1-3.75 3.75h-9c.41.547 1.064.9 1.8.9h7.2a4.65 4.65 0 0 0 4.65-4.65V8.4c0-.736-.353-1.39-.9-1.8m-12.3 4.2a.75.75 0 0 1 .75-.75h6a.75.75 0 0 1 0 1.5h-6a.75.75 0 0 1-.75-.75m.75-.45a.45.45 0 0 0 0 .9h6a.45.45 0 1 0 0-.9z" clip-rule="evenodd"/></svg>