<svg xmlns="http://www.w3.org/2000/svg" width="24" height="24" fill="none"><path fill="#04071E" d="M18.003 12a.75.75 0 0 1-.647.743l-.102.007H4.56l2.216 2.22a.75.75 0 0 1 .073.976l-.073.084a.75.75 0 0 1-.975.073l-.084-.073-3.498-3.5a.75.75 0 0 1-.072-.976l.072-.084 3.498-3.5a.749.749 0 0 1 1.132.976l-.073.084-2.216 2.22h12.694a.75.75 0 0 1 .75.75M22 12c0 2.761-2.237 5-4.996 5a5 5 0 0 1-4.68-3.25h1.651A3.499 3.499 0 0 0 20.501 12a3.499 3.499 0 0 0-6.526-1.75h-1.652A5 5 0 0 1 17.004 7 5 5 0 0 1 22 12"/></svg>