<svg xmlns="http://www.w3.org/2000/svg" width="24" height="24" fill="none"><path fill="#04071E" d="M2.4 12a9.6 9.6 0 1 1 19.2 0 9.6 9.6 0 0 1-19.2 0M12 3.6a8.4 8.4 0 0 0-8.315 7.2H9.92l.904-3.165a.6.6 0 1 1 1.154.33l-2.4 8.4a.6.6 0 1 1-1.154-.33L9.576 12H3.6a8.4 8.4 0 1 0 16.8 0h-5.976l-1.247 4.365a.6.6 0 0 1-1.154-.33l2.4-8.4a.6.6 0 1 1 1.154.33l-.81 2.835h5.548A8.4 8.4 0 0 0 12 3.6"/><path fill="#04071E" fill-rule="evenodd" d="M12 2.55a9.45 9.45 0 1 0 0 18.9 9.45 9.45 0 0 0 0-18.9M2.25 12c0-5.385 4.365-9.75 9.75-9.75s9.75 4.365 9.75 9.75-4.365 9.75-9.75 9.75S2.25 17.385 2.25 12m1.287-1.221a8.552 8.552 0 0 1 16.926 0 .15.15 0 0 1-.148.171h-5.548a.15.15 0 0 1-.144-.191l.81-2.836a.45.45 0 1 0-.866-.247l-2.4 8.4a.45.45 0 0 0 .866.247l1.247-4.364a.15.15 0 0 1 .144-.109H20.4a.15.15 0 0 1 .15.15 8.55 8.55 0 0 1-17.1 0 .15.15 0 0 1 .15-.15h5.976a.15.15 0 0 1 .144.191l-1.153 4.035a.45.45 0 1 0 .866.247l2.4-8.4a.45.45 0 1 0-.866-.247l-.904 3.165a.15.15 0 0 1-.144.109H3.685a.15.15 0 0 1-.148-.171m.323-.129h5.946l.873-3.056a.75.75 0 0 1 1.442.412l-2.4 8.4a.75.75 0 0 1-1.442-.412l1.098-3.844H3.751a8.25 8.25 0 0 0 16.498 0h-5.712l-1.216 4.256a.75.75 0 0 1-1.442-.412l2.4-8.4a.75.75 0 0 1 1.442.412l-.755 2.644h5.174a8.252 8.252 0 0 0-16.28 0" clip-rule="evenodd"/></svg>