<svg xmlns="http://www.w3.org/2000/svg" width="24" height="24" fill="none"><path fill="#04071E" d="M3.6 6.6a3 3 0 0 1 3-3h10.8a3 3 0 0 1 3 3v10.8a3 3 0 0 1-3 3h-4.92q.293-.572.471-1.2H17.4a1.8 1.8 0 0 0 1.8-1.8v-9h-7.8a1.8 1.8 0 0 1-1.8-1.8V4.8h-3a1.8 1.8 0 0 0-1.8 1.8v4.448q-.628.179-1.2.472zm15.6.6v-.6a1.8 1.8 0 0 0-1.8-1.8h-6.6v1.8a.6.6 0 0 0 .6.6zM12 17.4a5.4 5.4 0 1 1-10.8 0 5.4 5.4 0 0 1 10.8 0m-5.4-3a.6.6 0 0 0-.6.6v2.4a.6.6 0 0 0 .6.6h1.8a.6.6 0 0 0 0-1.2H7.2V15a.6.6 0 0 0-.6-.6"/><path fill="#04071E" fill-rule="evenodd" d="M6.6 3.75A2.85 2.85 0 0 0 3.75 6.6v4.68q.435-.203.9-.344V6.6A1.95 1.95 0 0 1 6.6 4.65h3.15V6.6c0 .911.739 1.65 1.65 1.65h7.95v9.15a1.95 1.95 0 0 1-1.95 1.95h-4.336q-.14.465-.344.9h4.68a2.85 2.85 0 0 0 2.85-2.85V6.6a2.85 2.85 0 0 0-2.85-2.85zM3.45 6.6A3.15 3.15 0 0 1 6.6 3.45h10.8a3.15 3.15 0 0 1 3.15 3.15v10.8a3.15 3.15 0 0 1-3.15 3.15h-5.165l.112-.218q.286-.559.46-1.173l.031-.109H17.4a1.65 1.65 0 0 0 1.65-1.65V8.55H11.4A1.95 1.95 0 0 1 9.45 6.6V4.95H6.6A1.65 1.65 0 0 0 4.95 6.6v4.562l-.11.03q-.613.175-1.172.461l-.218.112zm7.2-1.95h6.75a1.95 1.95 0 0 1 1.95 1.95v.75H11.4a.75.75 0 0 1-.75-.75zm.3.3V6.6c0 .248.202.45.45.45h7.65V6.6a1.65 1.65 0 0 0-1.65-1.65zm-4.35 7.2a5.25 5.25 0 1 0 0 10.5 5.25 5.25 0 0 0 0-10.5M1.05 17.4a5.55 5.55 0 1 1 11.1 0 5.55 5.55 0 0 1-11.1 0m4.8-2.4a.75.75 0 1 1 1.5 0v1.65H8.4a.75.75 0 1 1 0 1.5H6.6a.75.75 0 0 1-.75-.75zm.75-.45a.45.45 0 0 0-.45.45v2.4c0 .248.201.45.45.45h1.8a.45.45 0 0 0 0-.9H7.05V15a.45.45 0 0 0-.45-.45" clip-rule="evenodd"/></svg>