<svg xmlns="http://www.w3.org/2000/svg" width="24" height="24" fill="none"><path fill="#04071E" d="M3.595 6.6a3 3 0 0 1 3-3h10.8a3 3 0 0 1 3 3v10.8a3 3 0 0 1-3 3H12.48q.293-.572.472-1.2h4.443a1.8 1.8 0 0 0 1.8-1.8v-9h-7.8a1.8 1.8 0 0 1-1.8-1.8V4.8h-3a1.8 1.8 0 0 0-1.8 1.8v4.45a6.6 6.6 0 0 0-1.2.472zm15.6.6v-.6a1.8 1.8 0 0 0-1.8-1.8h-6.6v1.8a.6.6 0 0 0 .6.6zM12 17.4a5.4 5.4 0 1 1-10.8 0 5.4 5.4 0 0 1 10.8 0m-8.224-.425-.003.003a.6.6 0 0 0-.173.418v.008a.6.6 0 0 0 .176.42l2.4 2.4a.6.6 0 0 0 .848-.848L5.65 18H9a.6.6 0 1 0 0-1.2H5.649l1.375-1.376a.6.6 0 0 0-.848-.848z"/><path fill="#04071E" fill-rule="evenodd" d="m12.317 20.5.074-.145q.289-.563.464-1.182l.02-.073h4.52a1.7 1.7 0 0 0 1.7-1.7V8.5h-7.7a1.9 1.9 0 0 1-1.9-1.9V4.9h-2.9a1.7 1.7 0 0 0-1.7 1.7v4.525l-.072.021a6.5 6.5 0 0 0-1.182.465l-.146.075V6.6a3.1 3.1 0 0 1 3.1-3.1h10.8a3.1 3.1 0 0 1 3.1 3.1v10.8a3.1 3.1 0 0 1-3.1 3.1zM9.595 4.8v1.8a1.8 1.8 0 0 0 1.8 1.8h7.8v9a1.8 1.8 0 0 1-1.8 1.8h-4.443a6.6 6.6 0 0 1-.472 1.2h4.915a3 3 0 0 0 3-3V6.6a3 3 0 0 0-3-3h-10.8a3 3 0 0 0-3 3v4.922l.1-.05a6.6 6.6 0 0 1 1.1-.422V6.6a1.8 1.8 0 0 1 1.8-1.8zm-2.57 10.624a.6.6 0 0 0-.85-.848l-2.399 2.4-.003.002a.6.6 0 0 0-.173.418v.008a.6.6 0 0 0 .176.42l2.4 2.4a.6.6 0 0 0 .848-.848L5.65 18H9a.6.6 0 1 0 0-1.2H5.649zM3.7 17.403a.5.5 0 0 0 .146.35l2.4 2.4a.5.5 0 0 0 .708-.707L5.407 17.9H9a.5.5 0 0 0 0-1H5.407l1.547-1.546a.5.5 0 0 0-.708-.708l-2.399 2.4-.003.003a.5.5 0 0 0-.144.348v.006M19.095 7.1v-.5a1.7 1.7 0 0 0-1.7-1.7h-6.5v1.7a.5.5 0 0 0 .5.5zm.1.1h-7.8a.6.6 0 0 1-.6-.6V4.8h6.6a1.8 1.8 0 0 1 1.8 1.8zM12.1 17.4a5.5 5.5 0 1 1-11 0 5.5 5.5 0 0 1 11 0m-5.5 5.4a5.4 5.4 0 1 0 0-10.8 5.4 5.4 0 0 0 0 10.8" clip-rule="evenodd"/></svg>