<svg xmlns="http://www.w3.org/2000/svg" width="24" height="24" fill="none"><path fill="#04071E" d="M9 2.4a3 3 0 0 0-3 3V15a3 3 0 0 0 3 3h9.6a3 3 0 0 0 3-3V5.4a3 3 0 0 0-3-3zm11.4 3V6h-7.8a.6.6 0 0 1-.6-.6V3.6h6.6a1.8 1.8 0 0 1 1.8 1.8m-9.6 0a1.8 1.8 0 0 0 1.8 1.8h7.8V15a1.8 1.8 0 0 1-1.8 1.8H9A1.8 1.8 0 0 1 7.2 15V5.4A1.8 1.8 0 0 1 9 3.6h1.8zM15 21.6a3 3 0 0 0 2.94-2.4h-1.242A1.8 1.8 0 0 1 15 20.4H7.2a3.6 3.6 0 0 1-3.6-3.6V9c0-.784.501-1.45 1.2-1.698V6.06A3 3 0 0 0 2.4 9v7.8a4.8 4.8 0 0 0 4.8 4.8z"/><path fill="#04071E" fill-rule="evenodd" d="M5.85 5.4A3.15 3.15 0 0 1 9 2.25h9.6a3.15 3.15 0 0 1 3.15 3.15V15a3.15 3.15 0 0 1-3.15 3.15H9A3.15 3.15 0 0 1 5.85 15zM9 2.55A2.85 2.85 0 0 0 6.15 5.4V15A2.85 2.85 0 0 0 9 17.85h9.6A2.85 2.85 0 0 0 21.45 15V5.4a2.85 2.85 0 0 0-2.85-2.85zm0 1.2A1.65 1.65 0 0 0 7.35 5.4V15c0 .911.739 1.65 1.65 1.65h9.6A1.65 1.65 0 0 0 20.25 15V7.35H12.6a1.95 1.95 0 0 1-1.95-1.95V3.75zM7.05 5.4A1.95 1.95 0 0 1 9 3.45h1.8a.15.15 0 0 1 .15.15v1.8c0 .911.739 1.65 1.65 1.65h7.8a.15.15 0 0 1 .15.15V15a1.95 1.95 0 0 1-1.95 1.95H9A1.95 1.95 0 0 1 7.05 15zm4.8-1.8a.15.15 0 0 1 .15-.15h6.6a1.95 1.95 0 0 1 1.95 1.95V6a.15.15 0 0 1-.15.15h-7.8a.75.75 0 0 1-.75-.75zm.3.15V5.4c0 .249.201.45.45.45h7.65V5.4a1.65 1.65 0 0 0-1.65-1.65zM4.895 5.944a.15.15 0 0 1 .055.116v1.242a.15.15 0 0 1-.1.142A1.65 1.65 0 0 0 3.75 9v7.8a3.45 3.45 0 0 0 3.45 3.45H15a1.65 1.65 0 0 0 1.556-1.1.15.15 0 0 1 .142-.1h1.242a.15.15 0 0 1 .147.18A3.15 3.15 0 0 1 15 21.75H7.2a4.95 4.95 0 0 1-4.95-4.95V9a3.15 3.15 0 0 1 2.52-3.087.15.15 0 0 1 .125.03m-.245.306A2.85 2.85 0 0 0 2.55 9v7.8a4.65 4.65 0 0 0 4.65 4.65H15c1.315 0 2.421-.89 2.75-2.1h-.95a1.95 1.95 0 0 1-1.8 1.2H7.2a3.75 3.75 0 0 1-3.75-3.75V9a1.95 1.95 0 0 1 1.2-1.8z" clip-rule="evenodd"/></svg>