<svg xmlns="http://www.w3.org/2000/svg" width="24" height="24" fill="none"><path fill="#04071E" d="M8.4 14.4a1.2 1.2 0 1 0 0-2.4 1.2 1.2 0 0 0 0 2.4m4.8-1.2a1.2 1.2 0 1 1-2.4 0 1.2 1.2 0 0 1 2.4 0m2.4 1.2a1.2 1.2 0 1 0 0-2.4 1.2 1.2 0 0 0 0 2.4m-12-7.8a3 3 0 0 1 3-3h10.8a3 3 0 0 1 3 3v10.8a3 3 0 0 1-3 3H6.6a3 3 0 0 1-3-3zm3-1.8a1.8 1.8 0 0 0-1.8 1.8v10.8a1.8 1.8 0 0 0 1.8 1.8h10.8a1.8 1.8 0 0 0 1.8-1.8v-9h-7.8a1.8 1.8 0 0 1-1.8-1.8V4.8zm12.6 1.8a1.8 1.8 0 0 0-1.8-1.8h-6.6v1.8a.6.6 0 0 0 .6.6h7.8z"/><path fill="#04071E" fill-rule="evenodd" d="M6.6 3.75A2.85 2.85 0 0 0 3.75 6.6v10.8a2.85 2.85 0 0 0 2.85 2.85h10.8a2.85 2.85 0 0 0 2.85-2.85V6.6a2.85 2.85 0 0 0-2.85-2.85zM3.45 6.6A3.15 3.15 0 0 1 6.6 3.45h10.8a3.15 3.15 0 0 1 3.15 3.15v10.8a3.15 3.15 0 0 1-3.15 3.15H6.6a3.15 3.15 0 0 1-3.15-3.15zm1.2 0A1.95 1.95 0 0 1 6.6 4.65h3a.15.15 0 0 1 .15.15v1.8c0 .911.739 1.65 1.65 1.65h7.8a.15.15 0 0 1 .15.15v9a1.95 1.95 0 0 1-1.95 1.95H6.6a1.95 1.95 0 0 1-1.95-1.95zM6.6 4.95A1.65 1.65 0 0 0 4.95 6.6v10.8c0 .911.739 1.65 1.65 1.65h10.8a1.65 1.65 0 0 0 1.65-1.65V8.55H11.4A1.95 1.95 0 0 1 9.45 6.6V4.95zm4.05-.15a.15.15 0 0 1 .15-.15h6.6a1.95 1.95 0 0 1 1.95 1.95v.6a.15.15 0 0 1-.15.15h-7.8a.75.75 0 0 1-.75-.75zm.3.15V6.6c0 .248.202.45.45.45h7.65V6.6a1.65 1.65 0 0 0-1.65-1.65zm-3.9 8.25a1.35 1.35 0 1 1 2.7 0 1.35 1.35 0 0 1-2.7 0m1.35-1.05a1.05 1.05 0 1 0 0 2.1 1.05 1.05 0 0 0 0-2.1m3.6 0a1.05 1.05 0 1 0 0 2.1 1.05 1.05 0 0 0 0-2.1m-1.35 1.05a1.35 1.35 0 1 1 2.7 0 1.35 1.35 0 0 1-2.7 0m3.6 0a1.35 1.35 0 1 1 2.7 0 1.35 1.35 0 0 1-2.7 0m1.35-1.05a1.05 1.05 0 1 0 0 2.1 1.05 1.05 0 0 0 0-2.1" clip-rule="evenodd"/></svg>