<svg xmlns="http://www.w3.org/2000/svg" width="24" height="24" fill="none"><path fill="#04071E" d="M5.4 2.4a3 3 0 0 0-3 3v6.909q.554-.459 1.2-.79V5.4a1.8 1.8 0 0 1 1.8-1.8h1.8v1.8A1.8 1.8 0 0 0 9 7.2h7.8V15a1.8 1.8 0 0 1-1.8 1.8h-1.827a6.7 6.7 0 0 1 0 1.2H15a3 3 0 0 0 3-3V5.4a3 3 0 0 0-3-3zm11.4 19.2H11.69q.459-.554.79-1.2H16.8a3.6 3.6 0 0 0 3.6-3.6V9a1.8 1.8 0 0 0-1.2-1.698V6.06A3 3 0 0 1 21.6 9v7.8a4.8 4.8 0 0 1-4.8 4.8m0-16.2V6H9a.6.6 0 0 1-.6-.6V3.6H15a1.8 1.8 0 0 1 1.8 1.8m-4.8 12a5.4 5.4 0 1 1-10.8 0 5.4 5.4 0 0 1 10.8 0M7.2 15A.6.6 0 1 0 6 15v1.8H4.2a.6.6 0 1 0 0 1.2H6v1.8a.6.6 0 1 0 1.2 0V18H9a.6.6 0 1 0 0-1.2H7.2z"/><path fill="#04071E" fill-rule="evenodd" d="M2.25 5.4A3.15 3.15 0 0 1 5.4 2.25H15a3.15 3.15 0 0 1 3.15 3.15V15A3.15 3.15 0 0 1 15 18.15h-1.991l.015-.163a6.5 6.5 0 0 0 0-1.173l-.015-.164H15A1.65 1.65 0 0 0 16.65 15V7.35H9A1.95 1.95 0 0 1 7.05 5.4V3.75H5.4A1.65 1.65 0 0 0 3.75 5.4v6.211l-.082.042a6.5 6.5 0 0 0-1.173.771l-.245.203zM5.4 2.55A2.85 2.85 0 0 0 2.55 5.4V12q.425-.32.9-.571V5.4A1.95 1.95 0 0 1 5.4 3.45h1.95V5.4c0 .911.739 1.65 1.65 1.65h7.95V15A1.95 1.95 0 0 1 15 16.95h-1.665a7 7 0 0 1 0 .9H15A2.85 2.85 0 0 0 17.85 15V5.4A2.85 2.85 0 0 0 15 2.55zm2.85.9H15a1.95 1.95 0 0 1 1.95 1.95v.75H9a.75.75 0 0 1-.75-.75zm.3.3V5.4c0 .249.201.45.45.45h7.65V5.4A1.65 1.65 0 0 0 15 3.75zm10.5 2.127.18.036A3.15 3.15 0 0 1 21.75 9v7.8a4.95 4.95 0 0 1-4.95 4.95h-5.427l.203-.245c.297-.36.556-.754.77-1.173l.043-.082h4.41a3.45 3.45 0 0 0 3.45-3.45V9a1.65 1.65 0 0 0-1.1-1.556l-.1-.035zm.3.373v.95c.704.293 1.2.989 1.2 1.8v7.8a3.75 3.75 0 0 1-3.75 3.75H12.57a7 7 0 0 1-.57.9H16.8a4.65 4.65 0 0 0 4.65-4.65V9c0-1.314-.89-2.421-2.1-2.75M6.6 12.15a5.25 5.25 0 1 0 0 10.5 5.25 5.25 0 0 0 0-10.5M1.05 17.4a5.55 5.55 0 1 1 11.1 0 5.55 5.55 0 0 1-11.1 0m4.8-2.4a.75.75 0 0 1 1.5 0v1.65H9a.75.75 0 0 1 0 1.5H7.35v1.65a.75.75 0 0 1-1.5 0v-1.65H4.2a.75.75 0 0 1 0-1.5h1.65zm.75-.45a.45.45 0 0 0-.45.45v1.95H4.2a.45.45 0 0 0 0 .9h1.95v1.95a.45.45 0 0 0 .9 0v-1.95H9a.45.45 0 0 0 0-.9H7.05V15a.45.45 0 0 0-.45-.45" clip-rule="evenodd"/></svg>