<svg xmlns="http://www.w3.org/2000/svg" width="24" height="24" fill="none"><path fill="#04071E" d="M6.806 20.4h9.401a4.19 4.19 0 0 0 2.95-1.217l.014-.013.013-.014a4.19 4.19 0 0 0 1.217-2.956V6.806c.75.927 1.2 2.108 1.2 3.394v6a5.4 5.4 0 0 1-5.4 5.4h-6a5.38 5.38 0 0 1-3.395-1.2M18.321 3.28A3 3 0 0 1 19.2 5.4v10.8a3 3 0 0 1-3 3H5.4a3 3 0 0 1-3-3V5.4a3 3 0 0 1 3-3h10.8a3 3 0 0 1 2.121.879M5.4 3.6l-.173.008A1.8 1.8 0 0 0 3.6 5.4v1.8h3.6V3.6zm7.8 0H8.4v3.6h4.8zM18 5.4l-.008-.173A1.8 1.8 0 0 0 16.2 3.6h-1.8v3.6H18zm-9.6 3v4.8h4.8V8.4zm9.6 0h-3.6v4.8H18zm-9.6 6V18h4.8v-3.6zm9.6 0h-3.6V18h1.8l.173-.008A1.8 1.8 0 0 0 18 16.2zM4.19 17.532A1.8 1.8 0 0 0 5.4 18h1.8v-3.6H3.6v1.8l.008.173a1.8 1.8 0 0 0 .582 1.16M3.6 8.4v4.8h3.6V8.4z"/><path fill="#04071E" fill-rule="evenodd" d="M5.4 2.55A2.85 2.85 0 0 0 2.55 5.4v10.8a2.85 2.85 0 0 0 2.85 2.85h10.8a2.85 2.85 0 0 0 2.85-2.85V5.4a2.85 2.85 0 0 0-2.85-2.85zm-2.227.623A3.15 3.15 0 0 1 5.4 2.25h10.8a3.15 3.15 0 0 1 3.15 3.15v10.8a3.15 3.15 0 0 1-3.15 3.15H5.4a3.15 3.15 0 0 1-3.15-3.15V5.4c0-.835.332-1.637.923-2.227M5.4 3.45h1.95v3.9h-3.9V5.4a1.95 1.95 0 0 1 1.763-1.94l.007-.002zm.004.3-.166.008A1.65 1.65 0 0 0 3.75 5.4v1.65h3.3v-3.3zm2.846-.3h5.1v3.9h-5.1zm.3.3v3.3h4.5v-3.3zm5.7-.3h1.95a1.95 1.95 0 0 1 1.94 1.763l.002.007.008.18v1.95h-3.9zm.3.3v3.3h3.3V5.404l-.008-.166A1.65 1.65 0 0 0 16.2 3.75zm5.7 2.632.267.33a5.53 5.53 0 0 1 1.234 3.488v6a5.55 5.55 0 0 1-5.55 5.55h-6a5.53 5.53 0 0 1-3.49-1.233l-.329-.267h9.825a4.04 4.04 0 0 0 2.844-1.173l.013-.013.013-.013a4.04 4.04 0 0 0 1.174-2.85zm.3.878v8.94a4.34 4.34 0 0 1-1.26 3.062l-.013.014-.014.014a4.34 4.34 0 0 1-3.056 1.26H7.26c.84.568 1.851.9 2.94.9h6c2.9 0 5.25-2.35 5.25-5.25v-6c0-1.09-.331-2.101-.9-2.94m-17.1.99h3.9v5.1h-3.9zm.3.3v4.5h3.3v-4.5zm4.5-.3h5.1v5.1h-5.1zm.3.3v4.5h4.5v-4.5zm5.7-.3h3.9v5.1h-3.9zm.3.3v4.5h3.3v-4.5zm-11.1 5.7h3.9v3.9H5.4a1.95 1.95 0 0 1-1.94-1.763l-.002-.007-.008-.18zm.3.3v1.646l.008.166A1.65 1.65 0 0 0 5.4 17.85h1.65v-3.3zm4.5-.3h5.1v3.9h-5.1zm.3.3v3.3h4.5v-3.3zm5.7-.3h3.9v1.95a1.95 1.95 0 0 1-1.763 1.94l-.007.002-.18.008h-1.95zm.3.3v3.3h1.646l.166-.008A1.65 1.65 0 0 0 17.85 16.2v-1.65z" clip-rule="evenodd"/></svg>