<svg xmlns="http://www.w3.org/2000/svg" width="24" height="24" fill="none"><path fill="#04071E" d="M19.8 2.4a.6.6 0 0 1 .6.6v1.8A2.4 2.4 0 0 1 18 7.2H6a2.4 2.4 0 0 1-2.4-2.4V3a.6.6 0 0 1 1.2 0v1.8A1.2 1.2 0 0 0 6 6h2.4V3a.6.6 0 0 1 1.2 0v3h4.8V3a.6.6 0 1 1 1.2 0v3H18a1.2 1.2 0 0 0 1.2-1.2V3a.6.6 0 0 1 .6-.6m0 19.2a.6.6 0 0 0 .6-.6v-1.8a2.4 2.4 0 0 0-2.4-2.4H6a2.4 2.4 0 0 0-2.4 2.4V21a.6.6 0 1 0 1.2 0v-1.8A1.2 1.2 0 0 1 6 18h2.4v3a.6.6 0 1 0 1.2 0v-3h4.8v3a.6.6 0 1 0 1.2 0v-3H18a1.2 1.2 0 0 1 1.2 1.2V21a.6.6 0 0 0 .6.6M3 11.4h18.007a.6.6 0 0 1 0 1.2H3a.6.6 0 1 1 0-1.2"/><path fill="#04071E" fill-rule="evenodd" d="M4.2 2.55a.45.45 0 0 0-.45.45v1.8A2.25 2.25 0 0 0 6 7.05h12a2.25 2.25 0 0 0 2.25-2.25V3a.45.45 0 0 0-.9 0v1.8A1.35 1.35 0 0 1 18 6.15h-2.4a.15.15 0 0 1-.15-.15V3a.45.45 0 0 0-.9 0v3a.15.15 0 0 1-.15.15H9.6A.15.15 0 0 1 9.45 6V3a.45.45 0 1 0-.9 0v3a.15.15 0 0 1-.15.15H6A1.35 1.35 0 0 1 4.65 4.8V3a.45.45 0 0 0-.45-.45M3.45 3a.75.75 0 0 1 1.5 0v1.8c0 .58.47 1.05 1.05 1.05h2.25V3a.75.75 0 0 1 1.5 0v2.85h4.5V3a.75.75 0 0 1 1.5 0v2.85H18c.58 0 1.05-.47 1.05-1.05V3a.75.75 0 0 1 1.5 0v1.8A2.55 2.55 0 0 1 18 7.35H6A2.55 2.55 0 0 1 3.45 4.8zM3 11.55a.45.45 0 0 0 0 .9h18.007a.45.45 0 0 0 0-.9zm-.75.45a.75.75 0 0 1 .75-.75h18.007a.75.75 0 0 1 0 1.5H3a.75.75 0 0 1-.75-.75m1.2 7.2A2.55 2.55 0 0 1 6 16.65h12a2.55 2.55 0 0 1 2.55 2.55V21a.75.75 0 0 1-1.5 0v-1.8c0-.58-.47-1.05-1.05-1.05h-2.25V21a.75.75 0 0 1-1.5 0v-2.85h-4.5V21a.75.75 0 0 1-1.5 0v-2.85H6c-.58 0-1.05.47-1.05 1.05V21a.75.75 0 0 1-1.5 0zM6 16.95a2.25 2.25 0 0 0-2.25 2.25V21a.45.45 0 0 0 .9 0v-1.8c0-.746.604-1.35 1.35-1.35h2.4a.15.15 0 0 1 .15.15v3a.45.45 0 0 0 .9 0v-3a.15.15 0 0 1 .15-.15h4.8a.15.15 0 0 1 .15.15v3a.45.45 0 0 0 .9 0v-3a.15.15 0 0 1 .15-.15H18c.746 0 1.35.604 1.35 1.35V21a.45.45 0 0 0 .9 0v-1.8A2.25 2.25 0 0 0 18 16.95z" clip-rule="evenodd"/></svg>