<svg xmlns="http://www.w3.org/2000/svg" width="24" height="24" fill="none"><path fill="#04071E" d="M20.4 6.6a3 3 0 0 0-3-3H6.6a3 3 0 0 0-3 3v10.8a3 3 0 0 0 3 3h6.6v-1.2H9.6v-3.6h3.6v-1.2H9.6V9.6h4.8v.6c.349-.262.757-.45 1.2-.54V9.6h4.8zM4.8 17.4v-1.8h3.6v3.6H6.6l-.173-.008A1.8 1.8 0 0 1 4.8 17.4m9.6-9H9.6V4.8h4.8zm1.2-3.6h1.8l.173.008A1.8 1.8 0 0 1 19.2 6.6v1.8h-3.6zM4.8 8.4V6.6l.008-.173A1.8 1.8 0 0 1 6.6 4.8h1.8v3.6zm3.6 1.2v4.8H4.8V9.6zm6 3a1.8 1.8 0 0 1 1.8-1.8H21a1.8 1.8 0 0 1 1.8 1.8V21a1.8 1.8 0 0 1-1.8 1.8h-4.8a1.8 1.8 0 0 1-1.8-1.8zm3 3h-1.2a.6.6 0 1 0 0 1.2h1.2a.6.6 0 0 0 0-1.2m4.2.6a.6.6 0 0 0-.6-.6h-1.2a.6.6 0 1 0 0 1.2H21a.6.6 0 0 0 .6-.6M17.4 18h-1.2a.6.6 0 1 0 0 1.2h1.2a.6.6 0 0 0 0-1.2m4.2.6a.6.6 0 0 0-.6-.6h-1.2a.6.6 0 1 0 0 1.2H21a.6.6 0 0 0 .6-.6m-4.2 1.8h-1.2a.6.6 0 1 0 0 1.2h1.2a.6.6 0 0 0 0-1.2m4.2.6a.6.6 0 0 0-.6-.6h-1.2a.6.6 0 1 0 0 1.2H21a.6.6 0 0 0 .6-.6m-5.4-9a.6.6 0 0 0-.6.6v1.2a.6.6 0 0 0 .6.6H21a.6.6 0 0 0 .6-.6v-1.2a.6.6 0 0 0-.6-.6z"/><path fill="#04071E" fill-rule="evenodd" d="M3.45 6.6A3.15 3.15 0 0 1 6.6 3.45h10.8a3.15 3.15 0 0 1 3.15 3.15v3.15h-4.8v.033l-.12.024a2.8 2.8 0 0 0-1.14.513l-.24.18v-.75h-4.5v4.5h3.6v1.5h-3.6v3.3h3.6v1.5H6.6a3.15 3.15 0 0 1-3.15-3.15zM6.6 3.75A2.85 2.85 0 0 0 3.75 6.6v10.8a2.85 2.85 0 0 0 2.85 2.85h6.45v-.9h-3.6v-3.9h3.6v-.9h-3.6v-5.1h5.1v.466c.275-.17.578-.297.9-.376v-.09h4.8V6.6a2.85 2.85 0 0 0-2.85-2.85zM4.958 6.437l-.008.167V8.25h3.3v-3.3H6.6a1.65 1.65 0 0 0-1.642 1.487m-.3-.025A1.95 1.95 0 0 1 6.6 4.65h1.95v3.9h-3.9V6.593zM9.45 4.65h5.1v3.9h-5.1zm.3.3v3.3h4.5v-3.3zm5.7-.3h1.957l.18.009A1.95 1.95 0 0 1 19.35 6.6v1.95h-3.9zm.3.3v3.3h3.3V6.6a1.65 1.65 0 0 0-1.488-1.642l-.166-.008zm-11.1 4.5h3.9v5.1h-3.9zm.3.3v4.5h3.3v-4.5zm11.25 1.2a1.65 1.65 0 0 0-1.65 1.65V21c0 .911.739 1.65 1.65 1.65H21A1.65 1.65 0 0 0 22.65 21v-8.4A1.65 1.65 0 0 0 21 10.95zm-1.95 1.65a1.95 1.95 0 0 1 1.95-1.95H21a1.95 1.95 0 0 1 1.95 1.95V21A1.95 1.95 0 0 1 21 22.95h-4.8A1.95 1.95 0 0 1 14.25 21zm1.2 0a.75.75 0 0 1 .75-.75H21a.75.75 0 0 1 .75.75v1.2a.75.75 0 0 1-.75.75h-4.8a.75.75 0 0 1-.75-.75zm.75-.45a.45.45 0 0 0-.45.45v1.2c0 .248.201.45.45.45H21a.45.45 0 0 0 .45-.45v-1.2a.45.45 0 0 0-.45-.45zm-11.55 3.3h3.9v3.9H6.593l-.18-.009A1.95 1.95 0 0 1 4.65 17.4zm.3.3v1.65c0 .856.652 1.56 1.487 1.642l.167.008H8.25v-3.3zm10.5.45a.75.75 0 0 1 .75-.75h1.2a.75.75 0 1 1 0 1.5h-1.2a.75.75 0 0 1-.75-.75m.75-.45a.45.45 0 1 0 0 .9h1.2a.45.45 0 0 0 0-.9zm2.85.45a.75.75 0 0 1 .75-.75H21a.75.75 0 1 1 0 1.5h-1.2a.75.75 0 0 1-.75-.75m.75-.45a.45.45 0 1 0 0 .9H21a.45.45 0 0 0 0-.9zm-4.35 2.85a.75.75 0 0 1 .75-.75h1.2a.75.75 0 1 1 0 1.5h-1.2a.75.75 0 0 1-.75-.75m.75-.45a.45.45 0 1 0 0 .9h1.2a.45.45 0 0 0 0-.9zm2.85.45a.75.75 0 0 1 .75-.75H21a.75.75 0 1 1 0 1.5h-1.2a.75.75 0 0 1-.75-.75m.75-.45a.45.45 0 1 0 0 .9H21a.45.45 0 0 0 0-.9zM15.45 21a.75.75 0 0 1 .75-.75h1.2a.75.75 0 1 1 0 1.5h-1.2a.75.75 0 0 1-.75-.75m.75-.45a.45.45 0 1 0 0 .9h1.2a.45.45 0 0 0 0-.9zm2.85.45a.75.75 0 0 1 .75-.75H21a.75.75 0 1 1 0 1.5h-1.2a.75.75 0 0 1-.75-.75m.75-.45a.45.45 0 1 0 0 .9H21a.45.45 0 0 0 0-.9z" clip-rule="evenodd"/></svg>