<svg xmlns="http://www.w3.org/2000/svg" width="24" height="24" fill="none"><path fill="#04071E" d="M20.4 6.6a3 3 0 0 0-3-3H6.6a3 3 0 0 0-3 3v10.8a3 3 0 0 0 3 3h4.243a4 4 0 0 1-.043-.6v-.6H9.6v-3.6h1.2V15q0-.306.042-.6H9.6V9.6h4.8v1.242q.294-.041.6-.042h.6V9.6h3.6v1.2h.6q.306 0 .6.042zM4.8 17.4v-1.8h3.6v3.6H6.6l-.173-.008A1.8 1.8 0 0 1 4.8 17.4m9.6-9H9.6V4.8h4.8zm1.2-3.6h1.8l.173.008A1.8 1.8 0 0 1 19.2 6.6v1.8h-3.6zM4.8 8.4V6.6l.008-.173A1.8 1.8 0 0 1 6.6 4.8h1.8v3.6zm3.6 1.2v4.8H4.8V9.6zM12 15a3 3 0 0 1 3-3h4.8a3 3 0 0 1 3 3v4.8c0 .611-.183 1.18-.497 1.654l-3.63-3.63a1.8 1.8 0 0 0-2.546 0l-3.63 3.63A3 3 0 0 1 12 19.8zm8.4.3a.9.9 0 1 0-1.8 0 .9.9 0 0 0 1.8 0m-7.054 7.003A3 3 0 0 0 15 22.8h4.8c.611 0 1.18-.183 1.654-.497l-3.63-3.63a.6.6 0 0 0-.848 0z"/><path fill="#04071E" fill-rule="evenodd" d="M3.45 6.6A3.15 3.15 0 0 1 6.6 3.45h10.8a3.15 3.15 0 0 1 3.15 3.15v4.416l-.171-.025a4 4 0 0 0-.579-.041h-.75v-1.2h-3.3v1.2H15q-.295 0-.579.041l-.171.024V9.75h-4.5v4.5h1.265l-.024.171a4 4 0 0 0-.041.579v.75h-1.2v3.3h1.2v.75q0 .296.041.579l.024.171H6.6a3.15 3.15 0 0 1-3.15-3.15zM6.6 3.75A2.85 2.85 0 0 0 3.75 6.6v10.8a2.85 2.85 0 0 0 2.85 2.85h4.073a4 4 0 0 1-.023-.45v-.45h-1.2v-3.9h1.2V15q0-.228.023-.45H9.45v-5.1h5.1v1.223q.222-.023.45-.023h.45v-1.2h3.9v1.2h.45q.228 0 .45.023V6.6a2.85 2.85 0 0 0-2.85-2.85zM4.958 6.437l-.008.167V8.25h3.3v-3.3H6.6a1.65 1.65 0 0 0-1.642 1.487m-.3-.025A1.95 1.95 0 0 1 6.6 4.65h1.95v3.9h-3.9V6.593zM9.45 4.65h5.1v3.9h-5.1zm.3.3v3.3h4.5v-3.3zm5.7-.3h1.957l.18.009A1.95 1.95 0 0 1 19.35 6.6v1.95h-3.9zm.3.3v3.3h3.3V6.6a1.65 1.65 0 0 0-1.488-1.642l-.166-.008zm-11.1 4.5h3.9v5.1h-3.9zm.3.3v4.5h3.3v-4.5zM15 12.15A2.85 2.85 0 0 0 12.15 15v4.8c0 .515.136.997.375 1.414l3.496-3.496a1.95 1.95 0 0 1 2.758 0l3.496 3.496c.239-.416.375-.9.375-1.414V15a2.85 2.85 0 0 0-2.85-2.85zM11.85 15A3.15 3.15 0 0 1 15 11.85h4.8A3.15 3.15 0 0 1 22.95 15v4.8c0 .642-.192 1.24-.522 1.737l-.101.153-3.76-3.76a1.65 1.65 0 0 0-2.334 0l-3.76 3.76-.101-.153a3.14 3.14 0 0 1-.522-1.737zm6.6.3a1.05 1.05 0 1 1 2.1 0 1.05 1.05 0 0 1-2.1 0m1.05-.75a.75.75 0 1 0 0 1.5.75.75 0 0 0 0-1.5m-14.85.9h3.9v3.9H6.593l-.18-.009A1.95 1.95 0 0 1 4.65 17.4zm.3.3v1.65c0 .856.652 1.56 1.487 1.642l.167.008H8.25v-3.3zm11.92 2.817a.75.75 0 0 1 1.06 0l3.76 3.76-.153.101a3.14 3.14 0 0 1-1.737.522H15c-.642 0-1.24-.192-1.737-.522l-.153-.101zm-3.284 3.708c.416.239.899.375 1.414.375h4.8c.515 0 .997-.136 1.414-.375l-3.496-3.496a.45.45 0 0 0-.636 0z" clip-rule="evenodd"/></svg>