<svg xmlns="http://www.w3.org/2000/svg" width="24" height="24" fill="none"><path fill="#04071E" d="M19.2 6.6v6.6h1.2V6.6a3 3 0 0 0-3-3h-6.6v1.2h6.6a1.8 1.8 0 0 1 1.8 1.8M3.6 10.8v6.6a3 3 0 0 0 3 3h6.6v-1.2H6.6a1.8 1.8 0 0 1-1.8-1.8v-6.6zm3-7.2h3v4.8h6v6h4.8v3a3 3 0 0 1-3 3h-3v-4.8h-6v-6H3.6v-3a3 3 0 0 1 3-3m10.8 15.6a1.8 1.8 0 0 0 1.792-1.627l.008-.173v-1.8h-3.6v3.6zm-3-9.6H9.6v4.8h4.8zM4.8 8.4h3.6V4.8H6.6a1.8 1.8 0 0 0-1.792 1.627L4.8 6.6z"/><path fill="#04071E" fill-rule="evenodd" d="M6.6 3.75A2.85 2.85 0 0 0 3.75 6.6v2.85h4.8v6h6v4.8h2.85a2.85 2.85 0 0 0 2.85-2.85v-2.85h-4.8v-6h-6v-4.8zM3.45 6.6A3.15 3.15 0 0 1 6.6 3.45h3.15v4.8h6v6h4.8v3.15a3.15 3.15 0 0 1-3.15 3.15h-3.15v-4.8h-6v-6h-4.8zm7.2-3.15h6.75a3.15 3.15 0 0 1 3.15 3.15v6.75h-1.5V6.6a1.65 1.65 0 0 0-1.65-1.65h-6.75zm.3.3v.9h6.45a1.95 1.95 0 0 1 1.95 1.95v6.45h.9V6.6a2.85 2.85 0 0 0-2.85-2.85zM4.659 6.412A1.95 1.95 0 0 1 6.6 4.65h1.95v3.9h-3.9V6.593zm.299.025-.008.167V8.25h3.3v-3.3H6.6a1.65 1.65 0 0 0-1.642 1.487M9.45 9.45h5.1v5.1h-5.1zm.3.3v4.5h4.5v-4.5zm-6.3.9h1.5v6.75c0 .911.739 1.65 1.65 1.65h6.75v1.5H6.6a3.15 3.15 0 0 1-3.15-3.15zm.3.3v6.45a2.85 2.85 0 0 0 2.85 2.85h6.45v-.9H6.6a1.95 1.95 0 0 1-1.95-1.95v-6.45zm11.7 4.5h3.9v1.957l-.009.18A1.95 1.95 0 0 1 17.4 19.35h-1.95zm.3.3v3.3h1.65a1.65 1.65 0 0 0 1.642-1.488l.008-.166V15.75z" clip-rule="evenodd"/></svg>