<svg xmlns="http://www.w3.org/2000/svg" width="24" height="24" fill="none"><path fill="#04071E" d="M3.6 16.2a4.2 4.2 0 0 0 4.2 4.2h9.394a5.38 5.38 0 0 1-3.394 1.2h-6a5.4 5.4 0 0 1-5.4-5.4v-6c0-1.286.45-2.467 1.2-3.394zm2.079 2.121A3 3 0 0 1 4.8 16.2V5.4a3 3 0 0 1 3-3h10.8a3 3 0 0 1 3 3v10.8a3 3 0 0 1-3 3H7.8a3 3 0 0 1-2.121-.879M20.4 7.2V5.4a1.8 1.8 0 0 0-1.627-1.792L18.6 3.6h-1.8v3.6zm-4.8-3.6h-4.8v3.6h4.8zm-6 0H7.8a1.8 1.8 0 0 0-1.792 1.627L6 5.4v1.8h3.6zm1.2 4.8v4.8h4.8V8.4zM6 13.2h3.6V8.4H6zm4.8 1.2V18h4.8v-3.6zm-3 3.6h1.8v-3.6H6v1.8a1.8 1.8 0 0 0 1.627 1.792zm9-3.6V18h1.8a1.8 1.8 0 0 0 1.792-1.627l.008-.173v-1.8zm0-6v4.8h3.6V8.4z"/><path fill="#04071E" fill-rule="evenodd" d="M7.8 2.55A2.85 2.85 0 0 0 4.95 5.4v10.8a2.85 2.85 0 0 0 2.85 2.85h10.8a2.85 2.85 0 0 0 2.85-2.85V5.4a2.85 2.85 0 0 0-2.85-2.85zm-2.227.623A3.15 3.15 0 0 1 7.8 2.25h10.8a3.15 3.15 0 0 1 3.15 3.15v10.8a3.15 3.15 0 0 1-3.15 3.15H7.8a3.15 3.15 0 0 1-3.15-3.15V5.4c0-.835.332-1.637.923-2.227m.916.784A1.95 1.95 0 0 1 7.8 3.45h1.95v3.9h-3.9V5.393l.009-.18a1.95 1.95 0 0 1 .63-1.256M7.8 3.75a1.65 1.65 0 0 0-1.642 1.488l-.008.166V7.05h3.3v-3.3zm2.85-.3h5.1v3.9h-5.1zm.3.3v3.3h4.5v-3.3zm5.7-.3h1.957l.18.009A1.95 1.95 0 0 1 20.55 5.4v1.95h-3.9zm.3.3v3.3h3.3V5.4a1.65 1.65 0 0 0-1.488-1.642l-.166-.008zM3.75 6.382V16.2a4.05 4.05 0 0 0 4.05 4.05h9.818l-.33.267A5.53 5.53 0 0 1 13.8 21.75h-6a5.55 5.55 0 0 1-5.55-5.55v-6c0-1.321.462-2.536 1.233-3.489zm-.3.878c-.568.839-.9 1.85-.9 2.94v6c0 2.9 2.35 5.25 5.25 5.25h6c1.09 0 2.101-.332 2.94-.9H7.8a4.35 4.35 0 0 1-4.35-4.35zm2.4.99h3.9v5.1h-3.9zm.3.3v4.5h3.3v-4.5zm4.5-.3h5.1v5.1h-5.1zm.3.3v4.5h4.5v-4.5zm5.7-.3h3.9v5.1h-3.9zm.3.3v4.5h3.3v-4.5zm-11.1 5.7h3.9v3.9H7.793l-.18-.009A1.95 1.95 0 0 1 5.85 16.2zm.3.3v1.65a1.65 1.65 0 0 0 1.488 1.642l.166.008H9.45v-3.3zm4.5-.3h5.1v3.9h-5.1zm.3.3v3.3h4.5v-3.3zm5.7-.3h3.9v1.957l-.009.18A1.95 1.95 0 0 1 18.6 18.15h-1.95zm.3.3v3.3h1.65a1.65 1.65 0 0 0 1.642-1.488l.008-.166V14.55z" clip-rule="evenodd"/></svg>