<svg xmlns="http://www.w3.org/2000/svg" width="24" height="24" fill="none"><path fill="#04071E" fill-rule="evenodd" d="M3 6.25A3.25 3.25 0 0 1 6.25 3h11.5A3.25 3.25 0 0 1 21 6.25v5.772a6.5 6.5 0 0 0-1.5-.709V10H10v4h2.022a6.5 6.5 0 0 0-.709 1.5H4.5v2.25c0 .966.784 1.75 1.75 1.75h5.063c.173.534.412 1.037.709 1.5H6.25A3.25 3.25 0 0 1 3 17.75zM6.25 4.5A1.75 1.75 0 0 0 4.5 6.25V8.5H14v-4zM8.5 10h-4v4h4zm7-1.5h4V6.25a1.75 1.75 0 0 0-1.75-1.75H15.5z" clip-rule="evenodd"/><path fill="#04071E" fill-rule="evenodd" d="M12 17.5a5.5 5.5 0 1 0 11 0 5.5 5.5 0 0 0-11 0m3 3a.5.5 0 0 1 .5-.5h4a.5.5 0 0 1 0 1h-4a.5.5 0 0 1-.5-.5m1.188-5.61a.5.5 0 1 1 .624-.78l2.5 2a.5.5 0 0 1 0 .78l-2.5 2a.5.5 0 1 1-.624-.78L18.2 16.5z" clip-rule="evenodd"/></svg>