<svg xmlns="http://www.w3.org/2000/svg" width="24" height="24" fill="none"><path fill="#04071E" d="M20.4 6.6a3 3 0 0 0-3-3H6.6a3 3 0 0 0-3 3v4.509q.58-.206 1.2-.276V9.6h3.6v2.11l.117.08A5.4 5.4 0 0 1 9.6 12.808V9.6h4.8v4.8h-3.91a5.4 5.4 0 0 1 .276 1.2H14.4v3.6h-3.454l1.2 1.2H17.4a3 3 0 0 0 3-3zm-3 12.6h-1.8v-3.6h3.6v1.8l-.008.173A1.8 1.8 0 0 1 17.4 19.2m-1.8-9.6h3.6v4.8h-3.6zm-1.2-1.2H9.6V4.8h4.8zm1.2-3.6h1.8l.173.008A1.8 1.8 0 0 1 19.2 6.6v1.8h-3.6zM4.8 8.4V6.6l.008-.173A1.8 1.8 0 0 1 6.6 4.8h1.8v3.6zm-3.14 5.886a4.2 4.2 0 0 0 6.26 5.274l3.05 3.07a.6.6 0 1 0 .85-.85l-3.06-3.06a4.2 4.2 0 1 0-7.1-4.434m6.234.247a3 3 0 1 1-4.99 3.334 3 3 0 0 1 4.99-3.334"/><path fill="#04071E" fill-rule="evenodd" d="M3.5 11.25V6.6a3.1 3.1 0 0 1 3.1-3.1h10.8a3.1 3.1 0 0 1 3.1 3.1v10.8a3.1 3.1 0 0 1-3.1 3.1h-5.296l-1.4-1.4H14.3v-3.4h-3.624l-.01-.089a5.3 5.3 0 0 0-.27-1.178l-.047-.133h3.95V9.7H9.7v3.39l-.177-.22a5.3 5.3 0 0 0-1.178-1.076l-.044-.03V9.7H4.9v1.223l-.089.01a5.3 5.3 0 0 0-1.178.27zm4.9.46V9.6H4.8v1.233a5.4 5.4 0 0 0-1.2.276V6.6a3 3 0 0 1 3-3h10.8a3 3 0 0 1 3 3v10.8a3 3 0 0 1-3 3h-5.254l-1.2-1.2H14.4v-3.6h-3.634a5.4 5.4 0 0 0-.276-1.2h3.91V9.6H9.6v3.207l-.1-.12a5.4 5.4 0 0 0-1.1-.976m2.57 10.92-3.05-3.07a4.2 4.2 0 1 1 .84-.84l3.06 3.06a.6.6 0 1 1-.85.85m.92-.92-3-3a4.3 4.3 0 1 0-.981.982l2.99 3.008a.702.702 0 0 0 1.143-.764.7.7 0 0 0-.152-.227m3.81-2.61h1.7a1.7 1.7 0 0 0 1.692-1.534l.008-.168V15.7h-3.4zm3.5-1.7-.008.173A1.8 1.8 0 0 1 17.4 19.2h-1.8v-3.6h3.6zm-.1-7.7h-3.4v4.6h3.4zM9.7 8.3h4.6V4.9H9.7zm7.698-3.4H15.7v3.4h3.4V6.6a1.7 1.7 0 0 0-1.534-1.692zm.002-.1h-1.8v3.6h3.6V6.6a1.8 1.8 0 0 0-1.627-1.792zM4.9 6.602V8.3h3.4V4.9H6.6a1.7 1.7 0 0 0-1.692 1.534zM4.8 6.6v1.8h3.6V4.8H6.6a1.8 1.8 0 0 0-1.792 1.627zm3.5 9.6a2.9 2.9 0 1 0-5.8 0 2.9 2.9 0 0 0 5.8 0m7.3-6.6v4.8h3.6V9.6zm-1.2-1.2V4.8H9.6v3.6zm-6 7.8a3 3 0 1 0-6 0 3 3 0 0 0 6 0" clip-rule="evenodd"/></svg>