<svg xmlns="http://www.w3.org/2000/svg" width="24" height="24" fill="none"><path fill="#04071E" d="M9 8.4a1.8 1.8 0 0 0-1.8 1.8v3.6A1.8 1.8 0 0 0 9 15.6h4.87a2.1 2.1 0 0 0 1.32-.467l2.142-1.734a1.8 1.8 0 0 0 0-2.798L15.19 8.867a2.1 2.1 0 0 0-1.32-.467zm-.6 1.8a.6.6 0 0 1 .6-.6h4.87a.9.9 0 0 1 .565.2l2.143 1.733a.6.6 0 0 1 0 .934L14.435 14.2a.9.9 0 0 1-.566.2H9a.6.6 0 0 1-.6-.6zM12 2.4a9.6 9.6 0 1 0 0 19.2 9.6 9.6 0 0 0 0-19.2M3.6 12a8.4 8.4 0 1 1 16.8 0 8.4 8.4 0 0 1-16.8 0"/><path fill="#04071E" fill-rule="evenodd" d="M2.25 12c0-5.385 4.365-9.75 9.75-9.75s9.75 4.365 9.75 9.75-4.365 9.75-9.75 9.75S2.25 17.385 2.25 12M12 2.55a9.45 9.45 0 1 0 0 18.9 9.45 9.45 0 0 0 0-18.9m0 1.2a8.25 8.25 0 1 0 0 16.5 8.25 8.25 0 0 0 0-16.5M3.45 12a8.55 8.55 0 1 1 17.1 0 8.55 8.55 0 0 1-17.1 0m3.6-1.8A1.95 1.95 0 0 1 9 8.25h4.87a2.25 2.25 0 0 1 1.414.5l2.143 1.734a1.95 1.95 0 0 1 0 3.032l-2.143 1.733c-.4.324-.9.501-1.415.501H9a1.95 1.95 0 0 1-1.95-1.95zM9 8.55a1.65 1.65 0 0 0-1.65 1.65v3.6c0 .911.739 1.65 1.65 1.65h4.87c.446 0 .879-.153 1.226-.434l2.142-1.733a1.65 1.65 0 0 0 0-2.566l-2.142-1.733a1.95 1.95 0 0 0-1.227-.434zm0 1.2a.45.45 0 0 0-.45.45v3.6c0 .248.201.45.45.45h4.87a.75.75 0 0 0 .47-.167l2.143-1.733a.45.45 0 0 0 0-.7l-2.142-1.733a.75.75 0 0 0-.472-.167zm-.75.45A.75.75 0 0 1 9 9.45h4.87c.24 0 .473.083.66.234l2.142 1.733a.75.75 0 0 1 0 1.166l-2.142 1.733a1.05 1.05 0 0 1-.66.234H9a.75.75 0 0 1-.75-.75z" clip-rule="evenodd"/></svg>