<svg xmlns="http://www.w3.org/2000/svg" width="24" height="24" fill="none"><path fill="#04071E" d="M11.75 6c1.348 0 2.179.97 2.246 2.329l.004.18v2.115l2.219.403q.13.024.258.058a3.25 3.25 0 0 1 2.344 3.799l-.043.18-1.048 3.923a2.25 2.25 0 0 1-1.689 1.616l-.165.03-2.418.347a2.25 2.25 0 0 1-2.28-1.123l-.08-.155-.029-.063a3.5 3.5 0 0 0-1.026-1.283l-.194-.138-1.884-1.256-.093-.059-.098-.052-2.363-1.175a.75.75 0 0 1-.415-.655c-.025-1.109.465-1.964 1.418-2.44.702-.352 1.636-.332 2.827.016l.259.08V8.508C9.5 7.055 10.343 6 11.75 6m0 1.5c-.46 0-.713.275-.746.866L11 8.51v5.244a.75.75 0 0 1-1.036.693c-1.46-.602-2.441-.743-2.879-.524-.254.127-.42.29-.51.519l-.038.12 1.905.947.181.097.175.109 1.883 1.256a4.97 4.97 0 0 1 1.626 1.792l.122.245.03.062a.75.75 0 0 0 .677.434l.109-.008 2.418-.347a.75.75 0 0 0 .581-.443l.037-.105 1.048-3.924a1.75 1.75 0 0 0-1.239-2.142l-.07-.017-2.904-.529a.75.75 0 0 1-.608-.63l-.008-.108V8.51c0-.69-.255-1.009-.75-1.009m-.001-5a5.75 5.75 0 0 1 5.393 7.75l-.144-.053a6 6 0 0 0-.607-.176 5 5 0 0 0-.728-.112A4.25 4.25 0 1 0 8.5 10.991a6 6 0 0 0-.824.123c-.35.085-.588.17-.752.263A5.75 5.75 0 0 1 11.748 2.5"/></svg>