<svg xmlns="http://www.w3.org/2000/svg" width="24" height="24" fill="none"><path fill="#04071E" d="M11.224 8.524a.6.6 0 0 0-.848-.848L8.68 9.37l-.477-.435a.6.6 0 0 0-.809.886l.9.822a.6.6 0 0 0 .83-.019zm0 5.152a.6.6 0 0 1 0 .848l-2.1 2.1a.6.6 0 0 1-.829.019l-.9-.822a.6.6 0 0 1 .81-.886l.476.435 1.695-1.694a.6.6 0 0 1 .848 0m1.976.724a.6.6 0 0 0 0 1.2h2.005A3.6 3.6 0 0 1 15 14.4zm-6 4.8h6.06q-.06.292-.06.6 0 .3.046.6H7.2a3.6 3.6 0 0 1-3.6-3.6V7.2a3.6 3.6 0 0 1 3.6-3.6h9.6a3.6 3.6 0 0 1 3.6 3.6v4.082c-.365-.211-.77-.36-1.2-.432V7.2a2.4 2.4 0 0 0-2.4-2.4H7.2a2.4 2.4 0 0 0-2.4 2.4v9.6a2.4 2.4 0 0 0 2.4 2.4M12.6 9a.6.6 0 0 1 .6-.6h3a.6.6 0 1 1 0 1.2h-3a.6.6 0 0 1-.6-.6m8.4 5.4a2.4 2.4 0 1 1-4.8 0 2.4 2.4 0 0 1 4.8 0m1.8 5.4c0 1.494-1.2 3-4.2 3s-4.2-1.5-4.2-3a1.8 1.8 0 0 1 1.8-1.8H21a1.8 1.8 0 0 1 1.8 1.8"/><path fill="#04071E" fill-rule="evenodd" d="M15.629 15.9h-2.43a.9.9 0 1 1 0-1.8h2.1v.3c0 .386.067.756.189 1.1zm-2.002 3-.073.36a2.7 2.7 0 0 0-.054.54q0 .278.042.554l.053.346H7.2a3.9 3.9 0 0 1-3.9-3.9V7.2a3.9 3.9 0 0 1 3.9-3.9h9.6a3.9 3.9 0 0 1 3.9 3.9v4.602l-.45-.26a3.3 3.3 0 0 0-1.1-.396l-.25-.042V7.2a2.1 2.1 0 0 0-2.1-2.1H7.2a2.1 2.1 0 0 0-2.1 2.1v9.6c0 1.16.94 2.1 2.1 2.1zm-2.19-11.436a.9.9 0 0 1 0 1.272l-2.1 2.1a.9.9 0 0 1-1.244.028l-.9-.822a.9.9 0 0 1 1.214-1.329l.265.242 1.491-1.491a.9.9 0 0 1 1.273 0M8.68 9.37l1.695-1.694a.6.6 0 1 1 .848.848l-2.1 2.1a.6.6 0 0 1-.829.019l-.9-.822a.6.6 0 1 1 .81-.886zm2.755 4.094a.9.9 0 0 1 0 1.272l-2.1 2.1a.9.9 0 0 1-1.243.029l-.9-.822a.9.9 0 0 1 1.214-1.33l.265.242 1.491-1.491a.9.9 0 0 1 1.273 0M13.2 15.6a.6.6 0 1 1 0-1.2H15a3.6 3.6 0 0 0 .205 1.2zm-6 4.8a3.6 3.6 0 0 1-3.6-3.6V7.2a3.6 3.6 0 0 1 3.6-3.6h9.6a3.6 3.6 0 0 1 3.6 3.6v4.082a3.6 3.6 0 0 0-1.2-.432V7.2a2.4 2.4 0 0 0-2.4-2.4H7.2a2.4 2.4 0 0 0-2.4 2.4v9.6a2.4 2.4 0 0 0 2.4 2.4h6.06a3 3 0 0 0-.06.6 4 4 0 0 0 .046.6zM12.3 9a.9.9 0 0 1 .9-.9h3a.9.9 0 1 1 0 1.8h-3a.9.9 0 0 1-.9-.9m9 5.4a2.7 2.7 0 1 1-5.4 0 2.7 2.7 0 0 1 5.4 0m.717 7.69c-.744.621-1.87 1.01-3.417 1.01-1.548 0-2.673-.387-3.417-1.007A2.94 2.94 0 0 1 14.1 19.8c0-1.16.94-2.1 2.1-2.1H21c1.16 0 2.1.94 2.1 2.1a2.94 2.94 0 0 1-1.083 2.29m-10.793-7.566a.6.6 0 0 0-.848-.848L8.68 15.37l-.477-.435a.6.6 0 1 0-.809.886l.9.822a.6.6 0 0 0 .83-.019zM13.2 8.4a.6.6 0 1 0 0 1.2h3a.6.6 0 1 0 0-1.2zm5.4 8.4a2.4 2.4 0 1 0 0-4.8 2.4 2.4 0 0 0 0 4.8m0 6c3 0 4.2-1.506 4.2-3A1.8 1.8 0 0 0 21 18h-4.8a1.8 1.8 0 0 0-1.8 1.8c0 1.5 1.2 3 4.2 3" clip-rule="evenodd"/></svg>