<svg xmlns="http://www.w3.org/2000/svg" width="24" height="24" fill="none"><path fill="#04071E" d="M11.225 7.676a.6.6 0 0 1 0 .848l-2.1 2.1a.6.6 0 0 1-.83.019l-.9-.822a.6.6 0 0 1 .81-.886l.476.435 1.695-1.694a.6.6 0 0 1 .849 0m0 6.848a.6.6 0 1 0-.85-.848L8.682 15.37l-.476-.435a.6.6 0 1 0-.81.886l.9.822a.6.6 0 0 0 .83-.019zM13.2 8.4a.6.6 0 1 0 0 1.2h3a.6.6 0 1 0 0-1.2zM3.6 7.2a3.6 3.6 0 0 1 3.6-3.6h9.6a3.6 3.6 0 0 1 3.6 3.6v4.321a6.6 6.6 0 0 0-1.2-.47V7.2a2.4 2.4 0 0 0-2.4-2.4H7.2a2.4 2.4 0 0 0-2.4 2.4v9.6a2.4 2.4 0 0 0 2.4 2.4h3.85q.178.624.471 1.2h-4.32a3.6 3.6 0 0 1-3.6-3.6zm9.161 9.504a2.4 2.4 0 0 0 1.716-2.974l-.187-.668q.46-.355.987-.6l.404.43a2.4 2.4 0 0 0 3.492 0l.386-.412c.357.167.694.376 1.002.621l-.15.507a2.4 2.4 0 0 0 1.746 3.023l.42.098a5.5 5.5 0 0 1 .011 1.22l-.552.142a2.4 2.4 0 0 0-1.717 2.973l.187.668a5 5 0 0 1-.986.6l-.405-.43a2.4 2.4 0 0 0-3.49 0l-.386.418a5.2 5.2 0 0 1-1.002-.622l.152-.508a2.4 2.4 0 0 0-1.748-3.022l-.418-.1a5.5 5.5 0 0 1-.012-1.22zm5.838.696a1.2 1.2 0 1 0-2.4 0 1.2 1.2 0 0 0 2.4 0"/><path fill="#04071E" fill-rule="evenodd" d="M7.2 3.75A3.45 3.45 0 0 0 3.75 7.2v9.6a3.45 3.45 0 0 0 3.45 3.45h4.081a7 7 0 0 1-.343-.9H7.2a2.55 2.55 0 0 1-2.55-2.55V7.2A2.55 2.55 0 0 1 7.2 4.65h9.6a2.55 2.55 0 0 1 2.55 2.55v3.738q.464.14.9.343V7.2a3.45 3.45 0 0 0-3.45-3.45zM3.45 7.2A3.75 3.75 0 0 1 7.2 3.45h9.6a3.75 3.75 0 0 1 3.75 3.75v4.566l-.218-.111a6.5 6.5 0 0 0-1.173-.46l-.109-.031V7.2a2.25 2.25 0 0 0-2.25-2.25H7.2A2.25 2.25 0 0 0 4.95 7.2v9.6a2.25 2.25 0 0 0 2.25 2.25h3.964l.03.109q.174.609.461 1.173l.111.218H7.2a3.75 3.75 0 0 1-3.75-3.75zm7.668.582a.45.45 0 0 0-.636 0L8.686 9.578l-.582-.532a.45.45 0 1 0-.607.664l.9.822a.45.45 0 0 0 .621-.014l2.1-2.1a.45.45 0 0 0 0-.636m-.848-.212a.75.75 0 1 1 1.06 1.06l-2.1 2.1a.75.75 0 0 1-1.036.024l-.9-.822a.75.75 0 0 1 1.012-1.108l.37.339zM12.45 9a.75.75 0 0 1 .75-.75h3a.75.75 0 0 1 0 1.5h-3a.75.75 0 0 1-.75-.75m.75-.45a.45.45 0 0 0 0 .9h3a.45.45 0 0 0 0-.9zm2.112 3.73.478.508m-.478-.508-.099.046zm4.213.018.098.046q.553.26 1.032.64l.08.063-.181.604a2.25 2.25 0 0 0 1.638 2.834l.52.122.013.104q.041.34.04.684 0 .288-.027.569l-.01.105-.655.167a2.25 2.25 0 0 0-1.61 2.788l.215.764-.08.062q-.472.366-1.015.618l-.098.045-.479-.508a2.25 2.25 0 0 0-3.272 0l-.46.497-.099-.047a5.4 5.4 0 0 1-1.03-.64l-.08-.062.18-.605a2.25 2.25 0 0 0-1.638-2.834l-.52-.124-.013-.104a5.809 5.809 0 0 1-.012-1.252l.01-.104.651-.171h.001a2.25 2.25 0 0 0 1.609-2.788l-.215-.766.08-.062q.474-.365 1.015-.617m-.75.794q.368-.273.78-.476l.329.35a2.553 2.553 0 0 0 3.71 0l.311-.331q.422.209.795.494l-.122.408a2.55 2.55 0 0 0 1.857 3.211l.316.075a5.4 5.4 0 0 1 .01.98l-.45.114a2.55 2.55 0 0 0-1.824 3.16l.16.569a5 5 0 0 1-.78.475l-.33-.35a2.55 2.55 0 0 0-3.71 0v.001l-.31.336a5 5 0 0 1-.794-.494l.121-.409m-.07-8.113.16.57a2.55 2.55 0 0 1-1.823 3.159l-.448.118a5.5 5.5 0 0 0 .01.98l.315.075M10.27 13.57a.75.75 0 1 1 1.06 1.06l-2.1 2.1a.75.75 0 0 1-1.036.024l-.9-.822a.75.75 0 1 1 1.012-1.108l.37.339zm.848.212a.45.45 0 0 0-.636 0l-1.796 1.796-.582-.532a.45.45 0 0 0-.607.664l.9.822a.45.45 0 0 0 .621-.014l2.1-2.1a.45.45 0 0 0 0-.636m5.531 2.495a1.35 1.35 0 1 1 1.5 2.244 1.35 1.35 0 0 1-1.5-2.244m.75.073a1.05 1.05 0 1 0 0 2.1 1.05 1.05 0 0 0 0-2.1" clip-rule="evenodd"/></svg>