<svg xmlns="http://www.w3.org/2000/svg" width="24" height="24" fill="none"><path fill="#04071E" d="M6.9 3.6h10.2a3.3 3.3 0 0 1 3.3 3.3v4.382c-.364-.211-.77-.36-1.2-.432V6.9a2.1 2.1 0 0 0-2.1-2.1H6.9a2.1 2.1 0 0 0-2.1 2.1v10.2c0 1.16.94 2.1 2.1 2.1h6.36q-.06.292-.06.6 0 .3.046.6H6.9a3.3 3.3 0 0 1-3.3-3.3V6.9a3.3 3.3 0 0 1 3.3-3.3m4.5 8.4h4.517c-.31.346-.554.753-.712 1.2H11.4a.6.6 0 0 1 0-1.2m0 3.6h3.805a3.6 3.6 0 0 0 .712 1.2H11.4a.6.6 0 0 1 0-1.2M9 8.7a.9.9 0 1 1-1.8 0 .9.9 0 0 1 1.8 0m-.9 4.5a.9.9 0 1 0 0-1.8.9.9 0 0 0 0 1.8m0 3.6a.9.9 0 1 0 0-1.8.9.9 0 0 0 0 1.8m3.3-8.4a.6.6 0 1 0 0 1.2h4.8a.6.6 0 1 0 0-1.2zm9.6 6a2.4 2.4 0 1 1-4.8 0 2.4 2.4 0 0 1 4.8 0m1.8 5.4c0 1.494-1.2 3-4.2 3s-4.2-1.5-4.2-3a1.8 1.8 0 0 1 1.8-1.8H21a1.8 1.8 0 0 1 1.8 1.8"/><path fill="#04071E" fill-rule="evenodd" d="M6.9 3.75A3.15 3.15 0 0 0 3.75 6.9v10.2a3.15 3.15 0 0 0 3.15 3.15h6.175q-.025-.225-.025-.45 0-.23.032-.45H6.9a2.25 2.25 0 0 1-2.25-2.25V6.9A2.25 2.25 0 0 1 6.9 4.65h10.2a2.25 2.25 0 0 1 2.25 2.25v3.825q.475.097.9.307V6.9a3.15 3.15 0 0 0-3.15-3.15zM3.45 6.9A3.45 3.45 0 0 1 6.9 3.45h10.2a3.45 3.45 0 0 1 3.45 3.45v4.642l-.225-.13a3.4 3.4 0 0 0-1.15-.414l-.125-.021V6.9a1.95 1.95 0 0 0-1.95-1.95H6.9A1.95 1.95 0 0 0 4.95 6.9v10.2a1.95 1.95 0 0 0 1.95 1.95h6.544l-.037.18a3 3 0 0 0-.057.57q0 .29.044.577l.027.173H6.9a3.45 3.45 0 0 1-3.45-3.45zM8.1 7.95a.75.75 0 1 0 0 1.5.75.75 0 0 0 0-1.5m-1.05.75a1.05 1.05 0 1 1 2.1 0 1.05 1.05 0 0 1-2.1 0m3.6.3a.75.75 0 0 1 .75-.75h4.8a.75.75 0 0 1 0 1.5h-4.8a.75.75 0 0 1-.75-.75m.75-.45a.45.45 0 0 0 0 .9h4.8a.45.45 0 0 0 0-.9zM7.05 12.3a1.05 1.05 0 1 1 2.1 0 1.05 1.05 0 0 1-2.1 0m1.05-.75a.75.75 0 1 0 0 1.5.75.75 0 0 0 0-1.5m3.3.6a.45.45 0 1 0 0 .9h3.7a3.7 3.7 0 0 1 .5-.9zm-.75.45a.75.75 0 0 1 .75-.75h4.852l-.223.25c-.297.332-.531.722-.682 1.15l-.036.1h-3.91a.75.75 0 0 1-.75-.75m7.95-.45a2.25 2.25 0 1 0 0 4.5 2.25 2.25 0 0 0 0-4.5m-2.55 2.25a2.55 2.55 0 1 1 5.1 0 2.55 2.55 0 0 1-5.1 0m-9 1.5a1.05 1.05 0 1 1 2.1 0 1.05 1.05 0 0 1-2.1 0m1.05-.75a.75.75 0 1 0 0 1.5.75.75 0 0 0 0-1.5m3.3.6a.45.45 0 1 0 0 .9h4.2a3.7 3.7 0 0 1-.5-.9zm-.75.45a.75.75 0 0 1 .75-.75h3.911l.036.1c.15.428.385.818.682 1.15l.223.25H11.4a.75.75 0 0 1-.75-.75m5.55 1.95a1.65 1.65 0 0 0-1.65 1.65c0 .708.282 1.415.921 1.947.64.534 1.653.903 3.13.903 1.475 0 2.488-.37 3.128-.905a2.49 2.49 0 0 0 .921-1.945A1.65 1.65 0 0 0 21 18.15zm-1.95 1.65a1.95 1.95 0 0 1 1.95-1.95H21a1.95 1.95 0 0 1 1.95 1.95 2.79 2.79 0 0 1-1.029 2.175c-.71.592-1.797.975-3.32.975-1.525 0-2.612-.381-3.322-.972A2.79 2.79 0 0 1 14.25 19.8" clip-rule="evenodd"/></svg>