<svg xmlns="http://www.w3.org/2000/svg" width="24" height="24" fill="none"><path fill="#04071E" d="M6.25 1.75V3h-3.5a.75.75 0 0 0 0 1.5h8.5a.75.75 0 0 0 0-1.5h-3.5V1.75a.75.75 0 0 0-1.5 0M2 14.75a.75.75 0 0 1 .75-.75h7.5a.75.75 0 0 1 .75.75v7.5a.75.75 0 0 1-1.5 0V15.5H2.75a.75.75 0 0 1-.75-.75M12 9c0 2.21-2.239 4-5 4s-5-1.79-5-4 2.239-4 5-4 5 1.79 5 4m-1.5 0c0-1.086-1.237-2.5-3.5-2.5S3.5 7.914 3.5 9s1.237 2.5 3.5 2.5 3.5-1.414 3.5-2.5m6.75-7a.75.75 0 0 1 .75.75v16.69l2.22-2.22a.75.75 0 1 1 1.06 1.06l-3.5 3.5a.75.75 0 0 1-1.06 0l-3.5-3.5a.75.75 0 1 1 1.06-1.06l2.22 2.22V2.75a.75.75 0 0 1 .75-.75"/></svg>