<svg xmlns="http://www.w3.org/2000/svg" width="24" height="24" fill="none"><path fill="#04071E" d="M7.688 2.452a.75.75 0 0 0-1.376 0l-3.25 7.5a.75.75 0 1 0 1.376.596L5.11 9h3.782l.671 1.548a.75.75 0 1 0 1.376-.596zM8.241 7.5H5.76L7 4.636zM7 13.5c-1.893 0-3.5 1.638-3.5 3.75 0 1.078.418 2.032 1.08 2.708.246.252.42.575.42.927C5 21.501 4.5 22 3.885 22H2.75a.75.75 0 0 1 0-1.5h.324A5.4 5.4 0 0 1 2 17.25C2 14.392 4.199 12 7 12s5 2.392 5 5.25c0 1.218-.399 2.35-1.074 3.25h.324a.75.75 0 0 1 0 1.5h-1.135C9.499 22 9 21.5 9 20.885c0-.352.174-.675.42-.927a3.85 3.85 0 0 0 1.08-2.708c0-2.112-1.607-3.75-3.5-3.75M17.25 2a.75.75 0 0 1 .75.75v16.69l2.22-2.22a.75.75 0 1 1 1.06 1.06l-3.5 3.5a.75.75 0 0 1-1.06 0l-3.5-3.5a.75.75 0 1 1 1.06-1.06l2.22 2.22V2.75a.75.75 0 0 1 .75-.75"/></svg>