<svg xmlns="http://www.w3.org/2000/svg" width="24" height="24" fill="none"><path fill="#04071E" d="M6.9 3.6h10.2a3.3 3.3 0 0 1 3.3 3.3v4.5a3 3 0 0 0-1.2-.54V6.9a2.1 2.1 0 0 0-2.1-2.1H6.9a2.1 2.1 0 0 0-2.1 2.1v10.2c0 1.16.94 2.1 2.1 2.1h3.9v1.2H6.9a3.3 3.3 0 0 1-3.3-3.3V6.9a3.3 3.3 0 0 1 3.3-3.3m4.5 8.4h2.4c-.262.349-.45.757-.54 1.2H11.4a.6.6 0 0 1 0-1.2M9 8.7a.9.9 0 1 1-1.8 0 .9.9 0 0 1 1.8 0m-.9 4.5a.9.9 0 1 0 0-1.8.9.9 0 0 0 0 1.8m0 3.6a.9.9 0 1 0 0-1.8.9.9 0 0 0 0 1.8m3.3-8.4a.6.6 0 1 0 0 1.2h4.8a.6.6 0 1 0 0-1.2zm3 6v-.6a1.8 1.8 0 0 1 1.8-1.8h2.4a1.8 1.8 0 0 1 1.8 1.8v.6h.6a1.8 1.8 0 0 1 1.8 1.8V18h-2.4v-.6a.6.6 0 1 0-1.2 0v.6h-3.6v-.6a.6.6 0 1 0-1.2 0v.6H12v-1.8a1.8 1.8 0 0 1 1.8-1.8zm1.2-.6v.6h3.6v-.6a.6.6 0 0 0-.6-.6h-2.4a.6.6 0 0 0-.6.6m4.8 5.4h2.4V21a1.8 1.8 0 0 1-1.8 1.8h-7.2A1.8 1.8 0 0 1 12 21v-1.8h2.4v.6a.6.6 0 0 0 1.2 0v-.6h3.6v.6a.6.6 0 0 0 1.2 0z"/><path fill="#04071E" fill-rule="evenodd" d="M6.9 3.75A3.15 3.15 0 0 0 3.75 6.9v10.2a3.15 3.15 0 0 0 3.15 3.15h3.75v-.9H6.9a2.25 2.25 0 0 1-2.25-2.25V6.9A2.25 2.25 0 0 1 6.9 4.65h10.2a2.25 2.25 0 0 1 2.25 2.25v3.84c.322.079.625.207.9.376V6.9a3.15 3.15 0 0 0-3.15-3.15zM3.45 6.9A3.45 3.45 0 0 1 6.9 3.45h10.2a3.45 3.45 0 0 1 3.45 3.45v4.8l-.24-.18a2.8 2.8 0 0 0-1.14-.513l-.12-.024V6.9a1.95 1.95 0 0 0-1.95-1.95H6.9A1.95 1.95 0 0 0 4.95 6.9v10.2a1.95 1.95 0 0 0 1.95 1.95h4.05v1.5H6.9a3.45 3.45 0 0 1-3.45-3.45zM8.1 7.95a.75.75 0 1 0 0 1.5.75.75 0 0 0 0-1.5m-1.05.75a1.05 1.05 0 1 1 2.1 0 1.05 1.05 0 0 1-2.1 0m3.6.3a.75.75 0 0 1 .75-.75h4.8a.75.75 0 0 1 0 1.5h-4.8a.75.75 0 0 1-.75-.75m.75-.45a.45.45 0 0 0 0 .9h4.8a.45.45 0 0 0 0-.9zM7.05 12.3a1.05 1.05 0 1 1 2.1 0 1.05 1.05 0 0 1-2.1 0m1.05-.75a.75.75 0 1 0 0 1.5.75.75 0 0 0 0-1.5m3.3.6a.45.45 0 1 0 0 .9h1.74a3.1 3.1 0 0 1 .376-.9zm-.75.45a.75.75 0 0 1 .75-.75h2.7l-.18.24a2.8 2.8 0 0 0-.513 1.14l-.024.12H11.4a.75.75 0 0 1-.75-.75m5.55-.45a1.65 1.65 0 0 0-1.65 1.65v.75h-.75a1.65 1.65 0 0 0-1.65 1.65v1.65h2.1v-.45a.75.75 0 1 1 1.5 0v.45h3.3v-.45a.75.75 0 1 1 1.5 0v.45h2.1V16.2A1.65 1.65 0 0 0 21 14.55h-.75v-.75a1.65 1.65 0 0 0-1.65-1.65zm-1.95 1.65a1.95 1.95 0 0 1 1.95-1.95h2.4a1.95 1.95 0 0 1 1.95 1.95v.45H21a1.95 1.95 0 0 1 1.95 1.95v1.95h-2.7v-.75a.45.45 0 1 0-.9 0v.75h-3.9v-.75a.45.45 0 1 0-.9 0v.75h-2.7V16.2a1.95 1.95 0 0 1 1.95-1.95h.45zm1.2 0a.75.75 0 0 1 .75-.75h2.4a.75.75 0 0 1 .75.75v.75h-3.9zm.75-.45a.45.45 0 0 0-.45.45v.45h3.3v-.45a.45.45 0 0 0-.45-.45zM7.05 15.9a1.05 1.05 0 1 1 2.1 0 1.05 1.05 0 0 1-2.1 0m1.05-.75a.75.75 0 1 0 0 1.5.75.75 0 0 0 0-1.5m3.75 3.9h2.7v.75a.45.45 0 0 0 .9 0v-.75h3.9v.75a.45.45 0 0 0 .9 0v-.75h2.7V21A1.95 1.95 0 0 1 21 22.95h-7.2A1.95 1.95 0 0 1 11.85 21zm.3.3V21c0 .911.739 1.65 1.65 1.65H21A1.65 1.65 0 0 0 22.65 21v-1.65h-2.1v.45a.75.75 0 0 1-1.5 0v-.45h-3.3v.45a.75.75 0 0 1-1.5 0v-.45z" clip-rule="evenodd"/></svg>