<svg xmlns="http://www.w3.org/2000/svg" width="24" height="24" fill="none"><path fill="#04071E" d="M3 6a.6.6 0 0 0 0 1.2h18A.6.6 0 1 0 21 6zm0 3.6a.6.6 0 0 0 0 1.2h18a.6.6 0 1 0 0-1.2zm7.8 7.8q0-.303.027-.6H3A.6.6 0 1 0 3 18h7.827a7 7 0 0 1-.027-.6m.72-3q.33-.646.789-1.2H3a.6.6 0 1 0 0 1.2zm11.28 3a5.4 5.4 0 1 1-10.8 0 5.4 5.4 0 0 1 10.8 0m-5.4-3a.6.6 0 0 0-.6.6v2.4a.6.6 0 1 0 1.2 0V15a.6.6 0 0 0-.6-.6m0 6.15a.75.75 0 1 0 0-1.5.75.75 0 0 0 0 1.5"/><path fill="#04071E" fill-rule="evenodd" d="M2.25 6.6A.75.75 0 0 1 3 5.85h18a.75.75 0 0 1 0 1.5H3a.75.75 0 0 1-.75-.75M3 6.15a.45.45 0 1 0 0 .9h18a.45.45 0 0 0 0-.9zm-.75 4.05A.75.75 0 0 1 3 9.45h18a.75.75 0 0 1 0 1.5H3a.75.75 0 0 1-.75-.75M3 9.75a.45.45 0 1 0 0 .9h18a.45.45 0 0 0 0-.9zm14.4 2.4a5.25 5.25 0 1 0 0 10.5 5.25 5.25 0 0 0 0-10.5m-5.55 5.25a5.55 5.55 0 1 1 11.1 0 5.55 5.55 0 0 1-11.1 0m-9.6-3.6a.75.75 0 0 1 .75-.75h9.627l-.203.246q-.447.542-.77 1.172l-.043.082H3a.75.75 0 0 1-.75-.75m.75-.45a.45.45 0 0 0 0 .9h8.429a7 7 0 0 1 .57-.9zM16.65 15a.75.75 0 0 1 1.5 0v2.4a.75.75 0 0 1-1.5 0zm.75-.45a.45.45 0 0 0-.45.45v2.4a.45.45 0 0 0 .9 0V15a.45.45 0 0 0-.45-.45M2.25 17.4a.75.75 0 0 1 .75-.75h7.991l-.015.164a6.5 6.5 0 0 0 0 1.173l.015.163H3a.75.75 0 0 1-.75-.75m.75-.45a.45.45 0 0 0 0 .9h7.665a7 7 0 0 1 0-.9zm13.5 2.85a.9.9 0 1 1 1.8 0 .9.9 0 0 1-1.8 0m.9-.6a.6.6 0 1 0 0 1.2.6.6 0 0 0 0-1.2" clip-rule="evenodd"/></svg>