<svg xmlns="http://www.w3.org/2000/svg" width="24" height="24" fill="none"><path fill="#04071E" d="M12.554 4.567a.6.6 0 0 0-1.106 0l-4.8 11.4a.6.6 0 1 0 1.105.466L9.62 12h4.76l1.867 4.433a.6.6 0 1 0 1.106-.466zm1.322 6.233h-3.751l1.876-4.454zM3 19.2a.6.6 0 0 0 0 1.2h18a.6.6 0 1 0 0-1.2z"/><path fill="#04071E" fill-rule="evenodd" d="M12 4.35a.45.45 0 0 0-.414.275l-4.8 11.4a.45.45 0 0 0 .829.35L9.52 11.85h4.96l1.905 4.525a.45.45 0 0 0 .83-.35l-4.8-11.4a.45.45 0 0 0-.414-.275m-.69.159a.75.75 0 0 1 1.382 0l4.8 11.4a.75.75 0 0 1-1.383.582L14.28 12.15H9.72l-1.828 4.341a.75.75 0 1 1-1.382-.582zm.69 1.45 2.102 4.991H9.899zm-1.649 4.691h3.299L12 6.733zM3 19.35a.45.45 0 0 0 0 .9h18a.45.45 0 1 0 0-.9zm-.75.45a.75.75 0 0 1 .75-.75h18a.75.75 0 0 1 0 1.5H3a.75.75 0 0 1-.75-.75" clip-rule="evenodd"/></svg>