<svg xmlns="http://www.w3.org/2000/svg" width="24" height="24" fill="none"><path fill="#04071E" d="M4.22 6.28a.75.75 0 0 1 0-1.06l2-2a.75.75 0 0 1 1.06 0l2 2a.75.75 0 0 1-1.06 1.06l-.72-.72v14.69a.75.75 0 0 1-1.5 0V5.56l-.72.72a.75.75 0 0 1-1.06 0M11.22 5.22a.75.75 0 0 0 1.06 1.06l.72-.72v3.186a.75.75 0 0 0 1.5 0V5.561l.72.72a.75.75 0 1 0 1.06-1.061l-2-2a.75.75 0 0 0-1.06 0zM10.75 12.5a.75.75 0 0 0 0 1.5h9a.75.75 0 0 0 0-1.5h-4.5v-1.25a.75.75 0 0 0-1.5 0v1.25zM10.75 20.25a.75.75 0 0 0 1.5 0V17h.5c.922 0 1.949.188 2.72.682.725.463 1.28 1.227 1.28 2.568a.75.75 0 0 0 1.5 0c0-1.859-.82-3.095-1.97-3.832-1.104-.706-2.452-.918-3.53-.918H11.5a.75.75 0 0 0-.75.75z"/></svg>