<svg xmlns="http://www.w3.org/2000/svg" width="24" height="24" fill="none"><path fill="#04071E" d="M17.25 2a.75.75 0 0 1 .75.75v16.69l2.22-2.22a.75.75 0 1 1 1.06 1.06l-3.5 3.5a.75.75 0 0 1-1.06 0l-3.5-3.5a.75.75 0 1 1 1.06-1.06l2.22 2.22V2.75a.75.75 0 0 1 .75-.75M8.373 6.032l2.565 5.92a.75.75 0 1 1-1.376.596L8.892 11H5.108l-.67 1.548a.75.75 0 1 1-1.377-.596l2.565-5.92a2.25 2.25 0 1 1 2.746 0M8.241 9.5l-1.24-2.864L5.758 9.5zM6.25 4.25a.75.75 0 1 0 1.5 0 .75.75 0 0 0-1.5 0m1.438 9.202 3.25 7.5a.75.75 0 1 1-1.376.596L8.892 20H5.108l-.67 1.548a.75.75 0 1 1-1.377-.596l3.25-7.5a.75.75 0 0 1 1.376 0m.553 5.048-1.24-2.864L5.758 18.5z"/></svg>