<svg xmlns="http://www.w3.org/2000/svg" width="24" height="24" fill="none"><path fill="#04071E" d="M9.48 7.581a1.51 1.51 0 0 1 .351-1.389c.343-.376.961-.692 1.919-.692 1.406 0 2.35.693 2.745 1.052a3 3 0 0 1 .178.177l.004.005a.75.75 0 0 0 1.149-.964s-.326-.27 0-.001l-.002-.002-.002-.003-.007-.007-.02-.022-.063-.07a4 4 0 0 0-.227-.222A5.6 5.6 0 0 0 11.75 4c-1.292 0-2.347.434-3.028 1.183a3.01 3.01 0 0 0-.703 2.736c.218.943.818 1.545 1.502 1.958.598.36 1.32.61 1.963.833l.175.06c1.492.52 2.541.982 2.867 2.177.217.796.01 1.382-.425 1.795-.467.443-1.277.758-2.351.758-.971 0-1.579-.303-1.968-.636a2.6 2.6 0 0 1-.797-1.262v-.005a.75.75 0 1 0-1.469.308l.003.011a2 2 0 0 0 .033.133 4.098 4.098 0 0 0 1.256 1.956c.667.57 1.622.995 2.942.995 1.336 0 2.561-.388 3.385-1.171.856-.814 1.193-1.978.839-3.276-.56-2.055-2.444-2.719-3.822-3.199l-.14-.048c-.686-.24-1.26-.439-1.716-.714s-.716-.58-.815-1.01M17.3 18.5H6.6c-.3 0-.6.3-.6.7 0 .5.4.8.8.8h10.7c.3 0 .6-.3.6-.7 0-.5-.4-.8-.8-.8"/></svg>