<svg xmlns="http://www.w3.org/2000/svg" width="24" height="24" fill="none"><path fill="#04071E" d="M12.6 3a.6.6 0 1 0-1.2 0v7.552l-5.34-5.34a.6.6 0 0 0-.848.848l5.34 5.34H3a.6.6 0 1 0 0 1.2h7.552l-5.34 5.34a.6.6 0 1 0 .848.848l5.34-5.34V21a.6.6 0 1 0 1.2 0v-7.551l5.34 5.34a.6.6 0 1 0 .848-.85l-5.34-5.339H21a.6.6 0 1 0 0-1.2h-7.551l5.34-5.34a.6.6 0 0 0-.85-.848l-5.339 5.34z"/><path fill="#04071E" fill-rule="evenodd" d="M11.25 3a.75.75 0 0 1 1.5 0v7.19l5.084-5.084a.75.75 0 0 1 1.06 1.06l-5.083 5.084H21a.75.75 0 0 1 0 1.5h-7.19l5.084 5.084a.75.75 0 1 1-1.06 1.06l-5.084-5.083V21a.75.75 0 0 1-1.5 0v-7.19l-5.084 5.084a.75.75 0 0 1-1.06-1.06l5.083-5.084H3a.75.75 0 0 1 0-1.5h7.19L5.105 6.166a.75.75 0 0 1 1.06-1.06l5.084 5.083zm.75-.45a.45.45 0 0 0-.45.45v7.552a.15.15 0 0 1-.256.106l-5.34-5.34a.45.45 0 1 0-.636.636l5.34 5.34a.15.15 0 0 1-.107.256H3a.45.45 0 0 0 0 .9h7.552a.15.15 0 0 1 .106.256l-5.34 5.34a.45.45 0 0 0 .636.636l5.34-5.34a.15.15 0 0 1 .256.107V21a.45.45 0 0 0 .9 0v-7.551a.15.15 0 0 1 .256-.107l5.34 5.34a.45.45 0 0 0 .636-.636l-5.34-5.34a.15.15 0 0 1 .106-.256H21a.45.45 0 0 0 0-.9h-7.551a.15.15 0 0 1-.107-.256l5.34-5.34a.45.45 0 0 0-.636-.636l-5.34 5.34a.15.15 0 0 1-.256-.106V3a.45.45 0 0 0-.45-.45" clip-rule="evenodd"/></svg>