<svg xmlns="http://www.w3.org/2000/svg" width="24" height="24" fill="none"><path fill="#04071E" d="M3.356 6.537a1.2 1.2 0 0 0 1.206-1.194A1.2 1.2 0 0 0 3.356 4.15a1.2 1.2 0 0 0-1.205 1.194 1.2 1.2 0 0 0 1.205 1.194m3.617-1.194a.6.6 0 0 1 .602-.597h13.26a.6.6 0 0 1 .603.597.6.6 0 0 1-.602.597H7.576a.6.6 0 0 1-.603-.597m0 5.97a.6.6 0 0 1 .602-.597h13.26a.6.6 0 0 1 .603.597.6.6 0 0 1-.602.597H7.576a.6.6 0 0 1-.603-.597m4.849 6.568q.056-.616.222-1.194H7.575a.6.6 0 0 0-.602.597.6.6 0 0 0 .602.597zm-7.26-.597a1.2 1.2 0 0 1-1.206 1.194 1.2 1.2 0 0 1-1.205-1.194 1.2 1.2 0 0 1 1.205-1.194 1.2 1.2 0 0 1 1.206 1.194m-1.206-4.776a1.2 1.2 0 0 0 1.206-1.195 1.2 1.2 0 0 0-1.206-1.194 1.2 1.2 0 0 0-1.205 1.194 1.2 1.2 0 0 0 1.205 1.194m20.493 5.97c0 2.967-2.428 5.373-5.424 5.373S13 21.445 13 18.478s2.429-5.374 5.425-5.374 5.424 2.406 5.424 5.374m-4.572 0 1.382-1.37a.593.593 0 0 0 0-.844.607.607 0 0 0-.852 0l-1.382 1.37-1.382-1.37a.607.607 0 0 0-.853 0 .593.593 0 0 0 0 .845l1.382 1.369-1.382 1.368a.593.593 0 0 0 0 .845.607.607 0 0 0 .853 0l1.382-1.37 1.382 1.37a.607.607 0 0 0 .852 0 .593.593 0 0 0 0-.844z"/><path fill="#04071E" fill-rule="evenodd" d="M2 5.343A1.35 1.35 0 0 1 3.356 4a1.35 1.35 0 0 1 1.356 1.343 1.35 1.35 0 0 1-1.356 1.344A1.35 1.35 0 0 1 2 5.343M3.356 4.3a1.05 1.05 0 0 0-1.055 1.044 1.05 1.05 0 0 0 1.055 1.045 1.05 1.05 0 0 0 1.055-1.045A1.05 1.05 0 0 0 3.356 4.3m4.22.597a.45.45 0 0 0-.453.447.45.45 0 0 0 .452.448h13.26c.25 0 .453-.2.453-.448a.45.45 0 0 0-.452-.447zm-.754.447a.75.75 0 0 1 .753-.746h13.26a.75.75 0 0 1 .754.746.75.75 0 0 1-.753.747H7.576a.75.75 0 0 1-.754-.747M2 11.313A1.35 1.35 0 0 1 3.356 9.97a1.35 1.35 0 0 1 1.356 1.343 1.35 1.35 0 0 1-1.356 1.344A1.35 1.35 0 0 1 2 11.313m1.356-1.044a1.05 1.05 0 0 0-1.055 1.044 1.05 1.05 0 0 0 1.055 1.045 1.05 1.05 0 0 0 1.055-1.045 1.05 1.05 0 0 0-1.055-1.044m4.22.597a.45.45 0 0 0-.453.447.45.45 0 0 0 .452.448h13.26c.25 0 .453-.2.453-.448a.45.45 0 0 0-.452-.447zm-.754.447a.75.75 0 0 1 .753-.746h13.26a.75.75 0 0 1 .754.746.75.75 0 0 1-.753.747H7.576a.75.75 0 0 1-.754-.747m11.603 1.94c-2.913 0-5.274 2.34-5.274 5.225s2.36 5.223 5.274 5.223c2.912 0 5.274-2.338 5.274-5.223 0-2.886-2.362-5.224-5.274-5.224m-5.576 5.225c0-3.05 2.496-5.523 5.576-5.523S24 15.428 24 18.478 21.504 24 18.425 24s-5.576-2.472-5.576-5.522m3.235-2.32a.76.76 0 0 1 1.065 0l1.276 1.264L19.7 16.16a.76.76 0 0 1 1.066 0 .74.74 0 0 1 0 1.055l-1.276 1.264 1.276 1.263a.74.74 0 0 1 0 1.055.76.76 0 0 1-1.066 0l-1.275-1.263-1.276 1.263a.76.76 0 0 1-1.065 0 .74.74 0 0 1 0-1.055l1.275-1.263-1.275-1.264a.74.74 0 0 1 0-1.055m.852.212a.455.455 0 0 0-.64 0 .445.445 0 0 0 0 .633l1.49 1.475-1.49 1.474a.445.445 0 0 0 0 .633.455.455 0 0 0 .64 0l1.489-1.474 1.488 1.474a.455.455 0 0 0 .64 0 .445.445 0 0 0 0-.633l-1.489-1.474 1.488-1.475a.445.445 0 0 0 0-.633.455.455 0 0 0-.639 0l-1.488 1.474zm-13.58-.131a1.05 1.05 0 0 0-1.055 1.045 1.05 1.05 0 0 0 1.055 1.044 1.05 1.05 0 0 0 1.055-1.044 1.05 1.05 0 0 0-1.055-1.045M2 17.284a1.35 1.35 0 0 1 1.356-1.344 1.35 1.35 0 0 1 1.356 1.344 1.35 1.35 0 0 1-1.356 1.343A1.35 1.35 0 0 1 2 17.284m4.822 0a.75.75 0 0 1 .753-.747h4.668l-.054.19a6.3 6.3 0 0 0-.217 1.167l-.013.136H7.575a.75.75 0 0 1-.753-.746m.753-.448a.45.45 0 0 0-.452.448.45.45 0 0 0 .452.447h4.11q.052-.458.163-.895z" clip-rule="evenodd"/></svg>