<svg xmlns="http://www.w3.org/2000/svg" width="24" height="24" fill="none"><path fill="#04071E" d="M6.9 3.6h10.2a3.3 3.3 0 0 1 3.3 3.3v4.62a6.6 6.6 0 0 0-1.2-.472V6.9a2.1 2.1 0 0 0-2.1-2.1H6.9a2.1 2.1 0 0 0-2.1 2.1v10.2c0 1.16.94 2.1 2.1 2.1h4.149q.179.628.47 1.2H6.9a3.3 3.3 0 0 1-3.3-3.3V6.9a3.3 3.3 0 0 1 3.3-3.3m4.5 8.4h2.204c-.483.34-.92.745-1.295 1.2H11.4a.6.6 0 0 1 0-1.2M8.1 9.6a.9.9 0 1 0 0-1.8.9.9 0 0 0 0 1.8m.9 2.7a.9.9 0 1 1-1.8 0 .9.9 0 0 1 1.8 0m0 3.6a.9.9 0 1 1-1.8 0 .9.9 0 0 1 1.8 0M10.8 9a.6.6 0 0 1 .6-.6h4.8a.6.6 0 1 1 0 1.2h-4.8a.6.6 0 0 1-.6-.6m3.68 4.73a2.4 2.4 0 0 1-1.718 2.974l-.553.141a5.7 5.7 0 0 0 .012 1.22l.42.1a2.4 2.4 0 0 1 1.747 3.022l-.152.507q.464.367 1.002.622l.39-.413a2.4 2.4 0 0 1 3.491.002l.405.43q.527-.246.986-.598l-.187-.668a2.4 2.4 0 0 1 1.717-2.973l.552-.142a5.6 5.6 0 0 0-.012-1.22l-.419-.099a2.4 2.4 0 0 1-1.747-3.022l.152-.507a5.2 5.2 0 0 0-1.002-.622l-.39.413a2.4 2.4 0 0 1-3.491-.002l-.405-.43q-.528.245-.986.597zm2.92 4.87a1.2 1.2 0 1 1 0-2.4 1.2 1.2 0 0 1 0 2.4"/><path fill="#04071E" fill-rule="evenodd" d="M6.9 3.75A3.15 3.15 0 0 0 3.75 6.9v10.2a3.15 3.15 0 0 0 3.15 3.15h4.38q-.203-.435-.344-.9H6.9a2.25 2.25 0 0 1-2.25-2.25V6.9A2.25 2.25 0 0 1 6.9 4.65h10.2a2.25 2.25 0 0 1 2.25 2.25v4.036q.465.14.9.343V6.9A3.15 3.15 0 0 0 17.1 3.75zM3.45 6.9A3.45 3.45 0 0 1 6.9 3.45h10.2a3.45 3.45 0 0 1 3.45 3.45v4.865l-.218-.112a6.4 6.4 0 0 0-1.173-.46l-.109-.031V6.9a1.95 1.95 0 0 0-1.95-1.95H6.9A1.95 1.95 0 0 0 4.95 6.9v10.2a1.95 1.95 0 0 0 1.95 1.95h4.262l.031.11q.175.613.46 1.172l.112.218H6.9a3.45 3.45 0 0 1-3.45-3.45zm3.6 1.8a1.05 1.05 0 1 1 2.1 0 1.05 1.05 0 0 1-2.1 0m1.05-.75a.75.75 0 1 0 0 1.5.75.75 0 0 0 0-1.5m3.3.6a.45.45 0 0 0 0 .9h4.8a.45.45 0 0 0 0-.9zm-.75.45a.75.75 0 0 1 .75-.75h4.8a.75.75 0 0 1 0 1.5h-4.8a.75.75 0 0 1-.75-.75M8.1 11.55a.75.75 0 1 0 0 1.5.75.75 0 0 0 0-1.5m-1.05.75a1.05 1.05 0 1 1 2.1 0 1.05 1.05 0 0 1-2.1 0m4.35-.15a.45.45 0 1 0 0 .9h.839q.415-.494.918-.9zm-.75.45a.75.75 0 0 1 .75-.75h2.678l-.387.273a6.5 6.5 0 0 0-1.267 1.173l-.044.054h-.98a.75.75 0 0 1-.75-.75m4.663-.316.479.508a2.25 2.25 0 0 0 3.273.002l.464-.492.099.046c.368.174.713.39 1.03.64l.08.063-.18.605a2.25 2.25 0 0 0 1.638 2.833l.52.123.013.105a5.8 5.8 0 0 1 .013 1.252l-.01.105-.655.167a2.25 2.25 0 0 0-1.61 2.788l.215.765-.08.062a5.3 5.3 0 0 1-1.015.614l-.098.046-.479-.508a2.25 2.25 0 0 0-3.273-.002l-.465.492-.098-.047a5.3 5.3 0 0 1-1.03-.639l-.08-.063.18-.605a2.25 2.25 0 0 0-1.638-2.834l-.522-.123-.012-.104a5.8 5.8 0 0 1-.012-1.252l.01-.105.655-.167a2.25 2.25 0 0 0 1.61-2.788l-.215-.766.08-.062a5.3 5.3 0 0 1 1.015-.614zm-.85.836.16.57a2.55 2.55 0 0 1-1.824 3.16l-.45.114a5.5 5.5 0 0 0 .01.98l.316.074a2.55 2.55 0 0 1 1.856 3.212l-.122.409q.375.283.795.494l.315-.333a2.55 2.55 0 0 1 3.71.002l.33.35q.41-.202.78-.473l-.16-.57a2.55 2.55 0 0 1 1.824-3.159l.45-.115a5.5 5.5 0 0 0-.01-.979l-.316-.075a2.55 2.55 0 0 1-1.857-3.211l.122-.409a5 5 0 0 0-.795-.494l-.314.333a2.55 2.55 0 0 1-3.71-.002l-.33-.35a5 5 0 0 0-.78.473M8.1 15.15a.75.75 0 1 0 0 1.5.75.75 0 0 0 0-1.5m-1.05.75a1.05 1.05 0 1 1 2.1 0 1.05 1.05 0 0 1-2.1 0m10.35.45a1.05 1.05 0 1 0 0 2.1 1.05 1.05 0 0 0 0-2.1m-1.35 1.05a1.35 1.35 0 1 1 2.7 0 1.35 1.35 0 0 1-2.7 0" clip-rule="evenodd"/></svg>