<svg xmlns="http://www.w3.org/2000/svg" width="24" height="24" fill="none"><path fill="#04071E" d="M6.219 1.164a.75.75 0 1 0-.938 1.172l1.25 1a.75.75 0 0 0 .938 0l1.25-1a.75.75 0 1 0-.938-1.172L7 1.79zM7 13a.75.75 0 0 1 .688.452l3.25 7.5a.75.75 0 1 1-1.376.596L8.892 20H5.108l-.67 1.548a.75.75 0 1 1-1.377-.596l3.25-7.5A.75.75 0 0 1 7 13m0 2.636L5.76 18.5H8.24zM4 4.75A.75.75 0 0 1 4.75 4h5a.75.75 0 0 1 .595 1.207L6.273 10.5H9.75a.75.75 0 0 1 0 1.5h-5a.75.75 0 0 1-.594-1.207L8.226 5.5H4.75A.75.75 0 0 1 4 4.75M17.25 2a.75.75 0 0 1 .75.75v16.69l2.22-2.22a.75.75 0 1 1 1.06 1.06l-3.5 3.5a.75.75 0 0 1-1.06 0l-3.5-3.5a.75.75 0 0 1 1.06-1.06l2.22 2.22V2.75a.75.75 0 0 1 .75-.75"/></svg>