<svg xmlns="http://www.w3.org/2000/svg" width="24" height="24" fill="none"><path fill="#04071E" d="M17.25 2a.75.75 0 0 1 .75.75v16.69l2.22-2.22a.75.75 0 1 1 1.06 1.06l-3.5 3.5a.75.75 0 0 1-1.06 0l-3.5-3.5a.75.75 0 1 1 1.06-1.06l2.22 2.22V2.75a.75.75 0 0 1 .75-.75M7.072 2a.75.75 0 0 1 .697.487l3.184 8.5a.75.75 0 0 1-1.405.526L8.794 9.5H5.238l-.79 2.023a.75.75 0 0 1-1.397-.546l3.317-8.5A.75.75 0 0 1 7.072 2m-.02 2.85L5.823 8h2.41zM5.75 13a2.75 2.75 0 0 0-1.446 5.09C3.624 18.747 3 19.766 3 21.25a.75.75 0 0 0 1.5 0c0-1.111.494-1.79.988-2.21a3.3 3.3 0 0 1 .897-.54H9.5v2.75a.75.75 0 0 0 1.5 0v-7.5a.75.75 0 0 0-.75-.75zm.523 4H5.75a1.25 1.25 0 1 1 0-2.5H9.5V17z"/></svg>