<svg xmlns="http://www.w3.org/2000/svg" width="24" height="24" fill="none"><path fill="#04071E" d="m7.688 2.452 3.25 7.5a.75.75 0 1 1-1.376.596L8.892 9H5.108l-.67 1.548a.75.75 0 1 1-1.377-.596l3.25-7.5a.75.75 0 0 1 1.376 0M8.241 7.5l-1.24-2.864L5.758 7.5zm.132 7.532 2.565 5.92a.75.75 0 1 1-1.376.596L8.892 20H5.108l-.67 1.548a.75.75 0 1 1-1.377-.596l2.565-5.92a2.25 2.25 0 1 1 2.746 0M8.241 18.5l-1.24-2.864L5.758 18.5zM6.25 13.25a.75.75 0 1 0 1.5 0 .75.75 0 0 0-1.5 0M17.25 2a.75.75 0 0 1 .75.75v16.69l2.22-2.22a.75.75 0 1 1 1.06 1.06l-3.5 3.5a.75.75 0 0 1-1.06 0l-3.5-3.5a.75.75 0 1 1 1.06-1.06l2.22 2.22V2.75a.75.75 0 0 1 .75-.75"/></svg>