<svg xmlns="http://www.w3.org/2000/svg" width="24" height="24" fill="none"><path fill="#04071E" d="M6.9 3.6h10.2a3.3 3.3 0 0 1 3.3 3.3v5.6a3.4 3.4 0 0 1-1.2-.61V6.9a2.1 2.1 0 0 0-2.1-2.1H6.9a2.1 2.1 0 0 0-2.1 2.1v10.2c0 1.16.94 2.1 2.1 2.1h5.382q.169.628.446 1.2H6.9a3.3 3.3 0 0 1-3.3-3.3V6.9a3.3 3.3 0 0 1 3.3-3.3m4.5 8.4h4.05c-.603.422-1.207.6-1.83.6-.53 0-.964.244-1.249.6H11.4a.6.6 0 1 1 0-1.2M8.1 9.6a.9.9 0 1 0 0-1.8.9.9 0 0 0 0 1.8m.9 2.7a.9.9 0 1 1-1.8 0 .9.9 0 0 1 1.8 0m0 3.6a.9.9 0 1 1-1.8 0 .9.9 0 0 1 1.8 0M10.8 9a.6.6 0 0 1 .6-.6h4.8a.6.6 0 1 1 0 1.2h-4.8a.6.6 0 0 1-.6-.6m6.599 13.8a.4.4 0 0 1-.132-.023q-1.245-.446-2.113-1.176l-.002-.001a5.2 5.2 0 0 1-1.052-1.199l-.001-.001q-.833-1.312-.894-3.162l-.005-.287V14.25c0-.248.188-.45.42-.45 1.285 0 2.44-.55 3.484-1.668a.4.4 0 0 1 .295-.132c.107 0 .213.044.295.132 1.044 1.118 2.2 1.668 3.484 1.668.232 0 .42.201.42.45v2.701l-.005.287q-.062 1.85-.894 3.162l-.001.001a5.2 5.2 0 0 1-1.052 1.199l-.002.001q-.867.731-2.114 1.176a.4.4 0 0 1-.131.023"/><path fill="#04071E" fill-rule="evenodd" d="m20.5 12.63-.126-.033a3.5 3.5 0 0 1-1.235-.627l-.039-.03V6.9a2 2 0 0 0-2-2H6.9a2 2 0 0 0-2 2v10.2a2 2 0 0 0 2 2h5.458l.02.074q.168.619.44 1.182l.07.144H6.9a3.4 3.4 0 0 1-3.4-3.4V6.9a3.4 3.4 0 0 1 3.4-3.4h10.2a3.4 3.4 0 0 1 3.4 3.4zm-4.734-.73-.26.182c-.618.434-1.242.618-1.886.618-.497 0-.903.228-1.17.562l-.03.038H11.4a.7.7 0 1 1 0-1.4zm-.678 9.777a5.3 5.3 0 0 1-1.073-1.222v-.001c-.566-.892-.87-1.966-.91-3.213v-.002l-.005-.288V14.25c0-.297.226-.55.52-.55 1.252 0 2.382-.534 3.41-1.636a.5.5 0 0 1 .368-.164c.135 0 .269.056.369.163 1.03 1.103 2.159 1.637 3.41 1.637.294 0 .52.253.52.55v2.703l-.004.288c-.04 1.247-.344 2.321-.91 3.213q-.435.686-1.073 1.223h-.002q-.883.744-2.144 1.194a.5.5 0 0 1-.33 0q-1.26-.45-2.145-1.193zm5.61-1.276V20.4q.834-1.312.895-3.162l.005-.287V14.25c0-.248-.188-.45-.42-.45-1.285 0-2.44-.55-3.484-1.668a.4.4 0 0 0-.295-.132.4.4 0 0 0-.295.132c-1.044 1.118-2.2 1.668-3.484 1.668-.232 0-.42.201-.42.45v2.701l.005.287q.061 1.85.894 3.162v.001a5.2 5.2 0 0 0 1.053 1.199l.002.001q.868.731 2.113 1.176a.4.4 0 0 0 .263 0q1.246-.446 2.114-1.176l.002-.001q.626-.526 1.052-1.199M6.9 20.4a3.3 3.3 0 0 1-3.3-3.3V6.9a3.3 3.3 0 0 1 3.3-3.3h10.2a3.3 3.3 0 0 1 3.3 3.3v5.6l-.1-.028c-.37-.111-.735-.3-1.1-.581V6.9a2.1 2.1 0 0 0-2.1-2.1H6.9a2.1 2.1 0 0 0-2.1 2.1v10.2c0 1.16.94 2.1 2.1 2.1h5.382a7 7 0 0 0 .446 1.2zm8.4-8.3c-.553.35-1.109.5-1.68.5-.53 0-.964.244-1.249.6H11.4a.6.6 0 1 1 0-1.2h4.05q-.075.052-.15.1M9.1 8.7a1 1 0 1 1-2 0 1 1 0 0 1 2 0m0 3.6a1 1 0 1 1-2 0 1 1 0 0 1 2 0m0 3.6a1 1 0 1 1-2 0 1 1 0 0 1 2 0M10.7 9a.7.7 0 0 1 .7-.7h4.8a.7.7 0 1 1 0 1.4h-4.8a.7.7 0 0 1-.7-.7M9 8.7a.9.9 0 1 1-1.8 0 .9.9 0 0 1 1.8 0m-.9 4.5a.9.9 0 1 0 0-1.8.9.9 0 0 0 0 1.8m0 3.6a.9.9 0 1 0 0-1.8.9.9 0 0 0 0 1.8m3.3-8.4a.6.6 0 1 0 0 1.2h4.8a.6.6 0 1 0 0-1.2z" clip-rule="evenodd"/></svg>