<svg xmlns="http://www.w3.org/2000/svg" width="24" height="24" fill="none"><path fill="#04071E" d="M13.8 18a.6.6 0 0 0 .6-.6v-.47A3.32 3.32 0 0 0 16.8 18a3.934 3.934 0 0 0 3.6-4.2 3.935 3.935 0 0 0-3.6-4.2 3.32 3.32 0 0 0-2.4 1.07V4.8a.6.6 0 1 0-1.2 0v12.6a.6.6 0 0 0 .6.6m3-7.2a2.75 2.75 0 0 1 2.4 3 2.75 2.75 0 0 1-2.4 3 2.75 2.75 0 0 1-2.4-3 2.75 2.75 0 0 1 2.4-3M5.847 17.86a4.46 4.46 0 0 0 3.755-.953v.493a.6.6 0 1 0 1.2 0v-4.846a2.935 2.935 0 0 0-1.531-2.89c-.7-.33-1.47-.48-2.242-.438-.655.015-1.3.164-1.896.438a.6.6 0 0 0 .538 1.072c.442-.195.92-.301 1.404-.312.57-.033 1.14.074 1.658.312a1.62 1.62 0 0 1 .869 1.582 7 7 0 0 0-1.68-.299 4.7 4.7 0 0 0-2.85.682 2.834 2.834 0 0 0 .775 5.16m-.113-4.16a3.5 3.5 0 0 1 2.123-.48c.597.03 1.186.155 1.745.37v1.757a3.88 3.88 0 0 1-3.445 1.355 1.633 1.633 0 0 1-.423-3.002m17.068 5.5v.6a1.8 1.8 0 0 1-1.8 1.8H3a1.8 1.8 0 0 1-1.8-1.8v-.6a.6.6 0 1 1 1.2 0v.6a.6.6 0 0 0 .6.6h18a.6.6 0 0 0 .6-.6v-.6a.6.6 0 1 1 1.2 0"/><path fill="#04071E" fill-rule="evenodd" d="M13.27 4.27a.75.75 0 0 1 1.28.53v5.513A3.47 3.47 0 0 1 16.8 9.45h.014a4.085 4.085 0 0 1 3.738 4.35 4.085 4.085 0 0 1-3.738 4.35H16.8a3.47 3.47 0 0 1-2.248-.863v.113a.75.75 0 1 1-1.5 0V4.8a.75.75 0 0 1 .22-.53m.53.08a.45.45 0 0 0-.45.45v12.6a.45.45 0 1 0 .9 0v-.853l.261.282a3.17 3.17 0 0 0 2.285 1.021 3.785 3.785 0 0 0 3.455-4.04v-.02a3.785 3.785 0 0 0-3.456-4.04 3.17 3.17 0 0 0-2.284 1.02l-.26.283V4.8a.45.45 0 0 0-.45-.45M7.023 9.076a4.8 4.8 0 0 1 2.312.452l.007.003a3.08 3.08 0 0 1 1.61 3.031V17.4a.75.75 0 1 1-1.5 0v-.185a4.6 4.6 0 0 1-3.635.793l-.007-.002a2.984 2.984 0 0 1-.817-5.433 4.86 4.86 0 0 1 2.939-.703q.776.04 1.525.249a1.47 1.47 0 0 0-.79-1.248 3.3 3.3 0 0 0-1.584-.297h-.005c-.463.01-.92.111-1.344.298a.75.75 0 0 1-.668-1.342l.004-.003a5 5 0 0 1 1.953-.451m2.18.722a4.5 4.5 0 0 0-2.166-.423h-.004a4.7 4.7 0 0 0-1.835.424.45.45 0 0 0-.199.603m4.204-.604a2.78 2.78 0 0 1 1.45 2.74l-.001.009V17.4a.45.45 0 1 1-.9 0v-.815l-.247.207a4.3 4.3 0 0 1-3.624.923 2.683 2.683 0 0 1-.73-4.886 4.56 4.56 0 0 1 2.759-.66h.004c.558.029 1.11.127 1.643.292l.178.055.016-.185a1.77 1.77 0 0 0-.949-1.728l-.006-.003a3.6 3.6 0 0 0-1.727-.325 3.8 3.8 0 0 0-1.46.324l-.006.003a.45.45 0 0 1-.604-.2m11.803.55a2.6 2.6 0 0 0-2.251 2.833l.002.015-.002.015a2.6 2.6 0 0 0 2.25 2.834 2.6 2.6 0 0 0 2.252-2.834l-.002-.015.002-.015a2.6 2.6 0 0 0-2.251-2.834m0-.152-.018-.149A2.9 2.9 0 0 0 14.25 13.8a2.9 2.9 0 0 0 2.532 3.149l.019.002.018-.002a2.9 2.9 0 0 0 2.533-3.149 2.9 2.9 0 0 0-2.533-3.149zm-8.959 2.57a3.37 3.37 0 0 0-2.032.46l-.077-.13.075.13a1.484 1.484 0 0 0 .375 2.724 3.73 3.73 0 0 0 3.268-1.262v-1.598a5.5 5.5 0 0 0-1.603-.324zm-2.185.201a3.67 3.67 0 0 1 2.21-.5c.612.031 1.215.16 1.788.379l.096.037v1.915l-.035.041a4.03 4.03 0 0 1-3.579 1.408l-.009-.002-.008-.002a1.783 1.783 0 0 1-.463-3.276M1.801 18.75a.45.45 0 0 0-.45.45v.6A1.65 1.65 0 0 0 3 21.45h18a1.65 1.65 0 0 0 1.65-1.65v-.6a.45.45 0 0 0-.9 0v.6a.75.75 0 0 1-.75.75H3a.75.75 0 0 1-.75-.75v-.6a.45.45 0 0 0-.45-.45m-.53-.08a.75.75 0 0 1 1.28.53v.6a.45.45 0 0 0 .45.45h18a.45.45 0 0 0 .45-.45v-.6a.75.75 0 0 1 1.5 0v.6A1.95 1.95 0 0 1 21 21.75H3a1.95 1.95 0 0 1-1.95-1.95v-.6a.75.75 0 0 1 .22-.53" clip-rule="evenodd"/></svg>