<svg xmlns="http://www.w3.org/2000/svg" width="24" height="24" fill="none"><path fill="#04071E" d="M13.8 3.6a4.8 4.8 0 1 0 0 9.6h1.8V21a.6.6 0 0 0 1.2 0V4.8H18V21a.6.6 0 0 0 1.2 0V4.8h.6a.6.6 0 1 0 0-1.2zm1.8 1.2V12h-1.8a3.6 3.6 0 0 1 0-7.2zM7.024 9.176a.6.6 0 0 0-.848 0l-2.4 2.4a.6.6 0 0 0 0 .848l2.4 2.4a.6.6 0 0 0 .848-.848L5.05 12l1.975-1.976a.6.6 0 0 0 0-.848"/><path fill="#04071E" fill-rule="evenodd" d="M8.85 8.4a4.95 4.95 0 0 1 4.95-4.95h6a.75.75 0 0 1 0 1.5h-.45V21a.75.75 0 0 1-1.5 0V4.95h-.9V21a.75.75 0 0 1-1.5 0v-7.65H13.8A4.95 4.95 0 0 1 8.85 8.4m4.95-4.65a4.65 4.65 0 0 0 0 9.3h1.95V21a.45.45 0 0 0 .9 0V4.65h1.5V21a.45.45 0 0 0 .9 0V4.65h.75a.45.45 0 0 0 0-.9zm0 1.2a3.45 3.45 0 1 0 0 6.9h1.65v-6.9zM10.05 8.4a3.75 3.75 0 0 1 3.75-3.75h1.95v7.5H13.8a3.75 3.75 0 0 1-3.75-3.75m-3.98.67a.75.75 0 0 1 1.06 1.06L5.26 12l1.87 1.87a.75.75 0 0 1-1.06 1.06l-2.4-2.4a.75.75 0 0 1 0-1.06zm.848.212a.45.45 0 0 0-.636 0l-2.4 2.4a.45.45 0 0 0 0 .636l2.4 2.4a.45.45 0 0 0 .636-.636L4.837 12l2.081-2.082a.45.45 0 0 0 0-.636" clip-rule="evenodd"/></svg>