<svg xmlns="http://www.w3.org/2000/svg" width="24" height="24" fill="none"><path fill="#04071E" d="M8.838 4.417c.968-.58 2.18-.917 3.662-.917 1.689 0 2.906.687 3.684 1.379a5.6 5.6 0 0 1 1.06 1.273 4 4 0 0 1 .084.15l.008.015.003.006.001.003.001.002s-.151-.266-.005-.011l.006.012a1.5 1.5 0 0 1-2.674 1.36l-.008-.013a2.599 2.599 0 0 0-.47-.555c-.346-.308-.88-.621-1.69-.621-1.018 0-1.68.226-2.119.49s-.737.615-.945.988A3.64 3.64 0 0 0 9 9.505v4.996a3 3 0 1 0 6 0V14h-1.5a1.5 1.5 0 0 1 0-3h3a1.5 1.5 0 0 1 1.5 1.5v2a6 6 0 0 1-12 0V9.46a4 4 0 0 1 .015-.272 6.64 6.64 0 0 1 .8-2.666 5.6 5.6 0 0 1 2.023-2.105"/></svg>