<svg xmlns="http://www.w3.org/2000/svg" width="24" height="24" fill="none"><path fill="#04071E" d="M7.25 17.5a1.25 1.25 0 1 1 0 2.5 1.25 1.25 0 0 1 0-2.5m3.5.5h10.5a.75.75 0 0 1 .102 1.494l-.102.006h-10.5a.75.75 0 0 1-.102-1.493zh10.5zm-7.5-7a1.25 1.25 0 1 1 0 2.5 1.25 1.25 0 0 1 0-2.5m3.5.5h14.5a.75.75 0 0 1 .102 1.494L21.25 13H6.75a.75.75 0 0 1-.102-1.494zh14.5zm-3.5-7a1.25 1.25 0 1 1 0 2.5 1.25 1.25 0 0 1 0-2.5m3.5.5h14.5a.75.75 0 0 1 .102 1.494l-.102.006H6.75a.75.75 0 0 1-.102-1.493zh14.5z"/></svg>