<svg xmlns="http://www.w3.org/2000/svg" width="24" height="24" fill="none"><path fill="#04071E" d="M7.688 2.452a.75.75 0 0 0-1.376 0l-3.25 7.5a.75.75 0 1 0 1.376.596L5.11 9h3.782l.671 1.548a.75.75 0 1 0 1.376-.596zM8.241 7.5H5.76L7 4.636zM6.5 12.25a.75.75 0 1 1-1.5 0 .75.75 0 0 1 1.5 0M2 18c0-2.57 2.33-4.5 5-4.5s5 1.93 5 4.5-2.33 4.5-5 4.5-5-1.93-5-4.5m5-3c-2.024 0-3.5 1.429-3.5 3s1.476 3 3.5 3 3.5-1.429 3.5-3-1.476-3-3.5-3m1.25-2a.75.75 0 1 0 0-1.5.75.75 0 0 0 0 1.5m9-11a.75.75 0 0 1 .75.75v16.69l2.22-2.22a.75.75 0 1 1 1.06 1.06l-3.5 3.5a.75.75 0 0 1-1.06 0l-3.5-3.5a.75.75 0 1 1 1.06-1.06l2.22 2.22V2.75a.75.75 0 0 1 .75-.75"/></svg>