<svg xmlns="http://www.w3.org/2000/svg" width="24" height="24" fill="none"><path fill="#04071E" d="M5.75 3A2.75 2.75 0 0 0 3 5.75v12.5A2.75 2.75 0 0 0 5.75 21h12.5A2.75 2.75 0 0 0 21 18.25V5.75A2.75 2.75 0 0 0 18.25 3zm0 1.5h12.5c.69 0 1.25.56 1.25 1.25v12.5c0 .69-.56 1.25-1.25 1.25H5.75c-.69 0-1.25-.56-1.25-1.25V5.75c0-.69.56-1.25 1.25-1.25m4 7h7.5l.102.007A.75.75 0 0 1 17.25 13h-7.5l-.102-.007A.75.75 0 0 1 9.75 11.5m7.5 4H6.75a.75.75 0 0 0-.102 1.493L6.75 17h10.5a.75.75 0 0 0 .102-1.493zm-10.5-8h10.5l.102.007A.75.75 0 0 1 17.25 9H6.75l-.102-.007A.75.75 0 0 1 6.75 7.5"/></svg>