<svg xmlns="http://www.w3.org/2000/svg" width="24" height="24" fill="none"><path fill="#04071E" d="M21 5.75A2.75 2.75 0 0 0 18.25 3H5.75A2.75 2.75 0 0 0 3 5.75v12.5A2.75 2.75 0 0 0 5.75 21h12.5A2.75 2.75 0 0 0 21 18.25zm-1.5 0v12.5c0 .69-.56 1.25-1.25 1.25H5.75c-.69 0-1.25-.56-1.25-1.25V5.75c0-.69.56-1.25 1.25-1.25h12.5c.69 0 1.25.56 1.25 1.25m-7 4v7.5l-.007.102A.75.75 0 0 1 11 17.25v-7.5l.007-.102a.75.75 0 0 1 1.493.102m-4 7.5V6.75a.75.75 0 0 0-1.493-.102L7 6.75v10.5a.75.75 0 0 0 1.493.102zm8-10.5v10.5l-.007.102A.75.75 0 0 1 15 17.25V6.75l.007-.102a.75.75 0 0 1 1.493.102"/></svg>