<svg xmlns="http://www.w3.org/2000/svg" width="24" height="24" fill="none"><path fill="#04071E" d="M6.9 3.6h10.2a3.3 3.3 0 0 1 3.3 3.3v10.2a3.3 3.3 0 0 1-3.3 3.3h-4.955l-1.2-1.2H17.1a2.1 2.1 0 0 0 2.1-2.1V6.9a2.1 2.1 0 0 0-2.1-2.1H6.9a2.1 2.1 0 0 0-2.1 2.1v3.933c-.416.046-.818.14-1.2.274V6.9a3.3 3.3 0 0 1 3.3-3.3m4.5 13.2a.6.6 0 0 1 0-1.2h4.8a.6.6 0 1 1 0 1.2zM9 8.7a.9.9 0 1 1-1.8 0 .9.9 0 0 1 1.8 0m2.4-.3a.6.6 0 1 0 0 1.2h4.8a.6.6 0 1 0 0-1.2zm0 3.6a.6.6 0 1 0 0 1.2h4.8a.6.6 0 0 0 0-1.2zm-6 8.4c.943 0 1.814-.311 2.515-.836l3.06 3.06a.6.6 0 0 0 .85-.848l-3.061-3.06A4.2 4.2 0 1 0 5.4 20.4m0-1.2a3 3 0 1 1 0-6 3 3 0 0 1 0 6"/><path fill="#04071E" fill-rule="evenodd" d="M6.9 3.75A3.15 3.15 0 0 0 3.75 6.9v4q.436-.137.9-.2V6.9A2.25 2.25 0 0 1 6.9 4.65h10.2a2.25 2.25 0 0 1 2.25 2.25v10.2a2.25 2.25 0 0 1-2.25 2.25h-5.793l.9.9H17.1a3.15 3.15 0 0 0 3.15-3.15V6.9a3.15 3.15 0 0 0-3.15-3.15zM3.45 6.9A3.45 3.45 0 0 1 6.9 3.45h10.2a3.45 3.45 0 0 1 3.45 3.45v10.2a3.45 3.45 0 0 1-3.45 3.45h-5.017l-1.5-1.5H17.1a1.95 1.95 0 0 0 1.95-1.95V6.9a1.95 1.95 0 0 0-1.95-1.95H6.9A1.95 1.95 0 0 0 4.95 6.9v4.067l-.134.015a5.2 5.2 0 0 0-1.166.267l-.2.07zM8.1 7.95a.75.75 0 1 0 0 1.5.75.75 0 0 0 0-1.5m-1.05.75a1.05 1.05 0 1 1 2.1 0 1.05 1.05 0 0 1-2.1 0m3.6.3a.75.75 0 0 1 .75-.75h4.8a.75.75 0 0 1 0 1.5h-4.8a.75.75 0 0 1-.75-.75m.75-.45a.45.45 0 0 0 0 .9h4.8a.45.45 0 0 0 0-.9zM1.05 16.2a4.35 4.35 0 1 1 7.91 2.5l2.97 2.97a.75.75 0 1 1-1.06 1.06L7.9 19.76a4.35 4.35 0 0 1-6.85-3.56m4.35-4.05a4.05 4.05 0 1 0 2.425 7.294l.104-.078 3.153 3.152a.45.45 0 0 0 .636-.636l-3.152-3.153.078-.104A4.05 4.05 0 0 0 5.4 12.15m5.25.45a.75.75 0 0 1 .75-.75h4.8a.75.75 0 1 1 0 1.5h-4.8a.75.75 0 0 1-.75-.75m.75-.45a.45.45 0 1 0 0 .9h4.8a.45.45 0 0 0 0-.9zm-6 1.2a2.85 2.85 0 1 0 0 5.7 2.85 2.85 0 0 0 0-5.7M2.25 16.2a3.15 3.15 0 1 1 6.3 0 3.15 3.15 0 0 1-6.3 0m9.15-.45a.45.45 0 1 0 0 .9h4.8a.45.45 0 0 0 0-.9zm-.75.45a.75.75 0 0 1 .75-.75h4.8a.75.75 0 1 1 0 1.5h-4.8a.75.75 0 0 1-.75-.75" clip-rule="evenodd"/></svg>