<svg xmlns="http://www.w3.org/2000/svg" width="24" height="24" fill="none"><path fill="#04071E" d="M5.75 2a2.75 2.75 0 0 0-1.444 5.091c-.68.657-1.3 1.676-1.3 3.159a.75.75 0 0 0 1.5 0c0-1.112.493-1.79.986-2.21a3.3 3.3 0 0 1 .894-.54H9.5v2.75a.75.75 0 0 0 1.5 0v-7.5a.75.75 0 0 0-.75-.75zm.523 4H5.75a1.25 1.25 0 1 1 0-2.5H9.5V6zm.799 6a.75.75 0 0 0-.704.477l-3.317 8.5a.75.75 0 0 0 1.398.545l.79-2.022h3.555l.754 2.013a.75.75 0 0 0 1.405-.526l-3.184-8.5A.75.75 0 0 0 7.072 12m-.02 2.85L8.232 18H5.823zM17.25 2a.75.75 0 0 1 .75.75v16.69l2.22-2.22a.75.75 0 1 1 1.06 1.06l-3.5 3.5a.75.75 0 0 1-1.06 0l-3.5-3.5a.75.75 0 1 1 1.06-1.06l2.22 2.22V2.75a.75.75 0 0 1 .75-.75"/></svg>