<svg xmlns="http://www.w3.org/2000/svg" width="24" height="24" fill="none"><path fill="#04071E" d="M7 3.5c-1.893 0-3.5 1.638-3.5 3.75 0 1.078.418 2.032 1.08 2.708.246.252.42.575.42.927C5 11.501 4.5 12 3.885 12H2.75a.75.75 0 0 1 0-1.5h.324A5.4 5.4 0 0 1 2 7.25C2 4.391 4.199 2 7 2s5 2.391 5 5.25c0 1.218-.399 2.35-1.074 3.25h.324a.75.75 0 0 1 0 1.5h-1.135C9.499 12 9 11.5 9 10.885c0-.352.174-.675.42-.927A3.85 3.85 0 0 0 10.5 7.25C10.5 5.138 8.893 3.5 7 3.5m.688 9.952a.75.75 0 0 0-1.376 0l-3.25 7.5a.75.75 0 1 0 1.376.596L5.11 20h3.782l.671 1.548a.75.75 0 1 0 1.376-.596zm.553 5.048H5.76L7 15.636zM17.25 2a.75.75 0 0 1 .75.75v16.69l2.22-2.22a.75.75 0 1 1 1.06 1.06l-3.5 3.5a.75.75 0 0 1-1.06 0l-3.5-3.5a.75.75 0 1 1 1.06-1.06l2.22 2.22V2.75a.75.75 0 0 1 .75-.75"/></svg>