<svg xmlns="http://www.w3.org/2000/svg" width="24" height="24" fill="none"><path fill="#04071E" d="M6.9 3.6h10.2a3.3 3.3 0 0 1 3.3 3.3v4.62a6.6 6.6 0 0 0-1.2-.472V6.9a2.1 2.1 0 0 0-2.1-2.1H6.9a2.1 2.1 0 0 0-2.1 2.1v10.2c0 1.16.94 2.1 2.1 2.1h4.149q.179.628.47 1.2H6.9a3.3 3.3 0 0 1-3.3-3.3V6.9a3.3 3.3 0 0 1 3.3-3.3m4.5 8.4h2.204c-.483.34-.92.745-1.295 1.2H11.4a.6.6 0 0 1 0-1.2M8.1 9.6a.9.9 0 1 0 0-1.8.9.9 0 0 0 0 1.8m.9 2.7a.9.9 0 1 1-1.8 0 .9.9 0 0 1 1.8 0m0 3.6a.9.9 0 1 1-1.8 0 .9.9 0 0 1 1.8 0M10.8 9a.6.6 0 0 1 .6-.6h4.8a.6.6 0 1 1 0 1.2h-4.8a.6.6 0 0 1-.6-.6m12 8.4a5.4 5.4 0 1 1-10.8 0 5.4 5.4 0 0 1 10.8 0m-5.4-3a.6.6 0 0 0-.6.6v2.4a.6.6 0 0 0 .6.6h1.8a.6.6 0 0 0 0-1.2H18V15a.6.6 0 0 0-.6-.6"/><path fill="#04071E" fill-rule="evenodd" d="M6.9 3.75A3.15 3.15 0 0 0 3.75 6.9v10.2a3.15 3.15 0 0 0 3.15 3.15h4.38q-.203-.435-.344-.9H6.9a2.25 2.25 0 0 1-2.25-2.25V6.9A2.25 2.25 0 0 1 6.9 4.65h10.2a2.25 2.25 0 0 1 2.25 2.25v4.036q.465.14.9.343V6.9A3.15 3.15 0 0 0 17.1 3.75zM3.45 6.9A3.45 3.45 0 0 1 6.9 3.45h10.2a3.45 3.45 0 0 1 3.45 3.45v4.865l-.218-.112a6.4 6.4 0 0 0-1.173-.46l-.109-.031V6.9a1.95 1.95 0 0 0-1.95-1.95H6.9A1.95 1.95 0 0 0 4.95 6.9v10.2a1.95 1.95 0 0 0 1.95 1.95h4.262l.031.11q.175.613.46 1.172l.112.218H6.9a3.45 3.45 0 0 1-3.45-3.45zm3.6 1.8a1.05 1.05 0 1 1 2.1 0 1.05 1.05 0 0 1-2.1 0m1.05-.75a.75.75 0 1 0 0 1.5.75.75 0 0 0 0-1.5m3.3.6a.45.45 0 0 0 0 .9h4.8a.45.45 0 0 0 0-.9zm-.75.45a.75.75 0 0 1 .75-.75h4.8a.75.75 0 0 1 0 1.5h-4.8a.75.75 0 0 1-.75-.75M8.1 11.55a.75.75 0 1 0 0 1.5.75.75 0 0 0 0-1.5m-1.05.75a1.05 1.05 0 1 1 2.1 0 1.05 1.05 0 0 1-2.1 0m4.35-.15a.45.45 0 1 0 0 .9h.839q.415-.494.918-.9zm-.75.45a.75.75 0 0 1 .75-.75h2.678l-.387.273a6.5 6.5 0 0 0-1.267 1.173l-.044.054h-.98a.75.75 0 0 1-.75-.75m6.75-.45a5.25 5.25 0 1 0 0 10.5 5.25 5.25 0 0 0 0-10.5m-5.55 5.25a5.55 5.55 0 1 1 11.1 0 5.55 5.55 0 0 1-11.1 0m4.8-2.4a.75.75 0 1 1 1.5 0v1.65h1.05a.75.75 0 1 1 0 1.5h-1.8a.75.75 0 0 1-.75-.75zm.75-.45a.45.45 0 0 0-.45.45v2.4c0 .248.202.45.45.45h1.8a.45.45 0 0 0 0-.9h-1.35V15a.45.45 0 0 0-.45-.45m-9.3.6a.75.75 0 1 0 0 1.5.75.75 0 0 0 0-1.5m-1.05.75a1.05 1.05 0 1 1 2.1 0 1.05 1.05 0 0 1-2.1 0" clip-rule="evenodd"/></svg>