<svg xmlns="http://www.w3.org/2000/svg" width="24" height="24" fill="none"><path fill="#04071E" d="M9.114 5.613c1.245-1.184 2.831-1.751 4.695-1.61 1.669.125 2.713.916 3.333 1.803.484.693.796 1.533.857 2.377L18 8.2v.01a.75.75 0 0 1-1.497.085v-.001a3.37 3.37 0 0 0-.59-1.628c-.385-.55-1.033-1.078-2.217-1.167-1.46-.11-2.624.323-3.548 1.202-.946.899-1.688 2.313-2.168 4.232-.473 1.892-.625 3.777-.215 5.185.2.69.528 1.238.995 1.633.464.392 1.118.677 2.052.752 2.065.167 4.016-1.002 4.722-2.97l.006-.016v.001-.002m0 0a.75.75 0 0 1 1.425.467v.003l-.002.004-.004.012-.007.021-.006.016q-.016.045-.046.12c-.289.73-1.897 4.188-6.208 3.84-1.191-.097-2.158-.475-2.9-1.103-.74-.625-1.203-1.452-1.468-2.36-.52-1.785-.296-3.978.2-5.967.521-2.08 1.367-3.792 2.59-4.955"/></svg>