<svg xmlns="http://www.w3.org/2000/svg" width="24" height="24" fill="none"><path fill="#04071E" d="M3.75 5a.75.75 0 0 0 0 1.5h16.5a.75.75 0 0 0 0-1.5zm0 4a.75.75 0 0 0 0 1.5h16.5a.75.75 0 0 0 0-1.5zM3 13.75a.75.75 0 0 1 .75-.75h9.06c-.427.444-.79.949-1.078 1.5H3.75a.75.75 0 0 1-.75-.75m8 3.75q0-.252.019-.5H3.75a.75.75 0 0 0 0 1.5h7.326a6.6 6.6 0 0 1-.076-1m12 0a5.5 5.5 0 1 1-11 0 5.5 5.5 0 0 1 11 0M18.529 14h-1.433a.5.5 0 0 0-.468.324l-1.125 3a.5.5 0 0 0 .469.676h.778l-.773 2.318a.518.518 0 0 0 .926.446l2.625-4.038a.47.47 0 0 0-.393-.726H18.5l.497-1.324a.5.5 0 0 0-.468-.676"/></svg>