<svg xmlns="http://www.w3.org/2000/svg" width="24" height="24" fill="none"><path fill="#04071E" d="M6 5.25a.75.75 0 0 1 .75-.75h10.5a.75.75 0 0 1 .75.75v1.5a.75.75 0 0 1-1.5 0V6h-3.75v12h.75a.75.75 0 0 1 0 1.5h-3a.75.75 0 0 1 0-1.5h.75V6H7.5v.75a.75.75 0 0 1-1.5 0zm.53 4.72a.75.75 0 0 1 0 1.06l-3.22 3.22 3.22 3.22a.75.75 0 1 1-1.06 1.06l-3.75-3.75a.75.75 0 0 1 0-1.06l3.75-3.75a.75.75 0 0 1 1.06 0m15.75 3.75-3.75-3.75a.75.75 0 1 0-1.06 1.06l3.219 3.22-3.22 3.22a.75.75 0 1 0 1.06 1.06l3.75-3.75a.75.75 0 0 0 0-1.06"/><path fill="#04071E" fill-rule="evenodd" d="M6.75 4.65a.6.6 0 0 0-.6.6v1.5a.6.6 0 0 0 1.2 0V6a.15.15 0 0 1 .15-.15h3.75a.15.15 0 0 1 .15.15v12a.15.15 0 0 1-.15.15h-.75a.6.6 0 1 0 0 1.2h3a.6.6 0 1 0 0-1.2h-.75a.15.15 0 0 1-.15-.15V6a.15.15 0 0 1 .15-.15h3.75a.15.15 0 0 1 .15.15v.75a.6.6 0 1 0 1.2 0v-1.5a.6.6 0 0 0-.6-.6zm-.9.6a.9.9 0 0 1 .9-.9h10.5a.9.9 0 0 1 .9.9v1.5a.9.9 0 1 1-1.8 0v-.6H12.9v11.7h.6a.9.9 0 1 1 0 1.8h-3a.9.9 0 0 1 0-1.8h.6V6.15H7.65v.6a.9.9 0 0 1-1.8 0zm.574 4.826a.6.6 0 0 0-.849 0l-3.75 3.75a.6.6 0 0 0 0 .848l3.75 3.75a.6.6 0 1 0 .849-.848l-3.22-3.22a.15.15 0 0 1 0-.212l3.22-3.22a.6.6 0 0 0 0-.848m-1.06-.212a.9.9 0 0 1 1.272 1.272L3.522 14.25l3.114 3.114a.9.9 0 0 1-1.273 1.273l-3.75-3.75a.9.9 0 0 1 0-1.273zm12 0a.9.9 0 0 1 1.272 0l3.75 3.75a.9.9 0 0 1 0 1.272l-3.75 3.75a.9.9 0 1 1-1.273-1.272l3.114-3.114-3.114-3.113a.9.9 0 0 1 0-1.273m1.06.212a.6.6 0 0 0-.849.848l3.22 3.22a.15.15 0 0 1 0 .212l-3.22 3.22a.6.6 0 0 0 .849.848l3.75-3.75a.6.6 0 0 0 0-.848z" clip-rule="evenodd"/></svg>