<svg xmlns="http://www.w3.org/2000/svg" width="24" height="24" fill="none"><path fill="#04071E" d="M11.49 4.981c-.575.401-.99 1.094-.99 2.269 0 .628.237 1.044.65 1.414.447.4 1.063.716 1.83 1.11l.053.027c1.497.769 3.464 1.786 3.953 4.306C17.488 16.692 15.48 20 11.5 20c-2.924 0-4.397-2.397-4.793-3.152a5 5 0 0 1-.136-.279l-.009-.02-.003-.006v-.003h-.001a.75.75 0 0 1 .403-.982c.575-.24.983.407.983.407L7.96 16q.022.05.075.151c.36.686 1.454 2.349 3.465 2.349 3.02 0 4.34-2.43 4.014-4.107-.336-1.73-1.619-2.463-3.166-3.257l-.13-.067c-.698-.357-1.473-.754-2.069-1.288-.677-.606-1.15-1.409-1.15-2.531 0-1.575.586-2.77 1.635-3.5 1.013-.705 2.343-.894 3.698-.746 2.172.239 3.111 1.722 3.455 2.515a4 4 0 0 1 .19.545l.003.013v.005l.001.002v.001a.75.75 0 0 1-1.462.335l-.002-.009-.017-.057a3 3 0 0 0-.09-.24c-.23-.53-.816-1.462-2.242-1.619-1.145-.125-2.066.06-2.677.486"/></svg>