<svg xmlns="http://www.w3.org/2000/svg" width="24" height="24" fill="none"><path fill="#04071E" d="M3.312 6.5c.669 0 1.21-.537 1.21-1.2s-.541-1.2-1.21-1.2S2.1 4.637 2.1 5.3s.542 1.2 1.21 1.2m3.633-1.2c0-.331.271-.6.605-.6h13.322c.334 0 .605.269.605.6s-.271.6-.605.6H7.55a.603.603 0 0 1-.605-.6m0 6c0-.331.271-.6.605-.6h13.322c.334 0 .605.269.605.6s-.271.6-.605.6H7.55a.603.603 0 0 1-.605-.6m4.871 6.6q.057-.619.224-1.2H7.55a.603.603 0 0 0-.605.6c0 .331.271.6.605.6zm-7.293-.6c0 .663-.542 1.2-1.211 1.2A1.206 1.206 0 0 1 2.1 17.3c0-.663.542-1.2 1.21-1.2.67 0 1.212.537 1.212 1.2m-1.211-4.8c.669 0 1.21-.537 1.21-1.2s-.541-1.2-1.21-1.2-1.211.537-1.211 1.2.542 1.2 1.21 1.2m20.587 6c0 2.982-2.44 5.4-5.45 5.4S13 21.482 13 18.5s2.44-5.4 5.45-5.4 5.45 2.418 5.45 5.4m-6.66.951-.783-.775a.61.61 0 0 0-.857 0 .596.596 0 0 0 0 .848l1.211 1.2a.61.61 0 0 0 .857 0l3.633-3.6a.596.596 0 0 0 0-.848.61.61 0 0 0-.857 0z"/><path fill="#04071E" fill-rule="evenodd" d="M11.908 18H7.55a.703.703 0 0 1-.706-.7c0-.387.316-.7.706-.7h4.623l-.036.127a6.4 6.4 0 0 0-.22 1.182zm5.33 1.593-.854-.847a.51.51 0 0 0-.713 0 .497.497 0 0 0 0 .708l1.21 1.2a.51.51 0 0 0 .714 0l3.633-3.6a.497.497 0 0 0 0-.708.51.51 0 0 0-.713 0zM4.624 5.3c0 .718-.588 1.3-1.312 1.3A1.306 1.306 0 0 1 2 5.3C2 4.582 2.587 4 3.312 4c.724 0 1.312.582 1.312 1.3m2.22 0c0-.387.316-.7.706-.7h13.322c.39 0 .706.313.706.7s-.316.7-.706.7H7.55a.703.703 0 0 1-.706-.7m0 6c0-.387.316-.7.706-.7h13.322c.39 0 .706.313.706.7s-.316.7-.706.7H7.55a.703.703 0 0 1-.706-.7m5.196 5.4H7.55a.603.603 0 0 0-.605.6c0 .331.271.6.605.6h4.266a6.5 6.5 0 0 1 .224-1.2m-7.416.6c0 .718-.588 1.3-1.312 1.3A1.306 1.306 0 0 1 2 17.3c0-.718.587-1.3 1.312-1.3.724 0 1.312.582 1.312 1.3m0-6c0 .718-.588 1.3-1.312 1.3A1.306 1.306 0 0 1 2 11.3c0-.718.587-1.3 1.312-1.3.724 0 1.312.582 1.312 1.3M24 18.5c0 3.038-2.485 5.5-5.55 5.5s-5.55-2.462-5.55-5.5 2.484-5.5 5.55-5.5S24 15.462 24 18.5m-6.762.951-.782-.775a.61.61 0 0 0-.857 0 .596.596 0 0 0 0 .848l1.211 1.2a.61.61 0 0 0 .857 0l3.633-3.6a.596.596 0 0 0 0-.848.61.61 0 0 0-.857 0zM4.523 5.3c0 .663-.542 1.2-1.211 1.2A1.206 1.206 0 0 1 2.1 5.3c0-.663.542-1.2 1.21-1.2.67 0 1.212.537 1.212 1.2m3.027-.6a.603.603 0 0 0-.605.6c0 .331.271.6.605.6h13.322a.603.603 0 0 0 .605-.6c0-.331-.271-.6-.605-.6zm0 6a.603.603 0 0 0-.605.6c0 .331.271.6.605.6h13.322a.603.603 0 0 0 .605-.6c0-.331-.271-.6-.605-.6zm-4.238 7.8c.669 0 1.21-.537 1.21-1.2s-.541-1.2-1.21-1.2-1.211.537-1.211 1.2.542 1.2 1.21 1.2m1.21-7.2c0 .663-.541 1.2-1.21 1.2A1.206 1.206 0 0 1 2.1 11.3c0-.663.542-1.2 1.21-1.2.67 0 1.212.537 1.212 1.2M18.45 23.9c3.01 0 5.45-2.418 5.45-5.4s-2.44-5.4-5.45-5.4S13 15.518 13 18.5s2.44 5.4 5.45 5.4" clip-rule="evenodd"/></svg>