<svg xmlns="http://www.w3.org/2000/svg" width="24" height="24" fill="none"><path fill="#04071E" d="M11.93 4.351c.305-.658 1.119-1.022 1.768-.769.782.305 1.089 1.26.673 1.909-.196.305-.493.61-.874.938-.233.201-.458.38-.693.566-.17.135-.347.275-.537.431-.415.343-.847.73-1.176 1.174-.336.453-.591 1-.591 1.65 0 .414.336.75.75.75h4.5a.75.75 0 0 0 0-1.5h-3.459l.005-.006c.215-.291.53-.584.926-.91.14-.116.3-.243.467-.376.264-.21.545-.434.788-.643.418-.361.844-.777 1.157-1.265.96-1.498.214-3.49-1.391-4.115-1.479-.577-3.078.251-3.674 1.535a.75.75 0 0 0 1.361.631M2.75 2a.75.75 0 0 1 .75.75V5.5h4V2.75a.75.75 0 1 1 1.5 0v7.493a.75.75 0 0 1-1.5 0V7h-4v3.25a.75.75 0 0 1-1.5 0v-7.5A.75.75 0 0 1 2.75 2m14.807 3.462a.75.75 0 0 1 .693-.464h3.002a.75.75 0 0 1 .53 1.281l-1.5 1.501a.75.75 0 0 1-1.062 0l-1.5-1.5a.75.75 0 0 1-.163-.818M2.75 19a.75.75 0 0 0 0 1.5h18.5a.75.75 0 0 0 0-1.5zM2 14.75a.75.75 0 0 1 .75-.75h18.5a.75.75 0 0 1 0 1.5H2.75a.75.75 0 0 1-.75-.75"/></svg>