<svg xmlns="http://www.w3.org/2000/svg" width="24" height="24" fill="none"><path fill="#04071E" d="M7 2a.75.75 0 0 1 .688.452l3.25 7.5a.75.75 0 1 1-1.376.596L8.892 9H5.108l-.67 1.548a.75.75 0 1 1-1.377-.596l3.25-7.5A.75.75 0 0 1 7 2m0 2.636L5.76 7.5H8.24zm-.781 6.528a.75.75 0 0 0-.938 1.172l1.25 1a.75.75 0 0 0 .938 0l1.25-1a.75.75 0 0 0-.938-1.172L7 11.79zM4 14.75a.75.75 0 0 1 .75-.75h5a.75.75 0 0 1 .595 1.207L6.273 20.5H9.75a.75.75 0 0 1 0 1.5h-5a.75.75 0 0 1-.594-1.207l4.07-5.293H4.75a.75.75 0 0 1-.75-.75M17.25 2a.75.75 0 0 1 .75.75v16.69l2.22-2.22a.75.75 0 1 1 1.06 1.06l-3.5 3.5a.75.75 0 0 1-1.06 0l-3.5-3.5a.75.75 0 1 1 1.06-1.06l2.22 2.22V2.75a.75.75 0 0 1 .75-.75"/></svg>