<svg xmlns="http://www.w3.org/2000/svg" width="24" height="24" fill="none"><path fill="#04071E" d="M14.53 3.591a.75.75 0 0 0-1.06 0L3.59 13.47a.75.75 0 0 0 0 1.06L4.66 15.6a2.75 2.75 0 0 1 3.742 3.742l1.068 1.068a.75.75 0 0 0 1.061 0l9.879-9.879a.75.75 0 0 0 0-1.06L19.34 8.4a2.75 2.75 0 0 1-3.742-3.742zm-2.121-1.06a2.25 2.25 0 0 1 3.182 0l1.171 1.17c.511.512.42 1.229.162 1.662a1.25 1.25 0 0 0 1.713 1.713c.433-.258 1.15-.35 1.66.161L21.47 8.41a2.25 2.25 0 0 1 0 3.182l-9.878 9.879a2.25 2.25 0 0 1-3.182 0l-1.172-1.172c-.51-.51-.42-1.227-.162-1.66a1.25 1.25 0 0 0-1.713-1.713c-.433.257-1.15.348-1.66-.163L2.53 15.592a2.25 2.25 0 0 1 0-3.182z"/></svg>