<svg xmlns="http://www.w3.org/2000/svg" width="24" height="24" fill="none"><path fill="#04071E" d="M3.385 5.996a6.07 6.07 0 0 1 4.576-.467h.001c1.232.362 1.906 1.111 2.237 1.94.3.754.3 1.537.3 1.99v5.79a.75.75 0 0 1-1.5 0v-.3a9 9 0 0 1-.396.222c-.952.506-2.327 1.019-3.757.761-1.584-.284-2.576-1.594-2.8-2.951-.229-1.38.316-2.937 1.902-3.697 1.44-.69 2.99-.628 4.122-.427.342.06.653.135.923.21-.013-.35-.055-.71-.188-1.042-.166-.417-.491-.829-1.264-1.056a4.57 4.57 0 0 0-3.431.34.75.75 0 1 1-.725-1.313m4.423 4.338c-.986-.176-2.175-.194-3.212.303-.891.427-1.208 1.269-1.07 2.1.141.853.741 1.567 1.586 1.72.938.168 1.947-.164 2.788-.61a8 8 0 0 0 1.098-.703v-2.506a8.4 8.4 0 0 0-1.19-.304m8.677-3.296a.75.75 0 0 1 .476.948c-.09.269-.185.61-.271.94.948-.089 1.87-.226 2.638-.407a.75.75 0 1 1 .343 1.46c-.973.23-2.152.392-3.336.482q-.164.818-.257 1.5a6 6 0 0 1 1.672-.238.75.75 0 0 1 1.5.026q0 .112-.003.222a4.04 4.04 0 0 1 2.504 2.424 3.98 3.98 0 0 1-.154 3.127c-.496 1.025-1.44 1.894-2.827 2.428a.75.75 0 0 1-.538-1.4c1.083-.417 1.708-1.046 2.015-1.681.31-.64.325-1.34.097-1.953a2.55 2.55 0 0 0-1.278-1.4 7.63 7.63 0 0 1-2.285 4.047q.086.198.17.424a.75.75 0 1 1-1.423.478 4.7 4.7 0 0 1-1.24.474c-.72.155-1.557.1-2.13-.485-.865-.886-.818-2.277-.204-3.443.477-.908 1.323-1.77 2.538-2.412.06-.615.157-1.298.3-2.064-.654.013-1.28.001-1.844-.037A.75.75 0 0 1 13.05 9c.622.043 1.331.05 2.067.025a21 21 0 0 1 .42-1.513.75.75 0 0 1 .948-.475m-2.058 7.372c-.546.413-.92.87-1.146 1.3-.444.843-.289 1.45-.05 1.695.055.056.258.172.742.068.345-.074.672-.203.977-.374a8 8 0 0 1-.386-1.372 9 9 0 0 1-.137-1.317m1.755 1.66a6.65 6.65 0 0 0 1.413-2.848 4.7 4.7 0 0 0-1.328.25q-.175.057-.34.12a8.6 8.6 0 0 0 .113 1.866c.041.227.089.428.142.612"/></svg>