<svg xmlns="http://www.w3.org/2000/svg" width="24" height="24" fill="none"><path fill="#04071E" d="M12.744 2.653a1.2 1.2 0 0 0-1.487 0l-3.97 3.133c-.965.762-.847 2.09-.069 2.776L5.462 10.01c-1.156.953-.688 2.726.612 3.113L4.17 14.906C2.988 16.015 3.77 18 5.393 18H9.6v2.1a1.5 1.5 0 0 0 1.5 1.5h1.8a1.5 1.5 0 0 0 1.5-1.5v-2.1h4.205c1.621 0 2.406-1.986 1.221-3.094l-1.903-1.78c1.302-.386 1.772-2.161.615-3.115l-1.755-1.447c.78-.685.897-2.015-.069-2.777zM13.199 18v2.1a.3.3 0 0 1-.3.3h-1.8a.3.3 0 0 1-.3-.3v-2.1zM12 3.595l3.97 3.133c.44.347.204 1.054-.35 1.07a.6.6 0 0 0-.363 1.063l2.517 2.075a.6.6 0 0 1-.382 1.063h-.91a.6.6 0 0 0-.41 1.038l2.933 2.745a.588.588 0 0 1-.401 1.017H5.394a.588.588 0 0 1-.403-1.017l2.93-2.745a.6.6 0 0 0-.41-1.038h-.904a.6.6 0 0 1-.382-1.063L8.742 8.86A.6.6 0 0 0 8.38 7.8c-.553-.018-.79-.724-.35-1.071z"/><path fill="#04071E" fill-rule="evenodd" d="M11.164 2.536a1.35 1.35 0 0 1 1.673 0l3.97 3.132c.993.784.925 2.12.2 2.886l1.625 1.34c1.183.975.797 2.736-.43 3.286l1.726 1.616c1.283 1.2.433 3.353-1.324 3.353h-4.055v1.95a1.65 1.65 0 0 1-1.65 1.65h-1.8a1.65 1.65 0 0 1-1.65-1.65v-1.95H5.393c-1.757 0-2.607-2.15-1.325-3.352l1.727-1.618c-1.226-.552-1.61-2.31-.428-3.285l1.626-1.34c-.724-.767-.792-2.102.201-2.886zm1.487.235a1.05 1.05 0 0 0-1.301 0L7.38 5.904c-.882.696-.78 1.914-.063 2.546a.15.15 0 0 1-.003.228l-1.757 1.448c-1.058.872-.633 2.498.56 2.853a.15.15 0 0 1 .06.254l-1.904 1.783c-1.084 1.015-.365 2.833 1.12 2.833H9.6a.15.15 0 0 1 .15.15v2.1c0 .745.605 1.35 1.35 1.35h1.8a1.35 1.35 0 0 0 1.35-1.35v-2.1a.15.15 0 0 1 .15-.15h4.205c1.485 0 2.204-1.82 1.119-2.834l-1.904-1.781a.15.15 0 0 1 .06-.254c1.195-.353 1.621-1.981.563-2.854l-1.756-1.447a.15.15 0 0 1-.003-.229c.718-.631.82-1.85-.062-2.546zm-.744.707a.15.15 0 0 1 .186 0l3.97 3.132c.55.434.256 1.318-.438 1.339a.45.45 0 0 0-.273.797l2.517 2.074c.543.448.227 1.329-.477 1.329h-.91a.45.45 0 0 0-.307.779l2.933 2.744a.738.738 0 0 1-.504 1.277H5.394a.738.738 0 0 1-.506-1.277l2.93-2.745a.45.45 0 0 0-.307-.778h-.904c-.704 0-1.02-.881-.477-1.329l2.517-2.074a.45.45 0 0 0-.272-.797c-.693-.022-.987-.905-.437-1.339zm.093.308-3.876 3.06a.45.45 0 0 0 .26.803.75.75 0 0 1 .454 1.328L6.32 11.052a.45.45 0 0 0 .286.797h.904a.75.75 0 0 1 .512 1.297l-2.93 2.745a.438.438 0 0 0 .3.758h13.21c.398 0 .59-.486.3-.758l-2.933-2.744a.75.75 0 0 1 .512-1.298h.91a.45.45 0 0 0 .286-.797l-2.516-2.075a.75.75 0 0 1 .454-1.328.45.45 0 0 0 .261-.803zM10.65 18a.15.15 0 0 1 .15-.15h2.4a.15.15 0 0 1 .15.15v2.1a.45.45 0 0 1-.45.45h-1.8a.45.45 0 0 1-.45-.45zm.3.15v1.95c0 .083.066.15.15.15h1.8a.15.15 0 0 0 .15-.15v-1.95z" clip-rule="evenodd"/></svg>