<svg xmlns="http://www.w3.org/2000/svg" width="24" height="24" fill="none"><path fill="#04071E" d="M22.8 6.6a5.4 5.4 0 1 1-10.8 0 5.4 5.4 0 0 1 10.8 0m-2.576.425.003-.003a.6.6 0 0 0 .173-.418v-.007a.6.6 0 0 0-.176-.421l-2.4-2.4a.6.6 0 0 0-.848.848L18.352 6H15a.6.6 0 1 0 0 1.2h3.352l-1.376 1.376a.6.6 0 0 0 .848.848zM20.4 15.6v-3.12q.647-.33 1.2-.789v3.91a2.4 2.4 0 0 1-2.4 2.4H4.8a2.4 2.4 0 0 1-2.4-2.4V7.2a2.4 2.4 0 0 1 2.4-2.4h6.248a6.6 6.6 0 0 0-.221 1.2H4.8a1.2 1.2 0 0 0-1.2 1.2v8.4a1.2 1.2 0 0 0 1.2 1.2h14.4a1.2 1.2 0 0 0 1.2-1.2M6 19.8a.6.6 0 0 1 .6-.6h10.8a.6.6 0 1 1 0 1.2H6.6a.6.6 0 0 1-.6-.6"/><path fill="#04071E" fill-rule="evenodd" d="M15 6a.6.6 0 1 0 0 1.2h3.352l-1.376 1.376a.6.6 0 0 0 .848.848l2.4-2.4.003-.002a.6.6 0 0 0 .173-.418v-.007a.6.6 0 0 0-.176-.421l-2.4-2.4a.6.6 0 0 0-.848.848L18.352 6zm5.3.597a.5.5 0 0 0-.146-.35l-2.4-2.4a.5.5 0 0 0-.708.707L18.593 6.1H15a.5.5 0 0 0 0 1h3.593l-1.547 1.547a.5.5 0 0 0 .708.707l2.399-2.4.003-.002m.144-.355v.006a.5.5 0 0 1-.144.349m.144 5.467.055-.028a6.5 6.5 0 0 0 1.181-.777l.164-.135V15.6a2.5 2.5 0 0 1-2.5 2.5H4.8a2.5 2.5 0 0 1-2.5-2.5V7.2a2.5 2.5 0 0 1 2.5-2.5h6.38l-.035.127q-.163.572-.218 1.182l-.009.091H4.8a1.1 1.1 0 0 0-1.1 1.1v8.4a1.1 1.1 0 0 0 1.1 1.1h14.4a1.1 1.1 0 0 0 1.1-1.1zM22.9 6.6a5.5 5.5 0 1 1-11 0 5.5 5.5 0 0 1 11 0m-1.3 9a2.4 2.4 0 0 1-2.4 2.4H4.8a2.4 2.4 0 0 1-2.4-2.4V7.2a2.4 2.4 0 0 1 2.4-2.4h6.248a6.7 6.7 0 0 0-.221 1.2H4.8a1.2 1.2 0 0 0-1.2 1.2v8.4a1.2 1.2 0 0 0 1.2 1.2h14.4a1.2 1.2 0 0 0 1.2-1.2v-3.12a6.6 6.6 0 0 0 1.2-.789zM5.9 19.8a.7.7 0 0 1 .7-.7h10.8a.7.7 0 1 1 0 1.4H6.6a.7.7 0 0 1-.7-.7M17.4 12a5.4 5.4 0 1 0 0-10.8 5.4 5.4 0 0 0 0 10.8M6.6 19.2a.6.6 0 1 0 0 1.2h10.8a.6.6 0 1 0 0-1.2z" clip-rule="evenodd"/></svg>