<svg xmlns="http://www.w3.org/2000/svg" width="24" height="24" fill="none"><path fill="#04071E" fill-rule="evenodd" d="M6.5 1a5.5 5.5 0 1 1 0 11 5.5 5.5 0 0 1 0-11m2 5.5h-2V4a.5.5 0 0 0-1 0v3a.5.5 0 0 0 .5.5h2.5a.5.5 0 0 0 0-1" clip-rule="evenodd"/><path fill="#04071E" fill-rule="evenodd" d="M13 9.5v-4h-.076a6.5 6.5 0 0 0-.422-1.5h3.47c1.24 0 2.327.83 2.653 2.026l.953 3.493A2.75 2.75 0 0 1 22 12.25v2.25c0 .865-.4 1.636-1.023 2.14a3.25 3.25 0 0 1-6.32.61H9.843a3.251 3.251 0 0 1-6.258-.258A2.75 2.75 0 0 1 2 14.5v-1.688c0-.474.121-.925.337-1.32.386.322.81.6 1.264.827a1.25 1.25 0 0 0-.101.493V14.5c0 .242.069.468.188.659a3.251 3.251 0 0 1 6.274.591h4.576a3.25 3.25 0 0 1 5.962-1.233V12.25c0-.69-.56-1.25-1.25-1.25h-8.06c.427-.444.79-.949 1.078-1.5zm1.5-4h1.472a1.25 1.25 0 0 1 1.206.921l.84 3.079H14.5zm3.25 9a1.75 1.75 0 1 1 0 3.5 1.75 1.75 0 0 1 0-3.5M8.5 16.25a1.75 1.75 0 1 1-3.5 0 1.75 1.75 0 0 1 3.5 0" clip-rule="evenodd"/></svg>