<svg xmlns="http://www.w3.org/2000/svg" width="24" height="24" fill="none"><path fill="#04071E" d="M6.5 1a5.5 5.5 0 1 1 0 11 5.5 5.5 0 0 1 0-11m2 5.5h-2V4a.5.5 0 0 0-1 0v3a.5.5 0 0 0 .5.5h2.5a.5.5 0 0 0 0-1m-2 6.5A6.5 6.5 0 0 0 12 9.966V12h4.934l-2-3.386A1.25 1.25 0 0 0 13.859 8h-1.032A6.5 6.5 0 0 0 13 6.5h.858a2.75 2.75 0 0 1 2.368 1.352l2.509 4.246 2.182.546A2.75 2.75 0 0 1 23 15.312V17a2.75 2.75 0 0 1-1.585 2.492 3.251 3.251 0 0 1-6.258.258h-4.814a3.252 3.252 0 0 1-6.32-.61A2.75 2.75 0 0 1 3 17v-2.25c0-.902.435-1.703 1.106-2.205.741.294 1.549.455 2.394.455m8.538 5.25a3.25 3.25 0 0 1 6.274-.591c.12-.191.188-.417.188-.659v-1.688a1.25 1.25 0 0 0-.947-1.213l-2.397-.599H5.75c-.69 0-1.25.56-1.25 1.25v2.267a3.25 3.25 0 0 1 5.962 1.233zM7.25 17a1.75 1.75 0 1 0 0 3.5 1.75 1.75 0 0 0 0-3.5m9.25 1.75a1.75 1.75 0 1 0 3.5 0 1.75 1.75 0 0 0-3.5 0"/></svg>