<svg xmlns="http://www.w3.org/2000/svg" width="24" height="24" fill="none"><path fill="#04071E" d="M1 8.573V4.427a1.5 1.5 0 0 1 .83-1.341l3.5-1.75a1.5 1.5 0 0 1 1.34 0l3.5 1.75A1.5 1.5 0 0 1 11 4.427v4.146a1.5 1.5 0 0 1-.83 1.342l-3.5 1.75a1.5 1.5 0 0 1-1.34 0l-3.5-1.75A1.5 1.5 0 0 1 1 8.573m1.553-4.046a.5.5 0 0 0 .223.67L5.5 6.56V9.5a.5.5 0 1 0 1 0V6.56l2.724-1.363a.5.5 0 1 0-.448-.894L6 5.691 3.224 4.303a.5.5 0 0 0-.671.224m.947 7.341v5.382a.75.75 0 0 0 .672.746A3.001 3.001 0 0 1 9.83 18h2.342A3 3 0 0 1 15 16V5.25a.75.75 0 0 0-.75-.75H12v-.073c0-.52-.161-1.016-.447-1.427h2.697a2.25 2.25 0 0 1 2.25 2.25V6h1.55c.87 0 1.662.501 2.034 1.287l1.7 3.587c.142.301.216.63.216.963v5.413a2.25 2.25 0 0 1-2.25 2.25h-1.791a3 3 0 0 1-5.917 0H9.958a3 3 0 0 1-5.92-.01A2.25 2.25 0 0 1 2 17.25v-6.132zm13 4.533A3 3 0 0 1 17.83 18h1.92a.75.75 0 0 0 .75-.75V17h-1.25a.75.75 0 0 1 0-1.5h1.25v-3h-4zM18.05 7.5H16.5V11h3.683L18.73 7.929a.75.75 0 0 0-.678-.429M5.5 19a1.5 1.5 0 1 0 3 0 1.5 1.5 0 0 0-3 0m9.5 1.5a1.5 1.5 0 1 0 0-3 1.5 1.5 0 0 0 0 3"/></svg>