<svg xmlns="http://www.w3.org/2000/svg" width="24" height="24" fill="none"><path fill="#04071E" d="M19.75 3A2.25 2.25 0 0 1 22 5.25v12a2.25 2.25 0 0 1-2.04 2.24 3 3 0 0 1-5.919.01H11.96a3 3 0 0 1-5.918 0H4.25A2.25 2.25 0 0 1 2 17.25v-5.413c0-.333.074-.662.217-.963l1.699-3.587A2.25 2.25 0 0 1 5.949 6H7.5v-.75A2.25 2.25 0 0 1 9.75 3zM6.17 18a3 3 0 0 1 1.33-1.599V12.5h-4v3h1.25a.75.75 0 1 1 0 1.5H3.5v.25c0 .414.336.75.75.75zM9 16c1.306 0 2.418.835 2.83 2h2.34a3.001 3.001 0 0 1 5.658-.004.75.75 0 0 0 .672-.746v-12a.75.75 0 0 0-.75-.75h-10a.75.75 0 0 0-.75.75zM7.5 7.5H5.95a.75.75 0 0 0-.679.429L3.817 11H7.5zm9.5 13a1.5 1.5 0 1 0 0-3 1.5 1.5 0 0 0 0 3M7.5 19a1.5 1.5 0 1 0 3 0 1.5 1.5 0 0 0-3 0"/></svg>