<svg xmlns="http://www.w3.org/2000/svg" width="24" height="24" fill="none"><path fill="#04071E" d="M5.4 4.8a3 3 0 0 0-3 3v3.404a4.2 4.2 0 0 1 1.2-.362V7.8A1.8 1.8 0 0 1 5.4 6h8.4a1.8 1.8 0 0 1 1.8 1.8v8.4a1.8 1.8 0 0 1-1.8 1.8h-.6v1.2h.6a3 3 0 0 0 3-3V15l2.88 2.16a1.2 1.2 0 0 0 1.92-.96V7.8a1.2 1.2 0 0 0-1.92-.96L16.8 9V7.8a3 3 0 0 0-3-3zm11.4 5.7 3.6-2.7v8.4l-3.6-2.7zM1.2 15a3 3 0 0 1 3-3H9a3 3 0 0 1 3 3v4.8a3 3 0 0 1-3 3H4.2a3 3 0 0 1-3-3zm4.824.04a.54.54 0 0 0-.537-.044.6.6 0 0 0-.186.13.611.611 0 0 0-.174.429v3.69q0 .12.046.232.048.111.128.197.082.082.19.133a.54.54 0 0 0 .387.022.6.6 0 0 0 .155-.076l2.756-1.88a.56.56 0 0 0 .195-.222.64.64 0 0 0 .07-.292.6.6 0 0 0-.073-.293.6.6 0 0 0-.201-.219z"/><path fill="#04071E" fill-rule="evenodd" d="M2.25 7.8A3.15 3.15 0 0 1 5.4 4.65h8.4a3.15 3.15 0 0 1 3.15 3.15v.9l2.64-1.98c.89-.668 2.16-.033 2.16 1.08v8.4c0 1.112-1.27 1.747-2.16 1.08l-2.64-1.98v.9a3.15 3.15 0 0 1-3.15 3.15h-.75v-1.5h.75a1.65 1.65 0 0 0 1.65-1.65V7.8a1.65 1.65 0 0 0-1.65-1.65H5.4A1.65 1.65 0 0 0 3.75 7.8v3.173l-.129.018a4 4 0 0 0-1.157.349l-.214.101zM5.4 4.95A2.85 2.85 0 0 0 2.55 7.8v3.174q.43-.177.9-.26V7.8A1.95 1.95 0 0 1 5.4 5.85h8.4a1.95 1.95 0 0 1 1.95 1.95v8.4a1.95 1.95 0 0 1-1.95 1.95h-.45v.9h.45a2.85 2.85 0 0 0 2.85-2.85v-1.5l3.12 2.34a1.05 1.05 0 0 0 1.68-.84V7.8a1.05 1.05 0 0 0-1.68-.84L16.65 9.3V7.8a2.85 2.85 0 0 0-2.85-2.85zM20.55 7.5v9l-3.9-2.925v-3.15zm-3.6 3.075v2.85l3.3 2.475V8.1zM4.2 12.15A2.85 2.85 0 0 0 1.35 15v4.8a2.85 2.85 0 0 0 2.85 2.85H9a2.85 2.85 0 0 0 2.85-2.85V15A2.85 2.85 0 0 0 9 12.15zM1.05 15a3.15 3.15 0 0 1 3.15-3.15H9A3.15 3.15 0 0 1 12.15 15v4.8A3.15 3.15 0 0 1 9 22.95H4.2a3.15 3.15 0 0 1-3.15-3.15zm4.374-.14a.692.692 0 0 1 .683.056l2.754 1.805a.74.74 0 0 1 .252.274.75.75 0 0 1 .091.364q0 .188-.086.36a.7.7 0 0 1-.246.279l-2.756 1.88a.8.8 0 0 1-.192.094.692.692 0 0 1-.495-.028l-.003-.002a.8.8 0 0 1-.231-.163l-.004-.003a.9.9 0 0 1-.156-.239l-.001-.003a.8.8 0 0 1-.057-.29v-3.689q0-.153.057-.292l.001-.003a.8.8 0 0 1 .158-.237.7.7 0 0 1 .231-.163m.289.235a.4.4 0 0 0-.161.037l-.004.001a.4.4 0 0 0-.139.097.461.461 0 0 0-.132.325v3.69q0 .09.034.173a.6.6 0 0 0 .098.152q.063.061.144.1a.4.4 0 0 0 .277.017h.002a.5.5 0 0 0 .118-.059l2.756-1.88a.4.4 0 0 0 .144-.165.5.5 0 0 0 .054-.224.45.45 0 0 0-.054-.22l-.001-.002a.44.44 0 0 0-.15-.163l-.002-.001-2.757-1.808a.4.4 0 0 0-.227-.07" clip-rule="evenodd"/></svg>