<svg xmlns="http://www.w3.org/2000/svg" width="24" height="24" fill="none"><path fill="#04071E" d="M5.4 4.8a3 3 0 0 0-3 3v4.509q.554-.459 1.2-.79V7.8A1.8 1.8 0 0 1 5.4 6h8.4a1.8 1.8 0 0 1 1.8 1.8v8.4a1.8 1.8 0 0 1-1.8 1.8h-.627a6.6 6.6 0 0 1-.221 1.2h.848a3 3 0 0 0 3-3V15l2.88 2.16a1.2 1.2 0 0 0 1.92-.96V7.8a1.2 1.2 0 0 0-1.92-.96L16.8 9V7.8a3 3 0 0 0-3-3zm11.4 5.7 3.6-2.7v8.4l-3.6-2.7zM1.2 17.4a5.4 5.4 0 1 0 10.8 0 5.4 5.4 0 0 0-10.8 0M9 13.8a.6.6 0 0 1 .6.6v1.8a.6.6 0 0 1-.6.6H7.2a.6.6 0 1 1 0-1.2h.562a2.4 2.4 0 0 0-1.12-.3 2.4 2.4 0 0 0-1.74.703.6.6 0 1 1-.848-.849 3.6 3.6 0 0 1 4.346-.572V14.4a.6.6 0 0 1 .6-.6m-1.051 6.638a3.6 3.6 0 0 1-3.149-.22v.182a.6.6 0 1 1-1.2 0v-1.8a.6.6 0 0 1 .6-.6H6a.6.6 0 1 1 0 1.2h-.562a2.4 2.4 0 0 0 1.12.3 2.4 2.4 0 0 0 1.74-.703.6.6 0 1 1 .848.848 3.6 3.6 0 0 1-1.197.793"/><path fill="#04071E" fill-rule="evenodd" d="M2.25 7.8A3.15 3.15 0 0 1 5.4 4.65h8.4a3.15 3.15 0 0 1 3.15 3.15v.9l2.64-1.98c.89-.668 2.16-.033 2.16 1.08v8.4c0 1.112-1.27 1.747-2.16 1.08l-2.64-1.98v.9a3.15 3.15 0 0 1-3.15 3.15h-1.047l.054-.19q.161-.568.217-1.174l.012-.136h.764a1.65 1.65 0 0 0 1.65-1.65V7.8a1.65 1.65 0 0 0-1.65-1.65H5.4A1.65 1.65 0 0 0 3.75 7.8v3.811l-.082.042a6.5 6.5 0 0 0-1.172.771l-.246.203zM5.4 4.95A2.85 2.85 0 0 0 2.55 7.8V12q.426-.32.9-.572V7.8A1.95 1.95 0 0 1 5.4 5.85h8.4a1.95 1.95 0 0 1 1.95 1.95v8.4a1.95 1.95 0 0 1-1.95 1.95h-.491a7 7 0 0 1-.162.9h.653a2.85 2.85 0 0 0 2.85-2.85v-1.5l3.12 2.34a1.05 1.05 0 0 0 1.68-.84V7.8a1.05 1.05 0 0 0-1.68-.84L16.65 9.3V7.8a2.85 2.85 0 0 0-2.85-2.85zM20.55 7.5v9l-3.9-2.925v-3.15zm-3.6 3.075v2.85l3.3 2.475V8.1zM1.05 17.4a5.55 5.55 0 1 1 11.1 0 5.55 5.55 0 0 1-11.1 0m5.55-5.25a5.25 5.25 0 1 0 0 10.5 5.25 5.25 0 0 0 0-10.5m2.4 1.8a.45.45 0 0 0-.45.45v.442l-.225-.13a3.45 3.45 0 0 0-4.165.548.45.45 0 0 0 .637.637 2.55 2.55 0 0 1 3.038-.428l.508.28H7.2a.45.45 0 0 0 0 .9H9a.45.45 0 0 0 .45-.45v-1.8a.45.45 0 0 0-.45-.45m-.747.384a.75.75 0 0 1 1.497.066v1.8a.75.75 0 0 1-.75.75H7.2a.75.75 0 0 1-.219-1.468 2.26 2.26 0 0 0-1.972.627.75.75 0 0 1-1.06-1.06 3.75 3.75 0 0 1 4.304-.715M4.2 18.15a.45.45 0 0 0-.45.45v1.8a.45.45 0 0 0 .9 0v-.442l.225.13a3.45 3.45 0 0 0 4.165-.549.45.45 0 1 0-.637-.636 2.55 2.55 0 0 1-3.037.428l.072-.281H6a.45.45 0 0 0 0-.9zm-.75.45a.75.75 0 0 1 .75-.75H6a.75.75 0 0 1 .22 1.467 2.26 2.26 0 0 0 1.971-.626.75.75 0 1 1 1.06 1.06 3.75 3.75 0 0 1-4.304.715.75.75 0 0 1-1.497-.066z" clip-rule="evenodd"/></svg>