<svg xmlns="http://www.w3.org/2000/svg" width="24" height="24" fill="none"><path fill="#04071E" d="M2.22 2.22a.75.75 0 0 1 1.06 0l18.5 18.5a.75.75 0 0 1-1.06 1.06L18.938 20H4.25A2.25 2.25 0 0 1 2 17.751v-6.207q.095.111.21.2a1.38 1.38 0 0 0 1.29.143v5.861a.75.75 0 0 0 .75.75h2.749v-2.753a1.75 1.75 0 0 1 1.607-1.743l.143-.006h4.186l-1-1a3 3 0 0 1-2.934-2.934L2.22 3.28a.75.75 0 0 1 0-1.06M15.49 16.55l-1.056-1.056h-5.69a.25.25 0 0 0-.243.193l-.007.057v2.749h7zm-3.78-8.024-1.157-1.156a3 3 0 0 1 4.074 4.075l-1.156-1.156a1.5 1.5 0 0 0-.41-1.352 1.5 1.5 0 0 0-1.352-.41m8.786 8.787V6.25a.75.75 0 0 0-.75-.75H8.681L7.182 4h12.564A2.25 2.25 0 0 1 22 6.249v11.502c0 .307-.063.608-.182.886zM2.661 10.756l-.3-.917a1.9 1.9 0 0 0-.456-.739 1.9 1.9 0 0 0-.742-.459l-.919-.3a.364.364 0 0 1-.175-.55.36.36 0 0 1 .175-.133l.919-.3a1.89 1.89 0 0 0 1.173-1.175l.007-.022.3-.918a.364.364 0 0 1 .551-.175.36.36 0 0 1 .133.175l.3.917a1.88 1.88 0 0 0 1.198 1.198l.919.3h.018c.07.025.132.07.176.132a.37.37 0 0 1 0 .419.38.38 0 0 1-.176.133l-.918.3a1.89 1.89 0 0 0-1.2 1.197l-.3.916-.007.023a.4.4 0 0 1-.124.153.37.37 0 0 1-.419 0 .36.36 0 0 1-.133-.175m2.766.617-.535.174a.213.213 0 0 0-.1.32.2.2 0 0 0 .1.078l.535.174a1.1 1.1 0 0 1 .7.702l.174.534a.212.212 0 0 0 .32.1.2.2 0 0 0 .079-.1l.174-.534a1.1 1.1 0 0 1 .699-.7l.536-.173a.21.21 0 0 0 .139-.199.21.21 0 0 0-.141-.2h-.011l-.535-.174a1.099 1.099 0 0 1-.7-.699l-.174-.535a.22.22 0 0 0-.077-.102.22.22 0 0 0-.201-.024l-.044.024a.2.2 0 0 0-.077.1l-.174.536q-.038.119-.1.226-.068.109-.158.2c-.12.123-.267.216-.43.272"/></svg>