<svg xmlns="http://www.w3.org/2000/svg" width="24" height="24" fill="none"><path fill="#04071E" d="M7.2 13.2a1.2 1.2 0 1 0 0-2.4 1.2 1.2 0 0 0 0 2.4M3.424 2.576a.6.6 0 1 0-.848.848l1.421 1.422A2.04 2.04 0 0 0 2.4 6.837v10.326a2.04 2.04 0 0 0 2.363 2.012 45.4 45.4 0 0 1 13.404-.16l2.409 2.41a.6.6 0 0 0 .848-.85l-1.421-1.421-7.349-7.348-1.66-1.66-3.788-3.788-1.373-1.374zM15.6 16.448v1.086q-.6-.045-1.2-.077v-2.209zM12.351 13.2H10.8a1.2 1.2 0 0 0-1.2 1.2v3.057q-.6.03-1.2.077V14.4H6a1.2 1.2 0 0 0-1.2 1.2v2.354l-.228.037a.84.84 0 0 1-.972-.828V6.837c0-.516.462-.91.972-.828q.348.057.696.107zm4.594 1.2 2.255 2.254V15.6a1.2 1.2 0 0 0-1.2-1.2zm3.278 3.278.852.851c.325-.36.525-.836.525-1.366V6.837a2.04 2.04 0 0 0-2.363-2.012c-3.801.613-7.66.74-11.486.38l1.306 1.307c3.46.219 6.939.051 10.37-.503a.84.84 0 0 1 .973.828v10.326a.83.83 0 0 1-.177.515M16.8 13.2a1.2 1.2 0 1 0 0-2.4 1.2 1.2 0 0 0 0 2.4"/><path fill="#04071E" fill-rule="evenodd" d="M3.53 2.47 5.94 4.878l-.043.043M3.53 2.47a.75.75 0 0 0-1.06 1.06L3.71 4.772A2.19 2.19 0 0 0 2.25 6.837v10.326a2.19 2.19 0 0 0 2.537 2.16 45.3 45.3 0 0 1 13.31-.165M3.318 2.682a.45.45 0 0 0-.636.636l1.615 1.615-.267.06a1.89 1.89 0 0 0-1.48 1.844v10.326a1.89 1.89 0 0 0 2.19 1.864 45.6 45.6 0 0 1 13.448-.16l.05.007 2.444 2.444a.45.45 0 0 0 .636-.636L7.1 6.464zm15.895 1.995a2.19 2.19 0 0 1 2.537 2.16v10.326c0 .569-.215 1.081-.564 1.467l-.106.117-1.056-1.057.081-.105a.7.7 0 0 0 .145-.422V6.837a.69.69 0 0 0-.798-.68 46.8 46.8 0 0 1-10.404.505l-.057-.004-1.64-1.64.414.038c3.813.358 7.66.232 11.448-.38m2.237 2.16a1.89 1.89 0 0 0-2.19-1.864 45.6 45.6 0 0 1-11.11.419l.973.974c3.43.212 6.879.044 10.28-.505a.99.99 0 0 1 1.147.976v10.326a1 1 0 0 1-.133.496l.647.648c.241-.316.386-.71.386-1.144zm-16.902-.68a.69.69 0 0 0-.798.68v10.326c0 .424.38.747.798.68l.102-.017V15.6c0-.746.604-1.35 1.35-1.35h2.55v3.123q.45-.034.9-.058V14.4c0-.746.604-1.35 1.35-1.35h1.19L5.196 6.257a47 47 0 0 1-.649-.1m-1.098.68a.99.99 0 0 1 1.146-.976q.346.057.693.107l.05.007 7.374 7.375H10.8c-.58 0-1.05.47-1.05 1.05v3.2l-.142.007q-.6.03-1.196.077l-.162.012V14.55H6c-.58 0-1.05.47-1.05 1.05v2.483l-.127.02-.227.036a.99.99 0 0 1-1.146-.976zm3.756-.479.002-.002zM5.85 12a1.35 1.35 0 1 1 2.7 0 1.35 1.35 0 0 1-2.7 0m1.35-1.05a1.05 1.05 0 1 0 0 2.1 1.05 1.05 0 0 0 0-2.1M15.45 12a1.35 1.35 0 1 1 2.7 0 1.35 1.35 0 0 1-2.7 0m1.35-1.05a1.05 1.05 0 1 0 0 2.1 1.05 1.05 0 0 0 0-2.1m-.217 3.3H18c.746 0 1.35.604 1.35 1.35v1.417zm.724.3 1.743 1.742V15.6c0-.58-.47-1.05-1.05-1.05zm-3.057.336 1.5 1.5v1.31l-.162-.012a46 46 0 0 0-1.196-.077l-.142-.008zm.3.725v1.704q.45.024.9.058v-.862z" clip-rule="evenodd"/></svg>