<svg xmlns="http://www.w3.org/2000/svg" width="24" height="24" fill="none"><path fill="#04071E" d="M4.5 5.625A3.375 3.375 0 0 1 7.877 2.25h11.25A3.375 3.375 0 0 1 22.5 5.625v7.5a3.375 3.375 0 0 1-3.375 3.375h-4.732c-.45-.987-1.407-1.627-2.394-1.816V13.5a2.25 2.25 0 0 1 2.25-2.25H18a2.25 2.25 0 0 1 2.25 2.25v1.126c.456-.342.75-.887.75-1.501v-7.5c0-1.036-.839-1.875-1.874-1.875H7.876C6.84 3.75 6 4.59 6 5.625v.235a4.9 4.9 0 0 0-1.5.797zM18 12.75h-3.75a.75.75 0 0 0-.75.75V15h5.25v-1.5a.75.75 0 0 0-.75-.75m-4.939 3.75c.317.364.507.845.47 1.405-.1 1.555-.688 2.76-1.802 3.546-1.074.758-2.533 1.049-4.229 1.049-1.686 0-3.117-.288-4.175-1.04-1.093-.777-1.67-1.964-1.812-3.486-.122-1.312 1-2.224 2.141-2.224h7.739q.117 0 .235.013c.547.06 1.072.323 1.433.737m-9.407.75c-.438 0-.672.323-.648.584.112 1.203.535 1.94 1.188 2.404.689.49 1.752.762 3.306.762 1.564 0 2.657-.276 3.364-.775.668-.47 1.092-1.212 1.17-2.417.017-.25-.212-.558-.641-.558zM18.75 7.875a2.625 2.625 0 1 1-5.25 0 2.625 2.625 0 0 1 5.25 0m-1.5 0a1.125 1.125 0 1 0-2.25 0 1.125 1.125 0 0 0 2.25 0m-6 2.625a3.75 3.75 0 1 1-7.5 0 3.75 3.75 0 0 1 7.5 0m-1.5 0a2.25 2.25 0 1 0-4.5 0 2.25 2.25 0 0 0 4.5 0"/></svg>