<svg xmlns="http://www.w3.org/2000/svg" width="24" height="24" fill="none"><path fill="#04071E" d="M5.856 8.19a.6.6 0 1 0-.912-.78l-3.6 4.2a.6.6 0 0 0 0 .78l3.6 4.2a.6.6 0 0 0 .912-.78L2.59 12zm15.694 5.06a3 3 0 0 0-.37-.982l.23-.268-3.265-3.81a.6.6 0 0 1 .91-.78l3.6 4.2a.6.6 0 0 1 0 .78l-.8.934q-.15-.045-.305-.074M8.4 12A1.2 1.2 0 1 1 6 12a1.2 1.2 0 0 1 2.4 0m3.6 1.2a1.2 1.2 0 1 0 0-2.4 1.2 1.2 0 0 0 0 2.4m2.4 1.2v-.6a1.8 1.8 0 0 1 1.8-1.8h2.4a1.8 1.8 0 0 1 1.8 1.8v.6h.6a1.8 1.8 0 0 1 1.8 1.8V18h-2.4v-.6a.6.6 0 1 0-1.2 0v.6h-3.6v-.6a.6.6 0 1 0-1.2 0v.6H12v-1.8a1.8 1.8 0 0 1 1.8-1.8zm1.2-.6v.6h3.6v-.6a.6.6 0 0 0-.6-.6h-2.4a.6.6 0 0 0-.6.6m4.8 5.4h2.4V21a1.8 1.8 0 0 1-1.8 1.8h-7.2A1.8 1.8 0 0 1 12 21v-1.8h2.4v.6a.6.6 0 0 0 1.2 0v-.6h3.6v.6a.6.6 0 0 0 1.2 0z"/><path fill="#04071E" fill-rule="evenodd" d="M4.83 7.312a.75.75 0 0 1 1.14.976L2.787 12l3.181 3.712a.75.75 0 0 1-1.138.976l-3.6-4.2a.75.75 0 0 1 0-.976zm.863.146a.45.45 0 0 0-.635.049l-3.6 4.2a.45.45 0 0 0 0 .586l3.6 4.2a.45.45 0 0 0 .684-.586L2.392 12l3.35-3.907a.45.45 0 0 0-.05-.635m13.249.049a.45.45 0 1 0-.684.586L21.608 12l-.245.285q.215.39.314.838l.127.03.738-.86a.45.45 0 0 0 0-.586zm-.83-.277a.75.75 0 0 1 1.058.082l3.6 4.2a.75.75 0 0 1 0 .976l-.864 1.007-.093-.028a3 3 0 0 0-.29-.07l-.102-.018-.019-.102a2.8 2.8 0 0 0-.35-.932l-.056-.093.216-.252-3.181-3.712a.75.75 0 0 1 .081-1.058M7.2 10.95a1.05 1.05 0 1 0 0 2.1 1.05 1.05 0 0 0 0-2.1M5.85 12a1.35 1.35 0 1 1 2.7 0 1.35 1.35 0 0 1-2.7 0m4.8 0a1.35 1.35 0 1 1 2.7 0 1.35 1.35 0 0 1-2.7 0M12 10.95a1.05 1.05 0 1 0 0 2.1 1.05 1.05 0 0 0 0-2.1m4.2 1.2a1.65 1.65 0 0 0-1.65 1.65v.75h-.75a1.65 1.65 0 0 0-1.65 1.65v1.65h2.1v-.45a.75.75 0 0 1 1.5 0v.45h3.3v-.45a.75.75 0 0 1 1.5 0v.45h2.1V16.2A1.65 1.65 0 0 0 21 14.55h-.75v-.75a1.65 1.65 0 0 0-1.65-1.65zm-1.95 1.65a1.95 1.95 0 0 1 1.95-1.95h2.4a1.95 1.95 0 0 1 1.95 1.95v.45H21a1.95 1.95 0 0 1 1.95 1.95v1.95h-2.7v-.75a.45.45 0 1 0-.9 0v.75h-3.9v-.75a.45.45 0 1 0-.9 0v.75h-2.7V16.2a1.95 1.95 0 0 1 1.95-1.95h.45zm1.2 0a.75.75 0 0 1 .75-.75h2.4a.75.75 0 0 1 .75.75v.75h-3.9zm.75-.45a.45.45 0 0 0-.45.45v.45h3.3v-.45a.45.45 0 0 0-.45-.45zm-4.35 5.7h2.7v.75a.45.45 0 0 0 .9 0v-.75h3.9v.75a.45.45 0 0 0 .9 0v-.75h2.7V21A1.95 1.95 0 0 1 21 22.95h-7.2A1.95 1.95 0 0 1 11.85 21zm.3.3V21c0 .911.739 1.65 1.65 1.65H21A1.65 1.65 0 0 0 22.65 21v-1.65h-2.1v.45a.75.75 0 1 1-1.5 0v-.45h-3.3v.45a.75.75 0 1 1-1.5 0v-.45z" clip-rule="evenodd"/></svg>