<svg xmlns="http://www.w3.org/2000/svg" width="24" height="24" fill="none"><path fill="#04071E" d="M5.79 7.344a.6.6 0 0 1 .066.846L2.59 12l3.266 3.81a.6.6 0 0 1-.912.78l-3.6-4.2a.6.6 0 0 1 0-.78l3.6-4.2a.6.6 0 0 1 .847-.066m12.355 8.465a.6.6 0 0 0 .91.781l3.6-4.2a.6.6 0 0 0 0-.78l-3.6-4.2a.6.6 0 1 0-.91.78L21.41 12zM7.2 13.2a1.2 1.2 0 1 0 0-2.4 1.2 1.2 0 0 0 0 2.4m6-1.2a1.2 1.2 0 1 1-2.4 0 1.2 1.2 0 0 1 2.4 0m3.6 1.2a1.2 1.2 0 1 0 0-2.4 1.2 1.2 0 0 0 0 2.4"/><path fill="#04071E" fill-rule="evenodd" d="M5.693 7.458a.45.45 0 0 0-.635.049l-3.6 4.2a.45.45 0 0 0 0 .586l3.6 4.2a.45.45 0 0 0 .684-.586L2.392 12l3.35-3.907a.45.45 0 0 0-.05-.635m-.862-.146a.75.75 0 0 1 1.138.976L2.788 12l3.181 3.712a.75.75 0 0 1-1.138.976l-3.6-4.2a.75.75 0 0 1 0-.976zm13.281-.082a.75.75 0 0 1 1.058.082l3.6 4.2a.75.75 0 0 1 0 .976l-3.6 4.2a.75.75 0 0 1-1.14-.976L21.213 12l-3.181-3.712a.75.75 0 0 1 .081-1.058m.83.277a.45.45 0 1 0-.684.586L21.608 12l-3.35 3.907a.45.45 0 0 0 .684.586l3.6-4.2a.45.45 0 0 0 0-.586zM5.85 12a1.35 1.35 0 1 1 2.7 0 1.35 1.35 0 0 1-2.7 0m1.35-1.05a1.05 1.05 0 1 0 0 2.1 1.05 1.05 0 0 0 0-2.1m4.8 0a1.05 1.05 0 1 0 0 2.1 1.05 1.05 0 0 0 0-2.1M10.65 12a1.35 1.35 0 1 1 2.7 0 1.35 1.35 0 0 1-2.7 0m4.8 0a1.35 1.35 0 1 1 2.7 0 1.35 1.35 0 0 1-2.7 0m1.35-1.05a1.05 1.05 0 1 0 0 2.1 1.05 1.05 0 0 0 0-2.1" clip-rule="evenodd"/></svg>