<svg xmlns="http://www.w3.org/2000/svg" width="24" height="24" fill="none"><path fill="#04071E" d="M20.4 11.52V7.2A1.2 1.2 0 0 0 19.2 6H4.8a1.2 1.2 0 0 0-1.2 1.2v9.6A1.2 1.2 0 0 0 4.8 18h6.027q.056.619.221 1.2H4.8a2.4 2.4 0 0 1-2.4-2.4V7.2a2.4 2.4 0 0 1 2.4-2.4h14.4a2.4 2.4 0 0 1 2.4 2.4v5.109a6.6 6.6 0 0 0-1.2-.79m-9.6.48a2.4 2.4 0 0 0-.321-1.2h3.042a2.4 2.4 0 0 0-.303 1.494 6.6 6.6 0 0 1 1.313-.84 1.2 1.2 0 0 1 1.597-.532 6.6 6.6 0 0 1 1.554-.116A2.4 2.4 0 0 0 15.6 9.6H8.4a2.4 2.4 0 1 0 2.4 2.4m-2.4 1.2a1.2 1.2 0 1 1 0-2.4 1.2 1.2 0 0 1 0 2.4m14.4 4.2a5.4 5.4 0 1 1-10.8 0 5.4 5.4 0 0 1 10.8 0m-8.4 0a.6.6 0 0 0 .6.6h4.8a.6.6 0 1 0 0-1.2H15a.6.6 0 0 0-.6.6"/><path fill="#04071E" fill-rule="evenodd" d="M4.8 4.95A2.25 2.25 0 0 0 2.55 7.2v9.6a2.25 2.25 0 0 0 2.25 2.25h6.053a7 7 0 0 1-.162-.9H4.8a1.35 1.35 0 0 1-1.35-1.35V7.2c0-.746.604-1.35 1.35-1.35h14.4c.746 0 1.35.604 1.35 1.35v4.228q.474.251.9.571V7.2a2.25 2.25 0 0 0-2.25-2.25zM2.25 7.2A2.55 2.55 0 0 1 4.8 4.65h14.4a2.55 2.55 0 0 1 2.55 2.55v5.427l-.245-.203a6.5 6.5 0 0 0-1.173-.77l-.082-.043V7.2c0-.58-.47-1.05-1.05-1.05H4.8c-.58 0-1.05.47-1.05 1.05v9.6c0 .58.47 1.05 1.05 1.05h6.164l.012.136q.056.605.217 1.173l.054.19H4.8a2.55 2.55 0 0 1-2.55-2.55zm3.6 4.8A2.55 2.55 0 0 1 8.4 9.45h7.2a2.55 2.55 0 0 1 2.212 1.281l.136.236-.272-.011a6.48 6.48 0 0 0-1.519.114l-.05.01-.045-.023a1.05 1.05 0 0 0-1.398.466l-.022.045-.046.022c-.46.222-.891.498-1.283.82l-.211.173-.033-.271a2.57 2.57 0 0 1 .207-1.362h-2.552A2.55 2.55 0 1 1 5.85 12M8.4 9.75a2.25 2.25 0 1 0 1.95 1.125l-.131-.225h3.562l-.13.225c-.191.33-.3.714-.301 1.124a6.8 6.8 0 0 1 1.072-.658 1.35 1.35 0 0 1 1.726-.575 7 7 0 0 1 1.252-.116 2.25 2.25 0 0 0-1.8-.9zm0 1.2a1.05 1.05 0 1 0 0 2.1 1.05 1.05 0 0 0 0-2.1M7.05 12a1.35 1.35 0 1 1 2.7 0 1.35 1.35 0 0 1-2.7 0m10.35.15a5.25 5.25 0 1 0 0 10.5 5.25 5.25 0 0 0 0-10.5m-5.55 5.25a5.55 5.55 0 1 1 11.1 0 5.55 5.55 0 0 1-11.1 0m2.4 0a.75.75 0 0 1 .75-.75h4.8a.75.75 0 0 1 0 1.5H15a.75.75 0 0 1-.75-.75m.75-.45a.45.45 0 0 0 0 .9h4.8a.45.45 0 0 0 0-.9z" clip-rule="evenodd"/></svg>