<svg xmlns="http://www.w3.org/2000/svg" width="24" height="24" fill="none"><path fill="#04071E" d="M10.479 10.8A2.4 2.4 0 1 1 8.4 9.6h7.2a2.4 2.4 0 0 1 2.082 1.206 6.8 6.8 0 0 0-1.553.117 1.2 1.2 0 0 0-1.598.532 6.6 6.6 0 0 0-1.313.84 2.4 2.4 0 0 1 .303-1.495zM7.2 12a1.2 1.2 0 1 0 2.4 0 1.2 1.2 0 0 0-2.4 0m13.2-4.8v4.32q.647.33 1.2.789V7.2a2.4 2.4 0 0 0-2.4-2.4H4.8a2.4 2.4 0 0 0-2.4 2.4v9.6a2.4 2.4 0 0 0 2.4 2.4h6.249a6.6 6.6 0 0 1-.222-1.2H4.8a1.2 1.2 0 0 1-1.2-1.2V7.2A1.2 1.2 0 0 1 4.8 6h14.4a1.2 1.2 0 0 1 1.2 1.2M12 17.4a5.4 5.4 0 1 0 10.8 0 5.4 5.4 0 0 0-10.8 0m6.476-3.124a.6.6 0 0 1 .848 0l2.1 2.1a.6.6 0 0 1 .003.846l-2.103 2.102a.6.6 0 1 1-.848-.848l1.076-1.076H17.7a2.1 2.1 0 0 0-2.1 2.1v.3a.6.6 0 1 1-1.2 0v-.3a3.3 3.3 0 0 1 3.3-3.3h1.852l-1.076-1.075a.6.6 0 0 1 0-.85"/><path fill="#04071E" fill-rule="evenodd" d="M13.206 12.175a2.39 2.39 0 0 1 .315-1.374H10.48q.028.048.055.1A2.4 2.4 0 1 1 8.4 9.6h7.2a2.4 2.4 0 0 1 2.082 1.205 8 8 0 0 0-.282-.006q-.654 0-1.271.123a1.2 1.2 0 0 0-1.598.532 6.6 6.6 0 0 0-1.313.84zm-2.56-1.275A2.5 2.5 0 1 1 8.4 9.5h7.2a2.5 2.5 0 0 1 2.17 1.256l.09.158-.182-.008a6.531 6.531 0 0 0-1.53.115l-.033.006-.03-.015a1.1 1.1 0 0 0-1.465.488l-.015.03-.03.015a6.5 6.5 0 0 0-1.294.826l-.14.116-.022-.18a2.49 2.49 0 0 1 .236-1.406zm9.654.681v-4.38a1.1 1.1 0 0 0-1.1-1.1H4.8a1.1 1.1 0 0 0-1.1 1.1v9.6a1.1 1.1 0 0 0 1.1 1.1h6.118l.009.09q.055.61.218 1.182l.036.127H4.8a2.5 2.5 0 0 1-2.501-2.5V7.2a2.5 2.5 0 0 1 2.5-2.5h14.4a2.5 2.5 0 0 1 2.5 2.5v5.321l-.164-.135q-.546-.451-1.181-.777zm1.162 5.028a.5.5 0 0 0-.108-.162l-2.1-2.1a.5.5 0 0 0-.707.707l1.246 1.246H17.7a3.2 3.2 0 0 0-3.2 3.2v.3a.5.5 0 0 0 1 0v-.3a2.2 2.2 0 0 1 2.2-2.2h2.093l-1.246 1.247a.5.5 0 1 0 .707.707l2.102-2.102a.5.5 0 0 0 .106-.543m-.035.613-2.103 2.102a.6.6 0 1 1-.848-.848l1.076-1.076H17.7a2.1 2.1 0 0 0-2.1 2.1v.3a.6.6 0 1 1-1.2 0v-.3a3.3 3.3 0 0 1 3.3-3.3h1.852l-1.076-1.075a.6.6 0 0 1 .848-.85l2.1 2.1a.6.6 0 0 1 .003.847M7.3 12a1.1 1.1 0 1 0 2.2 0 1.1 1.1 0 0 0-2.2 0m14.3-4.8a2.4 2.4 0 0 0-2.4-2.4H4.8a2.4 2.4 0 0 0-2.4 2.4v9.6a2.4 2.4 0 0 0 2.4 2.4h6.249l-.028-.1a6.6 6.6 0 0 1-.194-1.1H4.8a1.2 1.2 0 0 1-1.2-1.2V7.2A1.2 1.2 0 0 1 4.8 6h14.4a1.2 1.2 0 0 1 1.2 1.2v4.32a6.6 6.6 0 0 1 1.2.789zm-4.2 15.7a5.5 5.5 0 1 1 0-11 5.5 5.5 0 0 1 0 11m-9-9.7a1.2 1.2 0 1 1 0-2.4 1.2 1.2 0 0 1 0 2.4m9 9.6a5.4 5.4 0 1 1 0-10.8 5.4 5.4 0 0 1 0 10.8" clip-rule="evenodd"/></svg>