<svg xmlns="http://www.w3.org/2000/svg" width="24" height="24" fill="none"><path fill="#04071E" d="M12.378 2.223c-.684-1.244-2.47-1.244-3.155 0l-7.87 14.31A1.8 1.8 0 0 0 2.93 19.2h9.52a8 8 0 0 1-.307-1.2H2.93a.6.6 0 0 1-.526-.89l7.87-14.309a.6.6 0 0 1 1.052 0l4.482 8.149a5.7 5.7 0 0 0 .939-.784z"/><path fill="#04071E" d="M10.8 7.2a.6.6 0 0 1 .6.6v4.8a.6.6 0 0 1-1.2 0V7.8a.6.6 0 0 1 .6-.6M10.8 16.2a.9.9 0 1 0 0-1.8.9.9 0 0 0 0 1.8M19.2 11.718q.58.438 1.2.699a4.9 4.9 0 0 0 1.92.383c.232 0 .425.172.47.4l.01.1v3.002c0 3.218-1.576 5.406-4.648 6.473a.46.46 0 0 1-.304 0Q16.543 22.32 15.6 21.6a5.777 5.777 0 0 1-1.866-2.4q-.48-1.145-.528-2.58L13.2 16.3v-3c0-.277.215-.5.48-.5 1.468 0 2.788-.612 3.981-1.854a.466.466 0 0 1 .68 0q.418.438.859.77"/><path fill="#04071E" fill-rule="evenodd" d="M12.246 2.295c-.627-1.14-2.264-1.14-2.891 0l-7.87 14.31A1.65 1.65 0 0 0 2.93 19.05h9.314a8 8 0 0 1-.226-.9H2.93a.75.75 0 0 1-.657-1.111l7.87-14.31a.75.75 0 0 1 1.315 0l4.402 8.004q.35-.247.701-.593zM9.092 2.15c.74-1.347 2.676-1.347 3.417 0l4.423 8.042-.078.08q-.476.484-.964.803l-.135.089-4.56-8.29a.45.45 0 0 0-.789 0l-7.87 14.31a.45.45 0 0 0 .394.666h9.34l.021.124q.107.611.302 1.177l.068.2H2.93c-1.483 0-2.423-1.591-1.709-2.89zm.958 5.65a.75.75 0 0 1 1.5 0v4.8a.75.75 0 0 1-1.5 0zm.75-.45a.45.45 0 0 0-.45.45v4.8a.45.45 0 0 0 .9 0V7.8a.45.45 0 0 0-.45-.45m6.753 3.493a.617.617 0 0 1 .896 0q.412.43.841.755.567.428 1.168.68a4.7 4.7 0 0 0 1.862.372c.31 0 .56.228.617.52l.002.008.011.115v3.009c0 1.634-.4 3.018-1.2 4.13s-1.99 1.943-3.549 2.484a.6.6 0 0 1-.402 0q-1.326-.46-2.29-1.197a5.925 5.925 0 0 1-1.913-2.461q-.492-1.174-.54-2.633v-.003l-.006-.32V13.3a.64.64 0 0 1 .63-.65c1.42 0 2.703-.589 3.873-1.807m.68.208a.317.317 0 0 0-.463 0c-1.217 1.266-2.574 1.9-4.09 1.9a.34.34 0 0 0-.33.35v3l.005.315q.049 1.41.517 2.526a5.6 5.6 0 0 0 1.818 2.339q.921.704 2.207 1.152a.3.3 0 0 0 .206 0c1.513-.526 2.647-1.323 3.403-2.376s1.144-2.371 1.144-3.956v-2.994l-.008-.085a.335.335 0 0 0-.322-.272q-.377 0-.741-.052a5 5 0 0 1-1.237-.343 5.7 5.7 0 0 1-1.232-.718q-.451-.341-.878-.786m-7.433 3.5a.75.75 0 1 0 0 1.5.75.75 0 0 0 0-1.5m-1.05.75a1.05 1.05 0 1 1 2.1 0 1.05 1.05 0 0 1-2.1 0" clip-rule="evenodd"/></svg>