<svg xmlns="http://www.w3.org/2000/svg" width="24" height="24" fill="none"><path fill="#04071E" d="M10.75 20a.75.75 0 1 1 0 1.5.75.75 0 0 1 0-1.5m4.5 0a.75.75 0 1 1 0 1.5.75.75 0 0 1 0-1.5M8.5 19a.75.75 0 1 1 0 1.5.75.75 0 0 1 0-1.5m4.5 0a.75.75 0 1 1 0 1.5.75.75 0 0 1 0-1.5m4.5 0a.75.75 0 1 1 0 1.5.75.75 0 0 1 0-1.5M13.002 6.01c3.169 0 4.966 2.098 5.228 4.63h.08a3.687 3.687 0 0 1 3.692 3.683 3.687 3.687 0 0 1-3.692 3.683H7.695a3.687 3.687 0 0 1-3.692-3.683 3.687 3.687 0 0 1 3.692-3.683h.08c.263-2.549 2.059-4.63 5.227-4.63m0 1.498c-2.071 0-3.877 1.633-3.877 3.89 0 .357-.319.637-.684.637h-.69c-1.261 0-2.283 1.001-2.283 2.236s1.022 2.237 2.283 2.237h10.503c1.26 0 2.283-1.001 2.283-2.236s-1.022-2.237-2.283-2.237h-.691c-.365 0-.684-.28-.684-.638 0-2.285-1.806-3.889-3.877-3.889m-8.634 2.658a.75.75 0 0 1-.315.934l-.091.046-.926.383a.75.75 0 0 1-.666-1.34l.092-.045.926-.384a.75.75 0 0 1 .98.406m6.487-4.833-.172.057a5.8 5.8 0 0 0-1.46.758A2.442 2.442 0 0 0 6.43 9.815a4.6 4.6 0 0 0-1.366.64 3.942 3.942 0 0 1 5.791-5.122m-7.914.03.106.036.926.383a.75.75 0 0 1-.469 1.421L3.4 7.168l-.926-.384a.75.75 0 0 1 .468-1.42m3.815-2.986.046.092.383.926a.75.75 0 0 1-1.34.665l-.046-.091-.383-.926a.75.75 0 0 1 1.34-.666m4.354-.318a.75.75 0 0 1 .44.874l-.035.106-.383.926a.75.75 0 0 1-1.42-.469l.034-.105.384-.926a.75.75 0 0 1 .98-.406"/></svg>