<svg xmlns="http://www.w3.org/2000/svg" width="24" height="24" fill="none"><path fill="#04071E" d="M21.557 9.817a12 12 0 0 0-1.36-1.639c-4.504-4.504-11.807-4.504-16.311 0-.472.472-.93 1.032-1.346 1.632a.6.6 0 1 0 .986.684c.377-.544.79-1.05 1.208-1.467 4.036-4.036 10.579-4.036 14.615 0 .438.438.856.944 1.22 1.471a.6.6 0 0 0 .988-.681M8.619 13.543a4.84 4.84 0 0 1 4.621-1.268q-.576.47-1.035 1.054a3.63 3.63 0 0 0-2.737 1.062c-.315.316-.57.699-.758 1.125a.6.6 0 0 1-1.099-.48 4.9 4.9 0 0 1 1.008-1.493m8.895-2.997q.13.128.25.264a6.7 6.7 0 0 0-1.626.11 6.54 6.54 0 0 0-9.93 2.142.6.6 0 0 1-1.071-.541 7.74 7.74 0 0 1 12.378-1.974m-3.034 3.185a2.4 2.4 0 0 1-1.717 2.973l-.553.141a5.7 5.7 0 0 0 .012 1.22l.42.1a2.4 2.4 0 0 1 1.747 3.022l-.152.507q.464.367 1.002.622l.39-.413a2.4 2.4 0 0 1 3.491.002l.405.43q.527-.245.986-.598l-.187-.668a2.4 2.4 0 0 1 1.717-2.973l.552-.142a5.6 5.6 0 0 0-.012-1.22l-.419-.099a2.4 2.4 0 0 1-1.747-3.022l.151-.507a5.2 5.2 0 0 0-1.001-.622l-.39.413a2.4 2.4 0 0 1-3.491-.002l-.405-.43q-.528.245-.986.597zm2.922 4.869a1.2 1.2 0 1 1 0-2.4 1.2 1.2 0 0 1 0 2.4"/><path fill="#04071E" fill-rule="evenodd" d="M3.78 8.072c4.562-4.563 11.96-4.563 16.523 0 .498.498.968 1.067 1.377 1.66a.75.75 0 0 1-1.234.852 10.6 10.6 0 0 0-1.203-1.451c-3.977-3.977-10.426-3.977-14.403 0-.41.41-.818.909-1.191 1.446a.75.75 0 1 1-1.232-.855c.42-.605.883-1.173 1.363-1.652m16.311.212c-4.446-4.446-11.654-4.446-16.1 0a12 12 0 0 0-1.328 1.611.45.45 0 0 0 .74.513c.38-.55.8-1.062 1.225-1.487 4.094-4.095 10.732-4.095 14.827 0 .445.445.869.958 1.238 1.492a.45.45 0 1 0 .74-.511 12 12 0 0 0-1.342-1.618m-2.685 2.366A7.59 7.59 0 0 0 5.27 12.588a.45.45 0 0 0 .803.407 6.691 6.691 0 0 1 10.104-2.234q.595-.11 1.222-.111zm-10.944-.21a7.89 7.89 0 0 1 11.414.27l.244.27-.364-.02a6.6 6.6 0 0 0-1.59.108l-.068.013-.054-.044A6.39 6.39 0 0 0 6.34 13.13a.75.75 0 1 1-1.338-.677 7.8 7.8 0 0 1 1.46-2.013m6.451 1.917a4.68 4.68 0 0 0-4.188 1.292c-.41.41-.738.903-.976 1.446a.45.45 0 1 0 .824.361c.194-.442.46-.841.789-1.17a3.78 3.78 0 0 1 2.772-1.11q.356-.441.78-.82m-4.4 1.08a4.99 4.99 0 0 1 4.764-1.307l.29.074-.232.188q-.564.458-1.012 1.03l-.048.06-.077-.003a3.48 3.48 0 0 0-2.624 1.018c-.301.301-.546.668-.726 1.08a.75.75 0 0 1-1.374-.602c.252-.576.6-1.1 1.04-1.538m6.801-1.153.479.508a2.25 2.25 0 0 0 3.273.002l.464-.492.099.047q.553.26 1.03.64l.08.062-.18.605a2.25 2.25 0 0 0 1.638 2.833l.52.124.013.104a5.8 5.8 0 0 1 .012 1.252l-.01.105-.654.167a2.25 2.25 0 0 0-1.61 2.788l.215.765-.08.062a5.3 5.3 0 0 1-1.015.614l-.098.046-.48-.508a2.25 2.25 0 0 0-3.272-.002l-.465.492-.098-.047a5.3 5.3 0 0 1-1.03-.639l-.08-.063.18-.605a2.25 2.25 0 0 0-1.638-2.834l-.522-.123-.012-.104a5.8 5.8 0 0 1-.012-1.252l.01-.105.655-.167a2.25 2.25 0 0 0 1.61-2.788l-.215-.766.08-.062a5.3 5.3 0 0 1 1.015-.614zm-.85.837.16.569a2.55 2.55 0 0 1-1.824 3.16l-.45.114a5.5 5.5 0 0 0 .01.98l.316.074a2.55 2.55 0 0 1 1.856 3.212l-.122.409q.374.284.795.494l.315-.333a2.55 2.55 0 0 1 3.71.002l.33.35q.41-.201.779-.473l-.16-.57a2.55 2.55 0 0 1 1.824-3.159l.45-.115a5.5 5.5 0 0 0-.01-.979l-.315-.075a2.55 2.55 0 0 1-1.857-3.211l.122-.408a5 5 0 0 0-.795-.495l-.314.333a2.55 2.55 0 0 1-3.71-.002l-.33-.35a5 5 0 0 0-.78.473m2.938 3.229a1.05 1.05 0 1 0 0 2.1 1.05 1.05 0 0 0 0-2.1m-1.35 1.05a1.35 1.35 0 1 1 2.7 0 1.35 1.35 0 0 1-2.7 0" clip-rule="evenodd"/></svg>