<svg xmlns="http://www.w3.org/2000/svg" width="24" height="24" fill="none"><path fill="#04071E" fill-rule="evenodd" d="M6.25 3A3.25 3.25 0 0 0 3 6.25v11.5A3.25 3.25 0 0 0 6.25 21h5.772a6.5 6.5 0 0 1-.709-1.5H6.25a1.75 1.75 0 0 1-1.75-1.75V8.5h15v2.813a6.5 6.5 0 0 1 1.5.709V6.25A3.25 3.25 0 0 0 17.75 3zM19.5 7h-15v-.75c0-.966.784-1.75 1.75-1.75h11.5c.966 0 1.75.784 1.75 1.75z" clip-rule="evenodd"/><path fill="#04071E" fill-rule="evenodd" d="M17.5 12a5.5 5.5 0 1 1 0 11 5.5 5.5 0 0 1 0-11m-3 5a.5.5 0 0 0 0 1h4.793l-1.647 1.646a.5.5 0 0 0 .708.708l2.5-2.5a.5.5 0 0 0 0-.708l-2.5-2.5a.5.5 0 0 0-.708.708L19.293 17z" clip-rule="evenodd"/></svg>