<svg xmlns="http://www.w3.org/2000/svg" width="24" height="24" fill="none"><path fill="#04071E" d="M7.2 3.6a3.6 3.6 0 0 0-3.6 3.6v9.6a3.6 3.6 0 0 0 3.6 3.6h4.32a6.6 6.6 0 0 1-.472-1.2H7.2a2.4 2.4 0 0 1-2.4-2.4V8.4h14.4v2.648q.628.179 1.2.472V7.2a3.6 3.6 0 0 0-3.6-3.6zM4.8 7.2a2.4 2.4 0 0 1 2.4-2.4h9.6a2.4 2.4 0 0 1 2.4 2.4zm12.102 3.619a.7.7 0 0 0-.162-.019h-5.28a.67.67 0 0 0-.607.367.555.555 0 0 0 .143.65v.005c.126.117.292.18.464.178h2.144a6.56 6.56 0 0 1 3.298-1.181m-10.208.113a1.2 1.2 0 0 0-.094.468q.006.247.094.48c.055.142.141.27.253.373q.17.16.384.253c.148.064.308.095.469.094a1 1 0 0 0 .47-.094q.215-.096.383-.263A1.166 1.166 0 0 0 9 11.4c0-.16-.032-.319-.094-.467a1.1 1.1 0 0 0-.262-.385 1.4 1.4 0 0 0-.384-.254 1.15 1.15 0 0 0-.46-.093 1 1 0 0 0-.47.097 1.219 1.219 0 0 0-.637.635M6.6 16.2c-.001-.16.03-.32.094-.468a1.22 1.22 0 0 1 .637-.637c.146-.069.307-.101.469-.095.158-.001.315.031.46.095q.213.091.384.252c.113.108.203.24.262.385a1.207 1.207 0 0 1-.637 1.574 1 1 0 0 1-.469.094c-.161.002-.321-.03-.47-.094a1.3 1.3 0 0 1-.383-.253 1 1 0 0 1-.253-.374 1.4 1.4 0 0 1-.094-.48m13.8 5.69a5.4 5.4 0 1 1-6-8.98 5.4 5.4 0 0 1 6 8.98m-2.576-7.314A.6.6 0 0 0 16.8 15v1.8H15a.6.6 0 0 0 0 1.2h1.8v1.8a.6.6 0 0 0 1.2 0V18h1.8a.6.6 0 0 0 0-1.2H18V15a.6.6 0 0 0-.176-.424"/><path fill="#04071E" fill-rule="evenodd" d="M11.683 20.5H7.2a3.7 3.7 0 0 1-3.7-3.7V7.2a3.7 3.7 0 0 1 3.7-3.7h9.6a3.7 3.7 0 0 1 3.7 3.7v4.483l-.145-.074a6.5 6.5 0 0 0-1.182-.464l-.073-.02V8.5H4.9v8.3a2.3 2.3 0 0 0 2.3 2.3h3.924l.02.073q.176.619.465 1.182zm7.517-9.452V8.4H4.8v8.4a2.4 2.4 0 0 0 2.4 2.4h3.848a6.6 6.6 0 0 0 .472 1.2H7.2a3.6 3.6 0 0 1-3.6-3.6V7.2a3.6 3.6 0 0 1 3.6-3.6h9.6a3.6 3.6 0 0 1 3.6 3.6v4.32l-.1-.05a6.6 6.6 0 0 0-1.1-.422m-2.275-.327-.016.197a6.46 6.46 0 0 0-3.247 1.164l-.026.018H11.46a.77.77 0 0 1-.533-.204l-.032-.03v-.005a.654.654 0 0 1 .033-.958.77.77 0 0 1 .532-.203h5.278l.001.032v.068h-5.28a.67.67 0 0 0-.607.367.555.555 0 0 0 .143.65v.005c.126.117.292.18.464.178h2.144a6.57 6.57 0 0 1 3.136-1.167q.081-.009.162-.014a.7.7 0 0 0-.162-.019m-10.138.092c.065-.15.158-.287.274-.403q.182-.178.413-.283c.16-.075.335-.111.512-.106.171 0 .341.034.498.102q.23.1.413.272c.124.118.222.261.287.42a1.31 1.31 0 0 1-.275 1.42 1.4 1.4 0 0 1-.413.283c-.16.075-.336.11-.513.103a1.3 1.3 0 0 1-.506-.102 1.4 1.4 0 0 1-.414-.272 1.1 1.1 0 0 1-.278-.41 1.6 1.6 0 0 1-.1-.514v-.001a1.3 1.3 0 0 1 .102-.51m.092.988c.055.142.141.27.253.373q.17.16.384.253c.148.064.308.095.469.094l-.005.1h.006l-.001-.1a1 1 0 0 0 .47-.094q.215-.096.383-.263A1.166 1.166 0 0 0 9 11.4c0-.16-.032-.319-.094-.467a1.1 1.1 0 0 0-.262-.385 1.4 1.4 0 0 0-.384-.254 1.15 1.15 0 0 0-.46-.093 1 1 0 0 0-.47.097 1.219 1.219 0 0 0-.637.635 1.2 1.2 0 0 0-.093.468q.006.247.094.48M6.5 16.202v-.001a1.3 1.3 0 0 1 .102-.508q.099-.23.274-.407v-.001q.182-.177.413-.281c.16-.075.336-.11.513-.104a1.2 1.2 0 0 1 .497.103l-.04.092q.214.091.385.252c.113.108.203.24.262.385a1.207 1.207 0 0 1-.637 1.574 1 1 0 0 1-.469.094c-.161.002-.321-.03-.47-.094a1.3 1.3 0 0 1-.383-.253 1 1 0 0 1-.253-.374 1.4 1.4 0 0 1-.094-.48c-.001-.16.03-.32.094-.467q.091-.211.253-.376m-.069 1.77a1.1 1.1 0 0 1-.278-.411 1.5 1.5 0 0 1-.1-.513m1.81 1.196-.04-.092.042.09zM7.8 15c.158-.001.315.031.46.095zm9.1 1.9H15a.5.5 0 0 0 0 1h1.9v1.9a.5.5 0 0 0 1 0v-1.9h1.9a.5.5 0 0 0 0-1h-1.9V15a.5.5 0 0 0-1 0zm-9.7-12a2.3 2.3 0 0 0-2.298 2.2h14.196A2.3 2.3 0 0 0 16.8 4.9zm11.998 2.2A2.4 2.4 0 0 0 16.8 4.8H7.2a2.4 2.4 0 0 0-2.4 2.4h14.4q0-.05-.002-.1m1.258 14.873a5.5 5.5 0 1 1-6.112-9.146 5.5 5.5 0 0 1 6.112 9.146M17.4 22.8a5.4 5.4 0 1 0 0-10.8 5.4 5.4 0 0 0 0 10.8m0-8.4a.6.6 0 0 1 .6.6v1.8h1.8a.6.6 0 0 1 0 1.2H18v1.8a.6.6 0 0 1-1.2 0V18H15a.6.6 0 0 1 0-1.2h1.8V15a.6.6 0 0 1 .6-.6" clip-rule="evenodd"/></svg>