<svg xmlns="http://www.w3.org/2000/svg" width="24" height="24" fill="none"><path fill="#04071E" d="M6.6 3.6a3 3 0 0 0-3 3v10.8a3 3 0 0 0 3 3h10.8a3 3 0 0 0 3-3V6.6a3 3 0 0 0-3-3zM4.8 17.4v-9h14.4v9a1.8 1.8 0 0 1-1.8 1.8H6.6a1.8 1.8 0 0 1-1.8-1.8"/><path fill="#04071E" fill-rule="evenodd" d="M3.45 6.6A3.15 3.15 0 0 1 6.6 3.45h10.8a3.15 3.15 0 0 1 3.15 3.15v10.8a3.15 3.15 0 0 1-3.15 3.15H6.6a3.15 3.15 0 0 1-3.15-3.15zM6.6 3.75A2.85 2.85 0 0 0 3.75 6.6v10.8a2.85 2.85 0 0 0 2.85 2.85h10.8a2.85 2.85 0 0 0 2.85-2.85V6.6a2.85 2.85 0 0 0-2.85-2.85zm-1.95 4.5h14.7v9.15a1.95 1.95 0 0 1-1.95 1.95H6.6a1.95 1.95 0 0 1-1.95-1.95zm.3.3v8.85c0 .912.739 1.65 1.65 1.65h10.8a1.65 1.65 0 0 0 1.65-1.65V8.55z" clip-rule="evenodd"/></svg>