<svg xmlns="http://www.w3.org/2000/svg" width="24" height="24" fill="none"><path fill="#04071E" d="M6.776 10.976a.6.6 0 0 1 .848 0l2.4 2.4a.6.6 0 0 1 0 .849l-2.4 2.4a.6.6 0 1 1-.848-.85L8.75 13.8l-1.975-1.976a.6.6 0 0 1 0-.848M17.4 15.6h-6a.6.6 0 1 0 0 1.2h6a.6.6 0 1 0 0-1.2m-13.805-9a3 3 0 0 1 3-3h10.8a3 3 0 0 1 3 3v.6h.004v1.2h-.004v9a3 3 0 0 1-3 3h-10.8a3 3 0 0 1-3-3zm15.6.6v-.6a1.8 1.8 0 0 0-1.8-1.8h-10.8a1.8 1.8 0 0 0-1.8 1.8v.6zm-14.4 1.2v9a1.8 1.8 0 0 0 1.8 1.8h10.8a1.8 1.8 0 0 0 1.8-1.8v-9z"/><path fill="#04071E" fill-rule="evenodd" d="M6.595 3.75a2.85 2.85 0 0 0-2.85 2.85v10.8a2.85 2.85 0 0 0 2.85 2.85h10.8a2.85 2.85 0 0 0 2.85-2.85V8.25h.004v-.9h-.004V6.6a2.85 2.85 0 0 0-2.85-2.85zm13.95 3.3V6.6a3.15 3.15 0 0 0-3.15-3.15h-10.8a3.15 3.15 0 0 0-3.15 3.15v10.8a3.15 3.15 0 0 0 3.15 3.15h10.8a3.15 3.15 0 0 0 3.15-3.15V8.55h.004v-1.5zm-15.9-.45a1.95 1.95 0 0 1 1.95-1.95h10.8a1.95 1.95 0 0 1 1.95 1.95v.75h-14.7zm1.95-1.65a1.65 1.65 0 0 0-1.65 1.65v.45h14.1V6.6a1.65 1.65 0 0 0-1.65-1.65zm-1.95 3.3h14.7v9.15a1.95 1.95 0 0 1-1.95 1.95h-10.8a1.95 1.95 0 0 1-1.95-1.95zm.3.3v8.85c0 .912.739 1.65 1.65 1.65h10.8a1.65 1.65 0 0 0 1.65-1.65V8.55zm2.573 2.532a.45.45 0 0 0-.636.636L8.964 13.8l-2.082 2.082a.45.45 0 0 0 .636.636l2.4-2.4a.45.45 0 0 0 0-.636zm-.848-.212a.75.75 0 0 1 1.06 0l2.4 2.4a.75.75 0 0 1 0 1.06l-2.4 2.4a.75.75 0 0 1-1.06-1.06l1.87-1.87-1.87-1.87a.75.75 0 0 1 0-1.06m3.98 5.33a.75.75 0 0 1 .75-.75h6a.75.75 0 0 1 0 1.5h-6a.75.75 0 0 1-.75-.75m.75-.45a.45.45 0 0 0 0 .9h6a.45.45 0 0 0 0-.9z" clip-rule="evenodd"/></svg>