<svg xmlns="http://www.w3.org/2000/svg" width="24" height="24" fill="none"><path fill="#04071E" d="M7.2 3.6h9.6a3.6 3.6 0 0 1 3.6 3.6v5.71a5.4 5.4 0 0 0-1.2-.603V8.4H4.8v8.4a2.4 2.4 0 0 0 2.4 2.4h5.107c.151.427.354.83.602 1.2H7.2a3.6 3.6 0 0 1-3.599-3.6V7.2a3.6 3.6 0 0 1 3.6-3.6M4.8 7.2h14.4a2.4 2.4 0 0 0-2.4-2.4H7.2a2.4 2.4 0 0 0-2.4 2.4m13.267 11.198a1.2 1.2 0 1 1-1.334-1.996 1.2 1.2 0 0 1 1.334 1.996m3.472-1.598h.661a.6.6 0 1 1 0 1.2h-.661A4.185 4.185 0 0 1 18 21.54v.661a.6.6 0 0 1-1.2 0v-.661A4.185 4.185 0 0 1 13.261 18H12.6a.6.6 0 1 1 0-1.2h.661a4.18 4.18 0 0 1 3.539-3.539v-.66a.6.6 0 0 1 1.2 0v.66a4.185 4.185 0 0 1 3.539 3.54m-3.845 3.586a3.001 3.001 0 1 0-.59-5.973 3.001 3.001 0 0 0 .59 5.973"/><path fill="#04071E" fill-rule="evenodd" d="M7.2 3.75A3.45 3.45 0 0 0 3.75 7.2v9.6a3.45 3.45 0 0 0 3.45 3.45h5.437a5.5 5.5 0 0 1-.435-.9H7.2a2.55 2.55 0 0 1-2.55-2.55V8.25h14.7v3.953q.472.177.9.434V7.2a3.45 3.45 0 0 0-3.45-3.45zM3.45 7.2A3.75 3.75 0 0 1 7.2 3.45h9.6a3.75 3.75 0 0 1 3.75 3.75v5.99l-.233-.156a5.2 5.2 0 0 0-1.167-.585l-.1-.035V8.55H4.95v8.25a2.25 2.25 0 0 0 2.25 2.25h5.213l.036.1c.146.416.344.807.585 1.167l.156.233H7.2a3.75 3.75 0 0 1-3.75-3.75zm1.2 0A2.55 2.55 0 0 1 7.2 4.65h9.6a2.55 2.55 0 0 1 2.55 2.55v.15H4.65zm.305-.15h14.09a2.25 2.25 0 0 0-2.245-2.1H7.2a2.25 2.25 0 0 0-2.245 2.1m12.445 5.1a.45.45 0 0 0-.45.45v.791l-.128.019a4.03 4.03 0 0 0-3.412 3.412l-.02.128h-.79a.45.45 0 1 0 0 .9h.79l.02.129a4.03 4.03 0 0 0 3.412 3.412l.128.018v.791a.45.45 0 0 0 .9 0v-.79l.128-.02a4.03 4.03 0 0 0 3.412-3.411l.019-.129h.791a.45.45 0 0 0 0-.9h-.791l-.019-.128a4.03 4.03 0 0 0-3.412-3.412l-.128-.019v-.79a.45.45 0 0 0-.45-.45m-.53-.08a.75.75 0 0 1 1.28.53v.534a4.335 4.335 0 0 1 3.517 3.516h.533a.75.75 0 0 1 0 1.5h-.534a4.33 4.33 0 0 1-3.516 3.517v.533a.75.75 0 0 1-1.5 0v-.533a4.335 4.335 0 0 1-3.517-3.517H12.6a.75.75 0 1 1 0-1.5h.533a4.33 4.33 0 0 1 3.517-3.516V12.6a.75.75 0 0 1 .22-.53m-.955 2.553a3.15 3.15 0 1 1 2.97 5.556 3.15 3.15 0 0 1-2.97-5.556m2.04-.018a2.85 2.85 0 1 0-1.11 5.591 2.85 2.85 0 0 0 1.11-5.59m-.35 1.765a1.05 1.05 0 1 0-.41 2.06 1.05 1.05 0 0 0 .41-2.06m-.722-.217a1.35 1.35 0 1 1 1.034 2.494 1.35 1.35 0 0 1-1.034-2.494" clip-rule="evenodd"/></svg>