<svg xmlns="http://www.w3.org/2000/svg" width="24" height="24" fill="none"><path fill="#04071E" d="M3.597 6.6a3 3 0 0 1 3-3h10.8a3 3 0 0 1 3 3v.6h.003v1.2h-.003v9a3 3 0 0 1-3 3h-10.8a3 3 0 0 1-3-3zm15.6.6v-.6a1.8 1.8 0 0 0-1.8-1.8h-10.8a1.8 1.8 0 0 0-1.8 1.8v.6zm-14.4 1.2v9a1.8 1.8 0 0 0 1.8 1.8h10.8a1.8 1.8 0 0 0 1.8-1.8v-9zM6.6 9.6a.6.6 0 0 0-.6.6V15a.6.6 0 0 0 .6.6h4.8a.6.6 0 0 0 .6-.6v-4.8a.6.6 0 0 0-.6-.6zm4.2 1.2v3.6H7.2v-3.6z"/><path fill="#04071E" fill-rule="evenodd" d="M6.597 3.75a2.85 2.85 0 0 0-2.85 2.85v10.8a2.85 2.85 0 0 0 2.85 2.85h10.8a2.85 2.85 0 0 0 2.85-2.85V8.25h.003v-.9h-.003V6.6a2.85 2.85 0 0 0-2.85-2.85zm13.95 3.3V6.6a3.15 3.15 0 0 0-3.15-3.15h-10.8a3.15 3.15 0 0 0-3.15 3.15v10.8a3.15 3.15 0 0 0 3.15 3.15h10.8a3.15 3.15 0 0 0 3.15-3.15V8.55h.003v-1.5zm-15.9-.45a1.95 1.95 0 0 1 1.95-1.95h10.8a1.95 1.95 0 0 1 1.95 1.95v.75h-14.7zm1.95-1.65a1.65 1.65 0 0 0-1.65 1.65v.45h14.1V6.6a1.65 1.65 0 0 0-1.65-1.65zm-1.95 3.3h14.7v9.15a1.95 1.95 0 0 1-1.95 1.95h-10.8a1.95 1.95 0 0 1-1.95-1.95zm.3.3v8.85c0 .912.738 1.65 1.65 1.65h10.8a1.65 1.65 0 0 0 1.65-1.65V8.55zm.903 1.65a.75.75 0 0 1 .75-.75h4.8a.75.75 0 0 1 .75.75V15a.75.75 0 0 1-.75.75H6.6a.75.75 0 0 1-.75-.75zm.75-.45a.45.45 0 0 0-.45.45V15c0 .249.202.45.45.45h4.8a.45.45 0 0 0 .45-.45v-4.8a.45.45 0 0 0-.45-.45zm.45.9h3.9v3.9h-3.9zm.3.3v3.3h3.3v-3.3z" clip-rule="evenodd"/></svg>