<svg xmlns="http://www.w3.org/2000/svg" width="24" height="24" fill="none"><path fill="#04071E" d="M7.2 3.6a3.6 3.6 0 0 0-3.6 3.6v9.6a3.6 3.6 0 0 0 3.6 3.6h3.865l.253-1.013q.024-.094.052-.187H7.2a2.4 2.4 0 0 1-2.4-2.4V8.4h14.4v2.678c.383-.164.79-.255 1.2-.274V7.2a3.6 3.6 0 0 0-3.6-3.6zM4.8 7.2a2.4 2.4 0 0 1 2.4-2.4h9.6a2.4 2.4 0 0 1 2.4 2.4zm8.376 11.253 5.795-5.795a2.244 2.244 0 0 1 3.174 3.173l-5.796 5.796a2.64 2.64 0 0 1-1.224.693l-1.798.45a1.067 1.067 0 0 1-1.294-1.295l.45-1.797c.115-.464.355-.887.693-1.225"/><path fill="#04071E" fill-rule="evenodd" d="M3.45 7.2A3.75 3.75 0 0 1 7.2 3.45h9.6a3.75 3.75 0 0 1 3.75 3.75v3.747l-.143.007a3.3 3.3 0 0 0-1.148.262l-.21.09V8.55H4.95v8.25a2.25 2.25 0 0 0 2.25 2.25h4.372l-.059.194a4 4 0 0 0-.05.179l-.281 1.127H7.2a3.75 3.75 0 0 1-3.75-3.75zM7.2 3.75A3.45 3.45 0 0 0 3.75 7.2v9.6a3.45 3.45 0 0 0 3.45 3.45h3.747l.225-.9H7.2a2.55 2.55 0 0 1-2.55-2.55V8.25h14.7v2.608c.292-.104.595-.169.9-.195V7.2a3.45 3.45 0 0 0-3.45-3.45zm-2.245 3.3h14.09a2.25 2.25 0 0 0-2.245-2.1H7.2a2.25 2.25 0 0 0-2.245 2.1m-.305.15A2.55 2.55 0 0 1 7.2 4.65h9.6a2.55 2.55 0 0 1 2.55 2.55v.15H4.65zm17.389 5.564a2.094 2.094 0 0 0-2.962 0l-5.795 5.795a2.5 2.5 0 0 0-.654 1.155l-.45 1.798a.917.917 0 0 0 1.113 1.112l1.797-.45c.437-.109.837-.335 1.155-.654l5.796-5.795a2.094 2.094 0 0 0 0-2.961m-3.174-.213a2.394 2.394 0 1 1 3.386 3.386l-5.796 5.796c-.357.357-.804.61-1.294.733l-1.797.449a1.217 1.217 0 0 1-1.477-1.476l.45-1.798c.122-.49.376-.937.733-1.294z" clip-rule="evenodd"/></svg>