<svg xmlns="http://www.w3.org/2000/svg" width="24" height="24" fill="none"><path fill="#04071E" d="M20.4 6.6a3 3 0 0 0-3-3H6.6a3 3 0 0 0-3 3v10.8a3 3 0 0 0 3 3h4.92a6.6 6.6 0 0 1-.472-1.2H6.6a1.8 1.8 0 0 1-1.8-1.8v-9h14.4v2.649q.628.179 1.2.47zM6.6 4.8h10.8a1.8 1.8 0 0 1 1.8 1.8v.6H4.8v-.6a1.8 1.8 0 0 1 1.8-1.8m16.2 12.6a5.4 5.4 0 1 1-10.8 0 5.4 5.4 0 0 1 10.8 0m-2.744-.524-3.565-1.98a.6.6 0 0 0-.891.524v3.96a.6.6 0 0 0 .891.525l3.565-1.98a.6.6 0 0 0 0-1.05"/><path fill="#04071E" fill-rule="evenodd" d="M3.45 6.6A3.15 3.15 0 0 1 6.6 3.45h10.8a3.15 3.15 0 0 1 3.15 3.15v5.165l-.218-.112a6.4 6.4 0 0 0-1.173-.46l-.109-.03V8.55H4.95v8.85c0 .912.739 1.65 1.65 1.65h4.562l.03.11q.175.613.461 1.172l.112.218H6.6a3.15 3.15 0 0 1-3.15-3.15zM6.6 3.75A2.85 2.85 0 0 0 3.75 6.6v10.8a2.85 2.85 0 0 0 2.85 2.85h4.68q-.203-.435-.344-.9H6.6a1.95 1.95 0 0 1-1.95-1.95V8.25h14.7v2.686q.465.141.9.344V6.6a2.85 2.85 0 0 0-2.85-2.85zm0 1.2A1.65 1.65 0 0 0 4.95 6.6v.45h14.1V6.6a1.65 1.65 0 0 0-1.65-1.65zM4.65 6.6A1.95 1.95 0 0 1 6.6 4.65h10.8a1.95 1.95 0 0 1 1.95 1.95v.75H4.65zm12.75 5.55a5.25 5.25 0 1 0 0 10.5 5.25 5.25 0 0 0 0-10.5m-5.55 5.25a5.55 5.55 0 1 1 11.1 0 5.55 5.55 0 0 1-11.1 0m3.6-1.98a.75.75 0 0 1 1.114-.656l3.565 1.98a.75.75 0 0 1 0 1.312l-3.565 1.98a.75.75 0 0 1-1.114-.655zm.969-.393a.45.45 0 0 0-.669.393v3.96c0 .344.369.56.669.394l3.564-1.98a.45.45 0 0 0 0-.787z" clip-rule="evenodd"/></svg>