<svg xmlns="http://www.w3.org/2000/svg" width="24" height="24" fill="none"><path fill="#04071E" d="M3.424 2.576a.6.6 0 1 0-.848.848l1.521 1.522A3 3 0 0 0 3.6 6.6v10.8a3 3 0 0 0 3 3h10.8c.611 0 1.18-.183 1.654-.497l1.522 1.521a.6.6 0 0 0 .848-.848zm14.752 16.449a1.8 1.8 0 0 1-.776.175H6.6a1.8 1.8 0 0 1-1.8-1.8v-9h2.751zM19.2 8.4v8.254l1.17 1.17q.03-.208.03-.424V6.6a3 3 0 0 0-3-3H6.6q-.216 0-.425.03l4.77 4.77z"/><path fill="#04071E" fill-rule="evenodd" d="M2.47 2.47a.75.75 0 0 1 1.06 0l18 18a.75.75 0 1 1-1.06 1.06l-1.437-1.436a3.14 3.14 0 0 1-1.633.456H6.6a3.15 3.15 0 0 1-3.15-3.15V6.6c0-.598.167-1.157.456-1.633L2.47 3.53a.75.75 0 0 1 0-1.06m.848.212a.45.45 0 0 0-.636.636L4.29 4.926l-.068.102c-.298.45-.472.99-.472 1.572v10.8a2.85 2.85 0 0 0 2.85 2.85h10.8c.581 0 1.121-.174 1.572-.472l.102-.068 1.608 1.608a.45.45 0 0 0 .636-.636zm2.836.8q.22-.032.446-.032h10.8a3.15 3.15 0 0 1 3.15 3.15v10.8q0 .227-.031.446l-.042.297-1.427-1.427V8.55h-8.167L5.858 3.523zm.355.27 4.499 4.498h8.342v8.342l.899.899.001-.091V6.6a2.85 2.85 0 0 0-2.85-2.85H6.6zM4.65 8.25h2.964l10.818 10.818-.191.092c-.255.122-.54.19-.841.19H6.6a1.95 1.95 0 0 1-1.95-1.95zm.3.3v8.85c0 .911.739 1.65 1.65 1.65h10.8q.268-.001.51-.08L7.49 8.55z" clip-rule="evenodd"/></svg>