<svg xmlns="http://www.w3.org/2000/svg" width="24" height="24" fill="none"><path fill="#04071E" d="M3.6 7.2a3.6 3.6 0 0 1 3.6-3.6h9.6a3.6 3.6 0 0 1 3.6 3.6v4.082c-.364-.211-.77-.36-1.2-.432V8.4H4.8v8.4a2.4 2.4 0 0 0 2.4 2.4h6.06a3 3 0 0 0-.06.6q0 .3.046.6H7.2a3.6 3.6 0 0 1-3.6-3.6zm3.6-2.4a2.4 2.4 0 0 0-2.4 2.4h14.4a2.4 2.4 0 0 0-2.4-2.4zm11.4 12a2.4 2.4 0 1 0 0-4.8 2.4 2.4 0 0 0 0 4.8m0 6c3 0 4.2-1.506 4.2-3A1.8 1.8 0 0 0 21 18h-4.8a1.8 1.8 0 0 0-1.8 1.8c0 1.5 1.2 3 4.2 3M7.2 14.4h3.6v-3.6H7.2zM6 10.2a.6.6 0 0 1 .6-.6h4.8a.6.6 0 0 1 .6.6V15a.6.6 0 0 1-.6.6H6.6A.6.6 0 0 1 6 15z"/><path fill="#04071E" fill-rule="evenodd" d="M7.2 3.75A3.45 3.45 0 0 0 3.75 7.2v9.6a3.45 3.45 0 0 0 3.45 3.45h5.875a4 4 0 0 1-.025-.45q0-.229.032-.45H7.2a2.55 2.55 0 0 1-2.55-2.55V8.25h14.7v2.475q.475.098.9.307V7.2a3.45 3.45 0 0 0-3.45-3.45zM3.45 7.2A3.75 3.75 0 0 1 7.2 3.45h9.6a3.75 3.75 0 0 1 3.75 3.75v4.342l-.225-.13a3.4 3.4 0 0 0-1.15-.414l-.125-.021V8.55H4.95v8.25a2.25 2.25 0 0 0 2.25 2.25h6.244l-.037.18a3 3 0 0 0-.057.57q0 .29.044.577l.027.173H7.2a3.75 3.75 0 0 1-3.75-3.75zm1.2 0A2.55 2.55 0 0 1 7.2 4.65h9.6a2.55 2.55 0 0 1 2.55 2.55v.15H4.65zm.305-.15h14.09a2.25 2.25 0 0 0-2.245-2.1H7.2a2.25 2.25 0 0 0-2.245 2.1M6.6 9.75a.45.45 0 0 0-.45.45V15c0 .249.201.45.45.45h4.8a.45.45 0 0 0 .45-.45v-4.8a.45.45 0 0 0-.45-.45zm-.75.45a.75.75 0 0 1 .75-.75h4.8a.75.75 0 0 1 .75.75V15a.75.75 0 0 1-.75.75H6.6a.75.75 0 0 1-.75-.75zm1.2.45h3.9v3.9h-3.9zm.3.3v3.3h3.3v-3.3zm8.7 3.45a2.55 2.55 0 1 1 5.1 0 2.55 2.55 0 0 1-5.1 0m2.55-2.25a2.25 2.25 0 1 0 0 4.5 2.25 2.25 0 0 0 0-4.5m-4.35 7.65a1.95 1.95 0 0 1 1.95-1.95H21a1.95 1.95 0 0 1 1.95 1.95 2.79 2.79 0 0 1-1.029 2.176c-.71.592-1.797.974-3.321.974s-2.612-.38-3.321-.972A2.79 2.79 0 0 1 14.25 19.8m1.95-1.65a1.65 1.65 0 0 0-1.65 1.65c0 .708.282 1.415.921 1.947.64.534 1.653.903 3.129.903s2.488-.37 3.129-.905a2.49 2.49 0 0 0 .921-1.945A1.65 1.65 0 0 0 21 18.15z" clip-rule="evenodd"/></svg>