<svg xmlns="http://www.w3.org/2000/svg" width="24" height="24" fill="none"><path fill="#04071E" d="M6.596 3.6a3 3 0 0 0-3 3v10.8a3 3 0 0 0 3 3h5.597A4.2 4.2 0 0 1 12 19.2H6.596a1.8 1.8 0 0 1-1.8-1.8v-9H20.4V7.2h-.004v-.6a3 3 0 0 0-3-3zm12.6 3v.6h-14.4v-.6a1.8 1.8 0 0 1 1.8-1.8h10.8a1.8 1.8 0 0 1 1.8 1.8M18 14.4a1.8 1.8 0 0 1 0-3.6h2.4a3 3 0 1 0 0 3.6zM15.06 18c-.138 0-.3.072-.443.232a.82.82 0 0 0-.217.512v.384c0 1.067 1.164 2.472 3.6 2.472h3.585c-.85.73-2.096 1.2-3.585 1.2-2.84 0-4.8-1.71-4.8-3.672v-.384c0-.486.21-.96.52-1.31.314-.352.782-.634 1.34-.634h5.88c.558 0 1.026.282 1.34.635.146.165.27.357.36.565zM21 12.6q0 .309-.06.6H18V12h2.94q.06.292.06.6m-3 7.8h4.513c.177-.378.276-.783.286-1.2h-4.8z"/><path fill="#04071E" fill-rule="evenodd" d="M3.446 6.6a3.15 3.15 0 0 1 3.15-3.15h10.8a3.15 3.15 0 0 1 3.15 3.15v.45h.004v1.5H4.946v8.85c0 .912.739 1.65 1.65 1.65h5.552l.002.148q.012.609.186 1.157l.06.195h-5.8a3.15 3.15 0 0 1-3.15-3.15zm16.804.75h-.004V6.6a2.85 2.85 0 0 0-2.85-2.85h-10.8a2.85 2.85 0 0 0-2.85 2.85v10.8a2.85 2.85 0 0 0 2.85 2.85h5.397a4.4 4.4 0 0 1-.138-.9H6.596a1.95 1.95 0 0 1-1.95-1.95V8.25H20.25zM6.596 4.95a1.65 1.65 0 0 0-1.65 1.65v.45h14.1V6.6a1.65 1.65 0 0 0-1.65-1.65zM4.646 6.6a1.95 1.95 0 0 1 1.95-1.95h10.8a1.95 1.95 0 0 1 1.95 1.95v.75h-14.7zm10.204 6a3.15 3.15 0 0 1 5.67-1.89l.18.24H18a1.65 1.65 0 1 0 0 3.3h2.7l-.18.24a3.15 3.15 0 0 1-5.67-1.89M18 9.75a2.85 2.85 0 1 0 2.078 4.8H18a1.95 1.95 0 1 1 0-3.9h2.078A2.84 2.84 0 0 0 18 9.75m-.15 2.1h3.212l.025.12a3.2 3.2 0 0 1 0 1.26l-.025.12H17.85zm.3.3v.9h2.665a2.9 2.9 0 0 0 0-.9zm-3.09 4.8c-.505 0-.935.256-1.228.585-.29.326-.482.765-.482 1.21v.383c0 1.849 1.859 3.522 4.65 3.522 1.267 0 2.347-.347 3.145-.9H18c-2.488 0-3.75-1.445-3.75-2.622v-.384c0-.192.09-.425.255-.611.165-.185.365-.283.555-.283h7.336a2 2 0 0 0-.229-.315c-.292-.33-.722-.585-1.227-.585zm-1.452.385c.335-.376.841-.685 1.452-.685h5.88c.61 0 1.117.309 1.451.685.157.177.29.383.387.605l.09.21H15.06c-.086 0-.21.046-.33.182a.67.67 0 0 0-.18.412v.384c0 .957 1.066 2.322 3.45 2.322h3.99l-.307.264c-.88.756-2.163 1.236-3.683 1.236-2.89 0-4.95-1.748-4.95-3.822v-.384c0-.528.227-1.036.558-1.409m4.242 1.715h5.103l-.004.154a3.15 3.15 0 0 1-.3 1.26l-.04.086h-4.76zm.3.3v.9h4.266q.187-.434.225-.9z" clip-rule="evenodd"/></svg>