<svg xmlns="http://www.w3.org/2000/svg" width="24" height="24" fill="none"><path fill="#04071E" d="m3.424 2.576 18 18a.6.6 0 0 1-.848.848l-1.523-1.522a3 3 0 0 1-1.657.498h-10.8a3 3 0 0 1-3-3V6.6c0-.612.184-1.182.499-1.657l-1.52-1.519a.6.6 0 1 1 .85-.848m14.75 16.447L12 12.85V15a.6.6 0 0 1-.6.6H6.6A.6.6 0 0 1 6 15v-4.8a.6.6 0 0 1 .6-.6h2.151l-1.2-1.2H4.796v9a1.8 1.8 0 0 0 1.8 1.8h10.8c.28 0 .543-.063.779-.177M6.352 7.2 4.973 5.822c-.113.235-.177.5-.177.778v.6zm3.6 3.6H7.2v3.6h3.6v-2.751zm9.246-3.6H9.746l1.2 1.2h8.25v8.25l1.171 1.172q.03-.207.03-.422v-9h.003V7.2h-.003v-.6a3 3 0 0 0-3-3h-10.8q-.216 0-.422.03l1.17 1.17h10.051a1.8 1.8 0 0 1 1.8 1.8z"/><path fill="#04071E" fill-rule="evenodd" d="M3.318 2.682a.45.45 0 0 0-.636.636l1.606 1.606-.068.102c-.3.451-.474.992-.474 1.574v10.8a2.85 2.85 0 0 0 2.85 2.85h10.8c.582 0 1.123-.174 1.574-.473l.102-.068 1.61 1.61a.45.45 0 0 0 .636-.637zM2.47 2.47a.75.75 0 0 1 1.06 0l18 18a.75.75 0 1 1-1.06 1.06l-1.438-1.437a3.14 3.14 0 0 1-1.636.457h-10.8a3.15 3.15 0 0 1-3.15-3.15V6.6c0-.599.168-1.159.458-1.636L2.47 3.53a.75.75 0 0 1 0-1.06m3.684 1.01q.217-.03.442-.03h10.8a3.15 3.15 0 0 1 3.15 3.15v.45h.004v1.5h-.003v8.85q0 .225-.031.442l-.042.298-1.427-1.427V8.55h-8.164l-1.5-1.5h9.664V6.6a1.65 1.65 0 0 0-1.65-1.65H7.282L5.856 3.523zM20.25 8.25v-.9h-.003V6.6a2.85 2.85 0 0 0-2.85-2.85h-10.8l-.088.001.899.899h9.988a1.95 1.95 0 0 1 1.95 1.95v.75h-9.238l.9.9h8.339v8.339l.898.898.002-.087V8.25zM4.93 5.566 6.713 7.35H4.646V6.6c0-.302.07-.588.192-.843zm.097.522q-.079.242-.08.512v.45h1.042zm-.38 2.162h2.967l1.5 1.5H6.6a.45.45 0 0 0-.45.45V15c0 .248.201.45.45.45h4.8a.45.45 0 0 0 .45-.45v-2.514l6.58 6.581-.19.092a1.94 1.94 0 0 1-.843.191h-10.8a1.95 1.95 0 0 1-1.95-1.95zm.3.3v8.85c0 .911.738 1.65 1.65 1.65h10.8q.268-.001.511-.08l-5.758-5.76V15a.75.75 0 0 1-.75.75H6.6a.75.75 0 0 1-.75-.75v-4.8a.75.75 0 0 1 .75-.75h1.79l-.9-.9zm2.103 2.1h2.964l.936.936v2.964h-3.9zm.3.3v3.3h3.3v-2.54l-.76-.76z" clip-rule="evenodd"/></svg>