<svg xmlns="http://www.w3.org/2000/svg" width="24" height="24" fill="none"><path fill="#04071E" d="M9.808 5.507a2.58 2.58 0 0 0-1.638-.205l-1.183.225a2.85 2.85 0 0 0-2.004 1.5c-1.367 2.673-2.4 4.862-2.799 6.73-.411 1.925-.16 3.574 1.08 5.076.82.995 2.229.794 2.963-.036.558-.633 1.195-1.365 1.817-2.087a2.15 2.15 0 0 1 1.63-.748h4.655c.625 0 1.22.273 1.63.748.622.722 1.259 1.454 1.817 2.087.734.83 2.142 1.031 2.964.036 1.239-1.502 1.49-3.15 1.08-5.077-.4-1.867-1.433-4.056-2.8-6.729a2.85 2.85 0 0 0-2.004-1.5l-1.183-.225a2.58 2.58 0 0 0-1.638.205q-.216.109-.44.23a2.34 2.34 0 0 1-1.113.296h-1.281c-.377 0-.758-.104-1.113-.296q-.224-.121-.44-.23m-1.37 1.198c.274-.052.528-.022.732.08q.191.096.397.208c.54.292 1.153.469 1.794.469h1.281c.641 0 1.255-.177 1.794-.47q.206-.111.398-.207c.203-.102.457-.132.732-.08l1.183.225c.43.082.8.36.999.748 1.38 2.698 2.321 4.723 2.674 6.377.34 1.594.121 2.772-.784 3.868a.4.4 0 0 1-.348.15.64.64 0 0 1-.443-.222 235 235 0 0 1-1.806-2.073 3.58 3.58 0 0 0-2.712-1.245H9.674a3.58 3.58 0 0 0-2.712 1.245c-.62.719-1.252 1.446-1.806 2.073a.64.64 0 0 1-.443.221.4.4 0 0 1-.348-.149c-.905-1.096-1.125-2.274-.784-3.868.353-1.654 1.294-3.679 2.674-6.377a1.42 1.42 0 0 1 1-.748zM12 11a1 1 0 1 0 0-2 1 1 0 0 0 0 2"/></svg>