<svg xmlns="http://www.w3.org/2000/svg" width="24" height="24" fill="none"><path fill="#060" fill-rule="evenodd" d="M5.033 4.433V4.42a.6.6 0 0 1 .19-.146c.214-.118.55-.195.958-.097.702.17 1.863.952 2.769 3.594a29 29 0 0 1-2.105.248c-.808.062-1.596.078-2.211.006a2.8 2.8 0 0 1-.685-.149 1 1 0 0 1-.098-.046c.07-.094.226-.235.507-.418.196-.128.371-.226.556-.33q.178-.1.383-.221a3.4 3.4 0 0 0 .467-.324c.074-.065.172-.16.257-.285.084-.125.19-.333.19-.605 0-.264-.087-.528-.273-.743a1.26 1.26 0 0 0-.471-.333 3 3 0 0 0-.29-.097l-.014-.004zm5.092 4.065.175.896.964-.188-.258-.948C10 4.573 8.346 2.823 6.609 2.404c-.852-.205-1.654-.064-2.264.27-.554.305-1.14.894-1.14 1.682 0 .458.11.88.38 1.224q.044.058.093.109-.165.097-.315.194c-.352.23-.807.565-1.089 1.026-.15.246-.266.55-.272.9-.006.356.1.689.285.988.25.408.644.64.99.776.353.14.752.22 1.145.266.789.092 1.713.066 2.564 0a31 31 0 0 0 3.03-.393l.207-.037.055-.01.016-.004h.006zM4.57 5.158" clip-rule="evenodd"/><path fill="#A4CF88" fill-rule="evenodd" d="M4.948 3.775c-.358.196-.488.446-.488.58 0 .26.06.385.111.45a.5.5 0 0 0 .25.158c.057.02.113.036.179.054l.017.005c.066.019.15.043.229.076a.7.7 0 0 1 .26.18c.09.104.134.232.134.37 0 .121-.048.22-.093.287a1 1 0 0 1-.157.171 3 3 0 0 1-.386.266q-.17.101-.347.2c-.199.113-.404.229-.61.363-.326.211-.576.42-.703.629a.53.53 0 0 0-.088.267c-.001.081.021.182.099.308.053.086.167.182.384.268.213.085.493.147.828.186.67.078 1.5.059 2.321-.005a30 30 0 0 0 2.805-.359c-.954-3.23-2.336-4.354-3.379-4.605-.546-.132-1.028-.034-1.366.15m5.177 4.723.065.336.362-.07-.097-.356c-.982-3.603-2.541-5.103-3.98-5.45-.714-.171-1.37-.05-1.856.217-.465.255-.844.69-.844 1.18 0 .369.088.656.257.873.168.214.385.318.561.38.079.028.157.05.22.068l.01.002a4 4 0 0 1-.17.107c-.086.051-.189.11-.3.173-.214.12-.46.26-.68.403-.34.221-.701.5-.913.845-.11.18-.184.385-.188.614q-.005.346.2.678c.161.262.427.431.714.545.29.115.635.187 1.002.23.734.085 1.616.063 2.453-.002a31 31 0 0 0 2.975-.386l.202-.037.053-.01.014-.003h.005z" clip-rule="evenodd"/><path fill="url(#a)" d="M4.118 4.356c0-1.253 4.07-2.967 6.007 4.142 0 0-6.206 1.21-7.061-.18-.855-1.388 2.234-2.175 2.234-2.67s-1.18-.04-1.18-1.292"/><path fill="#060" fill-rule="evenodd" d="M15.78 3.472a1 1 0 0 0-.045.099c-.06.15-.114.375-.15.684-.072.615-.056 1.403.007 2.21.06.775.16 1.53.248 2.106 2.642-.906 3.424-2.067 3.594-2.769.098-.407.02-.744-.097-.958a.6.6 0 0 0-.147-.19h-.013l-.037.13-.004.013c-.017.063-.05.177-.096.289a1.26 1.26 0 0 1-.332.472c-.216.187-.48.274-.744.274-.272 0-.48-.106-.606-.19a1.5 1.5 0 0 1-.284-.257 3.4 3.4 0 0 1-.324-.467c-.082-.138-.153-.262-.22-.383-.105-.185-.204-.36-.332-.556-.182-.281-.323-.437-.418-.507m-.667 6.275-.895.174-.002-.006-.002-.015-.011-.056-.037-.207a34 34 0 0 1-.393-3.03c-.066-.85-.092-1.775 0-2.564.046-.393.125-.792.265-1.146.137-.345.369-.738.777-.989.299-.184.632-.29.987-.285.35.006.655.122.9.272.462.282.798.737 1.027 1.09.063.098.129.205.193.313q.05-.048.109-.093c.343-.269.766-.378 1.225-.378.788 0 1.377.585 1.681 1.14.334.61.476 1.41.27 2.263-.418 1.738-2.168 3.393-5.854 4.397l-.947.258-.188-.964zm3.341-5.556" clip-rule="evenodd"/><path fill="#A4CF88" fill-rule="evenodd" d="M15.78 2.878a.56.56 0 0 0-.307.099c-.086.052-.182.167-.268.383a3.4 3.4 0 0 0-.186.829c-.078.67-.059 1.5.005 2.32a30 30 0 0 0 .359 2.805c3.23-.954 4.354-2.336 4.605-3.378.132-.547.034-1.029-.15-1.366-.197-.359-.447-.489-.582-.489-.26 0-.386.06-.452.112a.5.5 0 0 0-.157.25 3 3 0 0 0-.058.195c-.019.066-.042.15-.075.228a.7.7 0 0 1-.18.261.56.56 0 0 1-.37.134.5.5 0 0 1-.287-.092 1 1 0 0 1-.171-.157 3 3 0 0 1-.266-.386q-.1-.171-.2-.347c-.113-.2-.229-.404-.363-.61-.211-.326-.42-.576-.629-.703a.53.53 0 0 0-.267-.088m-.666 6.869-.336.065-.001-.005-.003-.014-.01-.054-.037-.201a33 33 0 0 1-.386-2.975c-.065-.837-.087-1.719-.002-2.454.043-.366.115-.711.23-1.001.113-.287.283-.553.545-.714q.332-.205.678-.2c.23.004.435.078.614.188.345.211.624.573.845.913.143.22.282.466.403.68.064.111.122.214.173.3q.058.097.106.168l.002-.007c.017-.063.039-.141.067-.22.062-.177.166-.394.38-.562q.324-.256.874-.257c.491 0 .926.378 1.181.844.267.486.388 1.142.217 1.855-.347 1.44-1.847 2.998-5.45 3.98l-.356.098-.07-.362z" clip-rule="evenodd"/><path fill="url(#b)" d="M19.256 3.74c1.253 0 2.967 4.069-4.143 6.007 0 0-1.21-6.207.18-7.062s2.176 2.234 2.67 2.234c.496 0 .035-1.18 1.293-1.18"/><path fill="#060" fill-rule="evenodd" d="M15.058 15.987c.58-.053 1.34-.107 2.116-.12.81-.013 1.598.019 2.207.128.306.054.529.122.674.19a1 1 0 0 1 .096.052c-.075.09-.239.222-.53.387-.205.116-.387.205-.58.299-.123.06-.25.122-.39.195-.15.077-.331.176-.485.294-.078.059-.182.147-.274.267-.091.119-.21.321-.227.595-.015.261.053.527.223.753.15.2.335.309.448.365.11.055.222.095.285.117l.02.007.123.045v.011a.6.6 0 0 1-.199.136c-.22.104-.56.16-.961.038-.69-.212-1.802-1.065-2.546-3.759m5.772-1.454c.336.157.714.412.94.834.165.31.252.648.225 1.001-.026.35-.16.647-.325.884-.309.444-.783.752-1.149.96a9 9 0 0 1-.33.177q.046.054.088.116c.247.357.332.784.305 1.24v.004c-.049.786-.667 1.338-1.24 1.609-.629.297-1.438.39-2.276.132-1.708-.524-3.253-2.373-4.033-6.113l-.2-.962.973-.129.12.905-.12-.905h.007l.015-.003.056-.007a26 26 0 0 1 .95-.101 31 31 0 0 1 2.308-.132c.853-.014 1.777.016 2.558.155.39.07.784.173 1.128.335m-1.559 4.33h.001" clip-rule="evenodd"/><path fill="#A4CF88" fill-rule="evenodd" d="M14.344 15.486c.758 3.282 2.068 4.49 3.093 4.805.537.165 1.024.097 1.372-.068.369-.174.515-.415.523-.551.015-.257-.037-.386-.084-.454a.5.5 0 0 0-.24-.174c-.055-.022-.109-.041-.172-.064l-.02-.007a2 2 0 0 1-.224-.09.7.7 0 0 1-.247-.199.56.56 0 0 1-.11-.376.5.5 0 0 1 .11-.282 1 1 0 0 1 .167-.16c.112-.086.256-.167.401-.242q.174-.09.355-.176c.206-.101.42-.205.635-.328.337-.19.6-.385.739-.585a.53.53 0 0 0 .103-.262.56.56 0 0 0-.08-.313c-.048-.089-.156-.192-.367-.291a3.4 3.4 0 0 0-.816-.236c-.663-.118-1.493-.15-2.317-.136a30 30 0 0 0-2.821.189m6.924.15q.184.344.16.69a1.2 1.2 0 0 1-.225.6c-.232.333-.61.59-.962.79-.23.13-.485.255-.706.363-.114.056-.22.107-.307.153q-.105.053-.18.098l.017.005c.06.021.136.048.211.08.171.073.38.19.535.414.156.226.226.517.205.884-.03.491-.435.902-.915 1.13-.5.236-1.163.317-1.865.102-1.414-.434-2.88-2.027-3.642-5.684l-.075-.361.365-.049.045.34-.045-.34h.005l.014-.002.054-.007.204-.024a30.873 30.873 0 0 1 2.993-.205c.84-.014 1.72.017 2.449.147.363.065.703.157.985.29.28.13.535.316.68.587" clip-rule="evenodd"/><path fill="url(#c)" d="M19.674 19.693c-.078 1.253-4.24 2.714-5.745-4.502 0 0 6.27-.83 7.036.607.773 1.437-2.36 2.04-2.389 2.53-.029.5 1.17.117 1.098 1.365"/><path fill="#060" fill-rule="evenodd" d="m9.968 13.95-.872.27zl.002.006.004.015.017.054.059.202a34 34 0 0 1 .714 2.97c.157.84.282 1.756.275 2.55-.004.396-.04.801-.141 1.168-.099.357-.287.773-.664 1.067a1.8 1.8 0 0 1-.95.39c-.35.032-.665-.05-.926-.173-.488-.23-.871-.646-1.137-.972a9 9 0 0 1-.229-.294 2 2 0 0 1-.1.107c-.314.302-.723.454-1.178.502-.782.084-1.43-.433-1.792-.952-.398-.57-.624-1.352-.511-2.221.231-1.772 1.795-3.605 5.352-5l.915-.358zm-3.599 6.155h.001m2.13-4.638c.149.562.329 1.302.471 2.066.15.796.25 1.578.244 2.198-.003.31-.032.542-.075.697a1 1 0 0 1-.035.103c-.101-.06-.258-.199-.469-.458-.148-.182-.266-.346-.39-.519-.08-.112-.163-.228-.26-.355a3.4 3.4 0 0 0-.371-.43 1.5 1.5 0 0 0-.31-.224 1.1 1.1 0 0 0-.623-.124 1.13 1.13 0 0 0-.709.352c-.17.183-.244.384-.28.502a3 3 0 0 0-.065.296l-.002.012c-.01.062-.017.1-.024.133l-.016.003a.6.6 0 0 1-.166-.173c-.14-.2-.253-.525-.198-.941.093-.716.748-1.954 3.278-3.138" clip-rule="evenodd"/><path fill="#A4CF88" fill-rule="evenodd" d="m9.422 14.119-.327.1zl.002.005.004.013.016.052.058.197a33 33 0 0 1 .701 2.916c.155.826.272 1.7.265 2.44-.003.37-.037.72-.12 1.02-.082.298-.223.581-.465.77a1.24 1.24 0 0 1-.652.272c-.228.02-.44-.031-.63-.12-.367-.174-.682-.503-.939-.818a13 13 0 0 1-.475-.633c-.075-.103-.143-.199-.203-.278a4 4 0 0 0-.123-.156l-.002.007c-.01.064-.024.145-.044.226a1.2 1.2 0 0 1-.32.597c-.198.191-.475.308-.841.346-.489.053-.961-.276-1.265-.711-.317-.454-.508-1.094-.413-1.821.191-1.468 1.516-3.179 4.994-4.542l.344-.135zm-.548.56c-3.11 1.295-4.08 2.79-4.22 3.852-.072.558.076 1.026.296 1.341.234.335.496.437.631.423h.001c.259-.028.377-.1.437-.158a.5.5 0 0 0 .13-.264c.015-.058.025-.116.036-.184l.003-.016a2 2 0 0 1 .05-.234.7.7 0 0 1 .15-.278.56.56 0 0 1 .354-.173.5.5 0 0 1 .296.062 1 1 0 0 1 .187.137c.103.096.207.225.305.355q.118.158.235.322c.134.186.271.378.428.57.245.3.48.526.7.63a.53.53 0 0 0 .275.059.56.56 0 0 0 .295-.132c.08-.062.163-.186.225-.41.061-.222.093-.508.096-.845.006-.674-.102-1.498-.253-2.308a30 30 0 0 0-.657-2.75" clip-rule="evenodd"/><path fill="url(#d)" d="M5.618 20.635c-1.248.136-3.385-3.725 3.478-6.416 0 0 1.865 6.042.578 7.042s-2.404-1.986-2.895-1.933c-.49.054.088 1.176-1.16 1.307"/><defs><linearGradient id="a" x1="6.519" x2="6.519" y1="8.892" y2="3.342" gradientUnits="userSpaceOnUse"><stop stop-color="#298122"/><stop offset=".286" stop-color="#016701"/><stop offset=".286" stop-color="#44942E"/><stop offset="1" stop-color="#85BF5A"/></linearGradient><linearGradient id="b" x1="17.507" x2="17.507" y1="8.892" y2="3.342" gradientUnits="userSpaceOnUse"><stop stop-color="#298122"/><stop offset=".286" stop-color="#016701"/><stop offset=".286" stop-color="#44942E"/><stop offset="1" stop-color="#85BF5A"/></linearGradient><linearGradient id="c" x1="17.507" x2="17.507" y1="19.625" y2="14.958" gradientUnits="userSpaceOnUse"><stop stop-color="#298122"/><stop offset=".286" stop-color="#016701"/><stop offset=".286" stop-color="#44942E"/><stop offset="1" stop-color="#85BF5A"/></linearGradient><linearGradient id="d" x1="7.209" x2="7.209" y1="19.625" y2="14.958" gradientUnits="userSpaceOnUse"><stop stop-color="#298122"/><stop offset=".286" stop-color="#016701"/><stop offset=".286" stop-color="#44942E"/><stop offset="1" stop-color="#85BF5A"/></linearGradient></defs></svg>