<svg xmlns="http://www.w3.org/2000/svg" width="24" height="24" fill="none"><path fill="#000" d="M2 2h20v20H2zm12.786 14.603 2.686-1.55V8.835l-2.686-1.55c-1.477-.852-2.706-1.549-2.73-1.549s-1.254.697-2.731 1.55l-2.686 1.55v1.217l2.686 1.55c1.477.852 2.706 1.55 2.73 1.55.026 0 .76-.413 1.634-.917s1.594-.917 1.602-.917.014.568.014 1.26v1.261l-1.592.917c-.875.504-1.611.922-1.636.928s-.761-.401-1.636-.906-1.61-.918-1.635-.918c-.08 0-2.088 1.176-2.075 1.215.017.049 5.243 3.072 5.316 3.075.03 0 1.262-.696 2.74-1.548m-3.844-6.527c-.578-.336-1.052-.62-1.052-.632 0-.036 2.1-1.229 2.166-1.229.064 0 2.165 1.193 2.165 1.23 0 .032-2.094 1.228-2.165 1.236-.034.003-.536-.269-1.114-.605"/></svg>