<svg xmlns="http://www.w3.org/2000/svg" width="24" height="24" fill="none"><path fill="#00005B" d="M5.542 2.25h12.916A3.54 3.54 0 0 1 22 5.792v12.416a3.54 3.54 0 0 1-3.542 3.542H5.542A3.54 3.54 0 0 1 2 18.208V5.792A3.54 3.54 0 0 1 5.542 2.25"/><path fill="#99F" d="M6.75 15.917V7.333c0-.058.025-.091.084-.091.141 0 .275 0 .466-.009.2-.008.409-.008.634-.016s.466-.009.725-.017q.385-.01.758-.008c.683 0 1.25.083 1.717.258.416.142.8.375 1.116.683.267.267.475.592.608.95.125.35.192.709.192 1.084q0 1.074-.5 1.775c-.333.466-.8.816-1.341 1.016-.567.209-1.192.284-1.875.284-.2 0-.334 0-.417-.009q-.123-.01-.358-.008V15.9a.104.104 0 0 1-.092.117H6.85q-.1.002-.1-.109zm1.817-7.059v2.8q.175.015.325.017h.442c.325 0 .65-.05.958-.15.267-.075.5-.233.683-.442.175-.208.258-.491.258-.858a1.37 1.37 0 0 0-.191-.742 1.2 1.2 0 0 0-.583-.475 2.4 2.4 0 0 0-.984-.166c-.216 0-.408 0-.566.008-.167-.008-.284 0-.342.008M14.25 9.35h1.459c.083 0 .15.058.175.133a.9.9 0 0 1 .05.209 2.8 2.8 0 0 1 .058.558q.377-.44.892-.717a2.6 2.6 0 0 1 1.267-.325c.058-.008.108.034.116.092v1.658c0 .067-.041.092-.133.092-.3-.008-.608.017-.9.083q-.363.075-.7.225a1.3 1.3 0 0 0-.425.309v4.25c0 .083-.034.116-.109.116H14.36c-.067.009-.125-.033-.133-.1v-4.65c0-.2 0-.408-.009-.625-.008-.216-.008-.433-.017-.65 0-.191-.016-.375-.033-.566a.077.077 0 0 1 .059-.092c0-.008.016-.008.024 0"/></svg>