<svg xmlns="http://www.w3.org/2000/svg" width="24" height="24" fill="none"><path fill="#FA0F00" d="M5.536 2h12.928A3.52 3.52 0 0 1 22 5.536v12.928A3.52 3.52 0 0 1 18.464 22H5.536A3.52 3.52 0 0 1 2 18.464V5.536A3.52 3.52 0 0 1 5.536 2"/><path fill="#fff" d="M17.949 13.536c-.929-.965-3.465-.572-4.072-.5-.892-.857-1.5-1.893-1.714-2.25.322-.965.536-1.929.572-2.965 0-.892-.357-1.857-1.358-1.857-.357 0-.678.215-.857.5-.428.75-.25 2.25.429 3.786-.393 1.107-.75 2.179-1.75 4.072-1.036.428-3.215 1.428-3.393 2.5-.072.32.036.642.286.892.25.215.571.322.892.322 1.322 0 2.608-1.822 3.5-3.358.75-.25 1.93-.607 3.108-.82 1.393 1.213 2.607 1.392 3.25 1.392.857 0 1.178-.357 1.285-.679.179-.357.072-.75-.178-1.035m-.893.607c-.036.25-.357.5-.929.357a4.9 4.9 0 0 1-1.821-.929c.464-.071 1.5-.178 2.25-.035.286.071.571.25.5.607m-5.964-7.357c.071-.107.178-.179.285-.179.322 0 .393.393.393.714a7.9 7.9 0 0 1-.428 2.215c-.536-1.429-.429-2.429-.25-2.75m-.072 6.928c.286-.571.679-1.571.822-2a9 9 0 0 0 1.143 1.464c0 .036-1.108.25-1.965.536m-2.107 1.429c-.821 1.357-1.679 2.214-2.143 2.214a.5.5 0 0 1-.214-.071q-.16-.108-.107-.322c.107-.5 1.035-1.178 2.464-1.821"/></svg>