<svg xmlns="http://www.w3.org/2000/svg" width="24" height="24" fill="none"><path fill="#00261A" d="M5.541 2.25H18.46A3.54 3.54 0 0 1 22 5.79v12.418a3.54 3.54 0 0 1-3.541 3.541H5.54A3.544 3.544 0 0 1 2 18.21V5.79A3.544 3.544 0 0 1 5.541 2.25"/><path fill="#52CCA3" d="M10.28 13.736H6.594v3.685h3.686zM17.047 14.114h-2.93v2.929h2.93zM17.047 6.953h-2.93v2.93h2.93zM9.902 6.969h-2.93v2.929h2.93z"/><path fill="#CAFCEB" d="M17.05 6.953v2.93l-5.912 2.995 2.983-5.925zm.375-.378h-3.538l-3.607 7.16 7.145-3.619zM17.05 14.114v2.929h-2.925l-2.929-2.93zm.379-.378h-7.15l3.687 3.685h3.459zM9.902 6.969v5.854l-2.93-2.93V6.97zm.378-.379H6.594v3.46l3.686 3.685z"/></svg>