<svg xmlns="http://www.w3.org/2000/svg" width="24" height="24" fill="none"><path fill="#001E36" d="M5.542 2.25h12.916A3.54 3.54 0 0 1 22 5.792v12.416a3.54 3.54 0 0 1-3.542 3.542H5.542A3.54 3.54 0 0 1 2 18.208V5.792A3.54 3.54 0 0 1 5.542 2.25"/><path fill="#31A8FF" d="M6.5 15.925V7.35c0-.058.025-.092.083-.092.142 0 .275 0 .467-.008.2-.008.408-.008.633-.017.225-.008.467-.008.725-.016.259-.009.509-.009.759-.009.683 0 1.25.084 1.716.259.417.141.8.375 1.117.683.267.267.475.592.608.95.125.35.192.708.192 1.083q0 1.076-.5 1.775c-.333.467-.8.817-1.342 1.017-.566.208-1.191.283-1.875.283-.2 0-.333 0-.416-.008-.084-.008-.2-.008-.359-.008v2.675c.009.058-.033.108-.091.116H6.6c-.067 0-.1-.033-.1-.108m1.817-7.058v2.8c.116.008.225.016.325.016h.441c.325 0 .65-.05.959-.15.266-.075.5-.233.683-.441.175-.209.258-.492.258-.859a1.37 1.37 0 0 0-.191-.741 1.2 1.2 0 0 0-.584-.475 2.4 2.4 0 0 0-.983-.167q-.327-.002-.567.008c-.166-.008-.283 0-.341.009M18 11.158a3 3 0 0 0-.8-.283 4.4 4.4 0 0 0-.933-.108 1.7 1.7 0 0 0-.5.058.43.43 0 0 0-.259.167.44.44 0 0 0-.066.225c0 .075.033.15.083.216a.9.9 0 0 0 .283.225c.192.1.392.192.592.275.45.15.883.359 1.283.609.275.175.5.408.659.691.133.267.2.559.191.859a1.94 1.94 0 0 1-.325 1.108 2.1 2.1 0 0 1-.933.742c-.409.175-.909.266-1.508.266a5.7 5.7 0 0 1-1.134-.108 3.4 3.4 0 0 1-.85-.267c-.058-.033-.1-.091-.091-.158v-1.45c0-.025.008-.058.033-.075s.05-.008.075.008c.325.192.666.325 1.033.409.317.083.65.125.983.125.317 0 .542-.042.692-.117a.39.39 0 0 0 .225-.35c0-.117-.067-.225-.2-.333s-.408-.234-.817-.392a5 5 0 0 1-1.183-.6 2.16 2.16 0 0 1-.633-.708 1.8 1.8 0 0 1-.192-.85c0-.359.1-.7.284-1.009.208-.333.516-.6.874-.766.392-.2.884-.292 1.476-.292.341 0 .691.025 1.033.075.25.033.491.1.716.192.034.008.067.041.084.075a.4.4 0 0 1 .017.1v1.358a.1.1 0 0 1-.042.083c-.075.017-.117.017-.15 0"/></svg>