<svg xmlns="http://www.w3.org/2000/svg" width="24" height="24" fill="none"><path fill="#470137" d="M5.542 2.25h12.916A3.54 3.54 0 0 1 22 5.792v12.416a3.54 3.54 0 0 1-3.542 3.542H5.542A3.54 3.54 0 0 1 2 18.208V5.792A3.54 3.54 0 0 1 5.542 2.25"/><path fill="#FF61F6" d="m12.517 7.375-2.5 4.125 2.667 4.375a.14.14 0 0 1 .016.1c-.008.033-.041.008-.091.017H10.7c-.133 0-.225-.009-.283-.092-.175-.35-.358-.692-.533-1.042a34 34 0 0 0-.567-1.05c-.2-.358-.4-.716-.6-1.083H8.7c-.175.358-.366.717-.558 1.075s-.383.717-.567 1.067c-.191.35-.383.708-.575 1.05-.033.083-.1.091-.191.091H4.975c-.033 0-.058.017-.058-.025a.12.12 0 0 1 .017-.091l2.591-4.25L5 7.367c-.025-.034-.033-.067-.016-.084.016-.025.05-.033.083-.033h1.892c.041 0 .083.008.116.017a.24.24 0 0 1 .084.075c.158.358.341.716.533 1.075.2.358.392.708.6 1.058.2.35.383.7.558 1.058h.017q.264-.55.542-1.075c.183-.35.375-.7.566-1.05.192-.35.375-.708.559-1.05.008-.033.024-.066.05-.083a.16.16 0 0 1 .108-.017h1.758a.077.077 0 0 1 .092.059c.008.008-.008.041-.025.058M16.367 16.167a4.14 4.14 0 0 1-1.792-.375 2.9 2.9 0 0 1-1.258-1.134q-.46-.762-.458-1.9a3.42 3.42 0 0 1 1.783-3.05c.583-.325 1.283-.483 2.108-.483q.063-.002.175.008c.075.009.159.009.259.017V6.617c0-.059.025-.092.083-.092h1.692c.041-.008.075.025.083.058v7.95q.002.225.017.5c.016.175.025.342.033.484 0 .058-.025.108-.083.133a6.4 6.4 0 0 1-1.359.4 7.4 7.4 0 0 1-1.283.117m.817-1.667v-3.667a2 2 0 0 0-.225-.041q-.138-.015-.275-.017c-.325 0-.65.067-.942.217-.283.141-.525.35-.708.616-.184.267-.275.625-.275 1.059-.009.291.041.583.141.858q.126.34.375.592c.159.15.35.266.567.333.225.075.458.108.692.108q.187-.002.35-.016c.108.008.2-.009.3-.042"/></svg>