<svg xmlns="http://www.w3.org/2000/svg" width="24" height="24" fill="none"><path fill="#000B1D" d="M5.12 1.996h13.755A3.123 3.123 0 0 1 22 5.12v13.755a3.123 3.123 0 0 1-3.125 3.124H5.121a3.123 3.123 0 0 1-3.125-3.124V5.12a3.123 3.123 0 0 1 3.125-3.124"/><path fill="#fff" d="M6.796 15.703a.33.33 0 0 1-.132-.277V14.15q0-.042.014-.084a.146.146 0 0 1 .18-.1q.008-.002.009.006.04.013.075.042a3.73 3.73 0 0 0 2.174.734c.475 0 .8-.094.998-.259a.83.83 0 0 0 .31-.673.94.94 0 0 0-.245-.654c-.155-.179-.47-.386-.964-.612l-.494-.235c-.701-.334-1.219-.7-1.539-1.11a2.36 2.36 0 0 1-.466-1.51 2.34 2.34 0 0 1 .79-1.798c.532-.485 1.276-.72 2.222-.72.786 0 1.425.122 1.906.372a.26.26 0 0 1 .145.258v1.186a.2.2 0 0 1-.056.141l-.014.014-.014.01q-.05.021-.1.014a.2.2 0 0 1-.075-.028l-.004-.005-.005-.005a3.3 3.3 0 0 0-1.802-.503c-.457 0-.762.103-.95.292a.86.86 0 0 0-.283.611c0 .226.08.447.235.617.156.178.47.386.95.611l.523.236c.772.357 1.313.743 1.619 1.167.306.428.466.946.452 1.468a2.32 2.32 0 0 1-.876 1.906q-.861.688-2.296.687a4.65 4.65 0 0 1-2.287-.523M16.992 15.868l-.01.005c-.37.15-.776.216-1.175.202-.575 0-1.026-.155-1.332-.485s-.447-.81-.447-1.42V10.78h-.673a.2.2 0 0 1-.141-.075.24.24 0 0 1-.047-.15v-.937a.2.2 0 0 1 .188-.217h.687c0-.489.047-.978.132-1.463v-.005a.25.25 0 0 1 .193-.197l1.313-.17a.2.2 0 0 1 .155.02c.051.032.08.093.08.154v.01c-.043.423-.061.974-.066 1.647h1.087a.193.193 0 0 1 .202.179v.997a.193.193 0 0 1-.179.203h-1.1239999999999999V14a.97.97 0 0 0 .131.583.53.53 0 0 0 .448.15 2 2 0 0 0 .489-.074.18.18 0 0 1 .16.023c.042.038.061.09.061.146v.781a.28.28 0 0 1-.127.25z"/></svg>