<svg xmlns="http://www.w3.org/2000/svg" width="24" height="24" fill="none"><path fill="#001E36" d="M5.541 2.25H18.46A3.54 3.54 0 0 1 22 5.79v12.418a3.54 3.54 0 0 1-3.541 3.541H5.54A3.54 3.54 0 0 1 2 18.21V5.791A3.54 3.54 0 0 1 5.541 2.25"/><path fill="#31A8FF" d="M12.499 16.033H7.218c-.094 0-.133-.047-.133-.149V7.368a.105.105 0 0 1 .094-.117H8.84c.04-.008.094.023.094.07v7.02h3.853c.086 0 .11.04.094.117l-.242 1.45a.16.16 0 0 1-.047.102.2.2 0 0 1-.093.024M13.833 9.364h1.459c.085 0 .148.054.171.132a.7.7 0 0 1 .07.195 3 3 0 0 1 .055.554c.25-.289.554-.53.89-.718.381-.21.81-.312 1.24-.296a.105.105 0 0 1 .117.094v1.661c0 .07-.04.094-.133.094a3.5 3.5 0 0 0-1.576.28 1.4 1.4 0 0 0-.452.312v4.252c0 .085-.031.117-.11.117h-1.622c-.07.007-.125-.032-.132-.102V11.29c0-.203 0-.405-.008-.624s-.008-.437-.016-.647a7 7 0 0 0-.047-.554c-.007-.04.016-.086.055-.094.016-.015.023-.015.039-.007"/></svg>