<svg xmlns="http://www.w3.org/2000/svg" width="24" height="24" fill="none"><path fill="#49021F" d="M5.542 2.25h12.916A3.54 3.54 0 0 1 22 5.792v12.416a3.54 3.54 0 0 1-3.542 3.542H5.542A3.54 3.54 0 0 1 2 18.208V5.792A3.54 3.54 0 0 1 5.542 2.25"/><path fill="#F36" d="M9.267 7.35v8.583c0 .092-.042.134-.117.134H7.517c-.075 0-.108-.042-.108-.134V7.35c0-.075.041-.108.116-.108H9.15c.05-.009.1.025.109.083q.01.013.008.025M14.084 16.167a4.14 4.14 0 0 1-1.792-.375 2.9 2.9 0 0 1-1.258-1.134c-.309-.508-.459-1.141-.459-1.9a3.42 3.42 0 0 1 1.784-3.05c.583-.325 1.283-.483 2.108-.483q.063-.002.175.008c.075.009.159.009.258.017V6.617c0-.059.025-.092.084-.092h1.691c.042-.008.075.025.084.058v7.95q.002.225.017.5c.016.175.024.342.033.484 0 .058-.025.108-.084.133a6.4 6.4 0 0 1-1.358.4c-.417.075-.85.117-1.283.117M14.9 14.5v-3.667a2 2 0 0 0-.225-.041q-.137-.015-.275-.017c-.325 0-.65.067-.941.217-.284.141-.525.35-.708.616-.184.267-.275.625-.275 1.059-.009.291.041.583.141.858q.124.34.375.592c.158.15.35.266.567.333.225.075.458.108.692.108q.187-.002.35-.016a.7.7 0 0 0 .3-.042"/></svg>