<svg xmlns="http://www.w3.org/2000/svg" width="24" height="24" fill="none"><path fill="#00005B" d="M5.542 2.25h12.916A3.54 3.54 0 0 1 22 5.792v12.416a3.54 3.54 0 0 1-3.542 3.542H5.542A3.54 3.54 0 0 1 2 18.208V5.792A3.54 3.54 0 0 1 5.542 2.25"/><path fill="#99F" d="M10.034 13.917h-3.1L6.3 15.883a.146.146 0 0 1-.158.117H4.575c-.092 0-.117-.05-.092-.15l2.684-7.692c.025-.083.05-.158.083-.258q.05-.264.05-.542c-.008-.041.025-.083.067-.091h2.158c.059 0 .1.025.108.066l3.042 8.5c.025.092 0 .134-.083.134H10.85c-.058.008-.117-.034-.133-.092l-.684-2zm-2.617-1.659h2.116a12 12 0 0 0-.191-.6q-.112-.34-.225-.716c-.084-.259-.159-.509-.242-.767s-.158-.5-.225-.742q-.098-.35-.183-.65H8.45q-.11.538-.283 1.075c-.125.4-.25.817-.384 1.234-.108.425-.241.816-.366 1.166M17.583 13.167h-2.641c.033.258.116.516.258.741.15.225.358.4.608.5.334.142.7.217 1.067.209.292-.009.583-.034.867-.092.258-.033.508-.1.741-.192.042-.033.067-.016.067.067v1.275a.4.4 0 0 1-.017.1.2.2 0 0 1-.058.058q-.398.175-.833.25a5.6 5.6 0 0 1-1.184.1c-.633 0-1.166-.1-1.6-.291a2.8 2.8 0 0 1-1.05-.792 3.1 3.1 0 0 1-.575-1.092 4.3 4.3 0 0 1-.175-1.216q-.002-.675.209-1.325.2-.627.625-1.142a3 3 0 0 1 1.008-.792c.392-.191.858-.258 1.392-.258a3 3 0 0 1 1.291.258c.342.15.642.375.875.667.217.283.392.6.5.95.109.333.159.675.159 1.017 0 .2-.009.375-.017.533-.017.158-.025.275-.033.35-.009.058-.059.108-.117.108-.05 0-.142.009-.275.017a4 4 0 0 1-.483.025c-.192 0-.392-.033-.609-.033m-2.641-1.217H16.7q.325.002.475-.008a.4.4 0 0 0 .192-.067v-.083a1.103 1.103 0 0 0-1.133-1.075 1.17 1.17 0 0 0-1.109.633c-.1.192-.158.392-.183.6"/></svg>