<svg xmlns="http://www.w3.org/2000/svg" width="24" height="24" fill="none"><path fill="#300" d="M5.542 2.25h12.916A3.54 3.54 0 0 1 22 5.792v12.416a3.54 3.54 0 0 1-3.542 3.542H5.542A3.54 3.54 0 0 1 2 18.208V5.792A3.54 3.54 0 0 1 5.542 2.25"/><path fill="#FF9A00" d="M11.667 13.917h-3.1l-.634 1.958a.146.146 0 0 1-.158.117H6.208c-.091 0-.116-.05-.091-.15L8.8 8.117q.036-.126.083-.275c.034-.175.05-.359.05-.542-.008-.042.025-.083.067-.092h2.158c.067 0 .1.025.109.067l3.041 8.583c.025.092 0 .134-.083.134h-1.742c-.058.008-.116-.034-.133-.092zM9.05 12.225h2.117c-.05-.175-.117-.383-.192-.6-.075-.225-.15-.467-.225-.717-.083-.258-.158-.508-.242-.766-.083-.259-.158-.5-.225-.742q-.098-.35-.183-.65h-.017c-.075.358-.166.717-.283 1.075-.125.4-.25.817-.383 1.233-.117.425-.242.817-.367 1.167m7.117-3.558c-.275.008-.542-.1-.742-.292a1.08 1.08 0 0 1-.283-.767.98.98 0 0 1 .3-.741c.2-.192.466-.292.741-.292.325 0 .575.1.759.292.183.2.283.466.275.741.008.284-.092.559-.292.767a.98.98 0 0 1-.758.292m-.934 7.233V9.483c0-.083.034-.116.109-.116h1.65c.075 0 .108.041.108.116V15.9c0 .092-.033.133-.109.133h-1.633c-.083 0-.125-.05-.125-.133"/></svg>