<svg xmlns="http://www.w3.org/2000/svg" width="24" height="24" fill="none"><path fill="#4E3188" fill-rule="evenodd" d="M22 3.953A1.954 1.954 0 0 0 20.047 2H3.953A1.954 1.954 0 0 0 2 3.953v16.094C2 21.125 2.875 22 3.953 22h16.094A1.954 1.954 0 0 0 22 20.047z" clip-rule="evenodd"/><path fill="url(#a)" fill-rule="evenodd" d="M20.535 14.697v5.057a.78.78 0 0 1-.765.781h-5.165l-3.372-5.838zm-6.698 5.838H4.7l4.571-7.905zm-9.87-.051a.78.78 0 0 1-.5-.672l-.002-3.486 3.714-6.43h2.903zm8.77-10.6a.75.75 0 0 1 .63.376l.767 1.33.007.01c.125.22.13.496.005.72q-.388.674-.778 1.346a.74.74 0 0 1-.625.364c-.49.002-1.47.001-1.47.001a.74.74 0 0 1-.639-.37l-.77-1.333a.75.75 0 0 1 .007-.736l.77-1.337a.75.75 0 0 1 .626-.372h1.47m7.269-6.378-6.08 10.525h6.61V4.246a.78.78 0 0 0-.53-.74m-9.113-.041h8.368L14.736 11.3l-4.184-7.244zm1.879 5.765H7.563l2.605-4.509z" clip-rule="evenodd"/><defs><radialGradient id="a" cx="0" cy="0" r="1" gradientTransform="translate(16.512 .259)scale(20.2794)" gradientUnits="userSpaceOnUse"><stop stop-color="#F9A6FF"/><stop offset="1" stop-color="#EA73FF"/></radialGradient></defs></svg>