<svg xmlns="http://www.w3.org/2000/svg" width="24" height="24" fill="none"><path fill="#134881" d="M22 3.953A1.954 1.954 0 0 0 20.047 2H3.953A1.954 1.954 0 0 0 2 3.953v16.094C2 21.125 2.875 22 3.953 22h16.094A1.954 1.954 0 0 0 22 20.047z"/><path fill="url(#a)" d="M20.535 19.76a.78.78 0 0 1-.781.775h-7.885L8.5 14.698h12.036zm-17.07-.006v-3.428L10.89 3.465h2.902L7.52 14.33l3.582 6.204H4.246a.78.78 0 0 1-.781-.781m9.515-5.722h-2.934a.913.913 0 0 1-.794-1.372l1.468-2.543zm6.774-10.567c.429 0 .778.347.781.775v9.792H13.75l-2.645-4.58 3.457-5.987z"/><defs><radialGradient id="a" cx="0" cy="0" r="1" gradientTransform="translate(16.52 .246)scale(20.2771)" gradientUnits="userSpaceOnUse"><stop stop-color="#6BE1FB"/><stop offset="1" stop-color="#38BDFA"/></radialGradient></defs></svg>