<svg xmlns="http://www.w3.org/2000/svg" width="24" height="24" fill="none"><path fill="#FF5A5F" d="M21.308 16.35c-.103-.247-.206-.516-.31-.743-.165-.372-.33-.723-.475-1.054l-.02-.02c-1.426-3.1-2.956-6.24-4.567-9.34l-.062-.124c-.165-.31-.33-.64-.496-.971-.207-.372-.413-.765-.744-1.137a3.34 3.34 0 0 0-2.624-1.28c-1.033 0-1.963.454-2.645 1.239-.31.372-.537.764-.744 1.136-.165.331-.33.662-.496.972l-.062.124c-1.59 3.099-3.14 6.24-4.566 9.34l-.02.04c-.146.331-.31.682-.476 1.054a14 14 0 0 0-.31.744c-.269.765-.351 1.488-.248 2.232a4.39 4.39 0 0 0 2.686 3.43c.537.227 1.095.33 1.674.33a5.46 5.46 0 0 0 2.604-.744c.847-.475 1.652-1.157 2.562-2.148.909.991 1.735 1.673 2.562 2.148a5.46 5.46 0 0 0 2.603.744c.579 0 1.157-.103 1.674-.33 1.446-.579 2.459-1.901 2.686-3.43.165-.724.083-1.447-.186-2.211m-9.319 1.075c-1.116-1.405-1.839-2.727-2.087-3.843-.103-.475-.124-.889-.062-1.26.042-.331.166-.62.33-.868.393-.558 1.055-.91 1.82-.91.764 0 1.446.331 1.817.91.166.248.29.537.331.868.062.372.042.805-.062 1.26-.248 1.095-.971 2.417-2.087 3.843m8.245.971a3.07 3.07 0 0 1-1.88 2.418c-.496.207-1.034.269-1.571.207a4.1 4.1 0 0 1-1.57-.538c-.744-.413-1.488-1.053-2.356-2.004 1.364-1.674 2.19-3.203 2.5-4.566a5.2 5.2 0 0 0 .104-1.757 3.35 3.35 0 0 0-.558-1.405c-.64-.93-1.715-1.467-2.914-1.467-1.198 0-2.273.558-2.913 1.467-.29.413-.476.889-.558 1.405a4.3 4.3 0 0 0 .103 1.757c.31 1.363 1.157 2.913 2.5 4.587-.847.95-1.611 1.59-2.355 2.004a4.1 4.1 0 0 1-1.57.537 3.3 3.3 0 0 1-1.571-.206 3.07 3.07 0 0 1-1.88-2.418 3.4 3.4 0 0 1 .186-1.612c.062-.206.165-.413.268-.66.145-.331.31-.683.476-1.034l.02-.041a226 226 0 0 1 4.546-9.278l.062-.124c.165-.31.33-.64.496-.95.165-.331.351-.64.579-.91a2.16 2.16 0 0 1 1.652-.764c.641 0 1.22.269 1.654.764.227.27.413.579.578.91.165.31.33.64.496.95l.062.124c1.57 3.079 3.1 6.22 4.525 9.298v.021c.166.33.31.703.475 1.033.104.248.207.455.27.661.164.538.226 1.054.144 1.591"/></svg>