<svg xmlns="http://www.w3.org/2000/svg" width="24" height="24" fill="none"><path fill="#000" d="M2.683 16.397c-.097-.011-.249-.098-.357-.187-1.027-1.007.292-2.164 1.818-2.836V11.46c.357.228.552.238.563.27l1.168-1.157-.39-.996c3.42-1.18 4.793-1.634 7.575-2.1l-.5-.465.813-.465c1.875.617 3.636.78 3.332 2.348.077-1.06-1.244-1.472-3.257-2.035l-.389.238.75.617c-3.332.574-5.377 1.222-7.812 2.062l.335.863-1.223 1.2c.207.055 2.337.77 4.555-.778 0 0 .044-.033.044-.044-.064-.108-.217-.227-.4-.389.649.044 1.07.617.995 1.212H10a1.1 1.1 0 0 0-.086-.541c-1.721 1.255-3.712 1.44-5.411.844v1.482c-.822.292-2.294 1.2-2.288 2.077.054.422.271.573.465.682"/><path fill="#F60" d="M9.642 16.018c-1.84.93-3.6 1.677-6.32 1.785-3.538-.076-4.09-2.424-2.413-4.88C2.49 10.445 5 8.205 8.993 6.809c1.157-.41 2.857-.876 4.5-.898 2.363-.022 4.65.714 4.502 2.976-.087 1.731-2.586 4.177-3.907 5.93-.562.767-.66 1.265.303 1.222 3.496-.227 6.666-1.439 9.609-2.694-1.99 1.353-12.281 6.449-12.324 2.976.01-.444.216-.909.551-1.407.325-.498.78-1.018 1.245-1.548.703-.8 2.444-2.715 3.03-3.863.984-2.175-1.223-2.287-3.128-2.954l-.812.465.499.466c-2.781.465-4.155.92-7.575 2.1l.39.995-1.168 1.157c-.033-.032-.207-.043-.563-.27v1.915c-1.526.675-2.85 1.828-1.818 2.835.108.087.26.174.358.188 1.875 1.06 6.968-.375 6.958-.375"/></svg>