<svg xmlns="http://www.w3.org/2000/svg" width="24" height="24" fill="none"><path fill="#E62E04" d="M3.563 2A1.56 1.56 0 0 0 2 3.563v16.875A1.563 1.563 0 0 0 3.563 22h16.875A1.563 1.563 0 0 0 22 20.438V3.563A1.563 1.563 0 0 0 20.438 2z"/><path fill="#B32100" d="M7.5 8.704c.077.312.034.65.109.968.263-.193.438-.51.402-.84-.006-.591-.67-1.055-1.227-.856a.97.97 0 0 0-.668.77c-.07.405.174.82.537 1.007-.036-.35-.12-.72-.026-1.062.144-.373.74-.365.873.013m10.356.424c.127-.46-.15-.991-.605-1.138a.945.945 0 0 0-1.172.473c-.215.395-.085.956.308 1.188.078-.317.02-.657.113-.964.146-.368.736-.358.87.015.085.333.008.683-.024 1.02.267-.083.433-.338.51-.594"/><path fill="#fff" d="M16.5 8.686c-.092.311-.035.648-.112.964a4.47 4.47 0 0 1-4.397 3.694c-.694-.001-1.379-.165-1.999-.479A4.47 4.47 0 0 1 7.61 9.672c-.075-.318-.032-.652-.109-.968-.132-.375-.729-.386-.873-.012-.093.345-.01.711.026 1.06.263 1.7 1.4 3.227 2.941 3.985a5.42 5.42 0 0 0 4.574.108c1.667-.72 2.912-2.327 3.179-4.125.032-.336.11-.686.024-1.019-.135-.373-.723-.383-.87-.016z"/><path fill="#F90" d="M3.563 2A1.56 1.56 0 0 0 2 3.563V6.53A1.56 1.56 0 0 1 3.563 4.97h16.875A1.563 1.563 0 0 1 22 6.53V3.563A1.563 1.563 0 0 0 20.438 2z"/></svg>