<svg xmlns="http://www.w3.org/2000/svg" width="24" height="24" fill="none"><path fill="#F90" d="M19.554 18.637c-8.466 4.03-13.721.658-17.085-1.39-.208-.129-.562.03-.255.383 1.12 1.359 4.793 4.634 9.587 4.634 4.797 0 7.65-2.618 8.008-3.074.354-.453.104-.703-.255-.553m2.378-1.313c-.227-.297-1.382-.352-2.11-.262-.727.086-1.82.531-1.725.799.048.1.148.055.648.01.502-.05 1.907-.228 2.2.155.294.386-.448 2.221-.584 2.518-.131.296.05.372.296.175.243-.197.682-.708.977-1.43.293-.727.471-1.74.298-1.965"/><path fill="#000" fill-rule="evenodd" d="M13.861 10.415c0 1.057.027 1.939-.508 2.878-.43.763-1.114 1.233-1.877 1.233-1.043 0-1.65-.794-1.65-1.966 0-2.313 2.073-2.733 4.035-2.733zm2.737 6.615a.57.57 0 0 1-.641.064c-.901-.748-1.062-1.095-1.558-1.809-1.488 1.52-2.542 1.974-4.473 1.974-2.283 0-4.062-1.409-4.062-4.23 0-2.202 1.195-3.702 2.894-4.435 1.473-.649 3.53-.763 5.103-.943V7.3c0-.645.05-1.409-.328-1.966-.332-.5-.966-.706-1.523-.706-1.034 0-1.958.53-2.183 1.63-.046.244-.226.485-.47.496l-2.634-.282c-.221-.05-.465-.23-.404-.57.607-3.19 3.488-4.152 6.069-4.152 1.32 0 3.046.351 4.088 1.351 1.32 1.233 1.194 2.878 1.194 4.668V12c0 1.27.527 1.828 1.023 2.515.176.244.214.538-.007.722-.554.461-1.538 1.32-2.08 1.801z" clip-rule="evenodd"/></svg>