<svg xmlns="http://www.w3.org/2000/svg" width="24" height="24" fill="none"><path fill="#34A853" d="m22.939 17.93-.022-.134a11 11 0 0 0-1.1-3.295 11.2 11.2 0 0 0-2.015-2.742 11.12 11.12 0 0 0-1.952-1.55q.007-.01.012-.02l.667-1.152.65-1.125.468-.808q.055-.096.088-.197a1.015 1.015 0 0 0-1.066-1.318 1.008 1.008 0 0 0-.77.499l-.468.807-.651 1.125-.667 1.152-.072.126-.101-.04A11 11 0 0 0 12 8.535h-.113a11 11 0 0 0-3.905.755l-.068-.118q-.334-.575-.666-1.152L6.129 6.088a1.008 1.008 0 0 0-1.806.114 1.018 1.018 0 0 0 .057.902l.467.809.652 1.124.666 1.152.005.01a11.1 11.1 0 0 0-5.085 7.598l-.022.135q-.036.24-.063.485h22a11 11 0 0 0-.063-.485z"/><path fill="#202124" d="M17.723 15.37c.44-.294.504-.973.142-1.517-.36-.544-1.01-.747-1.45-.454-.44.294-.505.973-.143 1.517.36.544 1.01.747 1.45.454M7.748 14.918c.361-.544.297-1.223-.143-1.517s-1.09-.09-1.451.454-.297 1.223.143 1.516c.44.294 1.09.09 1.45-.453"/></svg>