<svg xmlns="http://www.w3.org/2000/svg" width="24" height="24" fill="none"><path fill="url(#a)" d="M17.959 2.003H6.042a4.037 4.037 0 0 0-4.04 4.039V17.96a4.037 4.037 0 0 0 4.04 4.036h11.92A4.04 4.04 0 0 0 22 17.958V6.042a4.04 4.04 0 0 0-4.041-4.04"/><path fill="#fff" d="m11.916 6.596.404-.7a.91.91 0 1 1 1.58.91L9.998 13.56h2.822c.915 0 1.427 1.074 1.03 1.82H5.577a.907.907 0 0 1-.91-.91c0-.506.405-.91.91-.91h2.32l2.969-5.147-.928-1.61a.912.912 0 0 1 1.58-.909zm-3.51 9.72-.874 1.517a.91.91 0 1 1-1.58-.91l.65-1.124c.735-.227 1.332-.053 1.804.517m7.533-2.751h2.367c.505 0 .91.405.91.91 0 .504-.405.91-.91.91h-1.314l.887 1.539a.912.912 0 0 1-1.58.91q-2.243-3.887-3.361-5.824c-.763-1.315-.218-2.634.32-3.082q.895 1.538 2.681 4.637"/><defs><linearGradient id="a" x1="12.002" x2="12.002" y1="2.003" y2="21.997" gradientUnits="userSpaceOnUse"><stop stop-color="#18BFFB"/><stop offset="1" stop-color="#2072F3"/></linearGradient></defs></svg>