<svg xmlns="http://www.w3.org/2000/svg" width="24" height="24" fill="none"><path fill="#000" d="M20.623 18.145a12 12 0 0 1-1.15 2.126q-.906 1.33-1.48 1.842-.885.839-1.901.862-.732 0-1.757-.432-1.029-.431-1.892-.43-.906-.001-1.945.43-1.04.434-1.68.455-.975.044-1.946-.885-.62-.557-1.548-1.907-.995-1.441-1.637-3.347-.686-2.06-.687-3.99 0-2.212.93-3.811A5.54 5.54 0 0 1 5.875 7.03a5.1 5.1 0 0 1 2.63-.765q.774.002 2.036.488 1.26.487 1.614.489.266 0 1.79-.576 1.44-.532 2.433-.445 2.699.224 4.047 2.194-2.411 1.506-2.387 4.21.022 2.107 1.481 3.5.66.644 1.48.999-.178.531-.377 1.02M16.499 1.44q0 1.651-1.168 3.079c-.94 1.13-2.075 1.783-3.307 1.68a4 4 0 0 1-.025-.417c0-1.056.446-2.186 1.24-3.11a4.8 4.8 0 0 1 1.51-1.168q.915-.46 1.728-.504.023.22.022.44"/></svg>