<svg xmlns="http://www.w3.org/2000/svg" width="24" height="24" fill="none"><path fill="#783BF9" fill-rule="evenodd" d="M8.979 2.017h6.06c2 0 3.008 0 4.093.341a4.24 4.24 0 0 1 2.527 2.527C22 5.97 22 6.962 22 8.977v6.046c0 2 0 3.007-.341 4.092a4.24 4.24 0 0 1-2.527 2.527c-1.085.341-2.077.341-4.092.341H8.994c-2 0-3.007 0-4.092-.341a4.23 4.23 0 0 1-2.542-2.527c-.341-1.085-.341-2.092-.341-4.092V8.977c0-2 0-3.007.34-4.077a4.3 4.3 0 0 1 2.543-2.542c1.07-.341 2.077-.341 4.077-.341" clip-rule="evenodd"/><path fill="#F99DF0" fill-rule="evenodd" d="M16.047 10.667a4.02 4.02 0 0 1-4.015 4.03h-.03a4.02 4.02 0 0 1-4.046-4v-.154h1.426v.124a2.626 2.626 0 0 0 2.62 2.62 2.626 2.626 0 0 0 2.62-2.62v-.124h1.425zm-.65-3.969A3.63 3.63 0 0 0 12 8.791a3.63 3.63 0 0 0-3.394-2.093 3.834 3.834 0 0 0-3.783 3.814c0 4.108 3.938 7.425 7.177 7.425 3.24 0 7.178-3.333 7.178-7.425 0-2.108-1.752-3.814-3.783-3.814" clip-rule="evenodd"/></svg>