<svg xmlns="http://www.w3.org/2000/svg" width="24" height="24" fill="none"><path fill="#2319DC" d="M5.028 12.588c2.368-.509 2.045-3.342 1.975-3.961-.116-.955-1.239-2.623-2.762-2.49-1.917.172-2.197 2.941-2.197 2.941-.26 1.283.62 4.02 2.984 3.51m4.397-4.75c1.308 0 2.364-1.506 2.364-3.367s-1.056-3.365-2.364-3.365S7.058 2.61 7.058 4.471s1.06 3.367 2.367 3.367m5.636.222c1.75.23 2.872-1.638 3.096-3.052.229-1.413-.902-3.056-2.138-3.338-1.241-.285-2.791 1.702-2.93 2.999-.17 1.586.224 3.167 1.972 3.391m6.93 2.376c0-.676-.56-2.715-2.646-2.715-2.09 0-2.366 1.924-2.366 3.284 0 1.297.108 3.108 2.704 3.051 2.593-.057 2.308-2.938 2.308-3.62m-2.646 5.94s-2.705-2.093-4.284-4.356c-2.143-3.335-5.185-1.977-6.202-.283-1.014 1.698-2.59 2.771-2.816 3.056-.227.279-3.267 1.921-2.592 4.92.676 2.997 3.046 2.94 3.046 2.94s1.747.171 3.773-.282c2.03-.452 3.777.11 3.777.11s4.735 1.589 6.03-1.467c1.295-3.053-.732-4.639-.732-4.639"/><path fill="#fff" d="M9.845 13.458v2.013h-1.64s-1.64.136-2.213 1.994c-.2 1.24.177 1.971.242 2.128.067.155.596 1.063 1.927 1.33h3.078V13.48zm-.024 6.243H8.58s-.864-.045-1.127-1.04c-.136-.44.02-.95.088-1.15.063-.2.353-.663.951-.842H9.82zM11.994 15.652v3.918s.064.975 1.439 1.33h3.542v-5.249h-1.529v3.94h-1.458s-.467-.067-.554-.442v-3.52z"/></svg>