<svg xmlns="http://www.w3.org/2000/svg" width="24" height="24" fill="none"><path fill="#1769FF" d="M12 22c5.523 0 10-4.477 10-10S17.523 2 12 2 2 6.477 2 12s4.477 10 10 10"/><path fill="#fff" d="M9.065 7.469q.647 0 1.18.114.534.113.914.375.38.26.59.692t.21 1.066q0 .686-.31 1.142-.312.458-.92.75.837.24 1.25.843.412.602.412 1.454 0 .686-.266 1.187a2.3 2.3 0 0 1-.718.818 3.2 3.2 0 0 1-1.028.47 4.6 4.6 0 0 1-1.186.152H4.8V7.469zm-.254 3.668q.533 0 .876-.254.345-.254.343-.825 0-.316-.115-.52a.84.84 0 0 0-.305-.317 1.3 1.3 0 0 0-.437-.159 3 3 0 0 0-.515-.044H6.794v2.12zm.115 3.845q.283.001.558-.056.267-.058.47-.19a.97.97 0 0 0 .324-.363q.12-.228.12-.583 0-.698-.393-.996-.395-.3-1.04-.299H6.793v2.488zm5.973-.19q.405.393 1.168.393.544 0 .939-.272.393-.273.482-.578h1.587q-.381 1.18-1.168 1.688-.788.508-1.904.508a3.8 3.8 0 0 1-1.396-.247 2.9 2.9 0 0 1-1.054-.705 3.2 3.2 0 0 1-.667-1.091 4 4 0 0 1-.234-1.396q0-.735.24-1.37.242-.636.687-1.098.444-.463 1.06-.73.615-.266 1.364-.266.838 0 1.46.324.622.323 1.022.87t.578 1.244q.177.697.127 1.46h-4.735q.037.872.444 1.266m2.037-3.452q-.324-.355-.984-.355-.432 0-.717.145-.285.147-.457.362a1.3 1.3 0 0 0-.24.457q-.07.241-.083.431h2.932q-.128-.684-.45-1.04m-2.79-3.411h3.664v1.016h-3.663z"/></svg>