<svg xmlns="http://www.w3.org/2000/svg" width="24" height="24" fill="none"><path fill="#2684FF" d="M3.057 3.263a.627.627 0 0 0-.627.727l2.663 16.166a.85.85 0 0 0 .834.712h12.775a.63.63 0 0 0 .627-.527l2.663-16.347a.626.626 0 0 0-.627-.728zM14.27 14.946h-4.077L9.089 9.178h6.169z"/><path fill="url(#a)" d="M21.145 9.178h-5.887l-.988 5.768h-4.077l-4.815 5.715a.85.85 0 0 0 .55.207h12.777a.63.63 0 0 0 .627-.527z"/><defs><linearGradient id="a" x1="22.506" x2="12.777" y1="10.793" y2="18.387" gradientUnits="userSpaceOnUse"><stop offset=".18" stop-color="#0052CC"/><stop offset="1" stop-color="#2684FF"/></linearGradient></defs></svg>