<svg xmlns="http://www.w3.org/2000/svg" width="24" height="24" fill="none"><path fill="#fff" d="M18.822 16.247c-.889.907-2.132 1.42-3.479 1.421-1.347.003-2.591-.506-3.48-1.41a4.15 4.15 0 0 1-.951-1.487 3.9 3.9 0 0 1-.218-1.661 3.9 3.9 0 0 1 .477-1.564c.26-.472.617-.897 1.058-1.257a4.93 4.93 0 0 1 3.114-1.087 4.92 4.92 0 0 1 3.115 1.078c.44.359.797.783 1.056 1.253.267.482.43 1.015.478 1.564.05.563-.025 1.13-.219 1.661a4.2 4.2 0 0 1-.95 1.489"/><path fill="#005385" d="M12.47 13.168c.04-.733.4-1.38.942-1.838a3.14 3.14 0 0 1 2.028-.725c.78 0 1.496.275 2.028.725.541.459.901 1.104.943 1.838.04.754-.262 1.454-.794 1.973a3.1 3.1 0 0 1-2.177.86 3.1 3.1 0 0 1-2.178-.86c-.53-.519-.833-1.22-.792-1.973"/><path fill="#FF7021" d="M7.738 14.652c.006.286.097.844.234 1.28a6.76 6.76 0 0 0 1.46 2.528c.7.773 1.56 1.394 2.555 1.834 1.046.463 2.179.7 3.355.697a8.2 8.2 0 0 0 3.354-.71 7.6 7.6 0 0 0 2.553-1.842 6.8 6.8 0 0 0 1.458-2.532c.144-.46.237-.934.274-1.413a6.5 6.5 0 0 0-.976-3.952 7.2 7.2 0 0 0-1.698-1.873v-.001l-6.87-5.276-.018-.014c-.452-.346-1.21-.345-1.705.002-.502.351-.56.932-.114 1.298h-.002l2.867 2.333-8.738.008h-.012c-.722.001-1.416.476-1.554 1.074-.14.61.35 1.115 1.101 1.119v.003l4.428-.01-7.903 6.067-.03.022c-.744.57-.986 1.52-.517 2.122.477.61 1.49.611 2.244.002l4.313-3.529s-.063.477-.059.763m11.084 1.595c-.89.907-2.133 1.42-3.48 1.421-1.347.003-2.591-.506-3.48-1.41a4.15 4.15 0 0 1-.95-1.487 3.9 3.9 0 0 1-.219-1.661 3.9 3.9 0 0 1 .477-1.564c.26-.472.617-.897 1.058-1.257a4.93 4.93 0 0 1 3.115-1.087 4.92 4.92 0 0 1 3.114 1.078c.44.359.797.782 1.056 1.253.268.482.43 1.015.478 1.564.05.563-.025 1.13-.218 1.661a4.2 4.2 0 0 1-.951 1.489"/></svg>