<svg xmlns="http://www.w3.org/2000/svg" width="24" height="24" fill="none"><path fill="#F06A35" d="M4.285 21.921a3.2 3.2 0 0 1-.995-.447c-.251-.171-.619-.526-.759-.732a3.8 3.8 0 0 1-.446-.982c-.082-.305-.083-.426-.085-7.745C2 4.734 2 4.574 2.08 4.261a3.02 3.02 0 0 1 2.288-2.2c.324-.072 14.826-.085 15.176-.013a2.98 2.98 0 0 1 2.124 1.625c.343.685.313-.069.328 8.061.01 5.173.001 7.345-.032 7.615-.154 1.267-1.026 2.249-2.28 2.57-.321.081-.433.083-7.718.08-7.044-.002-7.406-.005-7.68-.078"/><path fill="#fff" d="M14.83 18.164c.899-.123 1.603-.483 2.263-1.16.478-.488.777-1.018.973-1.72.08-.292.088-.434.103-2.148.01-1.293.001-1.899-.032-2.051-.049-.222-.187-.428-.345-.514-.048-.026-.359-.06-.69-.075-.555-.024-.617-.035-.793-.138-.278-.163-.354-.34-.355-.818-.001-.914-.381-1.762-1.131-2.528-.535-.546-1.13-.915-1.811-1.122-.163-.05-.528-.066-1.75-.08-1.917-.023-2.342.016-2.995.276-1.203.48-2.068 1.492-2.383 2.79-.06.243-.07.633-.085 2.876-.017 2.81.002 3.223.177 3.78.145.46.291.742.592 1.142.574.762 1.433 1.313 2.292 1.468.41.074 5.454.093 5.97.022"/><path fill="#F06A35" d="M9.528 10.45c-.459-.126-.63-.787-.293-1.128.216-.218.275-.227 1.626-.227 1.212 0 1.253.003 1.431.093.258.13.37.314.37.606 0 .265-.105.45-.34.598-.125.08-.2.085-1.389.092-.733.005-1.318-.01-1.405-.034m-.057 4.443a.77.77 0 0 1-.413-.537.78.78 0 0 1 .227-.62c.195-.178.281-.184 2.688-.186 2.477-.001 2.464-.003 2.699.217a.684.684 0 0 1-.138 1.09l-.411.066-2.14.025c-1.882.022-2.414-.012-2.512-.055"/></svg>