<svg xmlns="http://www.w3.org/2000/svg" width="24" height="24" fill="none"><path fill="#0C3B7C" fill-rule="evenodd" d="M22.248 5.804a3.85 3.85 0 0 0-3.85-3.848H5.602a3.85 3.85 0 0 0-3.85 3.848v12.348A3.85 3.85 0 0 0 5.603 22h12.796a3.85 3.85 0 0 0 3.85-3.848z" clip-rule="evenodd"/><path fill="#fff" d="m11.067 15.223-1.651-.002v-1.973c0-.422.164-.641.524-.692h1.127c.803 0 1.322.507 1.322 1.326 0 .842-.506 1.34-1.322 1.341M9.416 9.9v-.52c0-.454.192-.67.614-.698h.845c.724 0 1.159.433 1.159 1.16 0 .552-.298 1.197-1.133 1.197H9.417zm3.758 1.97-.298-.168.26-.222c.304-.261.812-.847.812-1.858 0-1.55-1.2-2.548-3.06-2.548H8.526c-.551.02-.993.468-.998 1.022v8.788h3.402c2.066 0 3.4-1.125 3.4-2.867 0-.938-.431-1.74-1.155-2.147"/><path fill="#00BAFC" d="M15.216 15.669a1.211 1.211 0 1 1 2.422 0c0 .67-.544 1.215-1.213 1.215a1.21 1.21 0 0 1-1.209-1.215"/></svg>