<svg xmlns="http://www.w3.org/2000/svg" width="24" height="24" fill="none"><path fill="#7D2AE7" d="M12 22c5.523 0 10-4.477 10-10S17.523 2 12 2 2 6.477 2 12s4.477 10 10 10"/><path fill="url(#a)" d="M12 22c5.523 0 10-4.477 10-10S17.523 2 12 2 2 6.477 2 12s4.477 10 10 10"/><path fill="url(#b)" d="M12 22c5.523 0 10-4.477 10-10S17.523 2 12 2 2 6.477 2 12s4.477 10 10 10"/><path fill="url(#c)" d="M12 22c5.523 0 10-4.477 10-10S17.523 2 12 2 2 6.477 2 12s4.477 10 10 10"/><path fill="url(#d)" d="M12 22c5.523 0 10-4.477 10-10S17.523 2 12 2 2 6.477 2 12s4.477 10 10 10"/><path fill="#fff" d="M16.317 14.051c-.082 0-.155.07-.23.222-.854 1.73-2.328 2.955-4.034 2.955-1.972 0-3.194-1.78-3.194-4.24 0-4.167 2.322-6.576 4.36-6.576.954 0 1.536.6 1.536 1.552 0 1.13-.643 1.73-.643 2.129 0 .179.111.287.332.287.887 0 1.929-1.02 1.929-2.46 0-1.396-1.216-2.423-3.255-2.423-3.37 0-6.365 3.124-6.365 7.447 0 3.346 1.911 5.557 4.86 5.557 3.129 0 4.938-3.113 4.938-4.123 0-.224-.114-.327-.234-.327"/><defs><radialGradient id="a" cx="0" cy="0" r="1" gradientTransform="rotate(-49.416 24.368 3.492)scale(15.4683)" gradientUnits="userSpaceOnUse"><stop stop-color="#6420FF"/><stop offset="1" stop-color="#6420FF" stop-opacity="0"/></radialGradient><radialGradient id="b" cx="0" cy="0" r="1" gradientTransform="rotate(54.703 -.484 9.188)scale(17.4434)" gradientUnits="userSpaceOnUse"><stop stop-color="#00C4CC"/><stop offset="1" stop-color="#00C4CC" stop-opacity="0"/></radialGradient><radialGradient id="c" cx="0" cy="0" r="1" gradientTransform="matrix(10.76846 -10.84216 4.98644 4.95254 5.863 19.726)" gradientUnits="userSpaceOnUse"><stop stop-color="#6420FF"/><stop offset="1" stop-color="#6420FF" stop-opacity="0"/></radialGradient><radialGradient id="d" cx="0" cy="0" r="1" gradientTransform="rotate(66.52 1.51 10.107)scale(15.7459 26.3779)" gradientUnits="userSpaceOnUse"><stop stop-color="#00C4CC" stop-opacity=".726"/><stop offset="0" stop-color="#00C4CC"/><stop offset="1" stop-color="#00C4CC" stop-opacity="0"/></radialGradient></defs></svg>