<svg xmlns="http://www.w3.org/2000/svg" width="24" height="24" fill="none"><path fill="#000" fill-rule="evenodd" d="M11.424 1.176a1.04 1.04 0 0 1 1.151 0l9.96 6.607c.29.193.465.519.465.868v6.698c0 .349-.175.675-.465.867l-9.96 6.608a1.04 1.04 0 0 1-1.15 0l-9.96-6.608A1.04 1.04 0 0 1 1 15.35V8.651c0-.349.175-.675.465-.868zm-8.342 9.415v2.803l2.098-1.41zm3.976 2.638-3.143 2.114 7.044 4.673v-4.198zm5.983 2.589v4.198l7.044-4.673-3.143-2.114zm5.779-3.835 2.098 1.411v-2.803zm1.256-3.332-3.126 2.074-3.91-2.628V3.984zM10.96 3.984v4.113L7.05 10.725 3.924 8.651zm1.04 5.921-3.07 2.066 3.07 2.039 3.073-2.039z" clip-rule="evenodd"/></svg>