<svg xmlns="http://www.w3.org/2000/svg" width="24" height="24" fill="none"><path fill="#8DC63F" d="M22 11.956a10 10 0 1 1-20 .088 10 10 0 0 1 20-.088"/><path fill="#F9E988" d="M21.246 11.958a9.247 9.247 0 1 1-18.494.084 9.247 9.247 0 0 1 18.494-.084"/><path fill="#fff" d="M12.169 3.353a5 5 0 0 1 1.777 0 5.4 5.4 0 0 1 1.697.569c.527.29.983.683 1.436 1.053.453.371.906.746 1.335 1.16.439.406.821.868 1.138 1.374.327.504.595 1.043.798 1.607a7.3 7.3 0 0 1 .328 3.516h-.06a16.5 16.5 0 0 0-.865-3.304 13 13 0 0 0-.68-1.543 15 15 0 0 0-.9-1.443 5.3 5.3 0 0 0-1.207-1.219c-.47-.334-1.009-.551-1.531-.757a18 18 0 0 0-1.588-.566 20 20 0 0 0-1.676-.388z"/><path fill="#8BC53F" d="M16.689 8.692c-.672-.195-1.37-.47-2.072-.748-.04-.177-.197-.398-.513-.666-.46-.4-1.324-.39-2.071-.211-.824-.194-1.639-.262-2.424-.075-6.39 1.76-2.766 6.062-5.113 10.382.334.708 3.934 4.846 9.143 3.733 0 0-1.78-4.281 2.24-6.336 3.26-1.672 5.617-4.768.81-6.08"/><path fill="#fff" d="M17.478 11.506a.388.388 0 1 1-.776.006.388.388 0 0 1 .776-.006"/><path fill="#009345" d="M12.033 7.065c.465.034 2.15.584 2.584.879-.36-1.054-1.58-1.191-2.584-.88"/><path fill="#fff" d="M12.476 9.722a1.792 1.792 0 1 1-3.583 0 1.792 1.792 0 0 1 3.583 0"/><path fill="#58595B" d="M11.946 9.738a1.258 1.258 0 1 1-2.516.002 1.258 1.258 0 0 1 2.516-.002"/><path fill="#8BC53F" d="M18.926 12.294c-1.449 1.02-3.096 1.791-5.433 1.791-1.094 0-1.315-1.159-2.038-.592-.374.294-1.686.948-2.734.902s-2.74-.663-3.209-2.891c-.186 2.228-.282 3.87-1.119 5.751 1.667 2.67 5.64 4.727 9.246 3.842-.387-2.706 1.978-5.357 3.31-6.713.504-.513 1.476-1.351 1.977-2.094z"/><path fill="#58595B" d="M18.869 12.362a6.5 6.5 0 0 1-1.53.98 9.7 9.7 0 0 1-1.717.626c-.59.153-1.208.268-1.833.211-.624-.057-1.264-.27-1.676-.738l.02-.023c.51.33 1.093.446 1.674.463a8 8 0 0 0 1.761-.147 9.6 9.6 0 0 0 1.711-.527 6.4 6.4 0 0 0 1.571-.868z"/></svg>