<svg xmlns="http://www.w3.org/2000/svg" width="24" height="24" fill="none"><path fill="#2B6AFF" d="M22 11.896v5.526c0 .557-.041 1.11-.156 1.659-.178.852-.648 1.52-1.309 2.066-.533.44-1.15.678-1.83.765q-.72.09-1.446.087-5.383 0-10.765-.002a7.7 7.7 0 0 1-1.585-.156 3.4 3.4 0 0 1-1.59-.828c-.49-.44-.864-.96-1.066-1.593a5 5 0 0 1-.203-1.113c-.049-.59-.046-1.18-.046-1.77q0-5.042.003-10.085c0-.623.057-1.243.232-1.844.126-.43.35-.804.629-1.148.418-.514.923-.91 1.544-1.153a4.2 4.2 0 0 1 1.095-.243A15 15 0 0 1 7.122 2h10.12c.39 0 .782.002 1.17.046.738.085 1.44.27 2.041.73.73.557 1.21 1.282 1.4 2.189.098.473.147.956.147 1.437z"/><path fill="#FEFEFE" d="m14.274 11.17-.325.51c-.407.643-.798 1.293-1.194 1.94-.126.206-.276.391-.473.536-.601.443-1.222-.005-1.293-.53q-.075-.509-.084-1.022c-.003-.396 0-.793 0-1.186 0-.057-.006-.115-.008-.172-.028 0-.03.022-.039.032-.748 1.239-1.536 2.455-2.3 3.682-.047.073-.09.15-.14.224-.022.033-.022.054.008.087.773.8 1.692 1.342 2.801 1.511q2.023.312 3.668-.91c.133-.098.254-.213.385-.317.161-.125.339-.202.552-.153q.045.01.076.039.074.072.153.136c.165.12.173.282.129.46-.055.21-.2.355-.36.486-.744.617-1.58 1.057-2.531 1.257-1.82.385-3.48.019-4.941-1.132-1.115-.877-1.823-2.024-2.135-3.413a5.9 5.9 0 0 1-.068-2.175c.334-2.268 1.951-3.987 3.763-4.676a5.6 5.6 0 0 1 1.826-.366c.683-.022 1.352.038 2.008.249a5.9 5.9 0 0 1 2.331 1.388 5.9 5.9 0 0 1 1.725 3.186c.117.607.145 1.22.046 1.829-.117.735-.713 1.464-1.52 1.617-.797.153-1.54-.26-1.863-1.038-.14-.336-.178-.689-.178-1.047v-.989q0-.017-.002-.033z"/><path fill="#2B6AFF" d="M11.984 12.763v-.495c0-.68.003-1.364-.005-2.044-.003-.276-.066-.539-.268-.746a.63.63 0 0 0-.697-.134.94.94 0 0 0-.405.339c-.24.341-.442.707-.67 1.057-.732 1.118-1.415 2.266-2.136 3.389-.058.09-.107.093-.156-.008a4 4 0 0 1-.161-.37 4.7 4.7 0 0 1-.328-1.663c-.017-1.192.317-2.271 1.068-3.2.738-.913 1.687-1.506 2.845-1.72 1.675-.306 3.13.162 4.34 1.345.754.735 1.191 1.648 1.366 2.69.066.382.08.773.041 1.158-.03.284-.145.533-.371.716-.189.15-.402.235-.64.14-.251-.1-.38-.304-.423-.567-.063-.382-.055-.768-.047-1.153.006-.328.027-.661-.044-.986-.084-.377-.303-.645-.694-.744-.188-.046-.363.017-.527.104a1.76 1.76 0 0 0-.596.563c-.284.402-.53.83-.792 1.249l-.656 1.05-.025.035z"/></svg>