<svg xmlns="http://www.w3.org/2000/svg" width="24" height="24" fill="none"><path fill="#2AC64B" d="M4.785 8.424a11 11 0 0 0-.69-.288q-.06-.448-.088-.898a4 4 0 0 1 .024-.731c.161.026.39.066.675.122q-.043.509 0 1.075.028.362.08.72m2.657 1.568a15.6 15.6 0 0 0-1.872-1.18 9 9 0 0 1-.118-2.028c.513.114 1.118.26 1.785.445-.044.871.038 1.809.205 2.763m6.977.364q-.01.113-.023.228a10 10 0 0 0-2.682 2.019q-.403.427-.738.855-.376-.478-.804-.963a17 17 0 0 0-.384-.421c-.213-1.43-.35-2.84-.374-4.161 1.652.586 3.436 1.382 5.006 2.443"/><path fill="#008A5A" d="M4.987 5.24c-.138.421-.24.884-.282 1.389a25 25 0 0 0-.675-.122q.028-.226.08-.447c.202-.218.495-.506.877-.82"/><path fill="#009550" d="M8.221 3.418c-.488.897-.88 2.104-.979 3.716l-.005.095a34 34 0 0 0-1.785-.445q.001-.031.004-.064c.064-.845.313-1.62.69-2.308a10.8 10.8 0 0 1 2.075-.994"/><path fill="#00983E" d="M14.42 10.356c-1.57-1.06-3.354-1.857-5.006-2.443-.032-1.575.09-3.022.417-4.221q.012-.05.027-.098c1.31.775 3.018 1.638 4.638 2.017.142 1.43.1 3.053-.077 4.745"/><path fill="#009A37" d="M19.983 7.238q-.06.996-.282 1.98-.282.01-.642.041c.105-.507.183-1.026.225-1.555.142-1.779-.432-3.134-1.098-4.08q.293.083.552.163c.747.947 1.324 2.163 1.245 3.45m-1.66 2.107c-.522.074-1.11.19-1.73.368.143-.893.204-1.765.155-2.579-.113-1.856-.616-3.175-1.207-4.102.556.092 1.083.2 1.57.314.775.917 1.324 2.06 1.423 3.374.062.838-.027 1.731-.212 2.625"/><path fill="#00863F" d="M14.497 5.611c-1.621-.38-3.328-1.242-4.639-2.017q.105-.36.232-.656.36-.062.742-.1a16.5 16.5 0 0 1 3.019-.015q.174.38.309.869c.159.585.27 1.23.337 1.92"/><path fill="#06CBF6" d="M7.499 1.959c-.054.033-1.795 1.105-2.511 3.28a9 9 0 0 0-.878.82C4.584 4.008 6.473 2.33 7.5 1.96m1.101.846q-.196.28-.38.614c-.8.283-1.49.633-2.074.993a6.8 6.8 0 0 1 1.78-2.069c.167.12.397.279.674.462"/><path fill="url(#a)" d="M18.739 3.787a27 27 0 0 0-.552-.163C17.4 2.505 16.49 1.958 16.49 1.958c.605.218 1.51.892 2.249 1.829m-1.628-.44a24 24 0 0 0-1.57-.315c-.997-1.566-2.25-2.01-2.31-2.031 1.343.269 2.822 1.097 3.88 2.345m-3.26-.524c-.974-.08-1.996-.09-3.02.015q-.381.038-.741.1C10.809 1.242 11.979 1 11.979 1h.033s1.117.231 1.839 1.823M10.76 1.001c-.058.02-1.19.422-2.16 1.804a25 25 0 0 1-.674-.462c.883-.69 1.892-1.154 2.834-1.342"/><path fill="#666565" d="M11.995 23h1.202l.445-1.941h-3.294L10.792 23z"/><path fill="url(#b)" fill-rule="evenodd" d="M7.453 14.31c.232.48.452.906.642 1.262.326.61.636 1.128.955 1.6q.137-.486.352-1.017a35 35 0 0 1-.734-1.816c-.514-1.383-.97-2.886-1.226-4.347a15.6 15.6 0 0 0-1.873-1.18c.318 1.965 1.153 3.99 1.884 5.499" clip-rule="evenodd"/><path fill="url(#c)" fill-rule="evenodd" d="M6.367 14.286q.196.344.408.69a24.5 24.5 0 0 0 2.102 2.895q.03-.148.069-.303a32.736 32.736 0 0 1-2.08-3.27c-.854-1.557-1.765-3.614-2.081-5.874a11 11 0 0 0-.691-.288c.273 2.027 1.048 4.016 2.273 6.15" clip-rule="evenodd"/><path fill="url(#d)" fill-rule="evenodd" d="M9.908 12.828c.085.512.186 1.032.294 1.545l.031.147q.324-.527.743-1.062-.39-.493-.804-.963a17 17 0 0 0-.384-.421q.056.376.12.754" clip-rule="evenodd"/><path fill="#97CC1A" fill-rule="evenodd" d="M19.06 9.26c-.306 1.484-.845 2.86-1.418 4.036q.175.176.338.347c.817-1.517 1.397-2.97 1.72-4.424q-.28.01-.64.04m-2.466.453a20 20 0 0 1-.469 2.147c.337.305.707.646 1.07.996.453-1.084.878-2.299 1.128-3.511-.521.075-1.109.19-1.729.368" clip-rule="evenodd"/><path fill="url(#e)" fill-rule="evenodd" d="M11.714 12.603q-.403.427-.737.855a23 23 0 0 1 2.228 3.388c.191-.738.39-1.555.566-2.392a39 39 0 0 0 .625-3.87 10 10 0 0 0-2.682 2.018m5.928.693q-.031.068-.066.134c-.647 1.308-1.329 2.358-1.76 3.021-.496.765-1.165 1.662-1.696 2.348l.056.142c.821-.894 2.046-2.336 3.038-3.964a29 29 0 0 0 .767-1.334 24 24 0 0 0-.339-.347m-1.517-1.436-.026.094c-.629 2.272-1.588 4.474-2.346 5.992q.123.27.223.502c.7-.834 1.278-1.678 1.919-2.876.352-.66.808-1.558 1.242-2.58l.058-.136c-.363-.35-.732-.691-1.07-.996" clip-rule="evenodd"/><path fill="url(#f)" fill-rule="evenodd" d="M12.627 19.924c.512-.53.95-1.002 1.348-1.476q-.099-.231-.223-.502c-.538 1.075-.976 1.806-1.125 1.977" clip-rule="evenodd"/><path fill="url(#g)" fill-rule="evenodd" d="M13.256 19.892c.027-.026.39-.375.92-.95l-.056-.143c-.474.614-.836 1.06-.864 1.093" clip-rule="evenodd"/><path fill="url(#h)" fill-rule="evenodd" d="M10.233 14.52c.605 2.83 1.435 5.426 1.435 5.426h.654s.421-1.318.883-3.1a23 23 0 0 0-2.229-3.388q-.419.536-.743 1.062" clip-rule="evenodd"/><path fill="url(#i)" fill-rule="evenodd" d="M9.05 17.172c.662.982 1.36 1.763 2.313 2.752-.223-.255-1.083-1.75-1.96-3.77q-.216.532-.352 1.018" clip-rule="evenodd"/><path fill="url(#j)" fill-rule="evenodd" d="M8.877 17.871c.998 1.195 1.816 1.981 1.857 2.021-.044-.054-.945-1.162-1.788-2.324q-.039.154-.069.303" clip-rule="evenodd"/><defs><linearGradient id="a" x1="8.407" x2="18.1" y1="2.253" y2="2.546" gradientUnits="userSpaceOnUse"><stop stop-color="#0288F7"/><stop offset="1" stop-color="#2EE2BD"/></linearGradient><linearGradient id="b" x1="9.15" x2="6.766" y1="16.452" y2="10.556" gradientUnits="userSpaceOnUse"><stop stop-color="#CB1918"/><stop offset=".388" stop-color="#A2183D"/><stop offset=".749" stop-color="#902869"/><stop offset="1" stop-color="#73358A"/></linearGradient><linearGradient id="c" x1="7.946" x2="5.561" y1="16.939" y2="11.043" gradientUnits="userSpaceOnUse"><stop stop-color="#CB1918"/><stop offset=".388" stop-color="#A2183D"/><stop offset=".749" stop-color="#902869"/><stop offset="1" stop-color="#73358A"/></linearGradient><linearGradient id="d" x1="11.256" x2="8.872" y1="15.6" y2="9.704" gradientUnits="userSpaceOnUse"><stop stop-color="#CB1918"/><stop offset=".388" stop-color="#A2183D"/><stop offset=".749" stop-color="#902869"/><stop offset="1" stop-color="#73358A"/></linearGradient><linearGradient id="e" x1="15.998" x2="12.538" y1="12.117" y2="15.897" gradientUnits="userSpaceOnUse"><stop stop-color="#ADD816"/><stop offset="1" stop-color="#DBD704"/></linearGradient><linearGradient id="f" x1="13.539" x2="10.594" y1="19.524" y2="14.557" gradientUnits="userSpaceOnUse"><stop stop-color="#E1282B"/><stop offset=".388" stop-color="#E3402A"/><stop offset=".702" stop-color="#E76226"/><stop offset="1" stop-color="#F19A0A"/></linearGradient><linearGradient id="g" x1="13.728" x2="10.783" y1="19.413" y2="14.446" gradientUnits="userSpaceOnUse"><stop stop-color="#E1282B"/><stop offset=".388" stop-color="#E3402A"/><stop offset=".702" stop-color="#E76226"/><stop offset="1" stop-color="#F19A0A"/></linearGradient><linearGradient id="h" x1="13.227" x2="10.282" y1="19.71" y2="14.743" gradientUnits="userSpaceOnUse"><stop stop-color="#E1282B"/><stop offset=".388" stop-color="#E3402A"/><stop offset=".702" stop-color="#E76226"/><stop offset="1" stop-color="#F19A0A"/></linearGradient><linearGradient id="i" x1="11.604" x2="8.658" y1="20.672" y2="15.705" gradientUnits="userSpaceOnUse"><stop stop-color="#E1282B"/><stop offset=".388" stop-color="#E3402A"/><stop offset=".702" stop-color="#E76226"/><stop offset="1" stop-color="#F19A0A"/></linearGradient><linearGradient id="j" x1="11.059" x2="8.114" y1="20.995" y2="16.028" gradientUnits="userSpaceOnUse"><stop stop-color="#E1282B"/><stop offset=".388" stop-color="#E3402A"/><stop offset=".702" stop-color="#E76226"/><stop offset="1" stop-color="#F19A0A"/></linearGradient></defs></svg>