<svg xmlns="http://www.w3.org/2000/svg" width="24" height="24" fill="none"><path fill="#38B4AB" d="m21.992 11.14-.71-7.104a1.61 1.61 0 0 0-1.487-1.442l-6.849-.472a1.6 1.6 0 0 0-1.23.452l-9.23 8.985a1.606 1.606 0 0 0-.015 2.285l7.567 7.568a1.606 1.606 0 0 0 2.256.015l9.22-8.977c.35-.34.526-.823.478-1.309m-5.29 2.315-1.156 1.958-2.26-1.554a.216.216 0 0 0-.338.193l.189 2.737h-2.274l.19-2.737a.216.216 0 0 0-.339-.193l-2.26 1.554-1.156-1.958 2.52-1.262a.218.218 0 0 0 0-.386l-2.52-1.262 1.156-1.958 2.26 1.554c.15.102.35-.013.338-.193l-.19-2.737h2.275l-.19 2.737c-.012.18.19.295.339.193l2.26-1.554 1.156 1.958L13.795 12zm1.486-6.518a1.12 1.12 0 1 1 0-2.242 1.12 1.12 0 0 1 0 2.242"/></svg>