<svg xmlns="http://www.w3.org/2000/svg" width="24" height="24" fill="none"><path fill="#5865F2" d="M19.624 4.791a18.1 18.1 0 0 0-4.478-1.388.07.07 0 0 0-.072.034c-.194.344-.408.792-.558 1.145a16.8 16.8 0 0 0-5.03 0 12 12 0 0 0-.565-1.145.07.07 0 0 0-.072-.034c-1.572.27-3.075.744-4.478 1.388a.06.06 0 0 0-.03.026C1.49 9.077.708 13.234 1.091 17.339q.004.032.029.051a18.2 18.2 0 0 0 5.493 2.777.07.07 0 0 0 .077-.025q.636-.867 1.124-1.828a.07.07 0 0 0-.038-.097 12 12 0 0 1-1.716-.818.07.07 0 0 1-.007-.117q.174-.13.34-.267a.07.07 0 0 1 .072-.01c3.6 1.644 7.498 1.644 11.056 0a.07.07 0 0 1 .072.009q.166.137.342.268a.07.07 0 0 1-.006.117q-.82.479-1.717.817a.07.07 0 0 0-.038.098c.33.64.708 1.25 1.123 1.827a.07.07 0 0 0 .078.026 18.2 18.2 0 0 0 5.502-2.777.07.07 0 0 0 .028-.05c.459-4.746-.768-8.868-3.253-12.522a.06.06 0 0 0-.028-.027M8.352 14.84c-1.084 0-1.977-.995-1.977-2.217s.875-2.217 1.977-2.217c1.11 0 1.994 1.004 1.977 2.217 0 1.222-.876 2.217-1.977 2.217m7.31 0c-1.084 0-1.977-.995-1.977-2.217s.876-2.217 1.977-2.217c1.11 0 1.994 1.004 1.977 2.217 0 1.222-.867 2.217-1.977 2.217"/></svg>