<svg xmlns="http://www.w3.org/2000/svg" width="24" height="24" fill="none"><path fill="#000" fill-rule="evenodd" d="m9.411 15.234-.288.726h.571zm1.694-7.563v-2.12c0-.338-.155-.494-.48-.494h-.527v3.11h.528c.324 0 .479-.158.479-.496M19.758 1H4.241C2.982 1 2.52 1.464 2.52 2.722v15.183l.019.397c.028.276.034.542.29.844q.139.116.286.223l.394.184 7.64 3.2c.398.181.563.253.851.247h.002c.289.006.454-.066.851-.247l7.64-3.2.395-.184.286-.223c.255-.304.261-.57.29-.844q.02-.198.018-.397V2.723c0-1.26-.464-1.722-1.722-1.722zm-6.791 2.923h1.283v8.436h-1.283zm.833 10.49v2.552h-.704V15.5l-.652.999h-.015l-.649-.992v1.46h-.693v-2.553h.747l.61.99.608-.99zM8.815 3.923h2.014c1.043 0 1.56.518 1.56 1.567v2.241c0 1.048-.516 1.567-1.56 1.567h-.73v3.062H8.814zm-3.498 0H8.17v1.17h-1.57v2.385h1.51v1.168h-1.51v2.543h1.595v1.17h-2.88zm2.453 12.7a1.73 1.73 0 0 1-1.108.394c-.795 0-1.389-.547-1.389-1.32v-.008c0-.743.583-1.328 1.374-1.328.45 0 .766.139 1.036.372l-.416.5c-.182-.153-.364-.24-.616-.24-.368 0-.652.309-.652.7v.007a.673.673 0 0 0 .693.708.72.72 0 0 0 .408-.106v-.309h-.503v-.518h1.174v1.15zm1.988-2.228 1.086 2.57h-.758l-.187-.456h-.985l-.183.457h-.743l1.086-2.57zm2.184 6.829-3.597-1.237h7.346zm4.399-4.257h-2.072v-2.552h2.053v.6H14.97v.388h1.226v.558H14.97v.405h1.371zv-.001m-1.411-6.102V5.418c0-1.049.515-1.567 1.56-1.567h.623c1.043 0 1.547.507 1.547 1.555v1.723h-1.259V5.48c0-.339-.157-.495-.479-.495h-.216c-.335 0-.492.157-.492.494v5.326c0 .338.157.494.492.494h.24c.324 0 .48-.157.48-.494V8.901h1.259v1.964c0 1.048-.516 1.567-1.56 1.567h-.636c-1.043 0-1.56-.518-1.56-1.567m3.82 5.314c0 .521-.412.83-1.031.83-.453 0-.883-.142-1.197-.423l.394-.47c.232.194.524.302.827.305.19 0 .292-.066.292-.176v-.007c0-.106-.083-.164-.43-.244-.544-.124-.963-.278-.963-.803v-.007c0-.475.375-.817.989-.817.434 0 .773.116 1.05.338l-.354.5a1.28 1.28 0 0 0-.715-.252c-.171 0-.255.073-.255.164v.008c0 .117.087.168.442.248.586.127.951.316.951.795z" clip-rule="evenodd"/></svg>