<svg xmlns="http://www.w3.org/2000/svg" width="24" height="24" fill="none"><path fill="#0866FF" d="M22 12c0-5.523-4.477-10-10-10S2 6.477 2 12c0 4.69 3.229 8.625 7.584 9.706v-6.65H7.522V12h2.062v-1.317c0-3.403 1.54-4.981 4.882-4.981.634 0 1.727.124 2.174.248v2.77a13 13 0 0 0-1.155-.037c-1.64 0-2.274.621-2.274 2.236V12h3.267l-.561 3.056H13.21v6.87C18.164 21.33 22 17.114 22 12"/><path fill="#fff" d="m15.917 15.056.56-3.056h-3.266v-1.08c0-1.616.634-2.237 2.274-2.237.509 0 .919.013 1.155.038V5.95c-.447-.125-1.54-.25-2.174-.25-3.341 0-4.882 1.579-4.882 4.982V12H7.522v3.056h2.062v6.65a10 10 0 0 0 3.627.22v-6.87z"/></svg>