<svg xmlns="http://www.w3.org/2000/svg" width="24" height="24" fill="none"><path fill="url(#a)" d="M6.59 2h10.82A4.58 4.58 0 0 1 22 6.59v10.82A4.58 4.58 0 0 1 17.41 22H6.59A4.58 4.58 0 0 1 2 17.41V6.59A4.58 4.58 0 0 1 6.59 2"/><path fill="#fff" d="M5.05 9.577v4.87c0 1.063.863 1.923 1.923 1.923h5.86a1.924 1.924 0 0 0 1.924-1.923v-4.87a1.924 1.924 0 0 0-1.923-1.924H6.977A1.923 1.923 0 0 0 5.05 9.577m12.644-1.304-2.207 1.82a.85.85 0 0 0-.31.657v2.52c0 .253.11.49.303.653l2.207 1.854a.771.771 0 0 0 1.266-.59v-6.32a.769.769 0 0 0-1.26-.594"/><defs><linearGradient id="a" x1="11.942" x2="12.061" y1="2.418" y2="22.023" gradientUnits="userSpaceOnUse"><stop stop-color="#5DF777"/><stop offset="1" stop-color="#0ABC28"/></linearGradient></defs></svg>