<svg xmlns="http://www.w3.org/2000/svg" width="24" height="24" fill="none"><path fill="#0ACF83" d="M8.667 22A3.335 3.335 0 0 0 12 18.667v-3.334H8.667a3.335 3.335 0 0 0 0 6.667"/><path fill="#A259FF" d="M5.333 12a3.335 3.335 0 0 1 3.334-3.333H12v6.666H8.667A3.335 3.335 0 0 1 5.333 12"/><path fill="#F24E1E" d="M5.333 5.333A3.335 3.335 0 0 1 8.667 2H12v6.667H8.667a3.335 3.335 0 0 1-3.334-3.334"/><path fill="#FF7262" d="M12 2h3.333a3.335 3.335 0 0 1 0 6.667H12z"/><path fill="#1ABCFE" d="M18.667 12A3.334 3.334 0 0 1 12 12a3.335 3.335 0 0 1 6.667 0"/></svg>