<svg xmlns="http://www.w3.org/2000/svg" width="24" height="24" fill="none"><path fill="#FA4778" d="m17.608 4.194-.53 2.559a.67.67 0 0 1-.635.514H11.84a.943.943 0 0 0-.938.939v.56c0 .515.424.939.939.939h3.89c.363 0 .666.348.59.726-.075.394-.484 2.392-.53 2.604-.03.227-.272.515-.635.515h-3.18c-.665.015-.802.03-1.195.514-.394.485-3.876 4.845-3.876 4.845-.03.045-.06.03-.06-.015V4.073a.64.64 0 0 1 .636-.637h9.552c.333 0 .666.333.575.757M18.305 1H6.512c-1.62 0-2.104 1.226-2.104 1.998V21.74c0 .923.469 1.196.726 1.301.258.106.939.182 1.423-.302l5.692-6.63c.091-.107.136-.107.197-.107h3.542c1.514 0 1.802-1.044 1.968-1.68.137-.53 1.696-8.1 2.18-10.491C20.5 1.984 20.03 1 18.305 1"/></svg>