<svg xmlns="http://www.w3.org/2000/svg" width="24" height="24" fill="none"><path fill="#1E61C6" d="M4.5 15.96c-.086-.468-.198-.927-.259-1.394C4 12.74 4.388 11.053 5.47 9.547c.848-1.185 2.008-2.008 3.34-2.579a13.6 13.6 0 0 1 5.063-1.09c1.549-.043 2.898.528 4.075 1.497 1.212 1.004 2.146 2.241 2.865 3.634.346.675.666 1.368.995 2.06q.051.119.078.251c-.459.277-.9.563-1.368.813-1.73.952-3.6 1.601-5.546 1.939a31 31 0 0 1-3.211.355c-1.021.069-2.042.104-3.063.078-1.394-.035-2.778-.251-4.197-.546M6.7 11.32c-.026 1.523 1.211 2.752 2.717 2.77 1.454.017 2.812-1.1 2.812-2.735 0-1.696-1.306-2.77-2.769-2.77a2.757 2.757 0 0 0-2.76 2.735m10.635.796c.822.06 1.74-.623 1.748-1.748a1.69 1.69 0 0 0-1.679-1.705h-.034a1.72 1.72 0 0 0-1.748 1.688v.026c0 .986.735 1.74 1.713 1.74"/><path fill="#1E60C6" d="M21.938 13.71c.12 1.453-.243 2.734-.97 3.91-.986 1.593-2.457 2.597-4.188 3.229-1.765.64-3.643.89-5.512.753-1.117-.078-2.241-.243-3.245-.77-1.73-.918-2.804-2.38-3.366-4.24-.026-.113-.035-.235-.044-.347 6.101 1.41 11.89.787 17.325-2.536"/><path fill="#2163C7" d="M21.652 8.422c.45-.164.45-.173.407-.597-.026-.242-.035-.485.086-.718.052-.095.043-.217.052-.329a.647.647 0 0 1 .65-.614c.345 0 .64.276.657.623a.655.655 0 0 1-.623.649c-.113.008-.225 0-.381 0-.017.173-.052.328-.035.476.052.424-.017.778-.502.96l.987 1.748-1.48.917c-.623-1.445-1.575-2.639-2.717-3.73l.883-1.072c.822.39 1.436 1.012 2.016 1.687M3.843 13.78l-1.436-.485c-.07-.865.112-1.67.432-2.458l-.502-.796c-.181 0-.363.035-.519-.008A6.4 6.4 0 0 1 .814 9.72c-.25-.104-.363-.45-.294-.7a.665.665 0 0 1 .692-.468c.295.026.537.25.58.545.017.139 0 .286 0 .459h.762c.32.13.303.519.545.77.476-.623.943-1.246 1.653-1.688l.657.511c-.502.692-1.038 1.341-1.22 2.146-.182.813-.233 1.627-.346 2.484"/><path fill="#2162C6" d="m9.727 6.475-.294-.727c.813-.649 1.739-.917 2.717-1.047.017-.26-.113-.372-.312-.476-.675-.346-.787-1.16-.25-1.653.32-.294.7-.337 1.081-.19a.93.93 0 0 1 .614.814.97.97 0 0 1-.476.986c-.095.052-.199.095-.294.138l.104.33c.874-.018 1.73-.01 2.579.328l-.121.718c-1.792.009-3.609-.086-5.348.78"/></svg>