<svg xmlns="http://www.w3.org/2000/svg" width="24" height="24" fill="none"><path fill="#1B1F23" fill-rule="evenodd" d="M12 2.443a10.03 10.03 0 0 0-6.474 2.372 9.93 9.93 0 0 0-3.388 5.977 9.9 9.9 0 0 0 1.313 6.736 10 10 0 0 0 5.388 4.285c.497.092.684-.215.684-.477s-.01-1.02-.013-1.85c-2.781.6-3.369-1.174-3.369-1.174-.453-1.152-1.109-1.454-1.109-1.454-.907-.616.068-.605.068-.605 1.005.071 1.533 1.026 1.533 1.026.89 1.519 2.339 1.08 2.908.823.09-.644.35-1.082.636-1.33-2.221-.25-4.555-1.103-4.555-4.911a3.84 3.84 0 0 1 1.03-2.668c-.103-.25-.446-1.26.097-2.633 0 0 .839-.267 2.75 1.018a9.54 9.54 0 0 1 5.005 0C16.412 6.293 17.25 6.56 17.25 6.56c.544 1.369.202 2.38.099 2.633a3.83 3.83 0 0 1 1.031 2.671c0 3.817-2.339 4.658-4.563 4.903.357.31.677.913.677 1.842 0 1.33-.012 2.4-.012 2.727 0 .265.18.574.687.477a10 10 0 0 0 5.39-4.286 9.9 9.9 0 0 0 1.312-6.737 9.93 9.93 0 0 0-3.39-5.977 10.03 10.03 0 0 0-6.477-2.37z" clip-rule="evenodd"/><path fill="#1B1F23" d="M5.79 16.714c-.021.05-.1.065-.165.03s-.113-.099-.09-.15.101-.064.166-.03c.064.035.114.101.09.15M6.196 17.164a.166.166 0 0 1-.206-.046c-.064-.07-.077-.165-.028-.208.05-.043.14-.023.204.046.064.07.08.165.03.208M6.59 17.735c-.062.043-.166 0-.224-.086a.164.164 0 0 1 0-.237c.062-.04.166 0 .224.084s.06.196 0 .239M7.124 18.288c-.054.06-.165.044-.256-.038s-.113-.194-.058-.253c.055-.06.165-.043.26.037.094.081.112.195.054.254M7.874 18.61c-.025.078-.137.112-.25.08-.112-.034-.187-.126-.165-.205s.135-.115.25-.079.187.124.165.204M8.692 18.666c0 .081-.093.15-.212.152-.12.001-.217-.064-.217-.145s.093-.15.212-.151c.12-.002.217.062.217.144M9.453 18.54c.015.08-.068.164-.187.184s-.223-.028-.238-.107.071-.165.187-.186.223.028.238.109"/></svg>