<svg xmlns="http://www.w3.org/2000/svg" width="24" height="24" fill="none"><path fill="#4285F4" d="M3.364 19.5h3.181v-7.728L2 8.363v9.773c0 .755.611 1.364 1.364 1.364"/><path fill="#34A853" d="M17.455 19.5h3.181c.755 0 1.364-.612 1.364-1.364V8.363l-4.546 3.41"/><path fill="#FBBC04" d="M17.455 5.863v5.91L22 8.362V6.545c0-1.686-1.925-2.648-3.273-1.636"/><path fill="#EA4335" d="M6.545 11.772V5.863L12 9.954l5.455-4.09v5.908L12 15.863"/><path fill="#C5221F" d="M2 6.545v1.818l4.545 3.41v-5.91L5.273 4.91C3.923 3.897 2 4.859 2 6.545"/></svg>