<svg xmlns="http://www.w3.org/2000/svg" width="24" height="24" fill="none"><path fill="#1BDBDB" d="M19.252 3.814c-2.079-1.299-4.815-.99-7.255.544-2.433-1.533-5.171-1.843-7.247-.544-3.284 2.052-3.684 7.337-.891 11.806 2.058 3.294 5.277 5.224 8.142 5.188 2.865.036 6.083-1.894 8.142-5.188 2.788-4.469 2.393-9.754-.891-11.806M5.368 14.676a10.7 10.7 0 0 1-1.288-2.95 8.4 8.4 0 0 1-.28-2.781c.125-1.651.797-2.937 1.892-3.621s2.543-.726 4.085-.114q.347.14.688.317A12.6 12.6 0 0 0 8.25 8.19c-1.696 2.712-2.213 5.73-1.621 8.137a11 11 0 0 1-1.262-1.65m14.554-2.95a10.7 10.7 0 0 1-1.288 2.95 11 11 0 0 1-1.262 1.653c.53-2.157.17-4.8-1.127-7.279a.327.327 0 0 0-.469-.127l-4.043 2.526a.33.33 0 0 0-.105.456l.593.949a.33.33 0 0 0 .455.105l2.621-1.638c.085.254.17.508.233.763a8.4 8.4 0 0 1 .281 2.778c-.125 1.65-.797 2.936-1.892 3.621a3.7 3.7 0 0 1-1.874.543h-.084a3.7 3.7 0 0 1-1.874-.543c-1.096-.685-1.769-1.97-1.893-3.621a8.5 8.5 0 0 1 .28-2.781 11 11 0 0 1 3.375-5.403 8.5 8.5 0 0 1 2.374-1.47c1.537-.612 2.987-.571 4.084.114s1.767 1.97 1.892 3.621a8.5 8.5 0 0 1-.277 2.782"/></svg>