<svg xmlns="http://www.w3.org/2000/svg" width="24" height="24" fill="none"><path fill="#FCBC05" d="M10.96 10.198H8.877L5.84 4.936a1.802 1.802 0 1 1 3.122-1.802L12 8.395z"/><path fill="#E94335" d="M17.5 21.526a1.803 1.803 0 0 1-2.463-.66L12 15.606l-3.038 5.26a1.802 1.802 0 1 1-3.122-1.803l3.038-5.26h6.244l3.038 5.26a1.803 1.803 0 0 1-.66 2.463"/><path fill="#1973E8" d="M23 12c0 .995-.807 1.803-1.803 1.803h-6.075L14.082 12l-1.041-1.803L12 8.396l3.038-5.261a1.803 1.803 0 0 1 3.122 1.802l-3.038 5.262h6.075c.996 0 1.803.807 1.803 1.802"/><path fill="#34A853" d="M10.96 10.198 9.917 12l-1.04 1.803H2.802a1.803 1.803 0 0 1 0-3.605z"/><path fill="#174FA7" d="M15.122 13.803H8.878L9.918 12l1.041-1.802L12 8.395l1.041 1.803L14.081 12z"/></svg>