<svg xmlns="http://www.w3.org/2000/svg" width="24" height="24" fill="none"><path fill="#F4B400" d="M14 1H5.5C4.675 1 4 1.677 4 2.5v19c0 .824.675 1.5 1.5 1.5h13c.824 0 1.499-.676 1.499-1.5V7l-3.5-2.5z"/><path fill="url(#a)" d="M14 1H5.5C4.675 1 4 1.677 4 2.5v19c0 .824.675 1.5 1.5 1.5h13c.824 0 1.499-.676 1.499-1.5V7z"/><path fill="#F1F1F1" d="M15.25 11h-6.5a.75.75 0 0 0-.75.75v6.5c0 .412.337.75.75.75h6.5c.412 0 .749-.338.749-.75v-6.5a.75.75 0 0 0-.75-.75M15 16.75H9v-3.5h6z"/><path fill="url(#b)" d="m14.439 6.562 5.56 5.56V7z"/><path fill="#FADA80" d="M13.998 1v4.5a1.5 1.5 0 0 0 1.5 1.5h4.5z"/><path fill="#BF360C" fill-opacity=".1" d="M15.498 7a1.5 1.5 0 0 1-1.5-1.5v.125a1.5 1.5 0 0 0 1.5 1.5h4.5V7z"/><defs><radialGradient id="a" cx="0" cy="0" r="1" gradientTransform="translate(4.507 1.438)scale(25.7982)" gradientUnits="userSpaceOnUse"><stop stop-color="#fff" stop-opacity=".1"/><stop offset="1" stop-color="#fff" stop-opacity="0"/></radialGradient><linearGradient id="b" x1="17.219" x2="17.219" y1="7.039" y2="12.122" gradientUnits="userSpaceOnUse"><stop stop-color="#BF360C" stop-opacity=".2"/><stop offset="1" stop-color="#BF360C" stop-opacity=".02"/></linearGradient></defs></svg>