<svg xmlns="http://www.w3.org/2000/svg" width="24" height="24" fill="none"><path fill="#00832D" d="m13.444 12 2.145 2.451 2.883 1.843.503-4.279-.503-4.183-2.939 1.619z"/><path fill="#0066DA" d="M1 15.897v3.645c0 .833.675 1.508 1.508 1.508h3.646l.754-2.755-.754-2.398-2.502-.755z"/><path fill="#E94235" d="M6.154 2.95 1 8.103l2.652.755 2.502-.755.741-2.365z"/><path fill="#2684FC" d="M6.154 8.103H1v7.794h5.154z"/><path fill="#00AC47" d="m21.766 5.132-3.293 2.7v8.462l3.308 2.712a.755.755 0 0 0 1.22-.595V5.715a.755.755 0 0 0-1.235-.583M13.445 12v3.897H6.154v5.153h10.81c.834 0 1.509-.675 1.509-1.508v-3.248z"/><path fill="#FFBA00" d="M16.964 2.95H6.154v5.153h7.29V12l5.028-4.166V4.458c0-.833-.675-1.508-1.508-1.508"/></svg>