<svg xmlns="http://www.w3.org/2000/svg" width="24" height="24" fill="none"><path fill="#4285F4" d="M22 12.235c0-.693-.056-1.39-.176-2.072h-9.62v3.927h5.509a4.72 4.72 0 0 1-2.039 3.099v2.548h3.287c1.93-1.776 3.039-4.4 3.039-7.502"/><path fill="#34A853" d="M12.204 22.2c2.751 0 5.07-.904 6.76-2.463l-3.286-2.548c-.914.622-2.095.974-3.47.974-2.66 0-4.916-1.795-5.726-4.208H3.091v2.627a10.2 10.2 0 0 0 9.113 5.617"/><path fill="#FBBC04" d="M6.478 13.955a6.1 6.1 0 0 1 0-3.905V7.423H3.091a10.2 10.2 0 0 0 0 9.159z"/><path fill="#EA4335" d="M12.204 5.838a5.54 5.54 0 0 1 3.913 1.529l2.911-2.912a9.8 9.8 0 0 0-6.824-2.653 10.2 10.2 0 0 0-9.113 5.621l3.387 2.627c.806-2.417 3.066-4.212 5.726-4.212"/></svg>