<svg xmlns="http://www.w3.org/2000/svg" width="24" height="24" fill="none"><path fill="#EA4335" d="M11.273 11.55 2.826 20.4a2.292 2.292 0 0 0 3.355 1.36l9.505-5.414z"/><path fill="#FBBC04" d="m19.815 10.045-4.11-2.354-4.627 4.06 4.645 4.582 4.08-2.329a2.235 2.235 0 0 0 0-3.959z"/><path fill="#4285F4" d="M2.826 3.606a2.2 2.2 0 0 0-.075.58V19.82q0 .294.075.579l8.737-8.624z"/><path fill="#34A853" d="m11.336 12.003 4.369-4.312-9.492-5.439a2.34 2.34 0 0 0-1.177-.32 2.29 2.29 0 0 0-2.21 1.667z"/></svg>