<svg xmlns="http://www.w3.org/2000/svg" width="24" height="24" fill="none"><path fill="#34A853" d="M8.557 17.298a21 21 0 0 1 1.731 2.56c.441.839.624 1.405.951 2.419.192.555.375.723.758.723.42 0 .61-.283.758-.723.306-.951.542-1.675.916-2.364 1.444-2.723 3.797-4.657 5.123-7.308 0 0 .872-1.619.872-3.886 0-2.113-.86-3.582-.86-3.582L8.562 17.316z"/><path fill="#FBBC04" d="M5.08 12.319c.826 1.88 2.4 3.528 3.475 4.979l5.696-6.752s-.805 1.053-2.257 1.053a2.92 2.92 0 0 1-2.937-2.92c0-1.12.668-1.898.668-1.898-4.191.624-3.958 1.639-4.657 5.534z"/><path fill="#4285F4" d="M14.322 1.353c1.899.61 3.51 1.898 4.477 3.779l-4.549 5.426s.668-.78.668-1.898c0-1.664-1.404-2.92-2.919-2.92-1.438 0-2.256 1.041-2.256 1.041.349-.795 3.958-5.158 4.584-5.426z"/><path fill="#1A73E8" d="M6.12 3.74C7.252 2.393 9.237 1 11.977 1a7.8 7.8 0 0 1 2.328.351L9.738 6.778C9.43 6.61 6.425 4.27 6.12 3.733z"/><path fill="#EA4335" d="M5.081 12.319s-.747-1.483-.747-3.618c0-2.024.792-3.797 1.791-4.943l3.618 3.045-4.657 5.516z"/></svg>