<svg xmlns="http://www.w3.org/2000/svg" width="24" height="24" fill="none"><path fill="#0F9D58" d="M14 1H5.5C4.675 1 4 1.675 4 2.5v19c0 .825.675 1.5 1.5 1.5h13c.825 0 1.5-.675 1.5-1.5V7l-3.5-2.5z"/><path fill="url(#a)" d="m14.438 6.561 5.561 5.56V7z"/><path fill="#F1F1F1" d="M8 11.75V19h8v-7.25zM11.5 18H9v-1.25h2.5zm0-2H9v-1.25h2.5zm0-2H9v-1.25h2.5zm3.5 4h-2.5v-1.25H15zm0-2h-2.5v-1.25H15zm0-2h-2.5v-1.25H15z"/><path fill="#263238" fill-opacity=".1" d="M15.499 7a1.5 1.5 0 0 1-1.5-1.5v.125a1.5 1.5 0 0 0 1.5 1.5h4.5V7z"/><path fill="#87CEAC" d="M13.999 1v4.5a1.5 1.5 0 0 0 1.5 1.5h4.5z"/><path fill="url(#b)" d="M14 1H5.5C4.675 1 4 1.675 4 2.5v19c0 .825.675 1.5 1.5 1.5h13c.825 0 1.5-.675 1.5-1.5V7z"/><defs><radialGradient id="b" cx="0" cy="0" r="1" gradientTransform="translate(54.688 44.482)scale(2579.98)" gradientUnits="userSpaceOnUse"><stop stop-color="#fff" stop-opacity=".1"/><stop offset="1" stop-color="#fff" stop-opacity="0"/></radialGradient><linearGradient id="a" x1="292.53" x2="292.53" y1="54.3" y2="562.639" gradientUnits="userSpaceOnUse"><stop stop-color="#263238" stop-opacity=".2"/><stop offset="1" stop-color="#263238" stop-opacity=".02"/></linearGradient></defs></svg>