<svg xmlns="http://www.w3.org/2000/svg" width="24" height="24" fill="none"><path fill="#4285F4" d="M13.988 1H5.537a1.5 1.5 0 0 0-1.492 1.5v19A1.5 1.5 0 0 0 5.537 23h12.925a1.5 1.5 0 0 0 1.491-1.5V7l-3.48-2.5z"/><path fill="#F1F1F1" d="M8.023 17h7.954v-1H8.023zm0 2h5.966v-1H8.023zm0-7v1h7.954v-1zm0 3h7.954v-1H8.023z"/><path fill="url(#a)" d="m14.425 6.561 5.529 5.56V7z"/><path fill="#A1C2FA" d="M13.988 1v4.5c0 .829.668 1.5 1.492 1.5h4.474z"/><defs><linearGradient id="a" x1="290.913" x2="290.913" y1="54.3" y2="562.639" gradientUnits="userSpaceOnUse"><stop stop-color="#1A237E" stop-opacity=".2"/><stop offset="1" stop-color="#1A237E" stop-opacity=".02"/></linearGradient></defs></svg>