<svg xmlns="http://www.w3.org/2000/svg" width="24" height="24" fill="none"><path fill="#0066DA" d="m2.663 19.02.97 1.675c.202.353.492.63.832.832l3.466-5.998H1c0 .39.1.78.302 1.134z"/><path fill="#00AC47" d="M12.001 8.472 8.536 2.473c-.34.202-.63.479-.832.832l-6.402 11.09A2.3 2.3 0 0 0 1 15.528h6.931z"/><path fill="#EA4335" d="M19.534 21.527c.34-.202.63-.479.832-.832l.403-.693 1.928-3.34c.202-.352.303-.743.303-1.133h-6.932l1.475 2.898z"/><path fill="#00832D" d="m12 8.472 3.466-5.999a2.2 2.2 0 0 0-1.134-.302H9.669c-.403 0-.794.113-1.134.302z"/><path fill="#2684FC" d="M16.071 15.529h-8.14l-3.466 5.998c.34.202.73.302 1.134.302h12.804c.403 0 .793-.113 1.134-.302z"/><path fill="#FFBA00" d="m19.498 8.85-3.2-5.545a2.3 2.3 0 0 0-.832-.832L12 8.472l4.07 7.057h6.919c0-.391-.101-.782-.303-1.135z"/></svg>