<svg xmlns="http://www.w3.org/2000/svg" width="24" height="24" fill="none"><path fill="#000" d="M13.354 21.697c4.775 0 8.646-3.736 8.646-8.346s-3.87-8.346-8.646-8.346c-4.775 0-8.646 3.737-8.646 8.346 0 4.61 3.87 8.346 8.646 8.346"/><path fill="#FF90E8" d="M11.123 19.948c5.022 0 9.122-3.934 9.122-8.823 0-4.888-4.1-8.823-9.122-8.823S2 6.237 2 11.125c0 4.89 4.1 8.823 9.123 8.823"/><path fill="#000" fill-rule="evenodd" d="M1.953 11.125c0-4.916 4.123-8.87 9.17-8.87s9.17 3.954 9.17 8.87c0 4.917-4.124 8.87-9.17 8.87s-9.17-3.953-9.17-8.87m9.17-8.775c-4.998 0-9.076 3.914-9.076 8.775s4.078 8.776 9.076 8.776c4.997 0 9.075-3.915 9.075-8.776S16.12 2.35 11.123 2.35" clip-rule="evenodd"/><path fill="#000" d="M10.437 15.577c-2.554 0-4.055-2.063-4.055-4.63 0-2.666 1.652-4.83 4.805-4.83 3.254 0 4.356 2.215 4.406 3.472H13.24c-.05-.704-.651-1.76-2.103-1.76-1.552 0-2.553 1.358-2.553 3.018s1.001 3.02 2.553 3.02c1.402 0 2.003-1.108 2.253-2.215h-2.253v-.905h4.727v4.629H13.79v-2.919c-.15 1.057-.8 3.12-3.353 3.12"/></svg>