<svg xmlns="http://www.w3.org/2000/svg" width="24" height="24" fill="none"><path fill="#2CACF4" fill-rule="evenodd" d="M19.23 10.573c1.084.69 1.491 1.933 1.31 3.084l-1.265 6.95C19.004 21.987 17.829 23 16.428 23H7.57c-1.401 0-2.576-1.013-2.847-2.393l-1.266-6.95a3.03 3.03 0 0 1 1.356-3.038c.633-.46.769-1.242 0-1.519-1.084-.414-.858-1.749.226-1.749h6.598c1.04 0 2.305.783 2.305 3.314s-1.175 2.302-1.175 4.097c0 .782.633 1.61 1.401 1.702 1.31.139 2.08-.368 2.08-2.209 0-1.887-1.086-2.761-1.086-4.326 0-1.887 1.175-2.624 1.944-2.624h1.898c1.084 0 1.31 1.335.226 1.75-.768.322-.633 1.104 0 1.518M5.717 6.385c-.452 0-.859-.414-.859-.875 0-1.058 2.622-1.84 5.604-1.84.271 0 .452 0 .452-.23 0-.415-.904-.553-.904-1.243 0-.737.86-1.197 1.944-1.197s1.943.46 1.943 1.197c0 .69-.904.782-.904 1.242 0 .138.136.23.452.23 2.983 0 5.65.737 5.65 1.841 0 .46-.362.875-.86.875z" clip-rule="evenodd"/></svg>