<svg xmlns="http://www.w3.org/2000/svg" width="24" height="24" fill="none"><path fill="#000" d="M12 22c5.523 0 10-4.477 10-10S17.523 2 12 2 2 6.477 2 12s4.477 10 10 10"/><path fill="#2F0" d="M10.008 10.71 8.914 9.618c-.156-.156-.547-.351-.82-.43-.977-.234-1.953.313-2.187 1.29a1.803 1.803 0 0 0 1.328 2.187c.312.078.625.078.898 0l1.445-.43c.352-.078.625-.312.704-.664a.88.88 0 0 0-.274-.86m-.273 2.462-1.797.976q-.585.294-.938.82c-.703 1.134-.351 2.618.782 3.36a2.41 2.41 0 0 0 3.32-.781c.234-.39.39-.82.39-1.25l.04-1.953c.078-.43-.118-.899-.547-1.172a1.2 1.2 0 0 0-1.25 0m2.734 1.055.234 1.875c.04.351.196.703.43 1.015.703.977 2.11 1.172 3.047.43.977-.703 1.172-2.11.43-3.047a1.95 1.95 0 0 0-.938-.742l-1.64-.664c-.352-.196-.82-.196-1.133.078-.352.273-.508.664-.43 1.055m1.758-2.149 2.031.313c.43.078.86 0 1.25-.157 1.25-.507 1.875-1.914 1.367-3.164a2.415 2.415 0 0 0-3.164-1.328c-.43.156-.781.43-1.055.781l-1.289 1.68a1.17 1.17 0 0 0-.156 1.133c.156.43.586.703 1.016.742m-1.64-2.305.82-1.68c.117-.39.234-.741.195-1.093a2.15 2.15 0 0 0-2.305-1.992 2.14 2.14 0 0 0-1.992 2.265c0 .43.156.782.352 1.094l1.015 1.485a1.06 1.06 0 0 0 1.016.546c.39-.039.742-.273.898-.625"/></svg>