<svg xmlns="http://www.w3.org/2000/svg" width="24" height="24" fill="none"><path fill="#339FF8" d="M12.199 21.803A9.76 9.76 0 0 1 6.674 20.1c-.74.387-2.41.475-3.139.387-1.06-.122-2.165-1.006-1.105-1.857 1.658-1.315 1.216-1.845 1.216-1.845A9.8 9.8 0 0 1 12.199 2.2 9.8 9.8 0 0 1 22 12.001a9.8 9.8 0 0 1-9.801 9.802m0-18.167c-4.652 0-8.42 3.769-8.42 8.432 0 1.602.442 3.105 1.226 4.376 0 0 .553 1.436-.862 2.497.884.298 2.763-.254 2.851-.254a8.4 8.4 0 0 0 5.205 1.8c4.652 0 8.42-3.778 8.42-8.43a8.42 8.42 0 0 0-8.42-8.42m4.508 10.84c-1.028 0-1.823-.674-1.823-1.823s.751-1.867 1.89-1.867c1.082 0 1.8.74 1.8 1.801 0 1.293-.917 1.89-1.867 1.89m.033-2.917c-.53 0-.718.542-.718 1.061 0 .608.254 1.061.718 1.061.431 0 .696-.431.696-1.06 0-.52-.199-1.062-.696-1.062m-3.072 2.83h-.596c-.277 0-.221-.41-.221-.41v-1.513c0-.509-.166-.807-.52-.807-.254 0-.43.177-.508.387a.8.8 0 0 0-.044.287v1.724s0 .342-.31.342h-.486s-.276-.022-.276-.375V12.42c0-.453-.155-.751-.508-.751-.277 0-.442.22-.509.398a.8.8 0 0 0-.044.276v1.68s.044.375-.243.375h-.475c-.354 0-.354-.375-.354-.375V11.99c0-.342-.022-.917-.022-.917s-.01-.21.221-.21h.453c.221 0 .254.21.254.21l.022.265h.023a1.24 1.24 0 0 1 1.071-.552c.453 0 .818.232.973.597h.01a1.9 1.9 0 0 1 .454-.431c.199-.122.409-.177.674-.177.674 0 1.193.475 1.193 1.536v1.701c.022.354-.232.376-.232.376m-6.807-4.255c-.342 0-.574-.243-.574-.553-.011-.32.22-.552.574-.552s.575.243.586.552c.011.299-.22.553-.586.553m-.32.73h.64s.244 0 .244.275v2.94s.011.32-.254.32h-.652s-.199-.01-.199-.276v-3.028s0-.232.221-.232"/></svg>