<svg xmlns="http://www.w3.org/2000/svg" width="24" height="24" fill="none"><path fill="url(#a)" d="M12.003 3c-3.757 0-4.856.004-5.07.022-.771.064-1.25.185-1.774.445-.402.2-.72.433-1.034.758q-.855.889-1.042 2.19c-.061.42-.079.506-.082 2.656-.002.717 0 1.66 0 2.925 0 3.756.004 4.854.022 5.067.062.75.18 1.223.429 1.74a3.8 3.8 0 0 0 2.457 2.007c.371.096.78.149 1.307.173.223.01 2.495.017 4.768.017s4.546-.003 4.763-.014c.61-.029.963-.076 1.354-.177a3.77 3.77 0 0 0 2.457-2.012c.245-.504.369-.994.425-1.706.012-.155.017-2.628.017-5.097s-.006-4.938-.018-5.093c-.056-.723-.18-1.209-.433-1.723a3.6 3.6 0 0 0-.77-1.055q-.891-.854-2.191-1.04c-.42-.061-.505-.08-2.656-.083z"/><path fill="url(#b)" d="M12.003 3c-3.757 0-4.856.004-5.07.022-.771.064-1.25.185-1.774.445-.402.2-.72.433-1.034.758q-.855.889-1.042 2.19c-.061.42-.079.506-.082 2.656-.002.717 0 1.66 0 2.925 0 3.756.004 4.854.022 5.067.062.75.18 1.223.429 1.74a3.8 3.8 0 0 0 2.457 2.007c.371.096.78.149 1.307.173.223.01 2.495.017 4.768.017s4.546-.003 4.763-.014c.61-.029.963-.076 1.354-.177a3.77 3.77 0 0 0 2.457-2.012c.245-.504.369-.994.425-1.706.012-.155.017-2.628.017-5.097s-.006-4.938-.018-5.093c-.056-.723-.18-1.209-.433-1.723a3.6 3.6 0 0 0-.77-1.055q-.891-.854-2.191-1.04c-.42-.061-.505-.08-2.656-.083z"/><path fill="url(#c)" d="M12.003 3c-3.757 0-4.856.004-5.07.022-.771.064-1.25.185-1.774.445-.402.2-.72.433-1.034.758q-.855.889-1.042 2.19c-.061.42-.079.506-.082 2.656-.002.717 0 1.66 0 2.925 0 3.756.004 4.854.022 5.067.062.75.18 1.223.429 1.74a3.8 3.8 0 0 0 2.457 2.007c.371.096.78.149 1.307.173.223.01 2.495.017 4.768.017s4.546-.003 4.763-.014c.61-.029.963-.076 1.354-.177a3.77 3.77 0 0 0 2.457-2.012c.245-.504.369-.994.425-1.706.012-.155.017-2.628.017-5.097s-.006-4.938-.018-5.093c-.056-.723-.18-1.209-.433-1.723a3.6 3.6 0 0 0-.77-1.055q-.891-.854-2.191-1.04c-.42-.061-.505-.08-2.656-.083z"/><path fill="url(#d)" d="M12.003 3c-3.757 0-4.856.004-5.07.022-.771.064-1.25.185-1.774.445-.402.2-.72.433-1.034.758q-.855.889-1.042 2.19c-.061.42-.079.506-.082 2.656-.002.717 0 1.66 0 2.925 0 3.756.004 4.854.022 5.067.062.75.18 1.223.429 1.74a3.8 3.8 0 0 0 2.457 2.007c.371.096.78.149 1.307.173.223.01 2.495.017 4.768.017s4.546-.003 4.763-.014c.61-.029.963-.076 1.354-.177a3.77 3.77 0 0 0 2.457-2.012c.245-.504.369-.994.425-1.706.012-.155.017-2.628.017-5.097s-.006-4.938-.018-5.093c-.056-.723-.18-1.209-.433-1.723a3.6 3.6 0 0 0-.77-1.055q-.891-.854-2.191-1.04c-.42-.061-.505-.08-2.656-.083z"/><path fill="#fff" d="M12 5c-1.9 0-2.139.008-2.886.042-.745.034-1.254.152-1.699.326-.46.178-.85.417-1.24.807-.39.389-.628.78-.808 1.24-.173.445-.291.954-.325 1.699C5.01 9.86 5 10.099 5 12s.008 2.139.042 2.886c.035.745.153 1.254.325 1.699.18.46.419.85.808 1.24.389.389.78.629 1.24.808.445.173.954.29 1.699.325.746.034.985.042 2.886.042s2.139-.008 2.886-.042c.745-.034 1.254-.152 1.7-.325.46-.18.85-.419 1.239-.808s.628-.78.808-1.24c.172-.445.29-.954.325-1.7.033-.746.042-.984.042-2.885s-.009-2.14-.042-2.886c-.035-.746-.153-1.254-.325-1.7-.18-.46-.42-.85-.808-1.24a3.4 3.4 0 0 0-1.24-.807c-.446-.173-.955-.29-1.7-.325C14.138 5.008 13.9 5 11.999 5zm-.627 1.261H12c1.869 0 2.09.007 2.828.04.683.032 1.053.146 1.3.242.327.127.56.278.804.523.245.245.397.479.524.805.096.247.21.617.241 1.3.034.738.041.96.041 2.827 0 1.869-.007 2.09-.04 2.828-.032.683-.146 1.053-.242 1.3-.127.326-.279.559-.524.804a2.2 2.2 0 0 1-.804.523c-.247.096-.617.21-1.3.241-.738.034-.96.041-2.828.041-1.87 0-2.091-.007-2.829-.04-.682-.032-1.053-.146-1.3-.242a2.2 2.2 0 0 1-.805-.523 2.2 2.2 0 0 1-.524-.805c-.095-.247-.21-.617-.24-1.3-.034-.737-.04-.96-.04-2.828 0-1.87.006-2.09.04-2.828.03-.683.145-1.053.24-1.3.127-.326.28-.56.524-.805.245-.245.479-.396.805-.524.247-.096.618-.21 1.3-.24.646-.03.896-.039 2.2-.04zm4.364 1.163a.84.84 0 1 0 0 1.68.84.84 0 0 0 0-1.68m-3.736.981a3.595 3.595 0 1 0 0 7.19 3.595 3.595 0 0 0 0-7.19m0 1.262a2.333 2.333 0 1 1 0 4.666 2.333 2.333 0 0 1 0-4.666"/><defs><radialGradient id="a" cx="0" cy="0" r="1" gradientTransform="matrix(-11.0692 3.12184 -2.24913 -7.9748 20.419 11.437)" gradientUnits="userSpaceOnUse"><stop stop-color="#FF005F"/><stop offset="1" stop-color="#FC01D8"/></radialGradient><radialGradient id="b" cx="0" cy="0" r="1" gradientTransform="matrix(0 -14.3679 15.2441 0 7.781 22.386)" gradientUnits="userSpaceOnUse"><stop stop-color="#FC0"/><stop offset=".124" stop-color="#FC0"/><stop offset=".567" stop-color="#FE4A05"/><stop offset=".694" stop-color="#FF0F3F"/><stop offset="1" stop-color="#FE0657" stop-opacity="0"/></radialGradient><radialGradient id="c" cx="0" cy="0" r="1" gradientTransform="rotate(-59.87 24.241 -.441)scale(5.94127 7.73486)" gradientUnits="userSpaceOnUse"><stop stop-color="#FC0"/><stop offset="1" stop-color="#FC0" stop-opacity="0"/></radialGradient><radialGradient id="d" cx="0" cy="0" r="1" gradientTransform="rotate(164.274 2.463 2.242)scale(11.3734 3.87491)" gradientUnits="userSpaceOnUse"><stop stop-color="#780CFF"/><stop offset="1" stop-color="#820BFF" stop-opacity="0"/></radialGradient></defs></svg>