<svg xmlns="http://www.w3.org/2000/svg" width="24" height="24" fill="none"><path fill="#F36" d="M20.196 1.996H3.811c-1 0-1.811.81-1.811 1.811v16.378c0 1.008.81 1.819 1.81 1.819H20.19c1 0 1.811-.811 1.811-1.811V3.807a1.8 1.8 0 0 0-1.804-1.811"/><path fill="#fff" d="M8.684 8.294c.667 0 1.22-.523 1.22-1.205s-.561-1.205-1.22-1.205c-.667 0-1.22.523-1.22 1.205s.56 1.205 1.22 1.205M6.152 14.743a4.4 4.4 0 0 0-.106.902c0 1.061.576 1.766 1.796 1.766 1.016 0 1.834-.599 2.426-1.576l-.364 1.447h2.016l1.152-4.615c.288-1.167.841-1.774 1.69-1.774.667 0 1.076.417 1.076 1.1 0 .196-.015.416-.09.643l-.592 2.123c-.09.303-.129.613-.129.901 0 1.008.591 1.744 1.834 1.744 1.061 0 1.902-.683 2.372-2.32l-.788-.303c-.394 1.1-.735 1.296-1.008 1.296s-.417-.182-.417-.538c0-.159.038-.34.091-.56l.576-2.07c.144-.485.197-.917.197-1.31 0-1.547-.932-2.35-2.069-2.35-1.06 0-2.137.955-2.675 1.963l.394-1.804h-3.077l-.432 1.591h1.44l-.887 3.547c-.697 1.546-1.97 1.57-2.13 1.539-.265-.06-.431-.16-.431-.5 0-.198.038-.478.129-.827l1.349-5.35H6.077l-.432 1.591h1.417z"/></svg>