<svg xmlns="http://www.w3.org/2000/svg" width="24" height="24" fill="none"><path fill="#FFE812" d="M22 20.438C22 21.3 21.3 22 20.438 22H3.563C2.7 22 2 21.3 2 20.438V3.563C2 2.7 2.7 2 3.563 2h16.875C21.3 2 22 2.7 22 3.563z"/><path fill="#000" d="M12 4.813c-4.487 0-8.125 2.868-8.125 6.406 0 2.287 1.52 4.294 3.808 5.428-.124.429-.8 2.76-.826 2.944 0 0-.016.138.073.19.089.053.194.012.194.012.255-.036 2.964-1.938 3.433-2.269q.703.1 1.443.101c4.487 0 8.125-2.868 8.125-6.406S16.487 4.813 12 4.813"/><path fill="#FFE812" d="M7.508 13.455a.46.46 0 0 1-.469-.448v-2.784h-.731a.46.46 0 0 1 0-.918h2.4a.46.46 0 0 1 0 .918h-.731v2.784a.46.46 0 0 1-.47.448m4.11-.006c-.195 0-.345-.08-.39-.207l-.232-.608h-1.43l-.232.608c-.045.128-.194.207-.39.207a.7.7 0 0 1-.298-.065c-.129-.06-.253-.223-.11-.665l1.12-2.952c.08-.224.32-.455.625-.462.306.007.546.238.625.463l1.12 2.95c.143.443.02.607-.11.666a.7.7 0 0 1-.298.065m-.869-1.645-.468-1.33-.468 1.33zm2.032 1.583a.44.44 0 0 1-.449-.43V9.773c0-.258.215-.468.478-.468.264 0 .48.21.48.468v2.754h.995a.44.44 0 0 1 .45.43.44.44 0 0 1-.45.43zm2.605.062a.47.47 0 0 1-.47-.469V9.773a.47.47 0 0 1 .938 0v1.008l1.308-1.308a.36.36 0 0 1 .26-.104c.117 0 .235.05.323.138a.46.46 0 0 1 .137.297.37.37 0 0 1-.103.286l-1.068 1.068 1.154 1.529a.465.465 0 0 1-.092.656.46.46 0 0 1-.492.046.5.5 0 0 1-.165-.138l-1.099-1.456-.163.162v1.023a.47.47 0 0 1-.468.469"/></svg>