<svg xmlns="http://www.w3.org/2000/svg" width="24" height="24" fill="none"><path fill="url(#a)" d="M17.54 22H6.46A4.46 4.46 0 0 1 2 17.54V6.46A4.46 4.46 0 0 1 6.46 2h11.08A4.46 4.46 0 0 1 22 6.46v11.08A4.457 4.457 0 0 1 17.54 22"/><path fill="#fff" d="M14.455 17.677h-1.962a.27.27 0 0 1-.268-.269V12.68h-.543v4.73c0 .147-.12.268-.268.268H9.43c-.153 0-.29.115-.29.268 0 .17.137.274.301.274h4.997c.17 0 .307-.104.302-.274.005-.153-.132-.268-.285-.268M5.934 11.732c.11.35.439.608.828.608h10.47c.39 0 .719-.258.828-.608zM17.359 7.068a.673.673 0 0 0-.674-.673H7.27a.674.674 0 0 0-.674.673L6.46 11.37h11.036z"/><path fill="#fff" d="M7.972 5.48c0-.225.181-.406.406-.406h2.454v-.268H8.378a.673.673 0 0 0-.674.673v2.05h.268z"/><path fill="#fff" d="M11.506 5.518h-1.194a.475.475 0 0 1-.471-.471v-.148c0-.258.213-.472.47-.472h1.195c.258 0 .472.214.472.472v.148a.475.475 0 0 1-.472.47"/><defs><linearGradient id="a" x1="12.001" x2="12.001" y1="22" y2="1.999" gradientUnits="userSpaceOnUse"><stop stop-color="#0054EB"/><stop offset=".005" stop-color="#0054EB"/><stop offset="1" stop-color="#53CFFA"/></linearGradient></defs></svg>