<svg xmlns="http://www.w3.org/2000/svg" width="24" height="24" fill="none"><path fill="#4B4C9B" d="M11.315 3.373a10.9 10.9 0 0 1 5.555 1.113 11.07 11.07 0 0 1 5.484 6.123c.419 1.166.646 2.404.646 3.642v4.604c0 .186.006.383-.036.562-.102.467-.43.873-.873 1.07-.305.144-.652.162-.975.108-.706-.131-1.244-.79-1.256-1.5-.006-1.43 0-2.853 0-4.288.012-.407.012-.837-.209-1.196-.353-.658-1.22-.975-1.913-.694a1.57 1.57 0 0 0-1.023 1.43c-.006 1.453 0 2.9 0 4.347 0 .269.012.55-.066.807-.15.508-.574.92-1.082 1.064-.67.186-1.441-.107-1.782-.73-.233-.376-.215-.824-.21-1.237-.005-1.441.007-2.882-.005-4.323-.012-.73-.616-1.388-1.346-1.483a1.57 1.57 0 0 0-1.794 1.555v4.197c-.006.353.036.718-.095 1.047-.21.598-.814 1.04-1.454 1.022-.651.036-1.291-.412-1.5-1.028-.114-.305-.09-.628-.09-.951 0-1.447.006-2.894 0-4.347-.006-.718-.562-1.37-1.268-1.501-.634-.138-1.34.185-1.662.76a1.6 1.6 0 0 0-.21.788v4.713c.006.46-.209.908-.556 1.201-.532.467-1.387.49-1.95.066A1.5 1.5 0 0 1 1 19.076v-4.76c.006-1.8.46-3.6 1.316-5.178a11.2 11.2 0 0 1 2.822-3.367 11 11 0 0 1 6.177-2.398"/></svg>