<svg xmlns="http://www.w3.org/2000/svg" width="24" height="24" fill="none"><path fill="#FF4906" d="M17.789 12.279a3.847 3.847 0 0 1 3.86 3.837v3.048A3.85 3.85 0 0 1 17.789 23h-5.675a3.86 3.86 0 0 1-3.67-2.646L5.063 22.04a1.88 1.88 0 0 1-2.514-.835 1.85 1.85 0 0 1-.198-.836v-5.45a1.876 1.876 0 0 1 2.718-1.665l3.367 1.695a3.86 3.86 0 0 1 3.679-2.67h5.676zm-.024 1.975h-5.594a1.925 1.925 0 0 0-1.93 1.887v2.966a1.924 1.924 0 0 0 1.898 1.923h5.594a1.924 1.924 0 0 0 1.925-1.887v-2.966a1.924 1.924 0 0 0-1.893-1.92zm-12.918 1.19a.51.51 0 0 0-.511.5v3.436a.512.512 0 0 0 .735.456h.008l3.175-1.61v-1.138l-3.178-1.585a.5.5 0 0 0-.23-.055zM9.559 1a5.23 5.23 0 0 1 4.558 2.646 4.456 4.456 0 1 1-.576 5.895A5.209 5.209 0 1 1 9.559 1m0 2.089a3.104 3.104 0 1 0 2.881 1.913A3.11 3.11 0 0 0 9.56 3.089m7.606 1.462a2.377 2.377 0 0 0-2.384 2.367 2.377 2.377 0 0 0 2.384 2.367 2.377 2.377 0 0 0 2.384-2.367 2.377 2.377 0 0 0-2.384-2.367"/></svg>