<svg xmlns="http://www.w3.org/2000/svg" width="24" height="24" fill="none"><path fill="url(#a)" d="m12.946 8.798 6.679.378L22 14.367H11.166z"/><path fill="url(#b)" d="m15.249 4.53-2.485 4.268-6.926 13.19h10.727l3.058-12.812"/><path fill="url(#c)" d="M2 16.501h11.854l2.729 5.487H4.548z"/><path fill="#fff" d="M16.229 12.022c.637 0 1.154-.525 1.154-1.172 0-.648-.517-1.173-1.154-1.173-.638 0-1.155.525-1.155 1.173 0 .647.517 1.172 1.155 1.172"/><path fill="url(#d)" d="m14.41 6.027-2.334-2.295-.26-1.708 3.174 2.99z"/><path fill="url(#e)" d="m13.662 7.292-2.296-2.487V2.613l3.042 3.414z"/><defs><linearGradient id="a" x1="552.86" x2="552.86" y1="565.738" y2="8.798" gradientUnits="userSpaceOnUse"><stop stop-color="#8655D0"/><stop offset="1" stop-color="#32258C"/></linearGradient><linearGradient id="b" x1="1050.62" x2="501.073" y1="4.53" y2="1686.98" gradientUnits="userSpaceOnUse"><stop stop-color="#F187FE"/><stop offset="1" stop-color="#985ED9"/></linearGradient><linearGradient id="c" x1="731.133" x2="731.133" y1="16.501" y2="565.197" gradientUnits="userSpaceOnUse"><stop stop-color="#8655D0"/><stop offset="1" stop-color="#32258C"/></linearGradient><linearGradient id="d" x1="170.482" x2="170.482" y1="2.024" y2="402.306" gradientUnits="userSpaceOnUse"><stop stop-color="#8655D0"/><stop offset="1" stop-color="#32258C"/></linearGradient><linearGradient id="e" x1="216.659" x2="95.713" y1="2.613" y2="452.356" gradientUnits="userSpaceOnUse"><stop stop-color="#F187FE"/><stop offset="1" stop-color="#985ED9"/></linearGradient></defs></svg>