<svg xmlns="http://www.w3.org/2000/svg" width="24" height="24" fill="none"><path fill="url(#a)" fill-rule="evenodd" d="M21.417 5.482c-.412.288-.672.44-1.068.532.035-.534.187-1.204.543-1.965l.354-.755-.702.448c-.22.14-.69.328-1.145.51-.227.092-.453.184-.668.276-1.585-1.905-4.045-2.978-7.162-2.978-4.168 0-7.29 2.136-8.546 5.57l-.207.065a.28.28 0 0 0-.159.14c-1.158 2.362-.44 3.768-.408 3.826.04.075.11.12.187.136.227 6.286 4.086 11.133 8.986 11.133 5.229 0 8.942-4.39 9.272-10.785.007 0 .014.006.02.006a.28.28 0 0 0 .274-.236c.16-1.097.05-1.937-.118-2.549.495-.769.684-1.838.808-2.552.042-.238.078-.443.112-.554l.21-.676z" clip-rule="evenodd"/><path fill="#fff" fill-rule="evenodd" d="M19.067 14.047c-1.308 5.046-3.708 2.142-7.222 2.142s-6.558 3.363-7.703-2.142c-.813-3.904 3.948-3.162 7.462-3.162s8.43-.575 7.463 3.162" clip-rule="evenodd"/><path fill="#6C60C9" fill-rule="evenodd" d="M8.371 14.358c0 .512-.415.07-.928.07s-.928.442-.928-.07a.928.928 0 1 1 1.856 0M16.625 14.358c0 .512-.415.07-.928.07s-.928.442-.928-.07a.928.928 0 1 1 1.856 0" clip-rule="evenodd"/><path fill="#fff" fill-rule="evenodd" d="M18.056 5.147c.492-.371 2.095-.868 2.616-1.2-.384.82-.545 1.54-.573 2.118q-.016.003-.031.006-.107.015-.213.037v.006q-.045.011-.091.022l-.004-.009a4.6 4.6 0 0 0-1.555.646c-.356-.117-.728-.212-1.1-.308.128-.497.477-.962.95-1.318M20.773 8.54a3.4 3.4 0 0 0-.417-.844l-.003-.003-.003-.004q-.007-.006-.013-.01v-.004a.3.3 0 0 0-.08-.062 15 15 0 0 0-1.75-.735 4.5 4.5 0 0 1 1.595-.566c.634-.093.928-.264 1.454-.631-.136.438-.238 1.863-.784 2.86" clip-rule="evenodd"/><path fill="#fff" fill-rule="evenodd" d="M20.714 11.366S12.578 6.85 2.49 11.022c0 0-.696-1.313.414-3.577 0 0 9.805-3.3 17.23.413 0 0 .919 1.17.578 3.508" clip-rule="evenodd"/><defs><linearGradient id="a" x1="1002.01" x2="1002.01" y1="9.577" y2="2735.88" gradientUnits="userSpaceOnUse"><stop stop-color="#617BE0"/><stop offset="1" stop-color="#734CB9"/></linearGradient></defs></svg>