<svg xmlns="http://www.w3.org/2000/svg" width="24" height="24" fill="none"><path fill="#06C755" d="M17.491 2H6.51A4.51 4.51 0 0 0 2 6.509V17.49A4.51 4.51 0 0 0 6.509 22H17.49A4.51 4.51 0 0 0 22 17.491V6.51A4.51 4.51 0 0 0 17.491 2"/><path fill="#fff" d="M18.666 11.058c0-2.984-2.99-5.412-6.668-5.412S5.33 8.074 5.33 11.057c0 2.675 2.375 4.916 5.576 5.34.218.046.513.142.588.328.067.169.044.433.022.603l-.095.57c-.03.17-.135.66.577.36.712-.299 3.84-2.26 5.239-3.871.966-1.06 1.43-2.137 1.43-3.33"/><path fill="#06C755" d="M16.448 12.78h-1.876a.125.125 0 0 1-.124-.124v-2.91a.125.125 0 0 1 .124-.125h1.876a.125.125 0 0 1 .125.125v.473a.125.125 0 0 1-.125.125h-1.274v.491h1.274a.125.125 0 0 1 .125.125v.477a.125.125 0 0 1-.125.126h-1.274v.49h1.274a.125.125 0 0 1 .125.126v.472a.125.125 0 0 1-.125.13M9.518 12.78a.125.125 0 0 0 .125-.124v-.473a.125.125 0 0 0-.125-.125H8.245V9.746a.125.125 0 0 0-.125-.125h-.475a.125.125 0 0 0-.125.125v2.908a.125.125 0 0 0 .125.125H9.52zM10.646 9.616h-.473a.127.127 0 0 0-.127.127v2.91c0 .07.057.128.127.128h.473c.07 0 .127-.058.127-.128v-2.91a.13.13 0 0 0-.127-.127M13.865 9.616h-.473a.125.125 0 0 0-.124.125v1.728l-1.332-1.798-.01-.013-.008-.007-.007-.006h-.003L11.9 9.64h-.004l-.007-.004h-.53a.125.125 0 0 0-.124.125v2.91a.125.125 0 0 0 .125.125h.473a.125.125 0 0 0 .125-.125v-1.745l1.333 1.8q.014.018.032.032l.008.005h.004l.006.003h.02l.033.005h.47a.125.125 0 0 0 .125-.125V9.743a.13.13 0 0 0-.077-.118.1.1 0 0 0-.048-.01"/></svg>