<svg xmlns="http://www.w3.org/2000/svg" width="24" height="24" fill="none"><path fill="#0B65C2" fill-rule="evenodd" d="M4.222 22h15.556A2.22 2.22 0 0 0 22 19.778V4.222A2.22 2.22 0 0 0 19.778 2H4.222A2.22 2.22 0 0 0 2 4.222v15.556C2 21.005 2.995 22 4.222 22" clip-rule="evenodd"/><path fill="#fff" fill-rule="evenodd" d="M19 19h-2.877v-4.9c0-1.343-.51-2.093-1.573-2.093-1.157 0-1.761.78-1.761 2.094V19h-2.772V9.667h2.772v1.257s.833-1.542 2.814-1.542c1.98 0 3.397 1.208 3.397 3.709zM6.71 8.445C5.764 8.445 5 7.673 5 6.722 5 5.772 5.765 5 6.71 5c.944 0 1.708.771 1.708 1.722S7.654 8.445 6.71 8.445M5.277 19h2.89V9.667h-2.89z" clip-rule="evenodd"/></svg>