<svg xmlns="http://www.w3.org/2000/svg" width="24" height="24" fill="none"><path fill="#159DE3" d="M12.026 7h-5v10h9.997v-5l-4.997 4.997zm5.469 1.924a3.34 3.34 0 0 1-1.976-1.979 3.36 3.36 0 0 1-1.979 1.98 3.37 3.37 0 0 1 1.98 1.978 3.34 3.34 0 0 1 1.975-1.979M2 10.002c0-2.804 0-4.203.543-5.271a5.04 5.04 0 0 1 2.188-2.188C5.8 2 7.198 2 10 2h3.997c2.804 0 4.203 0 5.271.543a5.04 5.04 0 0 1 2.188 2.188C22 5.8 22 7.198 22 10v3.997c0 2.804 0 4.203-.543 5.271a5.04 5.04 0 0 1-2.188 2.188C18.2 22 16.802 22 14 22h-3.997c-2.804 0-4.203 0-5.271-.543a5.04 5.04 0 0 1-2.188-2.188C2 18.2 2 16.802 2 14z"/></svg>