<svg xmlns="http://www.w3.org/2000/svg" width="24" height="24" fill="none"><path fill="url(#a)" d="M20.927 6.656c-.277-2.06-2.073-3.685-4.203-4-.359-.052-1.72-.246-4.873-.246h-.023c-3.154 0-3.83.194-4.19.247-2.07.306-3.96 1.765-4.418 3.85-.22 1.027-.244 2.166-.203 3.21.058 1.498.07 2.993.205 4.484q.141 1.488.491 2.941c.436 1.788 2.2 3.275 3.93 3.881a10.54 10.54 0 0 0 5.75.304q.314-.074.62-.17c.465-.147 1.008-.312 1.407-.602a.04.04 0 0 0 .013-.015.04.04 0 0 0 .005-.02v-1.445a.04.04 0 0 0-.004-.018.04.04 0 0 0-.029-.023.04.04 0 0 0-.019 0 16 16 0 0 1-3.73.436c-2.163 0-2.745-1.026-2.911-1.453a4.5 4.5 0 0 1-.253-1.146.042.042 0 0 1 .052-.042c1.202.29 2.434.436 3.67.436q.446.002.891-.008c1.244-.035 2.554-.099 3.777-.338q.046-.008.087-.019c1.93-.37 3.766-1.533 3.953-4.478.007-.116.024-1.214.024-1.335.001-.409.132-2.9-.019-4.43"/><path fill="#fff" d="M17.87 8.972v5.12h-2.028v-4.97c0-1.046-.436-1.58-1.323-1.58-.975 0-1.463.632-1.463 1.879v2.72H11.04V9.42c0-1.247-.49-1.878-1.464-1.878-.882 0-1.322.533-1.322 1.58v4.968H6.226v-5.12q0-1.568.801-2.493c.551-.614 1.274-.93 2.171-.93q1.56 0 2.346 1.197l.505.848.506-.848c.523-.797 1.308-1.197 2.345-1.197.896 0 1.619.316 2.171.93q.8.924.8 2.494"/><defs><linearGradient id="a" x1="12" x2="12" y1="2.41" y2="21.59" gradientUnits="userSpaceOnUse"><stop stop-color="#6364FF"/><stop offset="1" stop-color="#563ACC"/></linearGradient></defs></svg>