<svg xmlns="http://www.w3.org/2000/svg" width="24" height="24" fill="none"><path fill="url(#a)" d="M12 2C6.368 2 2 6.128 2 11.7c0 2.915 1.195 5.435 3.14 7.175a.8.8 0 0 1 .268.57l.054 1.78a.8.8 0 0 0 1.123.708l1.985-.875a.8.8 0 0 1 .535-.04c.912.25 1.883.385 2.895.385 5.633 0 10-4.128 10-9.7C22 6.13 17.633 2 12 2"/><path fill="#fff" d="m5.995 14.538 2.937-4.66a1.5 1.5 0 0 1 2.17-.4l2.338 1.752a.6.6 0 0 0 .722-.002l3.155-2.395c.42-.32.97.185.69.632l-2.94 4.658a1.5 1.5 0 0 1-2.17.4L10.56 12.77a.6.6 0 0 0-.723.003l-3.155 2.395c-.42.32-.97-.183-.687-.63"/><defs><radialGradient id="a" cx="0" cy="0" r="1" gradientTransform="matrix(22 0 0 22 5.35 22)" gradientUnits="userSpaceOnUse"><stop stop-color="#09F"/><stop offset=".6" stop-color="#A033FF"/><stop offset=".9" stop-color="#FF5280"/><stop offset="1" stop-color="#FF7061"/></radialGradient></defs></svg>