<svg xmlns="http://www.w3.org/2000/svg" width="24" height="24" fill="none"><path fill="#0081FB" d="M2.592 14.513c0 .916.201 1.62.464 2.045.345.558.86.794 1.383.794.676 0 1.295-.168 2.487-1.816.954-1.321 2.08-3.176 2.836-4.338l1.282-1.97c.89-1.368 1.922-2.889 3.103-3.92C15.112 4.469 16.153 4 17.2 4c1.759 0 3.434 1.02 4.716 2.93C23.319 9.024 24 11.66 24 14.38c0 1.618-.319 2.807-.861 3.746-.524.908-1.546 1.815-3.264 1.815v-2.589c1.47 0 1.838-1.352 1.838-2.9 0-2.204-.514-4.651-1.646-6.4-.804-1.24-1.846-1.998-2.992-1.998-1.24 0-2.236.935-3.357 2.601-.596.886-1.208 1.965-1.895 3.183l-.756 1.34c-1.52 2.693-1.904 3.306-2.663 4.318-1.332 1.773-2.468 2.445-3.965 2.445-1.775 0-2.897-.769-3.593-1.927C.28 17.07 0 15.83 0 14.42z"/><path fill="url(#a)" d="M2.044 7.113C3.233 5.281 4.948 4 6.915 4c1.14 0 2.272.337 3.455 1.303 1.293 1.056 2.672 2.794 4.392 5.66l.617 1.028c1.489 2.48 2.336 3.756 2.832 4.358.637.773 1.084 1.003 1.664 1.003 1.471 0 1.839-1.352 1.839-2.9L24 14.382c0 1.617-.318 2.806-.86 3.745-.525.908-1.547 1.815-3.265 1.815-1.068 0-2.015-.232-3.061-1.22-.805-.757-1.746-2.103-2.47-3.314l-2.152-3.595c-1.08-1.804-2.07-3.15-2.644-3.76-.616-.654-1.41-1.446-2.675-1.446-1.024 0-1.893.72-2.621 1.818z"/><path fill="url(#b)" d="M6.873 6.606c-1.024 0-1.894.72-2.621 1.818-1.03 1.553-1.66 3.867-1.66 6.089 0 .916.201 1.62.464 2.045l-2.21 1.456C.28 17.07 0 15.83 0 14.42c0-2.566.704-5.241 2.044-7.307C3.232 5.281 4.948 4 6.914 4z"/><defs><linearGradient id="a" x1="5.092" x2="21.617" y1="13.765" y2="14.6" gradientUnits="userSpaceOnUse"><stop stop-color="#0064E1"/><stop offset=".4" stop-color="#0064E1"/><stop offset=".83" stop-color="#0073EE"/><stop offset="1" stop-color="#0082FB"/></linearGradient><linearGradient id="b" x1="3.756" x2="3.756" y1="15.601" y2="9.508" gradientUnits="userSpaceOnUse"><stop stop-color="#0082FB"/><stop offset="1" stop-color="#0064E0"/></linearGradient></defs></svg>