<svg xmlns="http://www.w3.org/2000/svg" width="24" height="24" fill="none"><path fill="#41A5EE" d="M22.062 1.767H7.054a.94.94 0 0 0-.938.938v4.179l8.698 2.558L23 6.884V2.705a.94.94 0 0 0-.938-.938"/><path fill="#2B7CD3" d="M23 6.884H6.116V12l8.698 1.535L23 12z"/><path fill="#185ABD" d="M6.116 12v5.116l8.187 1.024L23 17.116V12z"/><path fill="#103F91" d="M7.054 22.233h15.008c.518 0 .938-.42.938-.938v-4.179H6.116v4.179c0 .518.42.938.938.938"/><path fill="#000" d="M12.341 5.86H6.116v12.791h6.225a.94.94 0 0 0 .938-.938V6.798a.94.94 0 0 0-.938-.938" opacity=".1"/><path fill="#000" d="M11.83 6.372H6.116v12.79h5.714a.94.94 0 0 0 .938-.937V7.31a.94.94 0 0 0-.938-.938" opacity=".2"/><path fill="#000" d="M11.83 6.372H6.116V18.14h5.714a.94.94 0 0 0 .938-.938V7.31a.94.94 0 0 0-.938-.938" opacity=".2"/><path fill="#000" d="M11.318 6.372H6.116V18.14h5.202a.94.94 0 0 0 .938-.938V7.31a.94.94 0 0 0-.938-.938" opacity=".2"/><path fill="url(#a)" d="M1.938 6.372h9.38c.518 0 .938.42.938.938v9.38c0 .518-.42.938-.938.938h-9.38A.94.94 0 0 1 1 16.69V7.31c0-.518.42-.938.938-.938"/><path fill="#fff" d="M4.85 13.565q.027.216.036.378h.022q.012-.153.05-.37l.07-.366.987-4.255h1.276l1.023 4.192q.09.39.127.79h.017a6 6 0 0 1 .107-.767L9.38 8.95h1.16l-1.433 6.098H7.752L6.78 11.01a10 10 0 0 1-.162-.864h-.017q-.016.15-.066.442t-.079.434l-.913 4.026h-1.38L2.722 8.952h1.182l.888 4.264q.03.132.058.349"/><defs><linearGradient id="a" x1="2.955" x2="10.3" y1="5.639" y2="18.361" gradientUnits="userSpaceOnUse"><stop stop-color="#2368C4"/><stop offset=".5" stop-color="#1A5DBE"/><stop offset="1" stop-color="#1146AC"/></linearGradient></defs></svg>