<svg xmlns="http://www.w3.org/2000/svg" width="24" height="24" fill="none"><path fill="#5059C9" d="M15.95 9.837h5.166c.488 0 .884.396.884.884v4.705a3.25 3.25 0 0 1-3.248 3.248h-.015a3.25 3.25 0 0 1-3.248-3.247v-5.128c0-.255.206-.462.461-.462M19.442 8.907a2.093 2.093 0 1 0 0-4.186 2.093 2.093 0 0 0 0 4.186"/><path fill="#7B83EB" d="M12.93 8.907a3.023 3.023 0 1 0 0-6.046 3.023 3.023 0 0 0 0 6.046M16.962 9.837H8.435a.874.874 0 0 0-.853.895v5.366a5.246 5.246 0 0 0 5.116 5.367 5.246 5.246 0 0 0 5.116-5.367v-5.366a.874.874 0 0 0-.852-.895"/><path fill="#000" d="M13.163 9.837v7.52a.856.856 0 0 1-.851.852h-4.32a5.663 5.663 0 0 1-.41-2.111V10.73a.873.873 0 0 1 .851-.893z" opacity=".1"/><path fill="#000" d="M12.698 9.837v7.986a.856.856 0 0 1-.851.851H8.21a6 6 0 0 1-.219-.465 5.663 5.663 0 0 1-.41-2.111V10.73a.873.873 0 0 1 .852-.893z" opacity=".2"/><path fill="#000" d="M12.698 9.837v7.056a.86.86 0 0 1-.851.85H7.829a5.7 5.7 0 0 1-.247-1.645V10.73a.873.873 0 0 1 .851-.893z" opacity=".2"/><path fill="#000" d="M12.233 9.837v7.056a.86.86 0 0 1-.851.85H7.829a5.7 5.7 0 0 1-.247-1.645V10.73a.873.873 0 0 1 .851-.893z" opacity=".2"/><path fill="#000" d="M13.163 7.433v1.465c-.079.004-.153.01-.232.01s-.154-.006-.233-.01a2.6 2.6 0 0 1-.465-.075 3.02 3.02 0 0 1-2.093-1.776 2.6 2.6 0 0 1-.149-.465h2.321c.47.001.85.381.851.85" opacity=".1"/><path fill="#000" d="M12.698 7.898v1a2.6 2.6 0 0 1-.465-.075 3.02 3.02 0 0 1-2.093-1.776h1.707c.47.002.85.382.851.85" opacity=".2"/><path fill="#000" d="M12.698 7.898v1a2.6 2.6 0 0 1-.465-.075 3.02 3.02 0 0 1-2.093-1.776h1.707c.47.002.85.382.851.85" opacity=".2"/><path fill="#000" d="M12.233 7.898v.925a3.02 3.02 0 0 1-2.093-1.776h1.242c.47.002.85.382.851.85" opacity=".2"/><path fill="url(#a)" d="M2.853 7.047h8.528c.47 0 .852.381.852.852v8.527c0 .471-.382.853-.853.853H2.854a.853.853 0 0 1-.852-.853V7.9c0-.47.382-.852.852-.852"/><path fill="#fff" d="M9.36 10.292H7.657v4.642H6.57v-4.642H4.874v-.9H9.36z"/><defs><linearGradient id="a" x1="3.778" x2="10.456" y1="6.381" y2="17.945" gradientUnits="userSpaceOnUse"><stop stop-color="#5A62C3"/><stop offset=".5" stop-color="#4D55BD"/><stop offset="1" stop-color="#3940AB"/></linearGradient></defs></svg>