<svg xmlns="http://www.w3.org/2000/svg" width="24" height="24" fill="none"><path fill="url(#a)" d="M21.189 4.534H3.223c-1.278 0-1.278.742-1.278.742v13.31c0 3.667 3.874 3.914 3.874 3.914h11.95c4.45 0 4.285-3.667 4.285-3.667V5.482c0-1.154-.865-.948-.865-.948"/><path fill="#F25022" d="M11.543 8.943H7.602v3.94h3.94z"/><path fill="#7FBA00" d="M16.357 8.943h-3.94v3.94h3.94z"/><path fill="#FFB900" d="M16.357 13.759h-3.94v3.94h3.94z"/><path fill="#00A4EF" d="M11.543 13.759H7.602v3.94h3.94z"/><path fill="url(#b)" fill-rule="evenodd" d="M5.849 5.44a.876.876 0 0 0 1.75 0zm10.507 0a.876.876 0 1 0 1.752 0zm-8.756 0V3.251H5.849v2.19zm0-2.189h8.756V1.5H7.6zm8.756 0v2.19h1.752V3.25zm0 0h1.752c0-.967-.785-1.751-1.752-1.751zm-8.756 0V1.5c-.967 0-1.751.784-1.751 1.751z" clip-rule="evenodd"/><path fill="url(#c)" d="M7.602 1.5h8.756v1.751H7.602z"/><defs><linearGradient id="a" x1="11.423" x2="11.752" y1="5.564" y2="25.796" gradientUnits="userSpaceOnUse"><stop stop-color="#0669BC"/><stop offset=".5" stop-color="#15528E"/><stop offset="1" stop-color="#243A5F"/></linearGradient><linearGradient id="b" x1="10.85" x2="10.85" y1="3.483" y2="6.202" gradientUnits="userSpaceOnUse"><stop stop-color="#30DAFF"/><stop offset=".5" stop-color="#18B7EA"/><stop offset="1" stop-color="#0094D4"/></linearGradient><linearGradient id="c" x1="11.98" x2="11.98" y1="1.263" y2="3.406" gradientUnits="userSpaceOnUse"><stop stop-color="#22BCFF"/><stop offset=".5" stop-color="#11A2F8"/><stop offset="1" stop-color="#0088F0"/></linearGradient></defs></svg>