<svg xmlns="http://www.w3.org/2000/svg" width="24" height="24" fill="none"><path fill="#ED6C47" d="M14.303 13.023 12.768 1.767h-.115C7.072 1.784 2.551 6.304 2.535 11.885V12z"/><path fill="#FF8F6B" d="M12.882 1.767h-.115V12l5.116 2.047L23 12v-.115c-.017-5.58-4.537-10.101-10.118-10.118"/><path fill="#D35230" d="M23 12v.113c-.016 5.582-4.537 10.104-10.12 10.12h-.225c-5.582-.017-10.104-4.538-10.12-10.12V12z"/><path fill="#000" d="M13.28 6.797v10.918a.94.94 0 0 1-.937.936H4.95a10.035 10.035 0 0 1-2.415-6.539v-.225c-.003-1.96.57-3.878 1.647-5.515a7 7 0 0 1 .359-.512h7.802c.515.004.932.421.936.937" opacity=".1"/><path fill="#000" d="M12.768 7.308v10.919a.942.942 0 0 1-.936.936H5.415a9 9 0 0 1-.466-.512 10.035 10.035 0 0 1-2.415-6.539v-.225c-.003-1.96.57-3.878 1.647-5.515h7.65c.515.004.932.42.936.936" opacity=".2"/><path fill="#000" d="M12.768 7.308v9.895a.943.943 0 0 1-.937.937h-7.29a10.04 10.04 0 0 1-2.006-6.027v-.226c-.003-1.96.57-3.878 1.647-5.515h7.65c.515.004.932.42.936.936" opacity=".2"/><path fill="#000" d="M12.256 7.308v9.895a.943.943 0 0 1-.936.937H4.54a10.04 10.04 0 0 1-2.005-6.027v-.226c-.003-1.96.57-3.878 1.647-5.515h7.138c.515.004.932.42.936.936" opacity=".2"/><path fill="url(#a)" d="M1.938 6.372h9.38c.518 0 .938.42.938.938v9.38c0 .518-.42.938-.938.938h-9.38A.94.94 0 0 1 1 16.69V7.31c0-.518.42-.938.938-.938"/><path fill="#fff" d="M6.73 8.873a2.58 2.58 0 0 1 1.707.5c.41.367.63.901.595 1.45.007.382-.095.757-.293 1.083-.201.32-.49.576-.833.736-.392.182-.82.272-1.252.263H5.468v2.205H4.253V8.873zm-1.263 3.08h1.046c.331.024.66-.074.924-.276.218-.21.333-.505.313-.807q0-1.03-1.199-1.031H5.467z"/><defs><linearGradient id="a" x1="2.955" x2="10.3" y1="5.639" y2="18.361" gradientUnits="userSpaceOnUse"><stop stop-color="#CA4C28"/><stop offset=".5" stop-color="#C5401E"/><stop offset="1" stop-color="#B62F14"/></linearGradient></defs></svg>