<svg xmlns="http://www.w3.org/2000/svg" width="24" height="24" fill="none"><path fill="#185C37" d="M14.814 11.488 6.116 9.953v11.342c0 .517.42.937.938.937h15.008c.518 0 .938-.42.938-.937v-4.179z"/><path fill="#21A366" d="M14.814 1.768h-7.76a.94.94 0 0 0-.938.937v4.179L14.814 12l4.604 1.535L23 12V6.884z"/><path fill="#107C41" d="M6.116 6.884h8.698V12H6.116z"/><path fill="#000" d="M12.341 5.86H6.116v12.791h6.225a.94.94 0 0 0 .938-.938V6.798a.94.94 0 0 0-.938-.937" opacity=".1"/><path fill="#000" d="M11.83 6.372H6.115v12.79h5.713a.94.94 0 0 0 .938-.937V7.31a.94.94 0 0 0-.938-.938" opacity=".2"/><path fill="#000" d="M11.83 6.372H6.115V18.14h5.713a.94.94 0 0 0 .938-.937V7.31a.94.94 0 0 0-.938-.938" opacity=".2"/><path fill="#000" d="M11.318 6.372H6.116V18.14h5.202a.94.94 0 0 0 .938-.937V7.31a.94.94 0 0 0-.938-.938" opacity=".2"/><path fill="url(#a)" d="M1.939 6.372h9.38c.518 0 .938.42.938.938v9.38c0 .518-.42.938-.938.938h-9.38A.94.94 0 0 1 1 16.69V7.31c0-.518.42-.938.938-.938"/><path fill="#fff" d="m3.905 15.048 1.973-3.057-1.808-3.04h1.454l.987 1.944q.135.277.187.413h.013a8 8 0 0 1 .205-.43L7.97 8.953h1.335L7.45 11.975l1.9 3.073h-1.42l-1.139-2.134a2 2 0 0 1-.136-.285H6.64a1.4 1.4 0 0 1-.132.277l-1.173 2.142z"/><path fill="#33C481" d="M22.061 1.768h-7.248v5.116H23V2.705a.94.94 0 0 0-.938-.937"/><path fill="#107C41" d="M14.813 12H23v5.116h-8.186z"/><defs><linearGradient id="a" x1="2.956" x2="10.301" y1="5.639" y2="18.361" gradientUnits="userSpaceOnUse"><stop stop-color="#18884F"/><stop offset=".5" stop-color="#117E43"/><stop offset="1" stop-color="#0B6631"/></linearGradient></defs></svg>