<svg xmlns="http://www.w3.org/2000/svg" width="24" height="24" fill="none"><path fill="#fff" d="M3.257 2.453 14.82 1.6c1.42-.121 1.785-.04 2.678.61l3.691 2.6c.609.447.812.569.812 1.056v14.26c0 .893-.325 1.422-1.461 1.502l-13.427.814c-.852.04-1.258-.082-1.705-.65L2.69 18.255c-.488-.65-.69-1.137-.69-1.707V3.874c0-.73.325-1.34 1.257-1.42"/><path fill="#000" fill-rule="evenodd" d="m14.82 1.6-11.563.854C2.324 2.534 2 3.144 2 3.874V16.55c0 .57.202 1.056.69 1.707l2.717 3.534c.447.569.853.691 1.705.65l13.427-.812c1.135-.081 1.46-.61 1.46-1.503V5.865c0-.462-.182-.595-.719-.989L17.497 2.21c-.892-.65-1.258-.731-2.678-.61M7.415 5.632c-1.096.073-1.345.09-1.968-.416l-1.583-1.26c-.16-.162-.08-.366.326-.406l11.115-.812c.933-.082 1.419.243 1.784.528l1.906 1.38c.082.042.284.285.04.285l-11.478.691zm-1.278 14.37V7.899c0-.53.162-.773.648-.814l13.184-.772c.447-.04.65.244.65.772v12.025c0 .528-.082.975-.812 1.016l-12.616.73c-.73.041-1.054-.202-1.054-.852M18.592 8.548c.08.365 0 .73-.366.773l-.608.12v8.938c-.528.284-1.014.446-1.42.446-.65 0-.812-.203-1.298-.812l-3.976-6.256v6.053l1.257.285s0 .73-1.014.73l-2.798.163c-.082-.163 0-.569.283-.65l.73-.202v-8.003L8.37 10.05c-.082-.366.121-.894.69-.935l3.002-.202 4.137 6.337V9.644l-1.055-.121c-.081-.448.243-.774.648-.813z" clip-rule="evenodd"/></svg>