<svg xmlns="http://www.w3.org/2000/svg" width="24" height="24" fill="none"><path fill="url(#a)" d="M6.589 2H17.41A4.58 4.58 0 0 1 22 6.59v10.82A4.58 4.58 0 0 1 17.41 22H6.59a4.58 4.58 0 0 1-4.59-4.59V6.59A4.58 4.58 0 0 1 6.589 2"/><path fill="url(#b)" d="M11.57 11.857H8.643a.125.125 0 0 0-.125.125v5.036c0 .069.056.125.125.125h2.929a.125.125 0 0 0 .125-.125v-5.036a.125.125 0 0 0-.125-.125"/><path fill="url(#c)" d="M7.92 14.857H4.927c-.052 0-.094.039-.094.086v2.114c0 .048.042.086.094.086h2.991c.052 0 .094-.038.094-.086v-2.114c0-.047-.042-.086-.094-.086"/><path fill="url(#d)" d="M15.27 5.86h-2.928a.125.125 0 0 0-.125.124v11.034c0 .07.056.125.125.125h2.929a.125.125 0 0 0 .125-.125V5.984a.125.125 0 0 0-.125-.125"/><path fill="url(#e)" d="M18.984 9.161H16.03a.115.115 0 0 0-.112.117v7.748c0 .065.05.117.112.117h2.954a.115.115 0 0 0 .112-.117V9.278a.115.115 0 0 0-.112-.117"/><path fill="url(#f)" d="M18.934 17.723H5.014c-.158 0-.286.104-.286.233v.071c0 .129.128.233.286.233h13.92c.158 0 .286-.104.286-.233v-.071c0-.129-.128-.233-.286-.233"/><defs><linearGradient id="a" x1="12.139" x2="12.159" y1="21.92" y2="2.241" gradientUnits="userSpaceOnUse"><stop stop-color="#11D51D"/><stop offset="1" stop-color="#82FA6C"/></linearGradient><linearGradient id="b" x1="13.428" x2="13.214" y1="5.964" y2="18.214" gradientUnits="userSpaceOnUse"><stop stop-color="#fff"/><stop offset="1" stop-color="#fff"/></linearGradient><linearGradient id="c" x1="13.428" x2="13.213" y1="5.964" y2="18.214" gradientUnits="userSpaceOnUse"><stop stop-color="#fff"/><stop offset="1" stop-color="#fff"/></linearGradient><linearGradient id="d" x1="13.428" x2="13.213" y1="5.964" y2="18.215" gradientUnits="userSpaceOnUse"><stop stop-color="#fff"/><stop offset="1" stop-color="#fff"/></linearGradient><linearGradient id="e" x1="13.428" x2="13.214" y1="5.964" y2="18.215" gradientUnits="userSpaceOnUse"><stop stop-color="#fff"/><stop offset="1" stop-color="#fff"/></linearGradient><linearGradient id="f" x1="13.428" x2="13.214" y1="5.964" y2="18.215" gradientUnits="userSpaceOnUse"><stop stop-color="#fff"/><stop offset="1" stop-color="#fff"/></linearGradient></defs></svg>