<svg xmlns="http://www.w3.org/2000/svg" width="24" height="24" fill="none"><path fill="#000" d="M14.886 8.838H9.108c-.245 0-.444.186-.444.416v5.406c0 .23.2.415.444.415h5.778c.245 0 .444-.186.444-.415V9.253c0-.23-.199-.416-.444-.416M8.222 2.6H2.444C2.2 2.6 2 2.786 2 3.016v5.406c0 .23.199.416.444.416h5.778c.245 0 .444-.187.444-.416V3.016c0-.23-.199-.416-.444-.416M21.556 2.6h-5.778c-.245 0-.444.186-.444.416v5.406c0 .23.2.416.444.416h5.778c.245 0 .444-.187.444-.416V3.016c0-.23-.199-.416-.444-.416M8.222 15.075H2.444c-.245 0-.444.186-.444.416v5.406c0 .23.199.416.444.416h5.778c.245 0 .444-.187.444-.416V15.49c0-.23-.199-.416-.444-.416M21.556 15.075h-5.778c-.245 0-.444.186-.444.416v5.406c0 .23.2.416.444.416h5.778c.245 0 .444-.187.444-.416V15.49c0-.23-.199-.416-.444-.416"/></svg>