<svg xmlns="http://www.w3.org/2000/svg" width="24" height="24" fill="none"><path fill="#000" d="M20.681 10.186a4.92 4.92 0 0 0-.434-4.093c-1.106-1.9-3.329-2.877-5.5-2.417A5.08 5.08 0 0 0 10.938 2C8.718 1.995 6.75 3.405 6.066 5.49A5.05 5.05 0 0 0 2.69 7.906a4.99 4.99 0 0 0 .628 5.909 4.92 4.92 0 0 0 .434 4.092c1.106 1.9 3.33 2.878 5.5 2.418A5.08 5.08 0 0 0 13.063 22c2.22.006 4.19-1.406 4.873-3.491a5.05 5.05 0 0 0 3.376-2.417 4.99 4.99 0 0 0-.63-5.907m-7.619 10.507a3.82 3.82 0 0 1-2.431-.867c.03-.017.085-.046.12-.067l4.036-2.3a.65.65 0 0 0 .332-.567v-5.615l1.705.972q.029.015.033.046v4.65c-.002 2.067-1.7 3.744-3.794 3.748m-8.16-3.44a3.7 3.7 0 0 1-.453-2.51c.03.017.082.049.12.07l4.036 2.3a.67.67 0 0 0 .663 0l4.927-2.808v1.944a.06.06 0 0 1-.024.052l-4.08 2.324c-1.817 1.033-4.138.42-5.189-1.372M3.839 8.56a3.77 3.77 0 0 1 1.977-1.643l-.002.138v4.6a.65.65 0 0 0 .332.567l4.927 2.807L9.367 16a.06.06 0 0 1-.057.005L5.23 13.68a3.725 3.725 0 0 1-1.391-5.118m14.015 3.218-4.927-2.807L14.633 8a.06.06 0 0 1 .057-.005l4.08 2.324a3.72 3.72 0 0 1 1.39 5.121 3.78 3.78 0 0 1-1.976 1.643v-4.738a.65.65 0 0 0-.33-.567m1.698-2.52-.12-.071-4.036-2.3a.67.67 0 0 0-.663 0L9.806 9.693V7.75a.06.06 0 0 1 .024-.052l4.08-2.322c1.817-1.035 4.14-.419 5.188 1.375.442.757.603 1.644.453 2.506M8.878 12.721l-1.706-.972a.06.06 0 0 1-.033-.047V7.054c.001-2.07 1.703-3.748 3.801-3.746.887 0 1.746.307 2.428.867l-.12.067-4.035 2.3a.65.65 0 0 0-.332.566l-.003 5.612zm.927-1.972L12 9.5l2.194 1.25v2.5L12 14.5l-2.195-1.25z"/></svg>