<svg xmlns="http://www.w3.org/2000/svg" width="24" height="24" fill="none"><path fill="url(#a)" d="M6.59 2h10.82A4.58 4.58 0 0 1 22 6.59v10.82A4.58 4.58 0 0 1 17.41 22H6.59A4.58 4.58 0 0 1 2 17.41V6.59A4.58 4.58 0 0 1 6.59 2"/><path fill="#fff" d="M7.203 17.135a23 23 0 0 0 .617-.42c.025-.024-.007-.064-.253-.31-.156-.157-.297-.284-.315-.284-.032 0-.797 1.133-.837 1.24-.038.1.04.195.144.176.03-.005.32-.186.644-.402m1.108-.733c.524-.35.835-.599 1.573-1.26 1.084-.97 3.542-3.313 3.542-3.375 0-.04-1.21-1.251-1.25-1.251-.05 0-1.984 2.018-2.96 3.086-.653.716-.975 1.086-1.208 1.386-.284.365-.656.91-.656.96 0 .038.609.642.646.642.018 0 .159-.084.313-.188m6.436-4.41c.054-.054.066-.08.066-.149a.7.7 0 0 0-.023-.158c-.03-.102 0-.196.11-.345.116-.158.236-.287 1.077-1.158 1.122-1.163 1.796-1.884 2.106-2.253.163-.194.235-.355.234-.529 0-.136-.003-.145-.115-.357-.043-.082-.029-.162.05-.277.287-.423.3-.817.037-1.102-.232-.252-.625-.275-.99-.058-.118.07-.602.49-1.177 1.021-1.267 1.17-3.809 3.676-3.809 3.755 0 .037 1.214 1.247 1.25 1.247.017 0 .537-.508 1.155-1.128a84 84 0 0 0 2.372-2.446c.575-.62.58-.625.633-.63.04-.004.05.004.055.048.008.07-.011.102-.18.304-.321.386-.892.992-2.15 2.28-.419.43-.808.843-.865.918-.131.174-.248.405-.279.55-.058.275.092.532.31.533.05 0 .083-.016.133-.066m-8.389 5.735c-.136 0-.246.121-.246.271s.11.272.246.272h15.567l.017-.127.023-.142.015-.134.008-.14z"/><defs><linearGradient id="a" x1="11.991" x2="12.01" y1="21.921" y2="2.243" gradientUnits="userSpaceOnUse"><stop stop-color="#FF8500"/><stop offset="1" stop-color="#FFB900"/></linearGradient></defs></svg>