<svg xmlns="http://www.w3.org/2000/svg" width="24" height="24" fill="none"><path fill="#001C64" d="M10.259 6a.56.56 0 0 0-.369.138.58.58 0 0 0-.192.348l-.932 6A.57.57 0 0 1 9.327 12h2.73c2.749 0 5.08-2.035 5.506-4.793q.048-.31.054-.622a5.1 5.1 0 0 0-2.418-.585z"/><path fill="#0070E0" d="M17.617 6.584a5 5 0 0 1-.054.622C17.137 9.964 14.805 12 12.058 12H9.327a.57.57 0 0 0-.56.486L7.91 18l-.537 3.459a.475.475 0 0 0 .262.498q.091.042.193.043h2.964c.135 0 .266-.05.369-.138a.58.58 0 0 0 .192-.349l.78-5.027a.58.58 0 0 1 .192-.348.56.56 0 0 1 .37-.138h1.744c2.748 0 5.08-2.036 5.506-4.794.303-1.957-.668-3.739-2.328-4.622"/><path fill="#003087" d="M6.892 2a.57.57 0 0 0-.56.486L4.004 17.459a.466.466 0 0 0 .456.54H7.91l.856-5.513.932-6a.58.58 0 0 1 .192-.348A.56.56 0 0 1 10.26 6h4.94c.9 0 1.72.212 2.418.584C17.665 4.073 15.624 2 12.818 2z"/></svg>