<svg xmlns="http://www.w3.org/2000/svg" width="24" height="24" fill="none"><path fill="#40A4C4" d="M12 22c5.523 0 10-4.477 10-10S17.523 2 12 2 2 6.477 2 12s4.477 10 10 10"/><path fill="#fff" d="M12.073 18.267c.994 0 4.914-4.407 4.914-7.36 0-2.827-2.234-5.174-4.914-5.174-2.82 0-5.053 2.347-5.053 5.174 0 2.953 3.92 7.36 5.053 7.36"/><path fill="#E94F3C" d="M11.347 7.78q.35-.08.74-.08c1.58 0 2.933 1.32 2.933 3.027 0 1.54-1.353 2.86-2.933 2.86-1.754 0-3.107-1.32-3.107-2.86 0-.654.2-1.247.54-1.734a1.2 1.2 0 0 0 1.187.96c.666 0 1.206-.526 1.206-1.18 0-.42-.226-.786-.566-.993"/></svg>