<svg xmlns="http://www.w3.org/2000/svg" width="24" height="24" fill="none"><path fill="#fff" d="M12 22.002c5.523 0 10-4.477 10-10s-4.477-10-10-10-10 4.477-10 10 4.477 10 10 10"/><path fill="#E60019" d="M12 2.002c-5.523 0-10 4.477-10 10 0 4.238 2.634 7.86 6.354 9.317-.09-.79-.165-2.009.033-2.873.18-.782 1.169-4.971 1.169-4.971s-.297-.6-.297-1.482c0-1.39.807-2.428 1.811-2.428.856 0 1.267.642 1.267 1.408 0 .856-.543 2.14-.83 3.333-.24.996.501 1.81 1.48 1.81 1.778 0 3.145-1.876 3.145-4.575 0-2.395-1.72-4.066-4.181-4.066-2.848 0-4.519 2.132-4.519 4.337 0 .856.33 1.778.74 2.28.083.099.091.19.067.288-.074.313-.247.996-.28 1.136-.041.181-.148.222-.338.132-1.25-.585-2.033-2.404-2.033-3.877 0-3.152 2.289-6.05 6.61-6.05 3.465 0 6.164 2.47 6.164 5.779 0 3.448-2.173 6.222-5.185 6.222-1.012 0-1.967-.527-2.288-1.152l-.626 2.378c-.222.873-.83 1.959-1.242 2.626.938.288 1.925.444 2.962.444 5.523 0 10-4.477 10-10A9.98 9.98 0 0 0 12 2.002"/></svg>