<svg xmlns="http://www.w3.org/2000/svg" width="24" height="24" fill="none"><path fill="#48A947" d="M2 2v20h20V2z"/><path fill="#F9FBF9" d="M6.272 15.947V19.5q-.85.039-1.7-.013c-.013-.174-.033-.32-.033-.46 0-2.5-.007-4.994 0-7.494.007-2.013 1.193-3.706 2.993-4.3 2.674-.886 5.374 1.047 5.62 3.76.187 2.04-.886 3.854-2.673 4.62-.573.247-1.173.327-1.787.327-.786.007-1.56.007-2.42.007m.007-1.794c.873 0 1.687-.013 2.5 0 1.447.027 2.48-1.053 2.66-2.333A2.686 2.686 0 0 0 9.152 8.8h-.006c-1.36-.18-2.734.873-2.847 2.28-.087 1-.02 2-.02 3.073"/><path fill="#FAFCFA" d="m17.926 11.333 3.233 4.547h-2.093l-2.4-3.287c-.874 1.087-1.6 2.214-2.427 3.287h-2.087l3.227-4.547-2.873-4.306h2.093l2.053 3.066 2.054-3.066h2.086z"/><path fill="#4AA949" d="M6.28 14.153c0-1.073-.067-2.08.013-3.066.114-1.407 1.487-2.46 2.847-2.28a2.676 2.676 0 0 1 2.293 3.013c-.173 1.28-1.213 2.36-2.66 2.333-.806-.013-1.62 0-2.493 0"/></svg>