<svg xmlns="http://www.w3.org/2000/svg" width="24" height="24" fill="none"><circle cx="12" cy="12" r="10" fill="#2A2A2A"/><path fill="#000" fill-opacity=".201" d="M11.653 14.734c2.23-.3 4.348-1.185 5.547-3.073a4.77 4.77 0 0 0 .11-5.014c-1.148-1.718-3.237-2.067-5.073-1.245-1.815.808-2.778 2.511-3.104 4.414a15 15 0 0 0-.137 2.585 3.8 3.8 0 0 1-.873-.068 12.5 12.5 0 0 1-3.089-.793v2.563c.565.185 1.148.337 1.74.455.793.15 1.6.246 2.423.273.068.56.15 1.097.218 1.6q.316 2.157.837 4.281h2.533a44 44 0 0 1-.542-2.28 39 39 0 0 1-.587-3.689zm.191-5.658c.451-.94 1.763-2.103 2.859-1.555.26.123.478.328.601.574.15.286.233.601.219.926 0 .11-.014.218-.027.314a2.54 2.54 0 0 1-.629 1.363c-.246.26-.52.491-.837.67a7.7 7.7 0 0 1-2.68.94c.013 0-.151-1.978.491-3.237z"/><path fill="url(#a)" d="M11.282 14.512c2.23-.3 4.348-1.185 5.547-3.073a4.77 4.77 0 0 0 .11-5.014c-1.148-1.719-3.236-2.067-5.073-1.245-1.815.808-2.778 2.51-3.104 4.414a15 15 0 0 0-.137 2.585 3.8 3.8 0 0 1-.873-.068 12.5 12.5 0 0 1-3.089-.793v2.563c.565.185 1.148.337 1.74.455.793.15 1.6.246 2.422.273.069.56.15 1.097.22 1.6q.316 2.157.836 4.281h2.533a44 44 0 0 1-.542-2.281 39 39 0 0 1-.587-3.688zm.191-5.658c.451-.94 1.763-2.104 2.86-1.555.26.123.478.328.6.574.15.286.233.6.22.926 0 .11-.015.218-.028.314a2.54 2.54 0 0 1-.629 1.362c-.245.26-.519.492-.837.67a7.7 7.7 0 0 1-2.68.94c.014 0-.15-1.977.491-3.236z"/><defs><radialGradient id="a" cx="0" cy="0" r="1" gradientTransform="matrix(33.4321 0 0 33.2513 2.753 2.694)" gradientUnits="userSpaceOnUse"><stop stop-color="#4BA6A8"/><stop offset=".086" stop-color="#45AFC0"/><stop offset=".176" stop-color="#41B6D1"/><stop offset=".274" stop-color="#3FBADC"/><stop offset=".391" stop-color="#3EBBDF"/><stop offset=".686" stop-color="#9C46CD"/><stop offset=".859" stop-color="#D400C3"/></radialGradient></defs></svg>