<svg xmlns="http://www.w3.org/2000/svg" width="24" height="24" fill="none"><g clip-path="url(#a)"><path fill="#0070D1" fill-rule="evenodd" d="M23.787 16.916c-.47.591-1.618 1.013-1.618 1.013L13.624 21v-2.264l6.289-2.24c.713-.256.823-.618.243-.807s-1.627-.136-2.342.12l-4.19 1.476v-2.349l.242-.082s1.21-.428 2.913-.617c1.703-.187 3.787.026 5.424.646 1.844.583 2.052 1.442 1.584 2.034m-9.35-3.854V7.273c0-.68-.125-1.306-.763-1.483-.488-.156-.791.297-.791.977v14.495l-3.91-1.24V2.738c1.663.308 4.084 1.038 5.386 1.477 3.31 1.136 4.433 2.551 4.433 5.739 0 3.106-1.918 4.284-4.354 3.108M1.8 18.498c-1.893-.533-2.208-1.644-1.345-2.284.797-.59 2.154-1.036 2.154-1.036l5.605-1.993v2.272L4.18 16.902c-.712.256-.822.618-.243.808.58.19 1.629.135 2.342-.121l1.935-.702v2.033l-.386.065a12.7 12.7 0 0 1-6.028-.486m20.741.9c.245 0 .475.095.648.27a.9.9 0 0 1 .268.647.9.9 0 0 1-.268.646.9.9 0 0 1-.648.27.9.9 0 0 1-.647-.27.917.917 0 0 1 .647-1.563m-.76.917c0 .203.078.395.222.537a.761.761 0 1 0-.223-.537m1.037-.494q.15.069.15.25a.3.3 0 0 1-.039.156.3.3 0 0 1-.077.074.2.2 0 0 1 .061.051.23.23 0 0 1 .036.135l.005.13a.3.3 0 0 0 .01.078q.008.037.028.045l.014.006v.06h-.198l-.006-.012a.2.2 0 0 1-.013-.04 1 1 0 0 1-.007-.08l-.008-.161q-.004-.083-.058-.11a.3.3 0 0 0-.11-.015h-.277v.418h-.177v-1.02h.473q.117 0 .193.035m-.489.411h.283q.085 0 .134-.032.044-.031.044-.116 0-.09-.063-.122a.2.2 0 0 0-.098-.018h-.3z" clip-rule="evenodd"/></g><defs><clipPath id="a"><path fill="#fff" d="M0 0h24v24H0z"/></clipPath></defs></svg>