<svg xmlns="http://www.w3.org/2000/svg" width="24" height="24" fill="none"><path fill="#B92B27" d="M22 1.973H1.973V22H22z"/><path fill="#fff" d="M18.879 16.145h-.93c-.048.433-.336.985-1.05.985-.655 0-1.125-.455-1.58-1.138 1.412-1.094 2.384-2.787 2.384-4.87 0-3.745-3.085-6.265-6.32-6.265-3.18 0-6.295 2.539-6.295 6.265 0 3.691 3.115 6.23 6.296 6.23.552 0 1.108-.078 1.632-.218.624 1.07 1.456 1.982 3.03 1.982 2.6 0 2.887-2.395 2.833-2.971m-4.573-1.828c-.616-.93-1.392-1.658-2.904-1.658-.972 0-1.729.318-2.197.72l.384.768c.198-.09.414-.126.63-.126 1.13 0 1.71.982 2.205 1.955-.316.092-.66.134-1.04.134-2.389 0-3.421-1.687-3.421-4.988 0-3.318 1.032-5.022 3.421-5.022 2.424 0 3.462 1.704 3.462 5.022 0 1.329-.174 2.401-.54 3.195"/></svg>