<svg xmlns="http://www.w3.org/2000/svg" width="24" height="24" fill="none"><path fill="#FFCE00" d="M11.844 1.52c-.112.046-.427.38-.427.457 0 .025-.493 1.072-1.097 2.322S9.197 6.64 9.167 6.727a1 1 0 0 1-.091.209c-.026.03-.168.304-.32.61-.162.335-.336.614-.432.69-.234.198-.076.178-4.755.702-2.114.238-2.347.274-2.474.39-.091.082-.127.377-.061.55.02.045.93.91 2.022 1.92 3.454 3.19 3.23 2.967 3.23 3.205 0 .117-.07.539-.152.945-.086.406-.279 1.422-.436 2.26-.158.839-.34 1.8-.407 2.134-.35 1.789-.355 1.84-.172 2.033.172.183.37.162.893-.102.488-.25.534-.274 1.494-.838.35-.204.808-.468 1.016-.585s.594-.345.853-.502c.26-.158.483-.285.498-.285.01 0 .168-.091.345-.203.178-.113.34-.203.361-.203s.204-.102.407-.229c.482-.3.899-.452 1.137-.406.102.02.346.117.539.224.508.269 3.708 2.113 4.704 2.707.849.508 1.097.605 1.387.528.193-.046.249-.325.183-.879a7 7 0 0 0-.102-.625c-.04-.162-.208-1.061-.615-3.317-.187-1.072-.187-1.093.234-1.25.585-.219.859-.411.752-.518-.035-.036-.36.005-1.036.127-1.255.228-1.514.264-2.84.386-1.508.142-2.9.173-4.76.107-1.453-.051-3.18-.178-3.277-.239-.076-.05-.04-.208.076-.31.062-.056.834-.61 1.712-1.234 2.754-1.95 4.542-3.241 4.69-3.379.253-.238.233-.249-.823-.386-1.672-.213-2.109-.249-4.832-.376-.91-.04-1.733-.092-1.829-.107-.995-.168 4.08-.625 6.223-.559 1.408.04 3.064.158 4.039.285.91.122.965.132.965.234 0 .08-.096.152-2.235 1.625-.879.61-1.814 1.255-2.078 1.438-.259.183-.528.37-.59.41-.284.194-1.239.86-1.503 1.052-.167.122-.3.254-.3.295 0 .096.25.158 1.017.249 2.037.239 5.827.37 5.995.204.035-.036.03-.148-.026-.381a5 5 0 0 1-.076-.371c0-.072.863-.935 2.057-2.052C22.928 9.953 23 9.882 23 9.648c0-.204-.168-.386-.417-.447-.121-.03-.848-.112-1.615-.188-.768-.071-1.616-.152-1.88-.178-.264-.03-.823-.086-1.245-.132-1.61-.162-2.103-.223-2.22-.279-.223-.102-.432-.518-1.971-3.983-1.097-2.48-1.194-2.677-1.346-2.814-.127-.117-.325-.162-.462-.107"/></svg>