<svg xmlns="http://www.w3.org/2000/svg" width="24" height="24" fill="none"><path fill="#000" d="M12 22c5.523 0 10-4.477 10-10S17.523 2 12 2 2 6.477 2 12s4.477 10 10 10"/><path fill="#fff" fill-rule="evenodd" d="M16.512 16.736V15.18c0-.31-.17-.467-.452-.467-.334 0-.609.248-.62.549v1.472h-.565v-1.556c0-.31-.17-.467-.451-.467-.334 0-.61.248-.621.549v1.472h-.565V14.3h.508l.057.207.027.025.027-.025c.114-.156.395-.26.621-.26.407 0 .7.16.848.414l.14-.156c.141-.156.425-.26.65-.26.62 0 .96.363.96.881v1.607h-.564zm-9.319-.127 9.469-9.468.197.197-9.469 9.469zm.727-7.453h-.104v1.68h-.554V6.924h1.347c.606 0 1.137.402 1.137 1.097 0 .67-.566 1.098-1.172 1.098l1.246 1.608v.107h-.633zm.72-.554c.305 0 .584-.213.584-.559s-.279-.559-.584-.559h-.812v1.118z" clip-rule="evenodd"/></svg>