<svg xmlns="http://www.w3.org/2000/svg" width="24" height="24" fill="none"><path fill="#FF4500" d="M12 22c5.523 0 10-4.477 10-10S17.523 2 12 2 2 6.477 2 12s4.477 10 10 10"/><path fill="#fff" d="M18.667 12c0-.807-.655-1.462-1.462-1.462-.398 0-.749.152-1.006.41-.994-.714-2.374-1.182-3.895-1.24l.667-3.123 2.163.456a1.042 1.042 0 0 0 2.082-.047c0-.573-.468-1.04-1.04-1.04-.41 0-.76.233-.924.584l-2.422-.515a.3.3 0 0 0-.198.035.3.3 0 0 0-.117.164l-.737 3.486c-1.556.046-2.948.502-3.953 1.24a1.48 1.48 0 0 0-1.006-.41 1.463 1.463 0 0 0-.597 2.795c-.023.14-.035.293-.035.445 0 2.245 2.608 4.058 5.836 4.058s5.837-1.813 5.837-4.058c0-.152-.012-.293-.035-.433.48-.234.842-.748.842-1.345m-10 1.04c0-.572.467-1.04 1.04-1.04.574 0 1.041.468 1.041 1.04 0 .574-.467 1.042-1.04 1.042-.574 0-1.041-.468-1.041-1.041m5.813 2.75c-.714.713-2.07.76-2.468.76s-1.766-.059-2.468-.76a.275.275 0 0 1 0-.386.275.275 0 0 1 .386 0c.444.444 1.403.608 2.093.608s1.638-.164 2.094-.609a.275.275 0 0 1 .386 0 .3.3 0 0 1-.024.386m-.188-1.708c-.573 0-1.04-.468-1.04-1.041S13.719 12 14.292 12c.574 0 1.041.468 1.041 1.04 0 .574-.467 1.042-1.04 1.042"/></svg>