<svg xmlns="http://www.w3.org/2000/svg" width="24" height="24" fill="none"><path fill="#017DFB" d="M11.347 19.735C7.407 19.4 4.312 16.066 4.312 12s3.095-7.399 7.035-7.735V2c-5.175.341-9.27 4.686-9.27 10s4.092 9.659 9.267 10v-2.265z"/><path fill="#017DFB" d="M11.346 15.903A3.95 3.95 0 0 1 8.078 12a3.95 3.95 0 0 1 3.268-3.903V5.62C8.147 5.952 5.651 8.68 5.651 12s2.496 6.046 5.695 6.38z"/><path fill="#CCC" d="M12.656 2v2.265c3.94.336 7.035 3.669 7.035 7.735s-3.095 7.399-7.035 7.735V22c5.175-.341 9.267-4.686 9.267-10s-4.095-9.659-9.267-10"/><path fill="#CCC" d="M12.656 5.62v2.475a3.95 3.95 0 0 1 3.273 3.903 3.95 3.95 0 0 1-3.273 3.902v2.475c3.202-.33 5.7-3.059 5.7-6.38s-2.5-6.045-5.7-6.375"/></svg>