<svg xmlns="http://www.w3.org/2000/svg" width="24" height="24" fill="none"><path fill="#8DB849" d="M11.263 1.847c.155 0 .233.078.388.156-.93.39-1.861 1.406-2.327 3.593l-1.706.469c.543-1.562 1.629-4.218 3.645-4.218m.853.781c.155.469.31 1.015.31 1.875v.156l-2.248.625c.465-1.64 1.24-2.343 1.938-2.656m2.017 1.406-1.008.312v-.234c0-.703-.078-1.25-.233-1.718.543.156 1.008.859 1.24 1.64m5.04 1.25c0-.078-.077-.157-.155-.157-.155 0-1.783-.156-1.783-.156S16.07 3.8 15.916 3.721c-.155-.156-.387-.078-.465-.078 0 0-.233.079-.62.235-.388-1.094-1.086-2.11-2.25-2.11h-.077a1.37 1.37 0 0 0-1.163-.624c-2.792-.078-4.11 3.437-4.576 5.233-.62.156-1.24.39-1.938.625-.62.156-.62.234-.698.781C4.05 8.173 2.5 20.514 2.5 20.514l12.33 2.343 6.67-1.484S19.174 5.44 19.174 5.283"/><path fill="#5A863E" d="M18.94 5.127c-.077 0-1.705-.156-1.705-.156S16.07 3.8 15.916 3.721c-.077-.078-.077-.078-.155-.078l-.93 19.214 6.669-1.484S19.173 5.44 19.173 5.283c0-.077-.155-.156-.232-.156"/><path fill="#FFFFFE" d="m12.581 8.876-.853 2.5s-.698-.39-1.628-.39c-1.319 0-1.396.78-1.396 1.015 0 1.093 2.947 1.562 2.947 4.217 0 2.11-1.319 3.437-3.102 3.437-2.094 0-3.18-1.328-3.18-1.328l.543-1.874s1.086.937 2.016.937c.62 0 .853-.469.853-.86 0-1.483-2.404-1.561-2.404-3.983 0-2.03 1.474-3.983 4.343-3.983 1.319-.078 1.861.312 1.861.312"/></svg>