<svg xmlns="http://www.w3.org/2000/svg" width="24" height="24" fill="none"><path fill="#3A76F0" d="m9.6 2.292.224.91A9 9 0 0 0 7.312 4.24l-.48-.804a9.9 9.9 0 0 1 2.767-1.145m4.8 0-.224.91a9 9 0 0 1 2.512 1.039l.486-.804A10 10 0 0 0 14.4 2.292M3.438 6.829A10 10 0 0 0 2.292 9.6l.91.225A9 9 0 0 1 4.24 7.312zM2.937 12q0-.684.102-1.358l-.926-.142c-.15.993-.15 2.004 0 2.997l.926-.139A9 9 0 0 1 2.937 12m14.231 8.56-.48-.8a9 9 0 0 1-2.509 1.039l.225.91a10 10 0 0 0 2.764-1.149M21.063 12q0 .684-.102 1.358l.926.14c.15-.994.15-2.005 0-2.998l-.926.142q.102.675.102 1.358m.645 2.398-.91-.224a9 9 0 0 1-1.039 2.514l.804.483c.52-.861.906-1.796 1.145-2.773m-8.35 6.563c-.9.136-1.816.136-2.716 0l-.14.926a10 10 0 0 0 2.995 0zm5.938-3.586a9 9 0 0 1-1.92 1.918l.556.756a10 10 0 0 0 2.12-2.111zm-1.92-12.671a9 9 0 0 1 1.92 1.92l.756-.562a10 10 0 0 0-2.114-2.114zM4.703 6.624a9 9 0 0 1 1.92-1.92l-.562-.756a10 10 0 0 0-2.114 2.114zm15.86.205-.805.483a9 9 0 0 1 1.04 2.509l.91-.225a9.9 9.9 0 0 0-1.146-2.767m-9.922-3.79a9 9 0 0 1 2.716 0l.14-.926a10 10 0 0 0-2.995 0zM5.184 20.3l-1.935.449.452-1.935-.912-.213-.452 1.935a.938.938 0 0 0 1.125 1.128l1.935-.446zm-2.202-2.534.915.21.313-1.341a9 9 0 0 1-1.009-2.46l-.91.224c.205.829.515 1.628.921 2.378zm4.376 2.028-1.341.313.213.914.986-.23c.75.408 1.549.718 2.378.92l.224-.908a9 9 0 0 1-2.452-1.014zM12 3.874a8.13 8.13 0 0 0-8.123 8.129 8.15 8.15 0 0 0 1.248 4.318l-.782 3.336 3.333-.782c3.798 2.39 8.816 1.25 11.205-2.545a8.13 8.13 0 0 0-2.543-11.205A8.15 8.15 0 0 0 12 3.875"/></svg>