<svg xmlns="http://www.w3.org/2000/svg" width="24" height="24" fill="none"><path fill="#fff" d="M2.536 15.355c0 2.572 3.349 4.658 7.48 4.658s7.481-2.086 7.481-4.658-3.349-4.658-7.48-4.658-7.48 2.086-7.48 4.658"/><path fill="#E6162D" d="M10.19 19.633c-3.656.361-6.812-1.291-7.05-3.692-.237-2.4 2.536-4.64 6.191-5 3.657-.363 6.814 1.29 7.051 3.69s-2.534 4.64-6.191 5.002m7.315-7.969c-.311-.093-.524-.156-.362-.565.353-.888.39-1.653.007-2.2-.717-1.023-2.679-.968-4.928-.027 0-.001-.706.31-.525-.25.346-1.113.293-2.044-.245-2.582-1.22-1.22-4.464.046-7.247 2.827C2.122 10.951.912 13.16.912 15.07c0 3.653 4.684 5.873 9.267 5.873 6.007 0 10.003-3.49 10.003-6.26 0-1.675-1.41-2.625-2.677-3.018"/><path fill="#F93" d="M21.494 4.98a5.85 5.85 0 0 0-5.566-1.802.845.845 0 1 0 .353 1.654 4.16 4.16 0 0 1 4.937 3.198 4.16 4.16 0 0 1-.11 2.15.843.843 0 0 0 .544 1.065.846.846 0 0 0 1.065-.543v-.004a5.84 5.84 0 0 0-1.223-5.718"/><path fill="#F93" d="M19.266 6.99a2.85 2.85 0 0 0-2.711-.876.727.727 0 1 0 .303 1.423 1.396 1.396 0 0 1 1.654 1.07c.051.24.038.489-.038.721a.728.728 0 1 0 1.386.448 2.84 2.84 0 0 0-.594-2.786"/><path fill="#000" d="M10.392 15.285c-.128.22-.41.325-.632.233-.218-.09-.286-.334-.162-.549.127-.214.4-.318.616-.232.221.08.3.328.178.548m-1.165 1.496c-.354.564-1.111.812-1.682.551-.562-.256-.728-.912-.374-1.462.35-.547 1.082-.792 1.648-.554.572.244.756.895.408 1.465m1.329-3.994c-1.74-.453-3.707.415-4.463 1.948-.77 1.564-.025 3.3 1.733 3.867 1.82.587 3.967-.312 4.713-2 .737-1.65-.182-3.35-1.983-3.815"/></svg>