<svg xmlns="http://www.w3.org/2000/svg" width="24" height="24" fill="none"><path fill="#FDB300" d="m5.762 2.518 6.214-.657 6.214.657L23 8.976 11.976 21.814.95 8.976z"/><path fill="#EA6C00" d="m5.417 8.976 6.559 12.838L.95 8.976z"/><path fill="#EA6C00" d="m18.535 8.976-6.56 12.838L23 8.976z"/><path fill="#FDAD00" d="M5.417 8.976h13.118l-6.56 12.838z"/><path fill="#FDD231" d="m11.976 1.86-6.214.658-.345 6.458zM11.976 1.86l6.213.658.346 6.458z"/><path fill="#FDAD00" d="m23 8.976-4.81-6.458.345 6.458zM.951 8.976l4.81-6.458-.344 6.458z"/><path fill="#FEEEB7" d="m11.976 1.86-6.56 7.116h13.119z"/></svg>