<svg xmlns="http://www.w3.org/2000/svg" width="24" height="24" fill="none"><path fill="url(#a)" d="M13.696 7.735a5.93 5.93 0 0 1-1.745 4.2 5.97 5.97 0 0 1-8.426 0 5.93 5.93 0 0 1 0-8.4 5.97 5.97 0 0 1 8.426 0 5.93 5.93 0 0 1 1.745 4.2"/><path fill="url(#b)" d="M22 16.263a5.92 5.92 0 0 1-1.746 4.2 5.96 5.96 0 0 1-4.214 1.74 5.97 5.97 0 0 1-4.215-1.74 5.93 5.93 0 0 1 0-8.4 5.97 5.97 0 0 1 9.721 1.927c.3.72.454 1.493.454 2.273"/><path fill="#000" fill-rule="evenodd" d="M1.802 8.243a5.957 5.957 0 1 0 6.678-6.4 10.83 10.83 0 0 0-6.678 6.4" clip-rule="evenodd" opacity=".05"/><path fill="#000" fill-rule="evenodd" d="M21.984 15.837a5.96 5.96 0 1 0-6.484 6.342 10.83 10.83 0 0 0 6.484-6.342" clip-rule="evenodd" opacity=".05"/><path fill="#000" fill-rule="evenodd" d="M2.08 9.6a5.956 5.956 0 1 0 7.754-7.425A10.13 10.13 0 0 0 2.08 9.6" clip-rule="evenodd" opacity=".1"/><path fill="#000" fill-rule="evenodd" d="M21.714 14.44a5.957 5.957 0 1 0-7.614 7.442 10.13 10.13 0 0 0 7.614-7.441" clip-rule="evenodd" opacity=".1"/><path fill="#000" fill-rule="evenodd" d="M2.3 10.164a5.954 5.954 0 1 0 8.09-7.748 9.79 9.79 0 0 0-8.09 7.748" clip-rule="evenodd" opacity=".1"/><path fill="#000" fill-rule="evenodd" d="M21.494 13.866a5.956 5.956 0 1 0-7.968 7.785 9.79 9.79 0 0 0 7.968-7.785" clip-rule="evenodd" opacity=".1"/><path fill="url(#c)" d="M21.328 12.044a9.38 9.38 0 0 1-2.764 6.651 9.44 9.44 0 0 1-6.673 2.755 9.46 9.46 0 0 1-6.673-2.755 9.4 9.4 0 0 1-2.764-6.65 9.38 9.38 0 0 1 2.764-6.652 9.44 9.44 0 0 1 6.673-2.754 9.46 9.46 0 0 1 6.673 2.754 9.4 9.4 0 0 1 2.764 6.651"/><path fill="#fff" fill-rule="evenodd" d="M9.237 11.718a3 3 0 0 1-.93-.981A2.7 2.7 0 0 1 7.99 9.38a2.44 2.44 0 0 1 .574-1.64c.402-.46.918-.805 1.497-1a5.8 5.8 0 0 1 1.959-.33q.655-.007 1.303.1.464.07.904.233c.27.09.512.246.708.451.144.17.222.386.218.608a.88.88 0 0 1-.23.633.76.76 0 0 1-.577.241 1 1 0 0 1-.43-.097 8 8 0 0 0-1.022-.374 3.7 3.7 0 0 0-.985-.122 2.25 2.25 0 0 0-1.234.316 1.03 1.03 0 0 0-.492.921.93.93 0 0 0 .255.648c.198.206.431.373.69.494q.433.214 1.292.57.095.03.185.074a9 9 0 0 1 1.6.822c.399.26.735.605.985 1.011.246.426.369.912.355 1.404a2.82 2.82 0 0 1-.492 1.693c-.347.47-.826.826-1.377 1.022a5.8 5.8 0 0 1-2.071.337 6.5 6.5 0 0 1-2.822-.534 1.54 1.54 0 0 1-.581-.451 1 1 0 0 1-.19-.615.8.8 0 0 1 .249-.626.92.92 0 0 1 .64-.226c.261.004.518.07.748.192q.43.215.678.323a3.4 3.4 0 0 0 1.337.263c.447.031.892-.087 1.263-.337a1.11 1.11 0 0 0 .426-.923.98.98 0 0 0-.267-.673 2.8 2.8 0 0 0-.785-.571 19 19 0 0 0-1.46-.667 9 9 0 0 1-1.603-.833" clip-rule="evenodd"/><defs><linearGradient id="a" x1="6.809" x2="8.667" y1="1.869" y2="13.601" gradientUnits="userSpaceOnUse"><stop offset=".012" stop-color="#00B7F0"/><stop offset=".339" stop-color="#009DE5"/><stop offset=".755" stop-color="#0082D9"/><stop offset="1" stop-color="#0078D4"/></linearGradient><linearGradient id="b" x1="10.881" x2="21.198" y1="19.241" y2="13.285" gradientUnits="userSpaceOnUse"><stop stop-color="#0078D4"/><stop offset=".37" stop-color="#007AD5"/><stop offset=".573" stop-color="#0082D9"/><stop offset=".735" stop-color="#0090DF"/><stop offset=".875" stop-color="#00A3E7"/><stop offset="1" stop-color="#00BCF2"/></linearGradient><linearGradient id="c" x1="8.208" x2="17.623" y1="5.666" y2="21.974" gradientUnits="userSpaceOnUse"><stop stop-color="#00B7F0"/><stop offset="1" stop-color="#007CC1"/></linearGradient></defs></svg>