<svg xmlns="http://www.w3.org/2000/svg" width="24" height="24" fill="none"><path fill="#E01E5A" d="M6.216 14.643a2.1 2.1 0 1 1-4.2 0 2.1 2.1 0 0 1 2.1-2.102h2.1zm1.05 0a2.1 2.1 0 1 1 4.2 0v5.255a2.099 2.099 0 1 1-4.2 0z"/><path fill="#36C5F0" d="M9.367 6.204a2.1 2.1 0 0 1-2.1-2.102 2.1 2.1 0 1 1 4.2 0v2.102zm0 1.067a2.1 2.1 0 0 1 2.1 2.102 2.1 2.1 0 0 1-2.1 2.102H4.1A2.1 2.1 0 0 1 2 9.373 2.1 2.1 0 0 1 4.1 7.27z"/><path fill="#2EB67D" d="M17.783 9.373a2.099 2.099 0 1 1 4.2 0 2.1 2.1 0 0 1-2.1 2.102h-2.1zm-1.05 0a2.1 2.1 0 1 1-4.2 0V4.102a2.1 2.1 0 1 1 4.2 0z"/><path fill="#ECB22E" d="M14.633 17.796a2.1 2.1 0 0 1 2.1 2.102 2.1 2.1 0 1 1-4.2 0v-2.102zm0-1.05a2.1 2.1 0 0 1-2.1-2.103 2.1 2.1 0 0 1 2.1-2.102h5.266a2.1 2.1 0 0 1 2.1 2.102 2.1 2.1 0 0 1-2.1 2.102z"/></svg>