<svg xmlns="http://www.w3.org/2000/svg" width="24" height="24" fill="none"><path fill="#fff" d="M21.44 17.206c-3.408-1.65-3.95-4.196-3.975-4.385-.03-.23-.062-.41.19-.642.243-.225 1.323-.893 1.623-1.103.495-.346.713-.692.552-1.117-.112-.294-.386-.405-.674-.405q-.137 0-.27.03c-.545.119-1.073.392-1.379.465a.5.5 0 0 1-.112.015c-.163 0-.225-.072-.21-.268.039-.595.12-1.756.026-2.84-.129-1.493-.61-2.233-1.18-2.886-.276-.318-1.558-1.68-4.031-1.68S8.247 3.752 7.972 4.066C7.4 4.72 6.92 5.459 6.792 6.95c-.094 1.085-.01 2.245.025 2.84.012.187-.046.27-.209.27a.5.5 0 0 1-.112-.016c-.305-.073-.834-.346-1.378-.464q-.134-.03-.27-.03c-.29 0-.562.112-.675.404-.16.425.057.771.553 1.117.3.21 1.38.878 1.623 1.103.252.233.22.413.19.642-.024.191-.568 2.738-3.974 4.385-.2.097-.539.302.06.632.94.52 1.565.464 2.051.777.413.266.169.84.47 1.047.368.254 1.458-.018 2.866.447 1.18.389 1.897 1.488 3.99 1.488s2.832-1.104 3.991-1.488c1.406-.465 2.498-.193 2.867-.447.3-.207.056-.78.469-1.047.486-.313 1.111-.257 2.052-.777.597-.326.258-.531.058-.628"/><path fill="#000" d="M22.921 17.013c-.152-.417-.444-.64-.775-.824a2 2 0 0 0-.169-.088q-.15-.075-.3-.153c-1.034-.548-1.841-1.24-2.401-2.06a4.7 4.7 0 0 1-.412-.73c-.048-.137-.046-.214-.012-.285a.5.5 0 0 1 .133-.138c.177-.118.36-.237.485-.317.221-.144.396-.257.51-.338.424-.296.72-.612.906-.964a1.92 1.92 0 0 0 .095-1.596c-.281-.74-.98-1.2-1.826-1.2a2.5 2.5 0 0 0-.67.09c.008-.507-.004-1.04-.049-1.566-.16-1.849-.806-2.817-1.48-3.59a5.9 5.9 0 0 0-1.506-1.212c-1.024-.585-2.185-.882-3.45-.882s-2.42.297-3.445.882a5.9 5.9 0 0 0-1.509 1.214C6.372 4.03 5.725 5 5.565 6.846a16 16 0 0 0-.049 1.566l-.138-.033a2.5 2.5 0 0 0-.531-.056c-.847 0-1.547.46-1.827 1.2a1.92 1.92 0 0 0 .093 1.597c.186.352.482.668.907.964.112.08.288.193.51.338.12.077.294.19.466.304a.5.5 0 0 1 .15.15c.035.074.036.154-.017.3q-.172.376-.405.716c-.548.8-1.331 1.48-2.332 2.024-.53.28-1.08.468-1.314 1.101-.175.477-.06 1.02.385 1.478q.248.258.563.426c.434.239.896.424 1.375.55a.9.9 0 0 1 .278.125c.162.142.14.356.355.67q.166.244.407.414c.455.313.965.333 1.506.354.488.018 1.042.04 1.674.248.262.087.534.255.85.45.757.466 1.793 1.103 3.528 1.103 1.734 0 2.778-.64 3.54-1.108.314-.192.584-.358.839-.442.632-.21 1.186-.23 1.674-.249.541-.02 1.052-.04 1.506-.354.19-.133.348-.305.463-.506.156-.265.152-.45.298-.58a.9.9 0 0 1 .26-.119 6 6 0 0 0 1.395-.555c.221-.119.421-.275.59-.462l.006-.007c.418-.447.523-.975.351-1.44m-1.541.828c-.94.52-1.566.464-2.052.777-.413.266-.169.84-.469 1.047-.369.255-1.459-.018-2.867.447-1.16.384-1.902 1.488-3.99 1.488-2.09 0-2.813-1.102-3.993-1.491-1.405-.465-2.497-.192-2.867-.447-.3-.207-.056-.78-.468-1.046-.487-.314-1.112-.258-2.052-.775-.599-.33-.26-.535-.06-.632 3.407-1.65 3.95-4.196 3.974-4.385.03-.23.062-.409-.19-.642-.243-.225-1.323-.893-1.622-1.102-.496-.347-.714-.693-.554-1.118.113-.294.387-.404.675-.404q.137 0 .27.03c.544.118 1.073.39 1.378.464q.056.015.112.016c.163 0 .22-.083.21-.27-.035-.595-.12-1.755-.026-2.84.129-1.492.61-2.231 1.18-2.885.275-.315 1.564-1.677 4.029-1.677s3.757 1.357 4.031 1.67c.572.654 1.053 1.393 1.18 2.885.094 1.085.013 2.246-.025 2.841-.013.196.046.269.21.269a.5.5 0 0 0 .112-.015c.305-.074.834-.347 1.378-.465q.134-.03.27-.03c.29 0 .562.112.675.405.16.425-.056.77-.553 1.117-.3.209-1.38.877-1.623 1.102-.252.233-.219.413-.19.642.025.192.568 2.739 3.974 4.386.202.1.541.305-.058.638"/></svg>