<svg xmlns="http://www.w3.org/2000/svg" width="24" height="24" fill="none"><path fill="#F50" d="M19 2H5a3 3 0 0 0-3 3v14a3 3 0 0 0 3 3h14a3 3 0 0 0 3-3V5a3 3 0 0 0-3-3"/><path fill="#fff" d="m4.305 12.547-.117.86.117.859c0 .078.117.078.117 0l.117-.86-.117-.86c0-.116-.117-.116-.117 0M5.008 12c0-.117-.117-.117-.117 0l-.196 1.406.157 1.367c0 .118.156.118.156 0l.156-1.367zm2.305-1.172-.118 2.578.078 1.563c0 .312.274.312.274 0l.156-1.563-.156-2.578c0-.195-.234-.195-.234 0m-1.211.86-.157 1.718.117 1.563c0 .234.196.234.196 0l.156-1.563-.156-1.719c0-.117-.156-.117-.156 0m2.734 3.28.117-1.562-.117-3.437c0-.235-.274-.235-.274 0l-.117 3.437.078 1.563c0 .312.313.312.313 0m2.656 0 .078-1.562-.078-3.984c0-.274-.39-.274-.39 0l-.079 3.984.079 1.563c0 .312.39.312.39 0m-1.328 0 .117-1.562-.117-3.476c0-.235-.351-.235-.351 0l-.079 3.476.079 1.563c0 .312.351.312.351 0m-3.242 0 .117-1.562-.117-1.601c0-.117-.234-.117-.234 0l-.118 1.601.117 1.563c0 .273.235.273.235 0m-1.29 0 .157-1.562-.156-1.68c0-.117-.156-.117-.156 0l-.157 1.68.157 1.563c0 .156.156.156.156 0m4.845-4.882-.079 3.32.04 1.563c0 .312.39.312.39 0l.078-1.563-.078-3.32c0-.273-.351-.273-.351 0M8.21 14.969l.117-1.563-.117-3.164c0-.234-.274-.234-.274 0l-.117 3.164.078 1.563c0 .312.313.312.313 0m1.289 0 .117-1.563L9.5 9.852c0-.235-.312-.235-.312 0l-.118 3.554.117 1.563c0 .312.313.312.313 0m7.656-3.477c-.195-2.226-2.5-3.672-4.61-2.851-.155.078-.194.117-.194.234v6.094c0 .117.078.234.195.234h5.351c1.055 0 1.915-.86 1.915-1.914 0-1.445-1.368-2.226-2.657-1.797m-5.39-2.422-.118 4.336.118 1.563c0 .312.39.312.39 0l.117-1.563-.117-4.336c0-.273-.39-.273-.39 0"/></svg>