<svg xmlns="http://www.w3.org/2000/svg" width="24" height="24" fill="none"><path fill="#1ED760" d="M12 2C6.477 2 2 6.477 2 12s4.477 10 10 10 10-4.477 10-10S17.523 2 12 2m4.879 14.416a.87.87 0 0 1-1.185.333 10.4 10.4 0 0 0-4.047-1.274 10.4 10.4 0 0 0-4.23.438.87.87 0 0 1-.53-1.656 12.1 12.1 0 0 1 4.936-.512c1.675.17 3.263.67 4.72 1.488.42.233.57.763.336 1.183m1.197-3.038a.87.87 0 0 1-1.173.37 13.6 13.6 0 0 0-4.93-1.471 13.6 13.6 0 0 0-5.16.46.87.87 0 0 1-.481-1.672 15.3 15.3 0 0 1 5.817-.519c1.957.2 3.827.757 5.559 1.66a.87.87 0 0 1 .368 1.172m.433-2.527a.9.9 0 0 1-.388-.091 16.8 16.8 0 0 0-5.824-1.681 16.8 16.8 0 0 0-6.055.479.87.87 0 0 1-.447-1.681 18.5 18.5 0 0 1 6.68-.528c2.252.228 4.413.852 6.422 1.854a.87.87 0 0 1-.388 1.648"/></svg>