<svg xmlns="http://www.w3.org/2000/svg" width="24" height="24" fill="none"><path fill="#1A1918" d="M15.002 6.745a1.06 1.06 0 0 0-1.5 0L6.746 13.5a2.123 2.123 0 0 1-3.002-3.003l6.624-6.624a2.12 2.12 0 0 0-3.002 0L2.243 8.996a4.246 4.246 0 0 0 6.004 6.005l6.755-6.755a1.06 1.06 0 0 0 0-1.501m2.251-2.251a4.245 4.245 0 0 0-6.004 0l-6.754 6.754a1.062 1.062 0 0 0 1.5 1.501l6.756-6.754a2.12 2.12 0 0 1 3.001 0 1.062 1.062 0 0 0 1.501-1.501m2.252 6.754a1.06 1.06 0 0 0-1.501 0l-6.755 6.754a2.123 2.123 0 0 1-3.002 0 1.061 1.061 0 0 0-1.5 1.501 4.245 4.245 0 0 0 6.004 0l6.754-6.754a1.06 1.06 0 0 0 0-1.501m2.252-2.251a4.246 4.246 0 0 0-6.004 0L8.998 15.75a1.061 1.061 0 1 0 1.5 1.501l6.755-6.754a2.122 2.122 0 1 1 3.002 3.002l-6.624 6.624a2.123 2.123 0 0 0 3.002 0l5.124-5.123a4.246 4.246 0 0 0 0-6.004"/></svg>