<svg xmlns="http://www.w3.org/2000/svg" width="24" height="24" fill="none"><path fill="url(#a)" d="M2.407 14.878c1.236 4.122 5.06 7.129 9.586 7.129C17.52 22.007 22 17.527 22 12S17.52 1.994 11.994 1.994c-5.303 0-9.643 4.125-9.986 9.341.649 1.088.9 1.76.4 3.543z"/><path fill="#fff" d="M11.478 9.494v.05L9.03 13.1a2.74 2.74 0 0 0-1.64.454l-5.377-2.213s-.125 2.047.394 3.573l3.8 1.568a2.76 2.76 0 0 0 1.64 1.96 2.777 2.777 0 0 0 3.842-2.638l3.504-2.503.085.002a3.809 3.809 0 0 0 0-7.616 3.81 3.81 0 0 0-3.8 3.807m-.588 7.208a2.143 2.143 0 0 1-2.8 1.155 2.13 2.13 0 0 1-1.102-1.052l1.237.513a1.577 1.577 0 0 0 2.064-2.058 1.58 1.58 0 0 0-.852-.856l-1.282-.53a2.13 2.13 0 0 1 1.58.024c.531.22.938.634 1.155 1.163.218.53.217 1.113-.003 1.64m4.392-4.67a2.538 2.538 0 0 1-1.79-4.328 2.54 2.54 0 0 1 1.79-.745 2.54 2.54 0 0 1 2.533 2.537 2.54 2.54 0 0 1-2.533 2.537m-1.898-2.54c0-1.053.852-1.906 1.902-1.906a1.905 1.905 0 0 1 0 3.81A1.905 1.905 0 0 1 13.38 9.49"/><defs><linearGradient id="a" x1="12.004" x2="12.004" y1="1.994" y2="22.007" gradientUnits="userSpaceOnUse"><stop stop-color="#111D2E"/><stop offset=".212" stop-color="#051839"/><stop offset=".407" stop-color="#0A1B48"/><stop offset=".581" stop-color="#132E62"/><stop offset=".738" stop-color="#144B7E"/><stop offset=".873" stop-color="#136497"/><stop offset="1" stop-color="#1387B8"/></linearGradient></defs></svg>