<svg xmlns="http://www.w3.org/2000/svg" width="24" height="24" fill="none"><path fill="#6772E5" d="M17.51 2H6.49A4.49 4.49 0 0 0 2 6.49v11.02A4.49 4.49 0 0 0 6.49 22h11.02A4.49 4.49 0 0 0 22 17.51V6.49A4.49 4.49 0 0 0 17.51 2"/><path fill="#fff" fill-rule="evenodd" d="M11.214 9.759c0-.478.394-.693 1.032-.693a6.8 6.8 0 0 1 3.027.783V7.016a8 8 0 0 0-3.02-.555c-2.467 0-4.115 1.289-4.115 3.464 0 3.367 4.627 2.82 4.627 4.275 0 .56-.492.74-1.164.74a7.66 7.66 0 0 1-3.366-.99v2.903c1.05.454 2.181.69 3.325.693 2.528 0 4.274-1.247 4.274-3.464.021-3.61-4.62-2.958-4.62-4.323" clip-rule="evenodd"/></svg>