<svg xmlns="http://www.w3.org/2000/svg" width="24" height="24" fill="none"><path fill="#000" d="M16.428 11.317a7 7 0 0 0-.246-.112c-.144-2.662-1.599-4.186-4.041-4.201h-.033c-1.46 0-2.676.623-3.424 1.758l1.344.921c.558-.847 1.435-1.028 2.08-1.028h.023c.804.005 1.41.239 1.803.695q.43.499.572 1.37a10.3 10.3 0 0 0-2.308-.112c-2.322.134-3.815 1.488-3.715 3.37.051.955.527 1.776 1.34 2.312.686.454 1.571.675 2.49.625 1.215-.066 2.168-.53 2.832-1.377.505-.643.824-1.477.965-2.527.579.349 1.008.808 1.245 1.36.402.94.426 2.484-.833 3.742-1.104 1.102-2.43 1.579-4.434 1.594-2.224-.017-3.905-.73-4.999-2.12C6.065 16.286 5.536 14.406 5.517 12c.02-2.406.548-4.286 1.572-5.587 1.094-1.39 2.775-2.103 4.999-2.12 2.24.017 3.95.733 5.085 2.13.557.685.976 1.546 1.253 2.55L20 8.553c-.335-1.236-.863-2.3-1.581-3.184-1.455-1.79-3.584-2.708-6.326-2.727h-.011c-2.737.019-4.841.94-6.255 2.737-1.258 1.6-1.907 3.825-1.929 6.614v.014c.022 2.79.67 5.015 1.929 6.614 1.414 1.797 3.518 2.718 6.255 2.737h.011c2.433-.017 4.148-.654 5.561-2.065 1.849-1.847 1.793-4.162 1.184-5.583-.437-1.02-1.27-1.847-2.41-2.394m-4.201 3.95c-1.018.057-2.075-.4-2.127-1.379-.04-.725.516-1.534 2.19-1.631q.286-.016.564-.016c.607 0 1.176.059 1.693.172-.193 2.408-1.324 2.798-2.32 2.853"/></svg>