<svg xmlns="http://www.w3.org/2000/svg" width="24" height="24" fill="none"><path fill="#FF004F" d="M16.38 9.185A7.9 7.9 0 0 0 21 10.669V7.34q-.49 0-.97-.102v2.62a7.9 7.9 0 0 1-4.62-1.484v6.79c0 3.396-2.745 6.15-6.129 6.15a6.1 6.1 0 0 1-3.412-1.04 6.1 6.1 0 0 0 4.382 1.85c3.385 0 6.129-2.753 6.129-6.15zm1.197-3.357a4.65 4.65 0 0 1-1.197-2.715v-.428h-.92a4.66 4.66 0 0 0 2.116 3.143M8.01 17.668a2.8 2.8 0 0 1-.572-1.703 2.808 2.808 0 0 1 3.654-2.681V9.882a6 6 0 0 0-.97-.056v2.648a2.808 2.808 0 0 0-3.654 2.682c0 1.098.627 2.049 1.542 2.512"/><path fill="#000" d="M15.41 8.375a7.9 7.9 0 0 0 4.62 1.483V7.24a4.63 4.63 0 0 1-2.454-1.411 4.66 4.66 0 0 1-2.116-3.143h-2.415v13.29a2.81 2.81 0 0 1-2.804 2.803c-.91 0-1.719-.435-2.231-1.11a2.81 2.81 0 0 1-1.542-2.513 2.808 2.808 0 0 1 3.654-2.681V9.826c-3.325.069-6 2.795-6 6.149a6.14 6.14 0 0 0 1.747 4.3 6.1 6.1 0 0 0 3.412 1.04c3.385 0 6.128-2.754 6.128-6.15z"/><path fill="#00F2EA" d="M20.03 7.24V6.53a4.6 4.6 0 0 1-2.453-.703 4.63 4.63 0 0 0 2.453 1.411m-4.57-4.555a5 5 0 0 1-.05-.382v-.428h-3.336v13.29a2.81 2.81 0 0 1-2.803 2.803c-.454 0-.882-.108-1.261-.3a2.8 2.8 0 0 0 2.231 1.11 2.81 2.81 0 0 0 2.804-2.803V2.685zm-5.338 7.141v-.754a6 6 0 0 0-.84-.057c-3.386 0-6.13 2.753-6.13 6.15a6.15 6.15 0 0 0 2.718 5.11 6.14 6.14 0 0 1-1.747-4.3c0-3.354 2.674-6.08 5.999-6.149"/></svg>