<svg xmlns="http://www.w3.org/2000/svg" width="24" height="24" fill="none"><path fill="url(#a)" fill-rule="evenodd" d="M8.145 9.873c4.29-1.448 5.021-5.22 4.473-8.686 0-.125.11-.215.22-.18 4.108 1.967 8.727 6.256 8.727 12.69 0 4.933-3.907 9.294-9.586 9.294a9.27 9.27 0 0 1-5.682-1.628 8.95 8.95 0 0 1-3.467-4.698 8.76 8.76 0 0 1 .207-5.792 9 9 0 0 1 3.793-4.45c.11-.071.256 0 .256.125.054.662.237 2.324.986 3.325z" clip-rule="evenodd"/><defs><linearGradient id="a" x1="1915.48" x2="-263.209" y1="1" y2="1895.51" gradientUnits="userSpaceOnUse"><stop stop-color="#FF7854"/><stop offset="1" stop-color="#FD267D"/></linearGradient></defs></svg>