<svg xmlns="http://www.w3.org/2000/svg" width="24" height="24" fill="none"><path fill="url(#a)" d="M19.654 2.1H4.596A2.34 2.34 0 0 0 2.25 4.446v15.09a2.34 2.34 0 0 0 2.346 2.346h15.058A2.34 2.34 0 0 0 22 19.536V4.446A2.34 2.34 0 0 0 19.654 2.1m-8.908 14.234a.785.785 0 0 1-.793.793H6.657a.785.785 0 0 1-.793-.793V6.538c0-.444.349-.792.793-.792h3.296c.444 0 .793.348.793.792zm7.608-4.502c0 .444-.348.793-.76.793h-3.33a.785.785 0 0 1-.792-.793V6.538c0-.444.349-.792.793-.792h3.297c.444 0 .792.348.792.792z"/><defs><linearGradient id="a" x1="3082.76" x2="3082.76" y1="2079.18" y2="2.432" gradientUnits="userSpaceOnUse"><stop stop-color="#0052CC"/><stop offset="1" stop-color="#2684FF"/></linearGradient></defs></svg>