<svg xmlns="http://www.w3.org/2000/svg" width="24" height="24" fill="none"><path fill="#34E0A1" d="M12 22c5.523 0 10-4.477 10-10S17.523 2 12 2 2 6.477 2 12s4.477 10 10 10"/><path fill="#000" d="m18.176 10.049 1.207-1.313h-2.676A8.3 8.3 0 0 0 12 7.288c-1.748 0-3.361.534-4.699 1.448H4.62l1.207 1.313a3.688 3.688 0 1 0 4.992 5.431L12 16.767l1.182-1.286a3.69 3.69 0 1 0 4.994-5.432m-9.864 5.222a2.496 2.496 0 1 1-.001-4.991 2.496 2.496 0 0 1 0 4.991M12 12.703c0-1.643-1.194-3.053-2.771-3.655A7.2 7.2 0 0 1 12 8.494c.982 0 1.918.197 2.77.554C13.196 9.65 12 11.06 12 12.703m3.688 2.568a2.496 2.496 0 1 1 0-4.991 2.496 2.496 0 0 1 0 4.991m0-3.805a1.308 1.308 0 1 0 0 2.616 1.308 1.308 0 0 0 0-2.616m-6.07 1.31a1.308 1.308 0 1 1-2.615 0 1.308 1.308 0 0 1 2.616 0"/></svg>