<svg xmlns="http://www.w3.org/2000/svg" width="24" height="24" fill="none"><path fill="#1D9BF0" d="M19.953 7.983c.012.174.012.347.012.523C19.965 13.844 15.837 20 8.29 20v-.003A11.75 11.75 0 0 1 2 18.186q.486.057.977.058a8.32 8.32 0 0 0 5.096-1.733c-1.756-.032-3.296-1.16-3.834-2.805a4.15 4.15 0 0 0 1.853-.07C4.178 13.256 2.8 11.6 2.8 9.676v-.05c.57.312 1.21.486 1.863.505a4.007 4.007 0 0 1-1.27-5.394 11.7 11.7 0 0 0 8.456 4.22 4 4 0 0 1 1.187-3.86 4.153 4.153 0 0 1 5.806.176c.919-.178 1.8-.51 2.606-.98a4.07 4.07 0 0 1-1.804 2.233A8.3 8.3 0 0 0 22 5.89a8.3 8.3 0 0 1-2.047 2.093"/></svg>