<svg xmlns="http://www.w3.org/2000/svg" width="24" height="24" fill="none"><path fill="#000" d="M20.235 2.294H3.765a1.47 1.47 0 0 0-1.471 1.47v16.471c0 .812.658 1.47 1.47 1.47h16.47a1.47 1.47 0 0 0 1.471-1.47V3.765a1.47 1.47 0 0 0-1.47-1.471"/><path fill="#fff" fill-rule="evenodd" d="M20.235 2.588c.65 0 1.177.527 1.177 1.177v16.47c0 .65-.527 1.177-1.177 1.177H3.765c-.65 0-1.177-.527-1.177-1.177V3.765c0-.65.527-1.177 1.177-1.177zm0-.588H3.765C2.79 2 2 2.79 2 3.765v16.47C2 21.21 2.79 22 3.765 22h16.47C21.21 22 22 21.21 22 20.235V3.765C22 2.79 21.21 2 20.235 2" clip-rule="evenodd"/><path fill="#fff" fill-rule="evenodd" d="M12 6.118a5.88 5.88 0 0 0-5.853 5.294h4.088v-.883c0-.162.132-.294.295-.294h2.94c.163 0 .295.132.295.294v2.942a.294.294 0 0 1-.294.294H10.53a.294.294 0 0 1-.295-.294v-.883H6.147A5.882 5.882 0 1 0 12 6.118" clip-rule="evenodd"/></svg>