<svg xmlns="http://www.w3.org/2000/svg" width="24" height="24" fill="none"><path fill="#2D68F8" fill-rule="evenodd" d="M18.511 10.595a3.489 3.489 0 1 0 0-6.977 3.489 3.489 0 0 0 0 6.977" clip-rule="evenodd"/><path fill="#181818" fill-rule="evenodd" d="m18.744 12.434-.465.021a5.116 5.116 0 0 1-4.43-7.678l-2.01-1.094a3.07 3.07 0 0 0-2.933 0L3.603 6.567A3.07 3.07 0 0 0 2 9.264v5.459a3.07 3.07 0 0 0 1.603 2.696l5.302 2.885a3.07 3.07 0 0 0 2.934 0l5.302-2.885a3.07 3.07 0 0 0 1.603-2.696z" clip-rule="evenodd"/></svg>