<svg xmlns="http://www.w3.org/2000/svg" width="24" height="24" fill="none"><path fill="#000" fill-rule="evenodd" d="M12 22c5.523 0 10-4.477 10-10S17.523 2 12 2 2 6.477 2 12s4.478 10 10 10m2.558-4.44c2.445-1.156 3.212-3.288 3.384-4.12-.893.916-1.883 1.844-2.548 1.202 0 0-.037-3.429-.037-4.835 0-1.89 1.794-3.3 1.794-3.3-.987.176-2.171.527-3.428 1.76q-.17.17-.322.355c-.538-.413-1.237-.289-1.237-.289.378.207.754.81.754 1.31v4.91s-.822.724-1.456.724a.9.9 0 0 1-.733-.37 1 1 0 0 1-.123-.214V8.626c-.187.155-.82.282-.82-.768 0-.654.47-1.432 1.308-1.91a6.17 6.17 0 0 0-3.108 1.433 6.09 6.09 0 0 0-2.107 4.665s.613-1.914 1.38-2.091a.743.743 0 0 1 .931.742v4.495c0 .456-.294.555-.566.55a2.4 2.4 0 0 1-.542-.102 6.12 6.12 0 0 0 4.837 2.48l1.657-1.665z" clip-rule="evenodd"/></svg>