<svg xmlns="http://www.w3.org/2000/svg" width="24" height="24" fill="none"><path fill="#14A800" d="M17.465 6.823c-2.144.01-3.773 1.428-4.383 3.688a20 20 0 0 1-2.28-4.898l-2.256.01.03 5.982a2.144 2.144 0 1 1-4.287.02l-.031-5.98L2 5.654l.031 5.981c.01 2.482 1.992 4.448 4.419 4.436s4.392-1.996 4.381-4.478l-.004-1.016c.455.9 1.023 1.857 1.648 2.7l-1.38 6.608 2.313-.01.994-4.802c.905.56 1.922.894 3.106.889 2.483-.011 4.504-2.051 4.492-4.647a4.527 4.527 0 0 0-4.535-4.493m.032 6.827c-.903.004-1.807-.386-2.543-1.004l.221-.906v-.057c.165-.96.664-2.599 2.357-2.606a2.264 2.264 0 0 1 2.268 2.246c-.051 1.298-1.118 2.319-2.303 2.324z"/></svg>