<svg xmlns="http://www.w3.org/2000/svg" width="24" height="24" fill="none"><path fill="#7360F2" d="M19.765 3.61c-.526-.466-2.63-2-7.364-2.027 0 0-5.565-.328-8.278 2.136-1.522 1.505-2.048 3.668-2.104 6.378-.055 2.71-.138 7.775 4.817 9.17v2.108s-.027.85.526 1.013c.693.22 1.08-.438 1.745-1.122.36-.383.858-.93 1.218-1.369 3.377.274 5.98-.356 6.284-.465.692-.22 4.54-.712 5.177-5.776.665-5.256-.277-8.569-2.02-10.047m.581 9.635c-.526 4.243-3.654 4.517-4.235 4.681-.25.082-2.52.63-5.399.466 0 0-2.131 2.545-2.824 3.23a.43.43 0 0 1-.304.137c-.11-.028-.138-.165-.138-.356 0-.274.027-3.504.027-3.504-4.18-1.15-3.931-5.475-3.903-7.747.055-2.272.47-4.107 1.744-5.366 2.298-2.053 7.032-1.752 7.032-1.752 3.986.028 5.897 1.205 6.34 1.615 1.439 1.26 2.186 4.243 1.66 8.596"/><path fill="#7360F2" d="M11.847 5.316a.265.265 0 0 0-.266.264c0 .146.12.264.266.264 1.43 0 2.608.468 3.552 1.376.937.9 1.442 2.142 1.442 3.753 0 .146.12.264.267.264a.265.265 0 0 0 .266-.264c0-1.728-.546-3.115-1.603-4.131-1.05-1.009-2.363-1.526-3.924-1.526"/><path fill="#7360F2" d="M12.108 6.9a.266.266 0 0 1 .286-.241c1.104.086 2.004.463 2.668 1.18.631.683.957 1.573.928 2.594a.265.265 0 0 1-.274.256.265.265 0 0 1-.26-.27c.027-.896-.257-1.65-.788-2.224-.554-.598-1.316-.933-2.316-1.01a.265.265 0 0 1-.245-.284"/><path fill="#7360F2" d="M12.467 8.33a.266.266 0 0 1 .28-.248c.558.03 1.018.196 1.345.532.325.334.484.8.513 1.36a.265.265 0 0 1-.252.277.266.266 0 0 1-.28-.25c-.026-.48-.158-.808-.366-1.021-.206-.212-.52-.347-.988-.372a.265.265 0 0 1-.252-.277M12.789 13.519s.387.027.581-.22l.388-.492c.193-.246.636-.41 1.107-.164.25.137.692.41.969.63.305.219.913.711.913.711.305.247.36.602.167.986q-.291.534-.83.985a1.7 1.7 0 0 1-.831.41h-.111c-.11 0-.25-.026-.36-.054-.415-.11-1.107-.41-2.298-1.04a14 14 0 0 1-1.91-1.26 7 7 0 0 1-.858-.766l-.111-.11a10 10 0 0 1-.775-.848 14 14 0 0 1-1.274-1.889c-.636-1.15-.941-1.834-1.052-2.272-.027-.11-.055-.219-.055-.356v-.11q.042-.41.415-.82.457-.494.997-.822c.387-.192.747-.137.996.164 0 0 .499.603.72.904.194.273.47.711.637.958.25.438.083.903-.138 1.095l-.499.383c-.249.192-.221.575-.221.575s.692 2.71 3.433 3.422"/></svg>