<svg xmlns="http://www.w3.org/2000/svg" width="24" height="24" fill="none"><path fill="#1CA7CC" d="M22.99 6.9q-.148 3.204-4.486 8.775-4.487 5.815-7.593 5.814c-1.281 0-2.368-1.184-3.25-3.55l-1.77-6.506q-.992-3.551-2.12-3.55-.247-.001-1.726 1.037L1.009 7.588l3.195-2.86c1.446-1.25 2.53-1.903 3.25-1.971 1.718-.162 2.768 1.004 3.161 3.53l.888 5.03q.74 3.355 1.626 3.356.69-.001 2.072-2.167c.922-1.443 1.414-2.548 1.48-3.304q.198-1.876-1.48-1.876c-.529 0-1.068.116-1.626.344 1.058-3.515 3.156-5.225 6.211-5.127q3.4.098 3.203 4.387z"/></svg>