<svg xmlns="http://www.w3.org/2000/svg" width="24" height="24" fill="none"><path fill="#2787F5" d="M2 11.583c0-4.517 0-6.776 1.403-8.18S7.067 2 11.583 2h.834c4.517 0 6.776 0 8.18 1.403S22 7.067 22 11.583v.834c0 4.517 0 6.776-1.403 8.18S16.933 22 12.417 22h-.834c-4.517 0-6.776 0-8.18-1.403S2 16.933 2 12.417z"/><path fill="#fff" fill-rule="evenodd" d="M7.417 8.25H5.959c-.417 0-.5.196-.5.413 0 .386.494 2.302 2.302 4.835 1.204 1.73 2.902 2.669 4.447 2.669.927 0 1.042-.209 1.042-.567v-1.308c0-.417.088-.5.381-.5.217 0 .587.108 1.453.942.989.99 1.151 1.433 1.707 1.433h1.459c.417 0 .625-.209.505-.62-.132-.41-.604-1.004-1.23-1.709-.34-.401-.85-.834-1.004-1.05-.217-.279-.155-.402 0-.65 0 0 1.776-2.502 1.962-3.352.093-.309 0-.536-.442-.536h-1.458c-.37 0-.542.196-.634.413 0 0-.742 1.807-1.792 2.981-.34.34-.495.449-.68.449-.093 0-.227-.109-.227-.418V8.786c0-.37-.107-.536-.417-.536h-2.292c-.231 0-.37.172-.37.335 0 .352.525.433.579 1.422v2.147c0 .471-.085.557-.27.557-.495 0-1.697-1.816-2.41-3.894-.14-.404-.28-.567-.653-.567" clip-rule="evenodd"/></svg>