<svg xmlns="http://www.w3.org/2000/svg" width="24" height="24" fill="none"><path fill="#FF6122" d="M11.237 12.43c-2.472 3.96-2.977 8.397-6.595 8.397-2.048 0-4.356-1.966-4.615-8.492-.123-3.113.15-6.076 1.324-7.592 1.16-1.502 3.1-1.229 3.919-.532 1.201 1.024 1.106 2.976.86 5.734 3.004-4.915 5.202-6.827 6.895-6.936 3.222-.218 3.318 3.55 2.936 5.776 2.212-2.922 3.973-4.315 5.065-4.861 2.13-1.079 3.96.423 2.376 2.73-2.39 3.51-3.072 4.656-5.448 9.517-1.68 3.455-5.38 3.195-6.458-.205-.273-.873-.355-2.116-.26-3.536"/></svg>