<svg xmlns="http://www.w3.org/2000/svg" width="24" height="24" fill="none"><path fill="#2DC100" d="M22 19a3 3 0 0 1-3 3H5a3 3 0 0 1-3-3V5a3 3 0 0 1 3-3h14a3 3 0 0 1 3 3z"/><path fill="#fff" d="M15.387 9.458c-1.614.084-3.017.574-4.157 1.68-1.152 1.116-1.678 2.485-1.534 4.182-.631-.078-1.205-.164-1.783-.213-.2-.017-.437.007-.606.103-.56.316-1.099.674-1.736 1.072.116-.53.192-.992.327-1.438.098-.328.053-.51-.25-.723-1.937-1.368-2.753-3.415-2.142-5.523.565-1.95 1.953-3.133 3.84-3.75 2.577-.84 5.47.018 7.037 2.062a4.83 4.83 0 0 1 1.004 2.548m-7.43-.656c.016-.386-.318-.733-.715-.745a.723.723 0 0 0-.752.699.715.715 0 0 0 .707.742c.406.01.746-.301.76-.696m3.877-.745c-.399.007-.735.346-.728.733.007.401.337.716.747.71a.714.714 0 0 0 .718-.731.72.72 0 0 0-.737-.712"/><path fill="#fff" d="M19.014 19.522c-.511-.228-.98-.57-1.48-.621-.497-.052-1.02.235-1.54.288-1.584.162-3.004-.28-4.175-1.363-2.226-2.059-1.908-5.216.667-6.904 2.29-1.5 5.648-1 7.261 1.081 1.41 1.816 1.244 4.227-.477 5.752-.497.442-.676.805-.357 1.387.06.108.066.244.1.38m-5.819-5.633a.603.603 0 0 0 .606-.576.606.606 0 0 0-.602-.627.61.61 0 0 0-.608.623c.011.32.281.579.604.58m3.75-1.202a.6.6 0 0 0-.596.575.59.59 0 0 0 .589.623.586.586 0 0 0 .596-.57.597.597 0 0 0-.588-.628"/></svg>