<svg xmlns="http://www.w3.org/2000/svg" width="24" height="24" fill="none"><path fill="#fff" d="m1 23 1.554-5.649a10.84 10.84 0 0 1-1.462-5.45C1.095 5.891 6.008 1 12.046 1c2.93.001 5.68 1.137 7.749 3.197A10.8 10.8 0 0 1 23 11.91c-.003 6.01-4.917 10.901-10.954 10.901h-.005c-1.833 0-3.634-.458-5.234-1.327z"/><path fill="url(#a)" d="M12.05 2.842c-5.023 0-9.107 4.064-9.109 9.06a9 9 0 0 0 1.392 4.822l.217.343-.92 3.343 3.446-.9.333.197c1.397.825 3 1.262 4.634 1.263h.003c5.018 0 9.102-4.065 9.104-9.06a8.97 8.97 0 0 0-2.664-6.411 9.08 9.08 0 0 0-6.437-2.657"/><path fill="#fff" fill-rule="evenodd" d="M9.308 7.344c-.205-.454-.42-.463-.616-.471l-.524-.006c-.183 0-.48.068-.73.34-.25.273-.958.932-.958 2.273 0 1.34.98 2.636 1.117 2.818s1.894 3.02 4.676 4.113c2.312.907 2.782.727 3.284.681s1.62-.659 1.847-1.295c.228-.636.229-1.181.16-1.295-.068-.114-.25-.182-.525-.318-.274-.137-1.619-.796-1.87-.887-.25-.09-.433-.136-.616.137-.182.272-.706.886-.866 1.068-.16.181-.32.204-.593.068-.274-.136-1.155-.424-2.201-1.352-.814-.722-1.363-1.614-1.523-1.887s-.017-.42.12-.556c.123-.122.274-.318.411-.477.137-.16.182-.273.274-.454.09-.182.045-.341-.023-.478-.069-.136-.6-1.483-.844-2.022" clip-rule="evenodd"/><defs><linearGradient id="a" x1="11.861" x2="11.952" y1="3.929" y2="19.421" gradientUnits="userSpaceOnUse"><stop stop-color="#57D163"/><stop offset="1" stop-color="#23B33A"/></linearGradient></defs></svg>