<svg xmlns="http://www.w3.org/2000/svg" width="24" height="24" fill="none"><path fill="#000" d="M17.929 4.768v.386q-.763.135-1.156.48c-.374.34-.816.862-1.106 1.564L9.771 19.232H9.38l-5.92-12.19c-.275-.626-.65-1.009-.763-1.148a1.85 1.85 0 0 0-.652-.505Q1.657 5.206 1 5.154v-.386h5.76v.386c-.665.062-.982.174-1.18.334a.76.76 0 0 0-.297.615q0 .521.488 1.627l4.371 8.29 4.274-8.186c.332-.807.608-1.366.608-1.679q0-.303-.308-.579c-.204-.184-.436-.314-.924-.39l-.18-.032v-.386z"/><path fill="#000" d="M23 4.768v.386q-.763.135-1.156.48c-.374.34-.816.862-1.106 1.564l-5.174 12.034h-.393L9.703 7.042c-.275-.626-.65-1.009-.763-1.148a1.85 1.85 0 0 0-.652-.505c-.258-.122-.492-.2-.93-.235v-.386h5.645v.386c-.665.062-.981.174-1.18.334a.76.76 0 0 0-.296.615q0 .521.488 1.627l3.92 8.29 3.552-8.186c.332-.807.608-1.366.608-1.679q0-.303-.307-.579-.309-.276-1.04-.39l-.18-.032v-.386z"/></svg>