<svg xmlns="http://www.w3.org/2000/svg" width="24" height="24" fill="none"><path fill="#000" d="M23.899 7h-1.32a1.1 1.1 0 0 0-.914.485l-1.766 2.604a.12.12 0 0 1-.098.052.12.12 0 0 1-.098-.052l-1.765-2.604A1.1 1.1 0 0 0 17.023 7h-1.32l3.145 4.64-3.127 4.613h1.32a1.1 1.1 0 0 0 .914-.485l1.748-2.578a.118.118 0 0 1 .196 0l1.748 2.578a1.1 1.1 0 0 0 .914.485h1.32l-3.127-4.613zm-10.912.946v8.307h.631a.946.946 0 0 0 .947-.947V7h-.631a.947.947 0 0 0-.947.946M11.831 7h-.562a1.324 1.324 0 0 0-1.29 1.03l-1.257 5.522-1.1-5.155a1.754 1.754 0 0 0-2.18-1.318c-.637.176-1.11.714-1.247 1.36l-1.089 5.106-1.254-5.514A1.325 1.325 0 0 0 .562 7H0l2.104 9.253h.798c.723 0 1.348-.506 1.5-1.214l1.345-6.313a.17.17 0 0 1 .166-.135c.08 0 .15.057.167.135l1.346 6.314a1.53 1.53 0 0 0 1.5 1.213h.8z"/></svg>