<svg xmlns="http://www.w3.org/2000/svg" width="24" height="24" fill="none"><path fill="#21759B" d="M3.421 12a8.58 8.58 0 0 0 4.835 7.72L4.164 8.508A8.55 8.55 0 0 0 3.421 12M17.79 11.567c0-1.06-.38-1.795-.707-2.366-.434-.707-.842-1.305-.842-2.012 0-.789.598-1.523 1.44-1.523.038 0 .075.005.112.007A8.55 8.55 0 0 0 12 3.421a8.57 8.57 0 0 0-7.168 3.867c.202.006.391.01.552.01.898 0 2.287-.109 2.287-.109.462-.027.517.652.055.707 0 0-.465.055-.982.082l3.124 9.292 1.877-5.63-1.336-3.663c-.462-.027-.9-.081-.9-.081-.462-.027-.408-.734.054-.707 0 0 1.417.109 2.26.109.897 0 2.286-.109 2.286-.109.463-.027.517.652.055.707 0 0-.466.054-.982.081l3.1 9.222.856-2.86c.37-1.186.653-2.038.653-2.773"/><path fill="#21759B" d="m12.15 12.75-2.573 7.479a8.58 8.58 0 0 0 5.272-.137 1 1 0 0 1-.062-.118zM19.527 7.884q.056.409.057.882c0 .87-.162 1.849-.652 3.072l-2.62 7.576A8.57 8.57 0 0 0 20.578 12c0-1.49-.381-2.893-1.051-4.115"/><path fill="#21759B" d="M12 2C6.486 2 2 6.486 2 12s4.486 10 10 10c5.513 0 10-4.486 10-10S17.513 2 12 2m0 19.54c-5.261 0-9.541-4.28-9.541-9.54 0-5.262 4.28-9.542 9.54-9.542 5.262 0 9.542 4.28 9.542 9.541S17.26 21.541 12 21.541"/></svg>