<svg xmlns="http://www.w3.org/2000/svg" width="24" height="24" fill="none"><path fill="#107C10" d="M11.008 21.971a10 10 0 0 1-4.438-1.574c-1.122-.732-1.375-1.033-1.375-1.634 0-1.207 1.327-3.32 3.596-5.729 1.29-1.368 3.085-2.971 3.279-2.928.377.084 3.396 3.028 4.526 4.414 1.786 2.191 2.607 3.986 2.19 4.785-.317.608-2.286 1.797-3.731 2.254-1.192.376-2.757.535-4.047.412M3.68 17.509c-.932-1.431-1.404-2.84-1.63-4.877-.076-.672-.05-1.057.17-2.438.272-1.719 1.252-3.71 2.43-4.934.501-.52.546-.535 1.157-.328.741.25 1.534.798 2.763 1.91l.718.649-.393.48c-1.819 2.233-3.738 5.4-4.46 7.359-.394 1.064-.552 2.133-.382 2.577.114.301.01.19-.374-.398zm16.369.243c.092-.45-.025-1.276-.298-2.109-.59-1.804-2.568-5.16-4.383-7.442l-.572-.718.619-.568c.807-.741 1.367-1.185 1.972-1.562.477-.297 1.16-.56 1.453-.56.18 0 .816.662 1.33 1.382.795 1.115 1.38 2.47 1.677 3.878.192.91.207 2.857.03 3.766a12 12 0 0 1-.75 2.367c-.225.49-.78 1.444-1.024 1.755-.126.16-.126.159-.056-.185zm-8.875-13.3c-.838-.425-2.13-.882-2.843-1.005a5 5 0 0 0-.948-.053c-.59.03-.563-.001.381-.448a9.7 9.7 0 0 1 2.33-.776c1-.21 2.882-.212 3.866-.005 1.063.225 2.315.69 3.02 1.125l.21.129-.48-.025c-.957-.048-2.35.338-3.847 1.066-.45.22-.843.395-.872.39a16 16 0 0 1-.818-.398z"/></svg>