<svg xmlns="http://www.w3.org/2000/svg" width="24" height="24" fill="none"><path fill="#FF6900" d="M19.915 4.09C18.03 2.21 15.315 2 12 2c-3.32 0-6.037.212-7.923 2.097C2.191 5.981 2 8.694 2 12.01s.191 6.03 2.078 7.914C5.964 21.81 8.68 22 12 22s6.036-.19 7.922-2.076C21.808 18.04 22 15.326 22 12.01c0-3.32-.194-6.036-2.085-7.92"/><path fill="#fff" d="M17.803 8.196c.069 0 .126.055.126.123v7.398a.125.125 0 0 1-.126.122h-1.62a.125.125 0 0 1-.127-.122V8.319c0-.068.057-.123.126-.123zm-7.034 0c1.223 0 2.501.056 3.132.687.62.62.687 1.857.69 3.058v3.776a.125.125 0 0 1-.126.122h-1.62a.125.125 0 0 1-.127-.122v-3.841c-.002-.67-.04-1.36-.386-1.707-.298-.298-.853-.367-1.43-.381H7.962a.124.124 0 0 0-.125.122v5.807a.125.125 0 0 1-.126.122H6.09a.124.124 0 0 1-.125-.122V8.319c0-.068.056-.123.125-.123zm.363 2.946c.069 0 .125.055.125.123v4.452a.124.124 0 0 1-.125.122H9.429a.125.125 0 0 1-.126-.122v-4.452c0-.068.056-.123.126-.123z"/></svg>