<svg xmlns="http://www.w3.org/2000/svg" width="24" height="24" fill="none"><path fill="#FF1B1A" d="M3.705 11.591c-.373.574-.53 2.377-.4 3.573.045.394.12.724.228.92.15.272.4.435.685.444.183.01.298-.022 3.739-1.084 0 0 1.529-.468 1.536-.472.381-.094.64-.43.664-.86.024-.44-.211-.83-.603-.969l-1.08-.421c-3.7-1.464-3.866-1.522-4.053-1.524-.286-.009-.539.129-.716.393m8.273 10.907c.06-.166.068-.28.078-3.75 0 0 .007-1.533.01-1.549.024-.376-.229-.718-.644-.872-.428-.157-.888-.06-1.146.248 0 0-.754.86-.758.86-2.59 2.92-2.7 3.055-2.762 3.227a.7.7 0 0 0-.042.318.83.83 0 0 0 .21.45c.6.686 3.482 1.703 4.402 1.551.322-.052.554-.224.652-.483m5.847-1.207c.87-.332 2.764-2.644 2.898-3.536.047-.31-.054-.577-.277-.747-.145-.105-.256-.147-3.697-1.23 0 0-1.509-.478-1.53-.487-.365-.136-.782-.01-1.061.322-.292.34-.336.79-.102 1.129l.607.947c2.042 3.183 2.199 3.407 2.346 3.517.226.172.515.201.816.085M16.047 13.1c3.909-.908 4.062-.957 4.214-1.055.238-.154.357-.409.336-.72q.002-.014 0-.03c-.1-.923-1.782-3.319-2.611-3.708-.295-.135-.589-.126-.832.031-.15.094-.262.237-2.355 2.985 0 0-.944 1.236-.956 1.249-.249.29-.252.707-.01 1.065.253.371.68.55 1.07.447 0 0-.015.027-.02.03.193-.07.536-.151 1.164-.294m-3.923-3.097c-.068-1.488-.534-8.107-.589-8.413-.079-.278-.305-.476-.63-.555-.999-.237-4.813.789-5.52 1.487-.228.228-.311.506-.243.754.11.22 4.838 7.354 4.838 7.354.697 1.088 1.269.918 1.455.861.185-.052.753-.222.689-1.488"/></svg>