<svg xmlns="http://www.w3.org/2000/svg" width="24" height="24" fill="none"><path fill="#0F88EB" d="M18 22H6a4 4 0 0 1-4-4V6a4 4 0 0 1 4-4h12a4 4 0 0 1 4 4v12a4 4 0 0 1-4 4"/><path fill="#fff" d="m10.072 14.005-.571.444c.118-.532.207-1.126.273-1.725h2.673c0-.99-.351-1-.351-1h-2.23c.124-1.68.102-3.16.102-3.16h2.229v-.377a.547.547 0 0 0-.547-.547H7.923l.607-1.833c-.5-.02-1.145.209-1.458 1.167s-1.25 3.167-1.25 3.167c1.25 0 1.604-1 1.604-1l.191-.577h1.268l-.021 3.16h-2.26c-.594 0-.72 1-.72 1h2.862c-.632 3.985-3.111 5.438-3.111 5.438 2.041.187 2.375-.417 3.395-2.313.161-.299.294-.684.405-1.12l2.252 2.787s.302-1.292-.053-1.709c-.354-.416-1.562-1.802-1.562-1.802M13.036 7.433v9.374h1.016l.337 1.126 1.783-1.126h2.194V7.432zm4.243 8.29h-1.187l-1.24.793-.273-.793h-.46V8.516h3.16z"/></svg>